<?xml version="1.0" encoding="UTF-8" standalone="no"?>
<!-- Created with Inkscape (http://www.inkscape.org/) -->

<svg
   xmlns:dc="http://purl.org/dc/elements/1.1/"
   xmlns:cc="http://creativecommons.org/ns#"
   xmlns:rdf="http://www.w3.org/1999/02/22-rdf-syntax-ns#"
   xmlns:svg="http://www.w3.org/2000/svg"
   xmlns="http://www.w3.org/2000/svg"
   xmlns:sodipodi="http://sodipodi.sourceforge.net/DTD/sodipodi-0.dtd"
   xmlns:inkscape="http://www.inkscape.org/namespaces/inkscape"
   width="553.12292"
   height="536.6524"
   id="svg2"
   version="1.1"
   inkscape:version="0.48.2 r9819"
   sodipodi:docname="Nouveau document 1">
  <defs
     id="defs4" />
  <sodipodi:namedview
     id="base"
     pagecolor="#ffffff"
     bordercolor="#666666"
     borderopacity="1.0"
     inkscape:pageopacity="0.0"
     inkscape:pageshadow="2"
     inkscape:zoom="0.49497475"
     inkscape:cx="69.212726"
     inkscape:cy="401.17891"
     inkscape:document-units="px"
     inkscape:current-layer="g3052"
     showgrid="false"
     fit-margin-bottom="5"
     fit-margin-top="5"
     fit-margin-right="5"
     fit-margin-left="5"
     inkscape:window-width="1366"
     inkscape:window-height="706"
     inkscape:window-x="-8"
     inkscape:window-y="-8"
     inkscape:window-maximized="1" />
  <metadata
     id="metadata7">
    <rdf:RDF>
      <cc:Work
         rdf:about="">
        <dc:format>image/svg+xml</dc:format>
        <dc:type
           rdf:resource="http://purl.org/dc/dcmitype/StillImage" />
        <dc:title></dc:title>
      </cc:Work>
    </rdf:RDF>
  </metadata>
  <g
     inkscape:label="Calque 1"
     inkscape:groupmode="layer"
     id="layer1"
     transform="translate(-74.333799,-262.65233)">
    <g
       transform="matrix(1.8303848,0,0,1.8303848,-472.41767,-279.39525)"
       id="layer1-7-4"
       inkscape:label="Layer 1">
      <g
         id="g3076"
         transform="translate(-10.92666,-21.853331)">
        <g
           id="g3052">
          <g
             id="g3856">
            <path
               inkscape:connector-curvature="0"
               id="path11463-9"
               d="m 409.82693,573.66077 c -2.50433,-10.49608 -10.85209,-16.83056 -6.55545,-20.29242 -1.05575,-3.47414 -3.17952,-7.81989 -3.13041,-7.77078 -12.96358,-7.46388 -24.04892,-19.55586 -25.90261,-21.31135 -2.24653,-2.50433 -6.12579,-4.99638 -6.85008,-7.00966 -3.13041,-2.83578 -18.47556,-24.52769 -21.93742,-32.48261 l -6.24855,-0.89616 c -2.81123,-11.52727 -12.21474,-21.20086 -12.46026,-32.78951 -0.0736,-4.3703 1.97646,-13.70015 2.71302,-15.56612 0.7734,-1.87825 4.39485,-4.99638 4.39485,-4.99638 l 0,-3.11814 c -13.55283,0.40512 -9.62447,-0.98209 -11.96921,-6.22399 -1.63272,-3.64601 -0.49105,-4.44395 0.0982,-6.99739 1.78004,-7.4025 7.86899,-18.94205 10.36104,-24.17167 0.74885,-2.61482 3.37594,-8.97385 3.37594,-8.97385 10.07869,-20.57477 13.83518,-19.07709 25.77984,-20.19421 l 0.63836,-0.85933 c 12.00605,-0.5156 10.06642,-1.46086 11.7237,-12.97586 -1.75549,0.74884 -2.24653,-3.60918 -2.24653,-3.60918 -0.96982,-6.6291 1.80459,-5.35239 3.09358,-5.47515 0.31918,-10.80298 1.37492,-14.21574 9.23164,-17.21112 l -47.63134,0 c -13.20911,0 -23.93843,10.70478 -23.93843,23.92616 l 0,239.82626 c 0,13.24593 10.7416,23.96298 23.9507,23.96298 l 77.96564,-0.0123 c -8.07769,-4.3703 -3.27773,-12.73034 -3.01993,-28.54198 -3.8056,-3.44959 -1.26444,-4.84907 -1.4363,-6.23627"
               style="fill:#006bb6;fill-rule:nonzero;stroke:none" />
            <path
               inkscape:connector-curvature="0"
               id="path11465-4"
               d="m 417.86778,608.14439 c 10.48381,-6.33448 3.97747,-18.42645 2.00101,-25.52205 -0.14731,-0.38056 0.15959,-0.92071 0.36828,-1.23989 0.5156,-0.96981 -0.6138,-3.24089 -0.6138,-3.24089 -1.23989,-1.12941 -1.58362,-7.00967 -2.27108,-9.73497 -1.12941,-4.48078 2.001,-12.20246 2.001,-14.81727 0,-2.63937 -2.001,-6.23627 -5.61018,-10.83981 -0.85933,-1.00665 -3.52325,-23.50877 -5.85571,-29.16806 -3.2409,-7.85672 -4.24754,-6.61683 -8.08996,-15.98351 -3.00765,-6.60455 -0.63836,-16.31496 -7.34112,-38.87847 0.0246,0.11049 1.46086,-1.36265 1.46086,-1.36265 0,0 -5.37694,-19.59268 -7.0956,-24.94507 -1.75549,-5.35239 -4.86134,-5.72067 -4.86134,-5.72067 0,0 0.0245,-2.19743 0.17186,-2.74985 0.27008,-0.88388 6.48179,-17.18657 7.05877,-17.70217 0.0246,-0.38056 9.0475,-6.51862 9.21936,-5.59791 0.74885,3.97746 4.23527,24.29444 5.73295,27.54761 1.49769,3.2409 6.73959,13.20911 9.17026,19.37172 -9.3544,2.25881 -16.31496,10.6925 -16.31496,20.75892 0,11.79735 9.5631,21.34817 21.36045,21.34817 9.01067,0 16.73235,-5.58564 19.87503,-13.46691 1.66956,-5.61018 1.66956,-10.82753 0,-15.66432 -0.68746,-1.78004 -1.57134,-3.40049 -2.78667,-5.00866 0.0123,-3.19179 -3.43732,-3.17951 -4.38258,-4.34575 -0.8716,-1.06802 0.87161,-1.60817 -5.11914,-3.00764 -1.11713,-0.61381 -1.97646,-9.41579 -1.97646,-9.41579 -0.88388,-5.58563 -2.88488,-9.45261 -5.86798,-15.44336 -1.52224,-3.0322 -2.23425,-12.58302 -3.86698,-17.45664 0.90843,-22.24432 -6.21171,-28.72612 -11.93239,-32.35985 -2.19742,-1.41175 -3.3391,-2.40612 -5.47514,-3.70738 l -0.0614,-0.99437 c -1.6941,-1.63272 -5.08231,-3.31455 -7.89354,-4.56672 -0.81022,-0.8716 -0.40511,-2.7744 0.14731,-3.44959 1.86597,-0.25779 4.3703,-4.49306 6.50635,-8.87563 1.55906,0.11048 2.13604,-1.50996 2.70074,-2.36929 1.68183,-2.82351 3.53553,-5.2419 1.14168,-6.89918 5.47515,-9.74724 1.9519,-16.36407 -0.95754,-16.62187 -1.25216,-2.41839 -3.30227,-3.97746 -6.98511,-5.27873 l 193.70488,-0.0123 c 13.24594,0 23.95071,10.71705 23.95071,23.93843 l 0.0123,239.81398 c 0,12.04288 -8.67922,21.91288 -20.14511,23.66836 l -171.08,0"
               style="fill:#e51749;fill-opacity:1;fill-rule:nonzero;stroke:none" />
          </g>
        </g>
        <g
           id="g3068">
          <g
             id="g3064">
            <path
               inkscape:connector-curvature="0"
               id="path11467-8"
               d="m 466.81267,510.34055 0,-60.55809 -21.21313,0 0,-20.29243 64.32686,0 0,20.29243 -21.21313,0 0,60.55809 -21.9006,0"
               style="fill:#ffffff;fill-rule:nonzero;stroke:none" />
            <path
               inkscape:connector-curvature="0"
               id="path11469-8"
               d="m 602.08323,429.47776 -42.4631,80.86279 -42.15619,-80.85052 25.70619,-0.0123 16.45,35.24473 16.53593,-35.24473 25.92717,0"
               style="fill:#ffffff;fill-rule:nonzero;stroke:none" />
          </g>
          <path
             style="fill:#ffffff;fill-rule:nonzero;stroke:none"
             d="m 324.96211,556.35145 8.11452,0 5.70839,19.72772 0.2578,1.42403 0.0859,0 0,-21.15175 7.15697,0 0,35.90764 -8.05313,0 -5.8066,-20.90623 -0.2087,-1.30127 -0.0737,0 0,22.2075 -7.18153,0 0,-35.90764"
             id="path11471-2"
             inkscape:connector-curvature="0" />
          <path
             style="fill:#ffffff;fill-rule:nonzero;stroke:none"
             d="m 357.64114,570.55492 2.27109,0 c 2.61481,0 2.88488,-1.93963 2.88488,-4.17389 0,-2.5166 -0.54015,-3.92835 -2.56571,-3.92835 l -2.59026,0 0,8.10224 z m 0,15.59067 2.4675,0 c 2.73758,0 3.05676,-1.35038 3.05676,-4.91045 0,-2.45522 -0.31918,-4.84907 -2.88489,-4.84907 l -2.63937,0 0,9.75952 z m -8.51962,-29.79414 11.72369,0 c 6.0153,0 8.92474,2.28335 8.92474,8.44597 0,3.78104 -0.52787,7.09559 -4.52989,8.44597 l 0,0.0982 c 4.05112,0.71202 5.42605,3.73194 5.42605,8.26183 0,6.02758 -2.19743,10.65567 -9.55082,10.65567 l -11.99377,0 0,-35.90764"
             id="path11473-4"
             inkscape:connector-curvature="0" />
          <path
             style="fill:#ffffff;fill-rule:nonzero;stroke:none"
             d="m 382.92995,562.61227 -2.06239,16.13082 4.12478,0 -1.87825,-16.13082 -0.0491,-0.83478 -0.0859,0 -0.0491,0.83478 z m -5.38922,-6.26082 10.96258,0 6.73959,35.90764 -8.66694,0 -0.7734,-7.89354 -5.79433,0 -0.85933,7.89354 -8.26182,0 6.65365,-35.90764"
             id="path11475-5"
             inkscape:connector-curvature="0" />
        </g>
      </g>
    </g>
  </g>
</svg>
