<?xml version="1.0" encoding="UTF-8" standalone="no"?>
<svg
   xmlns:dc="http://purl.org/dc/elements/1.1/"
   xmlns:cc="http://creativecommons.org/ns#"
   xmlns:rdf="http://www.w3.org/1999/02/22-rdf-syntax-ns#"
   xmlns:svg="http://www.w3.org/2000/svg"
   xmlns="http://www.w3.org/2000/svg"
   version="1.1"
   id="svg2"
   viewBox="0 0 304.40607 316.15611"
   height="89.22628mm"
   width="85.910156mm">
  <defs
     id="defs4" />
  <metadata
     id="metadata7">
    <rdf:RDF>
      <cc:Work
         rdf:about="">
        <dc:format>image/svg+xml</dc:format>
        <dc:type
           rdf:resource="http://purl.org/dc/dcmitype/StillImage" />
        <dc:title></dc:title>
      </cc:Work>
    </rdf:RDF>
  </metadata>
  <g
     transform="translate(2221.3454,-288.33742)"
     id="layer1">
    <path
       id="path3815"
       d="m -2099.622,603.95455 c -18.5084,-1.11628 -40.0163,-7.32151 -57.0985,-16.47348 -11.6553,-6.24447 -22.2017,-14.16046 -32.1141,-24.10458 -11.9665,-12.00476 -21.0351,-24.59644 -28.0309,-38.92063 -3.6646,-7.50343 -4.8616,-10.80207 -4.3776,-12.06338 0.1636,-0.42625 1.4128,-1.3402 2.776,-2.031 7.2438,-3.67073 85.6146,-33.64124 86.266,-32.98981 0.095,0.0955 -1.81,1.63583 -4.2345,3.423 -7.2419,5.3384 -22.2406,20.94626 -21.1636,22.02325 0.1491,0.1491 4.0938,-1.54477 8.7659,-3.76415 20.5253,-9.75013 33.8485,-14.62414 52.7096,-19.28282 12.8729,-3.17959 19.2956,-4.1169 30.2839,-4.41957 14.7576,-0.40649 26.0776,1.0181 32.2944,4.06416 3.3153,1.62439 4.1085,3.03576 4.704,8.37033 0.2824,2.5287 -1.3303,5.6078 -1.1145,5.6078 0.8023,0 12.3147,-11.48091 14.3827,-14.64721 2.7019,-4.13656 3.5513,-6.17866 4.5189,-10.86311 1.6075,-7.78235 0.6758,-16.34132 -2.4737,-22.72446 -3.5416,-7.1777 -8.996,-12.51508 -25.2902,-24.74778 -5.547,-4.1643 -12.6869,-10.13347 -16.9201,-14.14566 -12.76,-12.09388 -14.3394,-13.15672 -27.0216,-18.18437 -9.5113,-3.77062 -16.2857,-5.96413 -36.618,-11.85672 -10.4172,-3.01905 -28.3727,-8.37088 -39.901,-11.89297 -11.5284,-3.52208 -25.62,-7.77102 -31.3147,-9.44209 -5.6948,-1.67108 -10.6442,-3.19384 -10.9987,-3.38395 -1.593,-0.85418 7.4556,-11.79249 18.487,-22.34782 21.1363,-20.22414 45.2774,-32.66952 74.7617,-38.5417 8.8689,-1.76636 15.8614,-2.27386 31.3921,-2.27839 18.5884,-0.005 25.6626,0.76282 40.1536,4.36049 22.2883,5.53352 42.6272,15.23262 60.6051,28.90106 6.3201,4.80511 20.4501,18.80513 26.0669,25.8272 2.3329,2.91657 4.6395,5.7008 5.1256,6.18718 0.4861,0.48638 0.8839,1.0723 0.8839,1.30205 0,0.22975 1.517,2.77962 3.3711,5.66639 10.7283,16.70365 19.1824,39.33182 22.0769,59.09075 2.7589,18.83342 2.1794,42.89533 -1.4745,61.21601 -3.0293,15.18957 -10.979,34.68065 -20.5777,50.45271 -14.8229,24.35608 -40.3715,46.09048 -68.8684,58.58688 -27.2768,11.96135 -54.3472,16.17868 -90.033,14.02639 z m 40.0956,-34.86221 c 23.3663,-2.72618 45.6814,-12.0682 63.8353,-26.72408 5.5593,-4.48809 13.8543,-12.73883 18.0085,-17.9124 13.7351,-17.10555 24.4245,-41.7163 26.0362,-59.94463 0.852,-9.63646 0.3207,-37.78604 -0.8085,-42.83743 -1.3184,-5.89727 -4.1254,-14.84364 -6.6562,-21.21416 -6.4596,-16.2603 -14.2711,-28.10834 -27.4305,-41.60528 -11.4375,-11.7308 -17.5723,-16.22874 -31.821,-23.33066 -8.7458,-4.35912 -14.8304,-6.78469 -22.6978,-9.04822 -26.5193,-7.62985 -63.1993,-5.58654 -83.6208,4.65822 -5.0637,2.54027 -10.5655,6.18947 -10.0428,6.66109 0.2455,0.22149 10.6483,3.3001 23.1173,6.84137 38.1573,10.83683 50.3955,15.3136 62.9779,23.03747 4.0007,2.45587 5.9944,4.19282 11.5347,10.04919 7.1534,7.56165 13.7825,12.94849 20.7702,16.87811 11.3948,6.40797 19.7902,14.81318 27.337,27.36885 9.246,15.38269 11.953,30.96089 8.4943,48.88336 -2.2274,11.54197 -6.1955,19.48405 -15.4648,30.95264 -9.0581,11.20719 -19.9971,19.31676 -34.9062,25.87767 -10.4549,4.60076 -30.4874,10.66201 -35.238,10.66201 -2.1176,0 -2.2144,-0.0614 -1.7902,-1.13642 0.2466,-0.62504 1.6098,-3.18198 3.0293,-5.68211 3.0797,-5.42411 5.2165,-11.80012 4.9905,-14.89099 -0.2169,-2.96658 -1.4334,-3.72774 -8.2407,-5.15629 -4.7945,-1.00616 -6.9746,-1.16261 -15.9099,-1.14169 -10.8759,0.0254 -14.4539,0.44372 -26.2639,3.07022 -14.3226,3.18529 -44.0889,14.88487 -50.4838,19.84256 -1.0904,0.84532 -1.1687,1.11438 -0.6535,2.24512 0.9154,2.00908 7.5626,8.75497 11.7413,11.9156 7.7423,5.85602 18.8505,11.76721 29.0419,15.45451 6.3702,2.30477 16.8873,5.01857 22.4759,5.79959 10.1848,1.42335 28.3746,1.62427 38.6383,0.42678 z"
       style="fill:#cb0729;fill-opacity:1" />
    <path
       id="path3817"
       d="m -2102.912,426.30921 c -1.9144,-0.19973 -2.9107,-0.44564 -4.8215,-1.19006 -3.8881,-1.51477 -6.664,-3.24404 -8.8314,-5.50161 -1.6911,-1.76153 -2.7662,-3.36053 -3.9377,-5.85652 -1.9814,-4.22167 -2.2824,-5.98819 -1.957,-11.48374 0.1242,-2.09742 0.1815,-3.85779 0.1274,-3.91193 -0.054,-0.0541 -1.047,-2.18834 -3.417,-1.84071 l -5.339,0.7831 1.5202,-1.01167 c 2.011,-1.33834 3.3948,-2.02188 5.0847,-2.51165 1.2135,-0.3517 1.7949,-0.40313 4.5177,-0.39961 3.2729,0.004 4.4166,0.16448 7.6786,1.07599 3.5424,0.98986 5.8932,1.91671 11.5178,4.54123 8.2562,3.85242 16.4886,6.63828 20.4165,6.90897 2.2461,0.1548 2.4562,0.32699 2.3952,1.96357 -0.088,2.36212 -0.6171,4.37022 -1.8454,7.00423 -1.5066,3.2309 -4.477,6.85901 -6.9758,8.52018 -3.3997,2.26011 -10.3493,3.51371 -16.1333,2.91023 z"
       style="fill:#cb0729;fill-opacity:1" />
  </g>
</svg>
