<?xml version="1.0" encoding="UTF-8" standalone="no"?>
<svg
   xmlns:dc="http://purl.org/dc/elements/1.1/"
   xmlns:cc="http://creativecommons.org/ns#"
   xmlns:rdf="http://www.w3.org/1999/02/22-rdf-syntax-ns#"
   xmlns:svg="http://www.w3.org/2000/svg"
   xmlns="http://www.w3.org/2000/svg"
   viewBox="0 0 1587.4 1122.52"
   height="1122.52"
   width="1587.4"
   xml:space="preserve"
   id="svg2"
   version="1.1"><metadata
     id="metadata8"><rdf:RDF><cc:Work
         rdf:about=""><dc:format>image/svg+xml</dc:format><dc:type
           rdf:resource="http://purl.org/dc/dcmitype/StillImage" /></cc:Work></rdf:RDF></metadata><defs
     id="defs6"><clipPath
       id="clipPath18"
       clipPathUnits="userSpaceOnUse"><path
         id="path16"
         d="M 0,841.89 H 1190.55 V 0 H 0 Z" /></clipPath></defs><g
     transform="matrix(1.3333333,0,0,-1.3333333,0,1122.52)"
     id="g10"><g
       id="g12"><g
         clip-path="url(#clipPath18)"
         id="g14"><g
           transform="translate(918.7041,674.998)"
           id="g20"><path
             id="path22"
             style="fill:#3a3766;fill-opacity:1;fill-rule:evenodd;stroke:none"
             d="m 0,0 c 0,0 19.399,61.834 21.218,75.17 0,0 -104.269,-66.683 -257.642,-186.108 l -9.699,5.456 c 0,0 7.274,21.824 -17.58,26.067 l 32.129,23.037 c 0,0 9.094,7.274 10.305,20.611 l -53.346,-40.01 c 0,0 -1.951,0.717 -5.351,1.682 -10.928,4.056 -22.39,5.25 -32.842,5.027 -10.451,0.223 -21.913,-0.971 -32.841,-5.027 -3.399,-0.965 -5.35,-1.682 -5.35,-1.682 l -53.347,40.01 c 1.213,-13.337 10.306,-20.611 10.306,-20.611 l 32.129,-23.037 c -24.855,-4.243 -17.58,-26.067 -17.58,-26.067 l -9.699,-5.456 C -542.563,8.487 -646.832,75.17 -646.832,75.17 -645.014,61.834 -625.615,0 -625.615,0 l -29.704,14.549 34.554,-87.295 c 38.192,-90.933 96.389,-98.207 96.389,-98.207 6.668,-25.461 29.098,-50.316 29.098,-50.316 h -50.316 v -53.953 l -29.705,-15.761 30.311,-16.369 v -47.89 l 32.736,-20.006 46.072,5.456 128.518,-75.171 c 13.337,-40.616 24.854,-103.662 24.854,-103.662 0,0 11.519,63.046 24.856,103.662 l 128.517,75.171 46.073,-5.456 32.736,20.006 v 47.89 l 30.311,16.369 -29.706,15.761 v 53.953 h -50.315 c 0,0 22.43,24.855 29.099,50.316 0,0 58.196,7.274 96.387,98.207 l 34.555,87.295 z" /></g><g
           transform="translate(948.4775,763.5557)"
           id="g24"><path
             id="path26"
             style="fill:#838385;fill-opacity:1;fill-rule:nonzero;stroke:none"
             d="m 0,0 -12.149,-7.769 c -1.038,-0.664 -104.666,-67.178 -254.644,-183.741 l -1.627,0.915 c 0.495,4.406 0.286,10.747 -3.272,16.683 -1.899,3.167 -4.474,5.783 -7.704,7.831 l 21.934,15.726 0.143,0.102 0.136,0.11 c 0.462,0.37 11.329,9.233 12.783,25.215 l 1.357,14.938 -12,-9 -50.57,-37.927 c -0.614,0.188 -1.299,0.392 -2.053,0.608 -9.716,3.568 -20.654,5.377 -32.517,5.377 -0.789,0 -1.594,-0.008 -2.398,-0.025 -0.798,0.017 -1.604,0.025 -2.398,0.025 -11.861,0 -22.799,-1.809 -32.517,-5.377 -0.753,-0.216 -1.439,-0.42 -2.053,-0.608 l -50.569,37.927 -12,9 1.358,-14.938 c 1.453,-15.982 12.319,-24.845 12.781,-25.215 l 0.137,-0.11 0.143,-0.102 21.933,-15.726 c -3.229,-2.048 -5.804,-4.664 -7.703,-7.831 -3.558,-5.936 -3.768,-12.277 -3.273,-16.683 l -1.627,-0.915 C -568.346,-74.947 -671.976,-8.433 -673.013,-7.769 L -685.161,0 l 1.948,-14.288 c 1.317,-9.654 10.987,-42.145 16.898,-61.492 l -15.844,7.76 -15.476,7.58 6.343,-16.023 34.554,-87.295 0.025,-0.064 0.027,-0.064 c 8.952,-21.315 19.76,-39.921 32.123,-55.302 9.99,-12.43 21.02,-22.801 32.782,-30.827 14.239,-9.716 26.196,-13.677 32.353,-15.212 4.715,-14.745 13.681,-28.696 20.489,-37.931 h -36.429 -6.668 v -6.669 -49.942 l -26.162,-13.881 -11.004,-5.84 10.962,-5.919 26.81,-14.478 v -43.913 -3.74 l 3.192,-1.95 32.735,-20.005 1.97,-1.204 2.292,0.271 43.851,5.194 124.394,-72.759 c 12.72,-39.786 23.743,-99.775 23.855,-100.388 l 6.56,-35.903 6.56,35.902 c 0.112,0.614 11.14,60.617 23.856,100.389 l 124.394,72.759 43.851,-5.194 2.292,-0.271 1.97,1.204 32.735,20.005 3.192,1.95 v 3.74 43.913 l 26.81,14.478 10.961,5.919 -11.004,5.84 -26.161,13.881 v 49.942 6.669 h -6.669 -36.428 c 6.808,9.235 15.774,23.186 20.49,37.931 6.156,1.535 18.112,5.496 32.351,15.212 11.762,8.026 22.792,18.397 32.782,30.827 12.364,15.381 23.172,33.987 32.123,55.302 l 0.028,0.064 0.025,0.064 34.555,87.295 6.342,16.023 -15.476,-7.58 -15.844,-7.76 c 5.91,19.347 15.58,51.838 16.898,61.492 z m -8.556,-13.387 c -1.818,-13.337 -21.217,-75.171 -21.217,-75.171 l 29.705,14.549 -34.555,-87.295 c -38.191,-90.932 -96.388,-98.207 -96.388,-98.207 -6.669,-25.461 -29.098,-50.316 -29.098,-50.316 h 50.315 v -53.952 l 29.705,-15.762 -30.31,-16.368 V -443.8 l -32.737,-20.006 -46.072,5.456 -128.518,-75.171 c -13.336,-40.616 -24.855,-103.662 -24.855,-103.662 0,0 -11.518,63.046 -24.855,103.662 l -128.517,75.171 -46.072,-5.456 -32.736,20.006 v 47.891 l -30.311,16.368 29.704,15.762 v 53.952 h 50.316 c 0,0 -22.429,24.855 -29.098,50.316 0,0 -58.197,7.275 -96.388,98.207 l -34.555,87.295 29.705,-14.549 c 0,0 -19.399,61.834 -21.217,75.171 0,0 104.269,-66.684 257.641,-186.108 l 9.699,5.455 c 0,0 -7.274,21.824 17.581,26.068 l -32.129,23.036 c 0,0 -9.094,7.275 -10.306,20.611 l 53.347,-40.01 c 0,0 1.951,0.717 5.349,1.683 10.099,3.747 20.652,5.051 30.444,5.051 0.804,0 1.605,-0.008 2.398,-0.025 0.795,0.017 1.594,0.025 2.398,0.025 9.791,0 20.346,-1.304 30.444,-5.051 3.399,-0.966 5.35,-1.683 5.35,-1.683 l 53.347,40.01 c -1.212,-13.336 -10.306,-20.611 -10.306,-20.611 l -32.129,-23.036 c 24.855,-4.244 17.581,-26.068 17.581,-26.068 l 9.699,-5.455 C -112.824,-80.071 -8.556,-13.387 -8.556,-13.387" /></g><g
           transform="translate(293.6904,657.1133)"
           id="g28"><path
             id="path30"
             style="fill:#ffffff;fill-opacity:1;fill-rule:evenodd;stroke:none"
             d="m 0,0 35.161,-18.187 c 0,0 -25.461,57.591 -28.493,69.109 0,0 68.503,-32.735 246.124,-172.772 0,0 4.85,-13.942 8.487,-20.004 l -195.201,106.087 150.947,-109.119 -85.476,8.488 c 0,0 -76.383,7.274 -98.813,60.015 C 10.306,-23.643 0,0 0,0" /></g><g
           transform="translate(546.2808,535.2637)"
           id="g32"><path
             id="path34"
             style="fill:#2f92ab;fill-opacity:1;fill-rule:evenodd;stroke:none"
             d="m 0,0 c -177.622,140.036 -246.124,172.771 -246.124,172.771 0.924,-3.511 3.935,-11.309 7.672,-20.448 L 1.03,-2.861 C 0.39,-1.12 0,0 0,0" /></g><g
           transform="translate(416.9546,501.7197)"
           id="g36"><path
             id="path38"
             style="fill:#2f92ab;fill-opacity:1;fill-rule:evenodd;stroke:none"
             d="m 0,0 c 0,0 14.751,-33.948 39.404,-51.124 0,0 -12.529,25.057 -10.912,34.756 l 6.466,-9.295 c 0,0 39.404,5.254 70.321,4.244 0,0 -80.02,13.336 -105.279,21.419" /></g><g
           transform="translate(453.5293,332.9893)"
           id="g40"><path
             id="path42"
             style="fill:#2f92ab;fill-opacity:1;fill-rule:nonzero;stroke:none"
             d="m 0,0 13.337,1.213 62.036,-36.17 c 0,0 3.435,-7.881 11.922,-16.368 z" /></g><g
           transform="translate(917.4863,657.1133)"
           id="g44"><path
             id="path46"
             style="fill:#ffffff;fill-opacity:1;fill-rule:evenodd;stroke:none"
             d="m 0,0 -35.161,-18.187 c 0,0 25.462,57.591 28.492,69.109 0,0 -68.502,-32.735 -246.123,-172.772 0,0 -4.85,-13.942 -8.487,-20.004 l 195.201,106.087 -150.947,-109.119 85.476,8.488 c 0,0 76.383,7.274 98.813,60.015 C -10.306,-23.643 0,0 0,0" /></g><g
           transform="translate(664.8965,535.2637)"
           id="g48"><path
             id="path50"
             style="fill:#2f92ab;fill-opacity:1;fill-rule:evenodd;stroke:none"
             d="m 0,0 c 177.621,140.036 246.124,172.771 246.124,172.771 -0.925,-3.511 -3.936,-11.309 -7.673,-20.448 L -1.03,-2.861 C -0.39,-1.12 0,0 0,0" /></g><g
           transform="translate(794.2227,501.7197)"
           id="g52"><path
             id="path54"
             style="fill:#2f92ab;fill-opacity:1;fill-rule:evenodd;stroke:none"
             d="m 0,0 c 0,0 -14.751,-33.948 -39.404,-51.124 0,0 12.528,25.057 10.912,34.756 l -6.467,-9.295 c 0,0 -39.404,5.254 -70.321,4.244 0,0 80.02,13.336 105.28,21.419" /></g><g
           transform="translate(757.6475,332.9893)"
           id="g56"><path
             id="path58"
             style="fill:#2f92ab;fill-opacity:1;fill-rule:nonzero;stroke:none"
             d="m 0,0 -13.337,1.213 -62.036,-36.17 c 0,0 -3.435,-7.881 -11.922,-16.368 z" /></g><g
           transform="translate(538.1094,312.5566)"
           id="g60"><path
             id="path62"
             style="fill:#2f92ab;fill-opacity:1;fill-rule:nonzero;stroke:none"
             d="m 0,0 c 3.269,-5.583 11.444,-18.121 24.604,-29.239 4.468,1.894 10.138,4.918 14.983,9.46 0,0 -21.926,5.365 -39.587,19.779" /></g><g
           transform="translate(554.8521,329.6533)"
           id="g64"><path
             id="path66"
             style="fill:#2f92ab;fill-opacity:1;fill-rule:nonzero;stroke:none"
             d="m 0,0 c -4.543,-1.648 -8.113,-3.402 -10.88,-5.047 -2.913,-1.674 -4.891,-3.193 -6.14,-4.293 6.337,-5.211 21.54,-16.152 39.864,-18.442 0,0 -1.989,6.711 -22.844,27.782" /></g><g
           transform="translate(673.9619,318.9365)"
           id="g68"><path
             id="path70"
             style="fill:#2f92ab;fill-opacity:1;fill-rule:nonzero;stroke:none"
             d="M 0,0 C -0.789,0.862 -3.037,3.063 -7.511,5.64 -9.804,7.006 -12.659,8.449 -16.16,9.846 -36.209,-10.539 -38.144,-17.065 -38.144,-17.065 -21.311,-14.962 -7.112,-5.558 0,0" /></g><g
           transform="translate(649.0586,284.0947)"
           id="g72"><path
             id="path74"
             style="fill:#2f92ab;fill-opacity:1;fill-rule:nonzero;stroke:none"
             d="M 0,0 C 10.243,8.858 17.358,18.485 21.383,24.716 4.835,13.112 -13.24,8.683 -13.24,8.683 -9.005,4.712 -4.145,1.911 0,0" /></g><g
           transform="translate(636.4248,315.8135)"
           id="g76"><path
             id="path78"
             style="fill:#2f92ab;fill-opacity:1;fill-rule:nonzero;stroke:none"
             d="m 0,0 15.001,15.207 c -9.644,2.966 -22.933,5.337 -41.025,5.664 l -5.729,-57.85 -3.582,57.872 C -52.512,20.665 -65.421,18.606 -75.041,15.921 L -59.335,0 c 0,0 26.677,-26.952 -7.486,-37.82 6.639,-4.677 14.283,-8.792 22.945,-11.586 h -15.786 c 2.461,-3.903 5.337,-9.168 8.493,-16.219 3.876,3.222 10.971,7.731 20.326,7.731 8.102,0 15.072,-3.946 19.662,-7.445 3.107,6.908 5.938,12.082 8.366,15.933 h -15.297 c 9.031,2.913 16.958,7.263 23.792,12.189 C -25.728,-25.986 0,0 0,0" /></g><g
           transform="translate(590.9502,236.1748)"
           id="g80"><path
             id="path82"
             style="fill:#ffffff;fill-opacity:1;fill-rule:nonzero;stroke:none"
             d="m 0,0 c 4.487,-12.076 9.326,-27.613 14.227,-47.595 v -0.071 c 0.003,0.012 0.005,0.023 0.009,0.035 0.002,-0.012 0.006,-0.023 0.008,-0.035 v 0.071 c 4.86,19.813 9.658,35.257 14.114,47.29 C 25.563,2.345 21.175,5.074 14.935,5.074 8.077,5.074 3.063,2.359 0,0" /></g><g
           transform="translate(642.4746,586.6597)"
           id="g84"><path
             id="path86"
             style="fill:#2f92ab;fill-opacity:1;fill-rule:nonzero;stroke:none"
             d="m 0,0 c -7.031,-4.614 -16.525,-12.645 -18.753,-23.408 0,0 -3.545,11.532 7.819,26.754 -6.869,1.611 -15.269,2.749 -25.315,2.749 -10.301,0 -18.904,-1.196 -25.918,-2.871 11.256,-15.161 7.73,-26.632 7.73,-26.632 -2.207,10.668 -11.552,18.651 -18.564,23.284 -3.889,-1.508 -6.902,-3.051 -9.07,-4.32 6.406,-2.192 13.943,-8.347 19.956,-23.611 0,0 2.073,-25.73 16.462,-33.167 -12.843,-15.498 -34.649,1.846 -34.649,1.846 12.124,-30.312 43.243,-43.85 43.243,-43.85 11.539,8.12 10.424,29.796 8.762,41.88 14.606,7.273 16.7,33.291 16.7,33.291 6.195,15.727 14.008,21.785 20.535,23.8 C 6.774,-2.988 3.807,-1.474 0,0" /></g><g
           transform="translate(573.9897,545.4653)"
           id="g88"><path
             id="path90"
             style="fill:#ffffff;fill-opacity:1;fill-rule:nonzero;stroke:none"
             d="m 0,0 c 0,0 -13.855,-24.501 12.396,-22.021 0,0 -10.938,7 -12.396,22.021" /></g><g
           transform="translate(636.5459,545.4653)"
           id="g92"><path
             id="path94"
             style="fill:#ffffff;fill-opacity:1;fill-rule:nonzero;stroke:none"
             d="m 0,0 c 0,0 13.855,-24.501 -12.396,-22.021 0,0 10.938,7 12.396,22.021" /></g><g
           transform="translate(489.7051,366.4336)"
           id="g96"><path
             id="path98"
             style="fill:#ffffff;fill-opacity:1;fill-rule:nonzero;stroke:none"
             d="m 0,0 -18.187,-0.605 v 44.05 H 0.606 Z m 10.451,59.105 h -52.99 l 7.535,-7.627 v -63.626 l 7.249,-7.628 45.74,3.813 v 67.441 z" /></g><g
           transform="translate(424.2344,440.5942)"
           id="g100"><path
             id="path102"
             style="fill:#ffffff;fill-opacity:1;fill-rule:nonzero;stroke:none"
             d="m 0,0 v -35.181 l -18.389,-8.164 V 0 h -17.58 v -51.152 l -13.135,-5.832 13.135,-6.29 v -39.783 l 17.58,1.819 v 37.579 L 0,-55.093 v -43.72 l 17.58,1.818 V 0 Z" /></g><g
           transform="translate(538.6064,409.8789)"
           id="g104"><path
             id="path106"
             style="fill:#ffffff;fill-opacity:1;fill-rule:nonzero;stroke:none"
             d="M 0,0 H 18.793 L 18.582,-15.155 H 0 Z m 39.809,-57.388 -10.434,26.471 h 6.797 V 8.032 l -7.535,7.628 h -52.99 l 7.536,-7.628 V -58.803 L 0,-57.792 v 26.269 h 11.317 l 10.507,-25.663 z" /></g><g
           transform="translate(588.4727,353.501)"
           id="g108"><path
             id="path110"
             style="fill:#ffffff;fill-opacity:1;fill-rule:nonzero;stroke:none"
             d="M 0,0 H 16.817 V 56.378 H 35.61 V -0.202 H 52.989 V 64.41 l -7.534,7.628 H -7.535 L 0,64.41 Z" /></g><g
           transform="translate(707.084,350.6729)"
           id="g112"><path
             id="path114"
             style="fill:#ffffff;fill-opacity:1;fill-rule:nonzero;stroke:none"
             d="m 0,0 -0.151,16.519 -33.14,1.364 V 30.711 L -0.303,29.098 V 45.92 l -32.988,0.423 V 59.206 H -0.15 v 15.66 h -58.1 l 7.535,-7.628 V 2.222 Z" /></g><g
           transform="translate(763.0078,425.5391)"
           id="g116"><path
             id="path118"
             style="fill:#ffffff;fill-opacity:1;fill-rule:nonzero;stroke:none"
             d="m 0,0 h -48.043 v -15.458 h 15.155 v -61.53 l 18.491,-1.819 v 63.349 H 0 Z" /></g><g
           transform="translate(822.3164,337.9424)"
           id="g120"><path
             id="path122"
             style="fill:#ffffff;fill-opacity:1;fill-rule:nonzero;stroke:none"
             d="m 0,0 v 39.782 l 14.347,6.896 -14.189,6.368 -17.133,7.395 v -0.125 l -17.377,7.387 v 6.324 12.864 h 17.377 V 80.02 H 0 v 6.871 15.559 0.101 h -59.313 l 6.976,-7.061 V 54.972 l 17.58,-7.009 17.782,-7.959 V 17.879 l -17.782,2.02 v 7.246 l -17.58,1.831 V 6.668 Z" /></g><g
           transform="translate(488.7329,456.9116)"
           id="g124"><path
             id="path126"
             style="fill:#ffffff;fill-opacity:1;fill-rule:nonzero;stroke:none"
             d="m 0,0 v 8.184 h -18.792 v -22.102 h 0.066 l 3.019,-3.056 H 0 v 8.942 h -7.123 v -2.425 h -4.395 V 2.122 h 4.395 l 0,-2.122 z" /></g><g
           transform="translate(521.873,465.0957)"
           id="g128"><path
             id="path130"
             style="fill:#ffffff;fill-opacity:1;fill-rule:nonzero;stroke:none"
             d="m 0,0 h -7.351 v -11.063 h -5.758 V 0 h -7.351 v -25.158 h 7.351 v 7.578 h 5.758 v -7.578 H 0 Z" /></g><g
           transform="translate(547.1064,453.8809)"
           id="g132"><path
             id="path134"
             style="fill:#ffffff;fill-opacity:1;fill-rule:nonzero;stroke:none"
             d="M 0,0 H -5.759 V 4.546 H -1.692 0 Z M 7.401,8.007 H 7.334 l -3.019,3.056 h -10.074 -7.35 V 4.546 -14.095 h 7.35 v 7.578 H 0 v -7.578 H 7.351 V 4.546 h 0.05 z" /></g><g
           transform="translate(642.2822,446.606)"
           id="g136"><path
             id="path138"
             style="fill:#ffffff;fill-opacity:1;fill-rule:nonzero;stroke:none"
             d="M 0,0 H -5.759 V 11.821 H -1.692 0 Z m 7.335,15.282 -3.02,3.056 h -10.074 -7.169 l -0.181,0.152 V 18.338 11.821 0.204 -3.764 h 0.066 l 3.019,-3.056 h 2.471 1.718 0.076 H 0 7.351 v 18.641 h 0.05 v 3.461 z" /></g><g
           transform="translate(575.144,453.8809)"
           id="g140"><path
             id="path142"
             style="fill:#ffffff;fill-opacity:1;fill-rule:nonzero;stroke:none"
             d="M 0,0 V 4.546 H 4.067 5.759 V 0 Z m 14.524,-14.095 -4.041,7.578 h 2.626 V 4.546 h 0.051 v 3.461 h -0.066 l -3.02,3.056 H 0 -7.35 V 4.546 -14.095 H 0 v 7.578 H 2.096 3.36 l 4.041,-7.578 z" /></g><g
           transform="translate(618.3867,446.5557)"
           id="g144"><path
             id="path146"
             style="fill:#ffffff;fill-opacity:1;fill-rule:nonzero;stroke:none"
             d="m 0,0 h -8.79 v 18.389 h -7.351 V -6.517 H -8.79 0 Z" /></g><g
           transform="translate(675.7119,465.0449)"
           id="g148"><path
             id="path150"
             style="fill:#ffffff;fill-opacity:1;fill-rule:nonzero;stroke:none"
             d="m 0,0 h -0.038 -7.313 -0.037 -5.759 v -6.517 h 5.759 v -18.388 h 7.35 v 0.129 L 0,-24.905 V -6.517 H 5.759 V 0 Z" /></g><g
           transform="translate(705.3164,465.0449)"
           id="g152"><path
             id="path154"
             style="fill:#ffffff;fill-opacity:1;fill-rule:nonzero;stroke:none"
             d="m 0,0 h -0.038 -7.313 -0.038 -5.758 v -6.517 h 5.758 v -18.388 h 7.351 v 0.129 L 0,-24.905 V -6.517 H 5.759 V 0 Z" /></g><g
           transform="translate(741.8525,458.5786)"
           id="g156"><path
             id="path158"
             style="fill:#ffffff;fill-opacity:1;fill-rule:nonzero;stroke:none"
             d="m 0,0 v 6.517 h -11.821 -0.657 -6.693 v -25.158 h 6.644 0.706 H 0 v 6.517 h -11.821 v 2.879 H 0 v 6.517 H -11.821 V 0 Z" /></g></g></g></g></svg>