<?xml version="1.0" encoding="UTF-8" standalone="no"?>
<svg
   xmlns:dc="http://purl.org/dc/elements/1.1/"
   xmlns:cc="http://creativecommons.org/ns#"
   xmlns:rdf="http://www.w3.org/1999/02/22-rdf-syntax-ns#"
   xmlns:svg="http://www.w3.org/2000/svg"
   xmlns="http://www.w3.org/2000/svg"
   xmlns:sodipodi="http://sodipodi.sourceforge.net/DTD/sodipodi-0.dtd"
   xmlns:inkscape="http://www.inkscape.org/namespaces/inkscape"
   viewBox="0 0 99.999999 69.695634"
   height="69.695633"
   width="100"
   xml:space="preserve"
   id="svg2"
   version="1.1"
   inkscape:version="0.91 r13725"
   sodipodi:docname="Denver_Nuggets_2.svg"><sodipodi:namedview
     pagecolor="#ffffff"
     bordercolor="#666666"
     borderopacity="1"
     objecttolerance="10"
     gridtolerance="10"
     guidetolerance="10"
     inkscape:pageopacity="0"
     inkscape:pageshadow="2"
     inkscape:window-width="826"
     inkscape:window-height="480"
     id="namedview39"
     showgrid="false"
     fit-margin-top="0"
     fit-margin-left="0"
     fit-margin-right="0"
     fit-margin-bottom="0"
     inkscape:zoom="0.88500003"
     inkscape:cx="49.998415"
     inkscape:cy="34.847641"
     inkscape:window-x="0"
     inkscape:window-y="0"
     inkscape:window-maximized="0"
     inkscape:current-layer="svg2" /><metadata
     id="metadata8"><rdf:RDF><cc:Work
         rdf:about=""><dc:format>image/svg+xml</dc:format><dc:type
           rdf:resource="http://purl.org/dc/dcmitype/StillImage" /><dc:title></dc:title></cc:Work></rdf:RDF></metadata><defs
     id="defs6"><clipPath
       id="clipPath20"
       clipPathUnits="userSpaceOnUse"><path
         id="path18"
         d="m 0,2000 2869.62,0 0,-2000 L 0,0 Z"
         inkscape:connector-curvature="0" /></clipPath></defs><g
     transform="matrix(0.34847867,0,0,-0.34847867,-1.3612448e-4,69.695734)"
     id="g10"><g
       transform="scale(0.1,0.1)"
       id="g12"><g
         id="g14"><g
           clip-path="url(#clipPath20)"
           id="g16"><path
             id="path22"
             style="fill:#4b90cd;fill-opacity:1;fill-rule:nonzero;stroke:none"
             d="m 678.402,1485.78 c 212.262,130.92 335.198,132.43 335.198,132.43 l 8.93,-10.57 472.76,392.37 454.49,-383.94 15.49,15.28 c 0,0 123.19,-19.18 275.17,-114.09 208.71,-130.3 347.08,-272.49 347.08,-272.49 l -106.42,0 74.69,-92.92 -4.75,-20.32 c 0,0 107.75,2.18 163.51,-7.86 44.3,-8 91.95,-41.21 91.95,-41.21 l 63.12,21.86 0,-442.863 -174.05,0 c 0,0 78.03,-46.73 104.58,-78.133 14.51,-17.156 29.26,-33.527 39.21,-53.738 11.3,-23.02 26.07,-53.262 26.07,-105.578 l 0,-232.543 c 0,-22.957 -14.01,-72.559 -26.59,-92.9689 -24.5,-39.6484 -56.52,-69.6289 -100.23,-85.0508 -48.26,-17.02733 -122.77,-15.48827 -166.23,-1.4687 -24.53,7.9296 -64.97,37.3593 -64.97,37.3593 l -37.55,-32.8984 -87.16,47.2695 0,-59.67184 -278.58,0 -83.65,65.69924 0,-65.69924 -384.12,0 c 0,0 -29.85,37.74214 -45.47,59.67184 C 1560.35,41.0078 1529.24,12.5547 1487.5,5.98438 1457.75,1.31641 1429.23,0.964844 1401.03,5.46484 1369.27,10.5547 1341.55,24.4453 1315.38,44.3867 1295.14,59.8164 1277.97,82.7578 1260.9,100.727 1208.01,68.2344 1146.3,21.8359 1104.18,8.44531 1078.4,0.214844 1009.13,-0.515625 973.664,14.625 c -50.082,21.3828 -104.902,87.242 -104.902,87.242 0,0 -125.297,-88.6717 -163.047,-96.6795 C 667.992,-2.80469 626.414,-2.09375 590.902,11.0977 561.941,21.8359 540.594,38.0156 516.754,58.4258 480.273,36.5078 428.621,4.44531 428.621,4.44531 l -170.207,0 -9.082,10.49999 -17.711,-10.49999 -229.02725,0 0,223.73069 c 0,0 28.58985,1.398 28.58985,26.351 l 0,615.801 c 0,25.418 -31.17969375,25.879 -31.17969375,25.879 l 0,227.473 444.61709375,0 -29.777,62.11 55.687,59.19 -94.547,0 c 0,0 135.321,137.73 302.418,240.8"
             inkscape:connector-curvature="0" /><path
             id="path24"
             style="fill:none;stroke:#fdb827;stroke-width:10.43999958;stroke-linecap:butt;stroke-linejoin:miter;stroke-miterlimit:4;stroke-dasharray:none;stroke-opacity:1"
             d="m 460.891,1179.89 c 0,0 117.679,120.92 229.41,199.52 111.726,78.6 299.449,199.51 299.449,199.51 l 26.82,-28.72 -26.82,28.72 c 0,0 -147.492,-24.2 -327.77,-148.14 C 488.07,1311.23 470.23,1282.66 470.23,1282.66 l 99.188,0 m 1938.442,-131.5 c 0,0 -70.02,99.77 -239.86,229.77 -169.85,129.98 -284.56,204.04 -284.56,204.04 l -29.81,-28.72 29.81,28.72 c 0,0 107.76,-16.49 271.14,-123.93 135.57,-89.18 232.4,-174.9 232.4,-174.9 l -105.75,0"
             inkscape:connector-curvature="0" /><path
             id="path26"
             style="fill:#002d62;fill-opacity:1;fill-rule:nonzero;stroke:none"
             d="m 1491.82,1955.28 -876,-714.91 1787.74,-48.4"
             inkscape:connector-curvature="0" /><path
             id="path28"
             style="fill:#ffffff;fill-opacity:1;fill-rule:nonzero;stroke:none"
             d="m 1062.74,1566.84 429.08,352.16 442.45,-376.35 -269.65,110.34 -1.49,-114.89 -104.29,98.24 -59.57,-158.7 -75.98,163.24 -87.9,-66.5 -31.28,87.67"
             inkscape:connector-curvature="0" /><path
             id="path30"
             style="fill:#002d62;fill-opacity:1;fill-rule:nonzero;stroke:none"
             d="m 49.707,1084.9 545.262,0 c 0,0 536.311,129.76 870.031,129.76 333.7,0 923.65,-99.75 923.65,-99.75 l 289.03,-21.16 49.92,-392.977 -175.8,0 L 2755.15,443.844 2722.38,192.922 2528.7,114.301 2467.63,67.4922 2306.73,143.051 2139.89,38.7617 2113.06,38.7422 1965.58,146.062 1650.11,38.7422 1570.79,147.582 1329.44,192.922 1120.88,55.3633 934.637,185.391 721.598,54.0938 554.758,153.633 407.246,38.7422 305.957,123.402 206.148,38.7422 113.766,162.711 78.0078,1019.68"
             inkscape:connector-curvature="0" /><path
             id="path32"
             style="fill:none;stroke:#000000;stroke-width:1.5;stroke-linecap:butt;stroke-linejoin:miter;stroke-miterlimit:4;stroke-dasharray:none;stroke-opacity:1"
             d="m 49.707,1084.9 545.262,0 c 0,0 536.311,129.76 870.031,129.76 333.7,0 923.65,-99.75 923.65,-99.75 l 289.03,-21.16 49.92,-392.949 -175.8,0 L 2755.15,443.852 2722.38,192.953 2528.7,114.32 2467.63,67.4922 2306.73,143.07 2139.89,38.793 2113.06,38.7422 1965.58,146.07 1650.11,38.7422 1570.79,147.602 1329.44,192.953 1120.88,55.3828 934.637,185.391 721.598,54.1016 554.758,153.641 407.246,38.7422 305.957,123.41 206.148,38.7422 113.766,162.723 78.0078,1019.69 Z"
             inkscape:connector-curvature="0" /><path
             id="path34"
             style="fill:#fdb827;fill-opacity:1;fill-rule:nonzero;stroke:none"
             d="m 32.1875,1084.67 148.6095,0 123.66,-580.393 1.5,348.641 c 0,0 0.75,40.578 -10.418,51.922 -11.191,11.297 -25.332,26.18 -25.332,26.18 l 0,153.65 168.352,0 0,-153.674 c 0,0 -14.911,-18.629 -22.34,-26.187 -7.461,-7.563 -8.961,-51.903 -8.961,-51.903 l 0,-814.199 -123.641,0 -117.699,566.859 0,-321.949 c 0,0 5.719,-43.437 13.398,-57.429 7.461,-13.61 26.832,-28.75 26.832,-28.75 l 0,-158.731 -173.9605,0 0,158.731 c 0,0 13.0391,7.558 23.4805,18.16 10.4297,10.59 11.9101,51.398 11.9101,51.398 l 0,585.922 c 0,0 -5.9609,39.809 -13.3906,51.922 -7.4609,12.047 -22,26.18 -22,26.18"
             inkscape:connector-curvature="0" /><path
             id="path36"
             style="fill:none;stroke:#ffffff;stroke-width:9;stroke-linecap:butt;stroke-linejoin:miter;stroke-miterlimit:4;stroke-dasharray:none;stroke-opacity:1"
             d="m 32.1875,1084.68 148.6095,0 123.66,-580.403 1.5,348.641 c 0,0 0.75,40.578 -10.418,51.922 -11.191,11.297 -25.332,26.18 -25.332,26.18 l 0,153.66 168.352,0 0,-153.684 c 0,0 -14.911,-18.629 -22.34,-26.187 -7.461,-7.563 -8.961,-51.903 -8.961,-51.903 l 0,-814.199 -123.641,0 -117.699,566.859 0,-321.949 c 0,0 5.719,-43.437 13.398,-57.429 7.461,-13.61 26.832,-28.75 26.832,-28.75 l 0,-158.731 -173.9605,0 0,158.731 c 0,0 13.0391,7.558 23.4805,18.16 10.4297,10.59 11.9101,51.398 11.9101,51.398 l 0,585.922 c 0,0 -5.9609,39.809 -13.3906,51.922 -7.4609,12.047 -22,26.18 -22,26.18 z"
             inkscape:connector-curvature="0" /><path
             id="path38"
             style="fill:#fdb827;fill-opacity:1;fill-rule:nonzero;stroke:none"
             d="m 453.438,838.32 0,-154.14 c 0,0 13.671,-1 20.859,-9.09 13.402,-15.129 8.93,-48.379 8.93,-48.379 l 0,-415.66 c 0,0 13.421,-173.8205 166.851,-173.8205 153.461,0 166.871,176.8285 166.871,176.8285 l 0,548.66 c 0,0 -1.5,58.941 7.43,69.562 8.937,10.559 23.848,31.707 23.848,31.707 l 0,160.222 c 0,0 -40.219,-12.07 -104.278,-39.3 -64.051,-27.191 -81.953,-34.75 -81.953,-34.75 l 0,-158.699 c 0,0 14.922,-6.051 14.922,-15.102 l 0,-485.199 c 0,0 0.719,-40.058 -27.59,-40.058 -28.289,0 -27.551,28 -27.551,38.578 l 0,427.718 c 0,0 -2.968,33.274 3,42.34 5.95,9.09 11.911,27.203 11.911,27.203 l 0,152.618 c 0,0 -44.692,-19.661 -105.77,-54.411 -61.09,-34.75 -77.48,-46.828 -77.48,-46.828"
             inkscape:connector-curvature="0" /><path
             id="path40"
             style="fill:none;stroke:#ffffff;stroke-width:9;stroke-linecap:butt;stroke-linejoin:miter;stroke-miterlimit:4;stroke-dasharray:none;stroke-opacity:1"
             d="m 453.438,838.32 0,-154.14 c 0,0 13.671,-1 20.859,-9.09 13.402,-15.129 8.93,-48.379 8.93,-48.379 l 0,-415.641 c 0,0 13.421,-173.8395 166.851,-173.8395 153.461,0 166.871,176.8285 166.871,176.8285 l 0,548.66 c 0,0 -1.5,58.941 7.43,69.562 8.937,10.559 23.848,31.707 23.848,31.707 l 0,160.222 c 0,0 -40.219,-12.07 -104.278,-39.3 -64.051,-27.191 -81.953,-34.75 -81.953,-34.75 l 0,-158.699 c 0,0 14.922,-6.051 14.922,-15.102 l 0,-485.179 c 0,0 0.719,-40.051 -27.59,-40.051 -28.289,0 -27.551,27.973 -27.551,38.551 l 0,427.718 c 0,0 -2.968,33.274 3,42.34 5.95,9.09 11.911,27.203 11.911,27.203 l 0,152.649 c 0,0 -44.692,-19.692 -105.77,-54.442 -61.09,-34.75 -77.48,-46.828 -77.48,-46.828 z"
             inkscape:connector-curvature="0" /><path
             id="path42"
             style="fill:#fdb827;fill-opacity:1;fill-rule:nonzero;stroke:none"
             d="m 1194.71,1002.19 25.23,14.25 0,-319.284 -145.24,0 0,129.051 c 0,0 4.44,39.301 -26.84,39.301 -35.75,0 -32.77,-36.25 -32.77,-36.25 l 0,-530.91 c 0,0 -2.98,-47.981 31.3,-47.981 34.26,0 28.32,47.981 28.32,47.981 l 0,184.55 -22.36,0 0,121.129 167.6,0 0,-432.25 c 0,0 -54.37,-134.4997 -175.05,-134.4997 -120.681,0 -171.322,126.9497 -171.322,148.1287 l 0,720.934 c 0,0 19.367,169.3 180.272,169.3 92.34,-0.04 140.86,-73.45 140.86,-73.45"
             inkscape:connector-curvature="0" /><path
             id="path44"
             style="fill:none;stroke:#ffffff;stroke-width:9;stroke-linecap:butt;stroke-linejoin:miter;stroke-miterlimit:4;stroke-dasharray:none;stroke-opacity:1"
             d="m 1194.71,1002.19 25.23,14.25 0,-319.284 -145.24,0 0,129.051 c 0,0 4.44,39.301 -26.84,39.301 -35.75,0 -32.77,-36.25 -32.77,-36.25 l 0,-530.91 c 0,0 -2.98,-47.981 31.3,-47.981 34.26,0 28.32,47.981 28.32,47.981 l 0,184.55 -22.36,0 0,121.129 167.6,0 0,-432.25 c 0,0 -54.37,-134.4997 -175.05,-134.4997 -120.681,0 -171.322,126.9497 -171.322,148.1287 l 0,720.934 c 0,0 19.367,169.3 180.272,169.3 92.34,-0.04 140.86,-73.45 140.86,-73.45 z"
             inkscape:connector-curvature="0" /><path
             id="path46"
             style="fill:#fdb827;fill-opacity:1;fill-rule:nonzero;stroke:none"
             d="m 1616.21,1058.99 0,-361.845 -146.73,0 0,168.359 c 0,0 2.98,48.391 -31.31,48.391 -34.25,0 -29.78,-40.809 -29.78,-46.879 l 0,-568.672 c 0,0 -3,-47.989 31.28,-47.989 34.27,0 31.27,47.989 31.27,47.989 l 0,184.558 -25.33,0 0,121.121 170.58,0 0,-432.257 c 0,0 -52.89,-133.6527 -172.07,-133.6527 -144.51,0 -182.28,147.2817 -182.28,147.2817 l 0,779.871 c 0,0 15.44,159.254 180.05,159.254 90.15,0 142.7,-77.64 142.7,-77.64"
             inkscape:connector-curvature="0" /><path
             id="path48"
             style="fill:none;stroke:#ffffff;stroke-width:9;stroke-linecap:butt;stroke-linejoin:miter;stroke-miterlimit:4;stroke-dasharray:none;stroke-opacity:1"
             d="m 1616.21,1058.99 0,-361.845 -146.73,0 0,168.359 c 0,0 2.98,48.391 -31.31,48.391 -34.25,0 -29.78,-40.809 -29.78,-46.879 l 0,-568.672 c 0,0 -3,-47.989 31.28,-47.989 34.27,0 31.27,47.989 31.27,47.989 l 0,184.558 -25.33,0 0,121.121 170.58,0 0,-432.257 c 0,0 -52.89,-133.6527 -172.07,-133.6527 -144.51,0 -182.28,147.2817 -182.28,147.2817 l 0,779.871 c 0,0 15.44,159.254 180.05,159.254 90.15,0 142.7,-77.64 142.7,-77.64 z"
             inkscape:connector-curvature="0" /><path
             id="path50"
             style="fill:#fdb827;fill-opacity:1;fill-rule:nonzero;stroke:none"
             d="m 1650.1,1110.36 c 0,0 36.9,1.51 165,-24.17 128.12,-25.68 163.87,-39.31 163.87,-39.31 l 0,-349.728 -110.23,0 c 0,0 4.45,127.539 -14.9,159.289 -12.66,20.789 -31.28,30.258 -31.28,30.258 l 0,-282.679 80.45,0 0,-120.879 -83.46,0 0,-255.45 c 0,0 35.79,9.079 44.7,55.942 7.45,39.047 4.49,117.887 4.49,117.887 l 110.23,0 0,-362.7778 -328.86,0 0,160.2498 c 0,0 29.43,7.59 29.43,49.879 l 0,642.352 c 0,30.226 -29.43,51.379 -29.43,51.379 l 0,167.758"
             inkscape:connector-curvature="0" /><path
             id="path52"
             style="fill:none;stroke:#ffffff;stroke-width:9;stroke-linecap:butt;stroke-linejoin:miter;stroke-miterlimit:4;stroke-dasharray:none;stroke-opacity:1"
             d="m 1650.1,1110.36 c 0,0 36.9,1.51 165,-24.16 128.12,-25.69 163.87,-39.32 163.87,-39.32 l 0,-349.728 -110.23,0 c 0,0 4.45,127.539 -14.9,159.289 -12.66,20.789 -31.28,30.258 -31.28,30.258 l 0,-282.679 80.45,0 0,-120.879 -83.46,0 0,-255.45 c 0,0 35.79,9.079 44.72,55.942 7.43,39.047 4.47,117.887 4.47,117.887 l 110.23,0 0,-362.7778 -328.86,0 0,160.2498 c 0,0 29.43,7.59 29.43,49.879 l 0,642.352 c 0,30.226 -29.43,51.379 -29.43,51.379 l 0,167.758 z"
             inkscape:connector-curvature="0" /><path
             id="path54"
             style="fill:#fdb827;fill-opacity:1;fill-rule:nonzero;stroke:none"
             d="m 2022.19,1034.8 c 0,0 73.01,-13.62 213.03,-80.116 140.03,-66.5 189.22,-96.739 189.22,-96.739 l 0,-160.8 -89.41,0 c 0,0 1.69,32.41 -5.96,55.011 -8.92,26.469 -29.81,42.34 -29.81,42.34 l 0,-512.402 c 0,0 0,-36.258 11.91,-52.887 11.94,-16.633 25.34,-28.73 25.34,-28.73 l 0,-161.7309 -223.45,0 0,158.7309 c 0,0 16.36,7.527 25.32,21.136 8.94,13.582 16.39,61.992 16.39,61.992 l 0,538.282 c 0,0 -34.25,-10.801 -34.25,-54.633 l 0,-67.098 -98.33,0"
             inkscape:connector-curvature="0" /><path
             id="path56"
             style="fill:none;stroke:#ffffff;stroke-width:9;stroke-linecap:butt;stroke-linejoin:miter;stroke-miterlimit:4;stroke-dasharray:none;stroke-opacity:1"
             d="m 2022.19,1034.8 c 0,0 73.01,-13.6 213.03,-80.116 140.03,-66.5 189.22,-96.739 189.22,-96.739 l 0,-160.8 -89.41,0 c 0,0 1.69,32.41 -5.96,55.011 -8.92,26.469 -29.81,42.34 -29.81,42.34 l 0,-512.402 c 0,0 0,-36.258 11.91,-52.887 11.94,-16.633 25.34,-28.73 25.34,-28.73 l 0,-161.7309 -223.45,0 0,158.7309 c 0,0 16.36,7.527 25.32,21.136 8.94,13.582 16.39,61.992 16.39,61.992 l 0,538.282 c 0,0 -34.25,-10.801 -34.25,-54.633 l 0,-67.098 -98.33,0 z"
             inkscape:connector-curvature="0" /><path
             id="path58"
             style="fill:#fdb827;fill-opacity:1;fill-rule:nonzero;stroke:none"
             d="m 2793.88,1040.86 34.27,13.59 0,-353.68 -138.52,0 0,145.097 c 0,0 1.46,61.973 -43.21,61.973 -44.74,0 -38.77,-61.973 -38.77,-61.973 l 0,-128.687 c 0,-16.621 11.93,-46.621 43.23,-69.313 87.79,-63.597 119.16,-86.156 135.58,-104.297 16.35,-18.121 38.73,-63.461 38.73,-89.172 l 0,-282.628 c 0,-13.61 -26.83,-132.9809 -178.77,-132.9809 -78.99,0 -141.56,57.4218 -141.56,57.4218 l -37.23,-28.7031 0,309.8122 137.06,0 0,-100.519 c 0,0 -4.46,-50.582 40.23,-50.582 44.71,0 40.23,50.582 40.23,50.582 l 0,124.719 c 0,0 -7.45,45.347 -29.81,58.941 -69.48,42.269 -125.17,84.629 -148.97,108.809 -19.36,19.66 -40.23,72.558 -40.23,116.378 l 0,237.29 c 0,25.691 9.71,80.872 43.21,114.872 32.1,32.57 80.45,57.45 147.49,57.45 89.37,0 137.04,-54.4 137.04,-54.4"
             inkscape:connector-curvature="0" /><path
             id="path60"
             style="fill:none;stroke:#ffffff;stroke-width:9;stroke-linecap:butt;stroke-linejoin:miter;stroke-miterlimit:4;stroke-dasharray:none;stroke-opacity:1"
             d="m 2793.88,1040.86 34.27,13.59 0,-353.649 -138.52,0 0,145.066 c 0,0 1.46,61.973 -43.21,61.973 -44.74,0 -38.74,-61.973 -38.74,-61.973 l 0,-128.687 c 0,-16.621 11.9,-46.621 43.2,-69.313 87.79,-63.597 119.16,-86.156 135.58,-104.297 16.35,-18.121 38.73,-63.461 38.73,-89.172 l 0,-282.648 c 0,-13.602 -26.83,-132.9922 -178.77,-132.9922 -78.99,0 -141.56,57.4297 -141.56,57.4297 l -37.23,-28.6992 0,309.8317 137.06,0 0,-100.519 c 0,0 -4.46,-50.582 40.23,-50.582 44.71,0 40.23,50.582 40.23,50.582 l 0,124.719 c 0,0 -7.45,45.347 -29.81,58.941 -69.48,42.269 -125.17,84.629 -148.97,108.809 -19.36,19.66 -40.23,72.558 -40.23,116.378 l 0,237.313 c 0,25.668 9.71,80.849 43.21,114.849 32.1,32.59 80.45,57.45 147.49,57.45 89.37,0 137.04,-54.4 137.04,-54.4 z"
             inkscape:connector-curvature="0" /><path
             id="path62"
             style="fill:#4b90cd;fill-opacity:1;fill-rule:nonzero;stroke:none"
             d="m 460.891,1179.89 c 0,0 418.609,235.8 1005.609,235.8 586.96,0 1041.35,-266.01 1041.35,-266.01 L 2369.29,944.113 c 0,0 -362.02,225.207 -902.79,225.207 -540.801,0 -876,-201.015 -876,-201.015 L 460.891,1179.89"
             inkscape:connector-curvature="0" /><path
             id="path64"
             style="fill:none;stroke:#fdb827;stroke-width:10.43999958;stroke-linecap:butt;stroke-linejoin:miter;stroke-miterlimit:4;stroke-dasharray:none;stroke-opacity:1"
             d="m 460.891,1179.89 c 0,0 418.609,235.8 1005.609,235.8 586.96,0 1041.35,-266.01 1041.35,-266.01 L 2369.29,944.113 c 0,0 -362.02,225.207 -902.79,225.207 -540.801,0 -876,-201.015 -876,-201.015 L 460.891,1179.89"
             inkscape:connector-curvature="0" /><path
             id="path66"
             style="fill:#ffffff;fill-opacity:1;fill-rule:nonzero;stroke:none"
             d="m 633.254,1196.47 c -0.871,2.52 -2.512,4.13 -11,1.84 l -1.113,3.36 110.121,38.06 c 61.019,21.08 100.308,-1.03 114.332,-42.8 12.879,-38.43 -6.774,-84.64 -68.453,-105.96 l -106.481,-36.79 -1.137,3.36 c 8.11,3.43 8.438,5.74 7.598,8.23 z m 85.34,-88.82 42.136,14.56 c 35.161,12.15 43.75,33.9 35.762,57.75 -8,23.84 -27.91,35.73 -63.07,23.59 l -42.141,-14.57"
             inkscape:connector-curvature="0" /><path
             id="path68"
             style="fill:#ffffff;fill-opacity:1;fill-rule:nonzero;stroke:none"
             d="m 1093.93,1232.2 -4.12,-0.86 c -1.78,3.56 -4.77,5.98 -11.62,4.54 l -63.88,-13.16 5.39,-27.01 110.26,22.74 c 3.75,0.77 4.84,2.52 4.42,9.99 l 4.11,0.85 10.13,-50.51 -4.12,-0.85 c -2.02,4.72 -3.69,5.89 -7.47,5.11 l -171.35,-35.34 -0.707,3.48 c 8.468,2.34 9.089,4.59 8.558,7.21 l -27.09,135.29 c -0.5,2.61 -1.941,4.44 -10.66,3.25 l -0.699,3.49 171.348,35.33 c 3.79,0.78 4.88,2.51 4.57,9.41 l 4.12,0.84 10.1,-50.51 -4.12,-0.85 c -2.34,6.47 -4.03,7.63 -7.81,6.86 l -110.23,-22.74 4.84,-24.09 63.87,13.16 c 6.85,1.44 8.67,4.82 8.99,8.8 l 4.09,0.85"
             inkscape:connector-curvature="0" /><path
             id="path70"
             style="fill:#ffffff;fill-opacity:1;fill-rule:nonzero;stroke:none"
             d="m 1258.83,1348.05 c -0.14,2.65 -1.31,4.66 -10.08,4.76 l -0.19,3.53 84.3,4.81 0.21,-3.56 c -8.04,-0.75 -9.67,-2.64 -9.58,-4.41 0.16,-3.25 63.7,-54.23 89.44,-75.6 l -4.37,78.95 c -0.17,3.56 -3.06,4.87 -7.64,4.9 l -0.19,3.57 64.03,3.63 0.2,-3.55 c -8.74,-1.1 -9.67,-3.22 -9.5,-5.88 l 7.61,-137.82 c 0.14,-2.67 1.3,-4.68 10.08,-4.78 l 0.19,-3.55 -66.46,-3.78 -0.21,3.56 c 6.3,0.35 7.99,1.64 7.86,3.72 -0.2,3.85 -9.16,7.19 -106.32,89.19 l 5.11,-92.88 c 0.14,-2.65 1.3,-4.67 10.09,-4.77 l 0.2,-3.55 -66.46,-3.77 -0.23,3.53 c 8.73,1.09 9.67,3.23 9.53,5.88"
             inkscape:connector-curvature="0" /><path
             id="path72"
             style="fill:#ffffff;fill-opacity:1;fill-rule:nonzero;stroke:none"
             d="m 1636.82,1203.14 0.37,3.53 c 4.22,0.14 5.34,0.92 5.48,2.09 0.28,2.65 -49.47,128.45 -55.51,144.59 -2.43,6.84 -3.67,8.46 -7.12,9.14 l 0.32,3.52 71.47,-7.79 -0.38,-3.53 c -5.6,0.3 -7.13,-0.72 -7.35,-2.77 -0.24,-2.35 4.25,-10 39.28,-94.88 49.71,73.24 56.19,81.19 56.56,84.72 0.21,2.07 -0.72,3.06 -4.88,3.81 l 0.39,3.52 59.92,-6.54 -0.36,-3.53 c -2.86,-0.27 -4.33,-0.72 -5.65,-3.25 -4.49,-9.06 -84.54,-129.34 -84.96,-133.46 -0.18,-1.49 1.45,-2.84 4.59,-3.18 l -0.41,-3.85"
             inkscape:connector-curvature="0" /><path
             id="path74"
             style="fill:#ffffff;fill-opacity:1;fill-rule:nonzero;stroke:none"
             d="m 2015.1,1190.74 -4.07,1.04 c -0.11,3.98 -1.79,7.47 -8.6,9.21 l -63.2,16.02 -6.6,-26.72 109.11,-27.68 c 3.76,-0.94 5.47,0.14 8.26,7.06 l 4.08,-1.02 -12.32,-50.01 -4.08,1.04 c 0.19,5.14 -0.8,6.91 -4.54,7.87 l -169.64,43.01 0.87,3.47 c 8.61,-1.59 10.14,0.17 10.78,2.76 l 33.02,133.92 c 0.62,2.59 0.07,4.87 -8.28,7.59 l 0.85,3.45 169.63,-43.02 c 3.72,-0.94 5.47,0.15 8.1,6.5 l 4.08,-1.02 -12.3,-50 -4.09,1.03 c 0.61,6.86 -0.39,8.64 -4.16,9.59 l -109.12,27.66 -5.86,-23.85 63.22,-16.03 c 6.79,-1.73 9.89,0.53 11.86,4.01 l 4.05,-1.03"
             inkscape:connector-curvature="0" /><path
             id="path76"
             style="fill:#ffffff;fill-opacity:1;fill-rule:nonzero;stroke:none"
             d="m 2197.43,1079.73 c -0.93,-2.48 -0.74,-4.79 7.22,-8.61 l -1.27,-3.3 -67.13,26.94 1.28,3.29 c 8.34,-2.72 10.09,-1.18 11.04,1.29 l 50.04,128.4 c 0.95,2.47 0.76,4.79 -7.21,8.6 l 1.28,3.31 119.27,-47.84 c 48.22,-19.35 63.16,-41.9 50.92,-73.32 -9.84,-25.36 -34.65,-31.01 -64.19,-26.5 l 20.63,-61.15 c 1.55,-4.76 3.94,-7.31 7.52,-8.76 l -1.27,-3.31 -67.79,27.2 1.28,3.31 c 4.7,-1.56 7.83,-1.23 9.1,2.07 0.98,2.47 -18.77,54.36 -20.73,61.85 l -31.91,12.8 z m 29.41,75.5 54.76,-21.96 c 19.23,-7.71 27.88,-2.9 31,5.08 3.08,8 0.04,17.51 -19.19,25.22 l -54.75,21.96"
             inkscape:connector-curvature="0" /></g></g></g></g></svg>