<?xml version="1.0" encoding="UTF-8" standalone="no"?>
<svg
   xmlns:dc="http://purl.org/dc/elements/1.1/"
   xmlns:cc="http://creativecommons.org/ns#"
   xmlns:rdf="http://www.w3.org/1999/02/22-rdf-syntax-ns#"
   xmlns:svg="http://www.w3.org/2000/svg"
   xmlns="http://www.w3.org/2000/svg"
   xmlns:sodipodi="http://sodipodi.sourceforge.net/DTD/sodipodi-0.dtd"
   xmlns:inkscape="http://www.inkscape.org/namespaces/inkscape"
   viewBox="0 0 266.66666 266.13333"
   height="266.13333"
   width="266.66666"
   xml:space="preserve"
   id="svg2"
   version="1.1"
   inkscape:version="0.91 r13725"
   sodipodi:docname="Toronto_Raptors.svg"><sodipodi:namedview
     pagecolor="#ffffff"
     bordercolor="#666666"
     borderopacity="1"
     objecttolerance="10"
     gridtolerance="10"
     guidetolerance="10"
     inkscape:pageopacity="0"
     inkscape:pageshadow="2"
     inkscape:window-width="826"
     inkscape:window-height="480"
     id="namedview41"
     showgrid="false"
     inkscape:zoom="0.88677355"
     inkscape:cx="19.999354"
     inkscape:cy="19.957176"
     inkscape:window-x="0"
     inkscape:window-y="0"
     inkscape:window-maximized="0"
     inkscape:current-layer="svg2" /><metadata
     id="metadata8"><rdf:RDF><cc:Work
         rdf:about=""><dc:format>image/svg+xml</dc:format><dc:type
           rdf:resource="http://purl.org/dc/dcmitype/StillImage" /></cc:Work></rdf:RDF></metadata><defs
     id="defs6" /><g
     transform="matrix(1.3333333,0,0,-1.3333333,0,266.13333)"
     id="g10"><g
       transform="scale(0.1)"
       id="g12"><path
         id="path14"
         style="fill:#c71b35;fill-opacity:1;fill-rule:nonzero;stroke:none"
         d="m 943.785,1994.59 c 109.145,5.89 219.015,-6.14 324.545,-34.36 246.7,-67.75 463.79,-235.08 593.03,-455.66 105.48,-177.08 152.54,-387.79 135.09,-592.968 C 1983.09,771.828 1942.48,633.922 1873.1,511.539 1737.42,266.41 1493.97,82.5898 1219.59,23.7383 1119.17,0.628906 1015.33,-4.35938 912.797,3.41016 734.273,17.6094 560.746,82.6484 415.68,187.34 306.172,266.16 212.969,367.621 143.109,483.078 32.4023,666.289 -16.9961,885.91 5.20703,1098.97 20.6641,1243.2 66.0352,1384.96 141.426,1509.14 c 100,168.18 250.605,306.51 427.867,389.54 116.187,58.13 245.309,87.67 374.492,95.91 v 0" /><path
         id="path16"
         style="fill:#12100f;fill-opacity:1;fill-rule:nonzero;stroke:none"
         d="m 864.664,1933.82 c 80.566,11.55 162.456,10.23 243.376,3.91 123.29,-16.48 245.37,-52.35 353.5,-114.8 165.47,-91.04 300.24,-234.61 385.75,-402.54 42.9,-90.55 76.23,-186.58 88.69,-286.34 18.77,-136.163 10.1,-276.73 -29.49,-408.609 -45.85,-152.769 -131.77,-292.48 -245.19,-404.39 -0.11,-0.129 -0.42,-0.371 -0.53,-0.492 C 1579.48,241.379 1483.62,178.32 1380.43,131.391 1222.79,64.3008 1047.76,37.5898 877.598,60.0898 763.035,76.9297 649.434,110.031 548.23,167.191 377.355,259.25 237.219,405.879 150.691,579.41 107.613,671.23 74.3984,768.34 62.9062,869.48 c -12.0976,91.219 -10.3476,184.13 2.3477,275.16 42.1171,284 224.3121,542.9 476.4181,679.85 98.738,58.01 210.594,90.62 322.992,109.33 v 0" /><path
         id="path18"
         style="fill:#ffffff;fill-opacity:1;fill-rule:nonzero;stroke:none"
         d="m 934.098,1830.57 c 11.25,11.38 22.441,22.74 33.457,34.36 30.566,0.42 61.195,-0.13 91.755,0.36 12.09,-11.91 24.12,-23.95 36.22,-35.93 -0.17,-60.59 -0.24,-121.12 -0.06,-181.7 -11.19,-11.86 -22.87,-23.17 -34.48,-34.6 -31.46,0.18 -62.994,-0.06 -94.463,0.24 -10.527,11.07 -21.359,21.84 -32.25,32.49 -0.121,61.55 0.239,123.16 -0.179,184.78 v 0" /><path
         id="path20"
         style="fill:#ffffff;fill-opacity:1;fill-rule:nonzero;stroke:none"
         d="m 1183.62,1591.21 c 30.09,77.74 65.76,153.26 96.57,230.69 19.55,-6.74 38.75,-14.62 57.4,-23.58 -0.42,-46.46 -0.48,-92.84 0.12,-139.3 14.86,40.38 32.43,79.73 48.8,119.51 16.37,-6.5 32.62,-13.37 48.44,-21.25 -35.14,-75.81 -66.13,-153.43 -98.74,-230.33 -13.3,6.14 -26.65,12.04 -40.43,16.85 -8.19,41.46 -4.46,83.94 -9.69,125.75 -1.39,11.14 -2.89,22.27 -4.4,33.4 -13.77,-45.31 -35.19,-87.85 -53.96,-131.17 -14.44,7.16 -29.25,13.48 -44.11,19.43 v 0" /><path
         id="path22"
         style="fill:#ffffff;fill-opacity:1;fill-rule:nonzero;stroke:none"
         d="m 601.543,1763.18 c 35.68,16.3 72.262,30.44 107.699,47.17 15.586,-6.32 31.227,-12.51 46.992,-18.53 12.875,-28.58 24.852,-57.58 37.969,-86.04 -4.148,-13.12 -7.887,-26.35 -11.133,-39.66 23.649,-22.74 47.118,-45.48 70.821,-68.1 -16.426,-7.05 -32.551,-14.81 -49.219,-21.31 -25.988,16.25 -44.102,43.68 -69.793,61.14 -4.637,-2.35 -13.902,-7.17 -18.535,-9.51 9.988,-25.39 20.336,-50.66 32.488,-75.09 -15.578,-6.8 -31.102,-13.78 -46.684,-20.64 -34.418,76.48 -66.128,154.15 -100.605,230.57 v 0" /><path
         id="path24"
         style="fill:#12100f;fill-opacity:1;fill-rule:nonzero;stroke:none"
         d="m 990.293,1803.43 c 14.437,6.68 31.047,2.53 46.387,2.17 3.26,-43.03 0.84,-86.28 1.39,-129.43 -2.53,-1.74 -7.53,-5.29 -10.05,-7.03 -13.3,1.5 -30.145,-4.58 -39.168,8.54 -0.36,41.82 -2.95,84.18 1.441,125.75 v 0" /><path
         id="path26"
         style="fill:#12100f;fill-opacity:1;fill-rule:nonzero;stroke:none"
         d="m 670.738,1730.93 c 16.242,5.96 32.071,18.35 50.239,13.35 3.492,-13.59 14.804,-27.43 8.421,-41.76 -11.91,-7.21 -25.027,-12.09 -37.66,-17.86 -6.859,15.53 -13.843,30.93 -21,46.27 v 0" /><path
         id="path28"
         style="fill:#ffffff;fill-opacity:1;fill-rule:nonzero;stroke:none"
         d="m 1523.52,1635.02 c 13.06,13.54 25.93,27.26 38.98,40.8 34.84,-34.42 69.68,-68.84 104.7,-103.08 -13.47,-12.81 -26.83,-25.69 -39.53,-39.29 -11.01,10.59 -22.02,21.24 -33.4,31.47 -44.88,-47.47 -91.21,-93.69 -137.79,-139.53 -12.21,13.72 -24.96,26.83 -38.02,39.65 46.69,45.25 91.4,92.42 137.42,138.27 -10.7,10.65 -21.35,21.36 -32.36,31.71 v 0" /><path
         id="path30"
         style="fill:#ffffff;fill-opacity:1;fill-rule:nonzero;stroke:none"
         d="m 362.551,1571.12 c 18.773,23.47 42.476,42.6 61.609,65.83 16.61,0.29 33.278,0.42 49.883,0.12 44.348,-41.04 86.039,-84.84 130.449,-125.76 1.199,-16.61 1.504,-33.27 1.324,-49.94 -22.265,-21 -42.004,-44.34 -63.597,-65.95 -17.207,-0.24 -34.364,-0.24 -51.512,0.24 -42.598,42.79 -86.156,84.61 -129.121,126.9 0.301,16.19 -1.02,32.43 0.965,48.56 v 0" /><path
         id="path32"
         style="fill:#12100f;fill-opacity:1;fill-rule:nonzero;stroke:none"
         d="m 423.684,1539.77 c -6.864,15.83 13.472,25.39 21.781,36.04 12.57,5.42 19.973,-7.4 28.035,-14.44 23.527,-24.31 49.82,-46.03 71.422,-72.08 -1.266,-14.08 -15.524,-21.79 -23.043,-32.56 -4.695,-0.17 -9.445,-0.42 -14.141,-0.59 -27.433,28.45 -57.039,54.81 -84.054,83.63 v 0" /><path
         id="path34"
         style="fill:#868387;fill-opacity:1;fill-rule:nonzero;stroke:none"
         d="m 782.109,1483.7 c 51.743,20.99 103.789,46.69 160.836,47.89 107.695,12.09 215.285,-37.73 289.055,-114.32 20.45,-19.74 40.43,-40.32 55.83,-64.32 11.37,-17.94 27.25,-34.3 29.91,-56.33 -39.24,-3.48 -78.28,3.08 -114.75,17.58 -1.98,3.43 -5.95,10.28 -7.94,13.71 -20.34,1.08 -36.1,13.3 -49.1,27.93 -16.67,9.26 -33.08,19.12 -51.33,25.14 -7.27,-3.12 -14.55,-6.19 -21.77,-9.32 -22.92,11.79 -45.61,23.88 -68.96,34.72 -23.097,3.78 -46.687,1.62 -69.972,2.28 -10.23,9.45 -19.797,20.1 -32.07,26.9 -36.344,2.1 -72.746,9.5 -109.207,6.08 -47.293,-13 -91.582,-35.87 -139.899,-45.8 36.227,38.1 82.86,64.32 129.367,87.86 v 0" /><path
         id="path36"
         style="fill:#868387;fill-opacity:1;fill-rule:nonzero;stroke:none"
         d="m 1101.85,1528.88 c 59.86,-8.72 116.07,-33.27 169.85,-59.99 27.69,-15.59 55.54,-31.47 79.55,-52.53 19.44,-16.72 42.06,-31.52 54.33,-54.81 -10.4,-26.77 -33.63,-51.03 -63.06,-55.3 -48.55,78.59 -109.56,154.04 -193.62,196.21 -15.76,8.67 -35.86,11.02 -47.05,26.42 v 0" /><path
         id="path38"
         style="fill:#ffffff;fill-opacity:1;fill-rule:nonzero;stroke:none"
         d="m 1559.31,1360.7 c 54.46,26.66 109.93,51.27 164.09,78.65 15.28,-5.84 31.41,-9.81 45.96,-17.45 13.97,-27.2 26.12,-55.3 39.83,-82.61 -5.46,-14.86 -10.94,-29.67 -16.06,-44.59 -54.38,-27.2 -109.14,-53.67 -164.74,-78.28 -15.65,2.29 -29.97,9.63 -45.12,13.84 -14.56,27.86 -27.75,56.38 -41.64,84.54 6.01,15.22 9.57,31.59 17.68,45.9 v 0" /><path
         id="path40"
         style="fill:#ffffff;fill-opacity:1;fill-rule:nonzero;stroke:none"
         d="m 249.066,1416 c 17.692,-7.21 35.082,-15.1 52.832,-22.26 -6.738,-13.78 -13.054,-27.8 -18.894,-42 59.266,-26.72 118.953,-52.35 178.226,-78.94 -6.984,-16.67 -14.566,-33.09 -21.96,-49.64 -60.598,24.67 -119.559,52.95 -179.368,79.42 -6.015,-14.01 -12.398,-27.92 -18.894,-41.81 -16.848,7.76 -33.699,15.64 -50.727,22.98 20.461,43.68 39.414,88.09 58.785,132.25 v 0" /><path
         id="path42"
         style="fill:#12100f;fill-opacity:1;fill-rule:nonzero;stroke:none"
         d="m 1698.79,1366.66 c 9.56,3.91 19.8,12.09 30.44,6.44 7.1,-10.29 11.67,-21.96 17.27,-33.1 -4.51,-6.67 -9.81,-13.11 -17.57,-16 -32.42,-14.44 -64.32,-29.9 -96.27,-45.3 -3.07,1.02 -9.08,2.94 -12.16,3.91 -6.13,12.39 -13.11,24.91 -13.23,39.1 30.15,15.71 61.37,29.25 91.52,44.95 v 0" /><path
         id="path44"
         style="fill:#868387;fill-opacity:1;fill-rule:nonzero;stroke:none"
         d="m 1422.61,1347.95 c 51.27,-59.51 92.67,-130.5 108.3,-208 -40.31,17.44 -84.35,18.65 -127.56,16.42 -15.63,43.38 -29.96,87.25 -48.97,129.36 28.15,13.9 51.5,35.68 68.23,62.22 v 0" /><path
         id="path46"
         style="fill:#868387;fill-opacity:1;fill-rule:nonzero;stroke:none"
         d="m 931.328,1327.32 c 51.809,7.52 104.692,11.13 156.502,1.86 24.72,0.9 46.39,-11.79 64.02,-27.92 38.68,2.65 72.44,-19.68 110.29,-22.8 23.47,-2.83 47.17,-0.91 70.64,0.6 22.74,-37.73 35.8,-80.39 47.35,-122.69 -14.79,-5.35 -30.56,-5.59 -46.02,-6.02 -24.13,-0.59 -47.96,-9.02 -72.08,-4.26 -24.02,4.45 -47.73,14.07 -72.63,10.1 -14.27,-2.64 -27.5,4.76 -41.4,6.44 -30.2,-5.84 -56.26,-23.65 -85.26,-32.98 -24.67,-2.46 -49.64,0 -74.31,-2.76 -5.231,4.45 -10.41,8.9 -15.582,13.36 -27.321,-13.72 -55.719,4.75 -83.938,-1.21 -21.844,-15.58 -38.808,-37 -57.887,-55.72 -31.222,-1.8 -62.39,1.45 -93.562,0.31 -13.356,-9.09 -26.836,-17.99 -40.066,-27.2 -26.657,-3.55 -59.813,0.36 -75.817,-26.18 -20.879,-1.38 -43.683,-4.26 -59.445,-19.61 -28.461,-28.038 -55.176,-57.82 -83.578,-85.98 -3.493,23.891 -8.965,48.07 -3.551,72.203 2.891,55.357 5.719,112.457 26.598,164.567 45.062,33.09 89.293,67.38 135.679,98.73 31.469,-11.49 63.36,8.07 94.59,-3.91 20.395,13.48 38.324,30.33 57.938,44.89 29.183,-0.12 58.371,-1.14 87.55,-0.6 19.793,4.39 34.594,20.81 53.969,26.78 v 0" /><path
         id="path48"
         style="fill:#868387;fill-opacity:1;fill-rule:nonzero;stroke:none"
         d="m 1407.62,1137.96 c 38.63,1.93 78.41,0.06 115.18,-13.18 6.55,-3.12 16,-5.78 17.15,-14.32 14.67,-64.56 15.46,-131.94 4.68,-197.241 -29.35,39.601 -72.68,66.429 -120.88,76.242 2.41,50.129 -9.38,99.219 -16.13,148.499 v 0" /><path
         id="path50"
         style="fill:#868387;fill-opacity:1;fill-rule:nonzero;stroke:none"
         d="m 1294.27,1121.48 c 29.01,11.43 60.59,12.21 91.33,12.69 9.76,-47.83 17.82,-96.21 14.99,-145.248 -37.61,-4.274 -73.41,-16.242 -107.28,-32.731 -8.19,1.75 -16.37,3.43 -24.49,4.868 -14.02,-25.27 -55.9,-11.848 -61.56,-43.258 -17.8,-11.25 -38.2,-15.641 -59.14,-13.949 -17.93,-13.301 -51.08,-8.313 -52.47,-37.563 -31.52,-15.699 -64.01,-29.359 -95.43,-45.418 -10.286,-18.23 -21.357,-36.051 -33.271,-53.25 -20.937,-1.512 -21.906,-21.66 -22.144,-38.211 -17.75,-18.051 -36.7,-34.84 -55.114,-52.219 -17.089,-15.89 -27.015,-37.32 -38.75,-57.05 -29.363,-3.301 -60.105,-3.192 -87.304,-16.301 -15.766,-7.879 -33.032,0.601 -48.981,3.43 -8.902,-2.532 -18.051,-8.84 -27.312,-4.04 -20.457,7.879 -41.52,14.2 -61.856,22.27 -31.347,25.512 -52.109,61.129 -74.371,94.23 -7.394,11.848 11.613,18.04 17.395,26.34 13.953,0.25 27.914,0.668 41.875,1.09 10.89,25.09 21.422,50.371 30.746,76.121 23.707,18.469 48.793,35.071 72.262,53.84 11.617,9.34 27.433,8.188 41.039,12.578 9.382,7.16 16.843,16.371 24.789,25.031 26.593,0.489 56.257,-7.039 79.058,10.899 22.028,16.711 49.586,19.551 75.574,25.512 26.051,28.578 51.325,57.999 76.835,87.119 38.21,-7.22 73.35,11.61 102.11,34.89 11.62,11.08 28.28,8.19 42.78,11.38 15.23,8.85 28.4,20.88 42.6,31.29 31.95,0.54 65.76,-8.01 96.09,5.66 v 0" /><path
         id="path52"
         style="fill:#868387;fill-opacity:1;fill-rule:nonzero;stroke:none"
         d="m 1271.53,915.578 c 36.94,28.274 82.07,47.531 128.76,50.844 3.31,-63.902 -11.92,-126.902 -29.25,-187.863 -17.98,-61.969 -50.77,-118.457 -88.03,-170.688 -37.65,-44.519 -78.63,-88.633 -131.4,-115.293 -36.64,-19.726 -78.04,-27.906 -119.02,-32.418 -32.668,-5.242 -65.461,2.399 -98.192,3.18 13.84,25.582 56.133,22.57 59.086,55.18 33.336,14.742 45.486,51.199 66.126,78.46 23.76,29.18 24.19,68.29 35.68,102.649 10.41,5.23 20.88,10.41 31.29,15.699 7.27,38.391 16.73,76.961 33.63,112.281 17.09,15.641 40.01,23.34 56.98,39.172 10.77,11.969 17.76,26.649 26.23,40.18 9.46,2.527 19.14,4.508 28.11,8.617 v 0" /><path
         id="path54"
         style="fill:#868387;fill-opacity:1;fill-rule:nonzero;stroke:none"
         d="m 1426.16,966.422 c 45.37,-9.262 91.88,-35.692 112.04,-78.942 -2.53,-27.992 -12.58,-54.82 -20.64,-81.601 -33.45,-81.578 -84.48,-156.309 -150.48,-215.098 -48.2,-38.453 -99.64,-75.211 -159.27,-93.383 -4.4,-0.429 -13.12,-1.207 -17.51,-1.57 20.58,15.953 43.38,29.192 61.61,47.961 80.75,79.602 132.73,185.141 156.2,295.43 11.49,41.57 10.77,84.961 18.05,127.203 v 0" /><path
         id="path56"
         style="fill:#ffffff;fill-opacity:1;fill-rule:nonzero;stroke:none"
         d="m 206.051,665.449 c 75.027,36.77 147.715,78.16 223.105,114.379 17.93,-33.387 35.922,-66.777 52.231,-100.957 0.297,-17.269 -9.571,-33.223 -12.879,-50.062 -27.738,-14.981 -55.957,-29.059 -84.117,-43.258 -13.176,3.73 -26.657,5.769 -40.192,7.16 -20.64,-25.031 -42.179,-49.281 -62.219,-74.789 -8.722,16.719 -17.269,33.508 -26.652,49.808 18.891,22.872 38.207,45.43 57.156,68.18 -3.543,7.399 -7.156,14.789 -10.886,22.078 -24.25,-13.359 -48.555,-26.648 -73.649,-38.386 -6.558,15.589 -14.082,30.808 -21.898,45.847 v 0" /><path
         id="path58"
         style="fill:#ffffff;fill-opacity:1;fill-rule:nonzero;stroke:none"
         d="m 1582,763.531 c 15.47,5.039 31.17,9.258 46.81,13.828 11.01,-7.82 28.04,-10.16 35.26,-21.531 -7.28,-16.379 -16.73,-31.648 -25.69,-47.117 -4.03,2.648 -12.1,7.879 -16.19,10.539 -6.91,-14.27 -14.2,-28.41 -20.94,-42.781 9.81,-10.18 22.26,-17.699 36.95,-15.778 10.58,18.899 20.88,37.911 30.62,57.231 16.31,4.387 32.2,12.328 49.34,12.637 25.21,-11.438 48.74,-26.239 73.47,-38.75 4.33,-15.11 9.09,-30.149 13.89,-45.129 -14.13,-27.2 -28.57,-54.282 -42.23,-81.719 -16.01,-4.992 -31.64,-12.57 -48.56,-13.481 -13.17,4.829 -25.09,12.411 -37.3,19.2 8.06,15.781 16.25,31.48 23.71,47.539 6.43,-3 13,-6.199 19.49,-9.449 6.8,12.699 14.5,25.031 20.1,38.39 -0.54,12.27 -13.54,16.192 -21.55,22.68 -25.44,-7.879 -28.39,-39.891 -41.45,-59.809 -16.91,-3.84 -33.27,-13.051 -50.66,-13.051 -25.03,11.25 -48.56,25.438 -73.17,37.481 -5.29,15.891 -12.57,31.539 -13.9,48.437 11.55,28.043 28.34,53.602 42,80.633 v 0" /><path
         id="path60"
         style="fill:#12100f;fill-opacity:1;fill-rule:nonzero;stroke:none"
         d="m 356.469,685.129 c 15.109,8.062 30.269,16 45.191,24.422 6.195,-12.379 12.754,-24.61 19.254,-36.821 -1.383,-3.359 -4.273,-9.992 -5.715,-13.351 -10.414,-4.641 -20.519,-10.117 -31.41,-13.539 -14.504,8.172 -18.051,26.461 -27.32,39.289 v 0" /><path
         id="path62"
         style="fill:#ffffff;fill-opacity:1;fill-rule:nonzero;stroke:none"
         d="m 1361.06,489.211 c 31.22,24.98 60.53,52.18 92.18,76.598 15.64,-2.887 31.59,-4.207 47.47,-5.411 20.21,-23.476 39.95,-47.359 59.99,-70.949 0.06,-13.41 0.12,-26.89 0.36,-40.371 29.6,-14.859 59.51,-29.359 87.91,-46.508 -14.62,-11.73 -28.89,-23.832 -43.03,-36.101 -25.74,14.801 -52.64,27.441 -78.94,41.16 -5.83,-5.238 -11.6,-10.469 -17.33,-15.758 17.57,-20.769 35.57,-41.23 52.83,-62.293 -13.11,-11.058 -25.81,-22.68 -40.01,-32.297 -52.52,65.028 -108.73,127.078 -161.43,191.93 v 0" /><path
         id="path64"
         style="fill:#ffffff;fill-opacity:1;fill-rule:nonzero;stroke:none"
         d="m 355.027,421.102 c 75.692,44.886 150.602,91.339 226.782,135.328 14.132,-11.321 26.648,-24.5 40.73,-35.981 -39.293,-79.551 -77.797,-159.519 -117.633,-238.758 -13.113,12.809 -27.371,24.547 -39.523,38.27 4.265,13 10.828,25.09 16.062,37.668 -17.148,15.512 -33.941,31.402 -51.09,46.859 -11.609,-7.148 -23.281,-14.258 -35.011,-21.297 -13.481,12.649 -26.836,25.34 -40.317,37.911 v 0" /><path
         id="path66"
         style="fill:#12100f;fill-opacity:1;fill-rule:nonzero;stroke:none"
         d="m 1436.58,478.871 c 11.84,9.02 21.95,21.117 35.92,26.949 13.66,-6.621 30.56,-21.359 29.72,-37.968 -9.81,-10.832 -22.03,-19.133 -33.09,-28.571 -11.25,12.867 -21.97,26.168 -32.55,39.59 v 0" /><path
         id="path68"
         style="fill:#12100f;fill-opacity:1;fill-rule:nonzero;stroke:none"
         d="m 476.211,433.98 c 21.836,9.872 42.66,21.899 62.934,34.711 -11.61,-20.75 -22.258,-42.05 -33.457,-63.05 -7.938,10.589 -28.516,15.16 -29.477,28.339 v 0" /><path
         id="path70"
         style="fill:#ffffff;fill-opacity:1;fill-rule:nonzero;stroke:none"
         d="m 725.547,448.898 c 35.265,-12.687 70.16,-26.898 104.457,-42.117 11.434,-13.113 14.019,-32.312 21.539,-47.953 -13.113,-27.078 -22.262,-55.957 -36.402,-82.488 -9.504,-9.328 -23.047,-13.36 -34.477,-19.918 -23.043,8.84 -45.973,18.109 -68.473,28.219 -12.996,-28.59 -24.066,-58.071 -37.484,-86.469 -14.562,6.68 -29.359,12.699 -44.223,18.598 28.758,78.582 65.282,153.968 95.063,232.128 v 0" /><path
         id="path72"
         style="fill:#ffffff;fill-opacity:1;fill-rule:nonzero;stroke:none"
         d="m 1268.75,439.34 c 14.63,-6.32 29.37,-12.461 43.99,-18.84 16.25,-40.012 31.29,-80.441 46.75,-120.762 5.66,-16.968 11.74,-33.808 19.14,-50.047 -6.98,-15.23 -10.11,-33.589 -21.91,-45.793 -26.89,-12.769 -56.07,-20.457 -83.51,-32.257 -14.68,5.839 -28.94,12.57 -43.68,18.121 -24.55,56.008 -41.4,115.097 -66.49,170.867 6.44,15.59 13.48,30.859 20.34,46.211 28.46,10.84 57.28,20.762 85.37,32.5 v 0" /><path
         id="path74"
         style="fill:#ffffff;fill-opacity:1;fill-rule:nonzero;stroke:none"
         d="m 944.688,381.93 c 48.374,-0.891 96.682,0.73 145.062,1.148 -0.24,-17.867 -0.17,-35.687 0.07,-53.558 -15.41,-1.008 -30.87,-1.622 -46.28,-2.34 0.91,-33.821 -1.02,-67.692 1.08,-101.45 2.36,-21.832 3.56,-43.921 0.19,-65.699 0.48,-9.082 1.5,-18.109 3.07,-27.082 -18.78,-1.859 -37.61,-1.918 -56.38,-1.558 -0.238,65.468 -3.008,130.871 -2.227,196.39 -14.98,0.418 -29.964,0.18 -44.824,-0.961 0.418,18.352 0.418,36.758 0.239,55.11 v 0" /><path
         id="path76"
         style="fill:#12100f;fill-opacity:1;fill-rule:nonzero;stroke:none"
         d="m 731.266,331.461 c 5.476,16 12.214,31.461 18.953,46.98 10.648,-4.632 21.422,-9.082 32.308,-13.171 1.809,-3.071 5.418,-9.211 7.223,-12.34 -6.68,-11.371 -7.82,-28.039 -20.938,-34.121 -13.421,-0.047 -25.152,8.492 -37.546,12.652 v 0" /><path
         id="path78"
         style="fill:#12100f;fill-opacity:1;fill-rule:nonzero;stroke:none"
         d="m 1227.66,347.809 c -5.41,17.703 17.58,20.882 29.48,25.519 11.08,4.453 19.13,-6.68 21.55,-16.129 11.19,-32.418 24.61,-64.07 35.55,-96.57 1.94,-18.828 -23.16,-18.707 -34.89,-26.348 -14.44,6.43 -16.25,22.93 -21.9,35.797 -9.45,26.113 -21.07,51.391 -29.79,77.731 v 0" /><path
         id="path80"
         style="fill:#868387;fill-opacity:1;fill-rule:nonzero;stroke:none"
         d="m 1660.77,320.559 c 0.11,0.121 0.42,0.363 0.53,0.492 -0.11,-0.129 -0.42,-0.371 -0.53,-0.492 v 0" /></g></g></svg>