<?xml version="1.0" encoding="UTF-8" standalone="no"?>
<!-- Created with Inkscape (http://www.inkscape.org/) -->

<svg
   xmlns:dc="http://purl.org/dc/elements/1.1/"
   xmlns:cc="http://creativecommons.org/ns#"
   xmlns:rdf="http://www.w3.org/1999/02/22-rdf-syntax-ns#"
   xmlns:svg="http://www.w3.org/2000/svg"
   xmlns="http://www.w3.org/2000/svg"
   xmlns:sodipodi="http://sodipodi.sourceforge.net/DTD/sodipodi-0.dtd"
   xmlns:inkscape="http://www.inkscape.org/namespaces/inkscape"
   width="30.220041"
   height="39.999996"
   id="svg2"
   version="1.1"
   inkscape:version="0.91 r13725"
   sodipodi:docname="Brooklyn_Nets_resized.svg">
  <defs
     id="defs4" />
  <sodipodi:namedview
     id="base"
     pagecolor="#ffffff"
     bordercolor="#666666"
     borderopacity="1.0"
     inkscape:pageopacity="0.0"
     inkscape:pageshadow="2"
     inkscape:zoom="2.8284271"
     inkscape:cx="-96.07538"
     inkscape:cy="0.51518753"
     inkscape:document-units="px"
     inkscape:current-layer="layer2"
     showgrid="false"
     inkscape:window-width="1920"
     inkscape:window-height="1001"
     inkscape:window-x="-9"
     inkscape:window-y="-9"
     inkscape:window-maximized="1"
     fit-margin-top="0"
     fit-margin-left="0"
     fit-margin-right="0"
     fit-margin-bottom="0"
     showguides="true"
     inkscape:guide-bbox="true">
    <sodipodi:guide
       orientation="0,1"
       position="503.39016,-114.16519"
       id="guide3020" />
  </sodipodi:namedview>
  <metadata
     id="metadata7">
    <rdf:RDF>
      <cc:Work
         rdf:about="">
        <dc:format>image/svg+xml</dc:format>
        <dc:type
           rdf:resource="http://purl.org/dc/dcmitype/StillImage" />
        <dc:title></dc:title>
      </cc:Work>
    </rdf:RDF>
  </metadata>
  <g
     inkscape:groupmode="layer"
     id="layer2"
     inkscape:label="Layer"
     transform="translate(-217.45143,-717.20464)">
    <path
       style="fill:#000000;fill-opacity:1;stroke:#000000;stroke-width:0.05325682px;stroke-linecap:butt;stroke-linejoin:miter;stroke-opacity:1"
       d="m 232.45332,717.23234 c -8.70112,0.0665 -14.91699,3.19528 -14.97515,3.25865 -0.0126,6.17181 0.99878,11.87026 3.43198,16.51931 2.68326,5.12682 7.8029,9.88588 11.65135,11.02612 4.68307,-1.55625 9.29267,-6.22342 11.71242,-11.01505 2.34196,-4.63759 3.36778,-10.24962 3.37091,-16.4921 -5.39361,-2.52567 -10.63378,-3.33177 -15.19151,-3.29693 z m 0.0183,0.50094 c 4.39184,-0.0327 9.44983,0.7332 14.67392,3.13051 0.0558,6.32037 -1.12602,11.65508 -3.32532,15.93085 -2.71576,5.27985 -7.45076,9.49211 -11.23737,10.76094 -4.24616,-1.28251 -9.00797,-6.36206 -11.25901,-10.67565 -3.31765,-6.35751 -3.47857,-13.55415 -3.29022,-16.09477 0.056,-0.0615 6.05357,-2.98941 14.438,-3.05188 z"
       id="path2997"
       inkscape:connector-curvature="0"
       sodipodi:nodetypes="scscscsscscscs" />
    <path
       style="fill:#000000;fill-opacity:1;stroke:#000000;stroke-width:0.04990127px;stroke-linecap:butt;stroke-linejoin:miter;stroke-opacity:1"
       d="m 246.68481,721.1071 c -8.67785,-4.0002 -20.66734,-3.80005 -28.22783,0.0298 -0.12013,7.43318 1.8008,12.88217 3.57131,16.11187 1.99701,3.64289 6.56111,8.51868 10.57983,9.81394 5.4648,-1.89068 10.37838,-8.41038 12.02289,-13.13545 1.60082,-4.59953 2.03558,-7.36899 2.0538,-12.82016 z"
       id="path2997-1-7"
       inkscape:connector-curvature="0"
       sodipodi:nodetypes="ccscsc" />
    <path
       style="fill:#ffffff;fill-opacity:1;stroke:#000000;stroke-width:0.05325682px;stroke-linecap:butt;stroke-linejoin:miter;stroke-opacity:1"
       d="m 220.52213,731.20349 0.01,-9.43882 c 0,0 -0.0333,-0.0999 0.13314,-0.16643 0.16643,-0.0666 1.27911,-0.47551 1.27911,-0.47551 0,0 0.14266,-0.0523 0.17594,0.0285 0.0333,0.0808 2.85305,7.18016 2.85305,7.18016 l -0.0571,-7.89342 c 0,0 -0.004,-0.14265 0.13552,-0.17475 0.13908,-0.0321 0.98211,-0.21479 0.97875,-0.21479 -0.003,0 0.12441,-0.0202 0.12441,0.11432 0,0.13449 -0.0166,9.46678 -0.0166,9.46678 0,0 -0.0154,0.16286 -0.14146,0.18782 -0.12601,0.025 -1.3754,0.32097 -1.37065,0.32097 0.005,0 -0.15216,0.038 -0.20447,-0.0951 -0.0523,-0.13314 -2.76745,-7.06128 -2.76745,-7.06128 0,0 0.0428,7.86013 0.038,7.86489 -0.005,0.005 0.0143,0.12838 -0.10937,0.17594 -0.12363,0.0476 -0.91773,0.31858 -0.91773,0.31858 0,0 -0.14265,-0.005 -0.14265,-0.13789 z"
       id="path3825"
       inkscape:connector-curvature="0" />
    <path
       style="fill:#ffffff;fill-opacity:1;stroke:#000000;stroke-width:0.05325682px;stroke-linecap:butt;stroke-linejoin:miter;stroke-opacity:1"
       d="m 227.18398,719.95298 c 0,0 -0.0476,-0.13789 0.19496,-0.16642 0.24251,-0.0285 1.50736,-0.31859 4.74081,-0.40419 0,0 0.21874,-0.0476 0.21874,0.10462 0,0.15216 0,0.62767 0,0.66571 0,0.038 -0.0143,0.15216 -0.1379,0.15216 -0.12363,0 -2.28244,-0.005 -3.72322,0.2853 l -0.01,3.281 c 0,0 1.00332,-0.21397 3.05751,-0.23775 0,0 0.11311,-0.0679 0.11311,0.1069 0,0.17485 0,0.63885 0,0.63885 0,0 0.0135,0.18157 -0.13449,0.16139 -0.14794,-0.0202 -2.36709,0.074 -3.05301,0.23537 l -0.007,3.7053 c 0,0 1.20372,-0.21519 3.72548,-0.26899 0,0 0.16139,-0.0471 0.16139,0.14122 0,0.18829 0,0.59177 0,0.59177 0,0 0.0403,0.18829 -0.16139,0.18829 -0.20174,0 -2.99248,0.0471 -4.78798,0.40349 0,0 -0.18156,0.0269 -0.18156,-0.10087 z"
       id="path3829"
       inkscape:connector-curvature="0" />
    <path
       style="fill:#ffffff;fill-opacity:1;stroke:#000000;stroke-width:0.05325682px;stroke-linecap:butt;stroke-linejoin:miter;stroke-opacity:1"
       d="m 235.36396,729.08644 -0.007,-8.67485 c 0,0 -1.33149,-0.14458 -2.26286,-0.10759 0,0 -0.13113,0.0135 -0.13113,-0.12441 0,-0.13785 -0.003,-0.696 -0.003,-0.696 0,0 -0.0335,-0.11351 0.1244,-0.1076 0.16853,0.006 3.15015,0.0287 5.85048,0.53798 0,0 0.14122,0.0269 0.14122,0.14121 0,0.11432 0,0.65902 0,0.65902 0,0 -0.0202,0.17484 -0.15467,0.14795 -0.13449,-0.0269 -1.10957,-0.21519 -2.27967,-0.34296 l 0,8.6345 c 0,0 0.0336,0.16812 -0.12104,0.15467 l -1.00198,-0.0807 c 0,0 -0.14795,0.0135 -0.15467,-0.14122 z"
       id="path2996"
       inkscape:connector-curvature="0"
       sodipodi:nodetypes="cccscsc" />
    <path
       style="fill:#ffffff;fill-opacity:1;stroke:#000000;stroke-width:0.05325682px;stroke-linecap:butt;stroke-linejoin:miter;stroke-opacity:1"
       d="m 243.66223,724.21104 c 0,0 -0.11432,-0.0605 -0.1076,-0.14794 0.007,-0.0874 0.007,-1.28442 0.007,-1.28442 0,0 -0.0202,-0.65229 -0.84732,-1.10285 0,0 -0.53797,-0.34295 -1.4189,-0.31606 -0.0336,0.007 -0.52453,0.0202 -0.55815,0.73299 0,0 -0.0403,0.84059 0.30933,1.3046 0,0 0.5447,0.72626 1.23062,1.41218 l 1.1163,1.17009 c 0,0 0.97508,1.00871 1.26424,1.60721 0,0 0.28916,0.4371 0.32279,1.5265 0,0 0.12777,1.60048 -1.15665,1.66772 0,0 -0.96836,0.19502 -2.81765,-0.58505 0,0 -1.71479,-0.60522 -1.85601,-2.21242 l -0.0134,-1.49288 c 0,0 -0.007,-0.14794 0.14122,-0.14122 l 1.01543,0.19502 c 0,0 0.11362,0 0.11432,0.14794 l 0.007,1.43909 c 0,0 0.0471,1.31804 2.37382,1.66772 0,0 0.93473,0.20847 0.92128,-0.6792 l 0.007,-0.75316 c 0,0 -0.0202,-0.70609 -1.04905,-1.7148 l -2.23932,-2.24604 c 0,0 -0.80203,-0.79913 -0.95491,-1.85602 0,0 -0.074,-1.0087 0.27571,-1.5803 0,0 0.75317,-1.31131 3.45649,-0.0269 0,0 1.37857,0.52453 1.54668,1.90982 l 0.074,1.60047 c 0,0 -0.0135,0.16139 -0.15466,0.1345 -0.14122,-0.0269 -1.00871,-0.37659 -1.00871,-0.37659 z"
       id="path3009"
       inkscape:connector-curvature="0"
       sodipodi:nodetypes="cscccccccccccccccscccccccccc" />
    <path
       style="fill:none;stroke:#000000;stroke-width:0.05325682px;stroke-linecap:butt;stroke-linejoin:miter;stroke-opacity:1"
       d="m 231.7869,733.64759 c 0,0 -0.0476,-0.0143 -0.0476,0.0571 0,0.0713 0,3.00046 -0.005,3.00046 0,0 -0.005,0.0523 0.0523,0.0523 0.0571,0 0.7513,-0.005 0.7513,-0.005 0,0 0.79886,-0.10461 0.79886,-0.81311 0,-0.70851 -1e-5,-1.62148 -1e-5,-1.62148 0.0227,-0.74893 -0.6232,-0.66978 -0.82262,-0.67522 z"
       id="path2999"
       inkscape:connector-curvature="0"
       sodipodi:nodetypes="cscscscc" />
    <path
       style="fill:none;stroke:#000000;stroke-width:0.05325682px;stroke-linecap:butt;stroke-linejoin:miter;stroke-opacity:1"
       d="m 231.7869,737.80828 c 0,0 -0.0476,-0.005 -0.0523,0.0571 0,0 0.005,3.70896 0,3.70896 -0.005,0 0,0.0618 0.0713,0.0666 0.0713,0.005 1.0794,0.0143 1.0794,0.0143 0.0908,-0.0504 0.83393,0.13162 0.83689,-1.04612 l 0,-1.86874 c -0.018,-0.1591 -0.0839,-0.95368 -1.32191,-0.93199 z"
       id="path3001"
       inkscape:connector-curvature="0"
       sodipodi:nodetypes="ccsscccc" />
    <path
       style="fill:#ffffff;fill-opacity:1;stroke:#ffffff;stroke-width:0.05325682px;stroke-linecap:butt;stroke-linejoin:miter;stroke-opacity:1"
       d="m 230.57435,730.90867 c -0.82738,0.1807 -2.52019,0.96053 -3.73749,2.61529 1.53114,-0.23775 2.78648,0.59914 3.25248,0.79886 l 0.01,0.49452 c -1.59771,-0.81787 -2.55823,-0.90346 -3.49023,-0.89395 -0.34236,0.31383 -1.09625,2.2175 -1.00332,4.05132 0.25839,0.15503 0.46609,1.22686 4.47452,2.1588 l -0.01,0.59915 c 0,0 -2.92446,-0.31187 -4.41756,-2.27096 0.17337,1.68526 1.5035,4.46569 4.01814,5.3142 2.21,0.31498 3.51301,-0.40986 5.50916,-1.40424 2.16353,-1.14485 2.14122,-1.21703 2.84401,-1.55294 0.17935,-0.69265 0.20346,-1.25243 0.20346,-1.25243 -1.19699,0.5985 -2.88374,0.92522 -2.88374,0.92522 l -0.007,-0.4909 c 1.46598,-0.26899 2.91851,-0.94818 2.91851,-0.94818 0.0125,-0.91605 -0.0921,-1.48665 -0.0921,-1.48665 -1.04612,0.62767 -2.86256,-0.0285 -3.13835,-0.0951 -0.21873,-0.36138 -0.31384,-0.35187 -0.31384,-0.35187 0.22825,-0.29482 0.16168,-0.39943 0.16168,-0.39943 0.86542,0.45649 2.29194,0.71326 3.15736,0.31384 -0.98905,-4.07035 -4.58389,-6.52396 -7.45595,-6.12454 z"
       id="path3772"
       inkscape:connector-curvature="0"
       sodipodi:nodetypes="cccccccccccccccccccccc" />
    <path
       style="fill:#ffffff;fill-opacity:1;stroke:none"
       d="m 230.25101,744.09925 c 0.97435,0.70886 6.50686,0.9313 7.65091,-2.80074 -2.47459,1.53846 -4.80615,3.20756 -7.65091,2.80074 z"
       id="path3002"
       inkscape:connector-curvature="0"
       sodipodi:nodetypes="ccc" />
    <path
       style="fill:#ffffff;fill-opacity:1;stroke:none"
       d="m 237.68398,742.28701 c 0,0 0.92128,-1.02888 0.94818,-1.40546 -0.0751,-0.0731 -0.21547,0.0464 -0.31606,0.11432 0.0699,0.0291 -0.33483,0.8168 -0.63212,1.29114 z"
       id="path3003"
       inkscape:connector-curvature="0"
       sodipodi:nodetypes="cccc" />
    <path
       style="fill:#ffffff;fill-opacity:1;stroke:none"
       d="m 238.71622,739.27435 c -0.0101,0.16811 0.0336,0.2589 -0.24546,1.33821 0.1883,-0.0538 0.20847,-0.0673 0.34969,0.0807 0.46847,-0.82864 0.6196,-1.74703 0.65902,-2.2595 -0.34296,0.66574 -0.76325,0.84059 -0.76325,0.84059 z"
       id="path3010"
       inkscape:connector-curvature="0"
       sodipodi:nodetypes="ccccc" />
    <path
       style="fill:#000000;fill-opacity:1;stroke:#000000;stroke-width:0.05325682px;stroke-linecap:butt;stroke-linejoin:miter;stroke-opacity:1"
       d="m 230.58943,732.85227 c 0.005,3.21733 0.007,6.43473 0.0147,9.65203 0.13802,0.36776 0.66732,0.1242 0.9812,0.18994 0.58158,-0.0142 1.16607,0.0184 1.74582,-0.026 0.74455,-0.11187 1.438,-0.7179 1.47422,-1.49891 0.006,-0.92965 0.004,-1.86019 -0.003,-2.78985 -0.0675,-0.51903 -0.44446,-1.00454 -0.94266,-1.1751 0.49688,-0.27253 0.64643,-0.87215 0.60745,-1.39897 -0.0149,-0.61523 0.0202,-1.23314 -0.0373,-1.84614 -0.0531,-0.55844 -0.40611,-1.11648 -0.97686,-1.25316 -0.48627,-0.13106 -0.9942,-0.0553 -1.49134,-0.0738 -0.41288,0.006 -0.82875,-0.009 -1.23958,0.0109 -0.0904,0.0236 -0.13848,0.12082 -0.13304,0.20907 z"
       id="path2998"
       inkscape:connector-curvature="0" />
    <path
       style="fill:#ffffff;fill-opacity:1;stroke:#000000;stroke-width:0.05325682px;stroke-linecap:butt;stroke-linejoin:miter;stroke-opacity:1"
       d="m 231.76788,733.64759 c 0,0 -0.0428,0.01 -0.0428,0.0523 0,0.0428 0.005,3.00521 0.005,3.00521 0,0 -0.005,0.0428 0.0476,0.038 0.0523,-0.005 0.75606,0 0.75606,0 0,0 0.79409,-0.005 0.79885,-0.84641 l 0.005,-1.65952 c 0,0 0.0618,-0.58012 -0.62291,-0.58487 z"
       id="path3777"
       inkscape:connector-curvature="0" />
    <path
       style="fill:#ffffff;fill-opacity:1;stroke:#000000;stroke-width:0.05325682px;stroke-linecap:butt;stroke-linejoin:miter;stroke-opacity:1"
       d="m 231.73459,737.79402 -0.005,3.78979 c 0,0 -0.005,0.0666 0.0904,0.0666 0.0951,0 1.12219,-0.005 1.12219,-0.005 0,0 0.76557,0.0904 0.76082,-1.00332 l -0.005,-2.01139 c 0,0 -0.0856,-0.8464 -1.25534,-0.83689 z"
       id="path3779"
       inkscape:connector-curvature="0"
       sodipodi:nodetypes="ccsccccc" />
    <path
       style="fill:#ffffff;fill-opacity:1;stroke:none"
       d="m 239.29991,735.82542 c 0.3281,0.71326 0.25202,1.8307 0.25202,1.8307 -0.21873,0.59914 -0.48977,0.94626 -0.8464,1.1745 0.005,-1.04136 -0.16168,-1.58819 -0.16168,-1.58819 0.63243,-0.55634 0.75606,-1.41701 0.75606,-1.41701 z"
       id="path3793"
       inkscape:connector-curvature="0"
       sodipodi:nodetypes="ccccc" />
    <path
       style="fill:#ffffff;fill-opacity:1;stroke:#ffffff;stroke-width:0.05325682px;stroke-linecap:butt;stroke-linejoin:miter;stroke-opacity:1"
       d="m 238.90524,734.98853 c -0.45649,-2.31097 -3.62337,-4.73606 -6.98996,-4.38418 4.04843,0.4262 5.97982,4.35358 6.50494,6.07698 0.5611,-0.2853 0.48502,-1.6928 0.48502,-1.6928 z"
       id="path3795"
       inkscape:connector-curvature="0"
       sodipodi:nodetypes="ccc" />
    <path
       style="fill:#000000;fill-opacity:1;stroke:#000000;stroke-width:0.05325682px;stroke-linecap:butt;stroke-linejoin:miter;stroke-opacity:1"
       d="m 219.91684,749.83986 0.006,7.14563 c 0,0 0,0.0856 0.0285,0.0856 0.0285,0 1.82595,-10e-6 1.82595,-10e-6 0.0609,0.002 1.04381,-0.24731 1.04612,-1.12219 l 0,-1.93056 c -0.016,-0.32882 -0.31314,-0.78332 -0.76081,-0.84641 0.037,-0.0394 0.52586,-0.27967 0.51354,-0.85591 l 0.003,-1.53055 c 0.0142,-0.46041 -0.3795,-0.92703 -0.91391,-0.93318 z"
       id="path3011"
       inkscape:connector-curvature="0"
       sodipodi:nodetypes="ccscccccccc" />
    <path
       style="fill:#ffffff;fill-opacity:1;stroke:#000000;stroke-width:0.05325682px;stroke-linecap:butt;stroke-linejoin:miter;stroke-opacity:1"
       d="m 220.62344,750.47095 c -0.003,0.007 -0.0269,0 -0.0269,0.0437 0,0.0437 0.007,2.33683 0.007,2.33683 0,0 -0.0101,0.0303 0.0269,0.0303 0.037,0 0.47409,0 0.47409,0 0,0 0.76325,0.037 0.77334,-0.61531 l -0.003,-1.32812 c 0,0 0.0605,-0.45056 -0.56151,-0.46064 z"
       id="path3012"
       inkscape:connector-curvature="0" />
    <path
       style="fill:#ffffff;fill-opacity:1;stroke:#000000;stroke-width:0.05325682px;stroke-linecap:butt;stroke-linejoin:miter;stroke-opacity:1"
       d="m 220.63353,753.51051 c -0.0336,0.0336 -0.0269,0.0504 -0.0269,0.0504 l 0.003,2.86135 c 0,0 -0.003,0.0303 0.0202,0.0303 0.0235,0 0.86412,0.003 0.86412,0.003 0,0 0.66911,0.0303 0.66238,-0.82377 l -0.003,-1.29114 c 0,0 0.0706,-0.8305 -0.87758,-0.82714 z"
       id="path3014"
       inkscape:connector-curvature="0" />
    <path
       style="fill:#000000;fill-opacity:1;stroke:#000000;stroke-width:0.05325682px;stroke-linecap:butt;stroke-linejoin:miter;stroke-opacity:1"
       d="m 223.23252,749.86393 0.0285,7.12156 c 0,0 0.009,0.0856 0.0476,0.0761 0.038,-0.01 0.54208,0 0.54208,0 0,0 0.0761,-0.01 0.0761,-0.0951 0,-0.0856 0.01,-3.30953 0.01,-3.30953 l 0.58963,-0.01 1.28166,3.41309 0.62652,0.002 c 0,0 0.0499,-0.0111 0.0567,-0.0481 l 0,-0.11095 -1.25079,-3.30687 c 0.12084,-0.003 0.93542,-0.37142 0.93137,-1.02383 l 0,-1.7148 c 0,0 -0.0807,-1.00198 -1.27433,-0.99525 z"
       id="path3784"
       inkscape:connector-curvature="0"
       sodipodi:nodetypes="ccscsccccccccccc" />
    <path
       style="fill:#ffffff;fill-opacity:1;stroke:#000000;stroke-width:0.05325682px;stroke-linecap:butt;stroke-linejoin:miter;stroke-opacity:1"
       d="m 223.92862,750.47431 0.003,2.54194 1.03224,0 c 0,0 0.50099,-0.0202 0.49427,-0.56488 l 0.003,-1.31131 c 0,0 0.0572,-0.66911 -0.59177,-0.66238 z"
       id="path3013"
       inkscape:connector-curvature="0"
       sodipodi:nodetypes="ccccccc" />
    <path
       style="fill:#000000;fill-opacity:1;stroke:#000000;stroke-width:0.05325682px;stroke-linecap:butt;stroke-linejoin:miter;stroke-opacity:1"
       d="m 226.61813,751.30794 0.01,4.36515 c 0.0159,1.98614 3.04078,2.02045 3.03374,0.019 l -0.01,-4.40319 c 0.0197,-2.13067 -3.04325,-1.98762 -3.03374,0.019 z"
       id="path3015"
       inkscape:connector-curvature="0"
       sodipodi:nodetypes="ccccc" />
    <path
       style="fill:#ffffff;fill-opacity:1;stroke:#000000;stroke-width:0.05325682px;stroke-linecap:butt;stroke-linejoin:miter;stroke-opacity:1"
       d="m 227.30286,751.21283 0,4.44124 c -0.01,1.12244 1.67379,1.16991 1.6833,0 l 0,-4.39368 c -5e-4,-1.1076 -1.67133,-1.14469 -1.6833,-0.0476 z"
       id="path3017"
       inkscape:connector-curvature="0"
       sodipodi:nodetypes="ccccc" />
    <path
       style="fill:#000000;fill-opacity:1;stroke:#000000;stroke-width:0.05325682px;stroke-linecap:butt;stroke-linejoin:miter;stroke-opacity:1"
       d="m 230.07983,751.29348 0.01,4.36516 c -0.003,1.98614 3.04078,2.02044 3.03374,0.019 l -0.01,-4.4032 c 0.0197,-2.13067 -3.04325,-1.98762 -3.03374,0.019 z"
       id="path3015-1"
       inkscape:connector-curvature="0"
       sodipodi:nodetypes="ccccc" />
    <path
       style="fill:#ffffff;fill-opacity:1;stroke:#000000;stroke-width:0.05325682px;stroke-linecap:butt;stroke-linejoin:miter;stroke-opacity:1"
       d="m 230.76456,751.19838 0,4.44124 c -0.01,1.12244 1.67379,1.16991 1.6833,0 l 0,-4.39369 c -5e-4,-1.10759 -1.67133,-1.14469 -1.6833,-0.0476 z"
       id="path3017-7"
       inkscape:connector-curvature="0"
       sodipodi:nodetypes="ccccc" />
    <path
       style="fill:#000000;fill-opacity:1;stroke:#000000;stroke-width:0.05325682px;stroke-linecap:butt;stroke-linejoin:miter;stroke-opacity:1"
       d="m 234.15968,749.79582 -0.53257,-0.005 c -0.01,0.007 -0.0963,-0.0169 -0.0808,0.0856 l 0.01,7.08506 c 0,0 -0.002,0.0744 0.0618,0.0761 0.0808,0.002 0.53732,0 0.53732,0 0.006,-0.004 0.0934,0.0186 0.0856,-0.0808 l 0,-2.69613 0.3709,-0.67284 1.22918,3.38324 c 0,0 0.007,0.0594 0.069,0.0618 l 0.58012,0 c 0,0 0.0642,0.01 0.0666,-0.0499 0.002,-0.0594 -0.002,-0.12838 -0.002,-0.12838 l -1.48596,-4.13216 1.47882,-2.80787 c 0,0 0.0309,-0.11412 -0.0571,-0.11175 l -0.63242,0 c -0.0199,0.002 -0.0378,0.007 -0.0452,0.0285 l -1.56442,3.0694 -0.007,-3.03136 c 0,0 0.0119,-0.0761 -0.0499,-0.0737 z"
       id="path3786"
       inkscape:connector-curvature="0"
       sodipodi:nodetypes="ccccscccccccccccccccccc" />
    <path
       style="fill:#000000;fill-opacity:1;stroke:#000000;stroke-width:0.05325682px;stroke-linecap:butt;stroke-linejoin:miter;stroke-opacity:1"
       d="m 237.48224,749.82538 -0.55815,-0.007 c 0,0 -0.0807,0 -0.0807,0.12104 l 0.004,7.02961 c 0,0 0.0372,0.07 0.0776,0.07 l 2.39317,0.003 c 0,0 0.0605,-0.0182 0.0605,-0.0922 l 0,-0.45368 c 0,0 0.0202,-0.074 -0.0807,-0.074 l -1.72825,0 -0.007,-6.52295 c 0,0 -0.0269,-0.0807 -0.0807,-0.074 z"
       id="path3019"
       inkscape:connector-curvature="0"
       sodipodi:nodetypes="ccccccscsccc" />
    <path
       style="fill:#000000;fill-opacity:1;stroke:#000000;stroke-width:0.05325682px;stroke-linecap:butt;stroke-linejoin:miter;stroke-opacity:1"
       d="m 239.08271,749.82538 -0.52452,0 c 0,0 -0.0941,0.0471 -0.074,0.12777 0.0202,0.0807 1.39874,3.96757 1.39874,3.96757 l 0.0135,3.05973 c 0,0 -0.0135,0.0672 0.0336,0.074 0.0471,0.007 0.5447,0 0.5447,0 0,0 0.074,0 0.074,-0.074 l 0,-3.05301 1.46599,-3.99446 c 0,0 0.0538,-0.12105 -0.0807,-0.11432 -0.1345,0.007 -0.55143,0 -0.55143,0 0,0 -0.074,0 -0.10087,0.10087 -0.0269,0.10087 -1.0356,3.05301 -1.0356,3.05301 l -1.0356,-3.07319 c 0,0 -0.0403,-0.074 -0.12777,-0.074 z"
       id="path3021"
       inkscape:connector-curvature="0"
       sodipodi:nodetypes="ccscccccccscsccc" />
    <path
       style="fill:#000000;fill-opacity:1;stroke:#000000;stroke-width:0.05325682px;stroke-linecap:butt;stroke-linejoin:miter;stroke-opacity:1"
       d="m 243.0374,749.82435 -0.73228,0 c 0,0 -0.0713,0.005 -0.0761,0.0951 -0.005,0.0904 -0.005,7.06604 -0.005,7.06604 0,0 -0.0238,0.0808 0.0571,0.0808 0.0808,0 0.5183,0.004 0.5183,0.004 0,0 0.0856,8.4e-4 0.0903,-0.099 0.005,-0.0999 -0.0238,-5.79154 -0.0238,-5.79154 l 1.43603,5.82007 c 0,0 0.0384,0.0579 0.0954,0.0626 l 0.76163,0 c 0,0 0.0702,0.0134 0.0702,-0.0817 l 0,-7.0803 c 0,0 -0.005,-0.0618 -0.0951,-0.0666 l -0.5183,-0.005 c 0,0 -0.0761,-0.005 -0.0761,0.0713 l 0.0906,6.04442 -1.50633,-6.05558 c 0,0 -0.006,-0.066 -0.0868,-0.0649 z"
       id="path3023"
       inkscape:connector-curvature="0"
       sodipodi:nodetypes="ccscscscccccccccccc" />
  </g>
</svg>
