<?xml version="1.0" encoding="UTF-8" standalone="no"?>
<!-- Created with Inkscape (http://www.inkscape.org/) -->

<svg
   xmlns:dc="http://purl.org/dc/elements/1.1/"
   xmlns:cc="http://creativecommons.org/ns#"
   xmlns:rdf="http://www.w3.org/1999/02/22-rdf-syntax-ns#"
   xmlns:svg="http://www.w3.org/2000/svg"
   xmlns="http://www.w3.org/2000/svg"
   xmlns:sodipodi="http://sodipodi.sourceforge.net/DTD/sodipodi-0.dtd"
   xmlns:inkscape="http://www.inkscape.org/namespaces/inkscape"
   version="1.0"
   width="39.720577"
   height="40"
   id="svg2506"
   inkscape:version="0.91 r13725"
   sodipodi:docname="Chicago_Bulls_resized.svg">
  <metadata
     id="metadata67">
    <rdf:RDF>
      <cc:Work
         rdf:about="">
        <dc:format>image/svg+xml</dc:format>
        <dc:type
           rdf:resource="http://purl.org/dc/dcmitype/StillImage" />
        <dc:title></dc:title>
      </cc:Work>
    </rdf:RDF>
  </metadata>
  <sodipodi:namedview
     pagecolor="#ffffff"
     bordercolor="#666666"
     borderopacity="1"
     objecttolerance="10"
     gridtolerance="10"
     guidetolerance="10"
     inkscape:pageopacity="0"
     inkscape:pageshadow="2"
     inkscape:window-width="826"
     inkscape:window-height="480"
     id="namedview65"
     showgrid="false"
     fit-margin-top="0"
     fit-margin-left="0"
     fit-margin-right="0"
     fit-margin-bottom="0"
     inkscape:zoom="1.1483508"
     inkscape:cx="19.860293"
     inkscape:cy="20.000001"
     inkscape:window-x="362"
     inkscape:window-y="179"
     inkscape:window-maximized="0"
     inkscape:current-layer="svg2506" />
  <defs
     id="defs2508" />
  <g
     transform="matrix(0.19463572,0,0,0.19463572,-53.545184,-67.489737)"
     id="layer1">
    <g
       transform="matrix(1.25,0,0,1.25,282.28236,392.0761)"
       id="g8"
       style="fill:#1c2524;fill-rule:evenodd;stroke:none;stroke-width:1;stroke-linecap:butt;stroke-linejoin:miter;stroke-dasharray:none">
      <path
         d="m 143.079,27.0732 c -0.492,-9.8447 -4.922,-18.8691 -7.548,-24.1201 0,0 -1.476,-2.9531 -1.476,-2.9531 0,0 0.164,2.625 0.164,2.625 0.328,3.4463 1.148,15.5879 -2.461,22.4795 -4.595,9.3525 -17.721,8.5322 -22.152,8.2041 0,0 -0.328,0 -0.328,0 -7.055,-0.4922 -30.1911,-1.3125 -37.4098,-1.3125 -9.3536,0 -19.6905,0.8203 -28.0586,1.4766 -4.1016,0.3281 -7.5469,0.4921 -10.0088,0.6562 -0.1641,0 -0.4922,0 -0.8203,0 C 21.3311,35.2773 13.9473,31.832 10.9941,23.9561 9.1885,19.0332 9.3525,9.5166 9.3525,4.9229 c 0,0 0,-3.2823 0,-3.2823 0,0 -0.9843,1.6407 -0.9843,1.6407 C 6.2354,7.3838 2.1328,14.9316 0.8203,27.4014 0,42.333 7.7119,47.584 13.4551,50.2087 c 6.0713,2.953 12.4697,3.282 14.4394,3.446 0,0 0.1631,0 0.1631,0 0.3281,0 0.8213,0 1.3135,0.164 0.6562,0 1.3125,0 1.9687,0.164 -0.9843,0.164 -2.4609,0.493 -3.7744,0.657 -1.3125,0.163 -2.625,0.491 -3.2812,0.656 -1.4766,0.164 -7.2197,1.641 -10.501,2.625 -2.625,0.985 -5.5791,2.297 -5.5791,2.297 0,0 -0.4922,0.328 -0.4922,0.328 0,0 0.3281,0.492 0.3281,0.492 0,0 0.9844,1.313 1.9688,2.297 2.1338,2.134 7.876,5.743 14.7676,4.923 5.5791,-0.82 8.5322,-1.969 9.6806,-2.625 0.4922,1.149 1.3125,3.938 2.1328,6.07 2.462,6.236 8.2041,18.214 10.3379,22.316 1.8047,3.282 3.4453,6.2353 4.5938,8.2043 0,0 0.4922,0.656 0.4922,0.656 -0.3282,1.313 -1.3125,2.133 -1.9688,2.79 -0.164,0.163 -0.3281,0.163 -0.4922,0.327 0,0 -0.164,0.164 -0.164,0.164 0,0 0,0.166 0,0.166 0,1.148 -0.3282,11.485 6.7275,19.033 0,0 0.1641,0.164 0.1641,0.164 3.6093,1.312 8.04,2.625 15.4238,2.625 7.5469,0 13.7819,-1.641 16.0789,-2.789 0,0 0,-0.164 0,-0.164 0,0 0.165,0 0.165,0 4.922,-5.744 7.055,-14.44 7.219,-17.721 0,0 0,-0.164 0,-0.164 0,0 -0.164,-0.164 -0.164,-0.164 -0.164,-0.164 -0.328,-0.164 -0.492,-0.328 -0.657,-0.822 -1.641,-1.642 -2.133,-3.775 0.492,-0.984 1.641,-3.4453 2.625,-5.4153 0.656,-1.148 0.984,-2.133 1.313,-2.625 1.969,-4.101 8.039,-17.064 10.501,-23.136 1.477,-3.937 2.297,-5.906 2.789,-6.562 0.985,0.492 3.938,1.805 9.353,2.297 6.892,0.82 13.619,-3.938 15.424,-6.564 0.328,-0.328 0.984,-0.984 0.984,-0.984 0,0 0.328,-0.492 0.328,-0.492 0,0 -0.492,-0.328 -0.492,-0.328 -0.164,0 -0.328,0 -1.312,-0.492 0,0 -7.876,-2.461 -7.876,-2.461 -0.985,-0.493 -5.744,-1.478 -9.189,-2.134 0,0 -2.625,-0.656 -2.625,-0.656 0,0 0.82,-0.165 0.82,-0.165 8.041,-1.312 29.371,-5.0855 28.058,-26.2525 z"
         id="path10"
         inkscape:connector-curvature="0" />
    </g>
    <g
       transform="matrix(1.25,0,0,1.25,285.56486,399.2551)"
       id="g12"
       style="fill:#d2153a;fill-rule:evenodd;stroke:none;stroke-width:1;stroke-linecap:butt;stroke-linejoin:miter;stroke-dasharray:none">
      <path
         d="M 5.7422,0 C 5.5781,5.5781 5.5781,11.4853 6.8906,16.7363 5.7422,15.7519 4.4297,14.4394 3.2812,13.4541 2.1328,14.6035 1.1484,15.916 0,17.0644 1.1484,11.1572 3.1172,5.414 5.7422,0 Z"
         id="path14"
         inkscape:connector-curvature="0" />
    </g>
    <g
       transform="matrix(1.25,0,0,1.25,450.67111,398.84485)"
       id="g16"
       style="fill:#d2153a;fill-rule:evenodd;stroke:none;stroke-width:1;stroke-linecap:butt;stroke-linejoin:miter;stroke-dasharray:none">
      <path
         d="m 6.235,14.9317 c 0,0 0.328,1.4765 0.328,1.4765 0,0 -2.79,-1.9697 -2.79,-1.9697 C 2.461,14.9317 1.312,15.752 0,16.4082 0.984,11.1573 1.148,5.5782 0.82,0 3.281,4.7579 4.758,9.8448 6.235,14.9317 Z"
         id="path18"
         inkscape:connector-curvature="0" />
    </g>
    <g
       transform="matrix(1.25,0,0,1.25,348.94011,482.52698)"
       id="g20"
       style="fill:#d2153a;fill-rule:evenodd;stroke:none;stroke-width:1;stroke-linecap:butt;stroke-linejoin:miter;stroke-dasharray:none">
      <path
         d="m 18.706,0 c 2.9532,4.593 8.5318,5.906 13.4538,4.593 1.969,-0.328 3.775,-1.148 5.415,-1.804 -1.476,4.758 -2.625,10.173 -2.462,15.588 0,4.757 0.822,9.352 2.134,13.618 -0.656,-0.328 -1.312,-0.821 -2.134,-1.149 C 24.9404,25.76 10.8301,25.924 0.8203,31.174 1.3134,29.534 1.8056,27.893 2.1338,26.253 3.7744,18.541 2.6259,10.501 0,3.609 5.415,5.906 13.1269,6.398 17.5566,1.312 18.0498,0.984 18.2138,0.492 18.706,0 Z"
         id="path22"
         inkscape:connector-curvature="0" />
    </g>
    <g
       transform="matrix(1.25,0,0,1.25,332.73773,487.24323)"
       id="g24"
       style="fill:#d2153a;fill-rule:evenodd;stroke:none;stroke-width:1;stroke-linecap:butt;stroke-linejoin:miter;stroke-dasharray:none">
      <path
         d="M 9.1884,0 C 8.8603,2.297 8.2041,4.595 5.9072,5.415 4.1025,5.907 2.2968,4.922 1.1484,3.61 0.6562,2.953 0.164,2.297 0,1.477 2.789,3.281 6.5634,1.805 9.0244,0 c 0,0 0.164,0 0.164,0 z"
         id="path26"
         inkscape:connector-curvature="0" />
    </g>
    <g
       transform="matrix(1.25,0,0,1.25,400.62611,487.65323)"
       id="g28"
       style="fill:#d2153a;fill-rule:evenodd;stroke:none;stroke-width:1;stroke-linecap:butt;stroke-linejoin:miter;stroke-dasharray:none">
      <path
         d="M 9.024,0 C 8.368,1.969 6.727,3.939 4.595,4.267 3.118,4.594 1.805,3.774 0.821,2.461 0.328,1.805 0.164,0.985 0,0.164 2.462,2.133 6.399,1.641 9.024,0 Z"
         id="path30"
         inkscape:connector-curvature="0" />
    </g>
    <g
       transform="matrix(1.25,0,0,1.25,395.08861,489.90948)"
       id="g32"
       style="fill:#d2153a;fill-rule:evenodd;stroke:none;stroke-width:1;stroke-linecap:butt;stroke-linejoin:miter;stroke-dasharray:none">
      <path
         d="m 7.876,3.774 c 0.984,0.164 2.133,0 3.117,-0.328 C 8.204,10.502 4.758,17.392 1.149,24.284 0,20.839 0.164,17.064 0.492,13.291 0.984,8.696 2.133,4.267 3.445,0 4.266,1.805 5.906,3.446 7.876,3.774 Z"
         id="path34"
         inkscape:connector-curvature="0" />
    </g>
    <g
       transform="matrix(1.25,0,0,1.25,335.19861,489.70448)"
       id="g36"
       style="fill:#d2153a;fill-rule:evenodd;stroke:none;stroke-width:1;stroke-linecap:butt;stroke-linejoin:miter;stroke-dasharray:none">
      <path
         d="M 10.8291,24.448 C 6.5635,17.885 3.2822,10.994 0,3.938 1.4766,4.595 3.7744,5.251 5.251,4.102 6.7275,3.118 7.5479,1.641 8.04,0 c 3.6104,7.056 4.4307,16.408 2.7891,24.448 z"
         id="path38"
         inkscape:connector-curvature="0" />
    </g>
    <g
       transform="matrix(1.25,0,0,1.25,345.45373,515.34323)"
       id="g40"
       style="fill:#d2153a;fill-rule:evenodd;stroke:none;stroke-width:1;stroke-linecap:butt;stroke-linejoin:miter;stroke-dasharray:none">
      <path
         d="m 43.1529,9.516 c -0.82,6.071 -2.953,11.486 -6.891,16.244 C 27.4014,29.37 15.2598,29.698 6.3994,25.924 1.9688,21.002 0.3281,14.93 0,8.368 9.5166,1.476 24.4483,0 35.2769,4.921 c 2.79,1.313 5.415,2.625 7.876,4.595 z"
         id="path42"
         inkscape:connector-curvature="0" />
    </g>
    <g
       transform="matrix(1.25,0,0,1.25,293.97298,433.50673)"
       id="g44"
       style="fill:#d2153a;fill-rule:evenodd;stroke:none;stroke-width:1;stroke-linecap:butt;stroke-linejoin:miter;stroke-dasharray:none">
      <path
         d="M 121.091,25.5972 C 113.71,22.6432 104.028,21.0022 95.9885,20.8382 95.1675,11.6495 94.1825,6.0713 92.3775,0.9844 88.2765,0.6563 69.5713,0 62.5157,0 55.2959,0 37.083,1.1485 32.8164,1.3125 31.1758,6.2354 29.2071,12.3057 28.3868,21.3312 20.1827,21.8222 9.0245,24.1202 1.6416,26.9092 0.4922,27.4012 0,27.7292 0,27.7292 c 1.1485,1.313 5.251,6.236 12.9629,6.4 2.461,0 7.0557,-0.328 10.1729,-1.641 0.8203,-0.492 2.4609,-1.148 2.4609,-1.148 0,0 0.4922,0.984 0.8203,1.804 0.8203,2.297 1.8057,5.578 2.4619,7.056 1.1485,2.133 2.7891,3.773 5.7422,3.938 2.4619,0 4.2666,-2.133 4.5948,-2.461 -7.2198,-0.493 -10.1729,-4.267 -10.6651,-10.173 -1.8047,-0.328 -2.2978,-0.492 -2.4619,-1.314 -0.1641,-0.984 0.1641,-1.968 0.8213,-3.117 0.8203,-0.984 2.1328,-2.133 5.5781,-0.984 2.2969,0.656 4.1026,2.133 5.251,3.281 1.6406,1.313 5.9072,5.743 8.5322,7.384 2.7891,1.64 8.0401,3.118 11.4854,-0.328 3.4463,-3.282 3.7734,-6.072 4.2666,-7.712 -5.9072,-0.164 -11.3223,-0.821 -16.4082,-1.477 -1.4776,-0.164 -0.8213,-1.64 0.3281,-1.312 0,0 9.5166,1.312 16.2441,1.312 0,-0.82 0,-2.133 0,-3.609 -3.9384,-0.164 -10.5019,-0.492 -16.7363,-1.806 -1.3135,-0.327 -1.1484,-1.805 0.1641,-1.476 0.8203,0.328 11.1572,1.805 16.7363,1.805 0,-1.313 0,-2.954 0,-4.595 -3.6103,0.165 -9.0244,-0.328 -16.5723,-1.476 -1.3125,-0.164 -1.1484,-1.3126 0,-1.3126 0,0 9.5166,1.4766 16.5723,1.3126 0,-0.9845 0,-2.297 0,-3.6104 0,-1.3125 1.1484,-1.4766 1.1484,0 0,0.4931 0.1641,1.8056 0.1641,3.6104 6.7274,-0.164 12.7974,-0.9845 15.5874,-1.4766 1.641,-0.3282 1.477,0.9843 0.657,1.1486 -0.985,0.164 -8.861,1.64 -16.4085,1.804 0,1.313 0.1641,3.118 0.1641,4.43 5.0859,-0.164 10.8294,-0.328 15.9164,-1.476 1.804,-0.329 1.968,1.148 0.328,1.312 -4.923,0.821 -11.9788,1.642 -16.2444,1.806 0,1.148 0,2.625 0.1641,3.609 8.0403,-0.164 15.5883,-1.312 16.9003,-1.476 1.313,-0.329 1.641,1.148 0.164,1.312 -1.312,0.164 -10.83,1.477 -16.9003,1.477 0.6563,2.133 0.6563,5.087 3.6094,7.547 2.9539,2.461 7.7119,2.297 11.1579,0.329 2.625,-1.477 6.727,-6.072 8.204,-7.384 1.313,-1.149 4.266,-3.774 8.204,-3.774 3.774,0 3.938,2.133 4.102,2.625 0.164,0.657 0.328,1.806 -0.492,2.297 -0.656,0.493 -1.313,0.329 -1.969,0.657 -0.492,3.118 -1.476,6.727 -4.102,8.697 -2.625,1.969 -6.892,2.297 -6.892,2.297 0,0 0.656,0.656 0.82,0.82 0.329,0.328 1.806,1.148 3.775,0.984 1.64,-0.164 3.773,-1.476 4.593,-2.461 1.314,-1.64 2.462,-5.251 3.447,-7.547 0.328,-0.821 1.148,-2.297 1.312,-2.954 0.8215,0.329 1.1495,0.493 2.6255,1.149 3.118,1.148 7.055,1.64 9.517,1.64 3.937,-0.164 8.532,-2.625 11.322,-5.086 0.492,-0.493 1.312,-1.641 1.312,-1.641 0,0 -2.625,-0.984 -3.447,-1.148 z"
         id="path46"
         inkscape:connector-curvature="0" />
    </g>
    <g
       transform="matrix(1.25,0,0,1.25,375.80898,524.36573)"
       id="g48"
       style="fill:#1c2524;fill-rule:evenodd;stroke:none;stroke-width:1;stroke-linecap:butt;stroke-linejoin:miter;stroke-dasharray:none">
      <path
         d="m 12.4707,3.119 c 0.656,1.476 0.163,3.117 -0.657,4.265 C 10.1727,9.19 7.8757,10.01 5.5787,9.353 4.2656,9.026 2.9531,8.205 2.1328,6.728 1.6406,7.876 2.625,8.862 2.4609,9.846 2.2969,10.174 1.9687,10.174 1.8047,10.01 0.4922,8.205 0,5.579 1.1484,3.611 2.625,1.15 5.2497,0 8.2037,0.328 c 1.641,0.33 3.446,1.15 4.267,2.791 z"
         id="path50"
         inkscape:connector-curvature="0" />
    </g>
    <g
       transform="matrix(1.25,0,0,1.25,352.01748,524.77573)"
       id="g52"
       style="fill:#1c2524;fill-rule:evenodd;stroke:none;stroke-width:1;stroke-linecap:butt;stroke-linejoin:miter;stroke-dasharray:none">
      <path
         d="m 11.6494,3.775 c 1.1484,1.805 0.6563,4.43 -0.4922,6.071 -0.164,0.328 -0.3281,0.656 -0.6562,0.328 C 10.0088,9.682 10.665,9.19 10.665,8.534 10.8291,8.041 10.9932,7.548 10.8291,7.056 9.1885,9.19 6.8916,10.174 4.4297,9.682 2.625,9.354 0.9844,8.041 0.3281,6.236 0,5.087 0.164,3.775 0.8203,2.791 2.4609,0.658 5.5781,0 8.2041,0.986 c 1.3125,0.328 2.7891,1.476 3.4453,2.789 z"
         id="path54"
         inkscape:connector-curvature="0" />
    </g>
    <g
       transform="matrix(1.25,0,0,1.25,353.24798,539.54448)"
       id="g56"
       style="fill:#1c2524;fill-rule:evenodd;stroke:none;stroke-width:1;stroke-linecap:butt;stroke-linejoin:miter;stroke-dasharray:none">
      <path
         d="m 30.3555,4.431 c -0.165,0.327 -0.329,0.327 -0.657,0.82 C 28.8775,4.922 27.8935,4.594 26.9095,4.266 18.705,0.984 8.2041,1.969 0.4921,5.251 0.3281,4.922 0.164,4.758 0,4.431 9.0244,0.492 21.33,0 30.3555,4.431 Z"
         id="path58"
         inkscape:connector-curvature="0" />
    </g>
    <g
       transform="matrix(1.25,0,0,1.25,353.04286,490.11448)"
       id="g60"
       style="fill:#1c2524;fill-rule:evenodd;stroke:none;stroke-width:1;stroke-linecap:butt;stroke-linejoin:miter;stroke-dasharray:none">
      <path
         d="M 31.9956,0.328 C 30.5196,6.892 26.4166,14.275 19.6895,16.08 14.2744,17.557 8.04,16.408 4.4297,11.978 1.8047,8.696 0.4922,4.759 0,0.492 0.3281,0.328 0.6562,0.328 0.9844,0.328 c 0.4922,6.071 3.7734,12.963 9.8447,14.932 5.251,1.64 11.6494,0 15.4235,-4.594 2.461,-3.118 4.102,-6.892 4.922,-10.666 0.329,0 0.493,0 0.821,0.328 z"
         id="path62"
         inkscape:connector-curvature="0" />
    </g>
    <g
       transform="matrix(1.25,0,0,1.25,275.10461,346.74898)"
       id="g64"
       style="fill:#1c2524;fill-rule:evenodd;stroke:none;stroke-width:1;stroke-linecap:butt;stroke-linejoin:miter;stroke-dasharray:none">
      <path
         d="M 13.6182,1.8047 C 12.4697,0.6562 10.6651,0 8.8594,0 7.0547,0.164 0,2.4609 0,12.9619 c 0,10.3379 6.3985,13.7832 10.1729,13.7832 3.7734,0 7.5478,-2.9531 8.8603,-8.04 0.1641,-0.6563 0,-0.8203 -0.6562,-1.1485 0,0 -2.461,-0.9843 -2.461,-0.9843 -0.6572,-0.1641 -0.6572,-0.1641 -0.9853,0.8203 -0.3281,0.6562 -1.3125,3.7734 -3.9375,3.7734 -2.461,0 -3.6104,-3.7734 -3.6104,-7.7119 0,-3.9375 0.6563,-7.5479 3.7744,-7.5479 3.2813,0 3.7735,3.2823 4.1016,4.5948 0,0.4922 0.1641,0.4922 0.6572,0.4922 0,0 2.2969,0 2.2969,0 0.4922,0 0.4922,0 0.4922,-1.1485 0,0 0,-8.3682 0,-8.3682 0,-0.6562 0,-0.6562 -0.9844,-0.6562 0,0 -1.9697,0 -1.9697,0 -0.4922,0 -0.4922,0.1641 -0.8203,0.6562 -0.1641,0.4922 -0.6563,0.8204 -1.3125,0.3282 z"
         id="path66"
         inkscape:connector-curvature="0" />
    </g>
    <g
       transform="matrix(1.25,0,0,1.25,388.11486,347.77435)"
       id="g68"
       style="fill:#1c2524;fill-rule:evenodd;stroke:none;stroke-width:1;stroke-linecap:butt;stroke-linejoin:miter;stroke-dasharray:none">
      <path
         d="m 16.9,5.0859 c 0,0 4.759,15.0957 4.759,15.0957 0.164,0.6563 0.164,0.6563 0.492,0.6563 0,0 0.821,0 0.821,0 0.82,0 0.82,0 0.82,0.6572 0,0 0,2.9531 0,2.9531 0,0.8204 0,0.9844 -0.656,0.9844 0,0 -9.353,0 -9.353,0 -0.82,0 -0.82,-0.164 -0.82,-0.6562 0,0 0,-2.9541 0,-2.9541 0,-0.9844 0.164,-0.9844 0.656,-0.9844 0,0 0.985,0 0.985,0 0.492,0 0.492,0 0.328,-0.6563 0,0 -0.821,-2.2968 -0.821,-2.2968 -0.164,-0.4922 -0.328,-0.4922 -0.82,-0.4922 0,0 -5.743,0 -5.743,0 0,0 1.148,-3.4453 1.148,-3.4453 0,0 3.446,0 3.611,0 0.492,0 0.656,0 0.492,-0.4932 0,0 -2.134,-6.5625 -2.134,-6.5625 -0.164,-0.4922 -0.328,-0.4922 -0.492,0 0,0 -2.133,6.5625 -2.133,6.5625 0,0.4932 0,0.4932 0.656,0.4932 0,0 -1.148,3.4453 -1.148,3.4453 -0.656,0 -0.656,0 -0.82,0.4922 0,0 -0.821,2.2968 -0.821,2.2968 -0.164,0.6563 -0.164,0.6563 0.328,0.6563 0,0 0.985,0 0.985,0 0.656,0 0.656,0.1641 0.656,0.9844 0,0 0,2.9541 0,2.9541 0,0.4922 0,0.6562 -0.82,0.6562 0,0 -6.564,0 -6.564,0 C 0,25.4326 0,25.2686 0,24.4482 c 0,0 0,-2.9531 0,-2.9531 0,-0.6572 0,-0.6572 0.82,-0.6572 0,0 0.657,0 0.657,0 0.328,0 0.492,-0.1641 0.656,-0.4922 0,0 4.759,-15.2598 4.759,-15.2598 0.164,-0.3271 0.164,-0.4912 -0.493,-0.4912 0,0 -0.984,0 -0.984,0 -0.656,0 -0.82,0 -0.82,-0.6572 0,0 0,-2.9531 0,-2.9531 C 4.595,0 4.759,0 5.743,0 c 0,0 12.634,0 12.634,0 0.656,0 0.656,0.1641 0.656,0.9844 0,0 0,2.789 0,2.789 0,0.6563 0,0.6563 -0.984,0.6563 0,0 -0.985,0 -0.985,0 -0.328,0 -0.328,0.165 -0.164,0.6562 z"
         id="path70"
         inkscape:connector-curvature="0" />
    </g>
    <g
       transform="matrix(1.25,0,0,1.25,422.16111,346.74898)"
       id="g72"
       style="fill:#1c2524;fill-rule:evenodd;stroke:none;stroke-width:1;stroke-linecap:butt;stroke-linejoin:miter;stroke-dasharray:none">
      <path
         d="m 12.307,17.2285 c 0,0 1.641,0 1.641,0 0.82,0 0.82,0.1641 0.82,0.6563 0,1.3125 -1.149,3.2812 -3.774,3.2812 -2.626,0 -3.61,-3.7734 -3.61,-7.7119 0,-3.9375 0.656,-7.5479 3.775,-7.5479 2.625,0 3.609,1.8057 3.937,3.1182 0.164,0.4922 0.164,0.4922 0.82,0.4922 0,0 2.297,0 2.297,0 0.493,0 0.493,0 0.493,-1.1484 0,0 0,-6.8917 0,-6.8917 0,-0.6562 -0.165,-0.6562 -1.149,-0.6562 0,0 -1.969,0 -1.969,0 -0.492,0 -0.492,0.1641 -0.656,0.6562 -0.164,0.4922 -0.82,0.8204 -1.477,0.3282 C 12.307,0.6562 10.502,0 8.861,0 6.892,0.164 0,2.4609 0,12.9619 c 0,10.3379 6.236,13.7832 10.009,13.7832 5.743,0 10.174,-4.4297 10.174,-12.6348 0,-0.8203 0,-0.8203 -1.148,-0.8203 0,0 -6.892,0 -6.892,0 -0.656,0 -0.656,0 -0.656,0.6573 0,0 0,2.789 0,2.789 0,0.4922 0,0.4922 0.82,0.4922 z"
         id="path74"
         inkscape:connector-curvature="0" />
    </g>
    <g
       transform="matrix(1.25,0,0,1.25,451.08111,347.77435)"
       id="g76"
       style="fill:#1c2524;fill-rule:evenodd;stroke:none;stroke-width:1;stroke-linecap:butt;stroke-linejoin:miter;stroke-dasharray:none">
      <path
         d="M 11.321,0 C 5.087,0 0,5.7432 0,12.9629 c 0,7.2187 5.087,12.9619 11.321,12.9619 6.072,0 11.159,-5.7432 11.159,-12.9619 C 22.48,5.7432 17.393,0 11.321,0 c 0,0 -0.164,4.5947 -0.164,4.5947 2.298,0 4.267,3.7735 4.267,8.3682 0,4.5937 -1.969,8.3682 -4.267,8.3682 -2.297,0 -4.101,-3.7745 -4.101,-8.3682 0,-4.5947 1.804,-8.3682 4.101,-8.3682 0,0 0.164,-4.5947 0.164,-4.5947 z"
         id="path78"
         inkscape:connector-curvature="0" />
    </g>
    <g
       transform="matrix(1.25,0,0,1.25,305.04848,347.77435)"
       id="g80"
       style="fill:#1c2524;fill-rule:evenodd;stroke:none;stroke-width:1;stroke-linecap:butt;stroke-linejoin:miter;stroke-dasharray:none">
      <path
         d="m 2.1338,20.3457 c 0,0 0,-15.0957 0,-15.0957 0,-0.4912 -0.1641,-0.6553 -0.6563,-0.6553 0,0 -0.6572,0 -0.6572,0 C 0,4.5947 0,4.5947 0,4.1016 0,4.1016 0,0.6562 0,0.6562 0,0.1641 0,0 0.8203,0 c 0,0 8.8613,0 8.8613,0 0.6563,0 0.8203,0.1641 0.8203,0.8203 0,0 0,2.9531 0,2.9531 0,0.6563 0,0.6563 -0.8203,0.6563 0,0 -0.4931,0 -0.4931,0 -0.3282,0 -0.3282,0 -0.3282,0.6562 0,0 0,4.2666 0,4.2666 0,1.1485 0,1.1485 0.8213,1.1485 0,0 4.7578,0 4.7578,0 0.9844,0 0.9844,0 0.9844,-1.1485 0,0 0,-4.2666 0,-4.2666 0,-0.6562 -0.164,-0.6562 -0.4922,-0.6562 0,0 -0.4922,0 -0.4922,0 -0.8203,0 -0.8203,0 -0.8203,-0.6563 0,0 0,-2.9531 0,-2.9531 C 13.6191,0.1641 13.7832,0 14.4394,0 c 0,0 8.8604,0 8.8604,0 0.9844,0 0.9844,0.1641 0.9844,0.6562 0,0 0,3.4454 0,3.4454 0,0.4931 -0.1641,0.4931 -0.8203,0.4931 0,0 -0.8204,0 -0.8204,0 -0.4921,0 -0.4921,0 -0.4921,0.6553 0,0 0,15.0957 0,15.0957 0,0.4922 0,0.4922 0.6562,0.4922 0,0 0.8203,0 0.8203,0 0.6563,0 0.6563,0 0.6563,0.9844 0,0 0,2.9541 0,2.9541 0,0.4922 0,0.6562 -0.8203,0.6562 0,0 -9.3526,0 -9.3526,0 -0.6562,0 -0.6562,0 -0.6562,-0.9844 0,0 0,-2.9531 0,-2.9531 0,-0.6572 0,-0.6572 0.8203,-0.6572 0,0 0.4922,0 0.4922,0 0.4922,0 0.4922,0 0.4922,-0.6563 0,0 0,-4.5937 0,-4.5937 0,-1.1484 0,-1.1484 -0.8204,-1.1484 0,0 -4.7578,0 -4.7578,0 -0.6572,0 -0.8213,0.164 -0.8213,1.1484 0,0 0,4.5937 0,4.5937 0,0.6563 0,0.6563 0.6573,0.6563 0,0 0.3271,0 0.3271,0 0.8213,0 0.8213,0 0.8213,0.6572 0,0 0,2.9531 0,2.9531 0,0.8204 0,0.9844 -0.6572,0.9844 0,0 -9.1885,0 -9.1885,0 C 0,25.4326 0,25.4326 0,24.7764 c 0,0 0,-2.9541 0,-2.9541 0,-0.9844 0,-0.9844 0.6562,-0.9844 0,0 0.6573,0 0.6573,0 0.8203,0 0.8203,0 0.8203,-0.4922 z"
         id="path82"
         inkscape:connector-curvature="0" />
    </g>
    <g
       transform="matrix(1.25,0,0,1.25,340.94198,347.77435)"
       id="g84"
       style="fill:#1c2524;fill-rule:evenodd;stroke:none;stroke-width:1;stroke-linecap:butt;stroke-linejoin:miter;stroke-dasharray:none">
      <path
         d="m 2.1328,5.0859 c 0,-0.6562 0,-0.6562 -0.3281,-0.6562 0,0 -0.9844,0 -0.9844,0 C 0.1641,4.4297 0,4.4297 0,3.7734 0,3.7734 0,0.8203 0,0.8203 0,0.1641 0.1641,0 0.8203,0 c 0,0 8.8604,0 8.8604,0 0.9844,0 0.9844,0.1641 0.9844,0.6562 0,0 0,3.4454 0,3.4454 0,0.4931 0,0.4931 -0.8203,0.4931 0,0 -0.3282,0 -0.3282,0 -0.6562,0 -0.6562,0 -0.6562,0.6553 0,0 0,15.0957 0,15.0957 0,0.4922 0,0.4922 0.6562,0.4922 0,0 0.6563,0 0.6563,0 0.6562,0 0.6562,0 0.6562,0.9844 0,0 0,2.9541 0,2.9541 0,0.4922 0,0.6562 -0.8203,0.6562 0,0 -9.3525,0 -9.3525,0 -0.4922,0 -0.6563,0 -0.6563,-0.9844 0,0 0,-2.9531 0,-2.9531 0,-0.6572 0,-0.6572 0.8203,-0.6572 0,0 0.8204,0 0.8204,0 0.4921,0 0.4921,0 0.4921,-0.6563 0,0 0,-15.0957 0,-15.0957 z"
         id="path86"
         inkscape:connector-curvature="0" />
    </g>
    <g
       transform="matrix(1.25,0,0,1.25,358.78624,346.74898)"
       id="g88"
       style="fill:#1c2524;fill-rule:evenodd;stroke:none;stroke-width:1;stroke-linecap:butt;stroke-linejoin:miter;stroke-dasharray:none">
      <path
         d="M 13.4541,1.8047 C 12.3057,0.6562 10.6651,0 8.8594,0 7.0547,0.164 0,2.4609 0,12.9619 c 0,10.3379 6.2344,13.7832 10.0088,13.7832 3.9375,0 7.7119,-2.9531 8.8591,-8.04 0.329,-0.6563 0.165,-0.8203 -0.656,-1.1485 0,0 -2.4609,-0.9843 -2.4609,-0.9843 -0.4922,-0.1641 -0.4922,-0.1641 -0.9844,0.8203 -0.164,0.6562 -1.3125,3.7734 -3.7734,3.7734 -2.625,0 -3.6104,-3.7734 -3.6104,-7.7119 0,-3.9375 0.6563,-7.5479 3.7745,-7.5479 3.1171,0 3.7734,3.2823 3.9375,4.5948 0.164,0.4922 0.164,0.4922 0.8203,0.4922 0,0 2.2968,0 2.2968,0 0.493,0 0.493,0 0.493,-1.1485 0,0 0,-8.3682 0,-8.3682 0,-0.6562 -0.164,-0.6562 -0.9842,-0.6562 0,0 -2.1338,0 -2.1338,0 -0.3281,0 -0.3281,0.1641 -0.6562,0.6562 -0.1641,0.4922 -0.6563,0.8204 -1.4766,0.3282 z"
         id="path90"
         inkscape:connector-curvature="0" />
    </g>
    <g
       transform="matrix(1.25,0,0,1.25,303.20273,387.76948)"
       id="g92"
       style="fill:#1c2524;fill-rule:evenodd;stroke:none;stroke-width:1;stroke-linecap:butt;stroke-linejoin:miter;stroke-dasharray:none">
      <path
         d="m 2.1328,5.25 c 0,0 0,14.9316 0,14.9316 0,0.4922 -0.164,0.6563 -0.6562,0.6563 0,0 -0.8203,0 -0.8203,0 -0.4922,0 -0.6563,0 -0.6563,0.6562 0,0 0,3.1182 0,3.1182 0,0.6562 0.1641,0.6562 0.8203,0.6562 0,0 13.7832,0 13.7832,0 0,0 -4.7587,-4.7587 -4.7587,-4.7587 -0.8204,0 -0.9844,0 -0.9844,-0.9844 0,0 0,-4.2656 0,-4.2656 0,-0.8213 0.164,-0.9854 0.9844,-0.9854 0,0 0,-3.7734 0,-3.7734 -0.9844,0 -0.9844,-0.1641 -0.9844,-0.9844 0,0 0,-4.2666 0,-4.2666 0,-0.9844 0,-0.9844 0.9844,-0.9844 0.8203,0 4.4306,0.1641 4.4306,3.2813 0,2.9541 -3.2812,2.9541 -4.4306,2.9541 0,0 0,3.7734 0,3.7734 0.9843,0 4.4306,0.1641 4.4306,3.2822 0,3.1172 -3.2812,2.9532 -4.4306,2.9532 0,0 4.7587,4.7587 4.7587,4.7587 3.4454,0 5.9073,-3.1181 5.9073,-6.5634 0,-3.6104 -2.1338,-4.9229 -3.9385,-6.2354 1.1484,-1.1484 3.4463,-2.4609 3.4463,-6.0713 C 20.0186,2.4609 16.0801,0 13.7832,0 13.7832,0 1.1485,0 1.1485,0 0.1641,0 0,0 0,0.8203 c 0,0 0,3.1172 0,3.1172 0,0.4922 0,0.6562 0.8203,0.6562 0,0 0.8204,0 0.8204,0 0.4921,0 0.4921,0 0.4921,0.6563 z"
         id="path94"
         inkscape:connector-curvature="0" />
    </g>
    <g
       transform="matrix(1.25,0,0,1.25,333.35286,387.76948)"
       id="g96"
       style="fill:#1c2524;fill-rule:evenodd;stroke:none;stroke-width:1;stroke-linecap:butt;stroke-linejoin:miter;stroke-dasharray:none">
      <path
         d="m 19.8536,5.0859 c 0,0 0,12.9629 0,12.9629 0,3.2813 -1.6407,8.0401 -8.2041,8.0401 -6.3985,0 -9.5166,-4.7588 -9.5166,-8.0401 0,0 0,-12.9629 0,-12.9629 0,-0.4922 -0.1641,-0.4922 -0.6563,-0.4922 0,0 -0.8203,0 -0.8203,0 C 0,4.5937 0,4.4297 0,3.7734 c 0,0 0,-2.789 0,-2.789 C 0,0 0,0 0.9844,0 c 0,0 8.6963,0 8.6963,0 0.6563,0 0.8203,0 0.8203,0.8203 0,0 0,2.9531 0,2.9531 0,0.6563 0,0.6563 -0.9844,0.6563 0,0 -0.6562,0 -0.6562,0 -0.4922,0 -0.4922,0 -0.4922,0.4922 0,0 0,12.6347 0,12.6347 0,1.3125 1.1484,3.6094 3.7744,3.6094 3.2813,0 3.9375,-2.4609 3.9375,-3.6094 0,0 0,-12.4707 0,-12.4707 0,-0.6562 -0.164,-0.6562 -0.6562,-0.6562 0,0 -0.6563,0 -0.6563,0 -0.8203,0 -0.8203,0 -0.8203,-0.6563 0,0 0,-2.9531 0,-2.9531 C 13.9473,0 13.9473,0 14.6036,0 c 0,0 6.5634,0 6.5634,0 1.1485,0 1.1485,0 1.1485,0.8203 0,0 0,2.9531 0,2.9531 0,0.6563 0,0.8203 -0.8203,0.8203 0,0 -0.9854,0 -0.9854,0 -0.4922,0 -0.6562,0 -0.6562,0.4922 z"
         id="path98"
         inkscape:connector-curvature="0" />
    </g>
    <g
       transform="matrix(1.25,0,0,1.25,394.67861,387.76948)"
       id="g100"
       style="fill:#1c2524;fill-rule:evenodd;stroke:none;stroke-width:1;stroke-linecap:butt;stroke-linejoin:miter;stroke-dasharray:none">
      <path
         d="m 1.477,20.8379 c 0,0 -0.821,0 -0.821,0 -0.656,0 -0.656,0 -0.656,0.8203 0,0 0,2.9541 0,2.9541 0,0.6562 0,0.6562 0.656,0.6562 0,0 16.244,0 16.244,0 0.657,0 0.821,0 0.821,-0.9853 0,0 0,-7.2188 0,-7.2188 0,-0.6562 0,-0.8203 -0.821,-0.8203 0,0 -2.297,0 -2.297,0 -0.821,0 -0.821,0.1641 -0.821,0.9844 0,0 0,2.625 0,2.625 0,0.9844 0,0.9844 -0.82,0.9844 0,0 -3.445,0 -3.445,0 -1.149,0 -1.149,-0.1641 -1.149,-0.8203 0,0 0,-14.6035 0,-14.6035 0,-0.9844 0,-0.9844 0.492,-0.9844 0,0 0.985,0 0.985,0 0.656,0 0.656,-0.1641 0.656,-0.6563 0,0 0,-2.9531 0,-2.9531 C 10.501,0 10.501,0 9.681,0 9.681,0 0.984,0 0.984,0 0,0 0,0 0,0.8203 c 0,0 0,2.9531 0,2.9531 0,0.6563 0,0.8203 0.656,0.8203 0,0 0.821,0 0.821,0 0.492,0 0.656,0 0.656,0.8204 0,0 0,14.6035 0,14.6035 0,0.6562 -0.164,0.8203 -0.656,0.8203 z"
         id="path102"
         inkscape:connector-curvature="0" />
    </g>
    <g
       transform="matrix(1.25,0,0,1.25,422.57236,386.9491)"
       id="g104"
       style="fill:#1c2524;fill-rule:evenodd;stroke:none;stroke-width:1;stroke-linecap:butt;stroke-linejoin:miter;stroke-dasharray:none">
      <path
         d="m 16.736,18.8692 c 0,5.415 -5.086,7.7119 -7.22,7.7119 -1.641,0 -3.445,-0.6563 -4.594,-1.6416 -0.82,-0.6553 -1.476,0 -1.64,0.3291 -0.493,0.6562 -0.493,0.6562 -0.821,0.6562 0,0 -0.984,0 -0.984,0 -1.149,0 -1.149,0 -1.149,-0.4921 0,0 0,-7.0557 0,-7.0557 0,-0.9844 0.164,-0.9844 0.493,-0.9844 0,0 1.64,0 1.64,0 0.657,0 0.657,0 0.821,0.4922 0.328,1.4766 1.968,3.4453 4.429,3.4453 1.313,0 2.298,-0.3281 2.298,-1.4765 0,-2.2969 -1.313,-2.7891 -3.774,-4.1026 C 3.774,14.4385 0,12.962 0,7.5479 0,2.2969 4.922,0 7.055,0 c 1.641,0 3.282,0.6563 4.431,1.6407 0.82,0.6562 1.476,0 1.64,-0.3282 0.329,-0.8203 0.329,-0.8203 0.657,-0.8203 0,0 1.148,0 1.148,0 0.984,0 0.984,0 0.984,0.6563 0,0 0,6.8906 0,6.8906 0,1.1494 0,1.1494 -0.492,1.1494 0,0 -1.476,0 -1.476,0 -0.657,0 -0.657,0 -0.821,-0.4922 C 12.634,7.2188 10.994,5.25 8.368,5.25 c -1.149,0 -1.805,0.6563 -1.805,1.6407 0,1.4775 1.641,2.79 4.595,4.1025 2.789,1.3125 5.578,3.4453 5.578,7.876 z"
         id="path106"
         inkscape:connector-curvature="0" />
    </g>
    <g
       transform="matrix(1.25,0,0,1.25,366.57924,387.76948)"
       id="g108"
       style="fill:#1c2524;fill-rule:evenodd;stroke:none;stroke-width:1;stroke-linecap:butt;stroke-linejoin:miter;stroke-dasharray:none">
      <path
         d="m 1.4766,20.8379 c 0,0 -0.8203,0 -0.8203,0 C 0,20.8379 0,20.8379 0,21.6582 c 0,0 0,2.9541 0,2.9541 0,0.6562 0,0.6562 0.6563,0.6562 0,0 16.2442,0 16.2442,0 0.656,0 0.82,0 0.82,-0.9853 0,0 0,-7.2188 0,-7.2188 0,-0.6562 0,-0.8203 -0.82,-0.8203 0,0 -2.297,0 -2.297,0 -0.82,0 -0.82,0.1641 -0.82,0.9844 0,0 0,2.625 0,2.625 0,0.9844 0,0.9844 -0.821,0.9844 0,0 -3.4459,0 -3.4459,0 -1.1484,0 -1.1484,-0.1641 -1.1484,-0.8203 0,0 0,-14.6035 0,-14.6035 0,-0.9844 0,-0.9844 0.4922,-0.9844 0,0 0.9843,0 0.9843,0 0.6563,0 0.6563,-0.1641 0.6563,-0.6563 0,0 0,-2.9531 0,-2.9531 C 10.501,0 10.501,0 9.6807,0 9.6807,0 0.9844,0 0.9844,0 0,0 0,0 0,0.8203 c 0,0 0,2.9531 0,2.9531 0,0.6563 0,0.8203 0.6563,0.8203 0,0 0.8203,0 0.8203,0 0.4922,0 0.6572,0 0.6572,0.8204 0,0 0,14.6035 0,14.6035 0,0.6562 -0.165,0.8203 -0.6572,0.8203 z"
         id="path110"
         inkscape:connector-curvature="0" />
    </g>
    <g
       transform="matrix(1.25,0,0,1.25,283.51286,418.32973)"
       id="g112"
       style="fill:#ffffff;fill-rule:evenodd;stroke:none;stroke-width:1;stroke-linecap:butt;stroke-linejoin:miter;stroke-dasharray:none">
      <path
         d="m 10.0097,5.7422 c 3.4454,6.7276 10.6651,9.0244 17.8848,8.6963 4.1016,0 8.04,-0.4922 11.9775,-0.8203 0,0 0,0.3281 0,0.3281 -1.9687,5.7432 -3.4453,11.6494 -4.2666,17.7205 C 25.1045,31.9948 14.4394,31.1748 6.5635,24.1192 1.3125,18.8692 0,11.4854 1.1484,4.2657 2.4619,2.7891 3.7744,1.4766 4.9228,0 6.7275,1.8047 9.5166,3.2813 10.0097,5.7422 Z"
         id="path114"
         inkscape:connector-curvature="0" />
    </g>
    <g
       transform="matrix(1.25,0,0,1.25,411.08611,418.94498)"
       id="g116"
       style="fill:#ffffff;fill-rule:evenodd;stroke:none;stroke-width:1;stroke-linecap:butt;stroke-linejoin:miter;stroke-dasharray:none">
      <path
         d="M 38.56,2.1328 C 38.888,3.2813 38.888,4.2656 39.052,5.25 39.544,13.4541 36.099,20.8379 29.043,24.9405 21.495,29.5346 12.799,31.1746 3.61,31.3386 3.446,30.5186 3.282,29.3706 3.282,28.5496 2.462,23.1348 1.477,17.7207 0,12.6338 c 9.845,0 21.987,2.625 28.551,-6.5635 0.82,-1.3125 1.64,-2.4609 2.461,-3.7734 C 32.488,1.6406 33.965,0.6563 35.277,0 c 1.149,0.4922 2.134,1.4766 3.283,2.1328 z"
         id="path118"
         inkscape:connector-curvature="0" />
    </g>
    <g
       transform="matrix(1.25,0,0,1.25,402.06111,472.88698)"
       id="g120"
       style="fill:#ffffff;fill-rule:evenodd;stroke:none;stroke-width:1;stroke-linecap:butt;stroke-linejoin:miter;stroke-dasharray:none">
      <path
         d="M 8.204,0 C 8.204,3.117 7.22,6.234 4.431,7.712 3.118,8.368 1.642,8.696 0.164,8.696 0,8.368 0,8.04 0.164,7.712 2.298,7.712 4.595,6.89 5.743,5.086 6.564,3.773 6.892,2.133 6.892,0.492 7.22,0.164 7.712,0 8.204,0 Z"
         id="path122"
         inkscape:connector-curvature="0" />
    </g>
    <g
       transform="matrix(1.25,0,0,1.25,331.30211,473.29698)"
       id="g124"
       style="fill:#ffffff;fill-rule:evenodd;stroke:none;stroke-width:1;stroke-linecap:butt;stroke-linejoin:miter;stroke-dasharray:none">
      <path
         d="m 8.8604,8.04 c -0.4922,0 -0.6563,0.164 -1.4766,0 C 3.7735,8.04 0,5.086 0.1641,0.164 0.6563,0 1.1485,0 1.4766,0.164 c 0,2.789 1.1484,6.726 7.2197,6.726 0.3281,0.657 0,0.657 0.1641,1.15 z"
         id="path126"
         inkscape:connector-curvature="0" />
    </g>
  </g>
</svg>
