<?xml version="1.0" encoding="UTF-8" standalone="no"?>
<!-- Generator: Adobe Illustrator 12.0.0, SVG Export Plug-In . SVG Version: 6.00 Build 51448)  -->

<svg
   xmlns:dc="http://purl.org/dc/elements/1.1/"
   xmlns:cc="http://creativecommons.org/ns#"
   xmlns:rdf="http://www.w3.org/1999/02/22-rdf-syntax-ns#"
   xmlns:svg="http://www.w3.org/2000/svg"
   xmlns="http://www.w3.org/2000/svg"
   xmlns:sodipodi="http://sodipodi.sourceforge.net/DTD/sodipodi-0.dtd"
   xmlns:inkscape="http://www.inkscape.org/namespaces/inkscape"
   version="1.1"
   id="Layer_1"
   width="40"
   height="39.917904"
   viewBox="0 0 40.000001 39.917903"
   overflow="visible"
   enable-background="new 0 0 242.646 242.147"
   xml:space="preserve"
   inkscape:version="0.91 r13725"
   sodipodi:docname="Dallas_Mavericks_resized.svg"
   style="overflow:visible"><metadata
     id="metadata109"><rdf:RDF><cc:Work
         rdf:about=""><dc:format>image/svg+xml</dc:format><dc:type
           rdf:resource="http://purl.org/dc/dcmitype/StillImage" /><dc:title></dc:title></cc:Work></rdf:RDF></metadata><defs
     id="defs107" /><sodipodi:namedview
     pagecolor="#ffffff"
     bordercolor="#666666"
     borderopacity="1"
     objecttolerance="10"
     gridtolerance="10"
     guidetolerance="10"
     inkscape:pageopacity="0"
     inkscape:pageshadow="2"
     inkscape:window-width="826"
     inkscape:window-height="480"
     id="namedview105"
     showgrid="false"
     fit-margin-top="0"
     fit-margin-left="0"
     fit-margin-right="0"
     fit-margin-bottom="0"
     inkscape:zoom="0.97461458"
     inkscape:cx="20.000498"
     inkscape:cy="19.958952"
     inkscape:window-x="0"
     inkscape:window-y="0"
     inkscape:window-maximized="0"
     inkscape:current-layer="Layer_1" /><g
     id="g3"
     transform="scale(0.16484988,0.16484988)"><path
       d="m 18.765,18.214 c 0,0 5.499,66.48 29.991,117.463 0,0 -17.994,-4.996 -39.989,-17.493 l 40.989,104.97 c 0,0 20.993,-12.998 39.987,-14.496 0,0 20.495,26.993 30.491,33.489 9.996,-6.496 28.991,-33.99 28.991,-33.99 18.994,1.5 38.488,13.997 38.488,13.997 l 42.488,-103.97 c -21.994,12.497 -36.489,17.493 -36.489,17.493 21.993,-50.982 29.489,-117.963 29.489,-117.963 l -43.985,12.997 -117.965,0 -42.486,-12.497 0,0 z"
       id="path5"
       inkscape:connector-curvature="0"
       style="clip-rule:evenodd;fill-rule:evenodd" /><path
       d="m 61.251,33.785 118.41,0 c 0,0 32.63,-9.64 39.898,-11.789 -2.143,15.954 -10.406,70.126 -28.672,112.466 l -3.675,8.714 c 0,0 37.811,-12.573 55.433,-21.993 -5.41,13.239 -38.606,90.77 -40.938,96.472 -6.497,-2 -37.071,-11.364 -52.241,-12.563 l -1.765,-0.139 -1.006,1.456 c -4.843,7.008 -18.368,25.396 -26.478,31.938 -9.942,-7.799 -27.837,-31.298 -28.027,-31.549 l -1.016,-1.338 -1.674,0.135 c -14.254,0.063 -49.743,9.561 -53.743,14.06 C 31.527,208.814 3.115,130.163 0,122.185 c 18.518,9.595 54.287,19.736 54.287,19.736 l -3.108,-7.598 C 30.836,91.98 24.018,38.149 22.285,22.455 29.34,24.53 60.81,33.785 60.81,33.785 l 0.441,0 0,0 z"
       id="path7"
       inkscape:connector-curvature="0"
       style="clip-rule:evenodd;fill:#ffffff;fill-rule:evenodd" /><path
       d="m 26.263,27.712 29.991,8.996 127.96,0 29.492,-9.497 c 0,0 -2.5,45.486 -26.993,105.466 -24.491,59.984 -66.979,99.473 -66.979,99.473 0,0 -49.485,-53.984 -68.979,-108.47 C 31.261,69.199 26.263,27.712 26.263,27.712 l 0,0 z"
       id="path9"
       inkscape:connector-curvature="0"
       style="clip-rule:evenodd;fill:#c4ced4;fill-rule:evenodd" /><path
       d="m 7.269,129.181 c 0,0 41.487,18.494 81.475,22.994 39.989,4.497 65.48,0.499 65.48,0.499 0,0 40.488,-5.498 78.477,-23.493 l -35.489,82.975 c 0,0 -25.992,-7.998 -45.487,-9.997 -19.493,-1.997 -50.484,-1.997 -65.479,0 -14.996,1.999 -47.486,10.996 -47.486,10.996 l -31.491,-83.974 0,0 z"
       id="path11"
       inkscape:connector-curvature="0"
       style="clip-rule:evenodd;fill:#1061ac;fill-rule:evenodd" /><path
       d="m 193.052,71.934 c 0,-38.596 -32.48,-69.884 -72.548,-69.884 -40.067,0 -72.548,31.288 -72.548,69.884 0,38.595 32.481,69.882 72.548,69.882 40.068,0 72.548,-31.287 72.548,-69.882 l 0,0 z"
       id="path13"
       inkscape:connector-curvature="0"
       style="clip-rule:evenodd;fill:#ffffff;fill-rule:evenodd" /><path
       d="m 45.906,71.934 c 0,39.664 33.465,71.932 74.598,71.932 41.133,0 74.598,-32.268 74.598,-71.932 C 195.102,32.27 161.637,0 120.504,0 79.371,0 45.906,32.27 45.906,71.934 l 0,0 z m 4.099,0 C 50.005,34.53 81.631,4.1 120.504,4.1 c 38.874,0 70.5,30.431 70.5,67.834 0,37.403 -31.626,67.833 -70.5,67.833 -38.873,0 -70.499,-30.43 -70.499,-67.833 l 0,0 z"
       id="path15"
       inkscape:connector-curvature="0"
       style="clip-rule:evenodd;fill-rule:evenodd" /><path
       d="m 188.337,91.864 c 0,36.474 -29.565,66.04 -66.041,66.04 -36.473,0 -66.041,-29.565 -66.041,-66.04 0,-36.475 29.568,-66.043 66.041,-66.043 36.476,0 66.041,29.569 66.041,66.043 l 0,0 z"
       id="path17"
       inkscape:connector-curvature="0"
       style="clip-rule:evenodd;fill:#1061ac;fill-rule:evenodd" /><path
       d="m 190.797,91.864 c 0,37.832 -30.668,68.5 -68.5,68.5 -18.916,0 -36.041,-7.668 -48.438,-20.062 -12.395,-12.398 -20.063,-29.523 -20.063,-48.438 0,-18.916 7.668,-36.041 20.063,-48.438 12.397,-12.396 29.523,-20.064 48.438,-20.064 18.917,0 36.041,7.667 48.438,20.064 12.395,12.397 20.062,29.522 20.062,48.438 l 0,0 z m -4.92,0 c 0,-17.558 -7.115,-33.455 -18.619,-44.96 -11.508,-11.505 -27.402,-18.623 -44.961,-18.623 -17.557,0 -33.454,7.118 -44.958,18.623 -11.507,11.505 -18.623,27.402 -18.623,44.96 0,17.558 7.116,33.455 18.623,44.959 11.505,11.506 27.401,18.622 44.958,18.622 35.115,0.001 63.58,-28.465 63.58,-63.581 l 0,0 z"
       id="path19"
       inkscape:connector-curvature="0" /><path
       d="m 116.609,19.682 c 0,0 -3.05,3.051 -3.05,5.162 0,0 12.908,6.806 15.723,11.734 0,0 5.164,-1.643 8.684,-1.408 3.521,0.234 9.152,2.582 9.152,2.582 0,0 -5.631,3.05 -6.807,4.225 -1.172,1.173 -3.988,5.163 -3.988,5.163 0,0 8.918,6.103 19.479,7.041 10.56,0.938 16.429,-2.346 16.429,-2.346 l 2.11,0.938 -0.704,1.408 c 0,0 -3.987,1.644 -7.51,2.347 -3.521,0.704 -7.274,1.408 -10.325,1.408 -3.051,0 -11.5,-1.642 -14.081,-2.582 l 0.704,3.521 c 0,0 -3.286,-3.521 -7.041,-3.521 l 0,1.643 c 0,0 9.153,3.755 17.367,10.092 8.213,6.335 15.488,15.02 15.488,15.02 0,0 5.321,5.167 8.918,15.958 2.112,6.337 2.348,14.316 2.348,14.316 l 2.111,1.173 -4.459,9.622 -0.704,-3.519 c 0,0 -0.234,-8.683 -2.816,-16.664 -2.58,-7.979 -7.275,-13.142 -11.5,-18.305 -4.223,-5.164 -17.365,-13.846 -20.182,-15.255 0,0 4.457,8.684 4.692,11.734 0,0 -3.753,-3.755 -7.274,-4.458 0,0 3.286,2.582 10.327,14.316 7.04,11.734 6.337,27.458 6.337,27.458 0,0 -0.704,12.201 -1.88,17.366 -1.173,5.164 -2.58,6.336 -2.58,6.336 l -1.173,-5.867 c 0,0 2.58,-9.387 1.173,-20.651 -1.408,-11.265 -3.991,-23.235 -12.438,-30.744 0,0 1.878,6.806 1.409,11.5 -0.472,4.694 -3.756,10.795 -3.756,10.795 0,0 -1.174,-11.029 -4.46,-11.265 0,0 0,3.051 -0.234,5.164 -0.234,2.111 -2.347,6.101 -0.938,9.387 1.409,3.286 3.521,11.969 3.756,12.908 0.234,0.938 0.704,3.521 0.704,3.521 0,0 0.469,0.939 -0.939,2.111 -1.41,1.173 -6.337,5.399 -6.337,5.399 0,0 -3.755,2.111 -1.406,2.815 2.345,0.702 15.723,0.702 15.723,0.702 0,0 15.021,-1.173 24.172,-8.448 9.153,-7.274 16.428,-18.069 16.428,-18.069 l -3.05,13.375 c 0,0 -4.694,13.613 -17.368,21.595 -12.672,7.979 -36.608,22.057 -70.169,7.507 -33.56,-14.551 -39.897,-46.231 -39.897,-46.231 0,0 -2.816,-9.623 -2.346,-13.847 0.469,-4.224 -1.878,-9.388 2.581,-9.388 0,0 0,-7.041 2.347,-9.387 l 1.173,-4.929 c 0,0 1.643,-11.969 9.857,-18.775 0,0 4.458,-5.397 5.397,-6.101 0.94,-0.704 1.409,-3.286 1.409,-3.286 l 5.632,-5.398 3.051,-0.469 c 0,0 8.213,-5.397 9.857,-5.632 1.64,-0.236 6.569,-11.267 24.874,-10.797 l 0,0 z"
       id="path21"
       inkscape:connector-curvature="0"
       style="clip-rule:evenodd;fill-rule:evenodd" /><path
       d="m 122.711,142.421 c -8.917,-1.407 -10.561,-2.347 -16.193,-6.103 -5.633,-3.753 -7.979,-8.447 -7.979,-8.447 4.693,2.345 10.325,0.938 11.264,0.704 0.939,-0.235 6.571,-3.521 7.979,-4.931 1.407,-1.407 1.173,-2.58 0.938,-3.988 -0.234,-1.409 -0.704,-6.337 -0.704,-8.919 0,-2.581 -0.938,-6.101 -0.938,-6.101 l -2.112,4.693 c 0,0 0,0 -0.704,-1.642 -0.704,-1.644 -1.173,-4.224 -1.408,-6.102 -0.234,-1.878 -1.409,-5.868 -1.878,-8.214 -0.469,-2.347 -1.408,-8.215 -1.408,-8.215 0,0 -3.051,-11.5 -3.286,-12.204 -0.234,-0.704 0.47,-2.111 0.47,-2.111 0,0 1.173,3.286 3.989,5.163 2.816,1.877 5.867,2.113 5.867,2.113 0,0 -7.275,-7.275 -9.622,-11.265 -2.347,-3.989 -3.755,-11.266 -4.458,-13.846 -0.705,-2.582 0.469,-3.521 0.469,-3.521 l 1.408,2.582 3.99,0.704 c -4.694,-15.489 -2.581,-20.653 -2.112,-22.529 0.469,-1.878 5.163,-7.745 5.163,-7.745 l -2.113,0.234 c -4.458,0.938 -10.325,5.632 -10.325,5.632 0,0 -5.398,3.755 -5.633,8.214 -0.234,4.458 -3.989,7.041 -5.867,9.388 -1.877,2.347 -5.164,8.683 -7.041,13.377 -1.877,4.693 -2.112,12.907 -0.703,17.835 1.408,4.929 5.163,9.857 6.805,11.5 1.643,1.642 0.703,1.877 -1.408,1.173 -2.111,-0.704 -5.868,-2.582 -7.745,-4.694 -1.878,-2.112 -1.878,-0.704 -1.878,0.471 0,1.172 4.226,10.09 5.164,11.734 0.939,1.642 -0.703,0.938 -2.347,-0.469 -1.642,-1.409 -4.928,-5.398 -4.928,-5.398 0,0 0.704,2.347 2.582,6.571 1.876,4.224 11.029,16.428 11.029,16.428 0,0 8.685,5.398 -0.233,3.051 -8.919,-2.346 -13.612,-5.632 -13.612,-5.632 l 3.051,5.632 c 0,0 13.377,18.306 25.58,23.705 12.205,5.396 23.939,4.928 29.101,4.928 5.164,0 15.021,-2.583 15.021,-2.583 0,0 -14.318,0.236 -23.235,-1.173 l 0,0 z M 107.457,113.79 c 2.112,-4.224 4.693,-1.173 5.164,2.347 0.49,3.678 0.704,6.571 0.704,6.571 -4.459,-11.733 -3.991,-2.111 -3.991,-2.111 -5.632,-0.94 -1.877,-6.807 -1.877,-6.807 l 0,0 z M 99.478,31.885 c 0.234,-0.939 3.286,-4.225 3.286,-4.225 0,0 4.928,-3.286 4.224,-2.347 -0.704,0.94 -4.693,9.388 -4.693,9.388 l -1.174,0 -3.755,3.521 c -0.001,0 1.877,-5.399 2.112,-6.337 l 0,0 z m -2.582,20.652 c 0.469,-1.408 1.878,-2.582 1.878,-2.582 0,0 -0.47,3.52 0.469,7.744 0.938,4.225 4.224,9.153 4.224,9.153 0,0 -1.878,0.469 -3.989,-0.939 -2.113,-1.408 -3.755,-3.755 -3.755,-5.867 0,-2.111 0.703,-6.101 1.173,-7.509 l 0,0 z m -6.805,6.338 c 0.233,-3.051 2.581,-6.337 2.581,-6.337 0,0 -1.877,4.694 -0.704,8.683 1.173,3.99 4.458,9.152 5.163,9.387 0.705,0.236 1.644,-0.234 1.644,-0.234 l 2.581,2.113 2.113,7.744 c 0,0 -5.163,-2.816 -8.917,-7.509 -3.758,-4.696 -4.697,-10.798 -4.461,-13.847 l 0,0 z m 0.469,46.466 C 87.744,100.648 83.988,93.842 83.988,93.842 l 7.275,1.642 c 0,0 8.917,20.184 9.622,20.653 0.705,0.469 0.234,2.111 0.234,2.111 l -1.407,-0.938 c 0,0 -6.337,-7.275 -9.152,-11.969 l 0,0 z"
       id="path23"
       inkscape:connector-curvature="0"
       style="clip-rule:evenodd;fill:#ffffff;fill-rule:evenodd" /><path
       d="m 78.825,43.15 c 0,0 -2.112,3.52 -0.939,4.928 0,0 7.041,-8.448 11.265,-9.856 0,0 -9.152,9.152 -12.673,18.54 -3.52,9.389 -4.459,21.592 -3.754,29.336 0,0 -4.93,-12.908 -2.113,-22.295 0,0 -6.102,5.632 -4.224,19.948 1.876,14.316 12.907,27.224 12.907,27.224 0,0 -6.336,-3.286 -9.152,-6.103 -2.816,-2.816 -5.164,-7.744 -5.164,-7.744 0,0 0.705,17.132 13.847,32.855 13.143,15.726 28.866,20.183 39.896,21.824 11.03,1.644 29.803,-0.938 46.468,-11.966 0,0 -17.134,14.784 -39.896,15.254 -22.766,0.469 -41.775,-11.268 -50.225,-20.888 -8.448,-9.621 -20.417,-29.336 -18.071,-45.294 0,0 0.939,12.438 6.103,18.07 0,0 -4.929,-20.886 -4.459,-29.335 0.469,-8.448 4.693,-17.132 7.275,-19.009 0,0 -3.99,8.684 -2.347,12.673 0,0 3.989,-12.203 7.04,-14.785 3.052,-2.582 2.817,-4.458 3.287,-5.868 0.47,-1.408 1.409,-4.928 4.929,-7.509 l 0,0 z"
       id="path25"
       inkscape:connector-curvature="0"
       style="clip-rule:evenodd;fill:#c4ced4;fill-rule:evenodd" /><path
       d="M 104.875,106.045 104.406,94.78 c 0,0 0.235,-3.286 -0.469,-5.632 -0.704,-2.347 0,-6.806 0,-6.806 l 1.409,3.52 c 0,0 0.469,2.112 0.469,3.051 0,0.938 0.469,3.755 1.643,6.102 1.173,2.347 3.285,12.203 3.285,12.203 0,0 -3.052,-2.581 -5.868,-1.173 l 0,0 z"
       id="path27"
       inkscape:connector-curvature="0"
       style="clip-rule:evenodd;fill:#c4ced4;fill-rule:evenodd" /><path
       d="m 106.049,116.372 c 0,0 0.469,-4.694 1.173,-5.397 0.704,-0.705 3.521,-3.053 5.164,0.234 1.642,3.285 2.111,6.57 1.173,10.561 0,-10e-4 -0.938,-16.194 -7.51,-5.398 l 0,0 z"
       id="path29"
       inkscape:connector-curvature="0"
       style="clip-rule:evenodd;fill:#c4ced4;fill-rule:evenodd" /><path
       d="m 130.221,38.69 2.581,3.99 c 0,0 0.237,-2.582 3.521,-3.99 3.285,-1.408 7.511,-1.173 7.511,-1.173 0,0 -4.694,-1.409 -7.511,-0.939 -2.815,0.47 -6.102,2.112 -6.102,2.112 l 0,0 z"
       id="path31"
       inkscape:connector-curvature="0"
       style="clip-rule:evenodd;fill:#c4ced4;fill-rule:evenodd" /><path
       d="m 125.057,53.71 c 0,0 3.521,-5.398 3.521,-7.04 l 1.173,-3.52 0.47,3.286 c 0.703,3.754 0.469,11.968 0.469,11.968 0,0 -0.234,7.746 -1.643,11.734 -1.407,3.99 -3.753,6.806 -3.753,6.806 0,0 1.643,-3.286 2.814,-13.376 1.173,-10.092 0.47,-10.092 0.47,-10.092 0,0 -2.346,6.103 -4.226,7.979 0,0 -0.703,-4.459 -2.111,-7.51 -1.408,-3.051 -4.693,-5.397 -4.693,-5.397 0,0 1.876,5.397 3.285,11.265 1.408,5.866 0.938,16.427 0.938,16.427 0,0 -2.347,-9.387 -5.398,-20.417 -3.05,-11.031 -7.275,-18.306 -7.275,-18.306 0,0 7.51,5.163 9.857,7.745 2.349,2.581 6.102,8.448 6.102,8.448 l 0,0 z"
       id="path33"
       inkscape:connector-curvature="0"
       style="clip-rule:evenodd;fill:#c4ced4;fill-rule:evenodd" /><path
       d="m 103.232,50.19 c 0,0 5.398,8.685 3.286,-9.856 0,0 4.693,16.897 4.928,17.366 0.235,0.47 0.94,3.286 -0.938,1.644 -1.878,-1.644 -7.276,-9.154 -7.276,-9.154 l 0,0 z"
       id="path35"
       inkscape:connector-curvature="0"
       style="clip-rule:evenodd;fill:#c4ced4;fill-rule:evenodd" /><path
       d="m 134.211,64.271 c 0,0 -0.472,-3.755 0.234,-2.112 0.704,1.643 1.408,7.275 0.704,10.561 -0.704,3.285 -5.633,7.744 -5.633,7.744 0,0 -0.235,0.234 0.704,-1.877 0.938,-2.113 1.643,-3.755 2.347,-6.806 0.703,-3.051 1.644,-7.51 1.644,-7.51 l 0,0 z"
       id="path37"
       inkscape:connector-curvature="0"
       style="clip-rule:evenodd;fill:#c4ced4;fill-rule:evenodd" /><path
       d="m 122.242,135.379 10.091,-7.743 c 0,0 0.47,-0.939 0.235,-2.346 -0.235,-1.41 -4.693,-16.664 -4.693,-16.664 0,0 -0.938,-1.643 -0.234,-2.347 0.703,-0.704 0.938,-3.286 0.703,-4.459 -0.234,-1.173 0.235,-3.755 0.704,-4.458 0.47,-0.704 1.174,-3.755 1.174,-6.102 0,-2.347 -0.47,-6.337 -0.47,-6.337 0,0 -1.407,5.398 -1.643,7.509 -0.234,2.113 -1.406,3.521 -1.172,7.041 0.233,3.52 -1.174,5.164 -1.174,5.164 0,0 -1.175,2.112 -0.234,3.755 0.938,1.643 4.457,15.722 4.457,15.722 0,0 0.938,1.646 -0.469,3.054 -1.408,1.408 -7.275,8.211 -7.275,8.211 l 0,0 z"
       id="path39"
       inkscape:connector-curvature="0"
       style="clip-rule:evenodd;fill:#c4ced4;fill-rule:evenodd" /><path
       d="m 76.181,26.591 2.811,-2.306 c 0.554,-0.455 1.043,-0.772 1.467,-0.951 0.422,-0.18 0.823,-0.268 1.199,-0.262 0.377,0.005 0.719,0.092 1.023,0.258 0.304,0.167 0.571,0.39 0.799,0.668 0.356,0.435 0.558,0.833 0.607,1.196 0.048,0.363 0.008,0.734 -0.123,1.114 -0.131,0.38 -0.326,0.721 -0.586,1.023 -0.356,0.412 -0.703,0.757 -1.04,1.033 l -2.811,2.307 -3.346,-4.08 0,0 z m 2.654,-0.62 1.828,2.228 0.464,-0.38 c 0.395,-0.324 0.652,-0.584 0.771,-0.779 0.119,-0.195 0.166,-0.405 0.142,-0.629 -0.025,-0.224 -0.171,-0.498 -0.438,-0.824 -0.356,-0.434 -0.705,-0.644 -1.046,-0.627 -0.342,0.015 -0.757,0.223 -1.248,0.625 l -0.473,0.386 0,0 z"
       id="path41"
       inkscape:connector-curvature="0"
       style="clip-rule:evenodd;fill-rule:evenodd" /><path
       d="m 97.783,18.399 -2.554,1.059 -0.034,0.957 -2.31,0.958 0.727,-6.013 2.481,-1.029 4.755,3.741 -2.367,0.981 -0.698,-0.654 0,0 z m -0.914,-0.856 -1.522,-1.42 -0.074,2.082 1.596,-0.662 0,0 z"
       id="path43"
       inkscape:connector-curvature="0"
       style="clip-rule:evenodd;fill-rule:evenodd" /><polygon
       points="116.635,15.083 110.414,15.808 109.802,10.566 109.802,10.566 112.233,10.283 112.694,14.239 116.485,13.798 "
       id="polygon45"
       style="clip-rule:evenodd;fill-rule:evenodd" /><polygon
       points="133.054,16.173 126.854,15.281 127.606,10.058 127.606,10.058 130.028,10.406 129.46,14.349 133.24,14.893 "
       id="polygon47"
       style="clip-rule:evenodd;fill-rule:evenodd" /><path
       d="m 147.635,20.17 -2.522,-1.131 -0.72,0.632 -2.281,-1.023 4.873,-3.599 2.451,1.099 0.541,6.026 -2.337,-1.047 -0.005,-0.957 0,0 z m -0.005,-1.253 -0.011,-2.082 -1.566,1.376 1.577,0.706 0,0 z"
       id="path49"
       inkscape:connector-curvature="0"
       style="clip-rule:evenodd;fill-rule:evenodd" /><path
       d="m 158.939,25.963 1.817,1.464 c -0.129,0.223 -0.178,0.434 -0.149,0.636 0.047,0.326 0.248,0.643 0.599,0.951 0.263,0.229 0.5,0.366 0.714,0.409 0.213,0.042 0.364,0.01 0.46,-0.098 0.09,-0.103 0.104,-0.254 0.04,-0.453 -0.062,-0.199 -0.309,-0.551 -0.737,-1.056 -0.701,-0.83 -1.137,-1.496 -1.304,-1.998 -0.171,-0.505 -0.121,-0.912 0.147,-1.22 0.183,-0.208 0.439,-0.322 0.777,-0.349 0.336,-0.025 0.729,0.066 1.175,0.276 0.447,0.21 0.981,0.586 1.602,1.13 0.761,0.668 1.26,1.272 1.494,1.811 0.234,0.539 0.21,1.048 -0.076,1.526 l -1.792,-1.452 c 0.109,-0.218 0.126,-0.432 0.049,-0.644 -0.077,-0.209 -0.245,-0.43 -0.506,-0.657 -0.214,-0.188 -0.402,-0.301 -0.564,-0.336 -0.16,-0.035 -0.277,-0.009 -0.354,0.077 -0.058,0.065 -0.062,0.161 -0.018,0.288 0.039,0.128 0.203,0.358 0.489,0.686 0.703,0.821 1.178,1.444 1.423,1.868 0.244,0.422 0.369,0.792 0.372,1.106 0.006,0.316 -0.089,0.582 -0.277,0.798 -0.224,0.255 -0.535,0.397 -0.935,0.426 -0.4,0.029 -0.837,-0.067 -1.312,-0.291 -0.476,-0.222 -1.003,-0.586 -1.579,-1.091 -1.014,-0.888 -1.601,-1.632 -1.762,-2.234 -0.163,-0.602 -0.094,-1.126 0.207,-1.573 l 0,0 z"
       id="path51"
       inkscape:connector-curvature="0"
       style="clip-rule:evenodd;fill-rule:evenodd" /><path
       d="m 20.111,145.012 22.492,60.465 c 0,0 8.771,-2.586 9.047,-2.667 l 0.001,0.009 c 0,0 8.404,-2.264 8.77,-2.362 0.013,0.043 0.061,0.21 0.061,0.21 l 10.812,-2.237 -0.585,-2.109 c -0.316,-1.143 -7.783,-28.05 -9.887,-34.365 -2.379,-7.137 -10.207,-10.489 -10.539,-10.628 l -0.103,-0.045 -0.107,-0.03 c -2.416,-0.716 -6.542,-1.967 -7.333,-2.284 -1.417,-0.567 -2.563,-0.377 -3.325,0.066 -1.186,-0.765 -2.749,-1.68 -2.974,-1.811 l -0.168,-0.101 -17.685,-6.205 1.523,4.094 0,0 z"
       id="path53"
       inkscape:connector-curvature="0"
       style="clip-rule:evenodd;fill:#ffffff;fill-rule:evenodd" /><path
       d="m 59.47,156.296 10.547,42.188 c 0,0 8.25,-1.317 8.771,-1.404 0.008,0.04 0.045,0.211 0.045,0.211 l 8.971,-1.58 -0.396,-2.048 c -0.182,-0.939 -4.477,-23.085 -5.641,-28.441 -1.409,-6.48 -8.807,-8.927 -9.121,-9.027 l -0.091,-0.03 -13.889,-3.085 0.804,3.216 0,0 z m 4.781,2.221 c 3.064,0.682 7.056,1.569 7.209,1.605 0.655,0.231 5.455,2.077 6.3,5.968 0.95,4.368 4.108,20.559 5.226,26.305 -0.487,0.087 -0.527,0.093 -1.004,0.18 -0.642,-2.885 -3.135,-14.082 -3.135,-14.082 l -8.131,-0.511 c 0,0 3.288,12.38 4.137,15.578 -0.835,0.133 -1.005,0.161 -1.772,0.281 -0.761,-3.047 -7.534,-30.14 -8.83,-35.324 l 0,0 z"
       id="path55"
       inkscape:connector-curvature="0"
       style="clip-rule:evenodd;fill:#ffffff;fill-rule:evenodd" /><path
       d="m 69.518,159.163 c -2.326,0.74 -2.177,3.735 -2.128,4.717 l 0.01,0.195 3.717,15.13 7.703,0 -0.31,-2.321 c -0.245,-1.839 -1.559,-11.151 -3.354,-13.972 -1.338,-2.104 -3.403,-4.463 -5.638,-3.749 l 0,0 z m 2.552,6.742 c 0.504,1.324 1.042,3.673 1.504,6.125 -0.68,-2.774 -1.03,-4.198 -1.504,-6.125 l 0,0 z"
       id="path57"
       inkscape:connector-curvature="0"
       style="clip-rule:evenodd;fill:#ffffff;fill-rule:evenodd" /><path
       d="m 79.933,160.436 -0.009,-0.024 c 0.451,1.524 5.267,27.211 5.791,30.877 0.272,1.905 1.006,3.223 2.183,3.919 0.847,0.503 1.743,0.557 2.436,0.424 1.185,-0.01 6.52,-0.106 9.512,-1.029 3.177,-0.978 4.078,-4.443 4.078,-7.37 0,-1.175 -0.144,-2.261 -0.345,-3.063 l 0.006,0.024 c -0.286,-1.446 -0.415,-14.044 -0.415,-22.526 l 0,-1.989 c 0,0 -10.459,-0.325 -11.192,-0.35 -0.004,-0.032 -0.019,-0.169 -0.019,-0.169 l -13.029,-1.862 1.003,3.138 0,0 z m 9.839,30.275 c -0.314,-2.204 -3.731,-20.896 -5.266,-28.478 1.702,0.243 2.562,0.364 3.717,0.529 0.585,5.461 2.486,23.095 2.892,25.731 0.222,1.438 0.828,2.382 1.556,2.963 -1.074,0.055 -2.019,0.075 -2.581,0.075 0,0 -0.068,0 -0.122,0 -0.062,-0.157 -0.138,-0.417 -0.196,-0.82 l 0,0 z m 4.456,-10.728 c 0.197,1.581 0.357,2.982 0.471,4.138 -0.139,-1.209 -0.3,-2.618 -0.471,-4.138 l 0,0 z m 4.689,8.069 c 0.039,-0.227 0.055,-0.543 0.055,-0.937 0,-4.146 -1.916,-16.946 -2.95,-23.56 1.348,0.044 1.865,0.058 3.051,0.096 0.011,6.406 0.089,19.752 0.529,21.511 0.136,0.543 0.214,1.283 0.214,2.043 0,1.563 -0.33,3.221 -1.176,3.478 -0.323,0.101 -0.706,0.188 -1.115,0.266 0.692,-0.734 1.199,-1.734 1.392,-2.897 l 0,0 z"
       id="path59"
       inkscape:connector-curvature="0"
       style="clip-rule:evenodd;fill:#ffffff;fill-rule:evenodd" /><path
       d="m 102.357,168.236 0,0.059 0.761,26.633 1.991,0 c 0.243,0 5.979,-0.004 9.3,-0.239 4.404,-0.313 6.868,-5.776 7.135,-6.4 l 0.143,-0.336 0.368,-6.981 c 0,0 -0.352,0 -0.58,0 0,-0.593 0,-4.144 0,-4.349 0.145,0 0.43,0 0.43,0 l 0.313,-15.979 -1.999,-0.086 c -0.054,-0.003 -5.502,-0.238 -10.65,-0.238 -5.292,-0.001 -7.212,4.732 -7.212,7.916 l 0,0 z m 7.212,-3.816 c 0.251,0 0.504,0 0.757,0 -0.275,0.146 -0.547,0.308 -0.8,0.521 -0.702,0.587 -1.537,1.677 -1.537,3.527 0,0 0,8.911 0,8.983 -0.048,0 -0.235,0 -0.235,0 0,0 0,13.027 0,13.355 -0.229,0.004 -0.445,0.006 -0.653,0.006 -0.096,-3.371 -0.642,-22.483 -0.645,-22.582 0.01,-0.663 0.213,-3.81 3.113,-3.81 l 0,0 z m 6.509,1.469 c 0,0 0,-0.93 0,-1.372 0.73,0.021 1.398,0.04 1.963,0.061 -0.043,2.225 -0.112,5.727 -0.156,7.947 -0.814,0 -0.987,0 -1.808,0 0.001,-2.392 0.001,-6.636 0.001,-6.636 l 0,0 z m -3.236,15.662 c -0.063,0.535 -0.615,5.22 -0.615,5.22 -0.054,0.463 -0.182,0.799 -0.342,0.901 -0.009,0.004 -0.023,0.006 -0.032,0.012 0,-1.882 0,-4.149 0,-6.133 0.332,0 0.561,0 0.989,0 l 0,0 z m 4.893,3.519 c -0.05,0.947 -0.083,1.581 -0.1,1.895 -0.541,1.122 -1.499,2.521 -2.49,3.212 0.533,-0.655 0.994,-1.591 1.152,-2.924 0,0 0.129,-1.101 0.256,-2.183 0.541,0 0.607,0 1.182,0 l 0,0 z"
       id="path61"
       inkscape:connector-curvature="0"
       style="clip-rule:evenodd;fill:#ffffff;fill-rule:evenodd" /><path
       d="m 135.542,159.853 -14.35,0.543 -1.064,33.526 c 0,0 8.004,0.259 8.55,0.277 l -0.002,0.021 c 0,0 0.423,0 0.771,0 0.013,0.005 0.124,0.007 0.124,0.007 l 0,-0.007 c 0.647,0 8.16,0 8.16,0 l 0.356,-1.603 c 0.061,-0.268 1.458,-6.602 1.458,-10.536 0,-1.802 -0.335,-3.081 -0.788,-3.996 1.411,-1.68 2.039,-3.832 2.126,-4.16 l 0.036,-0.135 0.019,-0.139 c 0.024,-0.203 0.531,-4.296 0.531,-7.361 0,-0.543 -0.018,-1.059 -0.055,-1.513 -0.3,-3.616 -3.834,-4.802 -5.66,-4.924 l -0.106,-0.009 -0.106,0.009 0,0 z m 0.011,4.101 c 0.357,0.043 1.702,0.266 1.778,1.169 0.028,0.338 0.04,0.736 0.04,1.169 0,2.202 -0.315,5.326 -0.48,6.686 -0.321,1.086 -1.114,2.673 -1.869,3.009 0,0 -4.259,1.894 -4.832,2.146 -0.547,-0.123 -1.142,-0.211 -1.847,-0.211 l -1.934,0 c 0,0 -0.538,9.295 -0.701,12.08 -0.632,-0.02 -0.715,-0.021 -1.354,-0.044 0.105,-3.299 0.717,-22.516 0.814,-25.613 2.7,-0.101 10.15,-0.383 10.385,-0.391 l 0,0 z m -1.649,18.32 0.01,-0.097 0,-0.095 c 0,-0.881 -0.447,-2.236 -1.792,-3.16 1.393,0.4 2.57,0.734 2.871,0.821 0.157,0.205 0.454,0.875 0.454,2.339 0,2.38 -0.628,5.98 -1.03,8.042 -0.544,0 -0.632,0 -1.243,0 0.251,-2.711 0.73,-7.85 0.73,-7.85 l 0,0 z"
       id="path63"
       inkscape:connector-curvature="0"
       style="clip-rule:evenodd;fill:#ffffff;fill-rule:evenodd" /><path
       d="m 128.366,163.252 -1.308,0.46 -0.609,14.352 1.926,0.191 c 1.774,0.179 4.274,0.213 5.514,-1.499 0.415,-0.575 0.569,-1.207 0.569,-1.782 0,-0.156 -0.026,-0.3 -0.048,-0.446 0.165,-1.16 0.676,-4.984 0.676,-7.699 0,-1.885 -0.976,-2.856 -1.557,-3.267 -1.912,-1.354 -4.636,-0.495 -5.163,-0.31 l 0,0 z"
       id="path65"
       inkscape:connector-curvature="0"
       style="clip-rule:evenodd;fill:#ffffff;fill-rule:evenodd" /><path
       d="m 150.277,159.151 -9.214,0.575 -4.222,35.028 9.882,0.497 6.133,-36.262 -2.579,0.162 0,0 z m -2.324,4.25 c -0.685,4.053 -4.169,24.646 -4.664,27.574 -0.792,-0.04 -0.982,-0.05 -1.851,-0.095 0.426,-3.554 2.949,-24.473 3.286,-27.276 1.132,-0.07 1.773,-0.11 3.229,-0.203 l 0,0 z"
       id="path67"
       inkscape:connector-curvature="0"
       style="clip-rule:evenodd;fill:#ffffff;fill-rule:evenodd" /><path
       d="m 171.841,155.429 -13.542,2.611 -0.153,0.059 c -0.224,0.082 -5.48,2.075 -6.907,7.504 -1.178,4.481 -4.808,23.96 -4.963,24.789 -0.398,1.993 0.25,4.481 2.626,5.161 1.786,0.511 6.771,0.738 7.753,0.782 l 0.091,0.002 0.094,-0.004 c 0.256,-0.012 6.332,-0.368 8.407,-6.298 1.65,-4.717 2.815,-9.121 2.863,-9.311 l 0.599,-2.162 c 0,0 -10.513,0.154 -10.684,0.167 0.2,-0.905 -0.106,0.507 0.097,-0.417 0.711,-0.021 10.719,-0.355 10.719,-0.355 l 6.241,-23.153 -3.241,0.625 0,0 z m -12.158,6.522 c -0.848,0.845 -1.875,2.261 -3.115,4.63 l -0.128,0.246 -0.059,0.27 c -1.737,7.953 -4.411,20.1 -4.653,20.961 l 0.018,-0.051 c -0.099,0.3 -0.147,0.623 -0.147,0.959 0,1.036 0.448,2.177 1.209,2.939 0.033,0.034 0.07,0.056 0.105,0.086 -1.107,-0.095 -2.066,-0.205 -2.624,-0.323 -0.006,-0.057 -0.01,-0.115 -0.01,-0.182 0,-0.116 0.009,-0.239 0.027,-0.34 0.038,-0.207 3.754,-20.164 4.896,-24.499 0.792,-3.013 3.664,-4.398 4.245,-4.652 0.008,-0.002 0.223,-0.042 0.236,-0.044 l 0,0 z m 9.695,-1.873 c -1.005,3.651 -2.663,9.669 -3.184,11.56 -0.943,0.03 -1.471,0.049 -2.801,0.091 0.686,-2.673 1.697,-6.611 1.697,-6.611 l 0.014,-0.11 c 0.03,-0.212 0.046,-0.425 0.046,-0.64 0,-1.256 -0.533,-2.511 -1.637,-3.156 2.551,-0.493 3.712,-0.717 5.865,-1.134 l 0,0 z m -6.013,22.377 c -0.491,1.68 -1.185,3.933 -1.989,6.226 -0.875,2.508 -3.079,3.252 -4.147,3.47 1.507,-1.126 2.335,-3.291 2.645,-4.301 l 0.016,-0.054 c 0,0 0.858,-3.428 1.297,-5.182 0.76,-0.055 1.103,-0.078 2.178,-0.159 l 0,0 z"
       id="path69"
       inkscape:connector-curvature="0"
       style="clip-rule:evenodd;fill:#ffffff;fill-rule:evenodd" /><path
       d="m 192.758,150.788 c 0,0 -7.869,2.383 -7.912,2.396 0.003,-0.017 0.051,-0.159 0.051,-0.159 l -11.008,2.444 -12.095,41.396 c 0,0 7.817,1.103 8.29,1.169 -0.003,0.014 -0.038,0.13 -0.038,0.13 l 9.146,1.748 0.596,-1.639 c 0.154,-0.423 3.778,-10.394 4.946,-13.899 0.325,-0.974 0.457,-1.9 0.457,-2.76 0,-1.177 -0.249,-2.223 -0.599,-3.091 1.601,-1.384 3.013,-3.434 3.686,-4.498 l 0.132,-0.207 8.155,-24.188 -3.807,1.158 0,0 z m -13.951,7.786 c -1.498,4.66 -6.047,18.809 -6.047,18.809 0,0 0.074,0.006 0.078,0.006 -0.059,0.191 -4.064,13.496 -4.881,16.206 -0.409,-0.059 -0.452,-0.063 -0.9,-0.127 1.135,-3.888 9.484,-32.472 10.086,-34.523 0.503,-0.114 0.84,-0.187 1.664,-0.371 l 0,0 z m 11.332,-2.712 c -1.656,4.91 -5.317,15.766 -5.45,16.162 -1.176,1.81 -2.746,3.618 -3.366,3.855 -0.025,0.008 -0.626,0.186 -1.22,0.36 0.812,-0.585 1.53,-1.398 1.996,-2.521 1.034,-2.48 4.179,-13.479 5.174,-16.99 0.684,-0.204 1.434,-0.432 2.866,-0.866 l 0,0 z m -11.559,21.18 c 0.358,0.448 1.728,2.164 1.728,2.164 0.04,0.048 0.784,0.955 0.784,2.405 0,0.44 -0.068,0.934 -0.245,1.465 -0.871,2.614 -3.211,9.102 -4.315,12.154 -0.572,-0.108 -0.666,-0.126 -1.299,-0.249 0.874,-3.023 3.234,-11.201 3.354,-11.609 0.318,-0.563 0.566,-1.282 0.566,-2.052 0,-0.451 -0.085,-0.918 -0.284,-1.372 -0.59,-1.33 -1.948,-2.136 -4,-2.428 0.16,0.012 0.51,0.036 0.51,0.036 0.844,0.058 2.029,-0.065 3.201,-0.514 l 0,0 z"
       id="path71"
       inkscape:connector-curvature="0"
       style="clip-rule:evenodd;fill:#ffffff;fill-rule:evenodd" /><path
       d="m 216.327,142.852 -13.828,5.244 -0.191,0.129 c -1.275,0.849 -7.693,5.287 -9.022,9.272 -1.148,3.441 -7.886,21.337 -7.954,21.516 l -1.013,2.693 c 0,0 0.324,0.01 0.435,0.012 -0.051,0.146 -4.807,13.222 -4.821,13.256 -0.163,0.386 -0.511,1.306 -0.511,2.377 0,0.63 0.125,1.304 0.485,1.932 0.335,0.579 1.163,1.576 2.933,1.739 2.646,0.239 5.241,0.241 5.35,0.241 l 0.134,0 0.132,-0.016 c 0.262,-0.034 6.435,-0.896 9.488,-6.169 2.638,-4.554 8.352,-19.845 8.595,-20.492 l 1.064,-2.854 c 0,0 -0.139,0.006 -0.155,0.006 0.098,-0.221 13.449,-30.617 13.449,-30.617 l -4.57,1.731 0,0 z m -3.112,5.565 c -2.506,5.696 -7.787,17.723 -8.551,19.461 -0.627,0.024 -0.97,0.038 -1.941,0.072 1.26,-3.244 3.398,-8.762 3.398,-8.762 l 0.035,-0.173 c 0.109,-0.549 0.165,-1.054 0.165,-1.511 0,-1.052 -0.291,-1.858 -0.867,-2.41 -0.598,-0.57 -1.448,-0.788 -2.274,-0.581 -1.381,0.346 -2.694,1.577 -3.064,1.947 l -0.269,0.268 -0.155,0.35 c -1.729,3.895 -5.781,13.163 -6.027,15.128 -0.185,1.482 0.128,2.595 0.931,3.309 0.75,0.664 1.682,0.732 2.304,0.577 l -0.438,0.061 c 0,0 2.744,-0.08 5.153,-0.148 -1.803,4.7 -5.405,13.887 -7.221,17.021 -1.851,3.198 -5.688,4.017 -6.367,4.14 -0.543,-0.004 -2.466,-0.034 -4.449,-0.195 0.035,-0.146 0.088,-0.304 0.142,-0.429 l 0.028,-0.064 0.03,-0.08 c 0,0 3.418,-9.396 4.205,-11.56 0.161,0 0.208,0 0.393,0 -1.084,2.555 -2.522,5.992 -2.834,6.923 -0.216,0.65 -0.323,1.247 -0.323,1.797 0,0.742 0.197,1.392 0.59,1.938 0.432,0.598 1.276,1.312 2.851,1.312 2.607,0 3.974,-2.773 4.219,-3.331 L 192.9,193.433 198.899,178 c 0,0 -6.147,-0.165 -8.719,-0.235 1.947,-5.189 6.085,-16.248 6.993,-18.97 0.642,-1.923 4.552,-5.22 7.233,-7.038 0.3,-0.115 4.879,-1.848 8.809,-3.34 l 0,0 z"
       id="path73"
       inkscape:connector-curvature="0"
       style="clip-rule:evenodd;fill:#ffffff;fill-rule:evenodd" /><polygon
       points="74.601,172.227 74.601,172.227 71.315,172.227 71.315,165.185 74.601,165.185 "
       id="polygon75"
       style="clip-rule:evenodd;fill:#ffffff;fill-rule:evenodd" /><polygon
       points="113.089,188.418 113.089,188.418 111.446,188.418 111.446,180.674 113.089,180.674 "
       id="polygon77"
       style="clip-rule:evenodd;fill:#ffffff;fill-rule:evenodd" /><polygon
       points="186.077,180.207 186.077,180.207 184.435,180.207 184.435,177.39 186.077,177.39 "
       id="polygon79"
       style="clip-rule:evenodd;fill:#ffffff;fill-rule:evenodd" /><polygon
       points="168.708,179.502 168.708,179.502 157.679,179.502 157.679,177.625 168.708,177.625 "
       id="polygon81"
       style="clip-rule:evenodd;fill:#ffffff;fill-rule:evenodd" /><path
       d="m 43.857,202.969 -21.826,-58.671 13.376,4.694 c 0,0 2.629,1.211 3.756,2.346 0.827,0.835 1.174,1.644 1.174,1.644 l 0,-2.112 c 0,0 0.469,-0.469 1.642,0 1.174,0.469 7.51,2.346 7.51,2.346 0,0 7.275,3.053 9.388,9.389 2.113,6.338 9.857,34.263 9.857,34.263 l -6.806,1.408 -10.092,-35.202 c 0,0 -2.582,-5.865 -3.989,-5.396 -1.407,0.469 0,3.99 0,3.99 l 11.265,37.019 -6.102,1.644 c 0,0 -13.142,-41.244 -14.315,-42.652 0,0 -1.742,-3.836 -3.756,-3.757 -1.426,0.056 -0.469,1.172 0,2.817 0.469,1.644 15.49,44.295 15.49,44.295 l -6.572,1.935 0,0 z"
       id="path83"
       inkscape:connector-curvature="0"
       style="clip-rule:evenodd;fill-rule:evenodd" /><path
       d="m 80.409,194.932 4.987,-0.88 c 0,0 -4.459,-23 -5.632,-28.398 -1.174,-5.395 -7.746,-7.509 -7.746,-7.509 l -10.56,-2.348 10.09,40.365 5.868,-0.938 -3.989,-15.019 3.755,0.233 3.227,14.494 0,0 z m -7.685,-17.777 -3.286,-13.378 c -0.234,-4.692 2.346,-2.346 3.99,0.235 1.642,2.581 3.051,13.143 3.051,13.143 l -3.755,0 0,0 z"
       id="path85"
       inkscape:connector-curvature="0"
       style="clip-rule:evenodd;fill-rule:evenodd" /><path
       d="m 81.876,159.787 8.215,1.177 c 0,0 2.581,24.171 3.05,27.22 0.469,3.054 3.285,2.35 3.754,-0.469 0.469,-2.815 -3.286,-26.283 -3.286,-26.283 l 7.51,0.235 c 0,0 0,21.12 0.47,22.999 0.47,1.877 0.705,7.04 -2.346,7.979 -3.051,0.937 -9.152,0.937 -9.152,0.937 0,0 -1.878,0.704 -2.348,-2.58 -0.47,-3.288 -5.397,-29.808 -5.867,-31.215 l 0,0 z"
       id="path87"
       inkscape:connector-curvature="0"
       style="clip-rule:evenodd;fill-rule:evenodd" /><path
       d="m 120.13,162.604 -0.236,11.968 -5.866,0 0,-8.683 c 0,0 -3.99,-0.704 -3.99,2.58 0,3.287 0,8.686 0,8.686 l 9.387,0 0,2.348 -9.622,0 0,10.089 c 0,0 3.99,1.41 4.459,-2.581 0.469,-3.99 0.469,-3.99 0.469,-3.99 l 5.163,0 -0.235,4.461 c 0,0 -2.111,4.929 -5.397,5.164 -3.286,0.233 -9.153,0.233 -9.153,0.233 l -0.704,-24.643 c 0,0 0,-5.867 5.164,-5.867 5.163,0 10.561,0.235 10.561,0.235 l 0,0 z"
       id="path89"
       inkscape:connector-curvature="0"
       style="clip-rule:evenodd;fill-rule:evenodd" /><path
       d="m 138.904,173.4 c 0,0 0.704,-5.635 0.47,-8.45 -0.234,-2.814 -3.754,-3.05 -3.754,-3.05 l -12.439,0.469 -0.938,29.572 5.398,0.175 0.703,-12.145 c 3.521,0 3.521,2.111 3.521,2.111 l -0.939,10.092 5.164,0 c 0,0 1.408,-6.336 1.408,-10.092 0,-3.755 -1.643,-4.224 -1.643,-4.224 2.11,-0.937 3.049,-4.458 3.049,-4.458 l 0,0 z m -10.325,2.817 0.469,-11.032 c 0,0 3.989,-1.408 3.989,1.644 0,3.051 -0.704,7.743 -0.704,7.743 0,0 0.937,2.114 -3.754,1.645 l 0,0 z"
       id="path91"
       inkscape:connector-curvature="0"
       style="clip-rule:evenodd;fill-rule:evenodd" /><polygon
       points="142.894,161.667 142.894,161.667 150.405,161.194 145.006,193.114 139.139,192.82 "
       id="polygon93"
       style="clip-rule:evenodd;fill-rule:evenodd" /><path
       d="m 160.729,173.868 7.041,-0.234 4.461,-16.192 -13.378,2.581 c 0,0 -4.461,1.645 -5.634,6.103 -1.172,4.459 -4.929,24.64 -4.929,24.64 0,0 -0.47,2.35 1.175,2.817 1.644,0.471 7.275,0.704 7.275,0.704 0,0 4.928,-0.233 6.572,-4.928 1.643,-4.692 2.814,-9.151 2.814,-9.151 l -6.571,0.468 -1.642,6.571 c 0,0 -0.939,3.05 -2.347,3.519 -1.41,0.473 -2.113,-1.406 -1.879,-2.11 0.234,-0.704 4.694,-21.121 4.694,-21.121 0,0 2.581,-4.929 3.754,-4.693 1.176,0.233 0.938,1.877 0.938,1.877 l -2.344,9.149 0,0 z"
       id="path95"
       inkscape:connector-curvature="0"
       style="clip-rule:evenodd;fill-rule:evenodd" /><path
       d="m 175.515,157.206 6.337,-1.408 -6.337,19.716 c 0,0 3.521,0.231 4.694,-2.584 1.173,-2.814 5.397,-17.838 5.397,-17.838 l 7.745,-2.345 -6.807,20.183 c 0,0 -2.816,4.461 -4.693,4.93 0,0 2.111,2.348 0.938,5.865 -1.174,3.521 -4.927,13.847 -4.927,13.847 l -5.224,-0.998 4.048,-14.021 c 0,0 1.88,-2.58 -2.347,-3.049 l -4.929,16.366 -4.986,-0.704 11.091,-37.96 0,0 z"
       id="path97"
       inkscape:connector-curvature="0"
       style="clip-rule:evenodd;fill-rule:evenodd" /><path
       d="m 199.689,170.115 6.334,-0.235 11.032,-25.112 -13.612,5.163 c 0,0 -7.04,4.695 -8.214,8.215 -1.173,3.521 -7.979,21.591 -7.979,21.591 l 8.684,0.235 -4.929,12.674 c 0,0 -0.938,2.111 -2.347,2.111 -1.409,0 -1.643,-0.939 -1.174,-2.347 0.47,-1.408 3.988,-9.623 3.988,-9.623 l -4.927,0 -4.693,12.907 c 0,0 -1.408,3.05 1.173,3.287 2.582,0.235 5.163,0.235 5.163,0.235 0,0 5.398,-0.704 7.979,-5.164 2.58,-4.461 8.448,-20.185 8.448,-20.185 l -8.213,0.236 c 0,0 -0.939,0.232 -0.704,-1.644 0.234,-1.877 5.867,-14.551 5.867,-14.551 0,0 1.174,-1.173 2.112,-1.408 0.938,-0.233 0.469,2.112 0.469,2.112 l -4.457,11.503 0,0 z"
       id="path99"
       inkscape:connector-curvature="0"
       style="clip-rule:evenodd;fill-rule:evenodd" /><path
       d="m 119.708,212.668 -7.87,5.69 3.314,-8.488 c -1.864,-3.105 -10.25,-5.178 -10.25,-5.178 2.071,-0.621 12.321,-1.657 12.321,-1.657 0.414,-1.657 2.485,-7.352 2.485,-7.352 0,0 2.071,5.694 2.485,7.352 0,0 10.25,1.036 12.321,1.657 0,0 -8.386,2.072 -10.251,5.178 l 3.313,8.488 -7.868,-5.69 0,0 z"
       id="path101"
       inkscape:connector-curvature="0"
       style="clip-rule:evenodd;fill:#ffffff;fill-rule:evenodd" /><path
       d="m 118.937,195.407 c -0.077,0.211 -1.735,4.776 -2.353,6.87 -2.189,0.229 -10.056,1.072 -11.918,1.63 l -2.871,0.86 2.91,0.721 c 2.142,0.528 7.813,2.327 9.521,4.499 -0.293,0.753 -4.163,10.669 -4.163,10.669 0,0 8.798,-6.362 9.645,-6.976 0.846,0.613 9.645,6.976 9.645,6.976 0,0 -3.87,-9.916 -4.162,-10.669 1.707,-2.172 7.378,-3.971 9.52,-4.499 l 2.911,-0.721 -2.872,-0.86 c -1.861,-0.558 -9.727,-1.4 -11.917,-1.63 -0.618,-2.094 -2.277,-6.659 -2.353,-6.87 l -0.771,-2.12 -0.772,2.12 0,0 z m -1.632,8.443 0.572,-0.055 0.141,-0.561 c 0.238,-0.953 1.06,-3.335 1.689,-5.117 0.629,1.782 1.451,4.164 1.689,5.117 l 0.141,0.561 0.573,0.055 c 1.88,0.191 5.907,0.632 8.882,1.046 -2.694,0.941 -6.2,2.498 -7.432,4.55 l -0.207,0.346 c 0,0 1.47,3.77 2.446,6.272 -2.295,-1.66 -6.092,-4.405 -6.092,-4.405 0,0 -3.797,2.745 -6.094,4.405 0.977,-2.503 2.448,-6.272 2.448,-6.272 l -0.207,-0.346 c -1.231,-2.052 -4.736,-3.608 -7.431,-4.55 2.974,-0.414 7.001,-0.854 8.882,-1.046 l 0,0 z"
       id="path103"
       inkscape:connector-curvature="0"
       style="clip-rule:evenodd;fill-rule:evenodd" /></g></svg>