<?xml version="1.0" encoding="UTF-8" standalone="no"?>
<!-- Generator: Adobe Illustrator 14.0.0, SVG Export Plug-In . SVG Version: 6.00 Build 43363)  -->

<svg
   xmlns:dc="http://purl.org/dc/elements/1.1/"
   xmlns:cc="http://creativecommons.org/ns#"
   xmlns:rdf="http://www.w3.org/1999/02/22-rdf-syntax-ns#"
   xmlns:svg="http://www.w3.org/2000/svg"
   xmlns="http://www.w3.org/2000/svg"
   xmlns:sodipodi="http://sodipodi.sourceforge.net/DTD/sodipodi-0.dtd"
   xmlns:inkscape="http://www.inkscape.org/namespaces/inkscape"
   version="1.1"
   id="Layer_1"
   x="0px"
   y="0px"
   width="100"
   height="69.122543"
   viewBox="0 0 99.999996 69.122543"
   enable-background="new 0 0 250 176"
   xml:space="preserve"
   inkscape:version="0.91 r13725"
   sodipodi:docname="Denver_Nuggets_resized.svg"><metadata
     id="metadata4119"><rdf:RDF><cc:Work
         rdf:about=""><dc:format>image/svg+xml</dc:format><dc:type
           rdf:resource="http://purl.org/dc/dcmitype/StillImage" /><dc:title></dc:title></cc:Work></rdf:RDF></metadata><defs
     id="defs4117" /><sodipodi:namedview
     pagecolor="#ffffff"
     bordercolor="#666666"
     borderopacity="1"
     objecttolerance="10"
     gridtolerance="10"
     guidetolerance="10"
     inkscape:pageopacity="0"
     inkscape:pageshadow="2"
     inkscape:window-width="977"
     inkscape:window-height="657"
     id="namedview4115"
     showgrid="false"
     fit-margin-top="0"
     fit-margin-left="0"
     fit-margin-right="0"
     fit-margin-bottom="0"
     inkscape:zoom="1.3409091"
     inkscape:cx="-40.610168"
     inkscape:cy="82.759662"
     inkscape:window-x="7"
     inkscape:window-y="40"
     inkscape:window-maximized="0"
     inkscape:current-layer="Layer_1" /><g
     id="g4053"
     transform="matrix(0.41666667,0,0,0.41666667,-2.0833334,-2.1054167)"><path
       d="M 61.271,47.707 C 78.878,36.847 89.075,36.722 89.075,36.722 l 0.741,0.876 39.214,-32.545 37.698,31.847 1.285,-1.267 c 0,0 10.219,1.59 22.825,9.462 17.311,10.808 28.789,22.603 28.789,22.603 l -8.827,0 6.194,7.708 -0.393,1.685 c 0,0 8.938,-0.182 13.563,0.652 3.675,0.664 7.627,3.417 7.627,3.417 l 5.235,-1.812 0,36.734 -14.436,0 c 0,0 6.472,3.876 8.674,6.48 1.205,1.424 2.427,2.781 3.252,4.457 0.938,1.91 2.162,4.419 2.162,8.758 l 0,19.289 c 0,1.905 -1.161,6.019 -2.205,7.711 -2.032,3.289 -4.688,5.776 -8.313,7.055 -4.004,1.413 -10.184,1.285 -13.789,0.122 -2.034,-0.657 -5.389,-3.099 -5.389,-3.099 l -3.114,2.729 -7.23,-3.921 0,4.951 -23.108,0 -6.938,-5.451 0,5.451 -31.862,0 c 0,0 -2.475,-3.131 -3.771,-4.951 -2.532,1.883 -5.113,4.243 -8.575,4.788 -2.468,0.387 -4.833,0.416 -7.172,0.043 -2.635,-0.421 -4.934,-1.574 -7.106,-3.229 -1.678,-1.278 -3.102,-3.182 -4.518,-4.672 -4.387,2.695 -9.506,6.543 -12.999,7.654 -2.139,0.682 -7.884,0.743 -10.827,-0.513 -4.154,-1.773 -8.701,-7.236 -8.701,-7.236 0,0 -10.393,7.356 -13.524,8.019 -3.129,0.663 -6.578,0.604 -9.524,-0.49 -2.402,-0.891 -4.172,-2.233 -6.15,-3.925 -3.026,1.818 -7.31,4.477 -7.31,4.477 l -14.119,0 -0.753,-0.871 -1.468,0.871 -18.997,0 0,-18.558 c 0,0 2.371,-0.116 2.371,-2.186 l 0,-51.078 C 7.587,96.648 5,96.61 5,96.61 l 0,-18.868 36.88,0 -2.47,-5.152 4.619,-4.91 -7.843,0 c 0,0 11.225,-11.424 25.085,-19.973"
       id="path4055"
       inkscape:connector-curvature="0"
       style="fill:#4b90cd" /><path
       d="m 213.019,75.462 c 0,0 -5.807,-8.275 -19.895,-19.058 C 179.035,45.622 169.52,39.479 169.52,39.479 l -2.472,2.382 2.472,-2.382 c 0,0 8.939,1.367 22.491,10.28 11.245,7.397 19.277,14.507 19.277,14.507 l -8.773,0 M 43.229,73.079 c 0,0 9.761,-10.03 19.03,-16.549 9.267,-6.52 24.837,-16.549 24.837,-16.549 l 2.225,2.382 -2.225,-2.382 c 0,0 -12.233,2.007 -27.187,12.287 -14.425,9.917 -15.905,12.286 -15.905,12.286 l 8.227,0"
       id="path4057"
       inkscape:connector-curvature="0"
       style="fill:none;stroke:#fdb827;stroke-width:0.86629999" /><polygon
       points="204.368,72.077 128.742,8.763 56.081,68.063 "
       id="polygon4059"
       style="fill:#002d62" /><polygon
       points="115.766,40.357 113.172,33.085 93.151,40.983 128.742,11.772 165.442,42.99 143.075,33.837 142.952,43.366 134.302,35.218 129.36,48.382 123.057,34.842 "
       id="polygon4061"
       style="fill:#ffffff" /><path
       d="m 9.123,80.958 45.227,0 c 0,0 44.486,-10.763 72.167,-10.763 27.68,0 76.614,8.274 76.614,8.274 l 23.974,1.755 4.141,32.596 -14.582,0 16.867,21.313 -2.719,20.812 -16.064,6.521 -5.066,3.884 -13.346,-6.269 -13.839,8.651 -2.226,0.003 -12.232,-8.903 -26.168,8.903 -6.579,-9.029 -20.02,-3.761 -17.299,11.41 -15.448,-10.784 -17.671,10.89 -13.839,-8.257 -12.235,9.531 -8.402,-7.023 -8.279,7.023 -7.663,-10.284 -2.966,-71.083 -2.347,-5.41 z"
       id="path4063"
       inkscape:connector-curvature="0"
       style="fill:#002d62" /><path
       d="m 9.123,80.958 45.227,0 c 0,0 44.486,-10.763 72.167,-10.763 27.68,0 76.614,8.274 76.614,8.274 l 23.974,1.755 4.141,32.594 -14.582,0 16.867,21.314 -2.719,20.812 -16.064,6.521 -5.066,3.884 -13.346,-6.269 -13.839,8.651 -2.226,0.003 -12.232,-8.903 -26.168,8.903 -6.579,-9.029 -20.02,-3.761 -17.299,11.41 -15.448,-10.784 -17.671,10.89 -13.839,-8.257 -12.235,9.531 -8.402,-7.023 -8.279,7.023 L 14.436,157.45 11.47,86.367 9.123,80.958 Z"
       id="path4065"
       inkscape:connector-curvature="0"
       style="fill:none;stroke:#000000;stroke-width:0.1245" /><path
       d="m 7.67,80.978 12.327,0 10.257,48.141 0.125,-28.919 c 0,0 0.061,-3.365 -0.865,-4.305 -0.928,-0.939 -2.101,-2.172 -2.101,-2.172 l 0,-12.745 13.964,0 0,12.746 c 0,0 -1.237,1.546 -1.853,2.172 -0.619,0.628 -0.743,4.305 -0.743,4.305 l 0,67.535 -10.256,0 -9.763,-47.018 0,26.705 c 0,0 0.475,3.602 1.112,4.762 0.619,1.13 2.225,2.385 2.225,2.385 l 0,13.166 -14.429,0 0,-13.166 c 0,0 1.082,-0.626 1.947,-1.506 0.865,-0.879 0.988,-4.263 0.988,-4.263 l 0,-48.601 c 0,0 -0.494,-3.301 -1.11,-4.305 C 8.876,94.894 7.67,93.723 7.67,93.723 l 0,-12.745 z"
       id="path4067"
       inkscape:connector-curvature="0"
       style="fill:#fdb827" /><path
       d="m 7.67,80.977 12.327,0 10.257,48.142 0.125,-28.919 c 0,0 0.061,-3.365 -0.865,-4.305 -0.928,-0.939 -2.101,-2.172 -2.101,-2.172 l 0,-12.746 13.964,0 0,12.747 c 0,0 -1.237,1.546 -1.853,2.172 -0.619,0.628 -0.743,4.305 -0.743,4.305 l 0,67.535 -10.256,0 -9.763,-47.018 0,26.705 c 0,0 0.475,3.602 1.112,4.762 0.619,1.13 2.225,2.385 2.225,2.385 l 0,13.166 -14.429,0 0,-13.166 c 0,0 1.082,-0.626 1.947,-1.506 0.865,-0.879 0.988,-4.263 0.988,-4.263 l 0,-48.601 c 0,0 -0.494,-3.301 -1.11,-4.305 C 8.876,94.894 7.67,93.723 7.67,93.723 l 0,-12.746 z"
       id="path4069"
       inkscape:connector-curvature="0"
       style="fill:none;stroke:#ffffff;stroke-width:0.74680001" /><path
       d="m 42.611,101.411 0,12.787 c 0,0 1.134,0.082 1.731,0.753 1.111,1.255 0.741,4.013 0.741,4.013 l 0,34.478 c 0,0 1.112,14.417 13.839,14.417 12.729,0 13.841,-14.668 13.841,-14.668 l 0,-45.509 c 0,0 -0.125,-4.889 0.617,-5.769 0.741,-0.877 1.978,-2.631 1.978,-2.631 l 0,-13.29 c 0,0 -3.337,1.002 -8.65,3.26 -5.313,2.255 -6.797,2.882 -6.797,2.882 l 0,13.164 c 0,0 1.237,0.502 1.237,1.253 l 0,40.246 c 0,0 0.06,3.322 -2.288,3.322 -2.347,0 -2.285,-2.322 -2.285,-3.199 l 0,-35.478 c 0,0 -0.247,-2.761 0.248,-3.513 0.494,-0.753 0.988,-2.256 0.988,-2.256 l 0,-12.659 c 0,0 -3.707,1.63 -8.773,4.514 -5.068,2.881 -6.427,3.883 -6.427,3.883"
       id="path4071"
       inkscape:connector-curvature="0"
       style="fill:#fdb827" /><path
       d="m 42.611,101.411 0,12.787 c 0,0 1.134,0.082 1.731,0.753 1.111,1.255 0.741,4.013 0.741,4.013 l 0,34.476 c 0,0 1.112,14.419 13.839,14.419 12.729,0 13.841,-14.668 13.841,-14.668 l 0,-45.509 c 0,0 -0.125,-4.889 0.617,-5.769 0.741,-0.877 1.978,-2.631 1.978,-2.631 l 0,-13.29 c 0,0 -3.337,1.002 -8.65,3.26 -5.313,2.255 -6.797,2.882 -6.797,2.882 l 0,13.164 c 0,0 1.237,0.502 1.237,1.253 l 0,40.244 c 0,0 0.06,3.322 -2.288,3.322 -2.347,0 -2.285,-2.32 -2.285,-3.197 l 0,-35.478 c 0,0 -0.247,-2.761 0.248,-3.513 0.494,-0.753 0.988,-2.256 0.988,-2.256 l 0,-12.661 c 0,0 -3.707,1.632 -8.773,4.516 -5.068,2.881 -6.427,3.883 -6.427,3.883 z"
       id="path4073"
       inkscape:connector-curvature="0"
       style="fill:none;stroke:#ffffff;stroke-width:0.74680001" /><path
       d="m 104.097,87.819 2.093,-1.182 0,26.483 -12.048,0 0,-10.704 c 0,0 0.369,-3.26 -2.225,-3.26 -2.966,0 -2.719,3.007 -2.719,3.007 l 0,44.037 c 0,0 -0.247,3.98 2.597,3.98 2.841,0 2.348,-3.98 2.348,-3.98 l 0,-15.308 -1.854,0 0,-10.047 13.902,0 0,35.854 c 0,0 -4.51,11.157 -14.52,11.157 -10.01,0 -14.21,-10.531 -14.21,-12.287 l 0,-59.8 c 0,0 1.606,-14.042 14.952,-14.042 7.66,0.003 11.684,6.092 11.684,6.092"
       id="path4075"
       inkscape:connector-curvature="0"
       style="fill:#fdb827" /><path
       d="m 104.097,87.819 2.093,-1.182 0,26.483 -12.048,0 0,-10.704 c 0,0 0.369,-3.26 -2.225,-3.26 -2.966,0 -2.719,3.007 -2.719,3.007 l 0,44.037 c 0,0 -0.247,3.98 2.597,3.98 2.841,0 2.348,-3.98 2.348,-3.98 l 0,-15.308 -1.854,0 0,-10.047 13.902,0 0,35.854 c 0,0 -4.51,11.157 -14.52,11.157 -10.01,0 -14.21,-10.531 -14.21,-12.287 l 0,-59.8 c 0,0 1.606,-14.042 14.952,-14.042 7.66,0.003 11.684,6.092 11.684,6.092 z"
       id="path4077"
       inkscape:connector-curvature="0"
       style="fill:none;stroke:#ffffff;stroke-width:0.74680001" /><path
       d="m 139.059,83.107 0,30.014 -12.171,0 0,-13.964 c 0,0 0.248,-4.015 -2.596,-4.015 -2.841,0 -2.47,3.385 -2.47,3.889 l 0,47.17 c 0,0 -0.249,3.98 2.594,3.98 2.843,0 2.594,-3.98 2.594,-3.98 l 0,-15.308 -2.101,0 0,-10.047 14.148,0 0,35.854 c 0,0 -4.385,11.086 -14.272,11.086 -11.986,0 -15.119,-12.216 -15.119,-12.216 l 0,-64.688 c 0,0 1.28,-13.209 14.934,-13.209 7.478,0 11.836,6.439 11.836,6.439 l 2.623,-1.005 z"
       id="path4079"
       inkscape:connector-curvature="0"
       style="fill:#fdb827" /><path
       d="m 139.059,83.107 0,30.014 -12.171,0 0,-13.964 c 0,0 0.248,-4.015 -2.596,-4.015 -2.841,0 -2.47,3.385 -2.47,3.889 l 0,47.17 c 0,0 -0.249,3.98 2.594,3.98 2.843,0 2.594,-3.98 2.594,-3.98 l 0,-15.308 -2.101,0 0,-10.047 14.148,0 0,35.854 c 0,0 -4.385,11.086 -14.272,11.086 -11.986,0 -15.119,-12.216 -15.119,-12.216 l 0,-64.688 c 0,0 1.28,-13.209 14.934,-13.209 7.478,0 11.836,6.439 11.836,6.439 l 2.623,-1.005 z"
       id="path4081"
       inkscape:connector-curvature="0"
       style="fill:none;stroke:#ffffff;stroke-width:0.74680001" /><path
       d="m 141.871,78.846 c 0,0 3.06,-0.125 13.686,2.005 10.627,2.131 13.593,3.261 13.593,3.261 l 0,29.009 -9.143,0 c 0,0 0.369,-10.579 -1.237,-13.213 -1.05,-1.724 -2.594,-2.509 -2.594,-2.509 l 0,23.447 6.672,0 0,10.026 -6.921,0 0,21.189 c 0,0 2.968,-0.752 3.707,-4.64 0.618,-3.239 0.373,-9.779 0.373,-9.779 l 9.143,0 0,30.092 -27.278,0 0,-13.292 c 0,0 2.441,-0.629 2.441,-4.137 l 0,-53.281 c 0,-2.508 -2.441,-4.262 -2.441,-4.262 l 0,-13.916 z"
       id="path4083"
       inkscape:connector-curvature="0"
       style="fill:#fdb827" /><path
       d="m 141.871,78.846 c 0,0 3.06,-0.125 13.686,2.004 10.627,2.132 13.593,3.262 13.593,3.262 l 0,29.009 -9.143,0 c 0,0 0.369,-10.579 -1.237,-13.213 -1.05,-1.724 -2.594,-2.509 -2.594,-2.509 l 0,23.447 6.672,0 0,10.026 -6.921,0 0,21.189 c 0,0 2.968,-0.752 3.709,-4.64 0.616,-3.239 0.371,-9.779 0.371,-9.779 l 9.143,0 0,30.092 -27.278,0 0,-13.292 c 0,0 2.441,-0.629 2.441,-4.137 l 0,-53.281 c 0,-2.508 -2.441,-4.262 -2.441,-4.262 l 0,-13.916 z"
       id="path4085"
       inkscape:connector-curvature="0"
       style="fill:none;stroke:#ffffff;stroke-width:0.74680001" /><path
       d="m 172.734,85.115 c 0,0 6.056,1.129 17.67,6.644 11.615,5.516 15.695,8.024 15.695,8.024 l 0,13.338 -7.416,0 c 0,0 0.141,-2.688 -0.494,-4.563 -0.74,-2.194 -2.472,-3.511 -2.472,-3.511 l 0,42.501 c 0,0 0,3.009 0.988,4.388 0.989,1.378 2.1,2.382 2.1,2.382 l 0,13.417 -18.534,0 0,-13.166 c 0,0 1.358,-0.626 2.101,-1.754 0.741,-1.128 1.359,-5.143 1.359,-5.143 l 0,-44.649 c 0,0 -2.841,0.896 -2.841,4.532 l 0,5.565 -8.156,0 0,-28.005 z"
       id="path4087"
       inkscape:connector-curvature="0"
       style="fill:#fdb827" /><path
       d="m 172.734,85.115 c 0,0 6.056,1.128 17.67,6.644 11.615,5.516 15.695,8.024 15.695,8.024 l 0,13.338 -7.416,0 c 0,0 0.141,-2.688 -0.494,-4.563 -0.74,-2.194 -2.472,-3.511 -2.472,-3.511 l 0,42.501 c 0,0 0,3.009 0.988,4.388 0.989,1.378 2.1,2.382 2.1,2.382 l 0,13.417 -18.534,0 0,-13.166 c 0,0 1.358,-0.626 2.101,-1.754 0.741,-1.128 1.359,-5.143 1.359,-5.143 l 0,-44.649 c 0,0 -2.841,0.896 -2.841,4.532 l 0,5.565 -8.156,0 0,-28.005 z"
       id="path4089"
       inkscape:connector-curvature="0"
       style="fill:none;stroke:#ffffff;stroke-width:0.74680001" /><path
       d="m 236.744,84.612 2.842,-1.128 0,29.337 -11.49,0 0,-12.036 c 0,0 0.122,-5.141 -3.584,-5.141 -3.71,0 -3.215,5.141 -3.215,5.141 l 0,10.675 c 0,1.379 0.989,3.867 3.586,5.749 7.281,5.276 9.883,7.146 11.245,8.651 1.356,1.503 3.213,5.264 3.213,7.397 l 0,23.443 c 0,1.128 -2.226,11.031 -14.829,11.031 -6.551,0 -11.742,-4.764 -11.742,-4.764 l -3.088,2.381 0,-25.698 11.369,0 0,8.338 c 0,0 -0.371,4.196 3.336,4.196 3.709,0 3.337,-4.196 3.337,-4.196 l 0,-10.345 c 0,0 -0.618,-3.761 -2.472,-4.889 -5.763,-3.507 -10.382,-7.02 -12.357,-9.026 -1.605,-1.63 -3.337,-6.018 -3.337,-9.654 l 0,-19.681 c 0,-2.132 0.806,-6.708 3.584,-9.529 2.663,-2.701 6.673,-4.765 12.235,-4.765 7.413,0 11.367,4.513 11.367,4.513"
       id="path4091"
       inkscape:connector-curvature="0"
       style="fill:#fdb827" /><path
       d="m 236.744,84.612 2.842,-1.128 0,29.335 -11.49,0 0,-12.034 c 0,0 0.122,-5.141 -3.584,-5.141 -3.71,0 -3.213,5.141 -3.213,5.141 l 0,10.675 c 0,1.379 0.987,3.867 3.584,5.749 7.281,5.276 9.883,7.146 11.245,8.651 1.356,1.503 3.213,5.264 3.213,7.396 l 0,23.445 c 0,1.128 -2.226,11.031 -14.829,11.031 -6.551,0 -11.742,-4.764 -11.742,-4.764 l -3.088,2.381 0,-25.699 11.369,0 0,8.338 c 0,0 -0.371,4.196 3.336,4.196 3.709,0 3.337,-4.196 3.337,-4.196 l 0,-10.345 c 0,0 -0.618,-3.761 -2.472,-4.889 -5.763,-3.507 -10.382,-7.02 -12.357,-9.026 -1.605,-1.63 -3.337,-6.018 -3.337,-9.654 l 0,-19.683 c 0,-2.13 0.806,-6.706 3.584,-9.527 2.663,-2.703 6.673,-4.765 12.235,-4.765 7.413,0 11.367,4.513 11.367,4.513 z"
       id="path4093"
       inkscape:connector-curvature="0"
       style="fill:none;stroke:#ffffff;stroke-width:0.74680001" /><path
       d="m 43.229,73.079 c 0,0 34.723,-19.559 83.412,-19.559 48.687,0 86.377,22.065 86.377,22.065 l -11.493,17.052 c 0,0 -30.028,-18.681 -74.884,-18.681 C 81.784,73.956 53.98,90.63 53.98,90.63 L 43.229,73.079"
       id="path4095"
       inkscape:connector-curvature="0"
       style="fill:#4b90cd" /><path
       d="m 43.229,73.079 c 0,0 34.723,-19.559 83.412,-19.559 48.687,0 86.377,22.065 86.377,22.065 l -11.493,17.052 c 0,0 -30.028,-18.681 -74.884,-18.681 C 81.784,73.956 53.98,90.63 53.98,90.63 L 43.229,73.079"
       id="path4097"
       inkscape:connector-curvature="0"
       style="fill:none;stroke:#fdb827;stroke-width:0.86629999" /><path
       d="M 64.605,79.072 68.1,77.864 c 2.916,-1.008 3.629,-2.813 2.966,-4.79 -0.663,-1.978 -2.314,-2.964 -5.231,-1.957 l -3.495,1.208 2.265,6.747 z m -7.079,-7.368 c -0.072,-0.209 -0.208,-0.342 -0.912,-0.153 l -0.093,-0.278 9.135,-3.157 c 5.062,-1.749 8.32,0.085 9.483,3.55 1.069,3.188 -0.561,7.021 -5.677,8.789 l -8.832,3.052 -0.095,-0.279 c 0.673,-0.284 0.7,-0.476 0.63,-0.683 L 57.526,71.704 Z"
       id="path4099"
       inkscape:connector-curvature="0"
       style="fill:#ffffff" /><path
       d="m 95.738,68.741 -0.342,0.071 c -0.147,-0.295 -0.395,-0.496 -0.964,-0.377 l -5.298,1.092 0.447,2.24 9.145,-1.886 c 0.312,-0.064 0.403,-0.209 0.368,-0.829 l 0.34,-0.07 0.84,4.19 -0.342,0.07 C 99.765,72.85 99.627,72.754 99.313,72.818 L 85.1,75.75 85.042,75.461 c 0.702,-0.194 0.754,-0.381 0.71,-0.598 L 83.505,63.641 c -0.042,-0.216 -0.161,-0.368 -0.885,-0.27 l -0.058,-0.289 14.213,-2.931 c 0.315,-0.064 0.404,-0.208 0.379,-0.78 l 0.342,-0.07 0.838,4.19 -0.342,0.07 c -0.194,-0.536 -0.334,-0.633 -0.648,-0.569 l -9.143,1.887 0.401,1.998 5.298,-1.092 c 0.569,-0.119 0.719,-0.4 0.745,-0.73 l 0.34,-0.07 0.753,3.756 z"
       id="path4101"
       inkscape:connector-curvature="0"
       style="fill:#ffffff" /><path
       d="m 109.416,59.131 c -0.012,-0.22 -0.109,-0.387 -0.836,-0.395 l -0.016,-0.293 6.992,-0.399 0.018,0.296 c -0.667,0.062 -0.803,0.218 -0.795,0.365 0.014,0.27 5.284,4.498 7.419,6.271 l -0.362,-6.549 c -0.015,-0.295 -0.254,-0.404 -0.634,-0.406 l -0.016,-0.296 5.311,-0.301 0.016,0.294 c -0.724,0.091 -0.801,0.267 -0.788,0.488 l 0.632,11.432 c 0.012,0.221 0.108,0.388 0.836,0.396 l 0.016,0.294 -5.513,0.314 -0.018,-0.295 c 0.523,-0.029 0.664,-0.136 0.653,-0.309 -0.017,-0.319 -0.76,-0.596 -8.82,-7.398 l 0.424,7.704 c 0.012,0.22 0.109,0.388 0.837,0.396 l 0.017,0.294 -5.513,0.313 -0.018,-0.293 c 0.723,-0.09 0.801,-0.268 0.79,-0.487 l -0.632,-11.436 z"
       id="path4103"
       inkscape:connector-curvature="0"
       style="fill:#ffffff" /><path
       d="m 140.769,71.151 0.031,-0.293 c 0.35,-0.012 0.443,-0.076 0.455,-0.173 0.023,-0.22 -4.104,-10.655 -4.605,-11.994 -0.202,-0.567 -0.305,-0.701 -0.591,-0.758 l 0.028,-0.292 5.927,0.646 -0.031,0.293 c -0.465,-0.025 -0.592,0.06 -0.61,0.23 -0.02,0.195 0.352,0.829 3.259,7.87 4.123,-6.075 4.66,-6.734 4.691,-7.027 0.018,-0.172 -0.061,-0.254 -0.405,-0.316 l 0.032,-0.292 4.971,0.542 -0.031,0.293 c -0.237,0.023 -0.358,0.06 -0.467,0.27 -0.373,0.751 -7.013,10.728 -7.048,11.07 -0.015,0.123 0.12,0.235 0.381,0.264 l -0.035,0.318 -5.952,-0.651 z"
       id="path4105"
       inkscape:connector-curvature="0"
       style="fill:#ffffff" /><path
       d="m 172.146,72.179 -0.338,-0.086 c -0.008,-0.331 -0.148,-0.62 -0.713,-0.764 L 165.853,70 l -0.548,2.217 9.051,2.296 c 0.312,0.078 0.453,-0.012 0.685,-0.586 l 0.339,0.084 -1.023,4.148 -0.338,-0.085 c 0.016,-0.427 -0.066,-0.574 -0.377,-0.653 l -14.071,-3.568 0.072,-0.288 c 0.715,0.132 0.842,-0.014 0.895,-0.229 l 2.738,-11.108 c 0.052,-0.215 0.007,-0.404 -0.685,-0.63 l 0.07,-0.286 14.07,3.569 c 0.309,0.078 0.453,-0.013 0.671,-0.539 l 0.339,0.084 -1.021,4.148 -0.338,-0.086 c 0.05,-0.569 -0.033,-0.717 -0.345,-0.795 l -9.052,-2.295 -0.485,1.979 5.243,1.329 c 0.563,0.144 0.82,-0.044 0.984,-0.333 l 0.336,0.086 -0.917,3.72 z"
       id="path4107"
       inkscape:connector-curvature="0"
       style="fill:#ffffff" /><path
       d="m 189.71,75.125 4.542,1.821 c 1.594,0.64 2.312,0.241 2.571,-0.421 0.256,-0.663 0.003,-1.452 -1.592,-2.092 l -4.541,-1.821 -0.98,2.513 z m -2.44,6.262 c -0.077,0.206 -0.061,0.398 0.599,0.715 l -0.106,0.274 -5.568,-2.235 0.107,-0.273 c 0.691,0.226 0.836,0.098 0.916,-0.107 l 4.15,-10.65 c 0.079,-0.205 0.063,-0.398 -0.598,-0.714 l 0.107,-0.274 9.892,3.968 c 4,1.605 5.239,3.476 4.224,6.082 -0.816,2.103 -2.874,2.571 -5.324,2.198 l 1.711,5.072 c 0.129,0.395 0.327,0.606 0.624,0.726 l -0.106,0.275 -5.623,-2.256 0.107,-0.275 c 0.389,0.13 0.649,0.102 0.755,-0.172 0.081,-0.205 -1.557,-4.508 -1.72,-5.129 l -2.648,-1.062 -1.499,3.837 z"
       id="path4109"
       inkscape:connector-curvature="0"
       style="fill:#ffffff" /><polygon
       points="240.606,167.588 239.657,167.588 239.657,167.254 241.919,167.254 241.919,167.588 240.979,167.588 240.979,170.179 240.606,170.179 "
       id="polygon4111"
       style="fill:#002d62" /><polygon
       points="245,167.254 245,170.179 244.621,170.179 244.621,167.802 243.833,170.179 243.452,170.179 242.666,167.802 242.666,170.179 242.285,170.179 242.285,167.254 242.814,167.254 243.643,169.743 244.475,167.254 "
       id="polygon4113"
       style="fill:#002d62" /></g></svg>