<?xml version="1.0" encoding="UTF-8" standalone="no"?>
<!-- Generator: Adobe Illustrator 13.0.0, SVG Export Plug-In . SVG Version: 6.00 Build 14948)  -->

<svg
   xmlns:dc="http://purl.org/dc/elements/1.1/"
   xmlns:cc="http://creativecommons.org/ns#"
   xmlns:rdf="http://www.w3.org/1999/02/22-rdf-syntax-ns#"
   xmlns:svg="http://www.w3.org/2000/svg"
   xmlns="http://www.w3.org/2000/svg"
   xmlns:sodipodi="http://sodipodi.sourceforge.net/DTD/sodipodi-0.dtd"
   xmlns:inkscape="http://www.inkscape.org/namespaces/inkscape"
   version="1.1"
   id="Layer_1"
   x="0px"
   y="0px"
   width="39.999996"
   height="34.154991"
   viewBox="0 0 39.999996 34.154991"
   enable-background="new 0 0 300 250"
   xml:space="preserve"
   inkscape:version="0.91 r13725"
   sodipodi:docname="Detroit_Pistons_resized.svg"><metadata
     id="metadata259"><rdf:RDF><cc:Work
         rdf:about=""><dc:format>image/svg+xml</dc:format><dc:type
           rdf:resource="http://purl.org/dc/dcmitype/StillImage" /><dc:title></dc:title></cc:Work></rdf:RDF></metadata><defs
     id="defs257" /><sodipodi:namedview
     pagecolor="#ffffff"
     bordercolor="#666666"
     borderopacity="1"
     objecttolerance="10"
     gridtolerance="10"
     guidetolerance="10"
     inkscape:pageopacity="0"
     inkscape:pageshadow="2"
     inkscape:window-width="826"
     inkscape:window-height="480"
     id="namedview255"
     showgrid="false"
     fit-margin-top="0"
     fit-margin-left="0"
     fit-margin-right="0"
     fit-margin-bottom="0"
     inkscape:zoom="0.944"
     inkscape:cx="19.423106"
     inkscape:cy="17.918974"
     inkscape:window-x="0"
     inkscape:window-y="0"
     inkscape:window-maximized="0"
     inkscape:current-layer="Layer_1" /><path
     d="m 16.081806,19.999046 c 0,1.194 -0.71974,1.89442 -2.13907,2.07984 l -0.0189,0.002 c -0.92905,0.0853 -1.68483,0.16845 -2.45276,0.2662 l -0.45852,0.0573 -0.0104,-1.99493 -0.009,-0.30402 0,-0.001 c 0.39501,-0.0476 0.66604,-0.0793 0.86513,-0.10383 0.26246,-0.0366 0.52369,-0.0689 0.78684,-0.1012 -0.002,-0.35235 -0.007,-1.36866 -0.009,-1.71424 -0.5299,-0.10742 -1.326,-0.35705 -1.70872,-1.21058 -0.009,-0.0177 -0.0152,-0.0373 -0.0226,-0.058 l 0,4.76041 c -0.01,6.9e-4 -0.0171,0.002 -0.0244,0.005 l 0,0.7301 -0.3199,0.0464 c -0.6421496,0.0896 -1.3106696,0.19343 -2.0669996,0.31976 2.0444996,1.4457 5.3049496,2.86434 10.3693896,3.15056 0.0781,-1.30156 -0.49083,-2.67202 -1.38454,-4.09811 l -0.088,0.001 0,-0.14041 c -0.38824,-0.60501 -0.83088,-1.21969 -1.30818,-1.84472 l 0,0.15257 z"
     id="path3"
     inkscape:connector-curvature="0"
     style="fill:#ed174c" /><path
     d="m 7.8289864,14.029986 c 0.16913,-0.0293 0.32846,-0.0562 0.48475,-0.0837 l 0,-0.0351 c 0.75329,-0.13434 1.47856,-0.25612 2.2263296,-0.3663 0.12205,-0.0199 0.2448,-0.0363 0.3645,-0.055 l 0,1.02018 c 0.0819,-0.3025 0.23996,-0.56014 0.46156,-0.76517 -1.31758,-1.95365 -2.3686796,-4.0249305 -2.6373596,-6.2061105 -1.69822,1.98402 -2.82154,4.3926005 -3.27937,6.9489105 0.0305,-0.007 0.0634,-0.0146 0.0946,-0.0202 0.14165,-0.033 0.36325,-0.0805 0.47067,-0.10438 0.0293,-0.008 0.05,-0.0108 0.0585,-0.0144 0.0439,-0.009 0.0862,-0.0174 0.13006,-0.0257 0,0 0.007,-0.001 0.01,-0.003 0.008,0 0.0141,-0.002 0.0116,-0.002 5.5e-4,0 0.002,0 0.004,0.002 0.0269,-0.005 0.0648,-0.009 0.0769,-0.0119 0.51955,-0.0501 0.85712,0.0156 1.07568,0.20241 0,5.5e-4 0,5.5e-4 10e-4,5.5e-4 0.0146,0.0138 0.0305,0.0277 0.0439,0.0428 0.002,0.002 0.005,0.004 0.007,0.006 0.011,0.0131 0.0244,0.0275 0.0366,0.0424 0.004,0.002 0.005,0.006 0.009,0.0108 0.0146,0.0162 0.0282,0.0358 0.0403,0.0562 l 0,-0.58513 0.31024,-0.0533 z"
     id="path5"
     inkscape:connector-curvature="0"
     style="fill:#ed174c" /><path
     d="m 5.8071264,20.014926 c 0,0 -0.0214,0.006 -0.0555,0.0135 0.32529,0.4969 0.88694,1.22092 1.77955,1.99493 -0.007,-1.04752 -0.01,-2.09089 -0.01,-3.12129 -0.34019,0.55255 -0.92367,0.93941 -1.71424,1.11283"
     id="path7"
     inkscape:connector-curvature="0"
     style="fill:#ed174c" /><path
     d="m 7.5358664,22.822516 c -0.79237,-0.63677 -1.37225,-1.26193 -1.78493,-1.79225 0.64588,2.32519 1.86073,4.46675 3.58215,6.25223 0.9822096,1.01769 2.0883996,1.87481 3.2818496,2.55852 2.00046,0.33509 3.56145,0.11349 4.63464,-0.67156 0.81197,-0.59465 1.326,-1.49499 1.53655,-2.67436 -5.61257,-0.30775 -9.0647996,-1.96262 -11.1282096,-3.57662 l -0.12081,0.0206 -10e-4,-0.11653 z"
     id="path9"
     inkscape:connector-curvature="0"
     style="fill:#ed174c" /><path
     d="m 32.356186,22.782756 c -0.22532,-0.0414 -0.45783,-0.0824 -0.69655,-0.1233 l -0.41944,-0.0758 -0.4316,-0.0677 c -0.81128,-0.13006 -1.64576,-0.24728 -2.54996,-0.35842 l -0.1001,-0.0121 c -0.44568,1.14264 -0.79679,2.22813 -1.00734,3.1743 2.33333,-0.57132 4.03046,-1.47842 5.20499,-2.53698"
     id="path11"
     inkscape:connector-curvature="0"
     style="fill:#ed174c" /><path
     d="m 31.984376,13.841386 c 0.79982,0.13669 1.56954,0.28635 2.36688,0.45259 -0.42124,-2.18298 -1.32779,-4.19724 -2.60312,-5.9261205 0.45121,1.57134 0.6173,3.3856805 0.10507,5.4651105 0.0409,0.008 0.0842,0.0149 0.13117,0.0232 l 0,-0.0148 z"
     id="path13"
     inkscape:connector-curvature="0"
     style="fill:#ed174c" /><path
     d="m 12.694326,13.279316 c 0,0.002 0,0.007 0.002,0.0131 -0.002,-0.003 -0.002,-0.01 -0.002,-0.0131"
     id="path15"
     inkscape:connector-curvature="0"
     style="fill:#ed174c" /><path
     d="m 22.143226,11.812076 c -0.008,-10e-4 -0.0166,-0.002 -0.0244,-0.003 l -0.013,0 c -0.43284,-0.0583 -0.65554,-0.23568 -0.77345,-0.4102 0,0.0308 -0.002,0.1596 -0.002,0.1596 -0.002,0.058 -0.002,0.1175 -0.004,0.17549 -0.56663,0 -1.13243,-0.002 -1.69712,-0.009 0.0146,-1.01521 0.0293,-2.0316605 0.0421,-3.0461805 -0.0128,0.011 -0.0244,0.0229 -0.0398,0.0354 -0.0598,0.05 -0.13309,0.0875 -0.21607,0.11749 -0.0122,0.84829 -0.0238,1.6729605 -0.0378,2.5255305 -0.0391,5.5e-4 -0.0763,0.002 -0.11294,0.004 -0.002,0.13061 -0.002,0.21055 -0.002,0.21055 -0.003,0.0532 -0.005,0.10742 -0.009,0.16182 -0.56469,0.0262 -1.13063,0.0501 -1.69588,0.0688 0,0 0.0312,-2.4708405 0.0342,-2.8149105 -0.0928,0.005 -0.25888,0.0138 -0.39557,0.0207 -0.002,0.005 -0.002,0.0106 -0.002,0.0156 0,0.001 -0.57809,0.0482 -0.89067,0.0726 -0.001,0.0486 -0.001,0.095 -0.001,0.14386 0.23802,-0.0232 0.46211,-0.0451 0.69226,-0.0589 -0.004,0.32266 -0.008,0.63 -0.011,0.9584605 -0.0396,0.002 -0.0794,0.004 -0.11777,0.007 0,0.0726 0,0.14442 -0.002,0.21649 -0.004,0.0507 -0.006,0.10258 -0.009,0.15436 0,0 -0.34489,0.0287 -0.57256,0.0479 -0.002,0.0726 -0.004,0.14469 -0.005,0.21773 0.35041,-0.034 0.67708,-0.0602 1.01217,-0.0889 0,0.26192 -0.005,0.51154 -0.008,0.76821 -0.0384,0.003 -0.0764,0.006 -0.11473,0.009 -0.002,0.11805 -0.004,0.23748 -0.006,0.35622 -0.0653,0.006 -0.13185,0.0101 -0.19895,0.0149 -0.71298,0.0519 -1.437,0.12384 -2.22509,0.21525 -0.0885,0.0106 -0.17645,0.0226 -0.26619,0.0326 0.002,-0.13061 0.003,-0.25943 0.005,-0.38825 -0.16844,0.2662 -0.46211,0.44927 -0.84856,0.50947 -0.63552,0.0919 -1.24716,0.19316 -1.91748,0.32253 -0.0988,0.0186 -0.19536,0.0367 -0.29242,0.0562 0,0 0.0342,-2.58351 0.0373,-2.8817405 -0.12206,-0.0189 -0.23265,-0.0558 -0.33206,-0.12757 -0.10562,-0.0794 -0.23678,-0.23071 -0.23443,-0.48379 0.001,-0.0195 0.004,-0.0393 0.005,-0.0601 0,-0.008 10e-4,-0.0144 0.004,-0.0219 0.0134,-0.0754 0.0268,-0.15243 0.0403,-0.22684 0.0421,-0.009 0.0867,-0.0168 0.13061,-0.0269 0.13669,-0.0257 0.27351,-0.0519 0.41144,-0.0769 l 0,-0.006 c 0.85036,-0.16968 1.66716,-0.31134 2.53105,-0.43712 l 0.004,0 c 0.23499,-0.025 0.39804,-0.0113 0.51278,0.0418 l 0,-0.10742 c 0.0598,-0.006 0.11846,-0.0131 0.17824,-0.0202 0.13061,-0.0138 0.25943,-0.0262 0.38576,-0.0406 l 0,-0.0161 c 0.64588,-0.0739 1.25752,-0.13365 1.89249,-0.18501 l 0,-0.003 c 0.066,-0.005 0.13061,-0.01 0.1984,-0.0149 0.0385,-0.003 0.0787,-0.005 0.11667,-0.007 0.0104,-5.5e-4 0.0207,-5.5e-4 0.0305,-0.002 l 0,10e-4 c 0.0732,-0.005 0.14704,-0.009 0.21856,-0.0119 l 0,-0.004 c 0.78146,-0.0501 1.52247,-0.0801 2.31732,-0.092 0.0482,0 0.10258,0 0.16112,5.5e-4 0.004,0.008 0.004,0.0174 0.004,0.028 l 0.2198,0 0,-0.0315 c 0.53115,-0.004 1.05249,0.003 1.58294,0.0177 -0.58305,-2.65062 -1.30086,-4.52667 -2.07307,-5.41486 -3.76827,0.038 -7.32184,1.48685 -10.0475596,4.11371 -0.16168,0.15685 -0.3199,0.31631 -0.47247,0.47744 0.13793,2.26941 1.1915196,4.4047505 2.5895896,6.4638805 0.0635,-0.0302 0.13061,-0.0507 0.20144,-0.0657 0.33827,-0.0882 0.79789,-0.1208 1.03896,-0.14952 l -0.0305,0.006 c 0.007,-5.5e-4 0.0135,-0.002 0.0207,-0.002 0.0282,0 0.0574,-0.008 0.0831,-0.0113 0.31258,-0.0406 1.7997,-0.18252 2.99122,-0.25694 0.022,-0.001 0.0416,-0.003 0.061,-0.003 0.0983,-0.008 0.15753,-0.0119 0.15753,-0.0119 l 0.0507,-0.002 c 0.0196,0 0.0409,-0.002 0.0616,-0.003 l 0.004,0 c 0.30955,-0.0144 0.61592,-0.0275 0.92243,-0.0378 1.5128,-0.0671 2.97424,-0.0821 4.50278,-0.0494 0.12343,0 0.24051,0.008 0.34199,0.008 0.0213,0.0996 0.0213,0.19385 0.0213,0.29629 l 0,0.0507 c 0,0.0995 -0.0128,0.30555 -0.10368,0.53073 0.15311,-0.1556 0.33992,-0.28635 0.55116,-0.39376 -0.0548,-0.50975 -0.11598,-1.01328 -0.18128,-1.51142 -0.12647,-0.006 -0.25336,-0.0112 -0.38024,-0.0177"
     id="path17"
     inkscape:connector-curvature="0"
     style="fill:#ed174c" /><path
     d="m 14.894426,15.617206 c 0.1215,0.0393 0.23693,0.0751 0.33827,0.11819 0.1654,0.0583 0.27102,0.11501 0.36753,0.17824 0.28456,0.17769 0.43284,0.387 0.45852,0.66203 0.007,0.10563 0.0116,0.26744 0.0152,0.49139 0.0121,0.23623 0.0159,0.64049 0.0159,1.38094 l -0.002,0.48641 c 0.46156,0.58789 0.90172,1.16971 1.3028,1.74351 l 0,-5.26063 c -0.38824,0.0169 -1.34173,0.055 -1.34173,0.055 l 0,-0.4969 c -0.28332,0.30678 -0.65748,0.48379 -1.12456,0.52493 0,0 -0.12951,0.0108 -0.29615,0.0262 0.0715,0.0257 0.14704,0.0507 0.2296,0.0776 0,0.0131 0.0202,0.009 0.0371,0.0131"
     id="path19"
     inkscape:connector-curvature="0"
     style="fill:#ed174c" /><path
     d="m 19.424136,25.954846 c 1.06836,0.0416 2.21114,0.0341 3.4369,-0.0342 0.13061,-1.25628 0.20627,-2.63046 0.23264,-4.06939 -0.81073,-0.25032 -1.5353,-0.77773 -1.54331,-1.96069 l 0,-4.5304 c 0.002,-0.16112 0.0146,-0.31617 0.0373,-0.46308 -0.0244,0.022 -0.0489,0.0442 -0.0744,0.0674 l -0.01,0.008 c -0.19661,0.15284 -0.26854,0.25819 -0.53225,0.32322 l 0,6.49467 -2.83618,0.033 c 0.84401,1.41036 1.36825,2.78744 1.289,4.1318"
     id="path21"
     inkscape:connector-curvature="0"
     style="fill:#ed174c" /><path
     d="m 26.540246,25.459046 c 0.24908,-1.27698 0.75399,-2.76162 1.38882,-4.27497 l 0,-0.0539 c -0.0763,0.12026 -0.17148,0.23375 -0.28138,0.33647 -0.57684,0.52314 -1.52923,0.72278 -3.00959,0.62945 -0.28331,-0.0226 -0.63179,-0.0494 -0.99201,-0.11294 -0.0244,1.36258 -0.0958,2.67988 -0.21801,3.90095 1.13685,-0.084 2.17277,-0.2274 3.11217,-0.42511"
     id="path23"
     inkscape:connector-curvature="0"
     style="fill:#ed174c" /><path
     d="m 31.261036,13.901176 0,-0.17424 c 0,0 0.0146,0.003 0.0439,0.008 0.66479,-2.61734 0.18694,-4.7790505 -0.60432,-6.6320505 -2.56391,-2.77032 -6.18278,-4.55843 -10.22773,-4.71071 0.86927,1.25917 1.50106,3.37491 1.9437,5.44591 0.32239,0.0661 0.46764,0.20062 0.53225,0.43685 0.19661,-0.17065 0.46156,-0.24479 0.70083,-0.27227 0.0763,-0.0113 0.15381,-0.0152 0.23071,-0.0164 0.0476,-0.01 0.0928,-0.0179 0.1429,-0.025 0.19951,-0.0269 0.41448,-0.0174 0.64588,0.004 0.36132,0.0323 0.74225,0.0699 0.99864,0.25004 l 0,-0.0764 c 0.18805,0.0275 0.37609,0.0532 0.56469,0.0782 l 0,-0.0831 c 0.3547,0.0436 0.69172,0.0925 1.05125,0.14097 0.0544,0.0101 0.1099,0.0189 0.17023,0.0232 0,0.0327 -0.002,0.0638 -0.002,0.0958 0.0683,0.0104 0.13503,0.0217 0.20337,0.033 l 0,-0.0954 c 0.77898,0.11749 1.5262,0.25004 2.29896,0.40992 0.0587,0.0119 0.10797,0.0244 0.16361,0.0363 0,0.0431 0,0.0817 0.006,0.12688 l 0,0.0257 c 0,0.0585 -0.0141,0.2082 -0.12757,0.32445 -0.0244,0.13848 -0.10135,0.31797 -0.31866,0.44375 -0.0514,0.028 -0.10866,0.0424 -0.16734,0.0562 -0.0116,0.8146005 -0.0244,1.6046205 -0.0335,2.4252905 -0.0409,-0.007 -0.0787,-0.0149 -0.11791,-0.0204 -0.001,0.14676 -0.002,0.23816 -0.002,0.23816 -0.004,0.0776 -0.006,0.1545 -0.009,0.23195 -0.56055,-0.0977 -1.12207,-0.19812 -1.68372,-0.30126 0,0 0.0355,-2.5379505 0.0355,-2.7844005 -0.086,-0.0126 -0.17576,-0.0269 -0.26247,-0.0406 -0.0109,0.7731805 -0.0225,1.5383505 -0.0353,2.3274005 -0.0374,-0.006 -0.0733,-0.0113 -0.11239,-0.0166 0,0.0769 -5.5e-4,0.1545 -0.003,0.2314 -0.002,0.0739 -0.005,0.14566 -0.007,0.21884 -0.55669,-0.0733 -1.11103,-0.14953 -1.66772,-0.22837 0.002,-0.13861 0.004,-0.27806 0.007,-0.41696 -0.0298,0.0302 -0.0641,0.0595 -0.10065,0.0857 -0.29104,0.20061 -0.76544,0.28262 -1.41864,0.23264 -0.0152,-0.001 -0.0323,-0.002 -0.0476,-0.004 -0.23692,-0.0196 -0.65817,-0.0583 -0.98042,-0.24078 0.0621,0.47122 0.11957,0.95445 0.17328,1.44652 0.11059,-0.03 0.22726,-0.0567 0.34986,-0.0776 0.005,0 0.0104,-10e-4 0.0152,-10e-4 0.12633,-0.0381 0.26136,-0.0693 0.40536,-0.0931 0.35773,-0.0589 0.76683,-0.065 1.36259,-0.0238 l 0.004,5.6e-4 c 1.03467,0.0805 2.09572,0.16637 2.54678,1.0384 l 0,-0.6184 0.65872,-0.0229 c 0.18004,-0.005 0.39059,0.008 0.61785,0.0449 0.5531,0.0333 1.33759,0.24576 1.96318,0.84027 0.032,-0.10948 0.0645,-0.21814 0.0937,-0.32583"
     id="path25"
     inkscape:connector-curvature="0"
     style="fill:#ed174c" /><path
     d="m 27.281396,28.361216 c 0.33205,0.3986 0.95404,0.45479 1.84292,0.17272 0.34199,-0.2753 0.67459,-0.56469 0.9938,-0.87355 1.40774,-1.35513 2.50592,-2.94607 3.26667,-4.68282 -0.11418,-0.0219 -0.22767,-0.0451 -0.3424,-0.0671 -1.28748,1.28126 -3.23795,2.3753 -6.00827,3.01635 -0.18377,1.11337 -0.13061,1.97961 0.24728,2.4344"
     id="path27"
     inkscape:connector-curvature="0"
     style="fill:#ed174c" /><path
     d="m 26.848006,28.721436 c -0.46709,-0.56152 -0.56594,-1.50424 -0.40716,-2.66829 -0.93513,0.18681 -1.9589,0.32225 -3.07379,0.39984 -0.25322,2.16172 -0.67695,3.98393 -1.30819,5.16703 2.1787,-0.31493 4.24391,-1.11586 6.06557,-2.34908 -0.54509,-0.006 -0.97434,-0.18625 -1.27643,-0.5495"
     id="path29"
     inkscape:connector-curvature="0"
     style="fill:#ed174c" /><path
     d="m 19.352066,26.521886 c -0.22837,1.34602 -0.83393,2.41686 -1.7685,3.10361 -0.90711,0.66245 -2.10056,0.97254 -3.55965,0.92864 1.75193,0.76613 3.65477,1.18558 5.62485,1.22217 0.57685,0.01 1.14651,-0.0164 1.71121,-0.0708 0.6855,-1.02308 1.15921,-2.88933 1.44004,-5.21576 -1.22825,0.0645 -2.376,0.0718 -3.44795,0.0322"
     id="path31"
     inkscape:connector-curvature="0"
     style="fill:#ed174c" /><path
     d="m 36.238216,19.645596 c -0.22656,-0.12219 -0.45962,-0.25819 -0.67942,-0.42194 -0.0842,0.62517 -0.20821,1.28941 -0.36395,1.88766 l 0.10673,0.025 0,-0.005 c 0.32238,0.0776 0.63,0.14829 0.94134,0.2216 10e-4,-0.17341 10e-4,-0.42193 10e-4,-0.63676 0,-0.40095 -0.002,-0.82095 -0.006,-1.07071"
     id="path33"
     inkscape:connector-curvature="0"
     style="fill:#0067b1" /><path
     d="M 4.3041264,14.754016 C 5.4676264,7.0493155 12.204746,1.1446055 20.201866,1.2895755 c 7.77856,0.14193 14.1585,5.9141 15.31661,13.3523305 0.23306,-0.0287 0.4969,-0.009 0.78988,0.0638 l 0,0.002 c 0.0196,0.006 0.19606,0.0525 0.22478,0.0595 0.005,10e-4 0.0128,0.002 0.0196,0.004 l -0.004,0 c 0.0826,0.0214 0.1857,0.0476 0.30044,0.0769 -0.46888,-3.60121 -2.07198,-6.9497505 -4.64679,-9.6190005 -3.16891,-3.2871 -7.42083,-5.14285997 -11.97677,-5.22624997 -8.82994,-0.16099 -16.2373796,6.50461997 -17.2647296,15.09115047 0.23015,-0.0607 0.46335,-0.11998 0.69351,-0.1777 0.21842,-0.0573 0.43339,-0.11169 0.64946,-0.16167"
     id="path35"
     inkscape:connector-curvature="0"
     style="fill:#0067b1" /><path
     d="m 34.609446,23.228576 0,-0.36823 c 0,6.9e-4 -0.002,6.9e-4 -0.002,0.003 l 0,0.36519 -0.13682,-0.0294 c -2.43744,5.77258 -8.20588,9.78771 -14.84277,9.66621 -7.19743,-0.13061 -13.2483596,-5.17006 -15.0205896,-11.80391 l 0,1.81172 c -0.002,6.9e-4 -0.002,6.9e-4 -0.003,6.9e-4 l 0,0.63373 0,0.004 -0.23803,0.0605 c -0.0745,0.0164 -0.14773,0.0348 -0.22104,0.0512 2.52842,6.07289 8.4719296,10.40308 15.4593696,10.52873 4.55456,0.0842 8.87191,-1.6158 12.15971,-4.78541 1.75207,-1.6916 3.09698,-3.68846 3.98516,-5.87641 -0.27406,-0.0653 -0.55254,-0.12813 -0.85284,-0.19592 l -0.28731,-0.0653 z"
     id="path37"
     inkscape:connector-curvature="0"
     style="fill:#0067b1" /><path
     d="m 16.086086,19.098566 -0.004,0.74791 c 0.47744,0.62503 0.91994,1.23971 1.30819,1.84472 l 0,-1.01341 c -0.40109,-0.57381 -0.84125,-1.15563 -1.30281,-1.74352 l -10e-4,0.1643 z"
     id="path39"
     inkscape:connector-curvature="0"
     style="fill:#ffffff" /><path
     d="m 33.384786,22.977566 c -0.76075,1.73675 -1.85893,3.32769 -3.26667,4.68282 -0.31934,0.30886 -0.65195,0.59825 -0.9938,0.87355 -0.88888,0.28207 -1.51073,0.22588 -1.84292,-0.17272 -0.37789,-0.45479 -0.43105,-1.32103 -0.24728,-2.43454 2.77018,-0.64104 4.72065,-1.73495 6.00827,-3.01635 -0.22409,-0.0434 -0.45176,-0.0849 -0.6862,-0.12771 -1.17453,1.05856 -2.87166,1.96566 -5.20485,2.53712 0.21055,-0.94631 0.56166,-2.03166 1.00734,-3.1743 l -0.22961,-0.0269 0,-0.93458 c -0.63483,1.51335 -1.13974,2.99799 -1.38882,4.27497 -0.93954,0.19785 -1.97546,0.3413 -3.11217,0.42497 0.12219,-1.22106 0.19357,-2.53836 0.21801,-3.90095 -0.18377,-0.0316 -0.37002,-0.0757 -0.55254,-0.13185 -0.0262,1.43894 -0.1019,2.81312 -0.23265,4.06939 -1.22576,0.0683 -2.36854,0.0758 -3.4369,0.0342 0.0794,-1.34422 -0.44499,-2.72144 -1.28927,-4.13166 l -0.65692,0.007 c 0.8937,1.42609 1.46268,2.79655 1.38453,4.09811 -5.06444,-0.28622 -8.32489,-1.70499 -10.3693896,-3.15056 -0.17023,0.0275 -0.34544,0.0567 -0.52631,0.088 l -0.30886,0.0526 c 2.06342,1.614 5.5156496,3.26901 11.1282096,3.57662 -0.21055,1.17937 -0.72457,2.07971 -1.53655,2.67436 -1.07319,0.78519 -2.63418,1.00665 -4.63463,0.67156 -1.19346,-0.68371 -2.29965,-1.54083 -3.2818596,-2.55852 -1.72156,-1.78562 -2.93641,-3.92704 -3.58215,-6.25223 0.41268,0.53045 0.99257,1.15548 1.78493,1.79225 l -0.004,-0.32045 c 0,-0.16002 -0.001,-0.3188 -0.001,-0.47868 -0.89247,-0.77401 -1.45412,-1.49817 -1.77955,-1.99493 -0.29422,0.0648 -0.94369,0.20392 -1.14402,0.24714 l 0,0.2985 0,0.47688 c 1.80274,6.5905 7.8542196,11.68365 15.0205896,11.81426 6.63689,0.1215 12.40533,-3.89363 14.84277,-9.66621 l -0.31065,-0.0653 c -0.25874,-0.0543 -0.51582,-0.10562 -0.77525,-0.15615 m -13.73602,8.7986 c -1.97008,-0.0366 -3.87278,-0.45603 -5.62485,-1.22217 1.45895,0.0439 2.65241,-0.26619 3.55965,-0.92864 0.93457,-0.68674 1.54013,-1.75745 1.7685,-3.10361 1.07195,0.0396 2.2197,0.0323 3.44781,-0.0323 -0.28069,2.32657 -0.75454,4.19269 -1.44004,5.21576 -0.56456,0.0545 -1.13422,0.0808 -1.71107,0.071 m 2.4101,-0.15629 c 0.63111,-1.18296 1.05497,-3.00531 1.30819,-5.16702 1.11475,-0.0776 2.13852,-0.21304 3.07379,-0.39985 -0.15864,1.16419 -0.0599,2.10677 0.40716,2.66829 0.30209,0.36325 0.73134,0.54384 1.27643,0.54937 -1.82152,1.23335 -3.88673,2.03428 -6.06557,2.34921"
     id="path41"
     inkscape:connector-curvature="0"
     style="fill:#ffffff" /><path
     d="m 22.824316,11.494106 c -0.002,0.0537 -0.002,0.10507 -0.004,0.15823 l 0,0.19039 c -0.0989,-0.005 -0.19841,-0.009 -0.29726,-0.0128 0.0654,0.49815 0.12647,1.00168 0.18128,1.51142 0.16237,-0.0815 0.34241,-0.14952 0.53957,-0.20144 -0.0537,-0.49193 -0.11115,-0.97516 -0.17328,-1.44652 -0.0929,-0.0537 -0.17824,-0.1186 -0.24672,-0.19924"
     id="path43"
     inkscape:connector-curvature="0"
     style="fill:#ffffff" /><path
     d="m 34.607646,18.101866 0,4.76152 c 0,-0.002 0.002,-0.002 0.002,-0.003 l 0,-1.46503 0,-0.42179 0.5854,0.13792 c 0.15574,-0.59824 0.27959,-1.26248 0.36395,-1.88765 -0.3761,-0.27958 -0.71809,-0.63552 -0.95115,-1.12193"
     id="path45"
     inkscape:connector-curvature="0"
     style="fill:#ffffff" /><path
     d="m 31.167566,14.227146 c 0.0312,0.0298 0.063,0.0598 0.0935,0.091 l 0,-0.41696 c -0.0293,0.10769 -0.0617,0.21635 -0.0935,0.32597"
     id="path47"
     inkscape:connector-curvature="0"
     style="fill:#ffffff" /><path
     d="m 8.7287664,7.5389055 c 0.26868,2.18118 1.3199196,4.2524605 2.6372196,6.2059705 0.13185,-0.12177 0.28331,-0.23291 0.4628,-0.30858 -1.39793,-2.05913 -2.4516596,-4.1944705 -2.5895896,-6.4638805 0.15257,-0.16113 0.31066,-0.32046 0.47247,-0.47744 2.7257196,-2.62686 6.2792896,-4.07574 10.0476896,-4.11329 0.77221,0.88818 1.49002,2.76424 2.07308,5.41485 0.14152,0.005 0.28635,0.009 0.42967,0.0144 l 0.009,0 c 0.004,0 0.009,0.003 0.0116,0.003 0.0494,0.007 0.0922,0.0149 0.13378,0.0244 -0.44264,-2.071 -1.07443,-4.18688 -1.9437,-5.44591 4.04495,0.15228 7.66382,1.94039 10.22773,4.71071 0.79112,1.853 1.26911,4.0147105 0.60432,6.6320505 0.0831,0.0149 0.28331,0.0501 0.54826,0.0979 0.51223,-2.07957 0.34614,-3.8937705 -0.10507,-5.4651105 1.27519,1.7288805 2.18188,3.7431405 2.60312,5.9261205 0.0703,0.0149 0.13793,0.0293 0.20945,0.0436 l 0,0.0101 0.0471,0.0101 0,0.86817 c 0.0915,-0.16541 0.21718,-0.30251 0.37665,-0.40385 0.15449,-0.0968 0.33274,-0.1556 0.53418,-0.18004 -1.15811,-7.4382205 -7.53805,-13.2105305 -15.31661,-13.3523305 -7.99712,-0.14497 -14.7342496,5.75975 -15.8977396,13.4644405 0.0416,-0.009 0.0837,-0.0202 0.12509,-0.0293 0.0953,-0.0232 0.19053,-0.0464 0.28759,-0.0696 0.243,-0.0574 0.48655,-0.11805 0.73259,-0.17065 0.45769,-2.55576 1.58101,-4.9606205 3.27923,-6.9458805"
     id="path49"
     inkscape:connector-curvature="0"
     style="fill:#ffffff" /><path
     d="m 4.6044264,23.511056 0,-0.004 0,-0.63373 c -0.88694,0.20876 -1.76795,0.42194 -2.65489,0.67336 l 0,-6.49717 c -0.6514,0.10245 -0.93831,-0.14593 -1.06284002,-0.3395 -0.0587,-0.0991 -0.14718,-0.33509 -0.15146,-0.56898 0.004,-0.13434 0.0335,-0.2597 0.11418,-0.36173 0.0373,-0.0446 0.0641,-0.0852 0.10686,-0.13061 0.63981002,-0.18653 1.27160002,-0.36202 1.89677002,-0.52839 -0.76365,0.19509 -1.54331,0.42649 -2.36067002,0.659 l -0.1099,0.0311 c 0,0 -0.39501,0.34338 -0.38217000022,0.80341 l 0,0.0186 c 0.004,0.29064 0.11114000022,0.5092 0.20875000022,0.66728 0.1331,0.20752 0.42912,0.50478 1.01701002,0.5317 l 0,6.53568 0.47246,-0.13116 c 0.82785,-0.23085 1.65805,-0.43036 2.44683,-0.61357 0.0732,-0.0164 0.14649,-0.0348 0.22104,-0.0512 l 0.23803,-0.0605 z"
     id="path51"
     inkscape:connector-curvature="0"
     style="fill:#002d62" /><path
     d="m 3.6545264,14.915826 c 0.22891,-0.0585 0.45783,-0.11473 0.68743,-0.17065 -0.0134,0.004 -0.0257,0.006 -0.0378,0.009 -0.21607,0.05 -0.43104,0.10438 -0.6496,0.16181"
     id="path53"
     inkscape:connector-curvature="0"
     style="fill:#002d62" /><path
     d="m 5.8071264,20.014926 c 0.79057,-0.17342 1.37418,-0.56042 1.71424,-1.11296 0,1.03053 0.002,2.0739 0.01,3.12128 0,0.15988 0.001,0.31866 0.001,0.47868 l 0.004,0.32045 10e-4,0.11653 0.12081,-0.0206 0.30886,-0.0526 c 0.18073,-0.0312 0.35593,-0.0605 0.52631,-0.0879 0.75647,-0.12634 1.42485,-0.23016 2.0669996,-0.31977 l 0.3199,-0.0464 0,-0.7301 c -0.85836,0.12385 -1.6940796,0.26067 -2.5529996,0.40896 -0.022,-2.7514 -0.009,-5.39318 -0.0134,-8.14417 -0.15629,0.0275 -0.31562,0.0544 -0.48475,0.0837 l -0.3101,0.0532 0,0.58513 c 0.27599,0.41199 0.26619,1.1715 0.26619,2.32256 0,0.0514 -0.004,0.0989 -0.004,0.14898 l 0,0.12025 c -0.008,1.06464 -0.64463,1.77582 -1.73923,2.02006 -0.48337,0.10383 -0.94811,0.20876 -1.43465,0.32363 l 0,0.67197 c 0.31258,-0.0677 0.96274,-0.20751 1.14402,-0.24714 0.0341,-0.008 0.0555,-0.0137 0.0555,-0.0137"
     id="path55"
     inkscape:connector-curvature="0"
     style="fill:#002d62" /><path
     d="m 5.5439764,14.467666 c 0.16416,-0.0381 0.3297,-0.075 0.49635,-0.11198 -0.007,0.003 -0.0171,0.005 -0.0257,0.008 -0.10742,0.0237 -0.32902,0.0714 -0.47067,0.10438"
     id="path57"
     inkscape:connector-curvature="0"
     style="fill:#002d62" /><path
     d="m 31.261036,13.901176 0,0.41696 c 0.26923,0.27959 0.50353,0.63456 0.66659,1.08603 0.0178,0.0632 0.0391,0.11501 0.0567,0.18198 l 0,-1.72971 c -0.047,-0.008 -0.0903,-0.0149 -0.13117,-0.0232 -0.26495,-0.0479 -0.46514,-0.083 -0.54826,-0.0979 -0.0293,-0.005 -0.0439,-0.008 -0.0439,-0.008 l 0,0.17411 z"
     id="path59"
     inkscape:connector-curvature="0"
     style="fill:#002d62" /><path
     d="m 39.990056,16.292356 0,-0.0192 c 0,0.0312 5.5e-4,0.0632 5.5e-4,0.0943 0,0.008 -0.0648,0.29947 -0.23016,0.46639 -0.2198,0.25943 -0.55489,0.33026 -0.98221,0.21193 -0.42289,-0.11363 -0.84055,-0.22436 -1.26359,-0.33937 l 0,0.18184 c 0,0.2655 0.20393,0.46694 0.54578,0.7167 0.14829,0.0396 0.28332,0.0758 0.28332,0.0758 0.75205,0.20876 1.16584,-0.11418 1.3467,-0.32722 -0.006,0.007 -0.011,0.0134 -0.0178,0.0196 l 0.0196,-0.0214 c -0.002,0 -0.002,0.001 -0.002,0.002 0,-6.9e-4 0.002,-0.002 0.002,-0.002 0.23375,-0.25266 0.30775,-0.62393 0.30775,-0.71091 l -0.01,-0.34848 z"
     id="path61"
     inkscape:connector-curvature="0"
     style="fill:#002d62" /><path
     d="m 36.308216,14.705826 c -0.29297,-0.0724 -0.55668,-0.0925 -0.78988,-0.0638 -0.20144,0.0244 -0.37968,0.0834 -0.53418,0.18004 -0.15933,0.10135 -0.28497,0.23845 -0.37665,0.40385 l 0,-0.86817 -0.0471,-0.0101 0,8.17868 c -0.83088,-0.17949 -1.6343,-0.3333 -2.48879,-0.48296 0,0 -0.46032,-1.12994 -0.84608,-2.0688 l 0,1.923 c -0.84746,-0.13848 -1.68856,-0.25625 -2.53905,-0.36257 l 0,-8.14057 0,-0.008 c 0.0995,-0.004 0.29049,-0.004 0.29049,-0.004 0.0715,-0.002 0.14704,0 0.22726,0.004 -0.22726,-0.037 -0.43781,-0.05 -0.61785,-0.0449 l -0.65872,0.0229 0,0.61841 c 0.13738,0.27075 0.22215,0.6144 0.22602,1.05759 l 0,4.56754 c 0,0 -0.005,0.18915 -0.005,0.19467 -0.005,0.40481 -0.14953,0.7417 -0.42608,0.99933 -0.48475,0.44803 -1.36797,0.62503 -2.70501,0.53957 -1.07748,-0.0835 -2.70501,-0.21056 -2.71661,-1.85342 l 0,-4.5696 c 0.009,-0.98221 0.43657,-1.59357 1.30833,-1.85797 -0.005,0 -0.0104,10e-4 -0.0152,10e-4 -0.12274,0.0207 -0.23927,0.0476 -0.34986,0.0776 -0.19716,0.0519 -0.3772,0.11998 -0.53957,0.20144 -0.21124,0.10742 -0.39805,0.23817 -0.55116,0.39377 -0.069,0.16485 -0.1777,0.34061 -0.35718,0.49207 -0.22464,0.17797 -0.50422,0.27738 -0.8291,0.30789 l 0,6.4944 c -0.89481,-0.009 -1.75745,0 -2.64937,0.0305 l 0,-6.47673 c -0.46583,0.0113 -0.88155,0.0305 -1.32889,0.0544 l 0,-1.72018 c 0.13434,-0.008 0.26743,-0.0131 0.40233,-0.0186 -0.30637,0.0104 -0.61288,0.0235 -0.92243,0.0378 0,0.0989 0.025,0.18584 0.025,0.28387 0,0.0678 0.009,0.12633 0.009,0.18956 0,0.0638 -0.009,0.11929 -0.009,0.173 l 0,0.0126 c 0,0.005 -0.005,0.008 -0.005,0.008 0,0.0592 -0.0501,0.26992 -0.19412,0.50187 -0.22464,0.35124 -0.5531,0.54454 -1.00237,0.58444 -0.42359,0.0305 -0.83752,0.0661 -1.26552,0.11018 l 0,0.17741 c 0.003,0.28566 0.2296,0.41517 0.60072,0.54937 0.16665,-0.0156 0.29616,-0.0262 0.29616,-0.0262 0.46694,-0.0411 0.84124,-0.21828 1.12456,-0.52493 l 0,0.4969 c 0,0 0.95349,-0.0381 1.34173,-0.055 l 0,5.26063 0,1.01342 0,0.14041 0.088,-0.001 0.65692,-0.007 2.83618,-0.033 0,-6.49467 c 0.26371,-0.065 0.33578,-0.17024 0.53225,-0.32322 l 0.01,-0.008 c 0.0257,-0.0232 0.05,-0.0454 0.0744,-0.0674 -0.0225,0.14677 -0.0353,0.30196 -0.0373,0.46308 l 0,4.5304 c 0.008,1.18295 0.73258,1.71051 1.54331,1.96069 0.18253,0.0562 0.36878,0.10023 0.55255,0.13185 0.36008,0.0635 0.7087,0.0903 0.99201,0.11294 1.48036,0.0935 2.43274,-0.10631 3.00959,-0.62945 0.1099,-0.10258 0.20503,-0.21607 0.28138,-0.33647 l 0,0.0539 0,0.93457 0.2296,0.0269 0.1001,0.0121 c 0.9042,0.11114 1.73868,0.22822 2.54996,0.35842 l 0.4316,0.0676 0.41945,0.0758 c 0.23872,0.0409 0.47122,0.0819 0.69655,0.12329 0.2343,0.0428 0.46211,0.0842 0.68619,0.12772 0.11474,0.022 0.22823,0.0451 0.34241,0.0671 0.25943,0.0505 0.51637,0.10189 0.77524,0.15629 l 0.31066,0.0653 0.13682,0.0294 0,-0.36518 0,-4.76152 c 0.23306,0.48641 0.57505,0.84248 0.95114,1.12193 0.21981,0.16375 0.45286,0.29974 0.67943,0.42193 0.004,0.24977 0.006,0.66977 0.006,1.07071 0,0.21497 0,0.46336 -0.001,0.63677 0.22892,0.0525 0.45908,0.10741 0.70014,0.16471 0,-0.47371 0.009,-2.13051 -0.0134,-2.37461 0,-0.01 -0.022,-0.0128 -0.0307,-0.0171 -0.0157,-0.009 -0.0428,-0.0202 -0.0585,-0.0275 -0.60446,-0.31258 -1.3242,-0.75454 -1.65432,-1.60738 -0.0819,-0.2082 -0.0915,-0.5397 -0.0977,-0.88818 -0.009,-0.48268 0.0763,-1.17523 0.0763,-1.23529 0.12219,-0.53874 0.6086,-0.78201 1.36811,-0.60073 -0.0287,-0.007 -0.20517,-0.0532 -0.22478,-0.0595 l 0,-0.002 z"
     id="path63"
     inkscape:connector-curvature="0"
     style="fill:#002d62" /><path
     d="m 36.541006,14.770166 c 0.0261,0.008 0.17562,0.0446 0.40218,0.10189 -0.0316,-0.008 -0.0635,-0.0149 -0.094,-0.0244 -0.11473,-0.0293 -0.21787,-0.0555 -0.30043,-0.0769 -0.003,0 -0.006,0 -0.008,-5.5e-4"
     id="path65"
     inkscape:connector-curvature="0"
     style="fill:#002d62" /><path
     d="m 39.712266,15.626596 -0.0708,-0.0207 c 0.077,0.0232 0.15381,0.0507 0.2314,0.0757 l -0.16057,-0.055 z"
     id="path67"
     inkscape:connector-curvature="0"
     style="fill:#002d62" /><path
     d="m 39.970586,15.715376 -10e-4,0 c 0,0.13489 0.009,0.26992 0.0152,0.40688 l -0.0139,-0.40688 z"
     id="path69"
     inkscape:connector-curvature="0"
     style="fill:#002d62" /><path
     d="m 39.548106,19.326376 c 0.002,0.0293 0.002,0.0592 0.004,0.091 1.3e-4,-0.03 0.002,-0.0605 -0.004,-0.091"
     id="path71"
     inkscape:connector-curvature="0"
     style="fill:#002d62" /><path
     d="m 39.560256,22.572196 c 0,0 -0.009,0.11791 -0.0537,0.20572 -0.26744,0.51348 -0.83393,0.6862 -1.73136,0.49263 0.005,0 -0.003,-0.003 -0.003,-0.003 -0.85229,-0.22215 -1.62146,-0.4113 -2.47071,-0.60004 l 0,-1.53116 -0.10673,-0.025 -0.5854,-0.13793 0,0.42179 0,1.46503 0,0.36823 0.28759,0.0653 c 0.3003,0.0678 0.57864,0.13061 0.85284,0.19592 0.51706,0.12219 1.01397,0.24797 1.59578,0.39805 l 0.007,0.002 0.0116,0.006 c 1.31371,0.28455 1.85756,-0.21553 2.10125,-0.68371 0.0739,-0.14276 0.0921,-0.30334 0.0951,-0.34848 l 0.002,-0.0141 0.003,-0.56096 0.006,-1.09888 c 0,-0.0525 0,-0.11722 -5.5e-4,-0.18625 -6.9e-4,0.63925 -0.01,1.25089 -0.01,1.55726 l 0,0.0116 z"
     id="path73"
     inkscape:connector-curvature="0"
     style="fill:#002d62" /><path
     d="m 4.9414464,16.292356 c -0.0801,0.0196 -0.16485,0.0363 -0.24424,0.0476 -0.0434,0.0119 -0.0819,0.0156 -0.1197,0.0275 l 0,1.73316 c 0.18183,-0.0439 0.35524,-0.0837 0.53777,-0.12344 0,-0.20144 -0.008,-1.5353 -0.008,-1.58666 -0.0432,-0.0951 -0.0646,-0.11377 -0.16596,-0.0982"
     id="path75"
     inkscape:connector-curvature="0"
     style="fill:#002d62" /><path
     d="m 25.078116,14.768376 -0.01,-10e-4 -0.007,0 c -0.0146,-0.003 -0.0294,-0.003 -0.0433,-0.003 -0.008,0.0574 -0.0128,0.1157 -0.0128,0.17424 l 0,0.0237 -0.004,0.0226 c -0.006,0.0567 -0.009,0.11804 -0.009,0.18128 0,0.0424 0,0.0855 0,0.12937 l 0.004,0.12426 0,3.24126 0,0.0134 c -0.004,0.0648 -0.004,0.12095 -0.004,0.16969 0,0.24534 0.0544,0.30775 0.4084,0.33688 0.0184,6.9e-4 0.0715,0.003 0.0715,0.003 l 0.0213,0 c 0,-0.0445 0.008,-0.23982 0.008,-0.23982 l 0,-3.20495 c 0,-0.40896 0,-0.76269 -0.0587,-0.88087 -0.0262,-0.0505 -0.21193,-0.0768 -0.36464,-0.0899"
     id="path77"
     inkscape:connector-curvature="0"
     style="fill:#002d62" /><path
     d="m 13.442236,17.440106 0,0 c 0.003,0 0.005,0 0,0"
     id="path79"
     inkscape:connector-curvature="0"
     style="fill:#002d62" /><path
     d="m 10.927066,16.974266 c 0.38273,0.85353 1.17882,1.10302 1.70872,1.21058 0.004,0.40039 0.007,1.41574 0.009,1.71424 0.26674,-0.028 0.53418,-0.0587 0.81004,-0.0903 0,-0.80093 -0.0128,-1.56596 -0.0128,-2.36854 -0.007,5.5e-4 -0.0293,5.5e-4 -0.0293,-0.008 -0.0202,-0.003 -0.0378,-0.007 -0.0585,-0.007 -0.60625,-0.10259 -1.32406,-0.28566 -1.65501,-1.01852 -0.0794,-0.18184 -0.0965,-0.50574 -0.0965,-0.86016 0,-0.47067 0.0318,-0.95722 0.0544,-1.10219 l 0,0.0282 c 0,-0.0635 0.0214,-0.1237 0.0214,-0.18252 0.10632,-0.49318 0.46764,-0.84124 1.0177,-0.9945 0.002,0 0.004,-10e-4 0.007,-0.002 0.10562,-0.0287 0.21732,-0.0514 0.33578,-0.0656 l 0.0305,-0.006 c -0.2412,0.0287 -0.70082,0.0613 -1.03895,0.14953 -0.0746,0.0179 -0.1429,0.0411 -0.20144,0.0657 -0.17949,0.0757 -0.33081,0.18681 -0.4628,0.30858 -0.2216,0.20503 -0.37969,0.4628 -0.46156,0.76517 l 0,2.40609 c 0.007,0.0206 0.0132,0.0402 0.0225,0.0578 m 1.76906,-3.68169 c -0.002,-0.006 -0.002,-0.0113 -0.002,-0.0131 0,0.003 0,0.0101 0.002,0.0131"
     id="path81"
     inkscape:connector-curvature="0"
     style="fill:#002d62" /><path
     d="m 10.992926,20.105216 0.009,0.30403 0.0104,1.99493 0.45852,-0.0573 c 0.76793,-0.0977 1.52371,-0.18087 2.45276,-0.26619 l 0.0189,-0.002 c 1.41933,-0.18556 2.13907,-0.88584 2.13907,-2.07984 l 0,-0.15243 0.004,-0.74791 0.001,-0.16416 0.002,-0.48641 c 0,-0.74045 -0.004,-1.14471 -0.0159,-1.38094 0.005,0.24658 0.005,0.56966 0.005,0.97737 0,0.43837 -0.009,0.94024 -0.009,1.55243 0,1.21057 -0.81432,1.56209 -1.78134,1.67379 0.005,-5.6e-4 -0.004,0 -0.004,0 -0.8498,0.077 -1.63789,0.16057 -2.46629,0.26798 0,-0.51761 -0.01,-1.01824 -0.01,-1.53226 0.01,-10e-4 0.0207,-0.002 0.03,-0.004 -0.42897,0.0512 -0.84594,0.10244 -0.84594,0.10244"
     id="path83"
     inkscape:connector-curvature="0"
     style="fill:#002d62" /><path
     d="m 21.728056,8.7860655 0,-0.0275 c 0.005,-0.16692 -0.0232,-0.19785 -0.028,-0.20144 -0.0196,-0.0126 -0.099,-0.0156 -0.1661,-0.0149 l -0.0207,0 c -0.009,0 -0.0146,-0.002 -0.0238,-0.002 -0.004,0.24451 -0.004,0.4813 -0.007,0.72775 0.0751,-0.001 0.14704,0.002 0.22284,0.006 0.009,-0.008 0.009,-0.0156 0.009,-0.0232 l 0,-0.004 c 0,-0.0156 0.004,-0.0305 0.004,-0.0467 0.011,-0.10134 0.009,-0.12826 0.011,-0.28456 l 0,-0.12881 z"
     id="path85"
     inkscape:connector-curvature="0"
     style="fill:#ed174c" /><path
     d="m 21.728056,8.7860655 0,-0.0275 c 0.005,-0.16692 -0.0232,-0.19785 -0.028,-0.20144 -0.0196,-0.0126 -0.099,-0.0156 -0.1661,-0.0149 l -0.0207,0 c -0.009,0 -0.0146,-0.002 -0.0238,-0.002 -0.004,0.24451 -0.004,0.4813 -0.007,0.72775 0.0751,-0.001 0.14704,0.002 0.22284,0.006 0.009,-0.008 0.009,-0.0156 0.009,-0.0232 l 0,-0.004 c 0,-0.0156 0.004,-0.0305 0.004,-0.0467 0.011,-0.10134 0.009,-0.12826 0.011,-0.28456 l 0,-0.12881 z"
     id="path87"
     inkscape:connector-curvature="0"
     style="fill:#002d62" /><path
     d="m 21.812276,10.970976 c -0.0123,-0.0152 -0.0207,-0.0398 -0.0239,-0.24507 0,-0.0244 -0.003,-0.0434 -0.003,-0.0708 -0.009,-0.14745 -0.0121,-0.45576 -0.009,-0.56069 0,-0.0388 0.009,-0.1525605 -0.28262,-0.1611205 l -0.0239,0 c -0.009,0.4801905 -0.0128,0.9352605 -0.0202,1.4144905 -0.42193,-0.01 -0.83392,-0.0121 -1.25199,-0.006 0.0152,-1.19594 0.0354,-2.3392705 0.0512,-3.5318905 l -0.2198,0 c 0.005,0.0323 0.006,0.0668 0.006,0.0993 l 0,0.0237 c 0,0.0632 -0.0157,0.22768 -0.14152,0.37265 -0.0293,0.11625 -0.091,0.25363 -0.22284,0.37333 -0.0128,1.01452 -0.0275,2.0309705 -0.0421,3.0461805 0.56469,0.007 1.13049,0.009 1.69712,0.009 0.002,-0.058 0.002,-0.1175 0.004,-0.17549 0,0 0.002,-0.12881 0.002,-0.1596 0.11791,0.17451 0.34061,0.35193 0.77345,0.41019 l 0.013,0 c 0.008,5.6e-4 0.0164,0.002 0.0244,0.003 0.12688,0.006 0.25391,0.0113 0.38024,0.0177 -0.017,-0.13641 -0.0366,-0.27599 -0.0561,-0.41213 -0.35,-0.053 -0.57339,-0.20447 -0.65513,-0.44678"
     id="path89"
     inkscape:connector-curvature="0"
     style="fill:#ed174c" /><path
     d="m 21.812276,10.970976 c -0.0123,-0.0152 -0.0207,-0.0398 -0.0239,-0.24507 0,-0.0244 -0.003,-0.0434 -0.003,-0.0708 -0.009,-0.14745 -0.0121,-0.45576 -0.009,-0.56069 0,-0.0388 0.009,-0.1525605 -0.28262,-0.1611205 l -0.0239,0 c -0.009,0.4801905 -0.0128,0.9352605 -0.0202,1.4144905 -0.42193,-0.01 -0.83392,-0.0121 -1.25199,-0.006 0.0152,-1.19594 0.0354,-2.3392705 0.0512,-3.5318905 l -0.2198,0 c 0.005,0.0323 0.006,0.0668 0.006,0.0993 l 0,0.0237 c 0,0.0632 -0.0157,0.22768 -0.14152,0.37265 -0.0293,0.11625 -0.091,0.25363 -0.22284,0.37333 -0.0128,1.01452 -0.0275,2.0309705 -0.0421,3.0461805 0.56469,0.007 1.13049,0.009 1.69712,0.009 0.002,-0.058 0.002,-0.1175 0.004,-0.17549 0,0 0.002,-0.12881 0.002,-0.1596 0.11791,0.17451 0.34061,0.35193 0.77345,0.41019 l 0.013,0 c 0.008,5.6e-4 0.0164,0.002 0.0244,0.003 0.12688,0.006 0.25391,0.0113 0.38024,0.0177 -0.017,-0.13641 -0.0366,-0.27599 -0.0561,-0.41213 -0.35,-0.053 -0.57339,-0.20447 -0.65513,-0.44678"
     id="path91"
     inkscape:connector-curvature="0"
     style="fill:#002d62" /><path
     d="m 22.501376,11.422036 c 0,-0.003 -0.003,0 -0.008,0 -0.009,-10e-4 -0.017,-0.002 -0.0261,-0.004 0.0196,0.13614 0.0391,0.27572 0.0561,0.41213 0.099,0.004 0.19854,0.008 0.29726,0.0128 l 0,-0.19053 c 0.001,-0.0532 0.001,-0.10438 0.004,-0.15822 -0.0182,-0.0195 -0.0353,-0.04 -0.05,-0.062 -0.0902,-0.002 -0.18059,-0.006 -0.27282,-0.01"
     id="path93"
     inkscape:connector-curvature="0"
     style="fill:#ffffff" /><path
     d="m 22.501376,11.422036 c 0,-0.003 -0.003,0 -0.008,0 -0.009,-10e-4 -0.017,-0.002 -0.0261,-0.004 0.0196,0.13614 0.0391,0.27572 0.0561,0.41213 0.099,0.004 0.19854,0.008 0.29726,0.0128 l 0,-0.19053 c 0.001,-0.0532 0.001,-0.10438 0.004,-0.15822 -0.0182,-0.0195 -0.0353,-0.04 -0.05,-0.062 -0.0902,-0.002 -0.18059,-0.006 -0.27282,-0.01"
     id="path95"
     inkscape:connector-curvature="0"
     style="fill:#002d62" /><path
     d="m 25.975556,8.8879555 c -0.01,0.66631 -0.0202,1.3015605 -0.0293,1.9678705 0,0.0268 -0.004,0.0555 -0.004,0.0824 -0.005,0.1313 -0.0514,0.24272 -0.13324,0.33177 -0.0257,0.13407 -0.0903,0.25211 -0.19108,0.34945 -0.002,0.1389 -0.004,0.27834 -0.007,0.41696 0.55669,0.0787 1.11103,0.15505 1.66771,0.22837 0.002,-0.0733 0.004,-0.14498 0.007,-0.21884 0.002,-0.0769 0.003,-0.1545 0.003,-0.2314 -0.36933,-0.0537 -0.73189,-0.10438 -1.10854,-0.14552 0.0159,-1.16764 0.036,-2.2847405 0.0519,-3.4518205 -0.1886,-0.025 -0.37664,-0.0507 -0.56469,-0.0782 l 0,0.0764 c 0.18694,0.12992 0.30775,0.33495 0.30775,0.67252"
     id="path97"
     inkscape:connector-curvature="0"
     style="fill:#ed174c" /><path
     d="m 25.975556,8.8879555 c -0.01,0.66631 -0.0202,1.3015605 -0.0293,1.9678705 0,0.0268 -0.004,0.0555 -0.004,0.0824 -0.005,0.1313 -0.0514,0.24272 -0.13324,0.33177 -0.0257,0.13407 -0.0903,0.25211 -0.19108,0.34945 -0.002,0.1389 -0.004,0.27834 -0.007,0.41696 0.55669,0.0787 1.11103,0.15505 1.66771,0.22837 0.002,-0.0733 0.004,-0.14498 0.007,-0.21884 0.002,-0.0769 0.003,-0.1545 0.003,-0.2314 -0.36933,-0.0537 -0.73189,-0.10438 -1.10854,-0.14552 0.0159,-1.16764 0.036,-2.2847405 0.0519,-3.4518205 -0.1886,-0.025 -0.37664,-0.0507 -0.56469,-0.0782 l 0,0.0764 c 0.18694,0.12992 0.30775,0.33495 0.30775,0.67252"
     id="path99"
     inkscape:connector-curvature="0"
     style="fill:#002d62" /><path
     d="m 19.420406,8.5339555 c -0.002,0.10134 -0.004,0.19964 -0.005,0.29822 0.0831,-0.03 0.15629,-0.0675 0.21607,-0.11749 0.0152,-0.0126 0.0268,-0.0244 0.0398,-0.0353 0.002,-0.0721 0.002,-0.14193 0.004,-0.21456 -0.078,0.0344 -0.16361,0.0588 -0.25515,0.0692"
     id="path101"
     inkscape:connector-curvature="0"
     style="fill:#ed174c" /><path
     d="m 19.420406,8.5339555 c -0.002,0.10134 -0.004,0.19964 -0.005,0.29822 0.0831,-0.03 0.15629,-0.0675 0.21607,-0.11749 0.0152,-0.0126 0.0268,-0.0244 0.0398,-0.0353 0.002,-0.0721 0.002,-0.14193 0.004,-0.21456 -0.078,0.0344 -0.16361,0.0588 -0.25515,0.0692"
     id="path103"
     inkscape:connector-curvature="0"
     style="fill:#002d62" /><path
     d="m 17.298456,7.8895955 c -0.0378,0.002 -0.0781,0.004 -0.11667,0.007 -0.0678,0.006 -0.13241,0.01 -0.1984,0.0149 l 0,0.003 c 0.0574,-0.005 0.11542,-0.0101 0.17396,-0.0144 0.0465,-0.002 0.096,-0.008 0.14111,-0.0106"
     id="path105"
     inkscape:connector-curvature="0"
     style="fill:#ed174c" /><path
     d="m 17.298456,7.8895955 c -0.0378,0.002 -0.0781,0.004 -0.11667,0.007 -0.0678,0.006 -0.13241,0.01 -0.1984,0.0149 l 0,0.003 c 0.0574,-0.005 0.11542,-0.0101 0.17396,-0.0144 0.0465,-0.002 0.096,-0.008 0.14111,-0.0106"
     id="path107"
     inkscape:connector-curvature="0"
     style="fill:#002d62" /><path
     d="m 18.162886,8.5891755 c -0.21248,0.0131 -0.41502,0.0247 -0.62641,0.04 0.004,-0.25211 0.008,-0.4969 0.011,-0.75205 -0.0714,0.003 -0.14525,0.007 -0.21856,0.0119 -0.004,0.25238 -0.009,0.49497 -0.009,0.74252 -0.0385,0.004 -0.0769,0.006 -0.11667,0.009 0,0.0769 0,0.15381 -0.002,0.23071 -0.002,0.0458 -0.004,0.0919 -0.006,0.13765 0.13669,-0.007 0.30279,-0.0156 0.39557,-0.0207 -0.003,0.34407 -0.0342,2.8149105 -0.0342,2.8149105 0.56524,-0.0186 1.13118,-0.0425 1.69587,-0.0688 0.004,-0.0544 0.006,-0.10866 0.009,-0.16182 0,0 0,-0.0799 0.002,-0.21055 -0.38341,0.011 -0.7613,0.0257 -1.13905,0.0519 0.0124,-0.95846 0.024,-1.8668005 0.0374,-2.8243005"
     id="path109"
     inkscape:connector-curvature="0"
     style="fill:#ed174c" /><path
     d="m 18.162886,8.5891755 c -0.21248,0.0131 -0.41502,0.0247 -0.62641,0.04 0.004,-0.25211 0.008,-0.4969 0.011,-0.75205 -0.0714,0.003 -0.14525,0.007 -0.21856,0.0119 -0.004,0.25238 -0.009,0.49497 -0.009,0.74252 -0.0385,0.004 -0.0769,0.006 -0.11667,0.009 0,0.0769 0,0.15381 -0.002,0.23071 -0.002,0.0458 -0.004,0.0919 -0.006,0.13765 0.13669,-0.007 0.30279,-0.0156 0.39557,-0.0207 -0.003,0.34407 -0.0342,2.8149105 -0.0342,2.8149105 0.56524,-0.0186 1.13118,-0.0425 1.69587,-0.0688 0.004,-0.0544 0.006,-0.10866 0.009,-0.16182 0,0 0,-0.0799 0.002,-0.21055 -0.38341,0.011 -0.7613,0.0257 -1.13905,0.0519 0.0124,-0.95846 0.024,-1.8668005 0.0374,-2.8243005"
     id="path111"
     inkscape:connector-curvature="0"
     style="fill:#002d62" /><path
     d="m 19.894256,8.3058655 c -0.0244,0.0269 -0.0501,0.0537 -0.0831,0.0787 -0.0391,0.0318 -0.0861,0.058 -0.13544,0.0801 -0.002,0.0726 -0.002,0.14248 -0.004,0.21455 0.13171,-0.11956 0.19343,-0.25694 0.22284,-0.37333"
     id="path113"
     inkscape:connector-curvature="0"
     style="fill:#ed174c" /><path
     d="m 19.894256,8.3058655 c -0.0244,0.0269 -0.0501,0.0537 -0.0831,0.0787 -0.0391,0.0318 -0.0861,0.058 -0.13544,0.0801 -0.002,0.0726 -0.002,0.14248 -0.004,0.21455 0.13171,-0.11956 0.19343,-0.25694 0.22284,-0.37333"
     id="path115"
     inkscape:connector-curvature="0"
     style="fill:#002d62" /><path
     d="m 19.894256,8.3058655 c -0.0244,0.0269 -0.0501,0.0537 -0.0831,0.0787 -0.0391,0.0318 -0.0861,0.058 -0.13544,0.0801 -0.002,0.0726 -0.002,0.14248 -0.004,0.21455 0.13171,-0.11956 0.19343,-0.25694 0.22284,-0.37333"
     id="path117"
     inkscape:connector-curvature="0"
     style="fill:#002d62" /><path
     d="m 29.513796,9.3892755 c 0,0.1233 -10e-4,0.24328 -0.004,0.3656 0.0587,-0.0138 0.11598,-0.0282 0.16734,-0.0562 0.21718,-0.12578 0.29422,-0.30527 0.31866,-0.44375 -0.0262,0.0268 -0.0555,0.053 -0.0928,0.0757 -0.107,0.0568 -0.23458,0.0769 -0.38963,0.0587"
     id="path119"
     inkscape:connector-curvature="0"
     style="fill:#ed174c" /><path
     d="m 29.513796,9.3892755 c 0,0.1233 -10e-4,0.24328 -0.004,0.3656 0.0587,-0.0138 0.11598,-0.0282 0.16734,-0.0562 0.21718,-0.12578 0.29422,-0.30527 0.31866,-0.44375 -0.0262,0.0268 -0.0555,0.053 -0.0928,0.0757 -0.107,0.0568 -0.23458,0.0769 -0.38963,0.0587"
     id="path121"
     inkscape:connector-curvature="0"
     style="fill:#002d62" /><path
     d="m 27.699596,9.5443255 c 0,0.24631 -0.0355,2.7844005 -0.0355,2.7844005 0.56166,0.10314 1.12331,0.20365 1.68373,0.30126 0.002,-0.0776 0.005,-0.15449 0.009,-0.23195 0,0 10e-4,-0.0913 0.002,-0.23817 -0.3772,-0.0714 -0.74363,-0.13516 -1.1269,-0.19936 0.0123,-0.94286 0.0244,-1.84113 0.0367,-2.7837105 -0.21249,-0.0351 -0.4091,-0.0685 -0.61965,-0.10079 0.002,-0.2176 0.006,-0.43312 0.007,-0.64892 -0.0684,-0.0113 -0.13503,-0.0226 -0.20338,-0.033 -0.005,0.37306 -0.01,0.74142 -0.0152,1.10951 0.0864,0.0138 0.17631,0.0282 0.26232,0.0407"
     id="path123"
     inkscape:connector-curvature="0"
     style="fill:#ed174c" /><path
     d="m 27.699596,9.5443255 c 0,0.24631 -0.0355,2.7844005 -0.0355,2.7844005 0.56166,0.10314 1.12331,0.20365 1.68373,0.30126 0.002,-0.0776 0.005,-0.15449 0.009,-0.23195 0,0 10e-4,-0.0913 0.002,-0.23817 -0.3772,-0.0714 -0.74363,-0.13516 -1.1269,-0.19936 0.0123,-0.94286 0.0244,-1.84113 0.0367,-2.7837105 -0.21249,-0.0351 -0.4091,-0.0685 -0.61965,-0.10079 0.002,-0.2176 0.006,-0.43312 0.007,-0.64892 -0.0684,-0.0113 -0.13503,-0.0226 -0.20338,-0.033 -0.005,0.37306 -0.01,0.74142 -0.0152,1.10951 0.0864,0.0138 0.17631,0.0282 0.26232,0.0407"
     id="path125"
     inkscape:connector-curvature="0"
     style="fill:#002d62" /><path
     d="m 15.091036,8.1158855 c -0.12633,0.0144 -0.25515,0.0268 -0.38576,0.0406 -0.0598,0.007 -0.11846,0.0138 -0.17824,0.0202 l 0,0.10741 c 0.26743,0.12523 0.25942,0.47137 0.25031,1.07651 -0.008,0.52507 -0.0153,1.0320605 -0.0196,1.5569905 -0.005,0.1984 -0.0617,0.37264 -0.16113,0.51513 -0.0275,0.098 -0.0666,0.18735 -0.12025,0.27019 -0.002,0.12882 -0.003,0.25764 -0.005,0.38825 0.0898,-0.0101 0.1777,-0.022 0.2662,-0.0326 0.78808,-0.0913 1.51211,-0.16333 2.22509,-0.21524 0.0672,-0.005 0.13378,-0.009 0.19895,-0.0149 0.001,-0.11874 0.003,-0.23817 0.006,-0.35622 -0.71367,0.0525 -1.41325,0.12454 -2.12747,0.21304 0.0159,-1.20574 0.0353,-2.3610905 0.0512,-3.5693105"
     id="path127"
     inkscape:connector-curvature="0"
     style="fill:#ed174c" /><path
     d="m 15.091036,8.1158855 c -0.12633,0.0144 -0.25515,0.0268 -0.38576,0.0406 -0.0598,0.007 -0.11846,0.0138 -0.17824,0.0202 l 0,0.10741 c 0.26743,0.12523 0.25942,0.47137 0.25031,1.07651 -0.008,0.52507 -0.0153,1.0320605 -0.0196,1.5569905 -0.005,0.1984 -0.0617,0.37264 -0.16113,0.51513 -0.0275,0.098 -0.0666,0.18735 -0.12025,0.27019 -0.002,0.12882 -0.003,0.25764 -0.005,0.38825 0.0898,-0.0101 0.1777,-0.022 0.2662,-0.0326 0.78808,-0.0913 1.51211,-0.16333 2.22509,-0.21524 0.0672,-0.005 0.13378,-0.009 0.19895,-0.0149 0.001,-0.11874 0.003,-0.23817 0.006,-0.35622 -0.71367,0.0525 -1.41325,0.12454 -2.12747,0.21304 0.0159,-1.20574 0.0353,-2.3610905 0.0512,-3.5693105"
     id="path129"
     inkscape:connector-curvature="0"
     style="fill:#002d62" /><path
     d="m 16.282696,10.566166 c 0.22767,-0.0192 0.57256,-0.0479 0.57256,-0.0479 0.002,-0.0518 0.005,-0.10369 0.009,-0.15436 0.002,-0.0721 0.002,-0.14387 0.002,-0.21649 -0.18929,0.0126 -0.37789,0.0315 -0.57823,0.0519 1.4e-4,0.12385 -0.003,0.24576 -0.005,0.36685"
     id="path131"
     inkscape:connector-curvature="0"
     style="fill:#ed174c" /><path
     d="m 16.282696,10.566166 c 0.22767,-0.0192 0.57256,-0.0479 0.57256,-0.0479 0.002,-0.0518 0.005,-0.10369 0.009,-0.15436 0.002,-0.0721 0.002,-0.14387 0.002,-0.21649 -0.18929,0.0126 -0.37789,0.0315 -0.57823,0.0519 1.4e-4,0.12385 -0.003,0.24576 -0.005,0.36685"
     id="path133"
     inkscape:connector-curvature="0"
     style="fill:#002d62" /><path
     d="m 16.972476,8.6584855 c -0.2198,0.0168 -0.43588,0.0356 -0.66176,0.0574 -0.004,0.12688 -0.006,0.25335 -0.007,0.38093 0.31258,-0.0244 0.89067,-0.0714 0.89067,-0.0726 0,-0.005 0,-0.0108 0.002,-0.0156 -0.12702,0.006 -0.2296,0.0124 -0.2296,0.0124 0.001,-0.1215 0.005,-0.24328 0.006,-0.36257"
     id="path135"
     inkscape:connector-curvature="0"
     style="fill:#ed174c" /><path
     d="m 16.972476,8.6584855 c -0.2198,0.0168 -0.43588,0.0356 -0.66176,0.0574 -0.004,0.12688 -0.006,0.25335 -0.007,0.38093 0.31258,-0.0244 0.89067,-0.0714 0.89067,-0.0726 0,-0.005 0,-0.0108 0.002,-0.0156 -0.12702,0.006 -0.2296,0.0124 -0.2296,0.0124 0.001,-0.1215 0.005,-0.24328 0.006,-0.36257"
     id="path137"
     inkscape:connector-curvature="0"
     style="fill:#002d62" /><path
     d="m 17.203876,8.6401255 c -0.0781,0.006 -0.1545,0.0128 -0.2314,0.0184 -0.001,0.11929 -0.005,0.24107 -0.006,0.36257 0,0 0.10258,-0.006 0.2296,-0.0124 10e-4,-0.0458 0.003,-0.0919 0.006,-0.13765 0.002,-0.0769 0.002,-0.15381 0.002,-0.23085"
     id="path139"
     inkscape:connector-curvature="0"
     style="fill:#ed174c" /><path
     d="m 17.203876,8.6401255 c -0.0781,0.006 -0.1545,0.0128 -0.2314,0.0184 -0.001,0.11929 -0.005,0.24107 -0.006,0.36257 0,0 0.10258,-0.006 0.2296,-0.0124 10e-4,-0.0458 0.003,-0.0919 0.006,-0.13765 0.002,-0.0769 0.002,-0.15381 0.002,-0.23085"
     id="path141"
     inkscape:connector-curvature="0"
     style="fill:#002d62" /><path
     d="m 17.203876,8.6401255 c -0.0781,0.006 -0.1545,0.0128 -0.2314,0.0184 -0.001,0.11929 -0.005,0.24107 -0.006,0.36257 0,0 0.10258,-0.006 0.2296,-0.0124 10e-4,-0.0458 0.003,-0.0919 0.006,-0.13765 0.002,-0.0769 0.002,-0.15381 0.002,-0.23085"
     id="path143"
     inkscape:connector-curvature="0"
     style="fill:#002d62" /><path
     d="m 13.513616,9.2048155 c -0.001,-0.004 -0.001,-0.008 0,-0.008 0,-0.0474 -0.0128,-0.10314 -0.0323,-0.1117 -0.0195,-0.005 -0.0684,-0.002 -0.20697,0.0217 -0.008,0.70028 -0.0159,1.3704505 -0.0269,2.0697605 0.0873,-0.0192 0.16237,-0.0262 0.25032,-0.0418 0.003,-0.35014 0.0196,-0.78146 0.0232,-1.1626605 0.004,-0.36629 0.0122,-0.66203 -0.004,-0.76034 0,-0.004 -0.004,-0.005 -0.004,-0.007"
     id="path145"
     inkscape:connector-curvature="0"
     style="fill:#ed174c" /><path
     d="m 13.513616,9.2048155 c -0.001,-0.004 -0.001,-0.008 0,-0.008 0,-0.0474 -0.0128,-0.10314 -0.0323,-0.1117 -0.0195,-0.005 -0.0684,-0.002 -0.20697,0.0217 -0.008,0.70028 -0.0159,1.3704505 -0.0269,2.0697605 0.0873,-0.0192 0.16237,-0.0262 0.25032,-0.0418 0.003,-0.35014 0.0196,-0.78146 0.0232,-1.1626605 0.004,-0.36629 0.0122,-0.66203 -0.004,-0.76034 0,-0.004 -0.004,-0.005 -0.004,-0.007"
     id="path147"
     inkscape:connector-curvature="0"
     style="fill:#002d62" /><path
     d="m 13.918986,11.833476 c -0.65568,0.0979 -1.27643,0.20697 -1.93515,0.33109 0.0159,-0.96578 0.0293,-1.88724 0.0403,-2.8487405 -0.18322,0.005 -0.31079,-0.0312 -0.41269,-0.10314 -0.1429,-0.10562 -0.15933,-0.25791 -0.15933,-0.34489 0,-0.0312 0.003,-0.0567 0.003,-0.062 0.0121,-0.04 0.0134,-0.0769 0.0244,-0.12067 -0.13793,0.025 -0.27475,0.0514 -0.41144,0.0769 -0.0439,0.0101 -0.0885,0.0179 -0.13061,0.0269 -0.0134,0.0744 -0.0268,0.15132 -0.0403,0.22684 -0.002,0.008 -0.004,0.0144 -0.004,0.0219 -0.001,0.0207 -0.004,0.0406 -0.005,0.0601 -0.002,0.25308 0.12882,0.40454 0.23444,0.48379 0.0995,0.0718 0.21,0.10866 0.33205,0.12757 -0.003,0.2982305 -0.0373,2.8817405 -0.0373,2.8817405 0.0971,-0.0196 0.19344,-0.0375 0.29243,-0.0562 0.67031,-0.12937 1.28195,-0.23071 1.91748,-0.32253 0.38644,-0.0602 0.67998,-0.24327 0.84856,-0.50947 0,-0.0446 0.002,-0.0882 0.002,-0.13185 -0.14235,0.13323 -0.3315,0.22395 -0.55986,0.2626"
     id="path149"
     inkscape:connector-curvature="0"
     style="fill:#ed174c" /><path
     d="m 13.918986,11.833476 c -0.65568,0.0979 -1.27643,0.20697 -1.93515,0.33109 0.0159,-0.96578 0.0293,-1.88724 0.0403,-2.8487405 -0.18322,0.005 -0.31079,-0.0312 -0.41269,-0.10314 -0.1429,-0.10562 -0.15933,-0.25791 -0.15933,-0.34489 0,-0.0312 0.003,-0.0567 0.003,-0.062 0.0121,-0.04 0.0134,-0.0769 0.0244,-0.12067 -0.13793,0.025 -0.27475,0.0514 -0.41144,0.0769 -0.0439,0.0101 -0.0885,0.0179 -0.13061,0.0269 -0.0134,0.0744 -0.0268,0.15132 -0.0403,0.22684 -0.002,0.008 -0.004,0.0144 -0.004,0.0219 -0.001,0.0207 -0.004,0.0406 -0.005,0.0601 -0.002,0.25308 0.12882,0.40454 0.23444,0.48379 0.0995,0.0718 0.21,0.10866 0.33205,0.12757 -0.003,0.2982305 -0.0373,2.8817405 -0.0373,2.8817405 0.0971,-0.0196 0.19344,-0.0375 0.29243,-0.0562 0.67031,-0.12937 1.28195,-0.23071 1.91748,-0.32253 0.38644,-0.0602 0.67998,-0.24327 0.84856,-0.50947 0,-0.0446 0.002,-0.0882 0.002,-0.13185 -0.14235,0.13323 -0.3315,0.22395 -0.55986,0.2626"
     id="path151"
     inkscape:connector-curvature="0"
     style="fill:#002d62" /><path
     d="m 14.478706,11.571016 c -5.5e-4,0.0436 -0.002,0.0873 -0.002,0.13185 0.0537,-0.0827 0.0928,-0.17217 0.12025,-0.27019 -0.0341,0.0508 -0.0732,0.0962 -0.11777,0.13834"
     id="path153"
     inkscape:connector-curvature="0"
     style="fill:#ed174c" /><path
     d="m 14.478706,11.571016 c -5.5e-4,0.0436 -0.002,0.0873 -0.002,0.13185 0.0537,-0.0827 0.0928,-0.17217 0.12025,-0.27019 -0.0341,0.0508 -0.0732,0.0962 -0.11777,0.13834"
     id="path155"
     inkscape:connector-curvature="0"
     style="fill:#002d62" /><path
     d="m 14.478706,11.571016 c -5.5e-4,0.0436 -0.002,0.0873 -0.002,0.13185 0.0537,-0.0827 0.0928,-0.17217 0.12025,-0.27019 -0.0341,0.0508 -0.0732,0.0962 -0.11777,0.13834"
     id="path157"
     inkscape:connector-curvature="0"
     style="fill:#002d62" /><path
     d="m 22.993586,9.1404855 c 0,0.0232 -0.007,0.0424 -0.007,0.0656 l 0,0.0514 c -0.002,0.18984 -0.0493,0.32446 -0.15629,0.44568 -0.004,0.0161 -0.0104,0.0327 -0.0177,0.0494 0.0831,0.10866 0.144,0.24382 0.144,0.3607705 -0.002,0.23568 -0.005,0.46307 -0.009,0.6913 0.0432,0.29008 0.0848,0.58761 0.12343,0.88887 0.32225,0.18253 0.74349,0.22133 0.98042,0.24079 0.0152,0.002 0.0323,0.002 0.0476,0.004 0.65319,0.0501 1.12759,-0.032 1.41864,-0.23264 0.0367,-0.0262 0.071,-0.0555 0.10065,-0.0857 6.9e-4,-0.0693 0.002,-0.13986 0.003,-0.20876 -0.24728,0.12702 -0.63373,0.17245 -1.14775,0.13462 -0.41697,-0.0345 -1.27464,-0.0776 -1.28196,-0.81584 0.0116,-0.66576 0.0196,-1.3051505 0.0268,-1.9709105 0.0116,-0.42704 0.22588,-0.68095 0.66175,-0.77221 -0.0769,0.001 -0.15436,0.005 -0.23071,0.0164 -0.23927,0.0275 -0.50422,0.10162 -0.70083,0.27227 0.0545,0.20517 0.0478,0.48475 0.0449,0.86541"
     id="path159"
     inkscape:connector-curvature="0"
     style="fill:#ed174c" /><path
     d="m 22.993586,9.1404855 c 0,0.0232 -0.007,0.0424 -0.007,0.0656 l 0,0.0514 c -0.002,0.18984 -0.0493,0.32446 -0.15629,0.44568 -0.004,0.0161 -0.0104,0.0327 -0.0177,0.0494 0.0831,0.10866 0.144,0.24382 0.144,0.3607705 -0.002,0.23568 -0.005,0.46307 -0.009,0.6913 0.0432,0.29008 0.0848,0.58761 0.12343,0.88887 0.32225,0.18253 0.74349,0.22133 0.98042,0.24079 0.0152,0.002 0.0323,0.002 0.0476,0.004 0.65319,0.0501 1.12759,-0.032 1.41864,-0.23264 0.0367,-0.0262 0.071,-0.0555 0.10065,-0.0857 6.9e-4,-0.0693 0.002,-0.13986 0.003,-0.20876 -0.24728,0.12702 -0.63373,0.17245 -1.14775,0.13462 -0.41697,-0.0345 -1.27464,-0.0776 -1.28196,-0.81584 0.0116,-0.66576 0.0196,-1.3051505 0.0268,-1.9709105 0.0116,-0.42704 0.22588,-0.68095 0.66175,-0.77221 -0.0769,0.001 -0.15436,0.005 -0.23071,0.0164 -0.23927,0.0275 -0.50422,0.10162 -0.70083,0.27227 0.0545,0.20517 0.0478,0.48475 0.0449,0.86541"
     id="path161"
     inkscape:connector-curvature="0"
     style="fill:#002d62" /><path
     d="m 22.939736,11.439156 c -0.0396,-0.002 -0.0787,-0.003 -0.11542,-0.004 l 0,0.0589 c 0.0685,0.0806 0.1538,0.14567 0.24672,0.19937 -0.0385,-0.30126 -0.0801,-0.59879 -0.12343,-0.88887 -0.003,0.21 -0.006,0.41931 -0.008,0.63455"
     id="path163"
     inkscape:connector-curvature="0"
     style="fill:#ffffff" /><path
     d="m 22.939736,11.439156 c -0.0396,-0.002 -0.0787,-0.003 -0.11542,-0.004 l 0,0.0589 c 0.0685,0.0806 0.1538,0.14567 0.24672,0.19937 -0.0385,-0.30126 -0.0801,-0.59879 -0.12343,-0.88887 -0.003,0.21 -0.006,0.41931 -0.008,0.63455"
     id="path165"
     inkscape:connector-curvature="0"
     style="fill:#002d62" /><path
     d="m 24.641136,10.653836 c 0.0157,0.006 0.0312,0.006 0.0464,0.005 0.0134,-0.0434 0.009,-0.0895 0.0134,-0.14014 0.004,-0.46764 0.0123,-0.9115205 0.0153,-1.3797105 0.003,-0.1752 0,-0.32998 -0.0226,-0.39197 0,-0.008 -0.0171,-0.0238 -0.14898,-0.0388 -0.0141,0.001 -0.0268,0.001 -0.0353,0.001 -0.0116,0.0733 -0.0153,0.14745 -0.0207,0.23071 l 0,0.0805 c -0.007,0.47136 -0.0116,0.92394 -0.0178,1.3951705 0,0.003 0.003,0.008 0,0.008 l 0,0.0555 c -0.005,0.0537 0,0.11184 0.0269,0.13807 0.0202,0.0197 0.0641,0.0341 0.14345,0.0366"
     id="path167"
     inkscape:connector-curvature="0"
     style="fill:#ed174c" /><path
     d="m 24.641136,10.653836 c 0.0157,0.006 0.0312,0.006 0.0464,0.005 0.0134,-0.0434 0.009,-0.0895 0.0134,-0.14014 0.004,-0.46764 0.0123,-0.9115205 0.0153,-1.3797105 0.003,-0.1752 0,-0.32998 -0.0226,-0.39197 0,-0.008 -0.0171,-0.0238 -0.14898,-0.0388 -0.0141,0.001 -0.0268,0.001 -0.0353,0.001 -0.0116,0.0733 -0.0153,0.14745 -0.0207,0.23071 l 0,0.0805 c -0.007,0.47136 -0.0116,0.92394 -0.0178,1.3951705 0,0.003 0.003,0.008 0,0.008 l 0,0.0555 c -0.005,0.0537 0,0.11184 0.0269,0.13807 0.0202,0.0197 0.0641,0.0341 0.14345,0.0366"
     id="path169"
     inkscape:connector-curvature="0"
     style="fill:#002d62" /><path
     d="m 22.801116,9.7356855 c 0.003,0.005 0.007,0.0119 0.0111,0.0169 0.007,-0.0169 0.0135,-0.0333 0.0177,-0.0494 -0.0104,0.01 -0.0188,0.0218 -0.0287,0.0326"
     id="path171"
     inkscape:connector-curvature="0"
     style="fill:#ed174c" /><path
     d="m 22.801116,9.7356855 c 0.003,0.005 0.007,0.0119 0.0111,0.0169 0.007,-0.0169 0.0135,-0.0333 0.0177,-0.0494 -0.0104,0.01 -0.0188,0.0218 -0.0287,0.0326"
     id="path173"
     inkscape:connector-curvature="0"
     style="fill:#002d62" /><path
     d="m 22.801116,9.7356855 c 0.003,0.005 0.007,0.0119 0.0111,0.0169 0.007,-0.0169 0.0135,-0.0333 0.0177,-0.0494 -0.0104,0.01 -0.0188,0.0218 -0.0287,0.0326"
     id="path175"
     inkscape:connector-curvature="0"
     style="fill:#002d62" /><path
     d="m 22.774336,11.432116 c 0.0146,0.022 0.0318,0.0425 0.05,0.062 l 0,-0.0589 c -0.017,-0.002 -0.0329,-0.002 -0.05,-0.003"
     id="path177"
     inkscape:connector-curvature="0"
     style="fill:#ffffff" /><path
     d="m 22.774336,11.432116 c 0.0146,0.022 0.0318,0.0425 0.05,0.062 l 0,-0.0589 c -0.017,-0.002 -0.0329,-0.002 -0.05,-0.003"
     id="path179"
     inkscape:connector-curvature="0"
     style="fill:#002d62" /><path
     d="m 22.774336,11.432116 c 0.0146,0.022 0.0318,0.0425 0.05,0.062 l 0,-0.0589 c -0.017,-0.002 -0.0329,-0.002 -0.05,-0.003"
     id="path181"
     inkscape:connector-curvature="0"
     style="fill:#002d62" /><path
     d="m 25.621556,11.410716 c -7e-4,0.069 -0.002,0.13945 -0.003,0.20876 0.10065,-0.0973 0.1654,-0.21552 0.19108,-0.34945 -0.0494,0.054 -0.11114,0.10079 -0.18804,0.14069"
     id="path183"
     inkscape:connector-curvature="0"
     style="fill:#ed174c" /><path
     d="m 25.621556,11.410716 c -7e-4,0.069 -0.002,0.13945 -0.003,0.20876 0.10065,-0.0973 0.1654,-0.21552 0.19108,-0.34945 -0.0494,0.054 -0.11114,0.10079 -0.18804,0.14069"
     id="path185"
     inkscape:connector-curvature="0"
     style="fill:#002d62" /><path
     d="m 25.621556,11.410716 c -7e-4,0.069 -0.002,0.13945 -0.003,0.20876 0.10065,-0.0973 0.1654,-0.21552 0.19108,-0.34945 -0.0494,0.054 -0.11114,0.10079 -0.18804,0.14069"
     id="path187"
     inkscape:connector-curvature="0"
     style="fill:#002d62" /><path
     d="m 21.889186,9.2478955 c 0.0116,-0.16237 0.0184,-0.15933 0.0159,-0.45949 0.0104,-0.39004 -0.10866,-0.37637 -0.39198,-0.38576 -0.0671,0 -0.13544,5.6e-4 -0.19343,-0.004 -0.006,0.33937 -0.0103,0.66203 -0.0135,1.00209 0.13503,0.002 0.27903,0.005 0.41324,0.008 0.1081,0.004 0.16982,-0.0857 0.16982,-0.16085 m -0.1759,-0.002 0,0.004 c 0,0.008 0,0.0156 -0.009,0.0232 -0.0758,-0.003 -0.14773,-0.007 -0.22284,-0.006 0.003,-0.24631 0.003,-0.48324 0.007,-0.72775 0.009,0 0.0152,0.002 0.0237,0.002 l 0.0207,0 c 0.0671,-5.5e-4 0.14663,0.002 0.1661,0.0149 0.005,0.004 0.0329,0.0345 0.028,0.20144 l 0,0.0275 0,0.12881 c -0.002,0.1563 0,0.18308 -0.0111,0.28456 1.4e-4,0.0161 -0.004,0.0311 -0.004,0.0467"
     id="path189"
     inkscape:connector-curvature="0"
     style="fill:#0067b1" /><path
     d="m 20.249496,7.7788655 0,0.0315 c -0.0159,1.19262 -0.036,2.3359505 -0.0512,3.5318905 0.41807,-0.007 0.8302,-0.004 1.25199,0.006 0.007,-0.47923 0.0116,-0.9343 0.0202,-1.4144905 l 0.0239,0 c 0.29104,0.009 0.28262,0.1224605 0.28262,0.1611205 -0.004,0.10493 0,0.41324 0.009,0.56069 0,0.0275 0.003,0.0464 0.003,0.0708 0.003,0.20544 0.0116,0.22988 0.0239,0.24507 0.0817,0.24231 0.30513,0.39377 0.65499,0.44678 0.009,0.002 0.0177,0.003 0.0261,0.004 0.005,0 0.008,-0.003 0.008,0 0.0922,0.004 0.18252,0.008 0.27295,0.0101 0.0171,5.6e-4 0.033,5.6e-4 0.05,0.003 0.0367,5.5e-4 0.0758,0.002 0.11543,0.004 0.002,-0.21524 0.005,-0.42455 0.008,-0.63455 0.004,-0.22823 0.006,-0.45562 0.009,-0.6913 0,-0.1169505 -0.0609,-0.2521105 -0.14401,-0.3607705 -0.004,-0.005 -0.008,-0.0119 -0.011,-0.0169 0.01,-0.0108 0.0184,-0.0226 0.0287,-0.0327 0.10687,-0.12108 0.15381,-0.25584 0.1563,-0.44568 l 0,-0.0514 c 0,-0.0232 0.007,-0.0424 0.007,-0.0656 0.003,-0.38065 0.01,-0.66024 -0.0446,-0.86541 -0.0648,-0.23623 -0.21,-0.37057 -0.53225,-0.43684 -0.0416,-0.009 -0.0842,-0.0174 -0.13379,-0.0244 -0.003,0 -0.008,-0.003 -0.0116,-0.003 l -0.009,0 c -0.14331,-0.005 -0.28815,-0.009 -0.42966,-0.0144 -0.53087,-0.0146 -1.05235,-0.0211 -1.58336,-0.0174 m 2.00957,0.16872 c 0.54509,0.0714 0.57077,0.2365 0.55793,1.18088 l 0,0.0688 c 0,0.0156 -0.005,0.0358 -0.005,0.0507 0,0.20268 -0.0512,0.33274 -0.22768,0.47122 0.009,0.0149 0.0244,0.0272 0.0378,0.0381 0.0909,0.10438 0.15436,0.2463105 0.16306,0.3526205 -0.009,0.40192 -0.0135,0.78229 -0.0171,1.18849 -0.0867,-0.006 -0.16665,-0.009 -0.25459,-0.0126 -0.2662,-0.0351 -0.45839,-0.1382 -0.53294,-0.34461 -0.0116,-0.03 -0.0196,-0.21373 -0.0196,-0.21373 0,-0.05 -0.0134,-0.49815 -0.0134,-0.63083 0.004,-0.2105505 -0.20268,-0.2899405 -0.45355,-0.3000205 -0.069,-0.003 -0.12771,-0.003 -0.19606,-0.007 -0.009,0.4832405 -0.0116,0.9395505 -0.0196,1.4138105 -0.29975,-0.002 -0.59452,-6.9e-4 -0.90586,-0.002 0.0164,-1.11323 0.0329,-2.1759305 0.0489,-3.2866805 0.61785,10e-4 1.21858,0.009 1.83754,0.033"
     id="path191"
     inkscape:connector-curvature="0"
     style="fill:#0067b1" /><path
     d="m 27.289266,11.814566 c 0.0391,0.005 0.0751,0.0101 0.11238,0.0166 0.0128,-0.78906 0.0244,-1.55422 0.0353,-2.3274005 0.006,-0.36823 0.0103,-0.73645 0.0152,-1.10951 0,-0.032 0.002,-0.0632 0.002,-0.0958 -0.0605,-0.004 -0.11598,-0.0131 -0.17024,-0.0232 -0.35952,-0.0486 -0.69655,-0.0973 -1.05124,-0.14097 l 0,0.0831 c -0.0159,1.16722 -0.036,2.2843205 -0.0519,3.4518105 0.37664,0.041 0.73921,0.0917 1.10854,0.14539 m -0.8857,-3.5229205 c 0.29781,0.0374 0.57822,0.0762 0.87603,0.12053 -0.0159,1.1004 -0.0293,2.1562005 -0.0439,3.2592105 -0.29919,-0.0418 -0.58113,-0.0805 -0.88032,-0.11804 0.0175,-1.10371 0.033,-2.1599305 0.0482,-3.2617005"
     id="path193"
     inkscape:connector-curvature="0"
     style="fill:#0067b1" /><path
     d="m 19.675696,8.4646455 c 0.0494,-0.022 0.0965,-0.0483 0.13544,-0.0801 0.033,-0.025 0.0587,-0.0518 0.0831,-0.0787 0.12578,-0.14497 0.14151,-0.30955 0.14151,-0.37264 l 0,-0.0237 c 0,-0.0323 -0.001,-0.0668 -0.006,-0.0993 0,-0.0106 0,-0.0202 -0.004,-0.028 -0.0587,-5.5e-4 -0.11294,-5.5e-4 -0.16112,-5.5e-4 -0.79486,0.0119 -1.536,0.0418 -2.31732,0.0919 l 0,0.004 c -0.003,0.25515 -0.007,0.49994 -0.0111,0.75205 0.21125,-0.0152 0.41393,-0.0268 0.62641,-0.04 -0.0134,0.9575 -0.025,1.8658405 -0.0373,2.8243005 0.37789,-0.0262 0.75578,-0.0409 1.13906,-0.0519 0.0366,-0.002 0.0739,-0.003 0.11294,-0.004 0.0141,-0.85243 0.0257,-1.6772405 0.0378,-2.5255305 10e-4,-0.0986 0.003,-0.19688 0.005,-0.29822 0.0914,-0.0102 0.177,-0.0347 0.25515,-0.0692 m -0.4305,-0.0613 c -0.01,0.95474 -0.0237,1.8673605 -0.0391,2.8248605 -0.30706,0.009 -0.59396,0.0214 -0.90462,0.0356 0.0116,-0.95377 0.025,-1.8652905 0.0396,-2.8197505 -0.21552,0.0128 -0.41821,0.0204 -0.62876,0.036 0.003,-0.16306 0.003,-0.31935 0.008,-0.47923 0.72471,-0.0446 1.41809,-0.0719 2.14032,-0.0804 -1.4e-4,-4.1e-4 0.0427,0.49221 -0.61551,0.48282"
     id="path195"
     inkscape:connector-curvature="0"
     style="fill:#0067b1" /><path
     d="m 28.268576,9.1767955 c -0.0123,0.9425805 -0.0244,1.8408505 -0.0367,2.7837105 0.38328,0.0641 0.74971,0.12798 1.12691,0.19936 0.0391,0.006 0.077,0.0138 0.1179,0.0204 0.009,-0.82067 0.022,-1.61069 0.0335,-2.4252905 0.002,-0.12246 0.004,-0.24231 0.004,-0.3656 0.15505,0.0182 0.28263,-0.002 0.38949,-0.0585 0.0373,-0.0226 0.0664,-0.0489 0.0928,-0.0757 0.11349,-0.11625 0.12758,-0.26592 0.12758,-0.32446 l 0,-0.0257 c -0.006,-0.0452 -0.006,-0.0839 -0.006,-0.12688 -0.0555,-0.0119 -0.10493,-0.0244 -0.16361,-0.0363 -0.77289,-0.15989 -1.52011,-0.29243 -2.29895,-0.40993 l 0,0.0956 c -10e-4,0.2158 -0.005,0.43132 -0.007,0.64891 0.21069,0.0319 0.4073,0.0653 0.61979,0.10038 m -0.4403,-0.68219 c 0.7185,0.11142 1.40345,0.23651 2.12623,0.38341 0,0 0.0323,0.49815 -0.61053,0.35124 -0.0122,0.9383105 -0.0286,1.8390605 -0.0402,2.7831605 -0.30526,-0.0595 -0.59962,-0.10894 -0.8955,-0.15905 0.0104,-0.9401 0.022,-1.84085 0.0341,-2.7821905 -0.21055,-0.0358 -0.4084,-0.0726 -0.6195,-0.10438 0,-0.1603 0.005,-0.31314 0.005,-0.47219"
     id="path197"
     inkscape:connector-curvature="0"
     style="fill:#0067b1" /><path
     d="m 16.972476,8.6584855 c 0.0769,-0.006 0.15325,-0.0126 0.2314,-0.0184 0.0398,-0.002 0.0782,-0.005 0.11667,-0.009 0,-0.24755 0.005,-0.49014 0.009,-0.74252 l 0,-0.001 c -0.01,0.001 -0.0202,0.001 -0.0305,0.002 -0.0451,0.003 -0.0947,0.008 -0.14096,0.0106 -0.0585,0.004 -0.11653,0.009 -0.17397,0.0144 -0.63483,0.0514 -1.24647,0.11114 -1.89248,0.18501 l 0,0.0161 c -0.0159,1.20836 -0.0353,2.3637105 -0.0514,3.5694505 0.71422,-0.0885 1.4138,-0.16057 2.12747,-0.21304 0.0384,-0.002 0.0763,-0.006 0.11474,-0.009 0.003,-0.25666 0.008,-0.50629 0.008,-0.7682 -0.33508,0.0287 -0.66175,0.055 -1.01217,0.0889 10e-4,-0.073 0.002,-0.14497 0.005,-0.21773 10e-4,-0.12108 0.005,-0.243 0.005,-0.36684 0.20019,-0.0204 0.38893,-0.0393 0.57822,-0.0519 0.0384,-0.004 0.0781,-0.005 0.11777,-0.007 0.003,-0.3284605 0.007,-0.6358005 0.011,-0.9584605 -0.23016,0.0138 -0.45424,0.0357 -0.69227,0.0589 0,-0.0489 0,-0.0953 0.001,-0.14387 10e-4,-0.12757 0.004,-0.2539 0.007,-0.38092 0.2256,-0.022 0.44168,-0.0407 0.66148,-0.0576 m -0.83572,-0.0645 c -0.006,0.27199 -0.006,0.53321 -0.0111,0.8012 0.23265,-0.0247 0.46281,-0.0449 0.69227,-0.0628 -0.003,0.22919 -0.007,0.45231 -0.01,0.6812205 -0.23126,0.0168 -0.45728,0.0388 -0.69406,0.0625 -0.004,0.29242 -0.008,0.57021 -0.0111,0.86195 0.35042,-0.0374 0.67639,-0.0638 1.01093,-0.09 0,0.16388 -0.004,0.32625 -0.004,0.48958 -0.31935,0.025 -0.62144,0.0514 -0.9401,0.0842 -0.33081,0.032 -0.62876,0.0632 -0.95487,0.10189 0.0159,-1.1171 0.0305,-2.1890505 0.0476,-3.3068505 0.63608,-0.0733 1.25448,-0.1295 1.89124,-0.17769 -0.004,0.1556 -0.004,0.31134 -0.009,0.46819 -0.33439,0.0278 -0.66037,0.054 -1.00899,0.0866"
     id="path199"
     inkscape:connector-curvature="0"
     style="fill:#0067b1" /><path
     d="m 11.452136,8.8679355 c 0,0.087 0.0164,0.23927 0.15933,0.34489 0.1019,0.0719 0.22961,0.10838 0.41269,0.10314 -0.011,0.9615005 -0.0244,1.8829605 -0.0403,2.8487405 0.65872,-0.12413 1.27961,-0.2332 1.93515,-0.33109 0.22836,-0.0388 0.41751,-0.12951 0.55986,-0.26246 0.0446,-0.0421 0.0835,-0.0875 0.11777,-0.13821 0.0995,-0.14248 0.15629,-0.31672 0.16113,-0.51513 0.004,-0.52507 0.0116,-1.0320505 0.0196,-1.5569805 0.009,-0.60529 0.0171,-0.95142 -0.25031,-1.07651 -0.11474,-0.0532 -0.27779,-0.0668 -0.51279,-0.0418 l -0.002,0 c -0.86499,0.12578 -1.6818,0.26743 -2.53215,0.43712 l 0,0.006 c -0.0111,0.0436 -0.0121,0.0805 -0.0244,0.12067 0,0.005 -0.003,0.0304 -0.003,0.0616 m 0.17825,-0.0788 c 0.81004,-0.15933 1.57562,-0.29063 2.3753,-0.40688 0.64464,-0.0746 0.61233,0.14925 0.5977,1.10716 -0.009,0.49138 -0.0166,0.9592905 -0.0214,1.4488805 -0.0196,0.41944 -0.27407,0.69075 -0.65996,0.75826 -0.60004,0.0857 -1.16419,0.18529 -1.76298,0.29574 0.0152,-0.95777 0.0275,-1.87592 0.0396,-2.8336905 -0.65568,0.0939 -0.56828,-0.36947 -0.56828,-0.36947"
     id="path201"
     inkscape:connector-curvature="0"
     style="fill:#0067b1" /><path
     d="m 13.687586,9.1690655 c 0,0 0.0166,-0.19744 -0.13365,-0.22367 -0.002,0 -0.061,-0.0226 -0.45051,0.055 -0.011,0.79388 -0.0182,1.5496605 -0.0305,2.3435505 0.20144,-0.0318 0.38894,-0.0663 0.59162,-0.0955 -1.4e-4,0 0.05,-1.7889405 0.0231,-2.0792905 m -0.16665,0.80341 c -0.004,0.3812005 -0.0202,0.8125205 -0.0232,1.1626605 -0.0879,0.0156 -0.16306,0.0226 -0.25032,0.0418 0.0111,-0.69931 0.0189,-1.3694805 0.0269,-2.0697605 0.13848,-0.0235 0.18736,-0.0268 0.20697,-0.0217 0.0196,0.009 0.0323,0.0643 0.0323,0.1117 -10e-4,0 -10e-4,0.004 0,0.008 0,0.002 0.004,0.004 0.004,0.007 0.0157,0.0983 0.007,0.39405 0.004,0.76034"
     id="path203"
     inkscape:connector-curvature="0"
     style="fill:#0067b1" /><path
     d="m 24.636166,10.793286 c 0.069,0.006 0.13558,0.006 0.20406,0.002 0.0316,-0.0863 0.0316,-0.16444 0.0316,-0.25818 0.009,-0.46764 0.0111,-0.9156705 0.0184,-1.3827505 0.005,-0.46004 -0.002,-0.54578 -0.3413,-0.58278 -0.0671,-0.006 -0.12025,-0.008 -0.18735,-0.002 -0.0391,0.14069 -0.0428,0.2887 -0.0428,0.43712 -0.01,0.47302 -0.0109,0.92339 -0.0196,1.3994505 -0.005,0.18211 -0.02,0.35151 0.33702,0.38783 m -0.1654,-0.31383 0,-0.0555 c 0.003,0 0,-0.005 0,-0.008 0.006,-0.4712205 0.011,-0.9239405 0.0178,-1.3951605 l 0,-0.0806 c 0.005,-0.0834 0.009,-0.15753 0.0207,-0.23071 0.009,0 0.0213,0 0.0353,-10e-4 0.13186,0.0149 0.14898,0.0305 0.14898,0.0388 0.0226,0.062 0.0257,0.21676 0.0226,0.39197 -0.003,0.46819 -0.011,0.9119305 -0.0153,1.3797105 -0.004,0.0507 0,0.0968 -0.0134,0.14013 -0.0152,10e-4 -0.0307,10e-4 -0.0464,-0.005 -0.0794,-0.002 -0.12343,-0.0168 -0.14345,-0.0363 -0.0269,-0.0264 -0.0323,-0.0845 -0.0269,-0.1382"
     id="path205"
     inkscape:connector-curvature="0"
     style="fill:#0067b1" /><path
     d="m 23.218766,8.7585855 c -0.007,0.66576 -0.0152,1.3051505 -0.0268,1.9709105 0.007,0.73838 0.86513,0.78132 1.28195,0.81584 0.51403,0.0378 0.90034,-0.008 1.14775,-0.13462 0.0769,-0.04 0.13862,-0.0867 0.18791,-0.14069 0.0819,-0.0892 0.12827,-0.20061 0.13324,-0.33177 0,-0.0268 0.004,-0.0555 0.004,-0.0824 0.009,-0.66631 0.0196,-1.3015605 0.0293,-1.9678705 0,-0.33757 -0.12081,-0.54274 -0.30775,-0.67266 -0.25639,-0.18018 -0.63732,-0.21773 -0.99864,-0.25004 -0.2314,-0.0213 -0.44624,-0.0308 -0.64588,-0.004 -0.0501,0.007 -0.0953,0.0152 -0.1429,0.025 -0.43602,0.0913 -0.65016,0.34531 -0.66176,0.77221 m 0.84497,-0.66079 c 0.16403,-0.0226 0.36188,-0.0168 0.60115,0.003 0.65747,0.059 1.12939,0.11142 1.13436,0.76586 -0.008,0.66631 -0.0166,1.3021105 -0.0246,1.9684205 0,0.0262 -0.004,0.0544 -0.004,0.0819 -0.0111,0.45148 -0.58002,0.54758 -1.29355,0.48835 -0.69655,-0.059 -1.10247,-0.17645 -1.10992,-0.667 0.007,-0.66604 0.0153,-1.3003205 0.0269,-1.9724305 0.0164,-0.4588 0.28331,-0.62324 0.66976,-0.66811"
     id="path207"
     inkscape:connector-curvature="0"
     style="fill:#0067b1" /><path
     d="m 20.372796,11.201406 c 0.31134,0.002 0.60611,0 0.90585,0.002 0.008,-0.4744 0.0111,-0.93071 0.0196,-1.4138105 0.0683,0.004 0.12702,0.004 0.19606,0.007 0.25086,0.0101 0.45727,0.0895 0.45355,0.3000205 0,0.13268 0.0134,0.58085 0.0134,0.63083 0,0 0.008,0.18376 0.0196,0.21372 0.0746,0.20628 0.26689,0.30955 0.53294,0.34462 0.088,0.003 0.16789,0.006 0.2546,0.0126 0.004,-0.40619 0.009,-0.78656 0.0171,-1.18848 -0.009,-0.10631 -0.0721,-0.2481005 -0.16306,-0.3526205 -0.0135,-0.011 -0.0287,-0.0232 -0.0378,-0.0381 0.17645,-0.13848 0.22767,-0.26854 0.22767,-0.47122 0,-0.0149 0.005,-0.0351 0.005,-0.0507 l 0,-0.0688 c 0.0128,-0.94438 -0.0128,-1.10951 -0.55793,-1.18089 -0.61896,-0.0242 -1.21969,-0.0317 -1.83754,-0.033 -0.0159,1.11061 -0.0324,2.1734505 -0.0489,3.2866805 m 0.94686,-2.8023505 c 0.058,0.004 0.12633,0.004 0.19343,0.004 0.28332,0.009 0.40233,-0.004 0.39198,0.38576 0.002,0.30002 -0.004,0.29698 -0.0159,0.45949 0,0.075 -0.0616,0.16444 -0.16969,0.16085 -0.13434,-0.003 -0.27834,-0.006 -0.41323,-0.008 0.003,-0.34006 0.008,-0.66273 0.0134,-1.0021"
     id="path209"
     inkscape:connector-curvature="0"
     style="fill:#ffffff" /><path
     d="m 27.279596,8.4121755 c -0.29781,-0.0443 -0.57822,-0.0831 -0.87603,-0.12053 -0.0152,1.10177 -0.0306,2.1579905 -0.0483,3.2617005 0.2992,0.0375 0.58113,0.0764 0.88032,0.11804 0.0148,-1.10301 0.0282,-2.1588105 0.044,-3.2592105"
     id="path211"
     inkscape:connector-curvature="0"
     style="fill:#ffffff" /><path
     d="m 19.860566,7.9206555 c -0.72223,0.008 -1.4156,0.0358 -2.14032,0.0804 -0.005,0.16002 -0.005,0.31631 -0.008,0.47923 0.21056,-0.0156 0.41338,-0.0232 0.62876,-0.036 -0.0146,0.95446 -0.028,1.8659805 -0.0396,2.8197505 0.31065,-0.0144 0.59769,-0.0268 0.90461,-0.0356 0.0153,-0.9575 0.0293,-1.8701205 0.0391,-2.8248605 0.65831,0.009 0.61551,-0.48337 0.61551,-0.48282"
     id="path213"
     inkscape:connector-curvature="0"
     style="fill:#ffffff" /><path
     d="m 28.408436,11.853366 c 0.29602,0.0501 0.59024,0.0995 0.8955,0.15905 0.0116,-0.9441 0.028,-1.84485 0.0402,-2.7831605 0.64284,0.14677 0.61053,-0.35124 0.61053,-0.35124 -0.72278,-0.14677 -1.40773,-0.27199 -2.12623,-0.38341 0,0.15905 -0.005,0.31203 -0.005,0.47219 0.2111,0.0316 0.40895,0.0686 0.6195,0.10438 -0.0121,0.9413405 -0.0238,1.8420905 -0.0341,2.7821905"
     id="path215"
     inkscape:connector-curvature="0"
     style="fill:#ffffff" /><path
     d="m 17.154446,8.0395355 c -0.63676,0.0482 -1.25517,0.10438 -1.89124,0.17769 -0.0171,1.11779 -0.0318,2.1897405 -0.0476,3.3068505 0.32597,-0.0388 0.62392,-0.0699 0.95487,-0.1019 0.31866,-0.033 0.62089,-0.0592 0.9401,-0.0842 0,-0.16333 0.004,-0.3257 0.004,-0.48958 -0.33454,0.0262 -0.66052,0.0525 -1.01093,0.09 0.003,-0.29173 0.007,-0.56952 0.011,-0.86195 0.23678,-0.0237 0.4628,-0.0458 0.69406,-0.0625 0.003,-0.2289205 0.007,-0.4520305 0.01,-0.6812305 -0.22947,0.0179 -0.45962,0.0381 -0.69227,0.0628 0.006,-0.26799 0.006,-0.52922 0.011,-0.80121 0.34848,-0.0326 0.67459,-0.0588 1.00913,-0.0863 0.004,-0.15712 0.004,-0.31286 0.008,-0.46846"
     id="path217"
     inkscape:connector-curvature="0"
     style="fill:#ffffff" /><path
     d="m 12.198666,9.1584255 c -0.0122,0.9579105 -0.0244,1.8759205 -0.0396,2.8336905 0.59879,-0.11045 1.16294,-0.21 1.76298,-0.29574 0.38576,-0.0675 0.64035,-0.33881 0.65996,-0.75826 0.005,-0.48959 0.0121,-0.9575005 0.0214,-1.4488805 0.0146,-0.95791 0.0469,-1.18158 -0.5977,-1.10716 -0.79968,0.11626 -1.56526,0.24756 -2.3753,0.40689 0,1.3e-4 -0.0874,0.46349 0.56828,0.36946 m 0.90462,-0.15808 c 0.38949,-0.0776 0.44872,-0.055 0.45051,-0.055 0.15022,0.0262 0.13365,0.22367 0.13365,0.22367 0.0269,0.29035 -0.0232,2.0792905 -0.0232,2.0792905 -0.20268,0.0293 -0.39003,0.0638 -0.59161,0.0955 0.0124,-0.79389 0.0197,-1.5496705 0.0307,-2.3435505"
     id="path219"
     inkscape:connector-curvature="0"
     style="fill:#ffffff" /><path
     d="m 23.367056,10.738336 c 0.007,0.49055 0.41337,0.60804 1.10992,0.667 0.71353,0.0592 1.2825,-0.037 1.29355,-0.48835 0,-0.0275 0.004,-0.0555 0.004,-0.0819 0.008,-0.66631 0.0166,-1.3021105 0.0246,-1.9684205 -0.005,-0.65444 -0.47689,-0.70691 -1.13436,-0.76586 -0.23927,-0.0199 -0.43712,-0.0257 -0.60115,-0.003 -0.38645,0.0449 -0.65319,0.20945 -0.66976,0.66811 -0.0116,0.67211 -0.0195,1.3063905 -0.0269,1.9724305 m 0.93223,-0.33275 c 0.009,-0.4761905 0.01,-0.9264305 0.0196,-1.3994405 0,-0.14843 0.004,-0.29643 0.0428,-0.43712 0.0671,-0.006 0.12026,-0.003 0.18736,0.002 0.33937,0.037 0.34613,0.12274 0.3413,0.58278 -0.007,0.46694 -0.01,0.9149705 -0.0184,1.3827405 0,0.0937 0,0.1719 -0.0316,0.25819 -0.0683,0.004 -0.13503,0.004 -0.20406,-0.002 -0.35718,-0.0365 -0.34186,-0.20585 -0.33702,-0.38783"
     id="path221"
     inkscape:connector-curvature="0"
     style="fill:#ffffff" /><path
     d="m 10.904426,16.916286 0,-2.4061 0,-1.02018 c -0.1197,0.0186 -0.24231,0.0351 -0.3645,0.055 -0.7477696,0.11018 -1.4730296,0.23196 -2.2263296,0.3663 l 0,0.0351 c 0.005,2.75113 -0.009,5.39291 0.0134,8.14417 0.85891,-0.14829 1.6946296,-0.28497 2.5529896,-0.40896 0.007,-0.003 0.0146,-0.004 0.0244,-0.005 l 0,-4.76027 z m -0.36436,4.50278 c -0.6250296,0.0964 -1.2227196,0.18625 -1.8532696,0.29657 0,-2.55783 -0.008,-5.00148 -0.008,-7.56001 0.63,-0.1139 1.23625,-0.20447 1.8612796,-0.29933 l 0,7.56277 z"
     id="path223"
     inkscape:connector-curvature="0"
     style="fill:#0067b1" /><path
     d="m 16.194746,12.953756 c -0.0196,0 -0.0391,0.002 -0.061,0.003 -1.19152,0.0744 -2.67864,0.21635 -2.99122,0.25694 -0.0257,0.004 -0.0549,0.0113 -0.0831,0.0113 -0.007,5.5e-4 -0.0134,0.002 -0.0207,0.002 -0.11832,0.0144 -0.23016,0.0369 -0.33578,0.0656 -0.002,0.001 -0.004,0.002 -0.007,0.002 -0.54992,0.15326 -0.91138,0.50119 -1.01769,0.9945 0,0.059 -0.0214,0.11902 -0.0214,0.18253 l 0,-0.0282 c -0.0226,0.14497 -0.0544,0.63152 -0.0544,1.10219 0,0.35442 0.0171,0.67832 0.0965,0.86016 0.3308,0.73286 1.04875,0.91594 1.65501,1.01852 0.0207,0 0.0384,0.004 0.0585,0.007 0,0.009 0.0226,0.009 0.0293,0.008 0.005,0 0.003,0 0,0 0,0.80259 0.0128,1.56762 0.0128,2.36854 -0.276,0.0316 -0.5433,0.0623 -0.81004,0.0903 -0.26316,0.0323 -0.52438,0.0648 -0.78685,0.1012 -0.007,0 -0.0135,0.001 -0.0189,0.003 -0.009,0.001 -0.0202,0.002 -0.03,0.004 0,0.51402 0.01,1.01465 0.01,1.53226 0.8284,-0.10741 1.61649,-0.19108 2.46629,-0.26798 0,0 0.009,-5.6e-4 0.004,0 0.96688,-0.1117 1.78134,-0.46322 1.78134,-1.67379 0,-0.61233 0.009,-1.11406 0.009,-1.55243 0,-0.40771 0,-0.73079 -0.005,-0.97737 -0.004,-0.22409 -0.009,-0.38576 -0.0152,-0.49139 -0.0257,-0.27503 -0.17396,-0.48434 -0.45852,-0.66203 -0.0965,-0.0632 -0.20199,-0.11998 -0.36753,-0.17824 -0.10134,-0.0431 -0.21677,-0.0788 -0.33827,-0.11819 -0.0171,-0.004 -0.0373,0 -0.0373,-0.0131 -0.0824,-0.0269 -0.15808,-0.0519 -0.2296,-0.0776 -0.37113,-0.13434 -0.59769,-0.26371 -0.60073,-0.54937 l 0,-0.17741 c 0.42801,-0.0439 0.84179,-0.0797 1.26552,-0.11018 0.44927,-0.04 0.77773,-0.2332 1.00237,-0.58444 0.144,-0.23195 0.19412,-0.44264 0.19412,-0.50187 0,0 0.005,-0.002 0.005,-0.008 l 0,-0.0126 c 0,-0.0537 0.009,-0.10935 0.009,-0.173 0,-0.0632 -0.009,-0.12177 -0.009,-0.18956 0,-0.098 -0.025,-0.18501 -0.025,-0.28387 l -0.004,0 c -0.0987,0.007 -0.17935,0.0124 -0.26964,0.0171 m -0.0648,0.62931 c 0,0 -0.0305,0.19385 -0.15256,0.38824 -0.13972,0.20062 -0.31742,0.37002 -0.68495,0.40689 -0.54757,0.0424 -1.07927,0.0857 -1.63057,0.14497 l 0,0.48958 c 0.0257,0.54882 0.53045,0.72251 1.03412,0.8846 0.12205,0.0393 0.24604,0.0794 0.36698,0.12578 0.11957,0.0403 0.21249,0.095 0.31369,0.14677 0.18184,0.11804 0.29671,0.24451 0.31686,0.45327 0.0391,0.56897 0.0171,3.10306 0.0141,3.1072 0,0.0544 -0.0244,0.33454 -0.0721,0.44692 -0.22215,0.51955 -0.72955,0.68123 -1.35762,0.76848 -0.7283,0.0598 -1.38937,0.14594 -2.10069,0.23748 0,-0.30886 -0.004,-0.60791 -0.004,-0.91193 0.56842,-0.0751 1.09943,-0.13434 1.64645,-0.1857 0,-0.95957 -0.0134,-1.87109 -0.0134,-2.83066 -0.0378,-0.0665 -0.11045,-0.091 -0.17037,-0.1099 -0.0623,-0.0164 -0.1349,-0.0207 -0.17632,-0.0275 -0.66852,-0.10742 -1.16846,-0.29339 -1.41753,-0.86223 -0.15201,-0.38189 -0.0202,-1.81103 -0.0202,-1.82953 0,0 -0.009,-0.0531 0.0116,-0.12757 0.10562,-0.45328 0.46528,-0.70691 1.03177,-0.76158 0.0268,-0.0149 0.061,-0.007 0.0855,-0.0149 0.38879,-0.0479 2.42956,-0.22243 2.97907,-0.25308 0.0218,0.0746 0.0218,0.19205 -2.8e-4,0.31438"
     id="path225"
     inkscape:connector-curvature="0"
     style="fill:#0067b1" /><path
     d="m 34.351256,14.293976 c -0.7972,-0.16637 -1.56706,-0.3159 -2.36688,-0.45259 l 0,0.0149 0,1.72971 c -0.0177,-0.0668 -0.0389,-0.11874 -0.0567,-0.18197 -0.16306,-0.45148 -0.39736,-0.80645 -0.66659,-1.08604 -0.0305,-0.0312 -0.0623,-0.061 -0.0935,-0.091 -0.62558,-0.59465 -1.41008,-0.807 -1.96317,-0.84027 -0.0801,-0.004 -0.15574,-0.006 -0.22726,-0.004 0,0 -0.19109,5.5e-4 -0.2905,0.004 l 0,0.008 0,8.14058 c 0.85036,0.10631 1.6916,0.22408 2.53906,0.36256 l 0,-1.923 c 0.38576,0.939 0.84607,2.0688 0.84607,2.0688 0.8545,0.14966 1.65805,0.30347 2.4888,0.48296 l 0,-8.17868 0,-0.01 c -0.0714,-0.0144 -0.13917,-0.0287 -0.20931,-0.0436 m -0.15629,7.84414 c -0.62627,-0.13061 -1.22217,-0.24852 -1.87053,-0.36256 -0.48641,-1.21182 -0.97186,-2.36495 -1.45785,-3.56503 l 0,3.3154 c -0.62821,-0.0947 -1.18973,-0.17824 -1.82042,-0.26012 0,-2.56211 0.004,-5.01031 0.004,-7.57063 0,0 1.85466,-0.0803 2.52663,1.73647 0.22353,0.65955 0.42193,1.29024 0.62213,1.94495 0.0635,0.16306 0.0879,0.31259 0.14828,0.47067 l 0,-3.63144 c 0.62517,0.11501 1.21789,0.22864 1.84734,0.35925 l 0,7.56304 z"
     id="path227"
     inkscape:connector-curvature="0"
     style="fill:#0067b1" /><path
     d="m 37.514646,16.888116 0,-0.18183 c 0.42304,0.11501 0.8407,0.22587 1.26359,0.33936 0.42746,0.11833 0.76241,0.0476 0.98221,-0.21193 0.16541,-0.16692 0.23016,-0.45838 0.23016,-0.46639 0,-0.0312 -5.5e-4,-0.0632 -5.5e-4,-0.0943 -0.002,-0.05 -0.003,-0.10065 -0.006,-0.15077 -0.006,-0.1371 -0.0152,-0.27199 -0.0152,-0.40688 l 0,-0.003 c -0.0323,-0.0101 -0.0654,-0.0202 -0.0965,-0.0308 -0.0776,-0.0251 -0.15436,-0.0525 -0.2314,-0.0757 -0.0116,-0.004 -0.0225,-0.007 -0.0341,-0.0119 -0.83269,-0.25004 -2.04022,-0.56318 -2.66415,-0.72196 -0.22656,-0.0574 -0.37609,-0.0937 -0.40218,-0.10189 0.002,5.5e-4 0.005,5.5e-4 0.008,5.5e-4 l 0.004,0 c -0.007,-10e-4 -0.0146,-0.002 -0.0196,-0.004 -0.75951,-0.18128 -1.24592,0.062 -1.36811,0.60073 0,0.0602 -0.0848,0.75275 -0.0764,1.23529 0.006,0.34848 0.0159,0.67998 0.0978,0.88819 0.33026,0.85284 1.04986,1.29479 1.65432,1.60737 0.0157,0.007 0.0428,0.0191 0.0585,0.0275 0.009,0.004 0.0306,0.007 0.0306,0.0171 0.022,0.24424 0.0134,1.90104 0.0134,2.37461 -0.24106,-0.0573 -0.47122,-0.11224 -0.70013,-0.16471 -0.31134,-0.0733 -0.61896,-0.14414 -0.94134,-0.2216 l 0,0.005 0,1.53117 c 0.84911,0.1886 1.61842,0.37775 2.47071,0.60004 0,0 0.008,0.003 0.003,0.003 0.89743,0.19343 1.46406,0.0207 1.73136,-0.49263 0.0451,-0.0879 0.0537,-0.20572 0.0537,-0.20572 l 0,-0.0116 c 0,-0.3065 0.009,-0.918 0.01,-1.55725 l 0,-0.0769 c 0,-0.59272 -0.005,-1.16045 -0.0184,-1.50907 -10e-4,-0.0318 -0.002,-0.0617 -0.004,-0.091 -0.002,-0.0489 -0.006,-0.0928 -0.007,-0.1295 -0.022,-0.28456 -0.16913,-0.5444 -0.45231,-0.81985 -0.10313,-0.10023 -0.20392,-0.19481 -0.36933,-0.30471 -0.10189,-0.0793 -0.22408,-0.15505 -0.32487,-0.23306 -0.0128,-0.008 -0.0389,-0.0232 -0.0512,-0.0355 -0.1019,-0.0708 -0.19785,-0.13669 -0.28263,-0.19896 -0.34199,-0.2499 -0.54578,-0.45134 -0.54578,-0.71684 m 0.66728,1.15631 c 0.12274,0.0806 0.24466,0.1661 0.36864,0.25336 0.10079,0.086 0.21055,0.17023 0.31272,0.25942 0.18363,0.18184 0.29602,0.3529 0.31797,0.56056 0.0342,0.56593 0.0159,3.13108 0.0159,3.35254 0,0 0.005,0.0507 -0.0378,0.1099 -0.20144,0.453 -0.62876,0.58541 -1.396,0.37554 -0.70759,-0.19357 -1.39309,-0.3511 -2.0982,-0.5165 l 0,-0.91318 c 0.54578,0.12702 1.09404,0.25404 1.64162,0.39556 0,-0.95901 -0.0141,-1.87964 -0.0141,-2.83811 -0.0416,-0.0719 -0.10797,-0.12218 -0.17217,-0.16664 -0.0598,-0.036 -0.13544,-0.0665 -0.17272,-0.0897 -0.66976,-0.3442 -1.17398,-0.70814 -1.41809,-1.36313 -0.15256,-0.43409 -0.0257,-1.81973 -0.0257,-1.83837 0,0 6.9e-4,-0.0443 0.0159,-0.11942 0.10673,-0.41752 0.46156,-0.54026 1.03288,-0.39833 0.022,0 2.40513,0.62324 3.0517,0.8128 0,0.10259 0.0128,0.21 0.0128,0.31673 0,0.0476 -0.0635,0.20448 -0.16596,0.34682 -0.14414,0.13766 -0.32722,0.24383 -0.6728,0.14953 -0.54509,-0.14953 -1.083,-0.29173 -1.62809,-0.43008 l 0,0.49387 c -2.7e-4,0.54592 0.54482,0.90751 1.0315,1.24688"
     id="path229"
     inkscape:connector-curvature="0"
     style="fill:#0067b1" /><path
     d="m 22.257266,13.153676 c 0,-0.10258 0,-0.19688 -0.0213,-0.29629 -0.10134,0 -0.21856,-0.008 -0.34199,-0.008 -1.52854,-0.0327 -2.98998,-0.0177 -4.50278,0.0494 -0.13489,0.006 -0.26799,0.011 -0.40233,0.0186 l 0,1.72018 c 0.44748,-0.0238 0.8632,-0.0431 1.3289,-0.0544 l 0,6.47673 c 0.89191,-0.0305 1.75455,-0.0389 2.64937,-0.0305 l 0,-6.4944 c 0.32487,-0.0305 0.60445,-0.13006 0.82909,-0.30789 0.17949,-0.15146 0.28814,-0.32722 0.35718,-0.49207 0.0908,-0.22519 0.10369,-0.43132 0.10369,-0.53073 l 0,-0.0507 z m -1.65501,1.0772 0,6.48667 c -0.64712,-0.008 -1.27339,0 -1.9212,0.0191 l 0,-6.477 c -0.44499,0.0119 -0.86264,0.0232 -1.32779,0.0476 l 0,-1.09349 c 1.536,-0.0757 2.99992,-0.0877 4.54061,-0.0519 1.4e-4,0 0.10521,1.13947 -1.29162,1.06905"
     id="path231"
     inkscape:connector-curvature="0"
     style="fill:#0067b1" /><path
     d="m 0.84955638,15.779856 c -0.0805,0.10189 -0.1099,0.22739 -0.11418,0.36173 0.004,0.23375 0.0928,0.46971 0.15146,0.56898 0.12453002,0.19357 0.41144002,0.44195 1.06284002,0.3395 l 0,6.49716 c 0.88694,-0.25142 1.76795,-0.46459 2.65489,-0.67335 10e-4,0 10e-4,0 0.003,-6.9e-4 l 0,-1.81172 0,-0.0103 0,-0.47688 0,-0.29851 0,-0.67197 c 0.48654,-0.11487 0.95114,-0.2198 1.43465,-0.32363 1.0946,-0.24424 1.73136,-0.95542 1.73923,-2.02006 l 0,-0.12025 c 0,-0.05 0.004,-0.0976 0.004,-0.14898 0,-1.15106 0.01,-1.91043 -0.26619,-2.32256 -0.0121,-0.0204 -0.0257,-0.04 -0.0403,-0.0562 -0.004,-0.004 -0.005,-0.008 -0.009,-0.0108 -0.0121,-0.0149 -0.0257,-0.0293 -0.0366,-0.0424 -0.002,-0.002 -0.005,-0.004 -0.007,-0.006 -0.0135,-0.0149 -0.0293,-0.029 -0.0439,-0.0428 -10e-4,0 -10e-4,0 -10e-4,-5.5e-4 -0.21856,-0.1868 -0.55613,-0.25252 -1.07568,-0.2024 -0.0121,0.002 -0.05,0.007 -0.0769,0.0119 -0.006,5.5e-4 -0.0104,5.5e-4 -0.0152,5.5e-4 -0.003,0.002 -0.01,0.003 -0.01,0.003 -0.0439,0.008 -0.0862,0.0168 -0.13006,0.0257 -0.01,0.004 -0.0207,0.006 -0.033,0.007 -0.16665,0.037 -0.33205,0.0739 -0.49635,0.11197 -0.0312,0.006 -0.0641,0.0131 -0.0946,0.0202 -0.24673,0.0544 -0.49028,0.11114 -0.73258,0.16719 -0.0971,0.0232 -0.19233,0.0464 -0.2876,0.0696 -0.0287,0.007 -0.0592,0.0137 -0.0873,0.0204 -0.22946,0.0559 -0.45838,0.11212 -0.68743,0.17066 -0.23016,0.0577 -0.46335,0.11694 -0.69351,0.17769 -0.036,0.009 -0.0719,0.0184 -0.10797,0.0275 -0.62517,0.16637 -1.25696,0.34186 -1.89677002,0.52839 -0.0427,0.0456 -0.0694,0.0863 -0.10672,0.13075 m 0.26302002,0.13737 c 1.71783,-0.49759 3.368,-0.91635 5.09067,-1.28775 1.14154,-0.11349 1.21789,0.22892 1.21789,2.42059 0,0.0592 -0.005,0.11046 -0.005,0.16168 l 0,0.11901 c -0.004,0.93472 -0.5408,1.45233 -1.37418,1.6372 -0.60625,0.13503 -1.18848,0.26495 -1.79901,0.40965 l 0,3.2697 c -0.64712,0.15022 -1.28195,0.31562 -1.92838,0.48904 -0.0214,-2.18547 -0.005,-4.2903 -0.005,-6.48073 -1.39627002,0.40591 -1.19731,-0.73839 -1.19731,-0.73839"
     id="path233"
     inkscape:connector-curvature="0"
     style="fill:#0067b1" /><path
     d="m 5.4572664,18.198786 c 0,-0.036 0.0128,-0.083 0.0128,-0.1215 0.0202,-0.40219 0.0128,-1.31909 0.0128,-1.31909 0,-0.087 -0.005,-0.16996 -0.005,-0.26067 0,-0.0943 -0.002,-0.18073 -0.0207,-0.2644 -0.0628,-0.17396 -0.18487,-0.2927 -0.46888,-0.26067 -0.10258,0.0121 -0.20696,0.0348 -0.35165,0.0704 -0.13848,0.0244 -0.27904,0.0602 -0.42304,0.095 l 0,2.36495 c 0.34669,-0.0872 0.66424,-0.16181 1.0072,-0.23747 0.0801,-0.0226 0.15643,-0.0432 0.23637,-0.0665 m -0.87962,-0.0982 0,-1.73316 c 0.0378,-0.0119 0.0763,-0.0156 0.1197,-0.0275 0.0794,-0.0113 0.16416,-0.0282 0.24424,-0.0476 0.10134,-0.0155 0.12274,0.003 0.16609,0.0983 0,0.0514 0.008,1.38523 0.008,1.58667 -0.18266,0.0395 -0.35607,0.0794 -0.5379,0.1233"
     id="path235"
     inkscape:connector-curvature="0"
     style="fill:#0067b1" /><path
     d="m 8.6866564,21.715636 c 0.63055,-0.11046 1.22824,-0.2002 1.8532696,-0.29657 l 0,-7.56277 c -0.6250296,0.095 -1.2312796,0.18557 -1.8612796,0.29933 1.4e-4,2.55853 0.008,5.00218 0.008,7.56001"
     id="path237"
     inkscape:connector-curvature="0"
     style="fill:#ffffff" /><path
     d="m 13.151056,13.521766 c -0.0244,0.008 -0.0587,0 -0.0855,0.0149 -0.56649,0.0547 -0.92616,0.3083 -1.03178,0.76158 -0.0207,0.0744 -0.0116,0.12757 -0.0116,0.12757 0,0.0186 -0.13185,1.44777 0.0202,1.82953 0.24907,0.56897 0.74901,0.75481 1.41754,0.86223 0.0414,0.007 0.11418,0.011 0.17631,0.0275 0.0599,0.0189 0.1324,0.0432 0.17037,0.1099 0,0.95957 0.0134,1.87109 0.0134,2.83066 -0.54688,0.0514 -1.07802,0.11059 -1.64645,0.1857 0,0.30402 0.004,0.60307 0.004,0.91193 0.71119,-0.0915 1.37239,-0.17769 2.10069,-0.23748 0.62807,-0.0874 1.13547,-0.24907 1.35762,-0.76848 0.0476,-0.11238 0.0721,-0.39266 0.0721,-0.44692 0.003,-0.004 0.025,-2.53836 -0.0141,-3.1072 -0.0202,-0.20876 -0.13503,-0.33509 -0.31687,-0.45327 -0.10134,-0.0519 -0.19412,-0.10645 -0.31369,-0.14677 -0.1208,-0.0464 -0.24479,-0.0863 -0.36698,-0.12578 -0.50353,-0.16209 -1.00844,-0.33578 -1.03412,-0.8846 l 0,-0.48958 c 0.5513,-0.0592 1.083,-0.10259 1.63057,-0.14497 0.36754,-0.037 0.54523,-0.20641 0.68495,-0.40689 0.12205,-0.19439 0.15257,-0.38824 0.15257,-0.38824 0.022,-0.12233 0.022,-0.23982 0,-0.31438 -0.54923,0.0305 -2.59,0.20517 -2.9788,0.25308"
     id="path239"
     inkscape:connector-curvature="0"
     style="fill:#ffffff" /><path
     d="m 25.381036,12.944916 -0.004,-5.5e-4 c -0.59576,-0.0411 -1.00485,-0.0351 -1.36258,0.0238 -0.14401,0.0237 -0.27904,0.0549 -0.40537,0.0931 -0.87161,0.26439 -1.29962,0.87576 -1.30832,1.85797 l 0,4.5696 c 0.0116,1.64272 1.63913,1.76975 2.71661,1.85341 1.33704,0.0855 2.22025,-0.0915 2.70501,-0.53956 0.27655,-0.25763 0.42069,-0.59466 0.42607,-0.99933 0,-0.006 0.005,-0.19468 0.005,-0.19468 l 0,-4.56753 c -0.004,-0.4432 -0.0886,-0.78685 -0.22601,-1.0576 -0.45121,-0.87217 -1.51211,-0.95804 -2.54679,-1.03854 m 2.40044,6.66354 c 0,0.0628 -0.004,0.12564 -0.004,0.18915 -0.0128,1.04144 -1.20685,1.27104 -2.73056,1.17205 -1.4798,-0.11473 -2.36495,-0.35166 -2.37296,-1.48105 l 0,-4.56532 c 0.008,-1.05939 0.56594,-1.44957 1.40042,-1.58777 0.36394,-0.0585 0.76986,-0.0562 1.27781,-0.0204 1.40041,0.11046 2.41562,0.21 2.4297,1.72584 l 0,4.56754 z"
     id="path241"
     inkscape:connector-curvature="0"
     style="fill:#0067b1" /><path
     d="m 25.110566,14.397106 c -0.11832,-0.0159 -0.22754,-0.008 -0.34614,-0.005 -0.022,0.0202 -0.0384,0.0356 -0.0648,0.0482 -0.0421,0.15381 -0.0683,0.31935 -0.0683,0.4976 -0.0207,0.1694 -0.008,0.3424 -0.008,0.4813 l 0,3.24126 c -0.0164,0.42967 -0.008,0.82771 0.75039,0.89067 0.11791,0.005 0.24466,0.017 0.38397,0.005 0.025,-0.0152 0.0432,-0.0293 0.0641,-0.0489 0.0214,-0.0976 0.0214,-0.18432 0.0416,-0.28331 0,-0.0946 0.009,-0.18556 0.009,-0.28069 l 0,-3.20495 c 0,-1.06505 -0.005,-1.27505 -0.76185,-1.34202 m 0.39073,4.54711 c 0,0 -0.008,0.19536 -0.008,0.23982 l -0.0213,0 c 0,0 -0.0532,-0.002 -0.0715,-0.003 -0.354,-0.0293 -0.4084,-0.0915 -0.4084,-0.33688 0,-0.0489 0,-0.10507 0.004,-0.16969 l 0,-0.0134 0,-3.24126 -0.004,-0.12426 c 0,-0.0439 0,-0.087 0,-0.12937 0,-0.0632 0.003,-0.12454 0.009,-0.18128 l 0.004,-0.0226 0,-0.0238 c 0,-0.0585 0.005,-0.11694 0.0128,-0.17424 0.0141,0 0.0287,0 0.0434,0.003 l 0.007,0 0.01,0.001 c 0.15256,0.0131 0.33826,0.0393 0.36449,0.09 0.0587,0.11805 0.0587,0.47178 0.0587,0.88087 l 0,3.20482 z"
     id="path243"
     inkscape:connector-curvature="0"
     style="fill:#0067b1" /><path
     d="m 25.351766,13.315076 c -0.50795,-0.0358 -0.91386,-0.0381 -1.27781,0.0204 -0.83448,0.1382 -1.39241,0.52838 -1.40041,1.58777 l 0,4.56532 c 0.008,1.12939 0.89315,1.36632 2.37296,1.48105 1.5237,0.099 2.71785,-0.13061 2.73055,-1.17205 0,-0.0635 0.004,-0.12633 0.004,-0.18915 l 0,-4.56754 c -0.0139,-1.51584 -1.02929,-1.61525 -2.42957,-1.72584 m 0.52065,5.62914 c 0,0.0951 -0.009,0.18625 -0.009,0.28069 -0.0202,0.099 -0.0202,0.1857 -0.0416,0.28331 -0.0207,0.0196 -0.0391,0.0335 -0.0641,0.0489 -0.13931,0.0116 -0.26619,0 -0.38397,-0.005 -0.75826,-0.063 -0.76682,-0.46101 -0.75039,-0.89067 l 0,-3.24126 c 0,-0.1389 -0.0128,-0.3119 0.008,-0.48131 0,-0.17824 0.0262,-0.34364 0.0683,-0.49759 0.0262,-0.0126 0.0428,-0.0282 0.0648,-0.0482 0.11847,-0.003 0.22768,-0.0113 0.34614,0.005 0.75702,0.0668 0.76199,0.27683 0.76199,1.34215 l 0,3.20482 z"
     id="path245"
     inkscape:connector-curvature="0"
     style="fill:#ffffff" /><path
     d="m 32.347626,17.847266 c -0.0605,-0.15822 -0.0848,-0.30775 -0.14828,-0.47067 -0.2002,-0.65471 -0.3986,-1.2854 -0.62213,-1.94495 -0.67198,-1.81682 -2.52663,-1.73647 -2.52663,-1.73647 0,2.56032 -0.004,5.00852 -0.004,7.57063 0.63055,0.0819 1.19221,0.16541 1.82041,0.26012 l 0,-3.3154 c 0.486,1.20008 0.97131,2.35321 1.45785,3.56503 0.64837,0.11404 1.24427,0.23195 1.87054,0.36256 l 0,-7.56304 c -0.62945,-0.13061 -1.22217,-0.24424 -1.84734,-0.35925 l 0,3.63144 z"
     id="path247"
     inkscape:connector-curvature="0"
     style="fill:#ffffff" /><path
     d="m 37.150156,16.797546 0,-0.49387 c 0.54509,0.13821 1.083,0.28055 1.62808,0.43008 0.34559,0.0943 0.52866,-0.0119 0.67281,-0.14953 0.10244,-0.1422 0.16595,-0.29919 0.16595,-0.34682 0,-0.10673 -0.0128,-0.21428 -0.0128,-0.31673 -0.64657,-0.18956 -3.0296,-0.8128 -3.05169,-0.8128 -0.57146,-0.14193 -0.92616,-0.0192 -1.03288,0.39833 -0.0152,0.0751 -0.0159,0.11942 -0.0159,0.11942 0,0.0186 -0.12702,1.40428 0.0257,1.83837 0.24424,0.65499 0.74846,1.01893 1.41809,1.36313 0.0373,0.0232 0.11293,0.0538 0.17272,0.0897 0.0642,0.0445 0.13061,0.0947 0.17217,0.16664 0,0.95833 0.0141,1.87896 0.0141,2.83811 -0.54757,-0.14152 -1.09584,-0.26854 -1.64162,-0.39556 l 0,0.91318 c 0.70511,0.1654 1.39061,0.32293 2.09821,0.5165 0.76737,0.21 1.19455,0.0776 1.39599,-0.37554 0.0428,-0.0592 0.0378,-0.1099 0.0378,-0.1099 0,-0.22146 0.0184,-2.78675 -0.0159,-3.35254 -0.022,-0.20766 -0.13434,-0.37858 -0.31797,-0.56056 -0.10203,-0.0892 -0.2118,-0.17341 -0.31272,-0.25942 -0.12385,-0.0873 -0.2459,-0.17273 -0.36864,-0.25336 -0.48641,-0.33937 -1.0315,-0.70096 -1.0315,-1.24688"
     id="path249"
     inkscape:connector-curvature="0"
     style="fill:#ffffff" /><path
     d="m 17.353406,13.213736 0,1.09335 c 0.46515,-0.0244 0.8828,-0.0358 1.32779,-0.0476 l 0,6.477 c 0.64767,-0.019 1.27408,-0.0268 1.9212,-0.019 l 0,-6.48667 c 1.39669,0.0706 1.29162,-1.06891 1.29162,-1.06891 -1.54069,-0.0356 -3.00462,-0.0237 -4.54061,0.0519"
     id="path251"
     inkscape:connector-curvature="0"
     style="fill:#ffffff" /><path
     d="m 2.3097564,16.655616 c 0,2.19043 -0.0166,4.29526 0.005,6.48073 0.64643,-0.17342 1.2814,-0.33882 1.92838,-0.48904 l 0,-3.2697 c 0.61053,-0.1447 1.1929,-0.27462 1.79901,-0.40965 0.83338,-0.18501 1.37046,-0.70262 1.37419,-1.6372 l 0,-0.11901 c 0,-0.0512 0.005,-0.10245 0.005,-0.16168 0,-2.19167 -0.0764,-2.53408 -1.21789,-2.42059 -1.7228,0.3714 -3.37284,0.7903 -5.09067,1.28775 1.4e-4,0 -0.19882002,1.1443 1.19732,0.73839 m 1.90408,-0.51776 c 0.144,-0.0348 0.28455,-0.0704 0.42304,-0.095 0.14469,-0.0356 0.24907,-0.0583 0.35165,-0.0704 0.28387,-0.032 0.40592,0.0866 0.46888,0.26067 0.0184,0.0837 0.0207,0.16996 0.0207,0.2644 0,0.0907 0.005,0.17369 0.005,0.26067 0,0 -0.005,0.84663 -0.0128,1.31909 0,0.0385 -0.0128,0.0855 -0.0128,0.1215 -0.0799,0.0233 -0.15629,0.0439 -0.23623,0.0665 -0.3431,0.0757 -0.66052,0.15022 -1.0072,0.23747 l 0,-2.36495 z"
     id="path253"
     inkscape:connector-curvature="0"
     style="fill:#ffffff" /></svg>