<?xml version="1.0" encoding="UTF-8" standalone="no"?>
<!-- Generator: Adobe Illustrator 14.0.0, SVG Export Plug-In . SVG Version: 6.00 Build 43363)  -->

<svg
   xmlns:dc="http://purl.org/dc/elements/1.1/"
   xmlns:cc="http://creativecommons.org/ns#"
   xmlns:rdf="http://www.w3.org/1999/02/22-rdf-syntax-ns#"
   xmlns:svg="http://www.w3.org/2000/svg"
   xmlns="http://www.w3.org/2000/svg"
   xmlns:sodipodi="http://sodipodi.sourceforge.net/DTD/sodipodi-0.dtd"
   xmlns:inkscape="http://www.inkscape.org/namespaces/inkscape"
   version="1.1"
   id="Layer_1"
   x="0px"
   y="0px"
   width="40"
   height="33.73695"
   viewBox="0 0 40 33.73695"
   enable-background="new 0 0 250 217"
   xml:space="preserve"
   inkscape:version="0.91 r13725"
   sodipodi:docname="Indiana_Pacers_resized.svg"><metadata
     id="metadata61"><rdf:RDF><cc:Work
         rdf:about=""><dc:format>image/svg+xml</dc:format><dc:type
           rdf:resource="http://purl.org/dc/dcmitype/StillImage" /><dc:title></dc:title></cc:Work></rdf:RDF></metadata><defs
     id="defs59" /><sodipodi:namedview
     pagecolor="#ffffff"
     bordercolor="#666666"
     borderopacity="1"
     objecttolerance="10"
     gridtolerance="10"
     guidetolerance="10"
     inkscape:pageopacity="0"
     inkscape:pageshadow="2"
     inkscape:window-width="826"
     inkscape:window-height="480"
     id="namedview57"
     showgrid="false"
     fit-margin-top="0"
     fit-margin-left="0"
     fit-margin-right="0"
     fit-margin-bottom="0"
     inkscape:zoom="1.0875576"
     inkscape:cx="16.774064"
     inkscape:cy="17.084474"
     inkscape:window-x="0"
     inkscape:window-y="0"
     inkscape:window-maximized="0"
     inkscape:current-layer="Layer_1" /><g
     id="g3"
     transform="matrix(0.17123443,0,0,0.17123443,-1.9566958,-1.7474474)"><path
       display="none"
       d="m 50.188,7.069 -0.459,2.017 -44.703,203.253 90.17,0.044 c 0,0 10.577,-44.09 11.445,-47.674 3.612,0.021 34.799,0.021 34.799,0.021 28.257,0.199 51.535,-9.459 67.29,-27.979 28.633,-31.175 23.543,-76.695 2.047,-102.634 C 195.309,15.452 173.071,5.166 148.167,5.108 L 50.625,5.047 50.188,7.069"
       id="path5"
       inkscape:connector-curvature="0"
       style="display:none;fill:#ffffff" /><path
       d="M 206.805,37.397 C 192.345,19.95 171.523,10.302 148.167,10.263 l -93.398,-0.058 -43.342,196.978 79.737,0.044 11.434,-47.662 c 10.715,0 38.876,0.021 38.843,0.021 26.708,0.188 48.625,-8.862 63.373,-26.177 26.796,-29.164 22.094,-71.768 1.991,-96.012"
       id="path7"
       inkscape:connector-curvature="0"
       style="fill:#bec0c2" /><path
       display="none"
       d="M 206.805,37.397 C 192.345,19.95 171.523,10.302 148.167,10.263 l -93.398,-0.058 -43.342,196.978 79.737,0.044 11.434,-47.662 c 10.715,0 38.876,0.021 38.843,0.021 26.708,0.188 48.625,-8.862 63.373,-26.177 26.796,-29.164 22.094,-71.768 1.991,-96.012 z"
       id="path9"
       inkscape:connector-curvature="0"
       style="display:none;fill:none;stroke:#002d62;stroke-width:0.1926" /><path
       d="m 98.521,154.375 -11.44,47.663 -69.21,-0.044 41.069,-186.605 89.216,0.058 c 22.205,0.055 41.234,9.05 54.666,25.264 19.771,23.87 21.718,63.55 -1.947,89.334 -14.527,17.038 -35.813,24.506 -59.391,24.34 l -42.963,-0.01"
       id="path11"
       inkscape:connector-curvature="0"
       style="fill:#002d62" /><g
       id="g13"><path
         d="m 49.741,56.867 39.105,0.017 c 4.492,0 9.277,3.772 7.202,9.481 -1.283,3.524 -2.262,7.626 -2.71,11.459 -0.365,3.004 2.982,4.896 4.907,4.896 l 79.685,0.055 c 1.505,0 2.29,-0.423 2.29,-1.148 0,-0.703 -0.066,-3.344 -0.354,-5.203 -0.276,-1.754 -0.563,-2.072 -1.991,-2.072 -9.924,0 -13.974,-4.426 -24.396,-11.149 -10.411,-6.705 -25.682,-10.574 -38.804,-10.58 l -63.976,-0.042 -0.958,4.286"
         id="path15"
         inkscape:connector-curvature="0"
         style="fill:#ffc526" /><path
         d="m 98.023,108.466 c -1.377,-2.962 -2.661,-6.475 -3.441,-9.692 -0.979,-4.146 -4.481,-7.501 -10.466,-7.507 l -41.932,-0.033 1.034,-4.702 135.927,0.091 c 1.35,0 1.063,0.573 0.984,2.077 -0.066,1.491 -0.42,4.279 -0.642,5.911 -0.199,1.64 -1.56,1.25 -2.854,1.278 -3.064,0.069 -8.751,0.805 -12.06,3.275 -5.631,4.243 -17.646,11.67 -24.406,13.832 -7.236,2.313 -34.301,10.594 -42.233,-4.671"
         id="path17"
         inkscape:connector-curvature="0"
         style="fill:#ffc526" /><path
         d="m 34.655,125.482 70.979,0.05 c 3.137,0 5.831,0.741 7.927,2.494 5.991,4.93 13.769,8.53 22.014,10.915 3.718,1.073 10.079,-0.31 15.788,-3.535 14.206,-8.032 23.334,-23.319 26.343,-33.155 0.786,-2.578 -0.719,-2.362 -2.71,-2.213 -5.975,0.417 -12.271,5.839 -20.546,11.108 -8.287,5.269 -25.129,10.264 -41.11,10.236 l -77.773,-0.033 -0.912,4.133"
         id="path19"
         inkscape:connector-curvature="0"
         style="fill:#ffc526" /><path
         d="m 138.773,30.43 c 1.007,-0.188 4.603,-0.409 6.595,0.379 13.476,5.319 26.243,19.356 31.575,34.276 1.029,2.863 1.284,4.702 0,4.843 -6.185,0.692 -9.061,-2.373 -16.341,-7.288 -7.258,-4.918 -13.963,-8.284 -23.168,-11.21 -9.08,-2.89 -25.615,-3.308 -27.75,-3.377 -2.135,-0.069 -1.864,-0.968 -0.935,-1.892 7.922,-7.914 18.565,-13.648 30.024,-15.731"
         id="path21"
         inkscape:connector-curvature="0"
         style="fill:#ffc526" /><path
         d="m 203.464,81.57 c 0.044,0.583 -0.564,1.223 -1.272,1.223 -0.077,0 -15.556,-0.011 -15.556,-0.011 -1.991,0 -2.036,-0.929 -2.091,-2.077 -0.078,-1.14 -0.398,-3.416 -0.476,-4.777 -0.066,-1.314 -0.543,-2.821 1.205,-3.557 4.338,-1.842 8.431,-6.071 10.301,-9.692 0.62,-1.236 1.549,-3.252 2.622,-1.535 3.685,5.885 4.824,13.14 5.267,20.426"
         id="path23"
         inkscape:connector-curvature="0"
         style="fill:#ffc526" /><path
         d="m 197.91,109.515 c -0.266,0.53 -1.262,0.912 -1.594,0.055 -2.268,-6.077 -7.645,-10.234 -11.362,-12.319 -1.129,-0.623 -1.217,-1.344 -1.073,-2.454 0.155,-1.114 0.619,-4.638 0.675,-6.129 0.066,-1.179 0.542,-2.039 1.438,-2.039 l 16.197,0 c 0.564,0.005 1.272,0.525 1.272,0.962 0.001,7.72 -2.334,15.351 -5.553,21.924"
         id="path25"
         inkscape:connector-curvature="0"
         style="fill:#ffc526" /><path
         d="m 155.768,139.909 c -1.14,0.166 -3.618,-0.216 0.299,-2.506 11.771,-6.849 22.261,-22.913 25.06,-32.126 1.063,-3.513 1.184,-3.692 2.533,-3.319 1.793,0.531 4.636,2.974 6.815,5.969 2.169,2.987 3.12,8.837 1.859,10.513 -8.476,11.351 -21.906,19.329 -36.566,21.469"
         id="path27"
         inkscape:connector-curvature="0"
         style="fill:#ffc526" /><path
         d="m 185.718,67.229 c -2.744,1.466 -3.275,1.2 -3.851,-0.863 -5.122,-17.945 -20.202,-31.228 -26.376,-35.155 -1.173,-0.747 -0.863,-1.233 -0.011,-1.12 14.77,1.964 29.23,10.016 36.51,21.043 4.16,6.305 -3.629,14.678 -6.272,16.095"
         id="path29"
         inkscape:connector-curvature="0"
         style="fill:#ffc526" /></g><g
       id="g31"><path
         d="m 123.603,174.854 c -0.188,0.729 -2.932,12.347 -3.087,12.955 -0.559,0 -6.417,0 -7.296,0 0.221,-0.929 2.932,-12.357 3.07,-12.955 0.564,0 6.427,0 7.313,0 m -12.038,-5.244 -8.851,37.263 5.98,0 c 0,0 3.125,-13.21 3.281,-13.819 0.614,0 9.542,0 9.542,0 2.307,0 4.06,-1.394 4.602,-3.64 l 3.801,-16.009 c 0.089,-0.365 0.127,-0.687 0.127,-1.019 0,-0.642 -0.177,-1.217 -0.531,-1.659 -0.575,-0.741 -1.57,-1.117 -2.859,-1.117 l -15.092,0 z"
         id="path33"
         inkscape:connector-curvature="0"
         style="fill:#002d62" /><path
         d="m 123.603,174.854 c -0.188,0.729 -2.932,12.347 -3.087,12.955 -0.559,0 -6.417,0 -7.296,0 0.221,-0.929 2.932,-12.357 3.07,-12.955 0.564,0 6.427,0 7.313,0 z m -12.038,-5.244 -8.851,37.263 5.98,0 c 0,0 3.125,-13.21 3.281,-13.819 0.614,0 9.542,0 9.542,0 2.307,0 4.06,-1.394 4.602,-3.64 l 3.801,-16.009 c 0.089,-0.365 0.127,-0.687 0.127,-1.019 0,-0.642 -0.177,-1.217 -0.531,-1.659 -0.575,-0.741 -1.57,-1.117 -2.859,-1.117 l -15.092,0 z"
         id="path35"
         inkscape:connector-curvature="0"
         style="fill:#002d62" /><path
         d="m 143.288,193.651 c -0.188,0.819 -1.814,7.7 -1.959,8.254 -0.553,0 -5.72,0 -6.594,0 0.199,-0.808 1.848,-7.7 1.97,-8.254 0.565,0 5.709,0 6.583,0 m -4.747,-16.772 c -2.278,0 -3.772,1.173 -4.304,3.407 l -1.56,6.595 5.83,0 c 0,0 1.029,-4.382 1.162,-4.945 0.564,0 5.532,0 6.406,0 -0.211,0.852 -1.449,6.063 -1.582,6.615 -0.609,0 -8.486,0 -8.486,0 -2.578,0 -4.271,1.428 -4.901,4.149 l -2.581,10.81 c -0.065,0.276 -0.099,0.563 -0.099,0.829 0,0.609 0.182,1.206 0.559,1.671 0.559,0.708 1.493,1.096 2.63,1.096 0.022,0 0.155,-0.012 0.155,-0.012 2.091,-0.144 6.693,-0.497 8.485,-0.686 -0.021,0.1 -0.11,0.465 -0.11,0.465 l 5.831,0 6.272,-26.388 c 0.266,-1.15 0.166,-2.058 -0.331,-2.677 -0.487,-0.598 -1.306,-0.93 -2.424,-0.93 l -10.952,0 z"
         id="path37"
         inkscape:connector-curvature="0"
         style="fill:#002d62" /><path
         d="m 143.288,193.651 c -0.188,0.819 -1.814,7.7 -1.959,8.254 -0.553,0 -5.72,0 -6.594,0 0.199,-0.808 1.848,-7.7 1.97,-8.254 0.565,0 5.709,0 6.583,0 z m -4.747,-16.772 c -2.278,0 -3.772,1.173 -4.304,3.407 l -1.56,6.595 5.83,0 c 0,0 1.029,-4.382 1.162,-4.945 0.564,0 5.532,0 6.406,0 -0.211,0.852 -1.449,6.063 -1.582,6.615 -0.609,0 -8.486,0 -8.486,0 -2.578,0 -4.271,1.428 -4.901,4.149 l -2.581,10.81 c -0.065,0.276 -0.099,0.563 -0.099,0.829 0,0.609 0.182,1.206 0.559,1.671 0.559,0.708 1.493,1.096 2.63,1.096 0.022,0 0.155,-0.012 0.155,-0.012 2.091,-0.144 6.693,-0.497 8.485,-0.686 -0.021,0.1 -0.11,0.465 -0.11,0.465 l 5.831,0 6.272,-26.388 c 0.266,-1.15 0.166,-2.058 -0.331,-2.677 -0.487,-0.598 -1.306,-0.93 -2.424,-0.93 l -10.952,0 z"
         id="path39"
         inkscape:connector-curvature="0"
         style="fill:#002d62" /><path
         d="m 162.981,176.879 c -2.235,0 -3.695,1.173 -4.204,3.407 l -5.466,22.991 c -0.276,1.161 -0.188,2.058 0.321,2.688 0.464,0.598 1.294,0.907 2.423,0.907 l 10.765,0 c 2.257,0 3.673,-1.15 4.216,-3.396 l 2.124,-8.951 -5.742,0 c 0,0 -1.594,6.716 -1.726,7.291 -0.564,0 -5.345,0 -6.219,0 0.232,-0.94 4.581,-19.272 4.725,-19.881 0.564,0 5.354,0 6.207,0 -0.199,0.874 -1.162,4.879 -1.162,4.879 l 5.742,0 1.516,-6.329 c 0.277,-1.194 0.178,-2.068 -0.31,-2.722 -0.476,-0.563 -1.294,-0.885 -2.445,-0.885 l -10.765,0"
         id="path41"
         inkscape:connector-curvature="0"
         style="fill:#002d62" /><path
         d="m 162.981,176.879 c -2.235,0 -3.695,1.173 -4.204,3.407 l -5.466,22.991 c -0.276,1.161 -0.188,2.058 0.321,2.688 0.464,0.598 1.294,0.907 2.423,0.907 l 10.765,0 c 2.257,0 3.673,-1.15 4.216,-3.396 l 2.124,-8.951 -5.742,0 c 0,0 -1.594,6.716 -1.726,7.291 -0.564,0 -5.345,0 -6.219,0 0.232,-0.94 4.581,-19.272 4.725,-19.881 0.564,0 5.354,0 6.207,0 -0.199,0.874 -1.162,4.879 -1.162,4.879 l 5.742,0 1.516,-6.329 c 0.277,-1.194 0.178,-2.068 -0.31,-2.722 -0.476,-0.563 -1.294,-0.885 -2.445,-0.885 l -10.765,0 z"
         id="path43"
         inkscape:connector-curvature="0"
         style="fill:#002d62" /><path
         d="m 194.037,181.936 c -0.177,0.774 -1.46,6.129 -1.582,6.66 -0.553,0 -5.311,0 -6.174,0 0.188,-0.764 1.472,-6.118 1.594,-6.66 0.553,0 5.3,0 6.162,0 m -7.391,-5.057 c -2.224,0 -3.684,1.173 -4.215,3.407 l -5.455,22.991 c -0.276,1.161 -0.177,2.058 0.321,2.688 0.465,0.598 1.283,0.907 2.423,0.907 l 10.82,0 c 1.084,0.011 2.003,-0.255 2.722,-0.83 0.72,-0.564 1.206,-1.416 1.482,-2.566 l 2.003,-8.397 -5.831,0 c 0,0 -1.471,6.162 -1.615,6.737 -0.553,0 -5.288,0 -6.151,0 0.21,-0.885 1.848,-7.789 1.98,-8.353 0.62,0 10.621,0 10.621,0 l 1.693,-1.361 2.766,-11.617 c 0.11,-0.42 0.133,-0.818 0.133,-1.161 0,-0.62 -0.133,-1.129 -0.453,-1.549 -0.487,-0.575 -1.295,-0.896 -2.435,-0.896 l -10.809,0 z"
         id="path45"
         inkscape:connector-curvature="0"
         style="fill:#002d62" /><path
         d="m 194.037,181.936 c -0.177,0.774 -1.46,6.129 -1.582,6.66 -0.553,0 -5.311,0 -6.174,0 0.188,-0.764 1.472,-6.118 1.594,-6.66 0.553,0 5.3,0 6.162,0 z m -7.391,-5.057 c -2.224,0 -3.684,1.173 -4.215,3.407 l -5.455,22.991 c -0.276,1.161 -0.177,2.058 0.321,2.688 0.465,0.598 1.283,0.907 2.423,0.907 l 10.82,0 c 1.084,0.011 2.003,-0.255 2.722,-0.83 0.72,-0.564 1.206,-1.416 1.482,-2.566 l 2.003,-8.397 -5.831,0 c 0,0 -1.471,6.162 -1.615,6.737 -0.553,0 -5.288,0 -6.151,0 0.21,-0.885 1.848,-7.789 1.98,-8.353 0.62,0 10.621,0 10.621,0 l 1.693,-1.361 2.766,-11.617 c 0.11,-0.42 0.133,-0.818 0.133,-1.161 0,-0.62 -0.133,-1.129 -0.453,-1.549 -0.487,-0.575 -1.295,-0.896 -2.435,-0.896 l -10.809,0 z"
         id="path47"
         inkscape:connector-curvature="0"
         style="fill:#002d62" /><path
         d="m 220.712,176.624 c -2.346,0.266 -6.118,0.72 -7.744,0.963 0.021,-0.066 0.177,-0.697 0.177,-0.697 l -5.831,-0.011 -7.125,29.994 5.82,0 c 0,0 5.687,-23.887 5.83,-24.507 0.554,0 4.935,0 5.798,0 -0.222,0.874 -0.963,4.448 -0.963,4.448 l 5.875,0 1.46,-6.562 c 0.266,-1.15 0.145,-2.035 -0.331,-2.666 -0.521,-0.664 -1.438,-0.984 -2.744,-0.984 -0.056,0.011 -0.222,0.022 -0.222,0.022"
         id="path49"
         inkscape:connector-curvature="0"
         style="fill:#002d62" /><path
         d="m 220.712,176.624 c -2.346,0.266 -6.118,0.72 -7.744,0.963 0.021,-0.066 0.177,-0.697 0.177,-0.697 l -5.831,-0.011 -7.125,29.994 5.82,0 c 0,0 5.687,-23.887 5.83,-24.507 0.554,0 4.935,0 5.798,0 -0.222,0.874 -0.963,4.448 -0.963,4.448 l 5.875,0 1.46,-6.562 c 0.266,-1.15 0.145,-2.035 -0.331,-2.666 -0.521,-0.664 -1.438,-0.984 -2.744,-0.984 -0.056,0.011 -0.222,0.022 -0.222,0.022 z"
         id="path51"
         inkscape:connector-curvature="0"
         style="fill:#002d62" /><path
         d="m 231.322,176.879 c -1.161,0 -3.22,0.442 -3.916,3.407 l -1.704,7.147 c -0.066,0.266 -0.155,0.708 -0.155,1.162 0,0.52 0.122,1.04 0.454,1.438 0.021,0.011 0.021,0.044 0.033,0.077 0.021,0.011 0.021,0.011 0.021,0.022 l 0,-0.012 c 0.056,0.045 0.133,0.111 0.299,0.222 6.672,4.547 8.431,5.83 8.896,6.195 -0.1,0.442 -1.206,5.078 -1.25,5.277 -0.554,0 -4.912,0 -5.753,0 0.221,-0.885 1.582,-6.594 1.582,-6.594 l -5.842,0 -1.903,8.055 c -0.299,1.184 -0.177,2.113 0.321,2.732 0.453,0.564 1.173,0.863 2.146,0.863 l 10.941,0 c 2.059,0 3.396,-1.184 3.928,-3.396 l 1.87,-7.855 c 0.044,-0.21 0.144,-0.62 0.144,-1.084 0,-0.642 -0.154,-1.417 -0.797,-2.08 l -0.033,-0.033 -0.055,-0.033 c -3.087,-2.003 -7.955,-5.223 -8.807,-5.875 0.11,-0.442 1.007,-4.204 1.095,-4.58 0.542,0 5.023,0 5.875,0 -0.199,0.874 -1.14,4.956 -1.14,4.956 l 5.831,0 1.472,-6.406 c 0.287,-1.14 0.154,-2.068 -0.332,-2.722 -0.321,-0.398 -0.963,-0.885 -2.213,-0.885 l -11.008,0"
         id="path53"
         inkscape:connector-curvature="0"
         style="fill:#002d62" /><path
         d="m 231.322,176.879 c -1.161,0 -3.22,0.442 -3.916,3.407 l -1.704,7.147 c -0.066,0.266 -0.155,0.708 -0.155,1.162 0,0.52 0.122,1.04 0.454,1.438 0.021,0.011 0.021,0.044 0.033,0.077 0.021,0.011 0.021,0.011 0.021,0.022 l 0,-0.012 c 0.056,0.045 0.133,0.111 0.299,0.222 6.672,4.547 8.431,5.83 8.896,6.195 -0.1,0.442 -1.206,5.078 -1.25,5.277 -0.554,0 -4.912,0 -5.753,0 0.221,-0.885 1.582,-6.594 1.582,-6.594 l -5.842,0 -1.903,8.055 c -0.299,1.184 -0.177,2.113 0.321,2.732 0.453,0.564 1.173,0.863 2.146,0.863 l 10.941,0 c 2.059,0 3.396,-1.184 3.928,-3.396 l 1.87,-7.855 c 0.044,-0.21 0.144,-0.62 0.144,-1.084 0,-0.642 -0.154,-1.417 -0.797,-2.08 l -0.033,-0.033 -0.055,-0.033 c -3.087,-2.003 -7.955,-5.223 -8.807,-5.875 0.11,-0.442 1.007,-4.204 1.095,-4.58 0.542,0 5.023,0 5.875,0 -0.199,0.874 -1.14,4.956 -1.14,4.956 l 5.831,0 1.472,-6.406 c 0.287,-1.14 0.154,-2.068 -0.332,-2.722 -0.321,-0.398 -0.963,-0.885 -2.213,-0.885 l -11.008,0 z"
         id="path55"
         inkscape:connector-curvature="0"
         style="fill:#002d62" /></g></g></svg>