<?xml version="1.0" encoding="UTF-8" standalone="no"?>
<svg
   xmlns:dc="http://purl.org/dc/elements/1.1/"
   xmlns:cc="http://creativecommons.org/ns#"
   xmlns:rdf="http://www.w3.org/1999/02/22-rdf-syntax-ns#"
   xmlns:svg="http://www.w3.org/2000/svg"
   xmlns="http://www.w3.org/2000/svg"
   xmlns:sodipodi="http://sodipodi.sourceforge.net/DTD/sodipodi-0.dtd"
   xmlns:inkscape="http://www.inkscape.org/namespaces/inkscape"
   width="31.999985pt"
   height="22.815908pt"
   viewBox="0 0 31.999985 22.815908"
   version="1.1"
   id="svg2"
   inkscape:version="0.91 r13725"
   sodipodi:docname="Los_Angeles_Clippers_resized.svg">
  <metadata
     id="metadata76">
    <rdf:RDF>
      <cc:Work
         rdf:about="">
        <dc:format>image/svg+xml</dc:format>
        <dc:type
           rdf:resource="http://purl.org/dc/dcmitype/StillImage" />
        <dc:title></dc:title>
      </cc:Work>
    </rdf:RDF>
  </metadata>
  <defs
     id="defs74" />
  <sodipodi:namedview
     pagecolor="#ffffff"
     bordercolor="#666666"
     borderopacity="1"
     objecttolerance="10"
     gridtolerance="10"
     guidetolerance="10"
     inkscape:pageopacity="0"
     inkscape:pageshadow="2"
     inkscape:window-width="826"
     inkscape:window-height="480"
     id="namedview72"
     showgrid="false"
     fit-margin-top="0"
     fit-margin-left="0"
     fit-margin-right="0"
     fit-margin-bottom="0"
     inkscape:zoom="2.7668759"
     inkscape:cx="22.601983"
     inkscape:cy="17.046827"
     inkscape:window-x="0"
     inkscape:window-y="0"
     inkscape:window-maximized="0"
     inkscape:current-layer="svg2" />
  <path
     d="m 18.762675,0.15058227 c 0.90087,-0.15209 1.82127,-0.19145 2.73127,-0.10675 0.61842,0.0523 1.22898,0.17067 1.83103,0.31866 1.24094,0.28812 2.43307,0.79350003 3.49044,1.50576003 0.51326,0.34983 1.01486,0.72013 1.47238,1.14112 0.75666,0.68235 1.39334,1.48655 1.94816,2.33862 0.52837,0.83663 0.96102,1.73876 1.24315,2.68844 0.24938,0.89426 0.44146,1.80836 0.49751,2.7366197 0.0727,1.01392 -0.0274,2.0357 -0.256,3.02442 -0.14012,0.63291 -0.30953,1.26078 -0.54883,1.86378 -0.27552,0.70439 -0.62819,1.37886 -1.05139,2.00578 -0.43674,0.64897 -0.91693,1.27212 -1.4749,1.8219 -0.55796,0.56489 -1.18993,1.05107 -1.84929,1.49096 -0.9777,0.65085 -2.06813,1.12947 -3.2061,1.4179 -0.49437,0.12312 -0.99093,0.2412 -1.496,0.3111 -1.32564,0.19019 -2.68372,0.12312 -3.98921,-0.17129 -1.23496,-0.25128 -2.43214,-0.70187 -3.50745,-1.36217 -1.06996,-0.65779 -2.03633,-1.49159 -2.82227,-2.47244 -0.88324,3.1e-4 -1.76648,0 -2.6497104,0 -0.37503,0.41722 -0.80358,0.78531 -1.26834,1.09893 -0.46098,0.30417 -0.95692,0.56962 -1.49694,0.70029 -0.26135,0.0602 -0.52176,0.13131 -0.78909,0.15933 -0.47547,0.0457 -0.9544,-0.0176 -1.41444,-0.13917 -0.51451,-0.10612 -1.01108,-0.29977 -1.45474,-0.5819 -0.4887,-0.31803 -0.95913,-0.67731 -1.32754,-1.13326 -0.36022,-0.45248 -0.69304999,-0.93582 -0.90495999,-1.47741 -0.17067,-0.40998 -0.26293,-0.84577 -0.35991,-1.27716 -0.18326,-0.86906 -0.12627,-1.77529 0.0948,-2.63176 0.15964,-0.7406 0.41564,-1.46199 0.78153,-2.12607 0.25504999,-0.47421 0.57024999,-0.91252 0.90118999,-1.3363497 0.41312,-0.5164 0.9015,-0.97172 1.44404,-1.34958 -0.33409,-3.1e-4 -0.66849,0.004 -1.00227,-0.002 -0.14894,-0.0318 -0.34038,-0.13728 -0.31425,-0.31708 0.0132,-0.0894 0.009,-0.19334 0.0731,-0.26481 1.25354,-1.49978 2.50645,-2.99987 3.75967,-4.49995 0.12753,-0.15335 0.25789,-0.30449 0.3788,-0.46319 0.23427,-0.26765 0.60489,-0.36337 0.94716,-0.38793 2.01712,-0.003 4.0345604,10e-4 6.0516804,-0.002 0.59921,-0.48806 1.22299,-0.95251 1.90565,-1.31809 0.62882,-0.33849 1.29227,-0.61370003 1.97682,-0.81742003 0.54474,-0.15555 1.09767,-0.28592 1.65532,-0.38573 m -1.9935,1.52402003 c -1.16443,0.45185 -2.24352,1.12097 -3.1677,1.96075 -0.0519,0.0485 -0.11839,0.0844 -0.19113,0.08 -1.91069,3.2e-4 -3.8213804,6.3e-4 -5.7320704,-3.1e-4 -0.13603,9.4e-4 -0.29284,-0.0195 -0.40116,0.0819 -0.0869,0.0671 -0.11147,0.17885 -0.11115,0.28307 0.3259,0.0504 0.65652,0.0192 0.98463,0.0277 1.6528,0.003 3.3056104,-0.006 4.9584104,0.005 -0.23553,0.21884 -0.43642,0.47074 -0.65306,0.70722 -0.0343,0.0488 -0.0982,0.0419 -0.14988,0.0466 -1.98532,-0.003 -3.9706404,9.4e-4 -5.9556404,-0.003 -0.21003,-0.001 -0.38101,0.20278 -0.35298,0.40966 0.31708,0.0349 0.637,0.0104 0.95534,0.0176 1.71453,0.002 3.4290504,-0.004 5.1435704,0.003 -0.18484,0.26072 -0.36054,0.52836 -0.52239,0.8042 -2.0863904,0.007 -4.1727904,-0.001 -6.2588704,0.004 -0.18105,-0.003 -0.33944,0.18893 -0.26198,0.36432 2.10246,0.001 4.2046,-9.5e-4 6.3070504,0.001 -0.12658,0.26985 -0.27835,0.52837 -0.38101,0.80893 -0.37596,0.0157 -0.75256,0.004 -1.1285304,0.009 -1.7523,0.006 -3.50461,-0.004 -5.25692,0.002 -0.17853,0.007 -0.37344,0.0214 -0.51829,0.13792 -0.0882,0.0642 -0.0822,0.18357 -0.0995,0.27961 0.0882,0.0205 0.17728,0.0416 0.26859,0.0406 3.1381,-0.001 6.2765004,-6.3e-4 9.4149104,-3.1e-4 0.24246,0.005 0.48397,-0.0296 0.72675,-0.0261 5.13128,0.002 10.26256,0.006 15.39385,-3.1e-4 0.15933,0.32464 0.26985,0.67006 0.36683,1.01769 0.25065,0.93866 0.36652,1.9128897 0.34542,2.8842997 -0.028,1.05422 -0.20341,2.11095 -0.57937,3.09873 -0.15493,0.4062 -0.30607,0.8146 -0.48492,1.21135 -0.18578,0.41658 -0.40084,0.82561 -0.69494,1.17702 -0.33031,0.0586 -0.66377,-0.0164 -0.99534,0.0101 -0.29472,0.0189 -0.59008,-6.3e-4 -0.88481,0.009 -0.37659,0.0123 -0.75319,-0.0328 -1.12947,-0.003 -0.9352,0.004 -1.87039,-0.004 -2.80558,0.002 -0.72423,-0.0123 -1.44877,0.005 -2.1733,0.002 -0.53561,0.002 -1.07091,-0.0381 -1.60621,-0.005 -0.34448,-0.0233 -0.68832,0.0113 -1.0328,-0.002 -0.40116,-0.009 -0.80232,-0.006 -1.20347,0.005 -0.34606,-0.0192 -0.69211,0.005 -1.03816,-0.009 -0.36621,0.0299 -0.73304,-0.0192 -1.09925,0.007 -0.8612,0.0142 -1.72239,-0.0129 -2.5839,-0.008 -0.2941,-9.5e-4 -0.5882,0.0164 -0.88261,0.009 -0.31488,-0.0148 -0.62976,0.012 -0.94433,-0.0107 -0.5453704,0.0353 -1.0916904,-0.0167 -1.6370604,0.0113 -0.36809,-0.003 -0.73619,0.007 -1.10397,-0.005 -0.24088,-0.0173 -0.48145,0.004 -0.72233,0.003 -0.64173,0.008 -1.28377,-0.007 -1.92518,0.004 -0.0967,-0.0129 -0.14705,0.0879 -0.15177,0.16972 -0.009,0.16563 0.14264,0.32213 0.30921,0.31488 0.87033,0 1.74066,3.2e-4 2.61067,-6.3e-4 -0.39454,0.4506 -0.87159,0.84609 -1.4327,1.06871 -0.37125,0.14358 -0.78878,0.19207 -1.17482,0.0797 -0.52774,-0.13855 -0.95534,-0.52931 -1.23716,-0.98526 -0.36526,-0.58599 -0.51042,-1.28219 -0.53278,-1.96485 -0.0337,-1.0665 0.17948,-2.12922 0.53278,-3.13179 0.31519,-0.87726 0.74186,-1.71956 1.30864,-2.46142 0.48932,-0.6338497 1.1893,-1.1275897 1.9828,-1.2825097 0.57906,-0.0822 1.20284,-0.0312 1.71578,0.27048 0.438,0.25128 0.76012,0.67385 0.93803,1.1414397 0.0856,0.21538 0.11524,0.44965 0.2188404,0.65842 0.051,-0.004 0.10202,-0.008 0.15366,-0.012 0.0897,-0.23994 0.13729,-0.49247 0.20215,-0.73997 0.14831,-0.5837797 0.28686,-1.1700897 0.43894,-1.7526197 0.0296,-0.0923 0.006,-0.18767 -0.0154,-0.27835 -0.26198,-0.045 -0.52806,-0.0233 -0.79193,-0.0271 -0.7868804,0.002 -1.5734504,-0.005 -2.3600204,0.003 -0.2919,0.0271 -0.58568,0.0205 -0.87757,0.0472 -0.87757,0.11115 -1.7309,0.40965 -2.48818,0.86686 -0.87915,0.52963 -1.61817,1.2774697 -2.17236,2.1392897 -0.51546,0.80263 -0.88513,1.70193 -1.06367,2.63964 -0.16435999,0.86214 -0.13507999,1.76553 0.12438,2.60626 0.18578,0.60237 0.48775,1.1701 0.89269,1.65375 0.61842,0.73525 1.47584,1.28219 2.42205,1.47301 0.5205,0.10013 1.06776,0.10706 1.57881,-0.0466 0.48019,-0.13949 0.92512,-0.38478 1.32155,-0.68707 0.47705,-0.36306 0.90245,-0.79413 1.25606,-1.27841 0.33975,0.003 0.67919,-0.005 1.01895,0.005 0.8234104,0.0129 1.6468204,-0.009 2.4702304,0.0107 0.085,0.0919 0.15996,0.19239 0.23396,0.29347 0.95314,1.22677 2.19597,2.22652 3.59813,2.89564 2.03853,0.97235 4.39195,1.25196 6.60713,0.82624 1.91163,-0.36778 3.71212,-1.28943 5.12687,-2.62704 1.45066,-1.36028 2.50046,-3.14313 2.97751,-5.07429 0.25883,-1.04351 0.37093,-2.12733 0.29126,-3.20107 -0.0794,-1.1102697 -0.30417,-2.2180197 -0.73965,-3.2451497 -0.34039,-0.80484 -0.76359,-1.57661 -1.28597,-2.27785 -1.16128,-1.5703 -2.76591,-2.81408 -4.58812,-3.52193 -2.41827,-0.95093003 -5.19142,-0.96290003 -7.61505,-0.0242 m -2.78071,6.95349 c -0.34416,0.0447 -0.62126,0.3152 -0.74784,0.62819 -0.10422,0.25473 -0.13634,0.54568 -0.0617,0.8126997 0.0894,0.20782 0.32212,0.32779 0.54253,0.32716 0.22609,0.0148 0.46067,-0.0359 0.64519,-0.17192 0.27678,-0.19964 0.41753,-0.5371897 0.46634,-0.8659197 0.0274,-0.22073 -0.0236,-0.47547 -0.20688,-0.61937 -0.18074,-0.13697 -0.42256,-0.14075 -0.63763,-0.11084 m 7.90317,0.002 c -0.30984,0.0816 -0.58536,0.29756 -0.71446,0.59418 -0.11367,0.26733 -0.19302,0.58662 -0.0576,0.8615097 0.063,0.1502 0.21569,0.23112 0.36589,0.26954 0.33031,0.0838 0.68486,0.0457 1.00698,-0.0554 0.0636,-0.28434 0.12218,-0.5699297 0.18484,-0.8542697 -0.2349,-10e-4 -0.4698,-6.3e-4 -0.7047,-0.002 -0.0208,0.0979 -0.0384,0.19649 -0.0539,0.29536 0.10706,9.5e-4 0.21444,0.002 0.32181,0.003 -0.0296,0.11524 -0.057,0.23049 -0.0844,0.3463597 -0.18955,0.0362 -0.40619,0.0605 -0.57371,-0.056 -0.11997,-0.0866 -0.13697,-0.2496997 -0.12438,-0.3860497 0.0258,-0.28969 0.16248,-0.60488 0.44147,-0.73115 0.15114,-0.0674 0.35959,-0.0601 0.46633,0.0819 0.0116,0.0595 0.006,0.12091 0.008,0.18169 0.13005,-3.2e-4 0.26041,0 0.39077,0 6.3e-4,-0.13036 0.0239,-0.28119 -0.0712,-0.38699 -0.0938,-0.1036 -0.22892,-0.1757 -0.36999,-0.17791 -0.14421,-0.006 -0.28969,-0.008 -0.43233,0.0161 m -9.79339,0.003 c -0.10108,0.57718 -0.25568,1.14396 -0.3492,1.7227097 0.36778,9.5e-4 0.73556,6.3e-4 1.10334,0 0.0208,-0.10013 0.0403,-0.20058 0.0586,-0.30102 -0.24025,-3.2e-4 -0.48082,6.3e-4 -0.72107,-10e-4 0.0863,-0.4757897 0.21978,-0.9424397 0.28465,-1.4219997 -0.12532,0 -0.25096,6.3e-4 -0.37628,0.002 m 3.23948,0.26482 c -0.11115,0.13288 -0.14106,0.32306 -0.0979,0.48806 0.0674,0.13823 0.22262,0.19712 0.35833,0.24687 0.12217,0.0466 0.26481,0.0431 0.37282,0.12312 0.0879,0.0746 0.0346,0.20782 -0.039,0.2717397 -0.12375,0.11619 -0.30953,0.11461 -0.46319,0.0693 -0.0737,-0.0856 -0.0715,-0.1967997 -0.0652,-0.3029097 -0.12689,3.1e-4 -0.25379,6.3e-4 -0.38069,0.002 -0.005,0.11335 -0.022,0.2292297 0.004,0.3413197 0.0463,0.1417 0.19334,0.22168 0.33283,0.24593 0.26702,0.0371 0.55828,0.01 0.78625,-0.14548 0.13414,-0.0945 0.25254,-0.2358397 0.26356,-0.4061897 0.007,-0.10612 0.0161,-0.23742 -0.0753,-0.31236 -0.17822,-0.13792 -0.41249,-0.15493 -0.6159,-0.23711 -0.11399,-0.0362 -0.0948,-0.18767 -0.0463,-0.26985 0.0945,-0.14988 0.30953,-0.15177 0.44744,-0.0649 0.0324,0.0592 0.0365,0.12973 0.0539,0.19491 0.11965,3.2e-4 0.23931,-6.3e-4 0.35896,-0.002 -0.002,-0.13225 0.0192,-0.29189 -0.0926,-0.38856 -0.16437,-0.1524 -0.4021,-0.13666 -0.60961,-0.12469 -0.18672,0.0324 -0.37282,0.11902 -0.49279,0.27048 m 12.3666,0.18546 c -0.0494,0.13697 -0.0368,0.3152 0.0869,0.40935 0.19775,0.16153 0.46697,0.16342 0.68991,0.27174 0.009,0.12374 -0.0384,0.2563097 -0.14926,0.3217997 -0.13445,0.0548 -0.28528,0.0416 -0.42194,0.003 -0.0299,-0.096 -0.0479,-0.1949097 -0.0554,-0.2950397 -0.11903,0 -0.23774,-10e-4 -0.35645,-0.002 -0.0324,0.15366 -0.0538,0.3394397 0.0652,0.4634997 0.15303,0.14988 0.38415,0.14705 0.58379,0.13666 0.28969,-0.0157 0.59764,-0.1713 0.7069,-0.4537397 0.0532,-0.13446 0.0664,-0.31457 -0.0498,-0.42037 -0.17507,-0.14484 -0.41406,-0.14673 -0.6159,-0.23301 -0.0573,-0.0252 -0.13131,-0.0721 -0.10801,-0.1461 0.0239,-0.21759 0.31583,-0.33315 0.48901,-0.20688 0.0532,0.0557 0.0529,0.14044 0.0753,0.21097 0.11745,-9.5e-4 0.23521,-0.002 0.35298,-0.003 -3.2e-4,-0.13193 0.0145,-0.2878 -0.0901,-0.38793 -0.18074,-0.16752 -0.44901,-0.15114 -0.67415,-0.10958 -0.23648,0.0425 -0.45217,0.20845 -0.529,0.43957 m -9.6284,-0.4254 c -0.30984,0.57119 -0.6496,1.12569 -0.96227,1.6953097 0.11934,0.002 0.23867,0.003 0.35801,0.003 0.0664,-0.11871 0.13383,-0.2371 0.19995,-0.3558097 0.22231,-0.003 0.44493,-0.002 0.66755,-10e-4 0.012,0.1196497 0.0283,0.2386797 0.0488,0.3573897 0.12186,0 0.24435,-9.5e-4 0.36652,-0.002 -0.0608,-0.5689897 -0.14547,-1.1351397 -0.22513,-1.7019197 -0.15115,-6.3e-4 -0.3026,6.3e-4 -0.45343,0.005 m 1.32123,-0.003 c -0.12374,0.56615 -0.23899,1.13419 -0.36463,1.7000297 0.11808,0.001 0.23648,0.002 0.35487,0.002 0.0756,-0.33756 0.14831,-0.6757397 0.21727,-1.0145497 0.0202,-0.10454 0.0526,-0.20593 0.0904,-0.30512 0.12879,0.4358 0.2201,0.88167 0.34196,1.3193497 0.17035,-3.1e-4 0.34102,-3.1e-4 0.51168,3.2e-4 0.12249,-0.5674197 0.24246,-1.1351497 0.36274,-1.7028697 -0.1165,-6.3e-4 -0.23332,-3.2e-4 -0.34951,6.3e-4 -0.0992,0.4361 -0.18106,0.87599 -0.2878,1.31021 -0.096,-0.44052 -0.2264,-0.87285 -0.33535,-1.31021 -0.18074,-0.002 -0.36117,-0.002 -0.5416,0 m 3.53453,1.6997197 c 0.39864,0.002 0.79759,0.008 1.19623,-0.004 0.0107,-0.0989 0.0224,-0.19743 0.0346,-0.29598 -0.25789,6.3e-4 -0.51546,10e-4 -0.77335,-6.3e-4 0.017,-0.1467397 0.0447,-0.2915797 0.0762,-0.4357997 0.24907,-0.002 0.49846,0.003 0.74753,-0.005 0.009,-0.0982 0.0195,-0.19617 0.0302,-0.29378 -0.23837,0.001 -0.47673,0.002 -0.7151,-0.002 0.029,-0.13004 0.0611,-0.25946 0.0979,-0.38761 0.2538,10e-4 0.5079,3.1e-4 0.76201,10e-4 0.0195,-0.0923 0.0394,-0.18452 0.0605,-0.27678 -0.3851,-6.3e-4 -0.76988,-0.003 -1.15498,0.002 -0.11808,0.56678 -0.23836,1.13294 -0.3618,1.6987797 m 1.90692,-1.7003497 c -0.12312,0.56646 -0.24215,1.13356 -0.36117,1.7009797 0.37282,0.002 0.74595,0.003 1.11877,-10e-4 0.0173,-0.0998 0.0356,-0.19964 0.0551,-0.29914 -0.24277,0 -0.48586,0.001 -0.72863,-0.002 0.10454,-0.4650797 0.19743,-0.9329897 0.30071,-1.3983797 -0.12847,-6.3e-4 -0.25663,-9.4e-4 -0.38478,-3.1e-4 m 1.07437,1.7009797 c 0.39297,0.003 0.78625,3.1e-4 1.17954,0.002 0.0195,-0.10045 0.0384,-0.20089 0.056,-0.30165 -0.26418,-6.3e-4 -0.52836,10e-4 -0.79255,-0.002 0.0312,-0.1448497 0.0627,-0.2896897 0.0929,-0.4348497 0.24151,-0.002 0.48334,-9.5e-4 0.72517,-9.5e-4 0.0195,-0.0992 0.039,-0.19837 0.0579,-0.29756 -0.24057,-3.1e-4 -0.48114,0.002 -0.72171,-0.002 0.0277,-0.13067 0.0583,-0.2604 0.0954,-0.38856 0.25537,0.002 0.51074,0.002 0.76642,6.3e-4 0.0173,-0.0923 0.0356,-0.18452 0.0545,-0.27646 -0.38415,9.4e-4 -0.76799,-0.002 -1.15183,0.002 -0.11808,0.56709 -0.24057,1.13325 -0.36179,1.6997197 m 0.90213,1.07279 c -0.36778,0.14863 -0.64393,0.49751 -0.71069,0.88765 -0.0664,0.3703 -0.008,0.77083 0.19838,1.08917 0.32306,0.49751 0.71824,0.95566 0.94621,1.50922 0.086,0.21034 0.12154,0.46539 0.004,0.67101 -0.0913,0.1461 -0.22577,0.27111 -0.38793,0.33314 -0.20404,0.0693 -0.43454,0.0161 -0.60772,-0.10611 -0.32811,-0.22388 -0.51577,-0.61119 -0.55576,-0.99975 -0.0252,-0.19396 0.0198,-0.39612 -0.0516,-0.58284 -0.20247,0.44398 -0.21066,0.95346 -0.44524,1.38516 -0.0542,0.10233 -0.14422,0.21034 -0.27206,0.20215 -0.096,0.009 -0.16626,-0.0753 -0.19271,-0.15838 -0.097,-0.28308 -0.0734,-0.58694 -0.10296,-0.88041 -0.0208,-0.20341 0.0139,-0.4191 -0.0737,-0.61055 -0.068,-0.16783 -0.27773,-0.23207 -0.31205,-0.41942 0.34227,-0.13036 0.70218,-0.25033 0.97455,-0.50664 0.22483,-0.20184 0.39833,-0.48555 0.39707,-0.79539 0.0113,-0.30197 -0.0466,-0.64047 -0.27962,-0.85364 -0.27804,-0.23396 -0.65967,-0.25064 -1.00604,-0.2475 -0.79948,0.007 -1.59927,-0.008 -2.39875,0.007 9.4e-4,0.0179 0.003,0.0535 0.004,0.0712 0.1014,0.0759 0.23365,0.148 0.256,0.28529 0.0737,0.46161 -0.0819,0.91315 -0.17696,1.35902 -0.14296,0.60583 -0.29504,1.20945 -0.45721,1.81024 -0.0853,0.30638 -0.16562,0.61874 -0.32306,0.89773 -0.0749,0.14484 -0.2327,0.21065 -0.35267,0.31047 0.72328,0.0142 1.44687,0.0151 2.17047,0 -0.10958,-0.10234 -0.25033,-0.17098 -0.34133,-0.29221 -0.11525,-0.17098 -0.0875,-0.39014 -0.0444,-0.58001 0.0825,-0.3407 0.17917,-0.67731 0.25537,-1.01927 0.0246,-0.097 0.0513,-0.21569 0.1524,-0.26009 0.11304,-0.0202 0.20404,0.0784 0.24277,0.17445 0.085,0.2138 0.11241,0.44461 0.1439,0.67101 0.0403,0.2815 0.0107,0.56583 0.0202,0.84891 -0.003,0.20341 0.11556,0.38762 0.25883,0.52333 0.31991,0.30575 0.87379,0.31394 1.19623,0.007 0.11587,0.0208 0.23804,0.0501 0.35392,0.0113 0.18106,-0.0595 0.35046,-0.17129 0.54789,-0.16594 0.27269,-0.0173 0.4887,0.19113 0.75319,0.21821 0.52019,0.057 1.08571,-0.11651 1.42893,-0.52459 0.2752,-0.32086 0.38069,-0.76232 0.33346,-1.17734 -0.028,-0.29819 -0.14674,-0.5778 -0.28717,-0.83884 -0.25254,-0.46885 -0.59292,-0.88229 -0.86781,-1.33761 -0.0765,-0.12847 -0.14201,-0.27678 -0.11777,-0.42981 0.022,-0.13949 0.14453,-0.23868 0.27111,-0.28465 0.33409,-0.11336 0.73588,0.0359 0.91158,0.34291 0.12186,0.20498 0.10265,0.45279 0.12564,0.68108 0.0652,-0.11682 0.10737,-0.24403 0.14012,-0.37313 0.073,-0.28088 0.18609,-0.54978 0.24781,-0.83349 -0.2941,-0.11115 -0.61244,-0.10895 -0.92134,-0.13571 -0.35109,-0.0145 -0.71698,-0.0198 -1.0476,0.1165 m -21.6020304,-0.0419 c 0.0743,0.12816 0.23963,0.15304 0.32874,0.26828 0.1313,0.14359 0.11461,0.35613 0.0686,0.5312 -0.2604,0.98337 -0.51924,1.96706 -0.77901,2.95043 -0.10139,0.38163 -0.31173,0.75445 -0.66062,0.95944 0.097,0.0211 0.19491,0.0422 0.29473,0.0406 0.7554,-0.002 1.51079,-0.002 2.2665,-9.5e-4 0.2201,-0.002 0.44178,0.0126 0.65999,-0.0261 0.17917,-0.4761 0.33692,-0.96448 0.4062,-1.47018 -0.0756,0.0516 -0.13792,0.11966 -0.18011,0.2009 -0.16374,0.29472 -0.37597,0.56899 -0.65212,0.7661 -0.27363,0.18767 -0.61937,0.27206 -0.94779,0.2264 -0.13414,-0.0328 -0.1439,-0.19145 -0.10548,-0.3004 0.28433,-1.06555 0.56835,-2.1311 0.86245,-3.19414 0.0642,-0.24403 0.19491,-0.46665 0.35771,-0.65778 0.10202,-0.12092 0.25221,-0.18452 0.36809,-0.29001 -0.18231,-0.0176 -0.36557,-0.0129 -0.54852,-0.0126 -0.57969,0.005 -1.1597,-0.011 -1.7394,0.009 m 3.39976,-0.005 c 6.3e-4,0.0176 0.002,0.0529 0.003,0.0702 0.10139,0.0853 0.22262,0.16909 0.25694,0.30512 0.0535,0.22325 -0.0318,0.44524 -0.0872,0.65905 -0.23302,0.86182 -0.46508,1.72396 -0.69715,2.58611 -0.0655,0.24749 -0.12878,0.49845 -0.24812,0.72674 -0.075,0.1461 -0.21066,0.24529 -0.31268,0.37093 0.1121,0.0202 0.22514,0.0378 0.33913,0.0372 0.40903,-0.002 0.81805,-0.002 1.22708,0 0.12375,9.5e-4 0.24687,-0.0161 0.36873,-0.0375 -0.0406,-0.10674 -0.14201,-0.17318 -0.18515,-0.27835 -0.0929,-0.20341 -0.0765,-0.43831 -0.0135,-0.64739 0.25159,-0.93709 0.48901,-1.87763 0.7481504,-2.81251 0.0586,-0.19901 0.11462,-0.40022 0.20216,-0.58883 0.08,-0.17161 0.25064,-0.26859 0.3895,-0.38636 -0.6634504,-0.0154 -1.3272204,-0.008 -1.9906704,-0.004 m 2.3858504,-0.002 c 0.19774,0.1398 0.43705,0.35833 0.36337,0.62629 -0.0781,0.40147 -0.19113,0.79507 -0.29756,1.18962 -0.13288,0.5164 -0.26576,1.03281 -0.40116,1.54858 -0.0872,0.31173 -0.13414,0.63983 -0.29536,0.92543 -0.0828,0.16311 -0.22734,0.28024 -0.34857,0.41281 0.0768,0.0236 0.15398,0.0551 0.23616,0.0535 0.41092,0 0.82215,-9.5e-4 1.23307,-3.2e-4 0.20971,-0.003 0.42351,0.0189 0.62819,-0.039 -0.1332,-0.11493 -0.31709,-0.19617 -0.3788,-0.37376 -0.0825,-0.21979 -0.0214,-0.45595 0.0283,-0.67574 0.091,-0.37376 0.19208,-0.74626 0.32937,-1.10617 0.3026,-0.0258 0.60929,0.0359 0.90937,-0.0261 0.44241,-0.0919 0.87694,-0.2856 1.19088,-0.61811 0.2667,-0.27489 0.46445,-0.65118 0.42603,-1.04352 -0.0214,-0.24907 -0.10989,-0.51483 -0.31866,-0.66849 -0.18704,-0.13036 -0.41281,-0.21191 -0.64267,-0.20404 -0.88733,-0.005 -1.77466,-0.003 -2.66199,-9.4e-4 m 3.63812,0.003 c 0.13099,0.10517 0.28245,0.20687 0.34196,0.37218 0.051,0.11997 0.0328,0.2538 9.4e-4,0.37629 -0.26355,1.01485 -0.53151,2.02877 -0.78971,3.04488 -0.0756,0.33504 -0.22294,0.68172 -0.52491,0.87222 0.002,0.029 0.004,0.0582 0.007,0.0875 0.6666,3.1e-4 1.33351,3.1e-4 2.00012,0 3.1e-4,-0.0233 9.4e-4,-0.0702 10e-4,-0.0935 -0.10642,-0.0686 -0.23175,-0.13225 -0.28213,-0.256 -0.096,-0.22293 -0.0576,-0.47389 0.001,-0.70092 0.0986,-0.38384 0.19208,-0.77051 0.33629,-1.14081 0.30701,-0.0315 0.61811,0.0346 0.9226,-0.0315 0.51389,-0.10643 1.02053,-0.35991 1.33131,-0.79539 0.15996,-0.23206 0.30764,-0.50538 0.27489,-0.79696 -0.0142,-0.22199 -0.0844,-0.4487 -0.23742,-0.61527 -0.18955,-0.21821 -0.48176,-0.33031 -0.76767,-0.32779 -0.8719,0.004 -1.74381,-0.005 -2.61571,0.005 m 3.52256,0.009 c 0.12406,0.12438 0.3174,0.17791 0.39833,0.34228 0.0457,0.15996 0.0202,0.33094 -0.0158,0.49058 -0.2604,1.00195 -0.51168,2.00641 -0.76988,3.00899 -0.0948,0.35424 -0.33125,0.67825 -0.6729,0.82782 0.0897,0.0255 0.18263,0.0397 0.27615,0.0356 1.11247,-0.009 2.22494,0.009 3.3371,-0.009 0.0507,0.007 0.0727,-0.0469 0.097,-0.0812 0.0633,-0.11745 0.0869,-0.25065 0.1269,-0.37691 0.0863,-0.32118 0.21695,-0.63323 0.24372,-0.96794 -0.34259,0.33597 -0.55136,0.80042 -0.96102,1.06838 -0.35014,0.21979 -0.78248,0.20279 -1.17985,0.19869 -0.15366,0.007 -0.25002,-0.16374 -0.20405,-0.30102 0.14139,-0.55608 0.29536,-1.10933 0.43958,-1.66477 0.0331,-0.0989 0.0601,-0.22325 0.16688,-0.26797 0.17728,-0.0784 0.38227,0.0117 0.50192,0.15052 0.21538,0.22577 0.23931,0.55513 0.26419,0.85017 0.0176,-0.008 0.0523,-0.023 0.0699,-0.0305 0.14453,-0.55671 0.27772,-1.11625 0.42414,-1.67201 0.0343,-0.12627 0.0579,-0.25537 0.0687,-0.38573 -0.20468,0.16972 -0.33598,0.41501 -0.56269,0.55985 -0.20058,0.14013 -0.45186,0.18893 -0.69274,0.16689 -0.0104,-0.13918 -0.002,-0.2793 0.0334,-0.41438 0.0743,-0.29126 0.15775,-0.58001 0.22734,-0.87253 0.0391,-0.15902 0.10328,-0.31299 0.2053,-0.44209 0.35487,0.017 0.76012,-0.0772 1.06524,0.15649 0.26607,0.2242 0.23648,0.60457 0.26167,0.91819 0.0674,-0.0872 0.10957,-0.1905 0.13036,-0.29851 0.0724,-0.33377 0.17916,-0.6603 0.2223,-1.00005 -1.16694,0.008 -2.3342,-0.0113 -3.50115,0.0101 z"
     id="path4"
     inkscape:connector-curvature="0"
     style="opacity:1;fill:#fefffe" />
  <path
     d="m 16.769175,1.6746023 c 2.42363,-0.93866003 5.19678,-0.92669003 7.61505,0.0242 1.82221,0.70785 3.42684,1.95163 4.58812,3.52193 0.52238,0.70124 0.94558,1.47301 1.28597,2.27785 0.43548,1.02713 0.6603,2.13488 0.73965,3.2451497 0.0797,1.07374 -0.0324,2.15756 -0.29126,3.20107 -0.47705,1.93116 -1.52685,3.71401 -2.97751,5.07429 -1.41475,1.33761 -3.21524,2.25926 -5.12687,2.62704 -2.21518,0.42572 -4.5686,0.14611 -6.60713,-0.82624 -1.40216,-0.66912 -2.64499,-1.66887 -3.59813,-2.89564 -0.074,-0.10108 -0.14894,-0.20152 -0.23396,-0.29347 -0.82341,-0.0198 -1.64682,0.002 -2.4702304,-0.0107 -0.33976,-0.0101 -0.6792,-0.003 -1.01895,-0.005 -0.31362,-0.002 -0.62693,-0.001 -0.94055,-3.2e-4 -0.87001,9.5e-4 -1.74034,6.3e-4 -2.61067,6.3e-4 -0.16657,0.007 -0.31803,-0.14925 -0.30921,-0.31488 0.005,-0.0819 0.0551,-0.18263 0.15177,-0.16972 0.64141,-0.0113 1.28345,0.004 1.92518,-0.004 0.24088,9.4e-4 0.48145,-0.0208 0.72233,-0.003 0.36778,0.0123 0.73588,0.002 1.10397,0.005 0.54537,-0.028 1.09169,0.0239 1.6370604,-0.0113 0.31457,0.0227 0.62945,-0.004 0.94433,0.0107 0.29441,0.007 0.58851,-0.0104 0.88261,-0.009 0.86151,-0.005 1.7227,0.0217 2.5839,0.008 0.36621,-0.0265 0.73304,0.0227 1.09925,-0.007 0.34605,0.0132 0.6921,-0.0107 1.03816,0.009 0.40115,-0.0104 0.80231,-0.0132 1.20347,-0.005 0.34448,0.0135 0.68832,-0.0211 1.0328,0.002 0.5353,-0.0328 1.0706,0.007 1.60621,0.005 0.72453,0.003 1.44907,-0.0142 2.1733,-0.002 0.93519,-0.006 1.87038,0.003 2.80558,-0.002 0.37628,-0.0302 0.75288,0.0148 1.12947,0.003 0.29473,-0.0101 0.59009,0.009 0.88481,-0.009 0.33157,-0.0265 0.66503,0.0485 0.99534,-0.0101 0.2941,-0.35141 0.50916,-0.76044 0.69494,-1.17702 0.17885,-0.39675 0.32999,-0.80515 0.48492,-1.21135 0.37596,-0.98778 0.55135,-2.04451 0.57937,-3.09873 0.0211,-0.97141 -0.0948,-1.9456397 -0.34542,-2.8842997 -0.097,-0.34763 -0.2075,-0.69305 -0.36683,-1.01769 -5.13129,0.007 -10.26257,0.002 -15.39385,3.1e-4 -0.24278,-0.003 -0.48429,0.0309 -0.72675,0.0261 -3.13841,-3.2e-4 -6.2768104,-9.5e-4 -9.4149104,3.1e-4 -0.0913,9.5e-4 -0.18042,-0.0202 -0.26859,-0.0406 0.0173,-0.096 0.0113,-0.21538 0.0995,-0.27961 0.14485,-0.11651 0.33976,-0.13099 0.51829,-0.13792 1.75231,-0.005 3.50462,0.005 5.25692,-0.002 0.3759704,-0.005 0.7525704,0.007 1.1285304,-0.009 0.10266,-0.28056 0.25443,-0.53908 0.38101,-0.80893 -2.1024504,-0.002 -4.2045904,0 -6.3070504,-10e-4 -0.0775,-0.17539 0.0809,-0.36684 0.26198,-0.36432 2.08608,-0.005 4.17248,0.003 6.2588704,-0.004 0.16185,-0.27584 0.33755,-0.54348 0.52239,-0.8042 -1.71452,-0.008 -3.4290404,-0.002 -5.1435704,-0.003 -0.31834,-0.007 -0.63826,0.0173 -0.95534,-0.0176 -0.028,-0.20688 0.14295,-0.41092 0.35298,-0.40966 1.985,0.003 3.9703204,-6.3e-4 5.9556404,0.003 0.0516,-0.005 0.11556,0.002 0.14988,-0.0466 0.21664,-0.23648 0.41753,-0.48838 0.65306,-0.70722 -1.6528,-0.011 -3.3056104,-0.003 -4.9584104,-0.005 -0.32811,-0.008 -0.65873,0.0227 -0.98463,-0.0277 -3.2e-4,-0.10422 0.0242,-0.216 0.11115,-0.28307 0.10832,-0.10139 0.26513,-0.0809 0.40116,-0.0819 1.91069,9.4e-4 3.8213804,6.3e-4 5.7320704,3.1e-4 0.0727,0.004 0.13918,-0.0315 0.19113,-0.08 0.92418,-0.83978 2.00327,-1.5089 3.1677,-1.96075 m 0.81396,0.2837 c -1.03721,0.33346 -2.01775,0.84105 -2.89343,1.48907 0.12753,-0.0277 0.25505,-0.0557 0.38195,-0.0869 1.49505,-0.39202 3.07165,-0.48554 4.59945,-0.24434 1.08098,0.16562 2.12733,0.51734 3.1129,0.98746 0.15429,-0.3133 0.2623,-0.67321 0.17508,-1.0221 -0.0948,-0.32653 -0.35613,-0.56804 -0.62095,-0.76453 -0.44303,-0.33031 -0.94495,-0.57088 -1.45411,-0.78059 -0.16374,-0.0724 -0.34511,-0.0456 -0.51829,-0.0438 -0.94307,0.0255 -1.88393,0.17601 -2.7826,0.4657 m 4.46909,-0.35518 c 0.28591,0.16468 0.56584,0.34479 0.8083,0.57025 0.27426,0.25788 0.51294,0.58473 0.56741,0.96605 0.0592,0.40682 -0.0639,0.81522 -0.24308,1.1767 0.58977,0.32307 1.15561,0.69054 1.68523,1.1046 0.0447,0.0356 0.12847,0.0942 0.16563,0.0173 0.455,-0.69336 0.8952,-1.39712 1.30612,-2.11757 -1.26582,-0.90276 -2.74733,-1.50701 -4.28961,-1.71735 m -8.20766,2.61949 c -0.08,0.028 -0.15177,0.0756 -0.21128,0.13539 -0.85238,0.85144 -1.56968,1.84772 -2.0483,2.95641 1.71012,0.006 3.41991,0.009 5.13003,0.007 0.14673,-0.004 0.30134,0.0202 0.44083,-0.0397 0.91913,-0.38982 1.85716,-0.7321 2.79361,-1.07689 0.58631,-0.21601 1.15152,-0.49594 1.66037,-0.86025 0.34164,-0.24718 0.66502,-0.52711 0.91756,-0.86718 -1.35493,-0.65936 -2.85628,-1.01706 -4.36329,-1.03438 -1.47301,-0.0217 -2.94193,0.26607 -4.31953,0.77933 m 12.86064,-0.6348 c -0.43642,0.74721 -0.89489,1.48151 -1.36563,2.20794 0.53907,0.44681 1.06303,0.91283 1.55299,1.41349 0.28181,-0.36589 0.65715,-0.68707 1.11625,-0.79539 0.42131,-0.10957 0.86686,-0.006 1.2507,0.18043 -0.63133,-1.16568 -1.52087,-2.18086 -2.55431,-3.00647 m -3.77194,1.10774 c -0.5882,0.76327 -1.41476,1.30928 -2.28572,1.7013 -0.55765,0.24655 -1.13955,0.43202 -1.70728,0.65338 -0.20341,0.0809 -0.41753,0.13886 -0.60425,0.25568 1.8156,0.0192 3.63151,0.004 5.44742,0.01 0.3259,-0.47578 0.64708,-0.95472 0.96354,-1.4368 -0.57277,-0.43988 -1.16254,-0.86623 -1.81371,-1.18332 m 1.40657,2.61823 c 0.67793,0.004 1.35587,-0.003 2.0338,0.004 -0.18798,-0.17886 -0.37439,-0.35928 -0.56615,-0.53404 -0.23553,-0.20625 -0.45815,-0.43202 -0.71887,-0.60646 -0.24624,0.381 -0.51168,0.74941 -0.74878,1.1364 m 3.0622,-0.004 c 0.72864,0.012 1.45758,0.003 2.18653,0.005 -0.32685,-0.256 -0.71068,-0.46224 -1.12979,-0.50192 -0.40934,-0.0318 -0.802,0.18673 -1.05674,0.49657 M 12.904965,17.610432 c 0.52113,0.63889 1.11027,1.22646 1.78033,1.70949 0.46791,-0.56364 0.93362,-1.12916 1.39429,-1.69878 -1.05831,-0.0126 -2.11662,0.007 -3.17462,-0.0107 m 3.70771,0.0551 c -0.52238,0.63731 -1.03847,1.27998 -1.56936,1.91037 1.90817,1.3288 4.30976,1.89715 6.61563,1.65722 0.19963,-0.006 0.35392,-0.14611 0.52396,-0.23207 0.36967,-0.20247 0.72391,-0.43768 1.02273,-0.73682 0.75288,-0.72863 1.25133,-1.67768 1.60557,-2.65349 -2.66735,-0.006 -5.3347,9.4e-4 -8.00173,-0.003 -0.0686,0.004 -0.15397,-0.009 -0.1968,0.0583 m 8.66865,-0.0557 c -0.15587,0.438 -0.33346,0.86907 -0.54726,1.28219 -0.41596,0.79948 -0.96165,1.55551 -1.69973,2.0864 0.40179,-0.0891 0.79508,-0.21412 1.17702,-0.36684 0.78783,-0.30858 1.53599,-0.71729 2.21833,-1.21795 0.711,-0.5183 1.35651,-1.12349 1.93809,-1.78285 -1.02871,-0.004 -2.05774,-0.002 -3.08645,-9.5e-4 z"
     id="path6"
     inkscape:connector-curvature="0"
     style="opacity:1;fill:#d0103c" />
  <path
     d="m 17.583135,1.9583023 c 0.89867,-0.28969 1.83953,-0.4402 2.7826,-0.4657 0.17318,-0.002 0.35455,-0.0287 0.51829,0.0438 0.50916,0.20971 1.01108,0.45028 1.45411,0.78059 0.26482,0.19649 0.52617,0.438 0.62095,0.76453 0.0872,0.34889 -0.0208,0.7088 -0.17508,1.0221 -0.98557,-0.47012 -2.03192,-0.82184 -3.1129,-0.98746 -1.5278,-0.2412 -3.1044,-0.14768 -4.59945,0.24434 -0.1269,0.0312 -0.25442,0.0592 -0.38195,0.0869 0.87568,-0.64802 1.85622,-1.15561 2.89343,-1.48907 z"
     id="path8"
     inkscape:connector-curvature="0"
     style="opacity:1;fill:#fefffe" />
  <path
     d="m 22.052225,1.6031223 c 1.54228,0.21034 3.02379,0.81459 4.28961,1.71735 -0.41092,0.72045 -0.85112,1.42421 -1.30612,2.11757 -0.0372,0.0768 -0.12091,0.0183 -0.16563,-0.0173 -0.52962,-0.41406 -1.09546,-0.78153 -1.68523,-1.1046 0.17916,-0.36148 0.30228,-0.76988 0.24308,-1.1767 -0.0545,-0.38132 -0.29315,-0.70817 -0.56741,-0.96605 -0.24246,-0.22546 -0.52239,-0.40557 -0.8083,-0.57025 z"
     id="path10"
     inkscape:connector-curvature="0"
     style="opacity:1;fill:#fefffe" />
  <path
     d="m 13.844565,4.2226123 c 1.3776,-0.51326 2.84652,-0.80106 4.31953,-0.77933 1.50701,0.0173 3.00836,0.37502 4.36329,1.03438 -0.25254,0.34007 -0.57592,0.62 -0.91756,0.86718 -0.50885,0.36431 -1.07406,0.64424 -1.66037,0.86025 -0.93645,0.34479 -1.87448,0.68707 -2.79361,1.07689 -0.13949,0.0598 -0.2941,0.0356 -0.44083,0.0397 -1.71012,0.001 -3.41991,-0.001 -5.13003,-0.007 0.47862,-1.10869 1.19592,-2.10497 2.0483,-2.95641 0.0595,-0.0598 0.1313,-0.10737 0.21128,-0.13539 z"
     id="path12"
     inkscape:connector-curvature="0"
     style="opacity:1;fill:#fefffe" />
  <path
     d="m 26.705205,3.5878123 c 1.03344,0.82561 1.92298,1.84079 2.55431,3.00647 -0.38384,-0.18641 -0.82939,-0.29 -1.2507,-0.18043 -0.4591,0.10832 -0.83444,0.4295 -1.11625,0.79539 -0.48996,-0.50066 -1.01392,-0.96668 -1.55299,-1.41349 0.47074,-0.72643 0.92921,-1.46073 1.36563,-2.20794 z"
     id="path14"
     inkscape:connector-curvature="0"
     style="opacity:1;fill:#fefffe" />
  <path
     d="m 22.933265,4.6955523 c 0.65117,0.31709 1.24094,0.74344 1.81371,1.18332 -0.31646,0.48208 -0.63764,0.96102 -0.96354,1.4368 -1.81591,-0.006 -3.63182,0.009 -5.44742,-0.01 0.18672,-0.11682 0.40084,-0.17476 0.60425,-0.25568 0.56773,-0.22136 1.14963,-0.40683 1.70728,-0.65338 0.87096,-0.39202 1.69752,-0.93803 2.28572,-1.7013 z"
     id="path16"
     inkscape:connector-curvature="0"
     style="opacity:1;fill:#fefffe" />
  <path
     d="m 24.339835,7.3137823 c 0.2371,-0.38699 0.50254,-0.7554 0.74878,-1.1364 0.26072,0.17444 0.48334,0.40021 0.71887,0.60646 0.19176,0.17476 0.37817,0.35518 0.56615,0.53404 -0.67793,-0.007 -1.35587,3.1e-4 -2.0338,-0.004 z"
     id="path18"
     inkscape:connector-curvature="0"
     style="opacity:1;fill:#fefffe" />
  <path
     d="m 27.402035,7.3096923 c 0.25474,-0.30984 0.6474,-0.52837 1.05674,-0.49657 0.41911,0.0397 0.80294,0.24592 1.12979,0.50192 -0.72895,-0.003 -1.45789,0.007 -2.18653,-0.005 z"
     id="path20"
     inkscape:connector-curvature="0"
     style="opacity:1;fill:#fefffe" />
  <path
     d="m 6.8025946,8.2483523 c 0.29189,-0.0268 0.58567,-0.0202 0.87757,-0.0472 0.78657,-0.009 1.57314,-0.001 2.3600204,-0.003 0.26387,0.004 0.52995,-0.0179 0.79193,0.0271 0.0214,0.0907 0.045,0.18609 0.0154,0.27835 -0.15208,0.58253 -0.29063,1.16884 -0.43894,1.7526197 -0.0649,0.2475 -0.11241,0.50003 -0.20215,0.73997 -0.0516,0.004 -0.10265,0.008 -0.15366,0.012 -0.1036004,-0.20877 -0.1332004,-0.44304 -0.2188404,-0.65842 -0.17791,-0.4675897 -0.50003,-0.8901597 -0.93803,-1.1414397 -0.51294,-0.30165 -1.13672,-0.35266 -1.71578,-0.27048 -0.7935,0.15492 -1.49348,0.64866 -1.9828,1.2825097 -0.56678,0.74186 -0.99345,1.58416 -1.30864,2.46142 -0.3533,1.00257 -0.56647,2.06529 -0.53278,3.13179 0.0224,0.68266 0.16752,1.37886 0.53278,1.96485 0.28182,0.45595 0.70942,0.84671 1.23716,0.98526 0.38604,0.11241 0.80357,0.0639 1.17482,-0.0797 0.56111,-0.22262 1.03816,-0.61811 1.4327,-1.06871 0.31362,-9.4e-4 0.62693,-0.001 0.94055,3.2e-4 -0.35361,0.48428 -0.77901,0.91535 -1.25606,1.27841 -0.39643,0.30229 -0.84136,0.54758 -1.32155,0.68707 -0.51105,0.15366 -1.05831,0.14673 -1.57881,0.0466 -0.94621,-0.19082 -1.80363,-0.73776 -2.42205,-1.47301 -0.40494,-0.48365 -0.70691,-1.05138 -0.89269,-1.65375 -0.25945999,-0.84073 -0.28873999,-1.74412 -0.12438,-2.60626 0.17854,-0.93771 0.54821,-1.83701 1.06367,-2.63964 0.55419,-0.86182 1.29321,-1.6096597 2.17236,-2.1392897 0.75728,-0.45721 1.61061,-0.75571 2.48818,-0.86686 z"
     id="path22"
     inkscape:connector-curvature="0"
     style="opacity:1;fill:#0446ac" />
  <path
     d="m 13.988465,8.6280923 c 0.21507,-0.0299 0.45689,-0.0261 0.63763,0.11084 0.18326,0.1439 0.23427,0.39864 0.20688,0.61937 -0.0488,0.32873 -0.18956,0.6662797 -0.46634,0.8659197 -0.18452,0.13603 -0.4191,0.18672 -0.64519,0.17192 -0.22041,6.3e-4 -0.45311,-0.11934 -0.54253,-0.32716 -0.0746,-0.2670197 -0.0425,-0.5579697 0.0617,-0.8126997 0.12658,-0.31299 0.40368,-0.58348 0.74784,-0.62819 m -3.1e-4,0.27678 c -0.1291,0.045 -0.24278,0.13414 -0.30638,0.25631 -0.1332,0.2349 -0.17161,0.51987 -0.12879,0.78468 0.0765,0.1665697 0.30418,0.2301797 0.46445,0.1457897 0.27804,-0.1205997 0.3725,-0.4423997 0.42257,-0.7153997 0.0419,-0.17098 -0.0217,-0.36841 -0.17161,-0.46634 -0.0875,-0.0384 -0.1905,-0.0321 -0.28024,-0.005 z"
     id="path24"
     inkscape:connector-curvature="0"
     style="opacity:1;fill:#0446ac" />
  <path
     d="m 21.891635,8.6299823 c 0.14264,-0.0236 0.28812,-0.0217 0.43233,-0.0161 0.14107,0.002 0.27615,0.0743 0.36999,0.17791 0.0951,0.1058 0.0718,0.25663 0.0712,0.38699 -0.13036,0 -0.26072,-3.2e-4 -0.39077,0 -0.003,-0.0608 0.003,-0.12218 -0.008,-0.18169 -0.10674,-0.14201 -0.31519,-0.14925 -0.46633,-0.0819 -0.27899,0.12627 -0.41565,0.44146 -0.44147,0.73115 -0.0126,0.13635 0.004,0.29945 0.12438,0.3860497 0.16752,0.1165 0.38416,0.0922 0.57371,0.056 0.0274,-0.1158697 0.0548,-0.2311197 0.0844,-0.3463597 -0.10737,-9.5e-4 -0.21475,-0.002 -0.32181,-0.003 0.0154,-0.0989 0.0331,-0.19743 0.0539,-0.29536 0.2349,9.5e-4 0.4698,3.2e-4 0.7047,0.002 -0.0627,0.28434 -0.12123,0.5699297 -0.18484,0.8542697 -0.32212,0.10107 -0.67667,0.13918 -1.00698,0.0554 -0.1502,-0.0384 -0.30292,-0.11934 -0.36589,-0.26954 -0.1354,-0.2748897 -0.0561,-0.5941797 0.0576,-0.8615097 0.1291,-0.29662 0.40462,-0.51263 0.71446,-0.59418 z"
     id="path26"
     inkscape:connector-curvature="0"
     style="opacity:1;fill:#0446ac" />
  <path
     d="m 12.098245,8.6334423 c 0.12532,-9.4e-4 0.25096,-0.002 0.37628,-0.002 -0.0649,0.47956 -0.19837,0.94621 -0.28465,1.4219997 0.24025,0.002 0.48082,9.4e-4 0.72107,10e-4 -0.0183,0.10044 -0.0378,0.20089 -0.0586,0.30102 -0.36778,6.3e-4 -0.73556,9.5e-4 -1.10334,0 0.0935,-0.5787497 0.24812,-1.1455297 0.3492,-1.7227097 z"
     id="path28"
     inkscape:connector-curvature="0"
     style="opacity:1;fill:#0446ac" />
  <path
     d="m 15.337725,8.8982623 c 0.11997,-0.15146 0.30607,-0.23805 0.49279,-0.27048 0.20751,-0.012 0.44524,-0.0277 0.60961,0.12469 0.11178,0.0967 0.0907,0.25631 0.0926,0.38856 -0.11965,9.4e-4 -0.23931,0.002 -0.35896,0.002 -0.0173,-0.0652 -0.0214,-0.13571 -0.0539,-0.19491 -0.13791,-0.0869 -0.35298,-0.085 -0.44744,0.0649 -0.0485,0.0822 -0.0677,0.23364 0.0463,0.26985 0.20341,0.0822 0.43768,0.0992 0.6159,0.23711 0.0913,0.0749 0.0825,0.20624 0.0753,0.31236 -0.011,0.1703497 -0.12942,0.3117297 -0.26356,0.4061897 -0.22797,0.15524 -0.51923,0.18263 -0.78625,0.14548 -0.13949,-0.0242 -0.28654,-0.10423 -0.33283,-0.24593 -0.0264,-0.11209 -0.01,-0.2279697 -0.004,-0.3413197 0.1269,-10e-4 0.2538,-0.002 0.38069,-0.002 -0.006,0.10611 -0.009,0.2172597 0.0652,0.3029097 0.15366,0.0453 0.33944,0.0469 0.46319,-0.0693 0.0737,-0.0639 0.1269,-0.1971197 0.039,-0.2717397 -0.10801,-0.08 -0.25065,-0.0765 -0.37282,-0.12312 -0.13571,-0.0498 -0.29095,-0.10864 -0.35833,-0.24687 -0.0431,-0.165 -0.0132,-0.35518 0.0979,-0.48806 z"
     id="path30"
     inkscape:connector-curvature="0"
     style="opacity:1;fill:#0446ac" />
  <path
     d="m 27.704325,9.0837223 c 0.0768,-0.23112 0.29252,-0.39706 0.529,-0.43957 0.22514,-0.0416 0.49341,-0.0579 0.67415,0.10958 0.10454,0.10013 0.0897,0.256 0.0901,0.38793 -0.11777,9.4e-4 -0.23553,0.002 -0.35298,0.003 -0.0224,-0.0705 -0.022,-0.15524 -0.0753,-0.21097 -0.17318,-0.12627 -0.46507,-0.0107 -0.48901,0.20688 -0.0233,0.074 0.0507,0.12091 0.10801,0.1461 0.20184,0.0863 0.44083,0.0882 0.6159,0.23301 0.11619,0.1058 0.10297,0.28591 0.0498,0.42037 -0.10926,0.2824397 -0.41721,0.4379897 -0.7069,0.4537397 -0.19964,0.0104 -0.43076,0.0132 -0.58379,-0.13666 -0.11902,-0.12406 -0.0976,-0.3098397 -0.0652,-0.4634997 0.11871,6.3e-4 0.23742,0.002 0.35645,0.002 0.008,0.10013 0.0255,0.199 0.0554,0.2950397 0.13666,0.0381 0.28749,0.0513 0.42194,-0.003 0.11084,-0.0655 0.15776,-0.1980597 0.14926,-0.3217997 -0.22294,-0.10832 -0.49216,-0.11021 -0.68991,-0.27174 -0.12374,-0.0941 -0.13634,-0.27238 -0.0869,-0.40935 z"
     id="path32"
     inkscape:connector-curvature="0"
     style="opacity:1;fill:#0446ac" />
  <path
     d="m 18.075925,8.6583223 c 0.15083,-0.005 0.30228,-0.006 0.45343,-0.005 0.0797,0.56678 0.16436,1.13293 0.22513,1.7019197 -0.12217,10e-4 -0.24466,0.002 -0.36652,0.002 -0.0205,-0.11871 -0.0368,-0.23774 -0.0488,-0.3573897 -0.22262,-3.2e-4 -0.44524,-0.001 -0.66755,9.997e-4 -0.0661,0.11871 -0.13351,0.2371 -0.19995,0.35581 -0.11934,0 -0.23867,-9.4e-4 -0.35801,-0.003 0.31267,-0.5696197 0.65243,-1.1241197 0.96227,-1.6953097 m -0.23333,1.04257 c 0.15524,0.003 0.31079,0.003 0.46634,0.002 -0.0416,-0.22042 -0.0485,-0.44461 -0.0724,-0.66692 -0.16185,0.20216 -0.2708,0.43863 -0.39392,0.66472 z"
     id="path34"
     inkscape:connector-curvature="0"
     style="opacity:1;fill:#0446ac" />
  <path
     d="m 19.397155,8.6548623 c 0.18043,-0.002 0.36086,-0.002 0.5416,0 0.10895,0.43736 0.23931,0.86969 0.33535,1.31021 0.10674,-0.43422 0.18861,-0.87411 0.2878,-1.31021 0.11619,-9.5e-4 0.23301,-10e-4 0.34951,-6.3e-4 -0.12028,0.56772 -0.24025,1.13545 -0.36274,1.7028697 -0.17066,-6.3e-4 -0.34133,-6.3e-4 -0.51168,-3.2e-4 -0.12186,-0.4376797 -0.21317,-0.8835497 -0.34196,-1.3193497 -0.0378,0.0992 -0.0702,0.20058 -0.0904,0.30512 -0.069,0.33881 -0.1417,0.6769897 -0.21727,1.0145497 -0.11839,-3.2e-4 -0.23679,-9.5e-4 -0.35487,-0.002 0.12564,-0.5658397 0.24089,-1.1338797 0.36463,-1.7000297 z"
     id="path36"
     inkscape:connector-curvature="0"
     style="opacity:1;fill:#0446ac" />
  <path
     d="m 22.931685,10.354582 c 0.12344,-0.5658397 0.24372,-1.1319997 0.3618,-1.6987797 0.3851,-0.004 0.76988,-0.002 1.15498,-0.002 -0.0211,0.0923 -0.0409,0.18452 -0.0605,0.27678 -0.25411,-9.5e-4 -0.50821,0 -0.76201,-10e-4 -0.0368,0.12815 -0.069,0.25757 -0.0979,0.38761 0.23837,0.004 0.47673,0.003 0.7151,0.002 -0.0107,0.0976 -0.0208,0.19554 -0.0302,0.29378 -0.24907,0.008 -0.49846,0.003 -0.74753,0.005 -0.0315,0.14422 -0.0592,0.28906 -0.0762,0.4357997 0.25789,0.002 0.51546,10e-4 0.77335,6.3e-4 -0.0123,0.0985 -0.0239,0.19711 -0.0346,0.29598 -0.39864,0.0123 -0.79759,0.006 -1.19623,0.004 z"
     id="path38"
     inkscape:connector-curvature="0"
     style="opacity:1;fill:#0446ac" />
  <path
     d="m 24.838605,8.6542323 c 0.12815,-6.3e-4 0.25631,-3.2e-4 0.38478,3.1e-4 -0.10328,0.46539 -0.19617,0.9333 -0.30071,1.3983797 0.24277,0.003 0.48586,0.002 0.72863,0.002 -0.0195,0.0995 -0.0378,0.19932 -0.0551,0.29914 -0.37282,0.005 -0.74595,0.003 -1.11877,10e-4 0.11902,-0.5674197 0.23805,-1.1345197 0.36117,-1.7009797 z"
     id="path40"
     inkscape:connector-curvature="0"
     style="opacity:1;fill:#0446ac" />
  <path
     d="m 25.912975,10.355212 c 0.12122,-0.5664697 0.24371,-1.1326297 0.36179,-1.6997197 0.38384,-0.004 0.76768,-9.5e-4 1.15183,-0.002 -0.0189,0.0919 -0.0371,0.1842 -0.0545,0.27646 -0.25568,9.5e-4 -0.51105,9.5e-4 -0.76642,-6.3e-4 -0.0371,0.12816 -0.0677,0.25789 -0.0954,0.38856 0.24057,0.003 0.48114,0.002 0.72171,0.002 -0.0189,0.0992 -0.0384,0.19838 -0.0579,0.29756 -0.24183,0 -0.48366,-0.001 -0.72517,9.5e-4 -0.0302,0.14516 -0.0617,0.29 -0.0929,0.4348497 0.26419,0.003 0.52837,0.001 0.79255,0.002 -0.0176,0.10076 -0.0365,0.2012 -0.056,0.30165 -0.39329,-10e-4 -0.78657,0.002 -1.17954,-0.002 z"
     id="path42"
     inkscape:connector-curvature="0"
     style="opacity:1;fill:#0446ac" />
  <path
     d="m 13.988155,8.9048723 c 0.0897,-0.0271 0.1927,-0.0334 0.28024,0.005 0.14988,0.0979 0.21349,0.29536 0.17161,0.46634 -0.0501,0.273 -0.14453,0.5948 -0.42257,0.7153997 -0.16027,0.0844 -0.38793,0.0208 -0.46445,-0.1457897 -0.0428,-0.26481 -0.004,-0.54978 0.12879,-0.78468 0.0636,-0.12217 0.17728,-0.21128 0.30638,-0.25631 z"
     id="path44"
     inkscape:connector-curvature="0"
     style="opacity:1;fill:#fefffe" />
  <path
     d="m 17.842595,9.7008923 c 0.12312,-0.22609 0.23207,-0.46256 0.39392,-0.66472 0.0239,0.22231 0.0309,0.4465 0.0724,0.66692 -0.15555,6.3e-4 -0.3111,6.3e-4 -0.46634,-0.002 z"
     id="path46"
     inkscape:connector-curvature="0"
     style="opacity:1;fill:#fefffe" />
  <path
     d="m 26.815105,11.428002 c 0.33062,-0.13634 0.69651,-0.13099 1.0476,-0.1165 0.3089,0.0268 0.62724,0.0246 0.92134,0.13571 -0.0617,0.28371 -0.17476,0.55261 -0.24781,0.83349 -0.0328,0.1291 -0.0749,0.25631 -0.14012,0.37313 -0.023,-0.22829 -0.004,-0.4761 -0.12564,-0.68108 -0.1757,-0.30701 -0.57749,-0.45627 -0.91158,-0.34291 -0.12658,0.046 -0.24907,0.14516 -0.27111,0.28465 -0.0242,0.15303 0.0412,0.30134 0.11777,0.42981 0.27489,0.45532 0.61527,0.86876 0.86781,1.33761 0.14043,0.26104 0.25914,0.54065 0.28717,0.83884 0.0472,0.41502 -0.0583,0.85648 -0.33346,1.17734 -0.34322,0.40808 -0.90874,0.58158 -1.42893,0.52459 -0.26449,-0.0271 -0.4805,-0.23553 -0.75319,-0.21821 -0.19743,-0.005 -0.36683,0.10643 -0.54789,0.16594 -0.11588,0.0387 -0.23805,0.009 -0.35392,-0.0113 -0.32244,0.3067 -0.87632,0.29851 -1.19623,-0.007 -0.14327,-0.13571 -0.26135,-0.31992 -0.25883,-0.52333 -0.009,-0.28308 0.0202,-0.56741 -0.0202,-0.84891 -0.0315,-0.2264 -0.0589,-0.45721 -0.1439,-0.67101 -0.0387,-0.096 -0.12973,-0.1946 -0.24277,-0.17445 -0.10108,0.0444 -0.12784,0.16311 -0.1524,0.26009 -0.0762,0.34196 -0.17287,0.67857 -0.25537,1.01927 -0.0431,0.18987 -0.0709,0.40903 0.0444,0.58001 0.091,0.12123 0.23175,0.18987 0.34133,0.29221 -0.7236,0.0151 -1.44719,0.0142 -2.17047,0 0.11997,-0.0998 0.27773,-0.16563 0.35267,-0.31047 0.15744,-0.27899 0.23773,-0.59135 0.32306,-0.89773 0.16217,-0.60079 0.31425,-1.20441 0.45721,-1.81024 0.0951,-0.44587 0.25064,-0.89741 0.17696,-1.35902 -0.0223,-0.13729 -0.1546,-0.2094 -0.256,-0.28529 -0.001,-0.0176 -0.003,-0.0532 -0.004,-0.0712 0.79948,-0.0145 1.59927,-3.1e-4 2.39875,-0.007 0.34637,-0.003 0.728,0.0135 1.00604,0.2475 0.23301,0.21317 0.29095,0.55167 0.27962,0.85364 0.001,0.30984 -0.17224,0.59355 -0.39707,0.79539 -0.27237,0.25631 -0.63228,0.37628 -0.97455,0.50664 0.0343,0.18735 0.24403,0.25159 0.31205,0.41942 0.0875,0.19145 0.0529,0.40714 0.0737,0.61055 0.0296,0.29347 0.006,0.59733 0.10296,0.88041 0.0264,0.0831 0.0967,0.16783 0.19271,0.15838 0.12784,0.008 0.2179,-0.0998 0.27206,-0.20215 0.23458,-0.4317 0.24277,-0.94118 0.44524,-1.38516 0.0715,0.18672 0.0265,0.38888 0.0516,0.58284 0.04,0.38856 0.22765,0.77587 0.55576,0.99975 0.17318,0.12217 0.40368,0.17538 0.60772,0.10611 0.16216,-0.062 0.29661,-0.18704 0.38793,-0.33314 0.11776,-0.20562 0.0822,-0.46067 -0.004,-0.67101 -0.22797,-0.55356 -0.62315,-1.01171 -0.94621,-1.50922 -0.20656,-0.31834 -0.26482,-0.71887 -0.19838,-1.08917 0.0668,-0.39014 0.34291,-0.73902 0.71069,-0.88765 m -3.02631,0.19271 c -0.11084,0.0312 -0.19208,0.12753 -0.21822,0.23805 -0.11587,0.44461 -0.21789,0.89331 -0.33881,1.33698 -0.0211,0.0919 -0.057,0.18956 -0.0277,0.28371 0.0343,0.0447 0.079,0.08 0.1206,0.11839 0.33661,-0.0299 0.66188,-0.20939 0.85994,-0.48491 0.24309,-0.33189 0.32275,-0.78626 0.17822,-1.17514 -0.0752,-0.22765 -0.33786,-0.39171 -0.57402,-0.31708 z"
     id="path48"
     inkscape:connector-curvature="0"
     style="opacity:1;fill:#0446ac" />
  <path
     d="m 5.2130746,11.386122 c 0.5797,-0.0198 1.15971,-0.003 1.7394,-0.009 0.18295,-3.2e-4 0.36621,-0.005 0.54852,0.0126 -0.11588,0.10549 -0.26607,0.16909 -0.36809,0.29001 -0.1628,0.19113 -0.29347,0.41375 -0.35771,0.65778 -0.2941,1.06304 -0.57812,2.12859 -0.86245,3.19414 -0.0384,0.10895 -0.0287,0.26765 0.10548,0.3004 0.32842,0.0457 0.67416,-0.0387 0.94779,-0.2264 0.27615,-0.19711 0.48838,-0.47138 0.65212,-0.7661 0.0422,-0.0812 0.10454,-0.14926 0.18011,-0.2009 -0.0693,0.5057 -0.22703,0.99408 -0.4062,1.47018 -0.21821,0.0387 -0.43989,0.0242 -0.65999,0.0261 -0.75571,-6.3e-4 -1.5111,-9.4e-4 -2.2665,9.5e-4 -0.0998,0.002 -0.19775,-0.0195 -0.29473,-0.0406 0.34889,-0.20499 0.55923,-0.57781 0.66062,-0.95944 0.25977,-0.98337 0.51861,-1.96706 0.77901,-2.95043 0.046,-0.17507 0.0627,-0.38761 -0.0686,-0.5312 -0.0891,-0.11524 -0.25443,-0.14012 -0.32874,-0.26828 z"
     id="path50"
     inkscape:connector-curvature="0"
     style="opacity:1;fill:#0446ac" />
  <path
     d="m 8.6128346,11.381092 c 0.66345,-0.004 1.32722,-0.011 1.9906704,0.004 -0.13886,0.11777 -0.30952,0.21475 -0.3895,0.38636 -0.0875,0.18861 -0.14359,0.38982 -0.20216,0.58883 -0.2591404,0.93488 -0.4965604,1.87542 -0.7481504,2.81251 -0.063,0.20908 -0.0793,0.44398 0.0135,0.64739 0.0431,0.10517 0.14453,0.17161 0.18515,0.27835 -0.12186,0.0214 -0.24498,0.0384 -0.36873,0.0375 -0.40903,-0.002 -0.81805,-0.002 -1.22708,0 -0.11399,6.3e-4 -0.22703,-0.017 -0.33913,-0.0372 0.10202,-0.12564 0.23773,-0.22483 0.31268,-0.37093 0.11934,-0.22829 0.18263,-0.47925 0.24812,-0.72674 0.23207,-0.86215 0.46413,-1.72429 0.69715,-2.58611 0.0554,-0.21381 0.14075,-0.4358 0.0872,-0.65905 -0.0343,-0.13603 -0.15555,-0.21978 -0.25694,-0.30512 -6.3e-4,-0.0173 -0.002,-0.0526 -0.003,-0.0702 z"
     id="path52"
     inkscape:connector-curvature="0"
     style="opacity:1;fill:#0446ac" />
  <path
     d="m 10.998685,11.379202 c 0.88733,-0.002 1.77466,-0.004 2.66199,9.4e-4 0.22986,-0.008 0.45563,0.0737 0.64267,0.20404 0.20877,0.15366 0.29725,0.41942 0.31866,0.66849 0.0384,0.39234 -0.15933,0.76863 -0.42603,1.04352 -0.31394,0.33251 -0.74847,0.52616 -1.19088,0.61811 -0.30008,0.062 -0.60677,3.1e-4 -0.90937,0.0261 -0.13729,0.35991 -0.23837,0.73241 -0.32937,1.10617 -0.0498,0.21979 -0.11083,0.45595 -0.0283,0.67574 0.0617,0.17759 0.2456,0.25883 0.3788,0.37376 -0.20468,0.0579 -0.41848,0.0365 -0.62819,0.039 -0.41092,-6.3e-4 -0.82215,3.2e-4 -1.23307,3.2e-4 -0.0822,0.002 -0.15933,-0.0299 -0.23616,-0.0535 0.12123,-0.13257 0.26576,-0.2497 0.34857,-0.41281 0.16122,-0.2856 0.20814,-0.6137 0.29536,-0.92543 0.1354,-0.51577 0.26828,-1.03218 0.40116,-1.54858 0.10643,-0.39455 0.21947,-0.78815 0.29756,-1.18962 0.0737,-0.26796 -0.16563,-0.48649 -0.36337,-0.62629 m 1.74758,0.24718 c -0.096,0.074 -0.13508,0.19459 -0.16594,0.30701 -0.12375,0.46948 -0.2475,0.93897 -0.37691,1.40688 -0.0227,0.0863 -0.0359,0.17476 -0.0472,0.26355 0.0371,0.0271 0.0743,0.0548 0.11178,0.0825 0.3555,0.0129 0.70564,-0.18231 0.88324,-0.48964 0.22577,-0.37155 0.31204,-0.81931 0.26827,-1.24975 -0.0161,-0.17823 -0.16751,-0.313 -0.32212,-0.38164 -0.11776,-0.0113 -0.25411,-0.0192 -0.35109,0.0611 z"
     id="path54"
     inkscape:connector-curvature="0"
     style="opacity:1;fill:#0446ac" />
  <path
     d="m 14.636805,11.381722 c 0.8719,-0.0104 1.74381,-9.5e-4 2.61571,-0.005 0.28591,-0.003 0.57812,0.10958 0.76767,0.32779 0.15304,0.16657 0.22325,0.39328 0.23742,0.61527 0.0327,0.29158 -0.11493,0.5649 -0.27489,0.79696 -0.31078,0.43548 -0.81742,0.68896 -1.33131,0.79539 -0.30449,0.0661 -0.61559,0 -0.9226,0.0315 -0.14421,0.3703 -0.23773,0.75697 -0.33629,1.14081 -0.0589,0.22703 -0.0973,0.47799 -10e-4,0.70092 0.0504,0.12375 0.17571,0.18736 0.28213,0.256 -3.1e-4,0.0233 -9.4e-4,0.0702 -0.001,0.0935 -0.66661,3.1e-4 -1.33352,3.1e-4 -2.00012,0 -0.003,-0.0293 -0.005,-0.0586 -0.007,-0.0875 0.30197,-0.1905 0.44933,-0.53718 0.52491,-0.87222 0.2582,-1.01611 0.52616,-2.03003 0.78971,-3.04488 0.0318,-0.12249 0.0501,-0.25632 -9.4e-4,-0.37629 -0.0595,-0.16531 -0.21097,-0.26701 -0.34196,-0.37218 m 1.77781,0.23773 c -0.11619,0.0709 -0.16405,0.20814 -0.19932,0.33251 -0.12249,0.46067 -0.24245,0.92197 -0.36998,1.38138 -0.0224,0.10328 -0.0797,0.21853 -0.0249,0.32055 0.11966,0.0586 0.26009,0.0365 0.38699,0.017 0.23333,-0.0759 0.44115,-0.22954 0.57025,-0.43988 0.22325,-0.35361 0.30323,-0.78343 0.28465,-1.19718 -0.01,-0.17413 -0.10706,-0.35707 -0.27772,-0.41879 -0.11871,-0.0387 -0.25254,-0.0368 -0.36999,0.004 z"
     id="path56"
     inkscape:connector-curvature="0"
     style="opacity:1;fill:#0446ac" />
  <path
     d="m 18.159365,11.391162 c 1.16695,-0.0214 2.33421,-0.002 3.50115,-0.0101 -0.0431,0.33975 -0.14988,0.66628 -0.2223,1.00005 -0.0208,0.10801 -0.063,0.21129 -0.13036,0.29851 -0.0252,-0.31362 0.004,-0.69399 -0.26167,-0.91819 -0.30512,-0.23364 -0.71037,-0.13949 -1.06524,-0.15649 -0.10202,0.1291 -0.16625,0.28307 -0.2053,0.44209 -0.0696,0.29252 -0.15303,0.58127 -0.22734,0.87253 -0.035,0.13508 -0.0438,0.2752 -0.0334,0.41438 0.24088,0.022 0.49216,-0.0268 0.69274,-0.16689 0.22671,-0.14484 0.35801,-0.39013 0.56269,-0.55985 -0.0107,0.13036 -0.0343,0.25946 -0.0687,0.38573 -0.14642,0.55576 -0.27961,1.1153 -0.42414,1.67201 -0.0176,0.008 -0.0523,0.023 -0.0699,0.0305 -0.0249,-0.29504 -0.0488,-0.6244 -0.26419,-0.85017 -0.11965,-0.13887 -0.32464,-0.22892 -0.50192,-0.15052 -0.10674,0.0447 -0.13382,0.16909 -0.16688,0.26797 -0.14422,0.55544 -0.29819,1.10869 -0.43958,1.66477 -0.046,0.13728 0.0504,0.30763 0.20405,0.30102 0.39737,0.004 0.82971,0.0211 1.17985,-0.19869 0.40966,-0.26796 0.61843,-0.73241 0.96102,-1.06838 -0.0268,0.33471 -0.15744,0.64676 -0.24372,0.96794 -0.04,0.12626 -0.0636,0.25946 -0.1269,0.37691 -0.0242,0.0343 -0.0463,0.0882 -0.097,0.0812 -1.11216,0.0179 -2.22463,-3.2e-4 -3.3371,0.009 -0.0935,0.004 -0.18641,-0.0101 -0.27615,-0.0356 0.34165,-0.14957 0.57812,-0.47358 0.6729,-0.82782 0.2582,-1.00258 0.50948,-2.00704 0.76988,-3.00899 0.0359,-0.15964 0.0614,-0.33062 0.0158,-0.49058 -0.0809,-0.16437 -0.27427,-0.2179 -0.39833,-0.34228 z"
     id="path58"
     inkscape:connector-curvature="0"
     style="opacity:1;fill:#0446ac" />
  <path
     d="m 12.746265,11.626382 c 0.097,-0.0803 0.23333,-0.0724 0.35109,-0.0611 0.15461,0.0686 0.30607,0.20341 0.32212,0.38164 0.0438,0.43044 -0.0425,0.8782 -0.26827,1.24975 -0.1776,0.30733 -0.52774,0.50255 -0.88324,0.48964 -0.0375,-0.0277 -0.0746,-0.0554 -0.11178,-0.0825 0.0113,-0.0888 0.0246,-0.17727 0.0472,-0.26355 0.12941,-0.46791 0.25316,-0.9374 0.37691,-1.40688 0.0309,-0.11242 0.0699,-0.23302 0.16594,-0.30701 z"
     id="path60"
     inkscape:connector-curvature="0"
     style="opacity:1;fill:#fefffe" />
  <path
     d="m 16.414615,11.619452 c 0.11745,-0.0412 0.25128,-0.0431 0.36999,-0.004 0.17066,0.0617 0.26796,0.24466 0.27772,0.41879 0.0186,0.41375 -0.0614,0.84357 -0.28465,1.19718 -0.1291,0.21034 -0.33692,0.364 -0.57025,0.43988 -0.1269,0.0195 -0.26733,0.0416 -0.38699,-0.017 -0.0548,-0.10202 0.003,-0.21727 0.0249,-0.32055 0.12753,-0.45941 0.24749,-0.92071 0.36998,-1.38138 0.0353,-0.12437 0.0831,-0.26166 0.19932,-0.33251 z"
     id="path62"
     inkscape:connector-curvature="0"
     style="opacity:1;fill:#fefffe" />
  <path
     d="m 23.788795,11.620712 c 0.23616,-0.0746 0.49877,0.0894 0.57402,0.31708 0.14453,0.38888 0.0649,0.84325 -0.17822,1.17514 -0.19806,0.27552 -0.52333,0.455 -0.85994,0.48491 -0.0416,-0.0384 -0.0863,-0.0737 -0.1206,-0.11839 -0.0293,-0.0941 0.007,-0.19177 0.0277,-0.28371 0.12092,-0.44367 0.22294,-0.89237 0.33881,-1.33698 0.0261,-0.11052 0.10738,-0.20688 0.21822,-0.23805 z"
     id="path64"
     inkscape:connector-curvature="0"
     style="opacity:1;fill:#fefffe" />
  <path
     d="m 12.904965,17.607522 c 1.058,0.0176 2.11631,-0.002 3.17462,0.0107 -0.46067,0.56962 -0.92638,1.13514 -1.39429,1.69878 -0.67006,-0.48303 -1.2592,-1.0706 -1.78033,-1.70949 z"
     id="path66"
     inkscape:connector-curvature="0"
     style="opacity:1;fill:#fefffe" />
  <path
     d="m 16.612675,17.662632 c 0.0428,-0.0671 0.12816,-0.0545 0.1968,-0.0583 2.66703,0.004 5.33438,-0.002 8.00173,0.003 -0.35424,0.97581 -0.85269,1.92486 -1.60557,2.65349 -0.29882,0.29914 -0.65306,0.53435 -1.02273,0.73682 -0.17004,0.086 -0.32433,0.22577 -0.52396,0.23207 -2.30587,0.23993 -4.70746,-0.32842 -6.61563,-1.65722 0.53089,-0.63039 1.04698,-1.27306 1.56936,-1.91037 z"
     id="path68"
     inkscape:connector-curvature="0"
     style="opacity:1;fill:#fefffe" />
  <path
     d="m 25.281325,17.606892 c 1.02871,-10e-4 2.05774,-0.003 3.08645,9.5e-4 -0.58158,0.65936 -1.22709,1.26455 -1.93809,1.78285 -0.68234,0.50066 -1.4305,0.90937 -2.21833,1.21795 -0.38194,0.15272 -0.77523,0.27773 -1.17702,0.36684 0.73808,-0.53089 1.28377,-1.28692 1.69973,-2.0864 0.2138,-0.41312 0.39139,-0.84419 0.54726,-1.28219 z"
     id="path70"
     inkscape:connector-curvature="0"
     style="opacity:1;fill:#fefffe" />
</svg>
