<?xml version="1.0" encoding="UTF-8" standalone="no"?>
<!-- Generator: Adobe Illustrator 14.0.0, SVG Export Plug-In . SVG Version: 6.00 Build 43363)  -->

<svg
   xmlns:dc="http://purl.org/dc/elements/1.1/"
   xmlns:cc="http://creativecommons.org/ns#"
   xmlns:rdf="http://www.w3.org/1999/02/22-rdf-syntax-ns#"
   xmlns:svg="http://www.w3.org/2000/svg"
   xmlns="http://www.w3.org/2000/svg"
   xmlns:sodipodi="http://sodipodi.sourceforge.net/DTD/sodipodi-0.dtd"
   xmlns:inkscape="http://www.inkscape.org/namespaces/inkscape"
   version="1.1"
   id="Layer_1"
   x="0px"
   y="0px"
   width="32.175846"
   height="40"
   viewBox="0 0 32.175846 40"
   enable-background="new 0 0 203 250"
   xml:space="preserve"
   inkscape:version="0.91 r13725"
   sodipodi:docname="Memphis_Grizzlies_resized.svg"><metadata
     id="metadata41"><rdf:RDF><cc:Work
         rdf:about=""><dc:format>image/svg+xml</dc:format><dc:type
           rdf:resource="http://purl.org/dc/dcmitype/StillImage" /><dc:title></dc:title></cc:Work></rdf:RDF></metadata><defs
     id="defs39" /><sodipodi:namedview
     pagecolor="#ffffff"
     bordercolor="#666666"
     borderopacity="1"
     objecttolerance="10"
     gridtolerance="10"
     guidetolerance="10"
     inkscape:pageopacity="0"
     inkscape:pageshadow="2"
     inkscape:window-width="826"
     inkscape:window-height="480"
     id="namedview37"
     showgrid="false"
     fit-margin-top="0"
     fit-margin-left="0"
     fit-margin-right="0"
     fit-margin-bottom="0"
     inkscape:zoom="0.944"
     inkscape:cx="16.088423"
     inkscape:cy="20.000049"
     inkscape:window-x="0"
     inkscape:window-y="0"
     inkscape:window-maximized="0"
     inkscape:current-layer="Layer_1" /><g
     id="g3"
     transform="matrix(0.16666673,0,0,0.16666673,-0.82866698,-0.83334829)"><path
       d="m 47.414,165.369 0,33.471 c 1.886,0 21.421,-0.026 21.421,-0.026 l 0,-4.128 -17.24,0.04 0,-30.562 17.24,0 0,-4.332 -23.458,0.035 2.037,5.502 z m 48.5,0 c 0,0 -2.535,-0.018 -5.702,-0.021 l 0,33.604 3.576,0 0,-29.766 1.281,-0.031 c 0.747,0 1.343,0.81 1.343,1.798 l -0.009,28.039 3.825,0 0,-28.315 c 0,-3.653 -1.993,-5.308 -4.314,-5.308 m -17.774,33.622 3.621,0 0,-29.806 2.989,0 0,29.766 3.736,0 0,-33.604 c -4.492,-0.022 -9.5,-0.036 -10.346,-0.04 l 0,33.684 z m -45.2,-43.98 c 0,0 -2.847,0 -6.387,-0.018 l 0,43.727 4.039,0 0,-39.395 1.423,-0.031 c 0.809,0 1.477,0.881 1.477,1.971 l -0.027,37.486 4.466,0 0,-37.794 c 0,-3.892 -2.322,-5.946 -4.991,-5.946 m 20.372,23.502 11.262,0 0,-3.958 -7.597,0 0,-4.657 11.858,0 0,-4.012 -15.523,0 0,12.627 z m 43.197,-18.498 -25.966,0 2.188,5.902 0,33.074 3.683,0 0,-35.409 19.5,0.053 c 3.247,0 6.049,2.42 6.049,7.041 l 0,28.315 3.469,0 -0.035,-30.708 c -0.001,-5.209 -4.413,-8.268 -8.888,-8.268 m 50.377,15.158 -4.599,0 0,-15.438 -3.567,0.009 0,18.414 12.143,0 0,-18.432 -3.977,0 0,15.447 z m -89.909,9.229 7.597,0 0,-4.173 -11.262,0 0,12.771 c 1.388,-0.005 12.997,-0.031 15.523,-0.04 l 0,-3.692 -11.858,-0.013 0,-4.853 z m -43.723,14.349 4.074,0 0,-39.426 3.309,0 0,39.395 4.19,0 0,-43.727 c -5.035,-0.019 -10.71,-0.027 -11.573,-0.036 l 0,43.794 z m 20.345,-49.545 -28.627,0 2.411,6.507 0,43.038 4.145,0 0,-45.52 21.412,0.063 c 3.532,0 6.716,2.642 6.716,7.663 l 0,37.794 3.772,0 -0.036,-40.427 c 10e-4,-5.738 -4.856,-9.118 -9.793,-9.118 m 132.68,10.612 0,39.253 4.225,0 -0.009,-39.253 -4.216,0 z m -5.952,6.401 0.01,32.853 4.225,0 0,-39.253 -6.592,0 2.357,6.4 z m 23.877,12.33 c 3.665,0 3.104,2.335 3.104,4.741 l 0,4.083 c 0,0.975 -0.658,1.762 -1.459,1.762 l -0.587,0 c -0.801,0 -1.459,-0.787 -1.459,-1.762 l 0,-4.804 -4.422,0 0,4.248 c 0,2.598 0,6.524 5.961,6.524 6.209,0 6.44,-4.665 6.449,-4.839 l 0,-8.923 c 0,-4.221 -2.206,-4.604 -5.791,-4.865 -1.077,-0.085 -2.18,-0.169 -3.158,-0.432 -4.226,-1.17 -4.741,-4.105 -4.938,-5.209 -0.133,-0.729 -0.089,-6.533 -0.071,-8.389 -0.009,-0.195 -0.169,-2.891 1.699,-4.928 1.308,-1.437 3.247,-2.157 5.765,-2.157 2.687,0 4.759,0.787 6.174,2.344 1.734,1.904 1.912,4.377 1.912,5.32 0,0.187 -0.009,0.289 -0.009,0.355 l 0,3.705 4.546,0 0,-6.294 c 0,-5.969 -4.813,-9.954 -11.102,-9.954 l -2.046,0 c -6.191,0 -11.787,3.256 -11.787,10.105 l 0,9.163 c 10e-4,6.754 6.264,10.206 11.219,10.206 m -62.057,-18.517 -15.292,0 2.117,5.854 0,33.189 3.469,0 0,-35.561 9.127,0 c 3.256,0 6.565,2.304 6.565,6.449 l 0,4.208 c 0,4.137 -3.31,6.303 -6.565,6.303 l -7.4,0 0,18.601 3.958,0 0,-15.438 c 0,0 4.884,-0.093 4.901,-0.093 5.436,0 8.371,-4.817 8.371,-9.372 l 0.106,-5.773 c 0.001,-5.436 -4.829,-8.367 -9.357,-8.367 m 66.273,9.212 -1.93,-0.099 c -1.762,0 -2.775,-0.751 -2.775,-2.588 l 0,-5.195 c 0,-0.979 0.649,-1.762 1.44,-1.762 l 0.588,0 c 0.8,0 1.458,0.783 1.458,1.762 l 0,3.963 4.493,0 0,-3.799 c 0.009,-0.026 0.169,-2.642 -1.468,-4.435 -1.086,-1.183 -2.74,-1.788 -4.929,-1.788 -2.028,0 -3.55,0.543 -4.528,1.602 -1.388,1.513 -1.254,3.63 -1.254,3.66 l 0,0.036 0,0.035 c -0.018,3.585 -0.018,7.646 0.045,8.131 0.178,0.97 0.542,2.984 3.727,3.865 0.81,0.223 1.797,0.298 2.829,0.374 3.104,0.222 7.356,0.542 7.356,6.573 l 0,8.945 c 0,0.066 -0.258,6.516 -8.13,6.516 -7.642,0 -7.642,-5.76 -7.642,-8.224 l 0,-4.248 -4.617,0 0,6.271 c 0,7.473 5.693,10.319 10.924,10.319 l 2.678,0 c 6.557,0 11.342,-4.048 11.342,-10.56 l 0,-9.74 c 0,-7.084 -4.767,-9.614 -9.607,-9.614 m -55.429,-3.443 0,33.515 4.029,0 0,-39.572 -6.191,0.009 2.162,6.048 z m -6.583,8.371 0,-4.208 c 0,-3.153 -2.509,-4.724 -4.84,-4.724 l -7.4,0 0,13.513 7.4,0 c 2.331,0 4.84,-1.432 4.84,-4.581 m -8.282,1.023 0,-6.663 2.438,0 c 1.228,0 2.215,1.201 2.215,2.678 l 0,1.312 c 0,1.499 -0.97,2.674 -2.215,2.674 l -2.438,0 z m 34.462,24.12 3.63,0 0,-39.59 -3.63,0 0,39.59 z m -13.868,0 3.567,0 0,-15.607 4.599,0 0,15.607 3.977,0 0,-19.441 -12.143,0 0,19.441 z"
       id="path5"
       inkscape:connector-curvature="0"
       style="fill:#23375b" /><path
       d="m 76.414,198.991 0,-35.409 19.5,0.053 c 3.242,0 6.049,2.42 6.049,7.041 l 0,28.315 -1.734,0 0,-28.315 c 0,-3.651 -1.993,-5.307 -4.314,-5.307 0,0 -2.535,-0.018 -5.702,-0.021 l 0,33.604 -1.726,0 0,-33.604 c -4.492,-0.022 -9.5,-0.036 -10.346,-0.04 l 0,33.684 -1.727,0 z m -7.579,-33.105 -15.523,0 0,12.627 11.262,0 0,1.717 -11.262,0 0,12.77 c 1.388,-0.005 12.997,-0.031 15.523,-0.04 l 0,1.726 -17.24,0.04 0,-30.562 17.24,0 0,1.722 z m -57.307,32.865 0,-45.52 21.412,0.063 c 3.532,0 6.716,2.642 6.716,7.663 l 0,37.794 -1.726,0 0,-37.794 c 0,-3.892 -2.322,-5.946 -4.991,-5.946 0,0 -2.847,0 -6.387,-0.018 l 0,43.727 -1.726,0 0,-43.727 c -5.035,-0.019 -10.71,-0.027 -11.573,-0.036 l 0,43.794 -1.725,0 z m 153.034,-38.933 1.718,0 0,39.253 -1.718,0 0,-39.253 z m -52.121,39.257 0,-35.561 9.127,0 c 3.256,0 6.565,2.304 6.565,6.449 l 0,4.208 c 0,4.137 -3.31,6.303 -6.565,6.303 l -7.4,0 0,18.601 -1.727,0 z m 66.941,-16.506 0,4.248 c 0,2.598 0,6.524 5.961,6.524 6.209,0 6.44,-4.665 6.449,-4.839 l 0,-8.923 c 0,-4.221 -2.206,-4.604 -5.791,-4.865 -1.077,-0.085 -2.18,-0.169 -3.158,-0.432 -4.226,-1.17 -4.741,-4.105 -4.938,-5.209 -0.133,-0.729 -0.089,-6.533 -0.071,-8.389 -0.009,-0.195 -0.169,-2.891 1.699,-4.928 1.308,-1.437 3.247,-2.157 5.765,-2.157 2.687,0 4.759,0.787 6.174,2.344 1.734,1.904 1.912,4.377 1.912,5.32 0,0.187 -0.009,0.289 -0.009,0.355 l 0,3.705 -1.681,0 0,-3.799 c 0.009,-0.026 0.169,-2.642 -1.468,-4.435 -1.086,-1.183 -2.74,-1.788 -4.929,-1.788 -2.028,0 -3.55,0.543 -4.528,1.602 -1.388,1.513 -1.254,3.63 -1.254,3.66 l 0,0.036 0,0.035 c -0.018,3.585 -0.018,7.646 0.045,8.131 0.178,0.97 0.542,2.984 3.727,3.865 0.81,0.223 1.797,0.298 2.829,0.374 3.104,0.222 7.356,0.542 7.356,6.573 l 0,8.945 c 0,0.066 -0.258,6.516 -8.13,6.516 -7.642,0 -7.642,-5.76 -7.642,-8.224 l 0,-4.248 1.682,0 z m -52.974,-8.397 0,-4.208 c 0,-3.153 -2.509,-4.724 -4.84,-4.724 l -7.4,0 0,13.513 7.4,0 c 2.331,0 4.84,-1.432 4.84,-4.581 m 10.613,25.143 0,-39.572 1.699,0 0,18.414 12.143,0 0,-18.432 1.726,0 0,39.59 -1.726,0 0,-19.441 -12.143,0 0,19.441 -1.699,0 z"
       id="path7"
       inkscape:connector-curvature="0"
       style="fill:#6189b9" /><path
       d="m 170.255,40.573 c -0.613,-0.943 -1.236,-1.83 -1.868,-2.708 C 184.008,12.25 147.145,-7.39 133.792,14.349 117.353,11.325 103.617,17.331 101.767,18.197 99.925,17.336 86.342,11.407 70.071,14.289 53.943,-8.393 20.682,15.05 35.351,37.572 c -0.703,0.967 -1.396,1.955 -2.09,3.002 -20.834,31.723 -5.186,53.221 -5.186,53.221 l 3.202,-3.203 c 0,0 4.555,22.117 28.626,36.648 l 0.872,-4.768 c 14.82,15.828 28.546,15.458 41.338,29.923 11.823,-13.7 29,-13.7 42.371,-30.791 l 0,6.071 c 24.73,-12.038 26.989,-38.058 26.989,-38.058 l 2.286,4.221 c 0.001,0.001 17.347,-21.542 -3.504,-53.265"
       id="path9"
       inkscape:connector-curvature="0"
       style="fill:#23375b" /><path
       d="m 117.833,63.044 c 1.165,-0.422 3.211,0.801 4.305,2.929 5.009,-1.457 4.742,-8.208 4.711,-8.687 -3.986,1.546 -7.264,4.21 -9.016,5.758"
       id="path11"
       inkscape:connector-curvature="0"
       style="fill:#fdb827" /><path
       d="m 101.962,95.696 c 1.379,-0.218 23.342,-1.012 9.892,12.639 9.376,-12.421 -7.632,-12.512 -9.892,-12.639 m 37.994,-70.848 c 0,0 4.938,-12.348 20.069,-9.363 0,0 -13.887,-9.147 -23.557,7.392 0,0 -13.717,-6.514 -34.408,2.426 0,0 -19.598,-6.832 -34.373,-2.96 0,0 -8.611,-14.954 -20.745,-8.791 -12.125,6.153 -5.809,20.396 -3.692,24.085 0,0 -20.113,20.482 -12.552,45.815 l 4.048,-5.046 c 0,0 5.764,27.577 20.683,36.272 l 0.889,-6.781 c 0,0 15.559,18.772 33.857,26.745 1.726,0.814 11.449,5.631 11.742,8.011 l 0,-13.137 c 0,0 -12.712,1.057 -16.057,-4.799 -2.277,-3.985 -16.857,-30.014 -9.652,-57.28 0,0 -7.019,-1.043 -8.344,-12.89 0,0 -5.24,-2.544 -11.742,-2.017 0,0 11.635,-3.643 22.55,0.565 10.897,4.228 13.815,14.971 21.208,10.221 l 2.18,-30.27 2.081,30.27 c 7.393,4.75 10.311,-5.994 21.208,-10.221 10.915,-4.208 22.542,-0.565 22.542,-0.565 0,0 -4.644,-3.285 -12.125,-4.777 -6.254,-1.252 -15.435,2.765 -15.435,2.765 0,0 1.272,-8.591 5.444,-13.177 3.578,-3.933 11.672,-4.8 14.181,-12.493 m -94.09,10.43 c -0.445,-4.121 4.768,-8.202 4.768,-8.202 -2.144,-2.222 -5.898,-0.295 -5.898,-0.295 3.398,-6.654 11.022,-3.403 11.022,-3.403 -2.882,-3.534 -9.012,-3.312 -9.012,-3.312 7.579,-7.497 16.707,3.972 16.707,3.972 -8.14,1.831 -17.587,11.24 -17.587,11.24 m 80.987,22.008 0,0 c -0.062,0.024 -0.115,0.047 -0.16,0.069 0.044,-0.022 0.098,-0.049 0.16,-0.069 m -6.067,9.757 c 12.151,32.694 -3.327,53.69 -3.327,53.69 9.536,-24.941 3.407,-45.693 -0.773,-53.403 -2.127,0.209 -4.697,0.096 -4.697,0.096 0,0 3.211,-1.995 5.302,-3.89 0.16,-0.145 0.347,-0.313 0.561,-0.5 0,0.004 -0.018,0.004 -0.018,0.009 1.165,-0.422 3.211,0.801 4.305,2.929 5.009,-1.452 4.742,-8.187 4.715,-8.687 1.45,-0.569 3.016,-0.979 4.617,-1.143 -0.001,-10e-4 -1.149,10.748 -10.685,10.899"
       id="path13"
       inkscape:connector-curvature="0"
       style="fill:#6189b9" /><path
       d="m 77.722,57.271 c -0.027,0.496 -0.289,7.25 4.715,8.7 1.076,-2.09 3.007,-3.298 4.181,-2.942 -2.696,-2.078 -6.041,-4.397 -8.896,-5.758"
       id="path15"
       inkscape:connector-curvature="0"
       style="fill:#fdb827" /><path
       d="m 101.918,126.377 c -15.318,0 -13.263,-3.371 -13.263,-3.371 1.663,-1.032 12.383,-1.246 13.246,-1.246 0.854,0 11.609,0.214 13.272,1.246 0,0 2.063,3.371 -13.255,3.371 M 77.73,57.277 c 0,0 -0.013,-0.004 -0.013,-0.009 0,0.005 0.013,0.009 0.013,0.009 m 24.188,54.92 0,6.214 -4.225,0.223 c -4.439,0.129 -10.23,1.935 -10.23,1.935 C 76.717,93.953 82.677,73.809 85.542,66.625 74.885,68.938 73.164,56.146 73.164,56.146 c 1.107,-0.225 2.727,0.253 4.555,1.123 -0.022,0.502 -0.28,7.252 4.719,8.705 1.076,-2.091 2.998,-3.303 4.163,-2.951 0.792,0.618 1.539,1.216 2.188,1.761 7.232,6.1 12.863,4.857 12.863,4.857 0,0 0.08,23.205 0.08,26.056 0,0 -20.958,-1.639 -9.706,12.63 0,0 1.815,-5.215 3.736,-3.569 2.66,2.289 6.156,6.948 6.156,7.439"
       id="path17"
       inkscape:connector-curvature="0"
       style="fill:#bbd1e4" /><path
       d="m 54.993,222.636 -0.24,0.676 c -0.276,0.779 -1.023,1.197 -1.69,0.952 l -1.352,-0.498 1.246,-3.43 1.37,0.494 c 0.648,0.235 0.951,1.05 0.666,1.806 m 1.761,-5.894 -8.166,-2.967 0.018,3.425 -6.218,17.138 4.831,1.762 2.9,-7.966 1.468,0.529 c 0.427,0.155 0.596,0.716 0.4,1.259 l -2.544,7.001 4.794,1.734 2.625,-7.206 c 0.409,-1.129 0.275,-2.179 -0.356,-2.948 0,0 1.619,-0.28 2.482,-2.674 l 1.139,-2.962 c 1.022,-2.81 -0.962,-5.248 -3.373,-6.125"
       id="path19"
       inkscape:connector-curvature="0"
       style="fill:#6189b9" /><path
       d="m 156.707,218.939 -1.69,-4.853 -12.071,4.217 2.02,2.491 6.049,17.373 c 0.961,-0.338 11.084,-3.865 11.084,-3.865 l -1.726,-4.809 -6.111,2.122 c -0.169,-0.498 -0.996,-2.86 -0.996,-2.86 l 3.914,-1.36 -1.69,-4.906 -3.923,1.356 -0.97,-2.78 6.11,-2.126 z"
       id="path21"
       inkscape:connector-curvature="0"
       style="fill:#6189b9" /><polygon
       points="118.144,244.324 130.785,243.149 130.322,238.297 122.858,239.021 121.275,222.583 114.826,223.196 116.436,226.475 "
       id="polygon23"
       style="fill:#6189b9" /><polygon
       points="62.928,240.783 66.584,223.232 66.148,219.566 72.331,220.884 67.981,241.868 "
       id="polygon25"
       style="fill:#6189b9" /><polygon
       points="137.243,241.655 133.48,224.117 131.595,220.945 137.795,219.656 142.287,240.597 "
       id="polygon27"
       style="fill:#6189b9" /><polygon
       points="83.388,227.307 76.058,243.323 88.895,244.6 89.339,239.751 83.806,239.169 91.127,223.388 78.291,222.04 77.722,227.991 81.315,227.093 "
       id="polygon29"
       style="fill:#6189b9" /><polygon
       points="101.643,228.329 95.922,245 108.848,245 108.804,240.125 103.243,240.107 108.945,223.672 96.029,223.605 96.056,229.588 99.534,228.329 "
       id="polygon31"
       style="fill:#6189b9" /><path
       d="m 172.648,221.105 1.014,1.526 c 0.24,0.369 0.196,0.813 -0.098,1.019 l -0.649,0.427 c -0.303,0.195 -0.738,0.071 -0.979,-0.298 l -1.192,-1.802 -4.003,2.66 1.548,2.349 c 1.851,2.793 4.688,2.446 6.646,1.147 l 1.414,-0.943 c 2.474,-1.628 3.238,-4.323 1.628,-6.752 l -2.42,-3.647 c -1.752,-2.642 -4.163,-2.41 -5.969,-1.209 l -1.174,0.725 c -0.658,0.436 -1.228,0.404 -1.673,-0.271 l -1.29,-1.948 c -0.249,-0.364 -0.195,-0.818 0.099,-1.022 l 0.658,-0.418 c 0.293,-0.196 0.729,-0.071 0.97,0.289 l 0.987,1.48 4.012,-2.655 -1.584,-2.344 c -1.468,-2.242 -4.252,-2.531 -6.601,-0.97 l -1.183,0.792 c -2.313,1.529 -3.603,4.132 -1.903,6.689 l 2.276,3.425 c 1.664,2.521 4.866,2.26 6.717,1.036 1.682,-1.125 2.163,-0.183 2.749,0.715"
       id="path33"
       inkscape:connector-curvature="0"
       style="fill:#6189b9" /><path
       d="m 35.591,226.986 c -1.734,2.579 -4.813,2.713 -6.912,1.303 l -2.153,-1.463 c -2.1,-1.401 -3.123,-4.306 -1.397,-6.89 l 7.028,-10.511 c 1.735,-2.584 4.821,-2.731 6.912,-1.325 l 2.162,1.445 c 2.099,1.401 3.149,4.306 1.423,6.898 l -1.397,2.091 -4.279,-2.873 0.881,-1.299 c 0.32,-0.485 0.302,-1.077 -0.044,-1.308 l -0.685,-0.459 c -0.347,-0.23 -0.898,-0.018 -1.228,0.468 0,0 -0.338,0.524 -0.863,1.308 -0.961,1.428 -5.133,7.659 -5.133,7.659 -0.32,0.489 -0.312,1.076 0.036,1.308 l 0.685,0.467 c 0.338,0.227 0.898,0.022 1.228,-0.467 l 1.574,-2.331 -0.738,-0.502 1.984,-2.972 5.026,3.354 -4.11,6.099 z"
       id="path35"
       inkscape:connector-curvature="0"
       style="fill:#6189b9" /></g></svg>