<?xml version="1.0" encoding="UTF-8" standalone="no"?>
<!-- Generator: Adobe Illustrator 14.0.0, SVG Export Plug-In . SVG Version: 6.00 Build 43363)  -->

<svg
   xmlns:dc="http://purl.org/dc/elements/1.1/"
   xmlns:cc="http://creativecommons.org/ns#"
   xmlns:rdf="http://www.w3.org/1999/02/22-rdf-syntax-ns#"
   xmlns:svg="http://www.w3.org/2000/svg"
   xmlns="http://www.w3.org/2000/svg"
   xmlns:sodipodi="http://sodipodi.sourceforge.net/DTD/sodipodi-0.dtd"
   xmlns:inkscape="http://www.inkscape.org/namespaces/inkscape"
   version="1.1"
   id="Layer_1"
   x="0px"
   y="0px"
   width="28.860167"
   height="40"
   viewBox="0 0 28.860167 40"
   enable-background="new 0 0 183 250"
   xml:space="preserve"
   inkscape:version="0.91 r13725"
   sodipodi:docname="Milwaukee_Bucks_resized.svg"><metadata
     id="metadata159"><rdf:RDF><cc:Work
         rdf:about=""><dc:format>image/svg+xml</dc:format><dc:type
           rdf:resource="http://purl.org/dc/dcmitype/StillImage" /><dc:title></dc:title></cc:Work></rdf:RDF></metadata><defs
     id="defs157" /><sodipodi:namedview
     pagecolor="#ffffff"
     bordercolor="#666666"
     borderopacity="1"
     objecttolerance="10"
     gridtolerance="10"
     guidetolerance="10"
     inkscape:pageopacity="0"
     inkscape:pageshadow="2"
     inkscape:window-width="826"
     inkscape:window-height="480"
     id="namedview155"
     showgrid="false"
     fit-margin-top="0"
     fit-margin-left="0"
     fit-margin-right="0"
     fit-margin-bottom="0"
     inkscape:zoom="0.944"
     inkscape:cx="14.429583"
     inkscape:cy="20.000004"
     inkscape:window-x="0"
     inkscape:window-y="0"
     inkscape:window-maximized="0"
     inkscape:current-layer="Layer_1" /><g
     id="g3"
     transform="matrix(0.16666667,0,0,0.16666667,-0.82000002,-0.83333335)"><polyline
       points="158.92,82.179 23.345,82.212 93.452,245 163.351,82.179 158.92,82.179  "
       id="polyline5"
       style="fill:#ffffff" /><path
       d="M 158.92,82.179 23.345,82.212 93.452,245 163.35,82.179 l -4.43,0 M 93.452,237.609 27.783,85.127 158.92,85.105 93.452,237.609 Z"
       id="path7"
       inkscape:connector-curvature="0"
       style="fill:#bccad6" /><polyline
       points="27.783,85.127 158.92,85.105 93.452,237.609 27.783,85.127  "
       id="polyline9"
       style="fill:#bccad6" /><path
       d="m 27.783,85.127 23.617,0 c 8.701,13.03 18.911,11.437 18.911,11.437 0.886,3.996 1.641,5.054 1.641,5.054 -1.168,5.757 -0.084,9.13 -0.084,9.13 -2.043,7.357 -0.981,12.231 -0.981,12.231 -5.313,3.179 -6.295,10.803 -6.295,10.803 -6.822,4.336 -10.642,12.151 -10.642,12.151 L 27.783,85.127"
       id="path11"
       inkscape:connector-curvature="0"
       style="fill:#c42032" /><path
       d="m 158.92,85.105 -23.079,0 c -7.347,12.166 -18.435,11.287 -18.435,11.287 0.08,2.743 -1.246,4.684 -1.246,4.684 1.436,5.592 0.286,9.035 0.286,9.035 1.846,4.622 1.406,12.151 1.406,12.151 6.745,5.156 6.745,10.905 6.745,10.905 7.435,6.834 8.563,11.807 8.563,11.807 l 25.76,-59.869"
       id="path13"
       inkscape:connector-curvature="0"
       style="fill:#c42032" /><path
       d="m 166.537,143.984 -22.295,0 c -34.336,0.051 -99.789,0.088 -101.8,0.015 l -27.125,-0.015 -10.21,14.18 0,27.495 -0.187,9.624 0,18.889 10.291,13.953 152.476,0 10.225,-14.165 0,-27.503 0.169,-9.631 0,-18.867 -10.291,-13.975 -1.253,0 m -124.252,4.959 -0.114,-0.052 c 0.857,0.073 2.201,0.088 4.512,0.095 l 11.561,0.016 35.043,0 50.969,-0.059 21.035,0 c 1.209,1.662 7.464,10.137 7.822,10.635 l 0,17.197 -0.183,9.631 0,25.949 c -0.521,0.719 -6.585,9.163 -7.778,10.811 l -147.422,0 c -1.227,-1.647 -7.471,-10.129 -7.844,-10.627 l 0,-17.197 -0.081,0.08 c 0.069,-0.527 0.103,-1.047 0.11,-1.545 l 0.168,-8.174 0,-25.928 c 0.523,-0.747 6.573,-9.17 7.771,-10.832 l 24.431,0 z"
       id="path15"
       inkscape:connector-curvature="0"
       style="fill:#bccad6" /><path
       d="m 136.186,38.23 c 1.596,2.347 1.779,4.567 1.779,5.306 l 0,0.224 c -0.234,2.216 -0.887,3.98 -1.648,5.376 0.271,-2.597 0.345,-4.853 0.345,-5.006 -0.037,-2.191 -0.242,-4.197 -0.476,-5.9 m -21.139,40.027 c -0.352,0.337 -1.143,0.85 -1.625,0.868 0.241,-0.319 0.834,-0.868 2.189,-1.491 l 0.205,-0.11 c -0.278,0.271 -0.476,0.436 -0.769,0.733 m -42.674,1.216 c -1.443,-0.538 -2.095,-1.271 -2.289,-1.545 1.516,0.615 2.187,1.168 2.436,1.491 l -0.147,0.054 z M 47.603,44.584 c -0.011,-0.041 -0.011,-0.14 -0.011,-0.319 0,-0.813 0.198,-2.959 1.703,-5.241 -0.205,1.678 -0.381,3.677 -0.381,5.841 0.011,0.202 0.114,2.464 0.421,5.065 -0.784,-1.384 -1.477,-3.138 -1.732,-5.346 m 95.093,11.012 c 0.132,-0.168 4.189,-5.688 4.189,-12.726 0,-0.729 -0.044,-1.491 -0.132,-2.26 -0.096,-0.795 -3.758,-25.759 -24.982,-34.391 10.678,13.568 12.575,18.354 13.908,22.21 -1.86,-1.161 -3.267,-1.901 -3.904,-2.219 C 121.361,5.816 108.316,5.19 107.898,5 c 7.383,6.112 14.012,15.652 15.286,18.201 -7.024,-2.739 -17.109,-2.487 -17.666,-2.366 l 7.522,3.468 c 7.617,3.348 11.652,5.578 12.941,6.325 1.348,3.944 1.736,8.207 1.736,11.686 0,4.16 -0.535,7.203 -0.55,7.272 -2.249,10.661 -9.492,16.019 -13.278,18.164 0.014,-0.571 0.109,-1.183 0.109,-1.725 0,-12.089 -6.805,-18.325 -7.134,-18.607 -5.171,-5.277 -11.331,-6.24 -11.608,-6.324 l 3.724,4.57 c 5.233,6.192 6.69,12.162 6.69,16.919 0,4.12 -1.084,7.284 -1.771,8.888 -10.481,-3.38 -19.512,-1.172 -22.889,-0.04 -1.402,-2.875 -1.959,-5.761 -1.992,-8.5 -0.172,-11.458 10.386,-21.929 10.466,-22.038 -16.729,4.325 -18.68,18.973 -18.68,25.272 0,0.549 0.029,1.04 0.062,1.523 -11.437,-6.606 -14.15,-16.985 -14.15,-25.093 0,-5.423 1.154,-9.767 1.608,-11.265 C 65.271,26.712 79.454,21.175 79.516,21.149 72.115,21.054 64.362,22.427 61.11,23.789 66.924,12.39 76.419,5.051 76.493,5 61.628,7.179 53.539,24.384 52.37,27.097 50.792,27.753 49.396,28.507 48.243,29.224 51.667,18.594 61.65,6.172 61.712,6.088 38.612,17.686 37.374,40.017 37.374,42.881 c 0,0.19 0,0.318 0,0.37 0.278,7.653 4.519,12.894 4.695,13.114 4.925,6.716 12.418,12.316 18.413,16.135 L 60.42,72.489 c -6.325,-1.945 -11.733,-2.571 -11.95,-2.601 -1.623,-0.08 -2.376,0.557 -2.717,1.11 -0.762,1.161 -0.183,2.461 -0.063,2.703 8.756,21.467 20.438,22.621 24.95,22.167 0.443,2.765 1.373,5.031 1.827,6.021 -0.567,2.157 -0.856,3.871 -0.856,5.116 0,1.996 0.597,2.974 1.26,3.428 -0.165,0.333 -0.333,0.674 -0.333,0.674 -1.091,2.282 -1.351,5.76 -1.351,8.613 0,1.615 0.084,2.996 0.153,3.871 -5.098,3.856 -6.262,9.101 -6.489,10.976 -6.929,5.647 -9.62,11.689 -9.745,11.931 l -0.97,2.256 78.694,0 -0.629,-2.064 c -1.941,-6.387 -7.01,-11.045 -8.701,-12.474 -0.25,-5.983 -5.039,-9.957 -6.973,-11.29 0.014,-0.421 0.021,-0.854 0.021,-1.249 0,-8.126 -1.084,-10.484 -1.787,-11.151 l -0.051,-0.062 0.645,-0.352 0.102,-0.788 c 0.081,-0.604 0.125,-1.26 0.125,-1.915 0,-2.461 -0.477,-4.991 -0.674,-5.951 1.063,-2.775 1.553,-4.662 1.758,-5.91 3.566,0.252 11.535,-0.377 17.607,-9.814 0.176,-0.29 4.285,-6.786 5.809,-12.444 0.168,-0.37 0.402,-0.978 0.402,-1.714 0,-0.505 -0.125,-1.029 -0.454,-1.494 -0.315,-0.454 -1.099,-1.179 -2.681,-0.944 l -4.277,0.674 c -0.264,0.047 -4.204,0.794 -8.328,2.289 6.116,-4.098 13.77,-10.06 17.952,-16.505"
       id="path17"
       inkscape:connector-curvature="0"
       style="fill:#bccad6" /><path
       d="m 94.938,147.148 35.724,0 c -2.182,-7.134 -8.737,-12.129 -8.737,-12.129 0.271,-6.951 -6.987,-11.254 -6.987,-11.254 0.22,-10.631 -1.289,-12.103 -1.289,-12.103 -5.281,2.845 -6.307,8.874 -6.307,8.874 l -0.93,-0.667 c 0.674,-7.038 7.463,-10.77 7.463,-10.77 0.433,-3.094 -0.629,-7.756 -0.629,-7.756 2.292,-5.889 1.94,-7.625 1.94,-7.625 0,0 10.394,2.582 17.731,-8.855 0,0 4.176,-6.563 5.625,-12.06 0,0 1.209,-2.391 -0.974,-2.08 0,0 -0.798,0.136 -4.255,0.674 0,0 -7.054,1.322 -12.057,3.944 0,0 -1.406,0.176 -5.039,4.018 0,0 -2.702,2.618 -4.343,0.633 0,0 -1.237,-1.824 3.062,-3.82 0,0 19.058,-10.089 26.418,-21.441 0,0 4.769,-6.387 3.795,-13.92 0,0 -2.176,-19.303 -17.732,-29.699 9.295,10.851 11.001,21.104 11.001,21.104 C 134.243,29.121 130.61,27.43 130.61,27.43 123.608,13.075 113.75,8.467 113.75,8.467 c 11.829,12.144 12.093,17.278 12.093,17.278 -9.859,-3.369 -12.151,-2.926 -12.151,-2.926 9.668,4.259 13.652,6.746 13.652,6.746 3.354,9.302 1.406,20.292 1.406,20.292 -3.259,15.505 -16.663,20.555 -16.663,20.555 1.956,-14.443 -6.283,-21.793 -6.283,-21.793 -3.187,-3.2 -5.582,-3.995 -5.582,-3.995 12.496,14.799 4.512,28.803 4.512,28.803 -13.194,-4.871 -24.524,0 -24.524,0 C 71.952,58.987 84.439,44.456 84.439,44.456 69.205,52.425 72.746,70.596 72.746,70.596 47.291,58.632 56.974,30.272 56.974,30.272 64.499,25.57 70.341,23.446 70.341,23.446 66.811,23.347 58.212,26.46 58.212,26.46 62.292,15.466 70.528,8.468 70.528,8.468 c -11.426,5.841 -16.93,19.849 -16.93,19.849 -4.797,1.857 -7.896,4.79 -7.896,4.79 1.589,-10.902 10.272,-21.584 10.272,-21.584 -17.619,12.67 -16.999,31.676 -16.999,31.676 0.267,7.186 4.343,12.155 4.343,12.155 9.042,12.316 27.386,21.083 27.386,21.083 4.427,1.78 3.457,3.637 3.457,3.637 -1.063,1.513 -2.384,0.89 -2.384,0.89 -2.395,-0.89 -3.201,-2.391 -3.201,-2.391 -3.365,-3.369 -8.515,-4.519 -8.515,-4.519 -6.357,-1.956 -11.777,-2.571 -11.777,-2.571 -1.94,-0.084 -1.146,1.501 -1.146,1.501 10.444,25.62 24.906,20.999 24.906,20.999 0.26,4.167 2.117,7.716 2.117,7.716 -1.857,6.481 -0.363,7.441 -0.363,7.441 7.815,5.848 7.639,11.257 7.639,11.257 l -0.63,1.604 c -1.941,-7.977 -6.812,-10.195 -6.812,-10.195 -1.879,3.9 -0.981,12.502 -0.981,12.502 -6.379,4.248 -6.646,11.063 -6.646,11.063 -7.101,5.596 -9.774,11.777 -9.774,11.777 l 29.963,0 M 139.576,43.917 c -0.791,7.453 -5.852,10.631 -5.852,10.631 1.149,-3.633 1.325,-10.452 1.325,-10.452 -0.095,-5.845 -1.413,-10.547 -1.413,-10.547 6.46,4.249 5.94,10.368 5.94,10.368 m -93.574,0.839 c 0,0 -0.619,-6.101 5.771,-10.459 0,0 -1.26,4.717 -1.26,10.569 0,0 0.289,6.819 1.494,10.433 0.001,0 -5.108,-3.109 -6.005,-10.543"
       id="path19"
       inkscape:connector-curvature="0"
       style="fill:#104622" /><path
       d="m 84.264,79.278 -1.601,-1.772 c -0.97,2.875 -3.929,4.658 -3.929,4.658 3.31,0.744 5.53,-2.886 5.53,-2.886"
       id="path21"
       inkscape:connector-curvature="0"
       style="fill:#ffffff" /><path
       d="m 102.223,78.773 1.831,-1.531 c 0.557,2.981 3.252,5.16 3.252,5.16 -3.392,0.275 -5.083,-3.629 -5.083,-3.629"
       id="path23"
       inkscape:connector-curvature="0"
       style="fill:#ffffff" /><path
       d="m 116.57,134.507 c 0,0 1.773,0.791 2.088,0.931 -0.044,0.352 -0.352,7.396 -5.801,11.74 -0.227,-0.161 -1.795,1.26 -1.795,1.26 0,0 3.597,-3.311 4.622,-7.596 l -1.618,0 c 0.256,-0.578 1.97,-2.072 2.504,-6.335"
       id="path25"
       inkscape:connector-curvature="0"
       style="fill:#ffffff" /><path
       d="m 67.645,86.977 c 0,0 1.623,-1.523 4.688,-0.656 -0.143,0.308 -0.579,4.102 -0.425,4.684 -1.205,0.366 -13.096,2.131 -19.289,-14.29 0.319,-0.252 8.236,-1.069 15.026,10.218"
       id="path27"
       inkscape:connector-curvature="0"
       style="fill:#ffffff" /><path
       d="m 119.588,86.933 c 0,0 -1.641,-1.502 -4.68,-0.586 0.146,0.304 0.828,4.046 0.682,4.603 1.223,0.359 12.904,2.033 18.889,-14.465 -0.33,-0.253 -8.247,-0.967 -14.891,10.408"
       id="path29"
       inkscape:connector-curvature="0"
       style="fill:#ffffff" /><path
       d="m 70.992,134.668 c 0,0 0.857,-0.996 2.351,-1.948 0.062,0.41 0.363,5.728 4.08,10.21 -0.289,0.601 -0.59,0.776 -0.59,0.776 0,0 -3.49,-2.468 -5.841,-9.038"
       id="path31"
       inkscape:connector-curvature="0"
       style="fill:#ffffff" /><path
       d="m 83.736,91.773 c -4.167,-0.358 -6.119,-1.944 -6.119,-1.944 l -1.238,0.531 c -2.827,4.691 0.711,8.331 0.711,8.331 2.746,2.662 6.566,1.582 6.566,1.582 -0.806,2.574 -0.187,3.201 -0.187,3.201 0.63,-2.121 2.747,-4.248 2.747,-4.248 -2.56,-4.354 -2.48,-7.453 -2.48,-7.453"
       id="path33"
       inkscape:connector-curvature="0"
       style="fill:#ffffff" /><path
       d="m 103.658,91.7 c 4.139,-0.483 6.05,-2.146 6.05,-2.146 l 1.26,0.487 c 2.981,4.607 -0.446,8.35 -0.446,8.35 -2.659,2.761 -6.512,1.816 -6.512,1.816 0.887,2.538 0.278,3.182 0.278,3.182 -0.681,-2.113 -2.871,-4.164 -2.871,-4.164 2.417,-4.415 2.241,-7.525 2.241,-7.525"
       id="path35"
       inkscape:connector-curvature="0"
       style="fill:#ffffff" /><path
       d="M 82.663,92.664 C 79.92,92.4 77.708,91.415 77.708,91.415 c -1.772,3.285 -0.172,5.148 -0.172,5.148 1.948,3.71 7.09,2.04 7.09,2.04 -1.856,-3.024 -1.963,-5.939 -1.963,-5.939"
       id="path37"
       inkscape:connector-curvature="0"
       style="fill:#104622" /><path
       d="m 104.962,92.751 c 2.747,-0.271 4.966,-1.249 4.966,-1.249 1.772,3.285 0.168,5.134 0.168,5.134 -1.947,3.739 -7.074,2.055 -7.074,2.055 1.852,-3.013 1.94,-5.94 1.94,-5.94"
       id="path39"
       inkscape:connector-curvature="0"
       style="fill:#104622" /><path
       d="m 97.033,102.324 -5.676,0 c -1.242,3.984 -5.05,4.79 -5.05,4.79 -2.487,1.856 -2.384,6.995 -2.384,6.995 0.879,5.76 3.087,6.563 3.087,6.563 1.516,-1.597 3.82,-2.303 3.82,-2.303 l -0.187,-0.623 c -2.651,0.443 -3.366,1.066 -3.366,1.066 -3.457,-5.233 -0.08,-10.254 -0.08,-10.254 3.889,-1.051 4.694,-3.75 4.694,-3.75 l 4.871,0 c 1.249,3.003 4.618,3.538 4.618,3.538 3.896,5.859 0.256,10.73 0.256,10.73 -1.948,-1.058 -3.098,-0.97 -3.098,-0.97 l -0.443,0.791 c 1.856,0.362 3.98,2.043 3.98,2.043 2.746,-1.779 2.57,-6.383 2.57,-6.383 -0.176,-6.387 -2.123,-7.54 -2.123,-7.54 -3.983,-0.529 -5.489,-4.693 -5.489,-4.693"
       id="path41"
       inkscape:connector-curvature="0"
       style="fill:#ffffff" /><path
       d="m 99.645,110.571 c 0.256,3.845 -1.9,4.702 -1.9,4.702 -0.546,-0.766 -0.63,-2.318 -0.63,-2.318 1.105,-0.578 2.53,-2.384 2.53,-2.384"
       id="path43"
       inkscape:connector-curvature="0"
       style="fill:#ffffff" /><path
       d="m 88.827,110.776 c -0.256,3.86 1.816,4.497 1.816,4.497 0.539,-0.766 0.63,-2.318 0.63,-2.318 -1.125,-0.578 -2.446,-2.179 -2.446,-2.179"
       id="path45"
       inkscape:connector-curvature="0"
       style="fill:#ffffff" /><path
       d="m 99.373,123.238 c -2.662,-1.553 -4.994,-1.329 -4.994,-1.329 -3.146,0.04 -5.058,1.414 -5.058,1.414 l 0.527,0.934 c 1.509,-1.198 4.53,-1.238 4.53,-1.238 3.178,0.041 4.42,1.198 4.42,1.198 l 0.575,-0.979"
       id="path47"
       inkscape:connector-curvature="0"
       style="fill:#ffffff" /><path
       d="m 86.567,147.148 c 1.476,-2.834 4.354,-4.688 4.354,-4.688 l -1.703,-1.641 c -1.084,0.352 -2.963,1.561 -2.963,1.561 l -0.132,-1.246 2.044,-1.134 -2.219,-1.523 c -0.663,-7.449 -4.604,-11.474 -4.604,-11.474 l 2.084,-2.523 c 5.79,7.269 9.126,7.039 9.126,7.039 1.205,-0.128 4.735,-0.077 4.735,-0.077 1.344,0.041 2.757,-0.981 2.757,-0.981 4.344,-3.358 5.354,-5.273 5.354,-5.273 l 1.384,1.776 c -5.72,7.705 -1.113,17.681 -1.113,17.681 -6.635,1.37 -10.733,2.505 -10.733,2.505 l -8.371,0"
       id="path49"
       inkscape:connector-curvature="0"
       style="fill:#ffffff" /><path
       d="m 140.727,225.649 25.7,0 c 0.938,-1.312 8.401,-11.646 8.987,-12.495 l 0,-26.697 0.189,-9.682 0,-18.011 c -0.622,-0.85 -8.122,-11.016 -9.066,-12.282 l -149.953,0 c -0.938,1.289 -8.39,11.638 -8.998,12.487 l 0,26.689 -0.187,9.683 0,18.003 c 0.641,0.856 8.134,11.022 9.071,12.305 l 124.257,0"
       id="path51"
       inkscape:connector-curvature="0"
       style="fill:#104622" /><polyline
       points="89.365,228.125 93.452,237.617 97.506,228.125 89.365,228.125  "
       id="polyline53"
       style="fill:#c42032" /><polyline
       points="56.882,160.207 55.044,160.207 52.319,151.639 52.279,151.675 52.286,160.207 50.243,160.207    50.225,150.246 53.835,150.246 55.992,157.482 56.014,157.482 58.336,150.246 61.826,150.239 61.837,160.186 59.771,160.207    59.761,151.675 59.738,151.639 56.882,160.207  "
       id="polyline55"
       style="fill:#ffffff" /><polyline
       points="66.964,160.164 64.767,160.164 64.756,150.217 66.957,150.203 66.964,160.164  "
       id="polyline57"
       style="fill:#ffffff" /><polyline
       points="69.483,160.164 69.473,150.195 71.681,150.195 71.691,158.494 76.141,158.494 76.152,160.148    69.483,160.164  "
       id="polyline59"
       style="fill:#ffffff" /><polyline
       points="81.964,150.174 84.439,150.174 86.237,157.645 86.256,157.645 87.907,150.174 90.013,150.151    87.402,160.127 84.956,160.127 83.11,152.539 83.077,152.539 81.107,160.127 78.599,160.148 76.079,150.174 78.371,150.174    79.95,157.666 79.972,157.666 81.964,150.174  "
       id="polyline61"
       style="fill:#ffffff" /><path
       d="m 109.078,150.137 0,6.24 c 0.008,2.645 -1.948,3.934 -4.438,3.934 -2.49,0 -4.438,-1.282 -4.446,-3.919 l 0,-6.24 2.184,0 0.014,5.397 c 0,1.686 0.088,3.216 2.242,3.216 2.168,0 2.248,-1.53 2.248,-3.223 l -0.015,-5.405 2.211,0"
       id="path63"
       inkscape:connector-curvature="0"
       style="fill:#ffffff" /><polyline
       points="113.422,154.429 113.451,154.429 116.85,150.137 119.428,150.115 115.67,154.575 119.771,160.083    117.025,160.083 113.451,155.008 113.422,155.008 113.422,160.083 111.246,160.083 111.225,150.137 113.422,150.137    113.422,154.429  "
       id="polyline65"
       style="fill:#ffffff" /><polyline
       points="121.141,150.115 128.012,150.115 128.012,151.763 123.346,151.763 123.346,154.1 127.719,154.1    127.719,155.747 123.346,155.77 123.346,158.413 128.18,158.413 128.18,160.061 121.141,160.076 121.141,150.115  "
       id="polyline67"
       style="fill:#ffffff" /><polyline
       points="130.216,150.093 137.094,150.093 137.094,151.74 132.413,151.74 132.413,154.077 136.793,154.077    136.793,155.725 132.413,155.725 132.413,158.391 137.247,158.391 137.254,160.039 130.216,160.054 130.216,150.093  "
       id="polyline69"
       style="fill:#ffffff" /><path
       d="m 89.911,160.112 3.673,-9.961 2.622,0 3.57,9.954 -2.208,0.007 -0.744,-2.116 -4.064,0 -0.754,2.116 -2.095,0 m 6.379,-3.786 -1.458,-4.234 -1.516,4.234 2.974,0 z"
       id="path71"
       inkscape:connector-curvature="0"
       style="fill:#ffffff" /><path
       d="m 44.65,162.83 -5.544,-7.186 -19.3,1.531 -0.157,6.064 2.611,0.021 0,45.747 -2.34,0 -0.454,5.801 20.695,1.758 4.489,-6.416 -0.033,-18.853 -3.757,-3.997 3.79,-6.226 0,-18.244 m -6.958,0.453 0,21.094 -8.463,0 0,-21.115 8.463,0.021 z m -8.463,45.682 0,-18.047 8.463,0 0,17.996 -8.463,0.051 z"
       id="path73"
       inkscape:connector-curvature="0"
       style="fill:#c42032" /><path
       d="m 40.201,153.447 -17.691,0 -8.712,12.004 6.255,0 0,41.367 -6.255,0.022 8.463,11.931 19.046,0 5.552,-7.924 -0.029,-20.42 c 0,0 -2.117,-2.242 -3.211,-3.406 1.021,-1.714 3.241,-5.332 3.241,-5.332 l 0,-19.621 -6.659,-8.621 m -2.179,4.409 c 0.93,1.208 3.746,4.849 4.427,5.713 l 0,16.89 c -0.545,0.864 -4.343,7.119 -4.343,7.119 0,0 3.468,3.699 4.314,4.592 0,1.523 0.022,16.055 0.029,17.293 -0.557,0.791 -2.578,3.677 -3.435,4.893 l -18.35,0 c 0.432,-1.465 0.607,-2.109 0.915,-3.135 0.282,0 2.894,-0.021 2.894,-0.021 l 0,-50.143 c 0,0 -2.758,0 -3.263,0 -0.363,-0.996 -0.619,-1.699 -1.157,-3.2 l 17.969,0 z"
       id="path75"
       inkscape:connector-curvature="0"
       style="fill:#c42032" /><path
       d="m 27.032,163.262 0,23.306 12.851,0 0,-25.474 -12.851,-0.021 0,2.189 m 4.406,2.212 c 1.561,0.022 2.487,0.022 4.047,0.022 l 0,16.677 -4.047,0 0,-16.699 z"
       id="path77"
       inkscape:connector-curvature="0"
       style="fill:#c42032" /><path
       d="m 37.692,188.713 -10.66,0 0,22.471 12.851,-0.08 0,-22.391 -2.191,0 m -2.208,4.402 0,13.608 c -1.549,0.015 -2.486,0.022 -4.047,0.036 l 0,-13.645 4.047,0 z"
       id="path79"
       inkscape:connector-curvature="0"
       style="fill:#c42032" /><polyline
       points="67.542,166.689 67.542,174.328 69.289,174.328 69.289,208.862 59.874,208.862 59.874,174.328    61.764,174.328 61.764,166.689 51.06,166.689 52.33,174.328 52.909,174.328 52.909,210.093 57.461,216.502 71.805,216.502    76.244,210.093 76.244,174.328 76.914,174.328 78.444,166.689 67.542,166.689  "
       id="polyline81"
       style="fill:#c42032" /><path
       d="m 78.444,164.478 -13.099,0 0,12.056 1.743,0 0,30.125 -5.017,0 0,-30.125 1.89,0 0,-12.056 -15.502,0 2.011,12.056 0.227,0 0,34.248 5.628,7.932 16.626,0 5.493,-7.932 0,-34.248 0.268,0 2.424,-12.056 -2.692,0 m -2.684,4.409 c -0.29,1.479 -0.425,2.088 -0.652,3.23 l -1.062,0 0,37.279 c -0.545,0.791 -2.538,3.655 -3.395,4.893 l -12.055,0 c -0.868,-1.215 -2.922,-4.102 -3.49,-4.906 l 0,-37.266 -0.897,0 c -0.209,-1.172 -0.312,-1.795 -0.557,-3.23 l 5.903,0 0,3.23 -1.89,0 0,38.942 13.82,0 0,-38.942 -1.735,0 0,-3.23 6.01,0 z"
       id="path83"
       inkscape:connector-curvature="0"
       style="fill:#c42032" /><polyline
       points="103.966,177.207 103.966,174.285 98.447,166.689 88.219,166.689 83.077,174.49 83.077,210.063    87.237,216.473 99.695,216.473 103.966,210.254 103.966,204.468 97,198.82 97,208.833 90.035,208.833 90.035,174.285 97,174.285    97,182.854 103.966,177.207  "
       id="polyline85"
       style="fill:#c42032" /><path
       d="m 98.447,164.478 -11.396,0 -6.182,9.353 0,36.878 5.16,7.962 14.832,0 5.31,-7.721 0,-7.536 -11.367,-9.206 0,12.414 -2.56,0 0,-30.125 2.56,0 0,10.979 11.367,-9.206 0,-4.703 -6.599,-9.089 -1.125,0 m -1.125,4.409 c 0.938,1.289 3.809,5.252 4.439,6.108 l 0,1.172 c -0.535,0.433 -1.282,1.032 -2.564,2.065 l 0,-6.138 -11.363,0 0,38.936 11.363,0 0,-7.595 c 1.282,1.039 2.029,1.647 2.564,2.087 l 0,4.043 c -0.535,0.784 -2.389,3.486 -3.234,4.694 l -10.103,0 c -0.816,-1.267 -2.662,-4.086 -3.149,-4.848 l 0,-34.256 c 0.549,-0.828 3.223,-4.878 4.142,-6.27 l 7.905,0 z"
       id="path87"
       inkscape:connector-curvature="0"
       style="fill:#c42032" /><polyline
       points="149.793,178.576 149.793,163.203 159.285,163.203 159.285,175.75 166.251,170.959    166.251,161.724 161.71,155.549 148.717,155.549 142.843,161.724 142.843,181.902 159.109,195.158 159.109,208.833    149.076,208.833 149.076,198.462 141.744,204.087 141.744,210.166 146.205,216.473 161.52,216.473 166.061,210.166    166.061,191.688 149.793,178.576  "
       id="polyline89"
       style="fill:#c42032" /><path
       d="m 161.71,153.352 -13.945,0 -7.134,7.486 0,22.111 c 0,0 14.81,12.063 16.274,13.25 l 0,10.422 -5.625,0 0,-12.648 -11.719,9.03 0,7.866 5.485,7.801 17.601,0 5.625,-7.786 0,-20.251 c -14.495,-11.668 -14.304,-11.514 -16.267,-13.104 l 0,-12.129 5.075,0 0,14.531 11.367,-7.814 0,-11.324 -5.845,-7.441 -0.892,0 m -0.901,4.41 c 0.908,0.886 2.293,3.962 3.23,4.893 l 0,7.155 c -0.594,0.41 -1.268,0.872 -2.549,1.751 l 0,-10.547 -13.895,0 0,18.617 c 0,0 14.781,11.91 16.282,13.111 l 0,16.699 c -0.593,0.813 -2.622,3.633 -3.472,4.818 l -13.074,0 c -0.856,-1.208 -2.819,-4.006 -3.376,-4.797 l 0,-4.292 c 0.601,-0.454 1.465,-1.12 2.907,-2.256 l 0,8.115 14.443,0 0,-16.927 c 0,0 -14.802,-12.055 -16.267,-13.256 l 0,-18.245 c 0.856,-0.901 3.691,-3.89 4.614,-4.841 l 11.157,0 z"
       id="path91"
       inkscape:connector-curvature="0"
       style="fill:#c42032" /><polyline
       points="135.057,208.716 126.326,189.064 134.119,174.182 135.102,174.182 135.102,166.543 126.4,166.543    126.4,174.182 127.791,174.182 118.717,191.504 118.717,174.182 120.131,174.182 120.131,166.543 108.822,166.543 110.609,174.182    111.752,174.182 111.752,208.716 110.294,208.716 108.492,216.355 120.299,216.355 120.299,208.716 118.717,208.716    118.717,203.589 122.569,196.25 127.719,208.716 126.912,208.716 126.912,216.355 136.793,216.355 136.793,208.716    135.057,208.716  "
       id="polyline93"
       style="fill:#c42032" /><path
       d="m 135.102,164.338 -10.914,0 0,11.969 c -0.98,1.853 -1.641,3.142 -3.273,6.247 l 0,-6.159 1.414,0 0,-12.057 -16.305,0 2.835,12.057 0.696,0 0,30.117 -1.012,0 -2.826,12.063 16.779,0 0,-12.063 -1.582,0 0,-2.389 c 0.19,-0.314 0.725,-1.369 1.406,-2.68 1.092,2.621 1.655,3.991 2.388,5.756 l 0,11.375 14.282,0 0,-12.063 -2.49,0 c -0.981,-2.146 -7.01,-15.732 -7.727,-17.359 0.791,-1.523 5.705,-10.883 6.68,-12.758 l 1.846,0 0,-12.057 -2.197,0 m -2.213,4.403 0,3.244 -0.102,0 -8.906,17.008 9.756,21.914 0.944,0 0,3.252 -5.456,0 0,-3.252 1.875,0 -8.182,-19.879 -6.299,12.027 0,7.852 1.567,0 0,3.252 -6.812,0 c 0.344,-1.473 0.483,-2.117 0.762,-3.252 l 1.926,0 0,-38.922 -1.611,0 c -0.271,-1.127 -0.402,-1.765 -0.754,-3.244 l 6.336,0 0,3.244 -1.414,0 0,19.52 4.152,1.018 10.76,-20.537 -2.827,0 0,-3.244 4.285,0 z"
       id="path95"
       inkscape:connector-curvature="0"
       style="fill:#c42032" /><path
       d="m 44.65,162.83 -5.544,-7.186 -15.512,0 -5.937,7.596 4.604,0.021 0,45.747 -4.53,0 5.863,7.559 16.567,0 4.489,-6.416 -0.033,-18.853 -3.757,-3.998 3.79,-6.226 0,-18.244 m -6.958,0.453 0,21.094 -8.463,0 0,-21.115 8.463,0.021 z m -8.463,45.682 0,-18.047 8.463,0 0,17.996 -8.463,0.051 z"
       id="path97"
       inkscape:connector-curvature="0"
       style="fill:#ffffff" /><polyline
       points="67.542,166.689 67.542,174.328 69.289,174.328 69.289,208.862 59.874,208.862 59.874,174.328    61.764,174.328 61.764,166.689 51.06,166.689 52.341,174.328 52.909,174.328 52.909,210.093 57.461,216.502 71.805,216.502    76.244,210.093 76.244,174.328 76.914,174.328 78.452,166.689 67.542,166.689  "
       id="polyline99"
       style="fill:#ffffff" /><polyline
       points="103.966,177.207 103.966,174.285 98.447,166.689 88.229,166.689 83.077,174.49 83.077,210.063    87.237,216.473 99.695,216.473 103.966,210.254 103.966,204.468 97,198.82 97,208.833 90.035,208.833 90.035,174.285 97,174.285    97,182.854 103.966,177.207  "
       id="polyline101"
       style="fill:#ffffff" /><polyline
       points="149.793,178.576 149.793,163.203 159.293,163.203 159.293,175.75 166.251,170.959    166.251,161.724 161.71,155.549 148.717,155.549 142.843,161.724 142.843,181.902 159.109,195.158 159.109,208.833    149.076,208.833 149.076,198.462 141.744,204.087 141.744,210.166 146.205,216.473 161.52,216.473 166.075,210.166    166.075,191.688 149.793,178.576  "
       id="polyline103"
       style="fill:#ffffff" /><polyline
       points="135.057,208.716 126.326,189.064 134.119,174.182 135.102,174.182 135.102,166.543 126.4,166.543    126.4,174.182 127.791,174.182 118.717,191.504 118.717,174.182 120.145,174.182 120.145,166.543 108.822,166.543 110.616,174.182    111.752,174.182 111.752,208.716 110.294,208.716 108.492,216.355 120.299,216.355 120.299,208.716 118.717,208.716    118.717,203.589 122.576,196.25 127.719,208.716 126.912,208.716 126.912,216.355 136.793,216.355 136.793,208.716    135.057,208.716  "
       id="polyline105"
       style="fill:#ffffff" /><polyline
       points="59.793,170.322 61.939,174.328 60.05,174.328 60.05,208.862 57.922,210.62 56.325,208.481    56.593,170.197 59.793,170.322  "
       id="polyline107"
       style="fill:#bccad6" /><polyline
       points="77.101,174.328 76.431,174.328 76.431,210.093 71.981,216.502 57.644,216.502 59.131,212.488    70.476,212.488 72.871,209.565 72.871,170.066 75.142,170.066 78.617,166.689 77.101,174.328  "
       id="polyline109"
       style="fill:#bccad6" /><polyline
       points="69.461,174.328 67.718,174.328 69.403,170.197 72.871,170.066 69.461,174.328  "
       id="polyline111"
       style="fill:#bccad6" /><polyline
       points="53.084,174.328 52.513,174.328 54.198,170.322 56.593,170.197 53.084,174.328  "
       id="polyline113"
       style="fill:#bccad6" /><polyline
       points="53.084,174.328 52.513,174.328 54.198,170.322 56.593,170.197 53.084,174.328  "
       id="polyline115"
       style="fill:#bccad6" /><polyline
       points="25.67,212.619 23.594,216.567 40.161,216.567 44.65,210.151 44.629,191.299 41.131,191.701    41.131,209.646 38.81,212.752 25.67,212.619  "
       id="polyline117"
       style="fill:#bccad6" /><polyline
       points="40.912,162.99 41.047,181.799 37.931,187.124 40.86,187.3 44.65,181.074 44.65,162.83    40.912,162.99  "
       id="polyline119"
       style="fill:#bccad6" /><polyline
       points="29.229,184.377 25.772,187.322 25.772,159.197 37.96,159.256 40.912,162.99 37.692,163.283    29.229,163.262 29.229,184.377  "
       id="polyline121"
       style="fill:#bccad6" /><polyline
       points="37.692,190.918 40.015,190.076 37.879,187.402 25.772,187.322 25.586,212.422 29.229,208.965    29.229,190.918 37.692,190.918  "
       id="polyline123"
       style="fill:#bccad6" /><polyline
       points="32.492,188.076 27.992,188.055 35.949,184.07 35.949,183.945 32.492,188.076  "
       id="polyline125"
       style="fill:#bccad6" /><polyline
       points="89.321,170.542 86.585,174.995 86.783,210.122 90.222,208.833 90.222,174.285 97.176,174.285    99.418,172.358 97.682,170.366 89.321,170.542  "
       id="polyline127"
       style="fill:#bccad6" /><polyline
       points="100.509,173.809 100.604,176.277 97.176,182.854 104.142,177.207 104.142,174.285    100.509,173.809  "
       id="polyline129"
       style="fill:#bccad6" /><polyline
       points="100.326,205.127 100.326,210.305 98.692,212.861 88.856,212.861 87.413,216.473 99.871,216.473    104.142,210.254 104.142,204.468 100.326,205.127  "
       id="polyline131"
       style="fill:#bccad6" /><polyline
       points="115.26,169.715 117.625,169.715 120.32,166.543 120.32,174.182 118.914,174.182 118.914,191.284    115.436,197.935 115.26,169.715  "
       id="polyline133"
       style="fill:#bccad6" /><polyline
       points="131,174.263 115.531,202.482 115.26,212.583 112.264,212.583 108.668,216.355 120.482,216.355    120.482,208.716 118.175,212.686 115.26,212.583 118.914,208.716 118.914,203.589 134.303,174.182 135.284,174.182    135.284,166.543 133.094,169.715 131.176,169.715 131,174.263  "
       id="polyline135"
       style="fill:#bccad6" /><polyline
       points="136.99,208.716 136.99,216.355 127.104,216.355 128.824,212.941 134.998,212.861 136.99,208.716     "
       id="polyline137"
       style="fill:#bccad6" /><polyline
       points="122.818,189.38 132.911,212.861 135.255,208.716 126.363,188.816 122.818,189.38  "
       id="polyline139"
       style="fill:#bccad6" /><polyline
       points="149.076,198.462 149.098,208.576 147.465,212.393 145.289,208.855 145.289,204.849    149.076,198.462  "
       id="polyline141"
       style="fill:#bccad6" /><polyline
       points="146.205,216.473 147.465,212.393 159.85,212.393 162.391,209.39 162.391,193.394 166.075,191.688    166.075,210.166 161.52,216.473 146.205,216.473  "
       id="polyline143"
       style="fill:#bccad6" /><polyline
       points="142.828,181.902 159.109,195.158 162.391,193.394 146.557,180.086 142.828,181.902  "
       id="polyline145"
       style="fill:#bccad6" /><polyline
       points="149.793,178.576 146.557,180.086 146.557,162.808 149.464,159.445 160.143,159.445    162.765,162.625 159.293,163.203 149.793,163.203 149.793,178.576  "
       id="polyline147"
       style="fill:#bccad6" /><polyline
       points="159.285,175.75 166.251,170.959 166.251,161.724 162.765,162.625 162.765,169.715 159.285,175.75     "
       id="polyline149"
       style="fill:#bccad6" /><polyline
       points="111.752,174.182 110.616,174.182 112.879,169.692 115.26,169.715 111.752,174.182  "
       id="polyline151"
       style="fill:#bccad6" /><polyline
       points="127.689,174.182 126.539,174.182 128.795,169.692 131.176,169.715 127.689,174.182  "
       id="polyline153"
       style="fill:#bccad6" /></g></svg>