<?xml version="1.0" encoding="UTF-8" standalone="no"?>
<!-- Generator: Adobe Illustrator 14.0.0, SVG Export Plug-In . SVG Version: 6.00 Build 43363)  -->

<svg
   xmlns:dc="http://purl.org/dc/elements/1.1/"
   xmlns:cc="http://creativecommons.org/ns#"
   xmlns:rdf="http://www.w3.org/1999/02/22-rdf-syntax-ns#"
   xmlns:svg="http://www.w3.org/2000/svg"
   xmlns="http://www.w3.org/2000/svg"
   xmlns:sodipodi="http://sodipodi.sourceforge.net/DTD/sodipodi-0.dtd"
   xmlns:inkscape="http://www.inkscape.org/namespaces/inkscape"
   version="1.1"
   id="Layer_1"
   x="0px"
   y="0px"
   width="40"
   height="29.660097"
   viewBox="0 0 40 29.660097"
   enable-background="new 0 0 250 187"
   xml:space="preserve"
   inkscape:version="0.91 r13725"
   sodipodi:docname="Minnesota_Timberwolves_resized.svg"><metadata
     id="metadata131"><rdf:RDF><cc:Work
         rdf:about=""><dc:format>image/svg+xml</dc:format><dc:type
           rdf:resource="http://purl.org/dc/dcmitype/StillImage" /><dc:title></dc:title></cc:Work></rdf:RDF></metadata><defs
     id="defs129" /><sodipodi:namedview
     pagecolor="#ffffff"
     bordercolor="#666666"
     borderopacity="1"
     objecttolerance="10"
     gridtolerance="10"
     guidetolerance="10"
     inkscape:pageopacity="0"
     inkscape:pageshadow="2"
     inkscape:window-width="826"
     inkscape:window-height="480"
     id="namedview127"
     showgrid="false"
     fit-margin-top="0"
     fit-margin-left="0"
     fit-margin-right="0"
     fit-margin-bottom="0"
     inkscape:zoom="1.2620321"
     inkscape:cx="19.999997"
     inkscape:cy="14.830337"
     inkscape:window-x="0"
     inkscape:window-y="0"
     inkscape:window-maximized="0"
     inkscape:current-layer="Layer_1" /><g
     id="g3"
     transform="matrix(0.16666667,0,0,0.16666667,-0.83333335,-0.75333335)"><path
       d="m 155.451,127.902 c 0,1.606 1.154,3.112 2.561,3.112 1.407,0 2.561,-1.506 2.561,-3.112 0,-1.612 -1.153,-3.121 -2.561,-3.121 -1.407,0 -2.561,1.509 -2.561,3.121"
       id="path5"
       inkscape:connector-curvature="0"
       style="fill:#010101" /><path
       d="m 82.461,148.728 c -0.075,-1.888 -0.683,-2.459 -1.567,-2.656 l 0,5.445 c 0.328,-0.104 0.646,-0.259 0.899,-0.498 0.486,-0.459 0.711,-1.231 0.668,-2.291"
       id="path7"
       inkscape:connector-curvature="0"
       style="fill:#010101" /><path
       d="m 87.347,155.422 c 1.304,1.086 2.307,2.462 2.901,3.776 l -0.043,-8.938 c -0.501,2.238 -1.723,3.994 -2.858,5.162"
       id="path9"
       inkscape:connector-curvature="0"
       style="fill:#010101" /><path
       d="m 107.7,142.045 -0.61,4.375 -0.41,2.943 -2.241,-1.949 -2.196,-1.911 -3.394,-0.034 c 0.02,1.691 0.058,4.438 0.08,6.104 l 6.025,0 2.534,0 -1.075,2.291 -2.381,5.09 -0.619,1.322 -1.377,-0.486 -3.107,-1.092 -0.083,8.126 2.693,-0.042 4.429,-3.005 2.519,-1.705 0,3.036 0,5.371 0.49,-1.083 -0.173,-25.016 -1.104,-2.335 z"
       id="path11"
       inkscape:connector-curvature="0"
       style="fill:#010101" /><path
       d="m 159.228,147.205 c -0.017,0 -0.163,0.048 -0.389,0.313 -0.979,1.12 -2.043,4.381 -2.043,8.912 0,6.117 1.807,9.322 2.432,9.322 0.287,0 0.574,-0.273 0.726,-0.439 0.822,-0.942 1.706,-4.732 1.706,-8.883 0,-4.533 -1.053,-7.798 -2.032,-8.906 -0.232,-0.268 -0.378,-0.319 -0.4,-0.319"
       id="path13"
       inkscape:connector-curvature="0"
       style="fill:#010101" /><polygon
       points="120.348,170.076 117.44,164.198 117.555,169.609 118.731,172.035 119.21,173.02 119.541,172.153 "
       id="polygon15"
       style="fill:#010101" /><path
       d="m 117.752,145.854 c -0.043,1.506 -0.113,3.996 -0.156,5.698 1.045,-0.565 1.625,-1.781 1.711,-3.661 0.021,-0.425 -0.185,-1.224 -0.705,-1.668 -0.11,-0.095 -0.349,-0.298 -0.85,-0.369"
       id="path17"
       inkscape:connector-curvature="0"
       style="fill:#010101" /><path
       d="m 81.683,160.034 c -0.259,-0.197 -0.578,-0.335 -0.907,-0.434 l 0,7.085 c 0.371,-0.078 0.72,-0.208 0.957,-0.408 0.611,-0.521 1.311,-1.355 1.392,-3.247 0.05,-1.344 -0.75,-2.456 -1.442,-2.996"
       id="path19"
       inkscape:connector-curvature="0"
       style="fill:#010101" /><polygon
       points="43.926,142.667 43.926,168.205 44.03,168.523 47.989,142.63 46.477,140.714 45.595,139.597 45.111,140.483 "
       id="polygon21"
       style="fill:#010101" /><path
       d="m 236.524,167.975 c -0.41,1.624 -1.648,6.551 -7.676,8.031 -5.712,1.403 -9.849,-2.134 -11.075,-3.354 l 0,0.073 0,1.612 -1.615,0 -16.326,0 -2.173,0 0.637,-2.085 1.282,-4.213 -0.112,-22.955 -8.02,30.044 -0.338,1.274 -2.447,0 -0.332,-1.292 -8.363,-32.365 -1.503,-1.798 -0.929,1.742 0,24.109 0.282,-0.009 4.439,-3.014 2.516,-1.705 0,3.039 0,7.614 0,1.612 -1.604,0 -13.917,0 -2.212,0 0.681,-2.107 1.283,-3.982 c -0.006,-0.537 -0.006,-1.936 -0.017,-3.79 -0.647,2.792 -1.717,5.107 -3.214,6.81 -1.812,2.04 -4.113,3.121 -6.675,3.121 -2.565,0 -4.867,-1.081 -6.668,-3.118 -2.477,-2.816 -3.816,-7.269 -3.912,-12.888 l -3.32,16.642 -0.27,1.379 -2.42,0 -0.405,-1.156 -3.214,-9.129 -3.225,9.129 -0.399,1.156 -2.409,0 -0.286,-1.365 -5.579,-27.15 c 0,0.905 -0.064,1.904 -0.23,2.991 -0.453,2.957 -2.143,5.003 -3.29,6.098 l 7.219,15.065 1.108,2.307 -2.561,0 -20.005,0 -2.497,0 0.005,-0.011 -16.185,0 -2.178,0 0.633,-2.085 1.289,-4.213 -0.006,-0.687 c -0.516,1.503 -1.289,2.873 -2.317,3.945 -3.331,3.47 -8.622,3.256 -12.122,3.118 -0.594,-0.025 -1.147,-0.051 -1.611,-0.051 l -1.567,0 0,-0.018 -7.094,0 -1.458,0 -0.147,-1.449 -1.023,-10.166 -3.305,12.396 -0.346,1.274 -2.437,0 -0.338,-1.292 -3.068,-11.886 -0.971,9.674 -0.148,1.449 -1.458,0 -7.413,0 -3.444,0 0.009,-0.011 -4.386,0 -2.213,0 0.684,-2.107 1.282,-3.979 -0.124,-25.586 -0.245,-0.45 -0.083,0.669 -0.39,2.891 -2.238,-1.866 -3.126,-2.594 -0.248,28.054 1.564,4.849 0.683,2.107 -2.216,0 -8.509,0 -2.209,0 0.68,-2.102 1.542,-4.812 -0.121,-28.331 -0.082,0.003 -3.405,2.825 -2.24,1.866 -0.386,-2.891 -0.995,-7.451 -0.239,-1.826 1.839,0 19.488,0 1.838,0 -0.242,1.826 -0.357,2.671 8.114,0 0.723,0 1.985,0 1.341,0 7.413,0 1.358,0 0.23,1.337 1.532,8.81 1.562,-8.815 0.234,-1.331 1.355,0 6.84,0 0.74,0 C 69.003,138.1 69,138.091 69,138.091 l 2.513,-0.075 0.959,-0.028 c 1.991,-0.063 5.318,-0.166 7.394,-0.076 2.112,0.084 8.848,0.962 10.324,8.054 l -0.017,-1.852 -1.57,-3.776 -0.934,-2.234 2.417,0 16.312,0 1.853,0 -0.009,0.048 0.155,0 9.026,0 c 2.238,0 4.29,0.518 5.728,1.401 l -1.205,-1.337 3.613,0 7.358,0 1.401,0 0.196,1.391 1.503,10.695 1.312,-5.142 1.407,-5.534 1.688,5.45 1.604,5.169 1.125,-10.586 0.158,-1.443 1.446,0 7.187,0 3.534,0 -2.313,2.668 -1.502,1.73 -0.31,1.559 c 0.63,-1.261 1.345,-2.372 2.139,-3.278 1.654,-1.871 3.59,-2.858 5.604,-2.858 4.514,0 8.273,4.983 9.826,12.215 -0.011,-3.323 -0.017,-5.777 -0.017,-5.791 l -0.022,-1.663 -1.644,-2.079 -2.06,-2.614 3.32,0 18.459,0 1.362,0 0.22,1.348 1.53,9.267 1.559,-9.272 0.226,-1.342 1.361,0 22.461,0 1.857,0 -0.259,1.832 0,0.03 c 1.221,-3.261 3.567,-5.444 6.781,-6.227 6.708,-1.654 11.267,3.52 11.458,3.745 l 0.692,0.808 -0.468,0.957 -3.562,7.203 -1.802,3.649 -1.188,-3.892 -1.282,-4.212 c -0.22,-0.208 -0.664,-0.54 -1.222,-0.552 -0.884,-0.022 -1.316,0.271 -1.57,1.041 -0.388,1.222 -0.096,3.036 0.293,3.799 0.709,1.407 2.082,2.698 3.681,4.198 1.862,1.753 3.973,3.731 5.639,6.489 1.502,2.469 3.06,5.956 1.799,11.001 M 26.58,117.91 36.977,100.096 33.484,99.311 45.136,77.877 l 6.991,21.769 -3.616,0.48 5.791,17.815 -12.096,-0.015 -3.64,10.608 -13.908,0 5.957,-10.619 -4.035,-0.005 z m 31.272,4.477 0.021,0 2.827,6.449 2.907,-6.449 0.02,0 2.386,10.842 -2.238,0 -0.767,-4.879 -0.028,0 -2.348,5.063 -0.03,0 -2.139,-5.054 -0.025,0 -0.77,4.87 -2.276,0 2.46,-10.842 z m 8.996,-42.202 5.323,16.57 -2.752,0.366 4.768,13.583 -3.671,0 1.551,7.169 -3.162,0 -8.823,-14.852 c 0,0 0.511,-0.067 1.167,-0.225 0.622,-0.152 1.38,-0.392 1.966,-0.74 l -2.637,-4.854 0.058,-0.104 -0.134,-0.036 -1.411,-2.598 7.757,-14.279 z m 10.33,52.976 -2.222,0 0,-10.65 2.222,0 0,10.65 z m 9.837,-10.774 0.029,0 5.86,5.896 0,-5.771 2.222,0 0,10.901 -0.025,0 -5.861,-6.017 0,5.766 -2.224,0 0,-10.775 z m -8.79,-23.063 c 0,0 0.391,-0.045 0.889,-0.169 0.476,-0.115 1.052,-0.298 1.498,-0.568 l -2.324,-4.28 6.118,-11.255 4.37,13.6 -2.261,0.301 3.916,11.146 -3.011,0 2.109,9.778 -4.449,0 -2.631,-4.972 0.002,0 c 0.014,-0.003 0.058,-0.009 0.124,-0.022 0.498,-0.082 2.383,-0.42 3.178,-0.895 L 78.225,99.324 Z M 75.167,75.651 c 0,0 2.376,-12.361 11.842,-19.714 0,0 1.743,-0.74 -8.449,-0.931 0,0 4.386,-5.794 11.592,-9.047 0,0 -4.523,-0.791 -8.477,-0.371 0,0 3.192,-6.137 14.217,-7.831 l 0.882,-0.144 c -0.712,-1.261 -2.482,-0.74 -3.184,-1.967 -0.381,-0.67 9.701,-3.096 9.327,-3.754 -0.443,-0.785 -8.966,-2.881 -9.411,-3.647 -0.25,-0.444 3.074,-1.846 2.823,-2.291 -0.233,-0.402 -2.092,-1.41 -3.772,-2.552 -1.667,-1.131 -3.154,-2.397 -3.313,-2.355 -1.46,0.357 0.458,14.534 0.536,15.293 0.008,0.079 -1.46,0.377 -1.46,0.377 -0.805,-0.799 -7.357,-20.465 -5.917,-23.929 0.208,-0.506 1.075,-0.233 4.236,2.181 13.3,10.155 24.864,12.685 24.864,12.685 0.334,-2.673 0,-6.345 0,-6.345 5.177,2.006 8.18,7.682 8.18,7.682 l 0.173,-0.5 c 0.778,-2.355 0.998,-5.679 0.998,-5.679 2.503,1.503 4.927,5.543 4.927,5.543 0,0 0.812,8.141 -1.271,12.474 -1.182,2.465 -5.121,4.01 -8.663,3.807 0,0 0.957,1.277 2.43,2.341 0.89,0.647 2.593,1.3 2.593,1.3 0,0 -3.115,2.251 -10.22,0.692 -0.637,0.067 3.524,4.156 9.535,6.714 2.878,1.227 4.292,5.906 0.544,5.94 0,0 3.074,3.509 3.357,6.058 l 0.476,2.541 c -1.144,-1.609 -2.818,-2.139 -4.156,-2.282 -0.316,-0.034 -0.613,-0.051 -0.881,-0.051 l -0.104,0 c -0.262,0.003 -0.498,0.017 -0.68,0.037 -0.002,0.002 -0.01,0.002 -0.01,0.002 -0.152,0.014 -0.287,0.048 -0.426,0.073 -0.088,0.022 -0.187,0.031 -0.267,0.054 -0.144,0.037 -0.271,0.084 -0.401,0.135 -0.063,0.023 -0.135,0.042 -0.192,0.068 -0.153,0.064 -0.286,0.138 -0.415,0.211 -0.025,0.014 -0.058,0.025 -0.083,0.045 -0.747,0.445 -1.096,0.977 -1.104,0.988 0.003,0 0.005,0 0.005,0 1.047,-0.158 1.663,-0.29 3.464,0.313 5.771,1.944 5.023,9.837 5.383,11.109 0.005,-0.022 -1.484,-1.072 -3.527,-1.072 -0.185,0 -0.36,0.031 -0.539,0.064 -0.201,0.031 -0.401,0.084 -0.591,0.155 -0.022,0.008 -0.046,0.014 -0.066,0.022 -0.179,0.07 -0.352,0.155 -0.515,0.25 -0.035,0.02 -0.07,0.037 -0.101,0.062 -0.151,0.09 -0.289,0.191 -0.424,0.304 -0.049,0.042 -0.096,0.082 -0.142,0.121 -0.111,0.104 -0.221,0.211 -0.322,0.327 -0.061,0.067 -0.116,0.141 -0.17,0.214 -0.075,0.095 -0.149,0.194 -0.215,0.298 -0.07,0.113 -0.128,0.225 -0.184,0.343 -0.041,0.079 -0.084,0.152 -0.116,0.231 -0.073,0.169 -0.124,0.343 -0.167,0.518 -0.011,0.034 -0.024,0.065 -0.032,0.099 -0.045,0.217 -0.072,0.436 -0.072,0.653 0,0.906 0.289,1.668 0.66,2.291 0.349,0.58 0.775,1.038 1.1,1.368 0.418,0.414 0.83,0.878 0.835,1.114 0.009,0.155 -0.144,0.211 -0.561,0.107 l -0.003,-0.003 -0.003,0 c -2.53,-0.633 -5.4,-3.352 -5.59,-7.62 -0.156,-3.469 0.746,-5.262 1.893,-5.675 0.087,-0.028 0.184,-0.057 0.291,-0.079 0.009,0.003 0.024,0.011 0.033,0.011 2.016,-0.476 4.616,1.199 4.616,1.199 l -0.002,-0.005 0,0.005 c 0,0 -0.289,-0.58 -0.937,-1.232 -0.651,-0.658 -1.658,-1.393 -3.095,-1.711 -0.628,-0.135 -1.224,-0.132 -1.78,-0.008 -1.672,0.377 -3.005,1.86 -3.91,3.937 -0.381,0.867 -0.678,1.931 -0.799,3.126 -0.039,0.399 -0.066,0.81 -0.063,1.238 0.014,1.033 0.165,2.145 0.514,3.315 0.838,2.819 1.722,6.16 2.728,8.197 3.824,7.704 3.997,12.566 3.766,17.05 -0.008,0.157 0.003,0.292 0.006,0.436 0.002,0.155 -0.003,0.318 0.008,0.465 0.011,0.126 0.038,0.241 0.055,0.362 0.024,0.155 0.046,0.315 0.081,0.462 0.026,0.109 0.064,0.205 0.098,0.31 0.046,0.144 0.093,0.29 0.151,0.422 0.039,0.09 0.083,0.178 0.129,0.262 0.066,0.132 0.135,0.259 0.215,0.383 0.049,0.076 0.104,0.146 0.159,0.22 0.086,0.118 0.176,0.233 0.274,0.34 0.056,0.063 0.118,0.124 0.177,0.184 0.107,0.104 0.217,0.202 0.335,0.301 0.061,0.048 0.124,0.102 0.187,0.146 0.124,0.096 0.257,0.177 0.39,0.262 0.063,0.042 0.127,0.081 0.193,0.118 0.144,0.084 0.297,0.163 0.449,0.23 0.058,0.028 0.113,0.062 0.173,0.087 0.176,0.073 0.357,0.144 0.536,0.211 0.044,0.015 0.082,0.034 0.124,0.046 0.453,0.154 0.915,0.272 1.375,0.362 0.087,0.017 0.17,0.031 0.256,0.045 0.142,0.025 0.28,0.051 0.418,0.07 0.116,0.018 0.231,0.031 0.346,0.043 0.104,0.014 0.206,0.027 0.308,0.039 0.129,0.011 0.257,0.022 0.384,0.033 0.08,0.003 0.16,0.012 0.239,0.018 0.141,0.008 0.278,0.017 0.411,0.02 0.332,0.014 0.648,0.022 0.931,0.022 4.667,0 6.299,-2.716 6.569,-6.356 0.31,-4.201 -0.399,-9.28 3.765,-16.675 1.582,-2.797 -1.328,2.169 -1.514,10.161 -0.186,7.62 -0.034,15.975 -9.722,16.163 l 0,0.003 c -0.489,0.009 -0.979,0.017 -1.515,-0.014 0,0 -3.726,-0.048 -5.858,-2.963 -0.394,-0.538 -0.706,-1.135 -0.974,-1.765 -1.666,-3.895 -1.158,-9.179 -2.136,-12.426 -0.927,-3.082 -2.296,-5.884 -3.319,-7.747 -0.784,-1.435 -1.363,-2.313 -1.369,-2.33 l 0,0.025 c -0.058,1.475 0.006,3.773 1.21,6.331 1.275,2.716 1.401,5.8 1.413,6.726 0,0.039 0.003,0.104 0.003,0.132 0,0.113 -0.003,0.169 -0.003,0.169 -1.078,-1.016 -2.722,-1.286 -2.725,-1.286 0.025,0.057 0.053,0.139 0.08,0.209 0.383,0.999 0.803,3.039 1.227,5.92 0.063,0.439 0.129,0.897 0.194,1.376 0.303,2.273 1.078,4.238 1.656,5.476 0.124,0.271 0.245,0.519 0.346,0.712 l -0.003,0 c 0,0 0.003,0 0.003,0.003 l -11.512,0 -4.218,-7.969 0.003,0 c 0.008,0 0.049,-0.006 0.102,-0.017 0.408,-0.067 1.956,-0.347 2.604,-0.734 L 93.745,98.769 c 0,0 0.316,-0.042 0.729,-0.141 0.393,-0.093 0.865,-0.242 1.231,-0.462 L 84.405,77.374 76.74,91.471 74.722,87.748 73.526,85.376 c 0.001,0 0.71,-6.492 1.641,-9.725 m 62.562,49.986 c 0,-2.079 1.644,-3.25 3.264,-3.25 1.03,0 2.077,0.447 2.871,1.207 l -1.222,1.821 c -0.507,-0.526 -0.89,-0.8 -1.581,-0.8 -0.395,0 -0.979,0.273 -0.979,0.827 0,1.675 4.007,0.589 4.007,4.452 0,2.363 -1.57,3.518 -3.438,3.518 -1.108,0 -2.257,-0.38 -3.101,-1.241 l 1.328,-2.004 c 0.416,0.574 1.019,0.848 1.683,0.848 0.461,0 1.182,-0.259 1.182,-0.932 -0.001,-1.649 -4.014,-0.667 -4.014,-4.446 m 4.188,-67.753 1.44,-0.99 c 0,0 1.137,2.476 -1.44,4.426 -2.702,2.042 -4.436,-0.903 -4.436,-0.903 l 1.177,-0.816 c 0,0 0.996,0.909 2.358,0.273 1.356,-0.63 0.901,-1.99 0.901,-1.99 m -13.097,52.361 c 2.061,-0.194 1.374,-3.394 1.374,-3.394 0.394,0.484 0.979,1.367 0.979,2.932 0,2.556 -1.373,3.242 -1.66,3.242 -0.298,0 -1.019,-0.492 -1.019,-1.669 0,-1.178 0.326,-1.111 0.326,-1.111 m -8.462,-18.822 c 0.269,-0.636 1.808,-0.275 2.168,0.45 0.72,-0.726 1.719,-0.366 2.169,0.09 0.454,-0.456 1.446,-0.816 2.17,-0.09 0.354,-0.726 1.893,-1.086 2.174,-0.45 0,0 0,1.441 -0.911,2.344 0,0 -0.542,-1.173 -0.998,-1.267 0,0 -0.897,1.179 -1.26,1.632 l -1.175,-1.449 -1.171,1.449 c -0.363,-0.453 -1.271,-1.632 -1.271,-1.632 -0.449,0.093 -0.996,1.267 -0.996,1.267 -0.899,-0.903 -0.899,-2.344 -0.899,-2.344 m -0.944,15.429 c 0,0 -0.687,3.199 1.369,3.394 0,0 0.325,-0.067 0.325,1.111 0,1.177 -0.715,1.669 -1.012,1.669 -0.291,0 -1.666,-0.687 -1.666,-3.242 10e-4,-1.565 0.589,-2.448 0.984,-2.932 m -1.245,-10.356 c 0,0 -1.354,-0.815 -1.354,-3.252 0,-3.171 1.354,-3.802 1.354,-3.802 0.542,-0.18 0.816,0.096 1.271,0.456 0.45,0.36 0.631,1.266 0.631,1.266 0,0 -0.986,0.273 -1.718,1.441 -0.723,1.176 -0.184,3.891 -0.184,3.891 m 9.176,17.699 c -0.483,0.594 -1.175,0 -1.175,0 0,0 -0.583,0.493 -1.372,0.099 -0.777,0.395 -1.368,-0.099 -1.368,-0.099 0,0 -0.687,0.594 -1.176,0 -0.933,-1.116 -0.297,-2.839 -0.297,-2.839 0,0 0.201,1.857 1.377,1.959 l 0.784,-1.376 0.68,1.474 0.687,-1.474 0.787,1.376 c 1.175,-0.102 1.372,-1.959 1.372,-1.959 0,0 0.636,1.723 -0.299,2.839 m -2.457,-6.398 0,-0.036 c -3.61,-0.181 -5.054,-3.791 -5.235,-6.86 -0.179,-3.07 0.449,-4.243 2.164,-4.334 1.717,-0.093 2.53,2.074 2.619,2.978 0.093,0.906 0.453,1.717 0.453,1.717 l 0,0.036 c 0,0 0.36,-0.816 0.449,-1.722 0.093,-0.896 0.906,-3.062 2.623,-2.972 1.716,0.084 2.341,1.261 2.166,4.327 -0.181,3.07 -1.627,6.68 -5.239,6.866 m 6.144,-15.192 c -0.72,-1.168 -1.716,-1.441 -1.716,-1.441 0,0 0.186,-0.906 0.636,-1.266 0.45,-0.36 0.726,-0.636 1.261,-0.456 0,0 1.356,0.63 1.356,3.802 0,2.437 -1.356,3.252 -1.356,3.252 0,0 0.546,-2.715 -0.181,-3.891 m -17.994,29.906 0,10.901 -0.026,0 -5.87,-6.017 0,5.766 -2.211,0 0,-10.774 0.022,0 5.861,5.896 0,-5.771 2.224,0 z m 14.366,4.176 0,2.229 -2.312,0 0,2.023 3.514,0 -0.546,2.229 -5.187,0 0,-10.535 5.069,0 0.389,2.229 -3.239,0 0,1.826 2.312,0 z m 9.211,-78.744 c 0.225,1.314 0.652,2.656 0.906,2.243 0.675,-1.123 4.936,-3.228 4.936,-3.228 0,0 -1.52,2.645 -0.855,2.246 0.923,-0.552 3.151,0.583 3.151,0.583 -6.292,2.451 -11.261,5.279 -13.203,9.007 -0.219,-1.756 4.846,-12.165 5.065,-10.851 m 26.181,79.956 c 0,3.07 -2.173,5.513 -4.784,5.513 -2.611,0 -4.777,-2.442 -4.777,-5.513 0,-3.071 2.166,-5.513 4.777,-5.513 2.611,0 4.784,2.443 4.784,5.513 m 4.176,-20.591 -2.843,0.188 -1.041,10.377 -11.328,0 3.545,-6.693 1.778,-3.363 -2.689,-0.422 4.311,-7.248 2.088,-3.543 -2.285,-0.296 7.198,-13.245 2.172,13.023 -2.307,0.304 1.401,10.918 z m -22.45,-79.293 c 8.148,-2.715 20.49,-11.706 20.575,-11.771 3.787,-3.118 5.025,-4.094 5.745,-3.756 0.501,0.236 0.676,0.712 0.676,1.052 0,0 -2.864,15.046 -8.914,24.427 0,0 5.313,1.925 8.03,6.337 0,0 -5.639,-0.118 -8.43,0.447 2.893,1.733 9.729,8.028 11.649,11.424 -5.65,-0.906 -11.504,-0.509 -11.504,-0.509 0.45,0.402 3.287,3.424 3.782,3.85 5.487,4.674 10.378,11.81 10.158,23.237 l -0.518,-3.16 c -2.814,-10.068 -7.907,-15.825 -12.832,-20.021 -0.905,-0.771 -5.7,-4.564 -6.443,-5.262 0,0 3.455,-0.473 4.693,-0.675 2.037,-0.34 6.084,-0.115 8.144,-0.059 -3.563,-3.869 -12.026,-9.567 -12.1,-9.618 l -0.687,-0.338 c 3.404,-1.131 9.714,-0.81 9.955,-0.788 0,0 -2.425,-2.606 -6.269,-4.412 6.46,-9.716 8.711,-22.852 8.762,-22.849 -0.039,-0.003 0.788,-1.469 -2.932,1.922 -0.377,0.278 -4.159,3.509 -9.111,8.205 l 1.913,3.005 c -3.027,0.76 -6.871,1.517 -10.822,1.97 l 4.891,4.82 c -4.53,-1.975 -8.425,-5.09 -13.242,-5.659 1.736,-0.646 3.222,-1.248 4.831,-1.819 m 26.901,97.011 0.568,-2.395 6.112,0 0,2.395 -2.161,0 0,8.135 -2.218,0 0,-8.135 -2.301,0 z m 11.847,-44.841 3.326,16.205 -2.814,0.371 2.116,13.721 -3.461,0.23 -0.715,7.164 -12.943,0 1.812,-3.424 2.167,-4.098 -3.281,-0.509 5.251,-8.836 2.549,-4.311 -2.785,-0.366 8.778,-16.147 z m 12.482,52.976 -2.251,0 -0.912,-2.009 -3.41,0 -0.9,2.009 -2.155,0 4.783,-10.774 0.022,0 4.823,10.774 z m 1.356,-33.592 -3.658,-0.479 11.531,-21.214 7.856,21.769 -3.411,0.455 c 1.847,3.935 6.078,13.541 7.801,16.715 l -3.574,0.712 5.33,11.253 c -2.442,0.951 -4.227,3.928 -4.227,3.928 l -4.829,0.073 -5.729,-14.843 -17.092,-0.065 10.002,-18.304 z m 39.862,49.724 c 0,0 6.005,-12.605 6.021,-12.646 -0.028,-0.039 -0.09,-0.118 -0.09,-0.118 0,0 -0.276,-0.354 -0.271,-0.349 -0.236,-0.296 -5.808,-7.227 -12.572,-8.084 l -0.776,-0.076 -3.687,-6.965 1.104,-0.239 c 1.367,-0.284 2.414,-0.627 2.966,-0.959 0,0 0.129,-0.076 0.202,-0.121 -0.045,-0.067 -9.798,-16.486 -9.798,-16.486 l 1.075,-0.304 c 0.782,-0.22 1.396,-0.437 1.772,-0.628 0,0 0.146,-0.07 0.22,-0.109 -0.063,-0.124 -18.291,-33.638 -18.358,-33.77 -0.129,0.222 -12.049,22.145 -12.049,22.145 0,0 -9.539,-17.55 -9.618,-17.683 -0.067,0.129 -3.066,5.642 -3.066,5.642 l -0.383,-2.513 c -0.349,-2.308 -1.002,-4.463 -1.925,-6.402 -1.126,-2.358 -2.915,-5.073 -5.329,-8.07 l -1.531,-1.908 2.387,0.532 c 2.121,0.476 3.753,1.219 3.944,1.312 0,0 2.161,1.047 2.308,1.117 -0.051,-0.27 -0.501,-2.516 -0.501,-2.516 -0.731,-3.7 -2.65,-7.175 -5.712,-10.33 l -2.071,-2.104 4.063,0.954 c 0,0 2.825,0.83 3.017,0.887 -0.163,-0.293 -1.554,-2.744 -1.554,-2.744 -2.589,-4.567 -5.369,-7.094 -7.254,-8.408 l -0.558,-0.391 0.26,-0.633 c 4.39,-10.76 6.612,-19.008 6.612,-24.512 0,-4.508 -1.503,-5.861 -2.155,-6.233 l -0.344,-0.197 c 0,0 -0.056,-0.034 -0.079,-0.051 -0.033,0.011 -0.483,0.11 -0.489,0.11 -1.232,0.276 -4.305,2.31 -11.059,6.902 -3.613,2.465 -7.704,5.256 -10.631,7.004 -3.854,2.313 -6.686,3.317 -8.385,3.753 l -0.76,0.191 -0.254,-0.737 c -0.528,-1.471 -0.838,-3.652 -0.911,-5.161 0,0 -0.096,-2.06 -0.107,-2.2 -0.197,0.126 -1.857,1.182 -1.857,1.182 -1.192,0.766 -2.712,2.485 -4.395,4.983 l -0.682,1.021 -0.72,-1.004 c -2.24,-3.118 -4.84,-5.161 -4.941,-5.242 0,0 -2.735,-2.125 -2.919,-2.268 0.099,0.388 0.893,3.587 0.893,3.587 l 0.015,0.009 0.032,0.597 -0.115,2.631 -1.3,-0.982 c -2.483,-1.871 -5.403,-3.587 -5.728,-3.779 0,0 -2.037,-1.196 -2.179,-1.28 0.026,0.273 0.126,1.193 0.126,1.193 l 0.324,3.109 -1.518,-1.019 c -3.47,-2.324 -7.406,-3.568 -7.853,-3.703 0,0 -2.372,-0.706 -2.529,-0.757 0.103,0.268 0.982,2.454 0.982,2.454 0.366,0.923 0.677,2.215 0.905,3.731 l 0.23,1.598 -1.452,-0.701 C 100.124,18.724 89.345,12.041 85.4,9.177 83.126,7.52 81.372,7.061 80.044,7.773 c -1.76,0.942 -1.76,3.444 -1.76,4.266 l 0.017,0.726 c 0.343,7.803 4.544,19.404 6.333,24.028 l 0.255,0.664 -0.6,0.374 c -5.584,3.478 -9.281,8.495 -9.68,9.05 0,0 -1.44,2.048 -1.538,2.195 0.286,-0.02 2.665,-0.186 2.667,-0.186 l 3.815,-0.034 -1.908,1.545 c -4.795,3.872 -7.166,8.43 -7.192,8.478 0,0 -1.308,2.499 -1.402,2.67 0.308,-0.093 2.896,-0.861 2.896,-0.861 1.231,-0.363 2.513,-0.633 3.813,-0.788 l 2.123,-0.265 -1.357,1.655 c -2.558,3.112 -4.394,6.857 -5.463,11.121 -0.276,1.105 -0.498,2.291 -0.647,3.517 l -0.335,2.64 c 0,0 -3.011,-5.535 -3.083,-5.667 -0.07,0.132 -9.617,17.683 -9.617,17.683 0,0 -11.971,-22.013 -12.043,-22.145 -0.118,0.222 -18.317,33.696 -18.36,33.77 0.124,0.064 0.222,0.112 0.222,0.112 0.375,0.191 0.988,0.405 1.771,0.625 l 1.075,0.304 c 0,0 -9.755,16.419 -9.802,16.486 0.115,0.07 0.209,0.121 0.209,0.121 0.542,0.329 1.594,0.672 2.958,0.959 l 1.108,0.239 -3.772,7.122 -13.743,0 c 0.014,0.096 4.046,25.978 4.066,26.107 0.176,-0.118 4.927,-3.27 4.927,-3.27 l 0.149,17.227 c 0,0 -4.328,12.417 -4.364,12.524 l 26.571,0 c -0.056,-0.178 -0.671,-2.074 -0.671,-2.074 l 181.554,0 0.175,0.079 c 1.294,0.6 5.937,2.496 11.108,1.874 2.916,-0.352 12.433,-2.643 12.433,-17.354 0,-6.452 -3.929,-11.644 -5.611,-13.574 l -0.371,-0.423 z"
       id="path23"
       inkscape:connector-curvature="0"
       style="fill:#010101" /><polygon
       points="192.088,129.202 190.906,126.625 189.719,129.202 "
       id="polygon25"
       style="fill:#010101" /><path
       d="m 217.773,169.271 2.954,-5.99 1.801,-3.645 1.188,3.889 1.277,4.165 c 0.248,0.214 0.732,0.537 1.368,0.607 0.597,0.068 1.733,-0.773 1.998,-1.261 0.883,-1.606 0.191,-3.446 -0.597,-5.039 -0.535,-1.069 -2.189,-2.837 -3.793,-4.547 -2.077,-2.221 -4.43,-4.736 -5.78,-7.137 -0.878,-1.556 -1.446,-3.424 -1.638,-5.194 l -0.174,1.3 -0.411,2.943 -2.24,-1.949 -2.2,-1.911 -3.394,-0.034 c 0.028,1.691 0.057,4.438 0.079,6.104 l 6.027,0 2.532,0 -1.075,2.291 -2.38,5.09 -0.619,1.322 -1.379,-0.486 -3.106,-1.092 -0.079,8.126 2.695,-0.042 4.43,-3.005 2.516,-1.705 0,3.036 0,4.164 z"
       id="path27"
       inkscape:connector-curvature="0"
       style="fill:#010101" /><path
       d="m 71.892,143.922 -1.775,-3.577 c 0,0 -0.063,-0.129 -0.159,-0.317 l -0.313,0.521 -1.188,1.973 4.083,26.709 -0.648,-25.309 z"
       id="path29"
       inkscape:connector-curvature="0"
       style="fill:#010101" /><path
       d="m 242.952,163.295 c 0,14.705 -9.512,16.996 -12.427,17.348 -5.178,0.622 -9.82,-1.271 -11.114,-1.871 l -0.175,-0.076 -181.554,0 c 0,0 0.613,1.894 0.674,2.071 l -26.576,0 c 0.038,-0.109 4.366,-12.524 4.366,-12.524 l -0.149,-17.229 c 0,0 -4.753,3.154 -4.927,3.272 -0.021,-0.127 -4.052,-26.012 -4.066,-26.11 l 13.744,0 3.772,-7.119 -1.11,-0.239 c -1.361,-0.289 -2.415,-0.63 -2.956,-0.959 0,0 -0.096,-0.054 -0.208,-0.121 0.044,-0.07 9.801,-16.483 9.801,-16.483 l -1.072,-0.307 c -0.787,-0.22 -1.397,-0.437 -1.776,-0.625 0,0 -0.097,-0.051 -0.221,-0.112 0.042,-0.073 18.241,-33.55 18.359,-33.77 0.076,0.132 12.047,22.148 12.047,22.148 0,0 9.544,-17.552 9.616,-17.684 0.069,0.132 3.081,5.667 3.081,5.667 l 0.333,-2.643 c 0.15,-1.227 0.372,-2.412 0.648,-3.517 1.069,-4.266 2.904,-8.008 5.463,-11.121 l 1.36,-1.655 -2.127,0.262 c -1.298,0.161 -2.582,0.428 -3.811,0.791 0,0 -2.587,0.765 -2.893,0.861 0.092,-0.171 1.4,-2.667 1.4,-2.667 0.025,-0.051 2.397,-4.606 7.192,-8.484 l 1.907,-1.545 -3.812,0.04 c -0.006,0 -2.386,0.16 -2.672,0.18 0.099,-0.141 1.539,-2.192 1.539,-2.192 0.401,-0.557 4.094,-5.572 9.678,-9.05 l 0.6,-0.374 -0.253,-0.664 C 82.846,32.168 78.645,20.569 78.3,12.766 L 78.282,12.04 c 0,-0.819 0,-3.323 1.761,-4.266 1.328,-0.715 3.083,-0.253 5.356,1.404 3.945,2.865 14.724,9.545 20.561,12.378 l 1.456,0.704 -0.233,-1.601 c -0.228,-1.517 -0.539,-2.809 -0.905,-3.729 0,0 -0.876,-2.192 -0.983,-2.457 0.162,0.054 2.532,0.757 2.532,0.757 0.445,0.138 4.38,1.382 7.85,3.703 l 1.522,1.019 -0.326,-3.109 c 0,0 -0.099,-0.92 -0.126,-1.193 0.141,0.084 2.181,1.28 2.181,1.28 0.323,0.188 3.242,1.905 5.726,3.779 l 1.299,0.979 0.115,-2.631 -0.03,-0.594 -0.016,-0.011 c 0,0 -0.795,-3.197 -0.892,-3.585 0.184,0.146 2.914,2.268 2.914,2.268 0.112,0.082 2.707,2.127 4.952,5.245 l 0.71,0.999 0.691,-1.019 c 1.678,-2.499 3.197,-4.218 4.39,-4.986 0,0 1.66,-1.056 1.857,-1.179 0.012,0.141 0.107,2.2 0.107,2.2 0.073,1.506 0.383,3.687 0.911,5.161 l 0.254,0.737 0.76,-0.194 c 1.699,-0.434 4.53,-1.441 8.385,-3.748 2.927,-1.753 7.013,-4.544 10.631,-7.004 6.754,-4.598 9.82,-6.632 11.059,-6.908 0.006,0 0.45,-0.098 0.489,-0.107 0.023,0.014 0.079,0.051 0.079,0.051 l 0.344,0.197 c 0.652,0.372 2.155,1.725 2.155,6.233 0,5.504 -2.223,13.751 -6.612,24.509 l -0.26,0.636 0.558,0.391 c 1.88,1.317 4.671,3.841 7.254,8.408 0,0 1.391,2.448 1.554,2.744 -0.191,-0.057 -3.017,-0.887 -3.017,-0.887 l -4.063,-0.951 2.071,2.102 c 3.062,3.152 4.98,6.627 5.712,10.33 0,0 0.45,2.246 0.501,2.516 -0.146,-0.073 -2.308,-1.117 -2.308,-1.117 -0.191,-0.093 -1.823,-0.836 -3.944,-1.309 l -2.387,-0.538 1.531,1.911 c 2.414,2.994 4.209,5.712 5.329,8.067 0.923,1.945 1.57,4.097 1.925,6.407 l 0.383,2.51 c 0,0 2.999,-5.513 3.066,-5.639 0.079,0.132 9.618,17.68 9.618,17.68 0,0 11.92,-21.926 12.044,-22.145 0.072,0.132 18.301,33.646 18.363,33.77 -0.073,0.036 -0.22,0.112 -0.22,0.112 -0.377,0.186 -0.99,0.405 -1.772,0.625 l -1.075,0.307 c 0,0 9.753,16.413 9.798,16.483 -0.067,0.042 -0.202,0.121 -0.202,0.121 -0.552,0.332 -1.599,0.672 -2.961,0.959 l -1.108,0.239 3.687,6.965 0.776,0.073 c 6.765,0.863 12.336,7.791 12.572,8.09 -0.006,-0.009 0.271,0.346 0.271,0.346 0,0 0.062,0.076 0.09,0.118 -0.017,0.04 -6.021,12.646 -6.021,12.646 l 0.371,0.425 c 1.687,1.931 5.61,7.123 5.61,13.578 m 2.048,-26.869 -1.024,-1.312 c -0.253,-0.318 -6.185,-7.68 -13.602,-8.698 -0.146,-0.275 -1.582,-2.971 -2.234,-4.206 1.013,-0.273 1.868,-0.561 2.403,-0.887 l 1.671,-0.993 -0.996,-1.672 c 0,-0.005 -6.602,-11.114 -8.554,-14.398 0.399,-0.135 0.754,-0.272 1.019,-0.405 0,-0.003 1.807,-0.903 1.807,-0.903 l -0.963,-1.781 -19.753,-36.313 c 0,0 -9.573,17.604 -12.044,22.14 -0.033,-0.064 -9.612,-17.679 -9.612,-17.679 0,0 -1.992,3.658 -2.273,4.178 -0.394,-1.618 -0.878,-3.177 -1.559,-4.606 -0.906,-1.905 -2.224,-4.016 -3.917,-6.3 0.619,0.23 1.024,0.411 1.103,0.453 -0.011,-0.008 1.863,0.901 1.863,0.901 l 3.534,1.71 -0.766,-3.844 c 0,-0.002 -0.405,-2.048 -0.405,-2.048 -0.636,-3.202 -2.11,-6.23 -4.327,-9.044 0.478,0.141 5.521,1.629 5.521,1.629 l -3.642,-6.43 c -2.516,-4.438 -5.223,-7.063 -7.215,-8.563 4.306,-10.659 6.5,-18.923 6.5,-24.54 0,-5.208 -1.885,-7.074 -3.016,-7.718 0,-0.003 -1.014,-0.577 -1.014,-0.577 l -1.125,0.253 c -1.548,0.343 -4.261,2.127 -11.61,7.133 -3.63,2.476 -7.704,5.25 -10.586,6.978 -3.253,1.947 -5.661,2.87 -7.142,3.321 -0.287,-1.115 -0.518,-2.583 -0.579,-3.892 l -0.085,-1.784 c 0,-0.003 -0.169,-3.368 -0.169,-3.368 l -4.339,2.774 c -1.232,0.785 -2.65,2.327 -4.204,4.505 -2.139,-2.715 -4.305,-4.446 -4.563,-4.654 -0.006,-0.003 -6.842,-5.315 -6.842,-5.315 0,0 1.746,6.97 1.958,7.819 -2.123,-1.477 -4.155,-2.676 -4.425,-2.839 l -5.106,-2.991 c 0,0 0.421,3.973 0.435,4.12 -3.121,-1.807 -6.137,-2.789 -6.786,-2.983 -0.017,-0.008 -5.95,-1.775 -5.95,-1.775 l 2.302,5.743 c 0.179,0.447 0.34,1.027 0.484,1.671 C 99.27,16.166 89.897,10.321 86.413,7.792 83.546,5.713 81.204,5.212 79.235,6.267 76.57,7.694 76.57,10.966 76.57,12.041 l 0.022,0.799 c 0.343,7.727 4.276,18.887 6.203,23.94 -5.529,3.625 -9.173,8.54 -9.58,9.108 -0.006,0.009 -3.61,5.133 -3.61,5.133 l 4.08,-0.273 c 0,0 0.523,-0.034 1.054,-0.07 -3.841,3.635 -5.719,7.243 -5.805,7.415 0.002,-0.009 -1.136,2.158 -1.136,2.158 l -2.141,4.088 6.774,-2.006 c 0.464,-0.138 0.959,-0.191 1.438,-0.298 -2.018,2.918 -3.539,6.239 -4.467,9.961 -0.108,0.408 -0.158,0.867 -0.242,1.294 C 68.982,72.958 67,69.317 67,69.317 67,69.317 58.638,84.692 57.385,87 56.976,86.251 45.34,64.857 45.34,64.857 l -1.713,3.149 -18.998,34.942 1.808,0.903 c 0.262,0.136 0.613,0.273 1.016,0.408 -0.977,1.641 -9.552,16.07 -9.552,16.07 l 1.669,0.999 c 0.536,0.32 1.394,0.607 2.4,0.878 0,0.003 -1.855,3.518 -2.25,4.26 l -14.72,0 0.349,2.251 4.438,28.472 c 0,0 3.654,-2.423 4.522,-3.003 0.022,2.524 0.121,13.515 0.124,13.771 -0.093,0.272 -5.061,14.52 -5.061,14.52 l 31.344,0 c 0,0 -0.539,-1.641 -0.677,-2.071 l 178.837,0 c 1.582,0.706 6.416,2.595 11.853,1.938 3.27,-0.394 13.939,-2.935 13.939,-19.05 0,-6.629 -3.726,-11.931 -5.678,-14.267 0.41,-0.848 6.01,-12.601 6.01,-12.601"
       id="path31"
       inkscape:connector-curvature="0"
       style="fill:#a8aaad" /><path
       d="M 76.74,91.471 84.405,77.374 95.702,98.16 c -0.369,0.223 -0.838,0.372 -1.229,0.465 -0.412,0.099 -0.729,0.138 -0.729,0.138 l 6.174,10.395 c -0.65,0.388 -2.195,0.67 -2.607,0.734 -0.049,0.011 -0.089,0.017 -0.099,0.017 l -0.003,0 4.22,7.969 11.507,0 c 0,-0.003 0,-0.003 0,-0.003 l -4.342,0 c -2.838,-4.412 -1.894,-14.077 -5.878,-22.376 -1.202,-2.484 -2.048,-4.713 -2.65,-6.654 -1.245,1.021 -2.291,2.141 -2.291,2.141 -1.21,-5.161 -0.127,-9.263 0.438,-10.893 -3.066,1.208 -5.004,4.227 -5.004,4.227 0,0 -1.905,-4.17 0.93,-10.786 1.955,-4.559 5.754,-6.956 8.468,-7.865 -2.527,-1.154 -3.602,-3.607 -3.938,-5.461 -0.654,-3.627 1.887,-9.452 1.887,-9.452 4.176,3.999 9.662,5.828 13.552,8.822 3.734,2.864 4.57,5.515 4.57,5.515 0,0 -0.02,-0.011 -0.032,-0.02 0.978,1.168 1.626,2.274 1.795,2.871 -0.014,0 -0.022,0 -0.031,0 1.336,0.143 3.011,0.672 4.155,2.282 l -0.476,-2.541 c -0.283,-2.549 -3.36,-6.058 -3.36,-6.058 3.75,-0.034 2.337,-4.713 -0.544,-5.938 -6.008,-2.561 -10.171,-6.646 -9.532,-6.716 7.106,1.559 10.222,-0.692 10.222,-0.692 0,0 -1.704,-0.656 -2.594,-1.3 -1.472,-1.063 -2.429,-2.341 -2.429,-2.341 3.542,0.203 7.479,-1.345 8.661,-3.807 2.083,-4.331 1.268,-12.474 1.268,-12.474 0,0 -2.42,-4.041 -4.927,-5.543 0,0 -0.215,3.323 -0.994,5.679 l -0.173,0.5 c 0,0 -3.002,-5.675 -8.181,-7.682 0,0 0.332,3.672 0,6.348 0,0 -11.563,-2.533 -24.864,-12.688 -3.16,-2.414 -4.028,-2.687 -4.238,-2.181 -1.438,3.464 5.114,23.13 5.915,23.929 0,0 1.473,-0.298 1.464,-0.38 -0.079,-0.757 -1.998,-14.933 -0.536,-15.291 0.155,-0.042 1.645,1.227 3.313,2.355 1.677,1.142 3.536,2.149 3.772,2.552 0.248,0.445 -3.074,1.846 -2.824,2.291 0.44,0.763 8.967,2.862 9.41,3.644 0.376,0.661 -9.707,3.087 -9.327,3.757 0.704,1.227 2.472,0.706 3.184,1.967 l -0.882,0.146 c -11.026,1.688 -14.22,7.831 -14.22,7.831 3.954,-0.422 8.481,0.369 8.481,0.369 -7.207,3.253 -11.592,9.047 -11.592,9.047 10.19,0.191 8.447,0.931 8.447,0.931 -9.464,7.353 -11.842,19.714 -11.842,19.714 -0.93,3.233 -1.642,9.725 -1.642,9.725 l 1.196,2.372 2.019,3.72 z"
       id="path33"
       inkscape:connector-curvature="0"
       style="fill:#a8aaad" /><path
       d="m 120.78,76.22 0.002,0.005 c 0,0 -2.599,-1.674 -4.619,-1.199 1.649,0.315 3.752,2.924 4.476,4.888 -0.003,0 -0.006,0 -0.012,0.003 0.179,-0.034 0.355,-0.064 0.542,-0.064 2.04,0 3.53,1.049 3.524,1.072 -0.36,-1.272 0.391,-9.165 -5.383,-11.109 -1.798,-0.603 -2.417,-0.47 -3.461,-0.313 5.275,1.117 4.934,6.677 4.931,6.717"
       id="path35"
       inkscape:connector-curvature="0"
       style="fill:#a8aaad" /><path
       d="m 125.491,117.514 c -0.02,0.9 -0.778,1.809 -0.784,1.812 9.69,-0.188 9.539,-8.543 9.719,-16.163 0.191,-7.991 3.102,-12.958 1.52,-10.164 -4.164,7.398 -3.455,12.477 -3.765,16.678 -0.271,3.641 -1.902,6.356 -6.569,6.356 -0.281,0 -0.599,-0.009 -0.93,-0.022 0.025,0.003 0.058,0.006 0.086,0.006 0,0 0.735,0.759 0.723,1.497"
       id="path37"
       inkscape:connector-curvature="0"
       style="fill:#a8aaad" /><path
       d="m 144.753,49.783 c 0,0 -2.229,-1.128 -3.151,-0.583 -0.67,0.405 0.855,-2.24 0.855,-2.24 0,0 -4.261,2.099 -4.936,3.222 -0.248,0.419 -0.682,-0.926 -0.912,-2.24 -0.214,-1.311 -5.278,9.097 -5.06,10.848 1.943,-3.728 6.918,-6.553 13.204,-9.007"
       id="path39"
       inkscape:connector-curvature="0"
       style="fill:#a8aaad" /><path
       d="m 148.045,30.677 c 3.951,-0.456 7.795,-1.212 10.822,-1.975 l -1.913,-3.005 c 4.952,-4.693 8.734,-7.924 9.117,-8.205 3.72,-3.385 2.893,-1.922 2.926,-1.919 -0.045,-0.003 -2.302,13.129 -8.762,22.846 3.844,1.809 6.269,4.415 6.269,4.415 -0.247,-0.022 -6.551,-0.343 -9.955,0.788 l 0.687,0.338 c 0.079,0.051 8.537,5.746 12.1,9.618 -2.06,-0.059 -6.106,-0.281 -8.144,0.059 -1.238,0.203 -4.693,0.678 -4.693,0.678 0.743,0.695 5.538,4.485 6.449,5.259 4.925,4.195 10.012,9.953 12.826,20.021 l 0.523,3.157 c 0.219,-11.424 -4.677,-18.563 -10.164,-23.237 -0.495,-0.425 -3.332,-3.444 -3.776,-3.847 0,0 5.848,-0.394 11.498,0.509 -1.925,-3.396 -8.763,-9.691 -11.649,-11.424 2.791,-0.568 8.43,-0.45 8.43,-0.45 -2.718,-4.412 -8.03,-6.334 -8.03,-6.334 6.05,-9.381 8.914,-24.43 8.914,-24.43 0,-0.337 -0.18,-0.813 -0.676,-1.049 -0.72,-0.338 -1.964,0.641 -5.745,3.756 -0.085,0.062 -12.427,9.055 -20.575,11.771 -1.604,0.571 -3.102,1.17 -4.829,1.823 4.812,0.565 8.712,3.681 13.236,5.656 l -4.886,-4.819 z"
       id="path41"
       inkscape:connector-curvature="0"
       style="fill:#005183" /><path
       d="m 141.011,59.874 c -1.356,0.636 -2.347,-0.273 -2.347,-0.273 l -1.177,0.819 c 0,0 1.728,2.94 4.43,0.897 2.577,-1.947 1.44,-4.423 1.44,-4.423 l -1.44,0.99 c 0,0 0.45,1.362 -0.906,1.99"
       id="path43"
       inkscape:connector-curvature="0"
       style="fill:#fdd51d" /><path
       d="m 120.071,91.164 c 0,0 -0.181,-0.906 -0.63,-1.266 -0.456,-0.36 -0.729,-0.636 -1.272,-0.456 0,0 -1.354,0.63 -1.354,3.802 0,2.437 1.354,3.255 1.354,3.255 0,0 -0.542,-2.718 0.186,-3.894 0.728,-1.171 1.716,-1.441 1.716,-1.441"
       id="path45"
       inkscape:connector-curvature="0"
       style="fill:#ffffff" /><path
       d="m 120.096,113.025 c 0.297,0 1.012,-0.49 1.012,-1.669 0,-1.182 -0.325,-1.108 -0.325,-1.108 -2.054,-0.2 -1.369,-3.396 -1.369,-3.396 -0.396,0.484 -0.982,1.37 -0.982,2.935 0,2.552 1.375,3.238 1.664,3.238"
       id="path47"
       inkscape:connector-curvature="0"
       style="fill:#ffffff" /><path
       d="m 132.569,93.244 c 0,-3.168 -1.356,-3.804 -1.356,-3.804 -0.535,-0.175 -0.811,0.095 -1.261,0.456 -0.456,0.36 -0.631,1.269 -0.631,1.269 0,0 0.991,0.27 1.711,1.443 0.727,1.174 0.181,3.889 0.181,3.889 0,0 1.356,-0.816 1.356,-3.253"
       id="path49"
       inkscape:connector-curvature="0"
       style="fill:#ffffff" /><path
       d="m 122.253,92.5 c 0,0 0.907,1.179 1.27,1.632 l 1.171,-1.449 1.175,1.449 c 0.363,-0.453 1.265,-1.632 1.265,-1.632 0.456,0.093 0.995,1.267 0.995,1.267 0.911,-0.903 0.911,-2.344 0.911,-2.344 -0.275,-0.636 -1.816,-0.275 -2.174,0.45 -0.726,-0.726 -1.718,-0.366 -2.172,0.09 -0.45,-0.456 -1.449,-0.816 -2.169,-0.09 -0.357,-0.726 -1.899,-1.086 -2.167,-0.45 0,0 0,1.441 0.898,2.344 0,0 0.548,-1.173 0.997,-1.267"
       id="path51"
       inkscape:connector-curvature="0"
       style="fill:#ffffff" /><path
       d="m 126.272,113.315 -0.791,-1.376 -0.682,1.474 -0.68,-1.474 -0.787,1.376 c -1.176,-0.102 -1.375,-1.959 -1.375,-1.959 0,0 -0.637,1.723 0.294,2.839 0.492,0.594 1.177,0 1.177,0 0,0 0.591,0.493 1.369,0.099 0.784,0.395 1.372,-0.099 1.372,-0.099 0,0 0.689,0.594 1.173,0 0.936,-1.116 0.299,-2.839 0.299,-2.839 0,0 -0.195,1.858 -1.369,1.959"
       id="path53"
       inkscape:connector-curvature="0"
       style="fill:#ffffff" /><path
       d="m 129.513,113.025 c 0.287,0 1.66,-0.687 1.66,-3.239 0,-1.564 -0.585,-2.45 -0.979,-2.935 0,0 0.687,3.196 -1.374,3.396 0,0 -0.326,-0.073 -0.326,1.108 0,1.18 0.721,1.67 1.019,1.67"
       id="path55"
       inkscape:connector-curvature="0"
       style="fill:#ffffff" /><polygon
       points="128.056,133.167 128.606,130.936 125.091,130.936 125.091,128.912 127.407,128.912 127.407,126.687 125.091,126.687 125.091,124.86 128.325,124.86 127.938,122.635 122.875,122.635 122.875,133.167 "
       id="polygon57"
       style="fill:#a8aaad" /><polygon
       points="107.143,127.396 113.012,133.412 113.039,133.412 113.039,122.511 110.811,122.511 110.811,128.282 104.954,122.387 104.93,122.387 104.93,133.161 107.143,133.161 "
       id="polygon59"
       style="fill:#a8aaad" /><path
       d="m 140.561,131.015 c -0.664,0 -1.267,-0.273 -1.683,-0.848 l -1.328,2.004 c 0.844,0.861 1.997,1.241 3.101,1.241 1.868,0 3.438,-1.157 3.438,-3.518 0,-3.863 -4.013,-2.777 -4.013,-4.452 0,-0.554 0.591,-0.827 0.985,-0.827 0.687,0 1.074,0.273 1.587,0.797 l 1.216,-1.818 c -0.794,-0.76 -1.841,-1.207 -2.865,-1.207 -1.626,0 -3.27,1.171 -3.27,3.25 0,3.779 4.007,2.797 4.007,4.446 0,0.673 -0.715,0.932 -1.175,0.932"
       id="path61"
       inkscape:connector-curvature="0"
       style="fill:#a8aaad" /><polygon
       points="92.906,122.514 92.906,128.285 87.046,122.39 87.014,122.39 87.014,133.161 89.238,133.161 89.238,127.396 95.099,133.412 95.125,133.412 95.125,122.514 "
       id="polygon63"
       style="fill:#a8aaad" /><path
       d="m 160.572,127.902 c 0,1.606 -1.147,3.112 -2.561,3.112 -1.406,0 -2.561,-1.506 -2.561,-3.112 0,-1.612 1.154,-3.121 2.561,-3.121 1.414,0 2.561,1.509 2.561,3.121 m -7.338,0 c 0,3.064 2.166,5.51 4.777,5.51 2.611,0 4.784,-2.445 4.784,-5.51 0,-3.073 -2.173,-5.516 -4.784,-5.516 -2.611,0 -4.777,2.443 -4.777,5.516"
       id="path65"
       inkscape:connector-curvature="0"
       style="fill:#a8aaad" /><polygon
       points="62.979,128.347 63.008,128.347 63.774,133.229 66.014,133.229 63.627,122.39 63.608,122.39 60.7,128.834 57.87,122.39 57.851,122.39 55.393,133.229 57.666,133.229 58.437,128.358 58.464,128.358 60.601,133.409 60.631,133.409 "
       id="polygon67"
       style="fill:#a8aaad" /><polygon
       points="171.991,122.635 171.423,125.026 173.73,125.026 173.73,133.161 175.947,133.161 175.947,125.026 178.104,125.026 178.104,122.635 "
       id="polygon69"
       style="fill:#a8aaad" /><rect
       x="74.958"
       y="122.511"
       width="2.2219999"
       height="10.65"
       id="rect71"
       style="fill:#a8aaad" /><path
       d="m 192.088,129.205 -2.369,0 1.188,-2.58 1.181,2.58 z m -5.965,3.956 2.155,0 0.9,-2.009 3.41,0 0.912,2.009 2.257,0 -4.829,-10.774 -0.022,0 -4.783,10.774 z"
       id="path73"
       inkscape:connector-curvature="0"
       style="fill:#a8aaad" /><path
       d="m 118.645,65.071 c -0.165,-0.104 -1.361,-0.838 -2.643,-1.396 -0.851,-0.372 -1.732,-0.658 -2.363,-0.633 -1.68,0.071 -2.737,1.891 -6.913,0.392 -3.469,-1.238 -3.648,-4.882 -3.412,-6.931 0.087,-0.737 -0.827,-1.674 -1.397,-2.521 -0.753,-1.117 -1.282,-2.955 -1.35,-3.185 -0.008,-0.028 -0.011,-0.042 -0.011,-0.042 0,0 -2.543,5.822 -1.889,9.455 0.339,1.849 1.414,4.305 3.938,5.459 -2.714,0.909 -6.512,3.309 -8.466,7.862 -2.835,6.621 -0.933,10.789 -0.933,10.789 0,0 1.941,-3.022 5.004,-4.229 -0.564,1.635 -1.645,5.732 -0.438,10.895 0,0 1.048,-1.12 2.293,-2.141 0.602,1.941 1.446,4.17 2.647,6.654 3.989,8.302 3.043,17.964 5.881,22.376 l 4.343,0 c -0.102,-0.193 -0.223,-0.441 -0.346,-0.712 -0.58,-1.237 -1.352,-3.202 -1.658,-5.476 -0.063,-0.479 -0.126,-0.937 -0.192,-1.376 -0.424,-2.881 -0.844,-4.921 -1.227,-5.917 -0.027,-0.073 -0.052,-0.155 -0.082,-0.214 0.003,0 1.649,0.272 2.727,1.291 0,0 0.003,-0.059 0.003,-0.172 0,-0.027 -0.003,-0.093 -0.003,-0.132 -0.01,-0.926 -0.136,-4.007 -1.413,-6.726 -1.202,-2.558 -1.268,-4.854 -1.21,-6.331 l 0,-0.025 c 0.008,0.017 0.585,0.895 1.369,2.33 1.023,1.863 2.392,4.663 3.319,7.744 0.977,3.25 0.47,8.534 2.136,12.429 0.268,0.63 0.578,1.227 0.974,1.765 2.131,2.915 5.857,2.963 5.857,2.963 0.536,0.03 1.026,0.022 1.517,0.014 l 0,-0.003 c 0.006,-0.003 0.763,-0.914 0.781,-1.812 0.011,-0.737 -0.723,-1.5 -0.723,-1.5 -0.03,0 -0.058,0 -0.087,-0.003 -0.132,-0.006 -0.27,-0.012 -0.412,-0.02 -0.078,-0.006 -0.155,-0.015 -0.239,-0.02 -0.124,-0.009 -0.253,-0.021 -0.383,-0.031 -0.104,-0.012 -0.204,-0.022 -0.308,-0.039 -0.115,-0.012 -0.23,-0.025 -0.346,-0.043 -0.138,-0.02 -0.277,-0.045 -0.415,-0.07 -0.088,-0.014 -0.173,-0.028 -0.256,-0.045 -0.464,-0.09 -0.926,-0.208 -1.377,-0.362 -0.041,-0.012 -0.08,-0.031 -0.121,-0.046 -0.182,-0.067 -0.363,-0.135 -0.539,-0.211 -0.058,-0.025 -0.116,-0.059 -0.173,-0.087 -0.152,-0.07 -0.305,-0.146 -0.449,-0.233 -0.067,-0.034 -0.131,-0.073 -0.194,-0.115 -0.132,-0.082 -0.262,-0.166 -0.388,-0.262 -0.063,-0.045 -0.124,-0.102 -0.187,-0.146 -0.115,-0.099 -0.228,-0.197 -0.335,-0.301 -0.061,-0.06 -0.121,-0.121 -0.176,-0.184 -0.097,-0.106 -0.19,-0.222 -0.276,-0.34 -0.055,-0.073 -0.107,-0.144 -0.159,-0.223 -0.078,-0.121 -0.146,-0.25 -0.217,-0.38 -0.042,-0.087 -0.089,-0.169 -0.129,-0.262 -0.058,-0.135 -0.104,-0.275 -0.149,-0.422 -0.035,-0.104 -0.069,-0.2 -0.098,-0.31 -0.034,-0.144 -0.055,-0.307 -0.081,-0.462 -0.018,-0.121 -0.043,-0.236 -0.055,-0.362 -0.011,-0.146 -0.006,-0.31 -0.008,-0.465 -0.003,-0.144 -0.016,-0.281 -0.006,-0.436 0.229,-4.483 0.058,-9.343 -3.764,-17.05 -1.009,-2.037 -1.894,-5.375 -2.732,-8.197 -0.345,-1.17 -0.498,-2.282 -0.509,-3.315 -0.003,-0.428 0.022,-0.835 0.063,-1.238 0.118,-1.199 0.415,-2.26 0.795,-3.126 0.908,-2.077 2.239,-3.56 3.91,-3.937 0.557,-0.126 1.153,-0.126 1.781,0.008 1.438,0.318 2.444,1.053 3.095,1.708 0.647,0.656 0.938,1.235 0.938,1.235 l 0,-0.003 c 0,-0.037 0.343,-5.603 -4.933,-6.717 0,0 -0.002,0 -0.005,0 0.008,-0.011 0.357,-0.543 1.106,-0.988 0.024,-0.017 0.055,-0.031 0.082,-0.045 0.129,-0.073 0.262,-0.146 0.415,-0.208 0.058,-0.028 0.129,-0.047 0.192,-0.07 0.13,-0.048 0.256,-0.098 0.401,-0.135 0.083,-0.022 0.181,-0.031 0.267,-0.054 0.141,-0.025 0.274,-0.059 0.426,-0.073 0.003,0 0.006,0 0.009,-0.002 0.181,-0.02 0.417,-0.031 0.681,-0.034 l 0.105,0 c 0.269,0 0.563,0.014 0.879,0.048 0.011,0 0.02,0 0.032,0 -0.166,-0.597 -0.812,-1.703 -1.791,-2.871"
       id="path75"
       inkscape:connector-curvature="0"
       style="fill:#ffffff" /><path
       d="m 116.166,75.026 c -0.009,-0.002 -0.02,-0.008 -0.031,-0.011 -0.104,0.022 -0.203,0.051 -0.291,0.079 -1.147,0.414 -2.049,2.206 -1.894,5.675 0.191,4.269 3.061,6.987 5.594,7.62 0.003,0 0.003,0.003 0.003,0.003 0.417,0.104 0.57,0.045 0.561,-0.107 -0.005,-0.234 -0.417,-0.698 -0.835,-1.114 -0.325,-0.33 -0.749,-0.785 -1.1,-1.368 -0.369,-0.622 -0.66,-1.384 -0.66,-2.291 0,-0.219 0.025,-0.436 0.072,-0.653 0.008,-0.034 0.022,-0.064 0.031,-0.101 0.044,-0.172 0.099,-0.343 0.167,-0.515 0.033,-0.082 0.075,-0.155 0.116,-0.233 0.058,-0.116 0.115,-0.231 0.187,-0.341 0.063,-0.101 0.139,-0.2 0.214,-0.298 0.058,-0.073 0.112,-0.144 0.173,-0.217 0.1,-0.113 0.207,-0.223 0.319,-0.324 0.046,-0.04 0.093,-0.082 0.141,-0.121 0.136,-0.112 0.274,-0.211 0.423,-0.304 0.035,-0.022 0.066,-0.04 0.101,-0.062 0.165,-0.093 0.338,-0.18 0.517,-0.25 0.02,-0.008 0.042,-0.014 0.066,-0.022 0.19,-0.07 0.388,-0.124 0.591,-0.158 0.006,0 0.006,-0.002 0.011,-0.002 -0.725,-1.961 -2.828,-4.566 -4.476,-4.885"
       id="path77"
       inkscape:connector-curvature="0"
       style="fill:#ffffff" /><path
       d="m 105.76,56.894 1.446,0.99 c 0,0 -0.453,1.362 0.907,1.99 1.348,0.636 2.346,-0.273 2.346,-0.273 l 1.179,0.819 c 0,0 -1.726,2.94 -4.432,0.897 -2.582,-1.947 -1.446,-4.423 -1.446,-4.423 m -3.842,-2.913 c 0.57,0.844 1.483,1.781 1.395,2.521 -0.233,2.048 -0.055,5.692 3.412,6.933 4.177,1.497 5.232,-0.326 6.913,-0.394 0.634,-0.025 1.515,0.262 2.362,0.633 1.283,0.557 2.479,1.292 2.645,1.396 0.013,0.006 0.032,0.02 0.032,0.02 0,0 -0.836,-2.654 -4.57,-5.513 -3.89,-2.994 -9.376,-4.826 -13.552,-8.827 0,0 0.006,0.017 0.014,0.042 0.064,0.232 0.594,2.075 1.349,3.189"
       id="path79"
       inkscape:connector-curvature="0"
       style="fill:#010101" /><path
       d="m 107.206,61.317 c 2.703,2.043 4.432,-0.9 4.432,-0.9 l -1.182,-0.816 c 0,0 -0.993,0.909 -2.343,0.273 -1.36,-0.63 -0.907,-1.987 -0.907,-1.987 l -1.446,-0.996 c 0,0 -1.136,2.479 1.446,4.426"
       id="path81"
       inkscape:connector-curvature="0"
       style="fill:#fdd51d" /><path
       d="m 130.126,100.929 c 0.175,-3.064 -0.45,-4.241 -2.166,-4.328 -1.717,-0.087 -2.53,2.079 -2.622,2.975 -0.09,0.905 -0.45,1.719 -0.45,1.719 l 0,-0.033 c 0,0 -0.36,-0.813 -0.453,-1.717 -0.089,-0.906 -0.902,-3.067 -2.619,-2.975 -1.715,0.09 -2.342,1.264 -2.164,4.331 0.181,3.069 1.625,6.683 5.235,6.86 l 0,0.036 c 3.613,-0.186 5.059,-3.793 5.239,-6.868"
       id="path83"
       inkscape:connector-curvature="0"
       style="fill:#da5e5b" /><path
       d="m 159.953,165.31 c -0.151,0.169 -0.438,0.442 -0.726,0.442 -0.625,0 -2.432,-3.205 -2.432,-9.322 0,-4.528 1.064,-7.795 2.043,-8.912 0.226,-0.265 0.372,-0.313 0.389,-0.313 0.028,0 0.169,0.054 0.399,0.318 0.979,1.108 2.032,4.373 2.032,8.906 0.001,4.154 -0.883,7.944 -1.705,8.881 m -0.731,-19.714 c -0.552,0 -1.097,0.287 -1.593,0.855 -1.479,1.686 -2.447,5.603 -2.447,9.979 0,5.689 1.626,10.938 4.04,10.938 0.698,0 1.368,-0.344 1.931,-0.991 1.345,-1.527 2.121,-6.053 2.121,-9.946 0,-4.376 -0.962,-8.293 -2.442,-9.979 -0.501,-0.569 -1.047,-0.856 -1.61,-0.856"
       id="path85"
       inkscape:connector-curvature="0"
       style="fill:#005183" /><path
       d="m 117.595,151.553 c 0.043,-1.702 0.113,-4.192 0.156,-5.695 0.505,0.064 0.744,0.271 0.853,0.363 0.522,0.447 0.726,1.243 0.707,1.674 -0.09,1.876 -0.666,3.095 -1.716,3.658 m -1.282,-7.224 -0.135,0.028 -0.003,0.141 -0.242,8.858 -0.005,0.186 0.187,0 c 4.097,-0.062 4.731,-3.92 4.803,-5.58 0.043,-0.866 -0.335,-2.166 -1.265,-2.966 -0.839,-0.72 -1.96,-0.942 -3.34,-0.667"
       id="path87"
       inkscape:connector-curvature="0"
       style="fill:#005183" /><path
       d="m 234.96,167.583 c -0.646,2.572 -1.997,5.755 -6.494,6.857 -5.83,1.433 -9.854,-3.235 -9.854,-3.235 l 3.563,-7.206 1.391,4.563 c 0,0 0.984,1.159 2.622,1.337 1.413,0.154 3.09,-1.193 3.585,-2.085 1.289,-2.35 0.281,-4.829 -0.568,-6.531 -1.367,-2.749 -7.266,-7.575 -9.606,-11.757 -1.289,-2.293 -1.733,-5.118 -1.379,-6.967 0.428,-2.206 1.728,-6.156 6.225,-7.266 5.836,-1.429 9.854,3.239 9.854,3.239 l -3.563,7.206 -1.384,-4.569 c 0,0 -0.979,-1.301 -2.628,-1.337 -2.01,-0.048 -2.82,1.153 -3.135,2.158 -0.523,1.621 -0.203,3.866 0.383,5.025 1.738,3.444 6.393,5.858 9.381,10.789 1.602,2.655 2.643,5.637 1.607,9.779 m -19.702,-3.807 -4.43,3.005 -2.695,0.042 0.079,-8.126 3.106,1.092 1.379,0.486 0.619,-1.322 2.38,-5.087 1.075,-2.294 -2.532,0 -6.027,0 c -0.022,-1.666 -0.057,-4.412 -0.079,-6.104 l 3.394,0.034 2.2,1.911 2.234,1.949 0.417,-2.94 0.18,-1.303 c 0.186,1.771 0.754,3.642 1.632,5.194 1.351,2.4 3.703,4.916 5.78,7.137 1.598,1.71 3.258,3.475 3.793,4.544 0.788,1.596 1.479,3.436 0.597,5.04 -0.271,0.486 -1.401,1.328 -1.998,1.263 -0.636,-0.07 -1.114,-0.394 -1.373,-0.607 l -1.272,-4.165 -1.188,-3.886 -1.801,3.642 -2.954,5.99 0,-4.164 0,-3.036 -2.516,1.705 z m 0.9,8.946 -16.326,0 1.356,-4.451 -0.118,-24.489 -1.424,-3.408 -1.019,1.618 -8.74,32.717 -8.447,-32.717 -1.902,-2.279 7.423,0 3.102,18.806 3.162,-18.806 6.844,0 0,0.006 15.617,0 -0.906,6.478 -2.646,-2.296 -5.425,-0.054 -0.214,-0.045 0.006,0.22 0.118,8.993 0,0.171 0.18,0 7.44,0 -2.381,5.088 -5.233,-1.841 -0.124,12.029 4.834,-0.075 4.823,-3.278 0,7.613 z m -37.824,-4.336 4.834,-3.278 0,7.614 -13.912,0 1.362,-4.221 -0.102,-24.008 0,-0.048 -0.028,-2.212 -1.986,-2.516 8.796,0 -1.378,2.569 0,26.174 2.414,-0.074 z m -13.771,1.814 c -1.491,1.686 -3.377,2.575 -5.465,2.575 -2.082,0 -3.973,-0.89 -5.458,-2.575 -2.308,-2.622 -3.523,-6.922 -3.523,-12.445 0,-6.522 1.756,-12.575 4.592,-15.798 1.334,-1.514 2.848,-2.315 4.39,-2.315 4.953,0 8.993,8.129 8.993,18.113 -0.001,5.523 -1.228,9.823 -3.529,12.445 m -20.941,4.511 -4.733,-13.45 -4.738,13.45 -6.749,-32.832 -1.84,-2.052 7.357,0 2.645,18.8 3.326,-13.07 3.917,12.626 1.953,-18.355 7.187,0 -1.778,2.052 -6.547,32.831 z m -18.455,-24.078 c -0.588,3.844 -3.692,5.912 -3.692,5.912 l 7.762,16.193 -8.188,0 1.061,-2.743 -5.548,-11.208 -0.844,0.152 0.234,11.056 1.325,2.743 -8.048,0 1.361,-2.996 -0.179,-25.73 -2.012,-4.252 9.028,0 c 2.324,0 4.408,0.625 5.489,1.612 1.352,1.23 3.063,3.9 2.251,9.261 m -5.625,21.52 -0.335,0.866 -0.478,-0.981 -1.172,-2.429 -0.115,-5.408 2.907,5.875 -0.807,2.077 z m -11.056,-1.674 0,-5.371 0,-3.036 -2.519,1.705 -4.429,3.005 -2.694,0.042 0.083,-8.126 3.106,1.092 1.377,0.486 0.62,-1.322 2.382,-5.087 1.072,-2.294 -2.532,0 -6.026,0 c -0.023,-1.666 -0.059,-4.412 -0.081,-6.104 l 3.395,0.034 2.195,1.911 2.243,1.949 0.408,-2.94 0.612,-4.378 1.103,2.335 0.173,25.016 -0.488,1.083 z m -1.611,2.243 -16.329,0 1.363,-4.451 -0.121,-24.489 -1.698,-4.063 16.31,0 -0.905,6.478 -2.642,-2.296 -5.425,-0.054 -0.214,-0.045 0,0.22 0.121,8.993 0.005,0.171 0.173,0 7.44,0 -2.383,5.088 -5.227,-1.841 -0.129,12.029 4.829,-0.075 4.833,-3.278 0,7.613 z M 87.349,155.425 c 1.134,-1.171 2.354,-2.927 2.857,-5.161 l 0.043,8.935 c -0.593,-1.318 -1.596,-2.688 -2.9,-3.774 m -0.534,14.753 c -3.357,3.501 -9.431,2.578 -12.57,2.578 l -0.751,-29.236 -1.936,-3.895 c 1.552,-0.04 5.832,-0.208 8.238,-0.104 2.656,0.112 8.149,1.204 8.966,7.611 0.687,5.279 -3.83,8.248 -3.875,8.273 l -0.274,0.163 0.28,0.135 c 2.46,1.252 4.036,3.866 4.33,5.529 0.568,3.217 -0.345,6.801 -2.408,8.946 m -21.236,2.56 -1.902,-18.945 -5.587,20.915 -5.331,-20.631 -1.875,18.661 -7.416,0 0.014,-0.017 -7.833,0 1.361,-4.221 -0.124,-26.242 -1.355,-2.541 8.163,0 -1.376,2.541 0,26.202 1.318,4.075 1.726,-2.074 4.325,-28.279 -1.944,-2.465 7.41,0 3.109,17.862 3.159,-17.862 6.843,0 -1.49,2.468 4.322,28.276 1.902,2.276 -7.419,0 z m -21.652,-30.071 1.185,-2.184 0.484,-0.887 0.879,1.117 1.512,1.916 -3.959,25.894 -0.102,-0.315 0,-25.541 z m 25.718,-2.116 0.311,-0.523 c 0.095,0.186 0.157,0.317 0.157,0.317 l 1.778,3.58 0.649,25.308 -4.086,-26.715 1.191,-1.967 z m -36.298,2.118 -3.838,-3.188 -1.911,-0.051 -0.265,30.185 1.647,5.093 -8.511,0 1.623,-5.051 -0.128,-30.227 -2.282,0.051 -3.838,3.188 -0.993,-7.453 19.488,0 -0.992,7.453 z m 195.744,7.814 c -1.599,-1.5 -2.972,-2.791 -3.681,-4.198 -0.389,-0.763 -0.687,-2.577 -0.293,-3.802 0.254,-0.768 0.687,-1.061 1.57,-1.041 0.558,0.015 1.002,0.344 1.227,0.555 l 1.283,4.212 1.182,3.892 1.802,-3.649 3.557,-7.206 0.473,-0.957 -0.692,-0.808 c -0.191,-0.223 -4.75,-5.396 -11.458,-3.745 -3.214,0.782 -5.561,2.966 -6.781,6.228 l 0,-0.025 0.259,-1.835 -1.852,0 -22.467,0 -1.355,0 -0.231,1.342 -1.553,9.272 -1.531,-9.264 -0.225,-1.351 -1.362,0 -18.459,0 -3.326,0 2.065,2.611 1.644,2.082 0.022,1.663 c 0,0.014 0.006,2.468 0.022,5.791 -1.559,-7.234 -5.324,-12.215 -9.832,-12.215 -2.015,0 -3.95,0.987 -5.6,2.861 -0.799,0.903 -1.52,2.012 -2.144,3.275 l 0.31,-1.559 1.502,-1.73 2.319,-2.671 -3.54,0 -7.187,0 -1.446,0 -0.158,1.446 -1.119,10.586 -1.61,-5.169 -1.693,-5.45 -1.401,5.534 -1.312,5.142 -1.503,-10.695 -0.196,-1.394 -1.401,0 -7.357,0 -3.613,0 1.205,1.34 c -1.438,-0.884 -3.489,-1.401 -5.728,-1.401 l -9.026,0 -0.155,0 0.006,-0.048 -1.85,0 -16.317,0 -2.415,0 0.935,2.234 1.567,3.773 0.017,1.854 c -1.473,-7.092 -8.209,-7.97 -10.324,-8.054 -2.072,-0.09 -5.402,0.014 -7.391,0.076 l -0.959,0.03 -2.513,0.073 c 0,0 0,0.009 0.005,0.012 l -0.743,0 -6.84,0 -1.355,0 -0.233,1.331 -1.562,8.815 -1.529,-8.813 -0.233,-1.334 -1.358,0 -7.414,0 -1.339,0 -1.987,0 -0.72,0 -8.114,0 0.357,-2.671 0.242,-1.826 -1.84,0 -19.487,0 -1.839,0 0.242,1.826 0.995,7.451 0.383,2.891 2.243,-1.866 3.402,-2.825 0.082,-0.005 0.124,28.333 -1.545,4.812 -0.68,2.102 2.213,0 8.508,0 2.213,0 -0.683,-2.107 -1.564,-4.849 0.25,-28.054 3.126,2.594 2.238,1.866 0.387,-2.891 0.086,-0.666 0.242,0.447 0.124,25.586 -1.282,3.982 -0.679,2.102 2.211,0 4.386,0 -0.012,0.014 3.444,0 7.413,0 1.46,0 0.148,-1.449 0.971,-9.674 3.068,11.889 0.338,1.289 2.435,0 0.349,-1.274 3.305,-12.396 1.02,10.166 0.15,1.449 1.455,0 7.094,0 0,0.018 1.57,0 c 0.461,0 1.017,0.027 1.611,0.051 3.5,0.138 8.792,0.352 12.12,-3.118 1.028,-1.072 1.801,-2.442 2.317,-3.945 l 0.005,0.684 -1.286,4.216 -0.636,2.082 2.178,0 16.185,0 -0.007,0.014 2.499,0 20.008,0 2.561,0 -1.108,-2.307 -7.218,-15.065 c 1.146,-1.095 2.836,-3.144 3.288,-6.098 0.169,-1.087 0.233,-2.086 0.228,-2.991 l 5.582,27.15 0.281,1.365 2.408,0 0.405,-1.156 3.225,-9.129 3.214,9.129 0.405,1.156 2.42,0 0.27,-1.379 3.32,-16.642 c 0.096,5.617 1.436,10.071 3.912,12.891 1.801,2.037 4.103,3.118 6.668,3.118 2.562,0 4.863,-1.081 6.675,-3.121 1.497,-1.708 2.566,-4.021 3.214,-6.813 0.006,1.854 0.011,3.253 0.017,3.79 l -1.283,3.985 -0.681,2.102 2.212,0 13.917,0 1.604,0 0,-1.609 0,-7.617 0,-3.036 -2.516,1.705 -4.439,3.014 -0.282,0.009 0,-24.107 0.935,-1.744 1.497,1.798 8.363,32.368 0.332,1.289 2.442,0 0.343,-1.274 8.02,-30.044 0.112,22.952 -1.282,4.216 -0.637,2.082 2.179,0 16.326,0 1.609,0 0,-1.609 0,-0.073 c 1.227,1.219 5.363,4.755 11.075,3.354 6.027,-1.48 7.266,-6.407 7.676,-8.031 1.261,-5.045 -0.298,-8.531 -1.795,-10.999 -1.668,-2.758 -3.778,-4.74 -5.64,-6.493"
       id="path89"
       inkscape:connector-curvature="0"
       style="fill:#005183" /><path
       d="m 81.735,166.28 c -0.236,0.197 -0.588,0.327 -0.957,0.405 l 0,-7.088 c 0.325,0.102 0.646,0.239 0.905,0.439 0.692,0.537 1.493,1.651 1.441,2.996 -0.081,1.893 -0.781,2.723 -1.389,3.248 m 0.93,-7.521 c -1.397,-1.08 -3.495,-0.999 -3.495,-0.999 l 0,10.62 c 0,0 2.291,0.256 3.616,-0.884 1.13,-0.965 1.858,-2.299 1.943,-4.398 0.077,-1.964 -1.05,-3.554 -2.064,-4.339"
       id="path91"
       inkscape:connector-curvature="0"
       style="fill:#005183" /><path
       d="m 80.895,146.068 c 0.885,0.203 1.493,0.771 1.564,2.659 0.043,1.061 -0.182,1.829 -0.668,2.291 -0.253,0.239 -0.571,0.394 -0.896,0.498 l 0,-5.448 z m 3.181,2.595 c -0.167,-4.122 -2.771,-4.249 -4.221,-4.334 -0.136,-0.005 -0.26,-0.014 -0.378,-0.022 l -0.193,-0.011 0,0.183 0,8.811 c 0,-0.001 4.996,0.559 4.792,-4.627"
       id="path93"
       inkscape:connector-curvature="0"
       style="fill:#005183" /><path
       d="m 161.152,166.376 c -0.563,0.645 -1.232,0.991 -1.931,0.991 -2.414,0 -4.04,-5.248 -4.04,-10.938 0,-4.376 0.962,-8.293 2.447,-9.979 0.496,-0.568 1.041,-0.855 1.593,-0.855 0.568,0 1.104,0.287 1.615,0.855 1.48,1.686 2.442,5.603 2.442,9.979 0.001,3.894 -0.781,8.42 -2.126,9.947 m -2.054,-26.731 c -1.542,0 -3.05,0.799 -4.384,2.313 -2.836,3.223 -4.598,9.272 -4.598,15.795 0,5.526 1.21,9.826 3.528,12.448 1.48,1.683 3.371,2.572 5.453,2.572 2.088,0 3.974,-0.89 5.465,-2.572 2.302,-2.622 3.523,-6.922 3.523,-12.448 0.001,-9.982 -4.034,-18.108 -8.987,-18.108"
       id="path95"
       inkscape:connector-curvature="0"
       style="fill:#ffffff" /><polygon
       points="135.563,158.63 132.918,139.827 125.561,139.827 127.398,141.876 134.15,174.711 138.889,161.264 143.622,174.711 150.167,141.876 151.945,139.827 144.759,139.827 142.812,158.183 138.889,145.56 "
       id="polygon97"
       style="fill:#ffffff" /><polygon
       points="55.155,139.718 47.743,139.718 49.688,142.183 45.362,170.462 43.638,172.539 42.318,168.461 42.318,142.256 43.695,139.718 35.532,139.718 36.886,142.256 37.01,168.501 35.65,172.719 43.481,172.719 43.467,172.738 50.883,172.738 52.76,154.077 58.09,174.711 63.678,153.79 65.579,172.738 72.999,172.738 71.097,170.462 66.775,142.188 68.265,139.718 61.421,139.718 58.263,157.577 "
       id="polygon99"
       style="fill:#ffffff" /><path
       d="m 82.787,167.496 c -1.328,1.143 -3.619,0.887 -3.619,0.887 l 0,-10.625 c 0,0 2.098,-0.076 3.498,1.004 1.012,0.782 2.142,2.372 2.06,4.339 -0.083,2.096 -0.809,3.43 -1.939,4.395 m -3.503,-23.017 0,-0.183 0.193,0.011 c 0.118,0.009 0.245,0.018 0.377,0.025 1.452,0.082 4.055,0.209 4.222,4.328 0.204,5.188 -4.792,4.632 -4.792,4.632 l 0,-8.813 z m 5.61,11.224 -0.28,-0.135 0.274,-0.16 c 0.046,-0.028 4.562,-2.997 3.876,-8.276 -0.819,-6.407 -6.312,-7.499 -8.968,-7.611 -2.409,-0.104 -6.684,0.064 -8.238,0.104 l 1.936,3.897 0.753,29.233 c 3.137,0 9.208,0.923 12.565,-2.575 2.067,-2.147 2.98,-5.731 2.411,-8.948 -0.293,-1.663 -1.869,-4.274 -4.329,-5.529"
       id="path101"
       inkscape:connector-curvature="0"
       style="fill:#ffffff" /><polygon
       points="206.799,153.185 206.625,153.185 206.619,153.011 206.501,144.021 206.495,143.798 206.715,143.846 212.134,143.896 214.779,146.192 215.68,139.715 200.063,139.715 200.068,139.712 193.219,139.712 190.063,158.518 186.961,139.712 179.538,139.712 181.435,141.988 189.888,174.708 198.628,141.988 199.646,140.376 201.075,143.778 201.193,168.268 199.832,172.719 216.158,172.719 216.158,165.11 211.329,168.383 206.501,168.461 206.625,156.432 211.858,158.272 214.239,153.185 "
       id="polygon103"
       style="fill:#ffffff" /><polygon
       points="97.515,153.185 97.339,153.185 97.336,153.011 97.215,144.021 97.215,143.798 97.425,143.846 102.85,143.896 105.497,146.192 106.398,139.715 90.089,139.715 91.786,143.778 91.91,168.268 90.548,172.719 106.874,172.719 106.874,165.11 102.044,168.383 97.215,168.461 97.342,156.432 102.571,158.272 104.952,153.185 "
       id="polygon105"
       style="fill:#ffffff" /><polygon
       points="170.511,144.445 170.511,144.49 170.618,168.501 169.256,172.722 183.168,172.722 183.168,165.11 178.334,168.386 175.92,168.461 175.92,142.289 177.298,139.718 168.502,139.718 170.488,142.23 "
       id="polygon107"
       style="fill:#ffffff" /><path
       d="m 116.115,153.542 -0.187,0.003 0.005,-0.186 0.242,-8.861 0.003,-0.141 0.136,-0.028 c 1.376,-0.275 2.5,-0.053 3.339,0.667 0.931,0.8 1.306,2.1 1.265,2.969 -0.075,1.657 -0.706,5.515 -4.803,5.577 m 6.801,-12.173 c -1.081,-0.984 -3.165,-1.606 -5.49,-1.606 l -9.027,0 2.014,4.249 0.178,25.73 -1.359,2.993 8.048,0 -1.328,-2.74 -0.231,-11.053 0.844,-0.158 5.543,11.211 -1.061,2.74 8.196,0 -7.768,-16.188 c 0,0 3.103,-2.074 3.69,-5.915 0.816,-5.357 -0.895,-8.033 -2.249,-9.263"
       id="path109"
       inkscape:connector-curvature="0"
       style="fill:#ffffff" /><path
       d="m 223.97,147.014 c -0.586,-1.159 -0.906,-3.398 -0.383,-5.022 0.32,-1.005 1.125,-2.203 3.135,-2.158 1.643,0.036 2.622,1.337 2.622,1.337 l 1.39,4.566 3.563,-7.206 c 0,0 -4.023,-4.668 -9.859,-3.236 -4.491,1.109 -5.791,5.063 -6.219,7.269 -0.354,1.843 0.084,4.674 1.379,6.964 2.347,4.182 8.239,9.011 9.606,11.76 0.85,1.696 1.862,4.182 0.568,6.525 -0.495,0.895 -2.167,2.245 -3.585,2.088 -1.638,-0.181 -2.622,-1.334 -2.622,-1.334 l -1.391,-4.564 -3.557,7.204 c 0,0 4.019,4.665 9.849,3.233 4.497,-1.104 5.848,-4.28 6.494,-6.855 1.036,-4.142 -0.005,-7.124 -1.609,-9.777 -2.989,-4.933 -7.643,-7.347 -9.381,-10.794"
       id="path111"
       inkscape:connector-curvature="0"
       style="fill:#ffffff" /><polygon
       points="20.471,174.708 28.981,174.708 27.334,169.612 27.599,139.431 29.509,139.484 33.347,142.669 34.339,135.218 14.854,135.218 15.846,142.669 19.683,139.484 21.965,139.431 22.093,169.66 "
       id="polygon113"
       style="fill:#ffffff" /><path
       d="m 60.636,97.099 -0.061,0.104 2.637,4.854 c -0.584,0.349 -1.339,0.588 -1.964,0.74 -0.657,0.16 -1.167,0.225 -1.167,0.225 l 8.826,14.852 3.159,0 -1.548,-7.172 3.668,0 -4.766,-13.584 2.752,-0.363 -5.323,-16.57 -7.759,14.28 1.414,2.598 0.132,0.036 z"
       id="path115"
       inkscape:connector-curvature="0"
       style="fill:#0ea94e" /><polygon
       points="52.127,99.646 45.137,77.874 33.485,99.311 36.977,100.093 26.581,117.913 30.615,117.919 24.658,128.532 38.567,128.532 42.207,117.927 54.299,117.941 48.511,100.129 "
       id="polygon117"
       style="fill:#0ea94e" /><path
       d="m 82.452,112.904 -0.003,0 2.628,4.972 4.452,0 -2.109,-9.778 3.011,0 -3.916,-11.146 2.258,-0.301 -4.367,-13.6 -6.118,11.255 2.321,4.28 c -0.443,0.271 -1.02,0.453 -1.495,0.568 -0.501,0.124 -0.89,0.169 -0.89,0.169 l 7.526,12.663 c -0.795,0.475 -2.677,0.813 -3.178,0.895 -0.062,0.015 -0.106,0.02 -0.12,0.023"
       id="path119"
       inkscape:connector-curvature="0"
       style="fill:#0ea94e" /><polygon
       points="170.59,114.452 168.778,117.873 181.722,117.873 182.437,110.712 185.897,110.481 183.781,96.758 186.596,96.39 183.27,80.185 174.49,96.333 177.275,96.699 174.727,101.01 169.476,109.846 172.757,110.354 "
       id="polygon121"
       style="fill:#0ea94e" /><polygon
       points="154.394,107.395 157.089,107.816 155.305,111.177 151.76,117.873 163.088,117.873 164.129,107.496 166.972,107.308 165.57,96.39 167.872,96.086 165.705,83.063 158.507,96.308 160.798,96.604 158.704,100.146 "
       id="polygon123"
       style="fill:#0ea94e" /><path
       d="m 209.928,132.781 4.829,-0.07 c 0,0 1.784,-2.977 4.227,-3.931 l -5.33,-11.253 3.574,-0.712 c -1.723,-3.174 -5.954,-12.78 -7.801,-16.715 l 3.411,-0.455 -7.856,-21.771 -11.531,21.22 3.658,0.476 -10.001,18.304 17.092,0.065 5.728,14.842 z"
       id="path125"
       inkscape:connector-curvature="0"
       style="fill:#0ea94e" /></g></svg>