<?xml version="1.0" encoding="UTF-8" standalone="no"?>
<!-- Created with Inkscape (http://www.inkscape.org/) -->

<svg
   xmlns:dc="http://purl.org/dc/elements/1.1/"
   xmlns:cc="http://creativecommons.org/ns#"
   xmlns:rdf="http://www.w3.org/1999/02/22-rdf-syntax-ns#"
   xmlns:svg="http://www.w3.org/2000/svg"
   xmlns="http://www.w3.org/2000/svg"
   xmlns:sodipodi="http://sodipodi.sourceforge.net/DTD/sodipodi-0.dtd"
   xmlns:inkscape="http://www.inkscape.org/namespaces/inkscape"
   id="svg2443"
   sodipodi:version="0.32"
   inkscape:version="0.91 r13725"
   width="40"
   height="32.505749"
   xml:space="preserve"
   sodipodi:docname="New_York_Knicks_resized.svg"
   version="1.0"
   inkscape:output_extension="org.inkscape.output.svg.inkscape"><metadata
     id="metadata2448"><rdf:RDF><cc:Work
         rdf:about=""><dc:format>image/svg+xml</dc:format><dc:type
           rdf:resource="http://purl.org/dc/dcmitype/StillImage" /><dc:title></dc:title></cc:Work></rdf:RDF></metadata><defs
     id="defs2446"><inkscape:perspective
       sodipodi:type="inkscape:persp3d"
       inkscape:vp_x="0 : 526.18109 : 1"
       inkscape:vp_y="0 : 1000 : 0"
       inkscape:vp_z="744.09448 : 526.18109 : 1"
       inkscape:persp3d-origin="372.04724 : 350.78739 : 1"
       id="perspective2450" /><clipPath
       clipPathUnits="userSpaceOnUse"
       id="clipPath2458"><path
         d="M 0,612 792,612 792,0 0,0 0,612 Z"
         id="path2460"
         inkscape:connector-curvature="0" /></clipPath><clipPath
       clipPathUnits="userSpaceOnUse"
       id="clipPath2804"><path
         d="m 31.197,480.67 489.317,0 0,-374.846 -489.317,0 0,374.846 z"
         id="path2806"
         inkscape:connector-curvature="0" /></clipPath><clipPath
       clipPathUnits="userSpaceOnUse"
       id="clipPath2812"><path
         d="m 31.211,480.7 489.343,0 0,-374.847 -489.343,0 0,374.847 z"
         id="path2814"
         inkscape:connector-curvature="0" /></clipPath><clipPath
       clipPathUnits="userSpaceOnUse"
       id="clipPath2830"><path
         d="m 219.089,145.268 1.022,7.156 -9.769,1.591 0.568,2.384 -11.359,2.386 0.682,2.387 -26.694,8.975 -1.59,-3.978 -24.758,10.264 -13.587,13.195 1.996,2.099 -14.652,16.243 3.407,2.726 -5.907,8.177 1.591,1.136 -9.201,17.495 2.158,1.135 -5.736,18.922 1.393,0.607 -3.609,34.655 3.635,34.871 -1.93,0.455 6.564,17.852 -2.525,1.001 9.251,17.722 -1.931,1.135 5.792,9.088 -1.476,1.136 7.383,8.747 -1.249,1.476 7.27,6.928 -1.364,1.705 13.063,13.517 24.081,11.814 1.818,-4.771 27.944,8.519 -0.342,2.045 28.738,7.951 24.691,3.045 -0.042,11.835 94.052,-21.127 7.361,-2.324 0.108,-1.022 25.018,-9.604 1.931,4.657 19.765,-8.519 20.217,-17.834 -1.135,-1.476 2.933,-4.492 -0.592,-1.022 2.657,-3.233 6.702,-7.951 -2.044,-1.476 5.338,-8.293 -1.25,-0.908 8.52,-16.698 -1.932,-0.908 5.402,-18.882 -1.237,-0.376 3.219,-34.583 -3.165,-34.952 1.29,-0.645 -6.076,-18.359 1.451,-0.842 -8.154,-17.445 1.364,-1.025 -4.77,-7.723 1.703,-1.589 -7.351,-9.218 0.484,-0.967 -4.678,-4.893 1.773,-2.851 -9.678,-10.863 -30.87,-16.192 -1.817,4.658 -25.142,-9.219 -0.644,-1.458 -10.707,-2.722 0.343,-2.387 -10.325,-2.114 0.131,-6.749 -115.521,0 z"
         id="path2832"
         inkscape:connector-curvature="0" /></clipPath><clipPath
       clipPathUnits="userSpaceOnUse"
       id="clipPath16416"><path
         d="m 153.435,465.365 17.946,-38.848 -33.736,-20.447 -17.039,-17.265 -15.675,-22.151 -9.996,-22.149 -7.384,-26.012 -3.066,-25.786 2.839,-28.056 10.151,-34.849 17.044,-28.114 16.31,-17.002 41.921,-25.735 -22.951,-48.326 -107.115,-0.116 0,354.969 110.751,-0.113 z"
         id="path16418"
         inkscape:connector-curvature="0" /></clipPath><clipPath
       clipPathUnits="userSpaceOnUse"
       id="clipPath16934"><path
         d="m 436.272,465.592 -33.055,-50.321 26.808,-21.694 17.037,16.015 17.153,-22.604 11.246,-19.083 8.405,-20.788 5.566,-21.468 3.067,-21.81 -0.455,-22.492 -2.612,-22.035 -5.793,-21.696 -8.633,-20.673 -11.019,-18.969 -16.583,-22.376 -17.154,16.129 -25.329,-20.675 28.965,-43.162 80.308,0 0,337.362 -77.922,0.34 z"
         id="path16936"
         inkscape:connector-curvature="0" /></clipPath><clipPath
       clipPathUnits="userSpaceOnUse"
       id="clipPath20710"><path
         d="M 0,612 792,612 792,0 0,0 0,612 Z"
         id="path20712"
         inkscape:connector-curvature="0" /></clipPath><clipPath
       clipPathUnits="userSpaceOnUse"
       id="clipPath20902"><path
         d="M 0,612 792,612 792,0 0,0 0,612 Z"
         id="path20904"
         inkscape:connector-curvature="0" /></clipPath></defs><sodipodi:namedview
     inkscape:window-height="984"
     inkscape:window-width="1400"
     inkscape:pageshadow="2"
     inkscape:pageopacity="0.0"
     guidetolerance="10.0"
     gridtolerance="10.0"
     objecttolerance="10.0"
     borderopacity="1.0"
     bordercolor="#666666"
     pagecolor="#ffffff"
     id="base"
     showgrid="false"
     inkscape:zoom="0.89746094"
     inkscape:cx="-212.10333"
     inkscape:cy="22.315914"
     inkscape:window-x="-4"
     inkscape:window-y="-4"
     inkscape:current-layer="g2452"
     fit-margin-top="0"
     fit-margin-left="0"
     fit-margin-right="0"
     fit-margin-bottom="0"
     inkscape:window-maximized="0" /><g
     id="g2452"
     inkscape:groupmode="layer"
     inkscape:label="0708_ssubseatinga"
     transform="matrix(1.25,0,0,-1.25,-515.94484,1084.0746)"><path
       d="m 412.75587,861.95783 32,0 -16.05965,-20.70279 -15.94035,20.70279 z"
       style="fill:#287ac8;fill-opacity:1;fill-rule:nonzero;stroke:none"
       id="path20296"
       inkscape:connector-curvature="0" /><path
       d="m 428.69622,842.0363 15.07566,19.43577 -30.05073,10e-4 14.97507,-19.43694 z"
       style="fill:#cad0d3;fill-opacity:1;fill-rule:nonzero;stroke:none"
       id="path20298"
       inkscape:connector-curvature="0" /><path
       d="m 428.69622,842.0363 15.07566,19.43577 -30.05073,10e-4 14.97507,-19.43694 z"
       style="fill:none;stroke:#cad0d3;stroke-width:0.00769023;stroke-linecap:butt;stroke-linejoin:miter;stroke-miterlimit:4;stroke-dasharray:none;stroke-opacity:1"
       id="path20300"
       inkscape:connector-curvature="0" /><path
       d="m 435.87655,853.36584 -0.0538,0.23937 -0.13762,-0.17972 c 0,0 -4.13245,1.18437 -7.27389,1.2717 -3.23774,0.0889 -6.68561,-1.2756 -6.68561,-1.2756 l -0.10019,0.21325 -0.0495,-0.2343 c -1.79606,-0.76762 -2.31886,-1.02532 -2.31886,-1.02532 l -0.35671,0.3115 c 0,0 -0.0889,-0.36296 -0.13723,-0.57777 -0.53293,-0.30096 -0.85456,-0.50252 -1.23194,-0.71811 l -3.26191,3.26659 4.17768,9.17676 2.06388,0.82805 0.20819,-0.50174 0.33098,0.90173 1.35864,-0.62143 0.28148,-0.6031 1.50133,0.38323 0.22065,-1.06781 0.19922,1.1259 1.63895,0.23469 0.16334,-0.73839 0.0616,0.76763 1.74226,0.0838 0.20077,-1.63972 0.0168,0.77503 0.87093,0.86743 c 0,0 1.40309,-0.10877 1.77501,-0.14581 0.37192,-0.037 1.77071,-0.20467 1.77071,-0.20467 l 0.18207,-0.94189 0.1844,0.90017 1.55435,-0.36334 0.21325,0.5263 0.78243,0.59726 3.25411,-1.15904 1.19998,-2.62917 -0.39999,-0.76763 1.06118,-0.71343 2.2861,-5.04431 -3.29972,-3.39953 c -1.27249,0.81519 -2.72079,1.58983 -3.99328,2.08143"
       style="fill:#287ac8;fill-opacity:1;fill-rule:nonzero;stroke:none"
       id="path20302"
       inkscape:connector-curvature="0" /><path
       d="m 435.87655,853.36584 -0.0538,0.23937 -0.13762,-0.17972 c 0,0 -4.13245,1.18437 -7.27389,1.2717 -3.23774,0.0889 -6.68561,-1.2756 -6.68561,-1.2756 l -0.10019,0.21325 -0.0495,-0.2343 c -1.79606,-0.76762 -2.31886,-1.02532 -2.31886,-1.02532 l -0.35671,0.3115 c 0,0 -0.0889,-0.36296 -0.13723,-0.57777 -0.53293,-0.30096 -0.85456,-0.50252 -1.23194,-0.71811 l -3.26191,3.26659 4.17768,9.17676 2.06389,0.82805 0.20818,-0.50174 0.33098,0.90173 1.35864,-0.62143 0.28148,-0.6031 1.50133,0.38322 0.22065,-1.0678 0.19922,1.1259 1.63895,0.23469 0.16334,-0.73838 0.0616,0.76762 1.74226,0.0838 0.20077,-1.63972 0.0168,0.77503 0.87093,0.86743 c 0,0 1.40309,-0.10877 1.77501,-0.14581 0.37192,-0.037 1.77071,-0.20467 1.77071,-0.20467 l 0.18207,-0.94189 0.1844,0.90017 1.55435,-0.36334 0.21325,0.5263 0.78243,0.59725 3.25411,-1.15903 1.19998,-2.62917 -0.39999,-0.76763 1.06118,-0.71343 2.2861,-5.04431 -3.29972,-3.39953 c -1.27249,0.81519 -2.72079,1.58983 -3.99328,2.08143 z"
       style="fill:none;stroke:#287ac8;stroke-width:0.00769023;stroke-linecap:butt;stroke-linejoin:miter;stroke-miterlimit:4;stroke-dasharray:none;stroke-opacity:1"
       id="path20304"
       inkscape:connector-curvature="0" /><path
       d="m 438.84451,863.64667 0.93916,-2.07441 -1.60854,0.51539 -0.42923,1.04325 -1.05806,0.3762 0.59453,-1.66935 3.41941,-2.28259 2.18747,-4.82249 -0.72981,-0.74969 c 0,0 -0.538,0.35867 -1.88845,1.06898 -1.18282,0.6226 -2.52665,1.0912 -2.52665,1.0912 l -0.87483,2.8857 1.65766,-0.48849 0.4651,-1.29276 1.35162,-0.60973 -0.83273,2.07675 -3.25216,2.29741 -1.00933,3.28218 0.5571,0.43157 3.03774,-1.07912 z"
       style="fill:#f6842a;fill-opacity:1;fill-rule:nonzero;stroke:none"
       id="path20306"
       inkscape:connector-curvature="0" /><path
       d="m 438.84451,863.64667 0.93916,-2.07441 -1.60854,0.51539 -0.42923,1.04324 -1.05806,0.37621 0.59453,-1.66935 3.41941,-2.28259 2.18747,-4.82249 -0.72981,-0.74969 c 0,0 -0.538,0.35867 -1.88845,1.06898 -1.18282,0.6226 -2.52665,1.0912 -2.52665,1.0912 l -0.87483,2.8857 1.65766,-0.48849 0.4651,-1.29276 1.35162,-0.60973 -0.83273,2.07675 -3.25216,2.29741 -1.00933,3.28218 0.5571,0.43157 3.03774,-1.07912 z"
       style="fill:none;stroke:#f6842a;stroke-width:0.00769023;stroke-linecap:butt;stroke-linejoin:miter;stroke-miterlimit:4;stroke-dasharray:none;stroke-opacity:1"
       id="path20308"
       inkscape:connector-curvature="0" /><path
       d="m 422.22503,864.27005 -0.85144,-2.83814 -1.45688,-1.38437 0.70329,-1.16176 -0.83039,-2.71416 c 0,0 -0.65924,-0.21832 -0.88301,-0.30409 -0.22378,-0.0854 -0.984,-0.40544 -0.984,-0.40544 l 1.1298,3.24748 -0.27212,0.31617 -1.13876,-1.01752 -1.28106,-3.24709 -1.13019,-0.71655 -0.67172,0.67366 4.06969,8.92766 1.47677,0.58906 -1.37463,-3.46774 1.50796,1.29782 0.93993,2.67478 1.04676,-0.46977 z"
       style="fill:#f6842a;fill-opacity:1;fill-rule:nonzero;stroke:none"
       id="path20310"
       inkscape:connector-curvature="0" /><path
       d="m 422.22503,864.27005 -0.85144,-2.83814 -1.45688,-1.38437 0.70329,-1.16176 -0.83039,-2.71416 c 0,0 -0.65924,-0.21832 -0.88301,-0.30409 -0.22378,-0.0854 -0.984,-0.40545 -0.984,-0.40545 l 1.1298,3.24749 -0.27212,0.31617 -1.13876,-1.01752 -1.28106,-3.24709 -1.13019,-0.71655 -0.67172,0.67366 4.06969,8.92765 1.47677,0.58907 -1.37463,-3.46775 1.50796,1.29783 0.93993,2.67479 1.04676,-0.46978 z"
       style="fill:none;stroke:#f6842a;stroke-width:0.00769023;stroke-linecap:butt;stroke-linejoin:miter;stroke-miterlimit:4;stroke-dasharray:none;stroke-opacity:1"
       id="path20312"
       inkscape:connector-curvature="0" /><path
       d="m 427.95355,864.37531 -0.22924,-6.58541 -1.60464,-0.14074 0.58596,6.66065 1.24792,0.0655 z"
       style="fill:#f6842a;fill-opacity:1;fill-rule:nonzero;stroke:none"
       id="path20314"
       inkscape:connector-curvature="0" /><path
       d="m 427.95355,864.37531 -0.22924,-6.58541 -1.60463,-0.14074 0.58595,6.66065 1.24792,0.0655 z"
       style="fill:none;stroke:#f6842a;stroke-width:0.00769023;stroke-linecap:butt;stroke-linejoin:miter;stroke-miterlimit:4;stroke-dasharray:none;stroke-opacity:1"
       id="path20316"
       inkscape:connector-curvature="0" /><path
       d="m 431.05952,864.26031 0.14424,-1.13058 -1.22765,0.06 0.23274,-4.10166 1.44831,-0.0858 0.15516,-1.39685 c -0.80232,0.0842 -1.64791,0.16491 -2.42567,0.16257 l -0.71811,0.74306 0.002,5.13008 0.73877,0.73683 1.65065,-0.11773 z"
       style="fill:#f6842a;fill-opacity:1;fill-rule:nonzero;stroke:none"
       id="path20318"
       inkscape:connector-curvature="0" /><path
       d="m 431.05952,864.26031 0.14424,-1.13058 -1.22765,0.06 0.23274,-4.10166 1.44831,-0.0858 0.15516,-1.39685 c -0.80232,0.0842 -1.64791,0.16491 -2.42567,0.16257 l -0.71811,0.74306 0.002,5.13008 0.73877,0.73683 1.65065,-0.11773 z"
       style="fill:none;stroke:#f6842a;stroke-width:0.00769023;stroke-linecap:butt;stroke-linejoin:miter;stroke-miterlimit:4;stroke-dasharray:none;stroke-opacity:1"
       id="path20320"
       inkscape:connector-curvature="0" /><path
       d="m 425.97309,864.22171 -0.80661,-6.7164 -1.54421,-0.29746 0.34658,1.97773 -0.5224,2.54613 -1.05768,-4.81235 c 0,0 -0.44755,-0.10175 -0.81908,-0.19844 -0.37621,-0.0986 -0.84443,-0.26276 -0.84443,-0.26276 l 1.91497,7.1238 1.36215,0.34151 0.43079,-2.06934 0.38088,2.19838 1.15904,0.1692 z"
       style="fill:#f6842a;fill-opacity:1;fill-rule:nonzero;stroke:none"
       id="path20322"
       inkscape:connector-curvature="0" /><path
       d="m 425.97309,864.2217 -0.80661,-6.71639 -1.54421,-0.29746 0.34658,1.97773 -0.5224,2.54613 -1.05768,-4.81235 c 0,0 -0.44755,-0.10175 -0.81908,-0.19844 -0.37621,-0.0986 -0.84443,-0.26276 -0.84443,-0.26276 l 1.91497,7.1238 1.36215,0.34151 0.43079,-2.06934 0.38088,2.19838 1.15904,0.16919 z"
       style="fill:none;stroke:#f6842a;stroke-width:0.00769023;stroke-linecap:butt;stroke-linejoin:miter;stroke-miterlimit:4;stroke-dasharray:none;stroke-opacity:1"
       id="path20324"
       inkscape:connector-curvature="0" /><path
       d="m 433.52534,863.9145 1.27405,-0.28303 0.49862,-1.85882 -0.60038,-0.80076 1.05495,-0.86236 1.00543,-3.60887 c -0.59569,0.20311 -1.12434,0.34307 -1.7021,0.48926 l -0.53488,2.44321 -0.59531,0.49044 -0.40856,-0.55086 0.39492,-2.11028 c -0.54697,0.12007 -1.04676,0.19103 -1.57384,0.26393 -0.27524,2.2015 -0.86899,6.68521 -0.86899,6.68521 l 1.17931,-0.15009 0.58517,-3.07828 0.79335,1.05961 -0.50174,1.87169 z"
       style="fill:#f6842a;fill-opacity:1;fill-rule:nonzero;stroke:none"
       id="path20326"
       inkscape:connector-curvature="0" /><path
       d="m 433.52534,863.91451 1.27405,-0.28304 0.49862,-1.85882 -0.60038,-0.80076 1.05495,-0.86236 1.00543,-3.60887 c -0.59569,0.20311 -1.12434,0.34307 -1.7021,0.48926 l -0.53488,2.44321 -0.59531,0.49044 -0.40856,-0.55086 0.39492,-2.11028 c -0.54697,0.12007 -1.04676,0.19103 -1.57384,0.26393 -0.27524,2.2015 -0.86899,6.68521 -0.86899,6.68521 l 1.17931,-0.15009 0.58517,-3.07829 0.79335,1.05962 -0.50174,1.8717 z"
       style="fill:none;stroke:#f6842a;stroke-width:0.00769023;stroke-linecap:butt;stroke-linejoin:miter;stroke-miterlimit:4;stroke-dasharray:none;stroke-opacity:1"
       id="path20328"
       inkscape:connector-curvature="0" /><path
       d="m 431.30512,862.89348 -0.41207,-3.5929 -0.44366,0.0168 -0.22689,3.62291 1.08262,-0.0468 z"
       style="fill:#000000;fill-opacity:1;fill-rule:nonzero;stroke:none"
       id="path20330"
       inkscape:connector-curvature="0" /><path
       d="m 431.30512,862.89348 -0.41207,-3.5929 -0.44366,0.0168 -0.22689,3.62291 1.08262,-0.0468 z"
       style="fill:none;stroke:#000000;stroke-width:0.0096326;stroke-linecap:butt;stroke-linejoin:miter;stroke-miterlimit:2;stroke-dasharray:none;stroke-opacity:1"
       id="path20332"
       inkscape:connector-curvature="0" /><path
       d="m 439.98211,861.25024 -0.36686,-0.68263 -1.5216,1.02726 0.10448,0.23508 1.78398,-0.57971 z"
       style="fill:#000000;fill-opacity:1;fill-rule:nonzero;stroke:none"
       id="path20334"
       inkscape:connector-curvature="0" /><path
       d="m 439.98211,861.25024 -0.36686,-0.68263 -1.5216,1.02726 0.10448,0.23509 1.78398,-0.57972 z"
       style="fill:none;stroke:#000000;stroke-width:0.0096326;stroke-linecap:butt;stroke-linejoin:miter;stroke-miterlimit:2;stroke-dasharray:none;stroke-opacity:1"
       id="path20336"
       inkscape:connector-curvature="0" /><path
       d="m 421.53187,860.39334 -0.47055,-1.78475 -0.8378,1.391 1.0877,1.04559 0.22065,-0.65184 z"
       style="fill:#000000;fill-opacity:1;fill-rule:nonzero;stroke:none"
       id="path20338"
       inkscape:connector-curvature="0" /><path
       d="m 421.53187,860.39334 -0.47055,-1.78475 -0.8378,1.391 1.0877,1.04559 0.22065,-0.65184 z"
       style="fill:none;stroke:#000000;stroke-width:0.0096326;stroke-linecap:butt;stroke-linejoin:miter;stroke-miterlimit:2;stroke-dasharray:none;stroke-opacity:1"
       id="path20340"
       inkscape:connector-curvature="0" /><path
       d="m 439.29908,858.56181 -0.32241,-0.55827 -0.26783,0.72552 -2.17967,0.66314 -0.19493,-0.48225 -0.31461,1.14149 0.24249,0.65184 3.03696,-2.14147 z"
       style="fill:#000000;fill-opacity:1;fill-rule:nonzero;stroke:none"
       id="path20342"
       inkscape:connector-curvature="0" /><path
       d="m 439.29908,858.56181 -0.32241,-0.55827 -0.26783,0.72552 -2.17967,0.66314 -0.19493,-0.48225 -0.31461,1.14149 0.24249,0.65184 3.03696,-2.14147 z"
       style="fill:none;stroke:#000000;stroke-width:0.0096326;stroke-linecap:butt;stroke-linejoin:miter;stroke-miterlimit:2;stroke-dasharray:none;stroke-opacity:1"
       id="path20344"
       inkscape:connector-curvature="0" /><path
       d="m 434.30817,859.28148 -0.32319,-1.10251 -0.2113,1.122 0.20116,0.27641 0.33333,-0.2959 z"
       style="fill:#000000;fill-opacity:1;fill-rule:nonzero;stroke:none"
       id="path20346"
       inkscape:connector-curvature="0" /><path
       d="m 434.30817,859.28148 -0.32319,-1.1025 -0.2113,1.12199 0.20116,0.27641 0.33333,-0.2959 z"
       style="fill:none;stroke:#000000;stroke-width:0.0096326;stroke-linecap:butt;stroke-linejoin:miter;stroke-miterlimit:2;stroke-dasharray:none;stroke-opacity:1"
       id="path20348"
       inkscape:connector-curvature="0" /><path
       d="m 418.24618,857.11857 -0.43391,0.70603 0.98634,0.88341 -0.55243,-1.58944 z"
       style="fill:#000000;fill-opacity:1;fill-rule:nonzero;stroke:none"
       id="path20350"
       inkscape:connector-curvature="0" /><path
       d="m 418.24618,857.11857 -0.43391,0.70603 0.98634,0.88341 -0.55243,-1.58944 z"
       style="fill:none;stroke:#000000;stroke-width:0.0096326;stroke-linecap:butt;stroke-linejoin:miter;stroke-miterlimit:2;stroke-dasharray:none;stroke-opacity:1"
       id="path20352"
       inkscape:connector-curvature="0" /><path
       d="m 429.19562,856.82267 -0.56957,0.0195 -0.0101,1.38437 0.59297,-0.61558 -0.0133,-0.78829 z"
       style="fill:#000000;fill-opacity:1;fill-rule:nonzero;stroke:none"
       id="path20354"
       inkscape:connector-curvature="0" /><path
       d="m 429.19562,856.82267 -0.56957,0.0195 -0.0101,1.38437 0.59297,-0.61558 -0.0133,-0.78829 z"
       style="fill:none;stroke:#000000;stroke-width:0.0096326;stroke-linecap:butt;stroke-linejoin:miter;stroke-miterlimit:2;stroke-dasharray:none;stroke-opacity:1"
       id="path20356"
       inkscape:connector-curvature="0" /><path
       d="m 427.77578,856.73691 c -0.98244,-0.10916 -1.568,-0.4191 -1.568,-0.4191 -0.048,0.31773 -0.11773,0.77542 -0.16452,1.07717 0.4881,0.0573 1.14773,0.13372 1.69938,0.1614 l 0.0331,-0.81947 z"
       style="fill:#000000;fill-opacity:1;fill-rule:nonzero;stroke:none"
       id="path20358"
       inkscape:connector-curvature="0" /><path
       d="m 427.77578,856.73691 c -0.98244,-0.10916 -1.568,-0.4191 -1.568,-0.4191 -0.048,0.31773 -0.11773,0.77542 -0.16452,1.07717 0.4881,0.0573 1.14773,0.13372 1.69938,0.1614 l 0.0331,-0.81947 z"
       style="fill:none;stroke:#000000;stroke-width:0.0096326;stroke-linecap:butt;stroke-linejoin:miter;stroke-miterlimit:2;stroke-dasharray:none;stroke-opacity:1"
       id="path20360"
       inkscape:connector-curvature="0" /><path
       d="m 431.85521,857.3595 -0.22339,-1.21907 c -0.29941,0.13294 -0.66509,0.27797 -1.00543,0.36023 -0.37465,0.10526 -0.80271,0.23625 -1.20075,0.28342 0.0148,0.17309 0.0148,0.50525 0.0265,0.73682 0.79842,0.0121 1.64362,-0.0741 2.40306,-0.1614"
       style="fill:#000000;fill-opacity:1;fill-rule:nonzero;stroke:none"
       id="path20362"
       inkscape:connector-curvature="0" /><path
       d="m 431.85521,857.3595 -0.22339,-1.21907 c -0.29941,0.13294 -0.66509,0.27797 -1.00543,0.36023 -0.37465,0.10526 -0.80271,0.23625 -1.20075,0.28342 0.0148,0.17309 0.0148,0.50525 0.0265,0.73682 0.79842,0.0121 1.64362,-0.0741 2.40306,-0.1614 z"
       style="fill:none;stroke:#000000;stroke-width:0.0096326;stroke-linecap:butt;stroke-linejoin:miter;stroke-miterlimit:2;stroke-dasharray:none;stroke-opacity:1"
       id="path20364"
       inkscape:connector-curvature="0" /><path
       d="m 425.18052,857.2558 c 0.0889,-0.43157 0.19414,-0.92941 0.2881,-1.37696 -0.48069,-0.29278 -0.88809,-0.66509 -1.34578,-1.00582 -0.1996,0.65768 -0.44872,1.42023 -0.64677,2.06271 0.57036,0.11501 1.14111,0.22651 1.70445,0.32007"
       style="fill:#000000;fill-opacity:1;fill-rule:nonzero;stroke:none"
       id="path20366"
       inkscape:connector-curvature="0" /><path
       d="m 425.18052,857.2558 c 0.0889,-0.43157 0.19414,-0.92941 0.2881,-1.37696 -0.48069,-0.29278 -0.88809,-0.66509 -1.34578,-1.00582 -0.1996,0.65768 -0.44872,1.42023 -0.64677,2.06271 0.57036,0.11501 1.14111,0.22651 1.70445,0.32007 z"
       style="fill:none;stroke:#000000;stroke-width:0.0096326;stroke-linecap:butt;stroke-linejoin:miter;stroke-miterlimit:2;stroke-dasharray:none;stroke-opacity:1"
       id="path20368"
       inkscape:connector-curvature="0" /><path
       d="m 433.95652,857.00318 -0.65534,-2.10131 -0.0788,0.0604 c -0.39882,0.38713 -0.82104,0.70408 -1.26703,0.96177 l 0.28148,1.37735 c 0.56411,-0.0803 1.14734,-0.18245 1.71964,-0.29823"
       style="fill:#000000;fill-opacity:1;fill-rule:nonzero;stroke:none"
       id="path20370"
       inkscape:connector-curvature="0" /><path
       d="m 433.95652,857.00318 -0.65534,-2.10131 -0.0788,0.0604 c -0.39882,0.38713 -0.82104,0.70408 -1.26703,0.96177 l 0.28148,1.37735 c 0.56411,-0.0803 1.14734,-0.18245 1.71964,-0.29823 z"
       style="fill:none;stroke:#000000;stroke-width:0.0096326;stroke-linecap:butt;stroke-linejoin:miter;stroke-miterlimit:2;stroke-dasharray:none;stroke-opacity:1"
       id="path20372"
       inkscape:connector-curvature="0" /><path
       d="m 436.85509,856.21099 -1.2682,-2.5087 -1.64362,0.41519 0.99256,2.64984 c 0.49161,-0.0944 1.91926,-0.55633 1.91926,-0.55633"
       style="fill:#000000;fill-opacity:1;fill-rule:nonzero;stroke:none"
       id="path20374"
       inkscape:connector-curvature="0" /><path
       d="m 436.85509,856.21099 -1.2682,-2.5087 -1.64362,0.41519 0.99256,2.64984 c 0.49161,-0.0944 1.91926,-0.55633 1.91926,-0.55633 z"
       style="fill:none;stroke:#000000;stroke-width:0.0096326;stroke-linecap:butt;stroke-linejoin:miter;stroke-miterlimit:2;stroke-dasharray:none;stroke-opacity:1"
       id="path20376"
       inkscape:connector-curvature="0" /><path
       d="m 423.40863,854.21845 c -0.50915,-0.13684 -1.19334,-0.36529 -1.58515,-0.50954 -0.4339,0.83273 -0.85105,1.60698 -1.21517,2.47518 0.59024,0.18246 1.18905,0.35321 1.87909,0.52436 l 0.92123,-2.49 z"
       style="fill:#000000;fill-opacity:1;fill-rule:nonzero;stroke:none"
       id="path20378"
       inkscape:connector-curvature="0" /><path
       d="m 423.40863,854.21845 c -0.50915,-0.13684 -1.19334,-0.36529 -1.58515,-0.50954 -0.4339,0.83273 -0.85105,1.60698 -1.21517,2.47518 0.59024,0.18246 1.18905,0.35321 1.87909,0.52436 l 0.92123,-2.49 z"
       style="fill:none;stroke:#000000;stroke-width:0.0096326;stroke-linecap:butt;stroke-linejoin:miter;stroke-miterlimit:2;stroke-dasharray:none;stroke-opacity:1"
       id="path20380"
       inkscape:connector-curvature="0" /><path
       d="m 419.84341,855.94784 c 0.44522,-0.82142 0.93254,-1.63621 1.37853,-2.44516 -0.58166,-0.246 -1.43233,-0.61324 -1.76097,-0.7762 l -1.74421,2.39565 c 0.6647,0.28304 1.34383,0.5497 2.12665,0.82571"
       style="fill:#000000;fill-opacity:1;fill-rule:nonzero;stroke:none"
       id="path20382"
       inkscape:connector-curvature="0" /><path
       d="m 419.84341,855.94784 c 0.44522,-0.82142 0.93254,-1.63621 1.37853,-2.44516 -0.58166,-0.246 -1.43233,-0.61324 -1.76097,-0.7762 l -1.74421,2.39565 c 0.6647,0.28304 1.34383,0.5497 2.12665,0.82571 z"
       style="fill:none;stroke:#000000;stroke-width:0.0096326;stroke-linecap:butt;stroke-linejoin:miter;stroke-miterlimit:2;stroke-dasharray:none;stroke-opacity:1"
       id="path20384"
       inkscape:connector-curvature="0" /><path
       d="m 418.45553,852.20213 c -0.31578,-0.18284 -0.60271,-0.34931 -0.87327,-0.5111 l -2.1863,2.18513 c 0.30487,0.19922 1.06859,0.67406 1.06859,0.67406 l 1.99098,-2.34809 z"
       style="fill:#000000;fill-opacity:1;fill-rule:nonzero;stroke:none"
       id="path20386"
       inkscape:connector-curvature="0" /><path
       d="m 418.45553,852.20213 c -0.31578,-0.18284 -0.60271,-0.34931 -0.87327,-0.5111 l -2.1863,2.18513 c 0.30487,0.19922 1.06859,0.67406 1.06859,0.67406 l 1.99098,-2.34809 z"
       style="fill:none;stroke:#000000;stroke-width:0.0096326;stroke-linecap:butt;stroke-linejoin:miter;stroke-miterlimit:2;stroke-dasharray:none;stroke-opacity:1"
       id="path20388"
       inkscape:connector-curvature="0" /><path
       d="m 439.82772,851.58889 c -0.66275,0.44521 -2.39253,1.41868 -3.58587,1.88143 l 1.37306,2.4709 c 1.53603,-0.53138 3.43306,-1.53018 4.36832,-2.12315 0,0 -1.82647,-1.91457 -2.15551,-2.22918"
       style="fill:#000000;fill-opacity:1;fill-rule:nonzero;stroke:none"
       id="path20390"
       inkscape:connector-curvature="0" /><path
       d="m 439.82772,851.58889 c -0.66275,0.44521 -2.39253,1.41868 -3.58587,1.88143 l 1.37306,2.4709 c 1.53603,-0.53138 3.43306,-1.53018 4.36832,-2.12315 0,0 -1.82647,-1.91457 -2.15551,-2.22918 z"
       style="fill:none;stroke:#000000;stroke-width:0.0096326;stroke-linecap:butt;stroke-linejoin:miter;stroke-miterlimit:2;stroke-dasharray:none;stroke-opacity:1"
       id="path20392"
       inkscape:connector-curvature="0" /><path
       d="m 428.75626,856.89636 c 3.59172,0 6.50432,-2.91221 6.50432,-6.50393 0,-3.5925 -2.9126,-6.50432 -6.50432,-6.50432 -3.59251,0 -6.50433,2.91182 -6.50433,6.50432 0,3.59172 2.91182,6.50393 6.50433,6.50393"
       style="fill:#287ac8;fill-opacity:1;fill-rule:nonzero;stroke:none"
       id="path20394"
       inkscape:connector-curvature="0" /><path
       d="m 428.75626,856.89636 c 3.59172,0 6.50432,-2.91221 6.50432,-6.50393 0,-3.5925 -2.9126,-6.50432 -6.50432,-6.50432 -3.59251,0 -6.50433,2.91182 -6.50433,6.50432 0,3.59172 2.91182,6.50393 6.50433,6.50393 z"
       style="fill:none;stroke:#287ac8;stroke-width:0.00769023;stroke-linecap:butt;stroke-linejoin:miter;stroke-miterlimit:4;stroke-dasharray:none;stroke-opacity:1"
       id="path20396"
       inkscape:connector-curvature="0" /><path
       d="m 429.16755,856.59461 c -0.51421,-0.17894 -1.01011,-0.44092 -1.50054,-0.66743 -0.33489,0.20078 -0.52631,0.25068 -0.75242,0.39609 0.70446,0.25653 1.46351,0.2959 2.25296,0.27134"
       style="fill:#f6842a;fill-opacity:1;fill-rule:nonzero;stroke:none"
       id="path20398"
       inkscape:connector-curvature="0" /><path
       d="m 429.16755,856.59461 c -0.51421,-0.17894 -1.01011,-0.44092 -1.50054,-0.66743 -0.33489,0.20078 -0.52631,0.25068 -0.75242,0.39609 0.70446,0.25653 1.46351,0.2959 2.25296,0.27134 z"
       style="fill:none;stroke:#f6842a;stroke-width:0.00769023;stroke-linecap:butt;stroke-linejoin:miter;stroke-miterlimit:4;stroke-dasharray:none;stroke-opacity:1"
       id="path20400"
       inkscape:connector-curvature="0" /><path
       d="m 433.97056,853.74907 c -1.57969,1.5906 -3.94884,1.47637 -5.9597,2.03854 0,0 1.18359,0.56412 1.79372,0.71928 1.64323,-0.27874 3.23228,-1.26273 4.16598,-2.75782"
       style="fill:#f6842a;fill-opacity:1;fill-rule:nonzero;stroke:none"
       id="path20402"
       inkscape:connector-curvature="0" /><path
       d="m 433.97056,853.74907 c -1.57969,1.5906 -3.94884,1.47637 -5.9597,2.03854 0,0 1.18359,0.56412 1.79372,0.71928 1.64323,-0.27874 3.23228,-1.26273 4.16598,-2.75782 z"
       style="fill:none;stroke:#f6842a;stroke-width:0.00769023;stroke-linecap:butt;stroke-linejoin:miter;stroke-miterlimit:4;stroke-dasharray:none;stroke-opacity:1"
       id="path20404"
       inkscape:connector-curvature="0" /><path
       d="m 425.09124,853.50892 c -1.51809,-2.32782 -1.72316,-5.19597 -0.51461,-7.70975 -1.56136,1.31186 -2.49233,3.85254 -1.79177,6.31914 0.57465,0.80076 1.31303,1.51029 2.30638,1.39061"
       style="fill:#f6842a;fill-opacity:1;fill-rule:nonzero;stroke:none"
       id="path20406"
       inkscape:connector-curvature="0" /><path
       d="m 425.09124,853.50892 c -1.51809,-2.32782 -1.72315,-5.19597 -0.51461,-7.70975 -1.56136,1.31186 -2.49233,3.85254 -1.79177,6.31914 0.57465,0.80076 1.31303,1.51029 2.30638,1.39061 z"
       style="fill:none;stroke:#f6842a;stroke-width:0.00769023;stroke-linecap:butt;stroke-linejoin:miter;stroke-miterlimit:4;stroke-dasharray:none;stroke-opacity:1"
       id="path20408"
       inkscape:connector-curvature="0" /><path
       d="m 426.71498,851.85165 c 0.81831,-2.43152 0.99959,-5.12346 3.11728,-7.57213 -1.65143,-0.33527 -3.28686,0.15945 -4.59171,0.98555 -1.61555,2.35745 -1.46312,5.8751 0.15283,8.16042 0.78633,-0.2269 1.21556,-1.25611 1.3216,-1.57384"
       style="fill:#f6842a;fill-opacity:1;fill-rule:nonzero;stroke:none"
       id="path20410"
       inkscape:connector-curvature="0" /><path
       d="m 426.71498,851.85165 c 0.81831,-2.43152 0.99959,-5.12346 3.11728,-7.57213 -1.65143,-0.33527 -3.28686,0.15945 -4.59171,0.98555 -1.61555,2.35745 -1.46312,5.8751 0.15283,8.16042 0.78633,-0.2269 1.21556,-1.25611 1.3216,-1.57384 z"
       style="fill:none;stroke:#f6842a;stroke-width:0.00769023;stroke-linecap:butt;stroke-linejoin:miter;stroke-miterlimit:4;stroke-dasharray:none;stroke-opacity:1"
       id="path20412"
       inkscape:connector-curvature="0" /><path
       d="m 427.79644,865.22831 -0.27446,-0.2729 -0.47016,-0.0281 -0.17505,0.15205 -0.22105,-0.18791 -0.5107,-0.048 -0.22534,0.21404 0.29434,2.00267 0.38829,0.053 -0.20935,-1.76799 0.27758,0.0312 0.21598,1.77111 0.38283,0.0374 -0.15984,-1.75902 0.27251,0.0253 0.13801,1.75083 c 0.16374,0.0172 0.24756,0.0164 0.39063,0.0246 l -0.11422,-1.99839 z"
       style="fill:#287ac8;fill-opacity:1;fill-rule:nonzero;stroke:none"
       id="path20422"
       inkscape:connector-curvature="0" /><path
       d="m 429.05216,867.25321 0.003,-1.2604 0.24716,0.002 -0.0144,1.25299 c 0,0 0.25925,-0.009 0.37582,-0.0179 l 0.0499,-1.41361 -0.2382,-0.23743 -0.0784,-0.004 0.0117,-0.60466 -0.42026,0.0125 -0.005,0.60427 -0.0834,0.008 -0.25457,0.25886 0.0156,1.40581 c 0.13645,0 0.39181,-0.006 0.39181,-0.006"
       style="fill:#287ac8;fill-opacity:1;fill-rule:nonzero;stroke:none"
       id="path20424"
       inkscape:connector-curvature="0" /><path
       d="m 425.93254,867.0193 -0.0655,-0.41364 -0.46744,-0.0885 -0.0854,-0.48342 c 0.17153,0.0312 0.27679,0.0476 0.48108,0.0745 -0.0288,-0.18011 -0.0367,-0.24249 -0.0686,-0.41208 l -0.47016,-0.0674 -0.0885,-0.46354 0.48225,0.0698 c 0,0 -0.0476,-0.31148 -0.0721,-0.45144 -0.33762,-0.0413 -0.67679,-0.0893 -1.00037,-0.1462 0,0 0.36296,1.68027 0.45262,2.19878 l 0.90212,0.18323 z"
       style="fill:#287ac8;fill-opacity:1;fill-rule:nonzero;stroke:none"
       id="path20426"
       inkscape:connector-curvature="0" /><path
       d="m 424.16846,864.56361 -0.48849,-0.0963 0.22377,0.91576 -0.15087,0.32904 -0.3844,-1.31849 -0.47679,-0.10838 c 0.19883,0.71344 0.40194,1.42687 0.60038,2.1403 0.16335,0.0561 0.28576,0.0928 0.43118,0.13567 0.053,-0.12007 0.18128,-0.36218 0.18128,-0.36218 l 0.11618,0.44639 c 0,0 0.30174,0.0799 0.45379,0.11422 l -0.50603,-2.19604 z"
       style="fill:#287ac8;fill-opacity:1;fill-rule:nonzero;stroke:none"
       id="path20428"
       inkscape:connector-curvature="0" /><path
       d="m 431.0334,866.86492 c 0.0487,-0.57387 0.14307,-1.12317 0.20116,-1.65883 l -0.21325,-0.32475 -0.69004,0.0448 -0.24873,0.27173 c -0.0444,0.58517 -0.0745,1.17619 -0.11072,1.76292 0.0628,0.0838 0.16023,0.14892 0.23703,0.23157 l 0.57387,-0.0565 0.25068,-0.27094 m -0.64248,-0.0971 0.12202,-1.36722 0.24171,-0.0195 -0.12865,1.3602 -0.23508,0.0265 z"
       style="fill:#287ac8;fill-opacity:1;fill-rule:nonzero;stroke:none"
       id="path20430"
       inkscape:connector-curvature="0" /><path
       d="m 433.26336,866.65985 c 0.0862,-0.32786 0.2538,-1.00582 0.2538,-1.00582 l 0.16373,-0.0339 0.0791,0.10994 -0.20428,0.84169 c 0,0 0.20311,-0.0565 0.41948,-0.12202 l 0.21715,-0.81479 -0.10136,-0.14737 0.18908,-0.20779 0.28615,-0.99335 -0.47172,0.10526 -0.18518,0.69706 -0.29278,0.0659 0.15906,-0.69316 -0.47796,0.094 c -0.16647,0.74618 -0.469,2.21671 -0.469,2.21671 0,0 0.24288,-0.0503 0.43469,-0.11228"
       style="fill:#287ac8;fill-opacity:1;fill-rule:nonzero;stroke:none"
       id="path20432"
       inkscape:connector-curvature="0" /><path
       d="m 432.51718,866.57993 0.15711,-0.81908 -0.0904,-0.12554 0.16024,-0.1918 0.13878,-0.81363 -0.45963,0.0803 -0.12554,0.67756 -0.27679,0.0308 0.0982,-0.66119 -0.45769,0.0573 -0.30565,2.24789 0.8764,-0.15477 0.28498,-0.32787 m -0.6647,-0.0288 0.0827,-0.56997 0.25925,-0.0296 -0.10877,0.55749 -0.23313,0.0421 z"
       style="fill:#287ac8;fill-opacity:1;fill-rule:nonzero;stroke:none"
       id="path20434"
       inkscape:connector-curvature="0" /><path
       d="m 425.58051,853.6824 c 0.2456,0.34541 0.52318,0.67328 0.83311,0.97737 3.4354,-0.96957 6.70978,-4.5301 7.27078,-8.02943 -0.16335,-0.26393 -0.55671,-0.63273 -0.81908,-0.89588 -0.85378,-0.76685 -1.79489,-1.1645 -2.69701,-1.38009 -1.60425,1.66351 -2.13289,3.82369 -2.69857,5.95268 -0.43469,1.63427 -0.73605,2.86698 -1.88806,3.36678 l -0.001,0.009 z"
       style="fill:#f6842a;fill-opacity:1;fill-rule:nonzero;stroke:none"
       id="path20436"
       inkscape:connector-curvature="0" /><path
       d="m 425.58051,853.6824 c 0.2456,0.34541 0.52318,0.67328 0.83311,0.97737 3.4354,-0.96957 6.70978,-4.5301 7.27078,-8.02943 -0.16335,-0.26393 -0.55671,-0.63273 -0.81908,-0.89588 -0.85378,-0.76685 -1.79489,-1.1645 -2.69701,-1.38009 -1.60425,1.66351 -2.13289,3.82369 -2.69857,5.95268 -0.43469,1.63427 -0.73604,2.86698 -1.88806,3.36678 l -0.001,0.009 z"
       style="fill:none;stroke:#f6842a;stroke-width:0.00769023;stroke-linecap:butt;stroke-linejoin:miter;stroke-miterlimit:4;stroke-dasharray:none;stroke-opacity:1"
       id="path20438"
       inkscape:connector-curvature="0" /><path
       d="m 433.60448,853.69761 c -1.65844,1.46351 -3.9691,1.2756 -5.90824,1.95784 -0.37387,-0.23001 -0.74033,-0.50057 -1.05338,-0.78126 3.435,-1.07717 6.55072,-4.43498 7.29261,-7.90546 0.53839,0.77776 0.86392,1.68144 0.99491,2.63931 0.0838,1.47209 0.0694,2.81124 -1.3259,4.08957"
       style="fill:#f6842a;fill-opacity:1;fill-rule:nonzero;stroke:none"
       id="path20440"
       inkscape:connector-curvature="0" /><path
       d="m 433.60448,853.69761 c -1.65844,1.46351 -3.9691,1.2756 -5.90824,1.95784 -0.37387,-0.23001 -0.74033,-0.50057 -1.05338,-0.78126 3.435,-1.07717 6.55072,-4.43498 7.29261,-7.90546 0.53839,0.77776 0.86392,1.68144 0.99491,2.63931 0.0838,1.47209 0.0694,2.81124 -1.3259,4.08957 z"
       style="fill:none;stroke:#f6842a;stroke-width:0.00769023;stroke-linecap:butt;stroke-linejoin:miter;stroke-miterlimit:4;stroke-dasharray:none;stroke-opacity:1"
       id="path20442"
       inkscape:connector-curvature="0" /><path
       d="m 426.13137,854.76815 c -0.33177,-0.31891 -0.57971,-0.63274 -0.83819,-0.99764 l -0.008,0.002 c -0.90953,0.20272 -1.62608,-0.26744 -2.20229,-0.85378 0.27524,0.69472 0.85066,1.51692 1.46117,2.05648 0.56256,-0.0246 0.97113,-0.0156 1.5871,-0.2074"
       style="fill:#f6842a;fill-opacity:1;fill-rule:nonzero;stroke:none"
       id="path20444"
       inkscape:connector-curvature="0" /><path
       d="m 426.13137,854.76815 c -0.33177,-0.31891 -0.57971,-0.63274 -0.83819,-0.99764 l -0.008,0.002 c -0.90953,0.20272 -1.62608,-0.26744 -2.20229,-0.85378 0.27524,0.69472 0.85066,1.51692 1.46117,2.05648 0.56256,-0.0246 0.97113,-0.0156 1.5871,-0.2074"
       style="fill:none;stroke:#f6842a;stroke-width:0.00769023;stroke-linecap:butt;stroke-linejoin:miter;stroke-miterlimit:4;stroke-dasharray:none;stroke-opacity:1"
       id="path20446"
       inkscape:connector-curvature="0" /><path
       d="m 426.37464,854.9814 c 0.32514,0.28849 0.64014,0.5415 1.03077,0.7758 l -0.88068,0.43625 c -0.58673,-0.23937 -1.21361,-0.55125 -1.6444,-0.94578 0.66548,-0.0776 0.95046,-0.11852 1.49431,-0.26627"
       style="fill:#f6842a;fill-opacity:1;fill-rule:nonzero;stroke:none"
       id="path20448"
       inkscape:connector-curvature="0" /><path
       d="m 426.37464,854.9814 c 0.32514,0.28849 0.64014,0.5415 1.03077,0.7758 l -0.88068,0.43625 c -0.58673,-0.23937 -1.21361,-0.55125 -1.6444,-0.94578 0.66548,-0.0776 0.95046,-0.11852 1.49431,-0.26627 z"
       style="fill:none;stroke:#f6842a;stroke-width:0.00769023;stroke-linecap:butt;stroke-linejoin:miter;stroke-miterlimit:4;stroke-dasharray:none;stroke-opacity:1"
       id="path20450"
       inkscape:connector-curvature="0" /></g></svg>