<?xml version="1.0" encoding="UTF-8" standalone="no"?>
<svg
   xmlns:dc="http://purl.org/dc/elements/1.1/"
   xmlns:cc="http://creativecommons.org/ns#"
   xmlns:rdf="http://www.w3.org/1999/02/22-rdf-syntax-ns#"
   xmlns:svg="http://www.w3.org/2000/svg"
   xmlns="http://www.w3.org/2000/svg"
   xmlns:sodipodi="http://sodipodi.sourceforge.net/DTD/sodipodi-0.dtd"
   xmlns:inkscape="http://www.inkscape.org/namespaces/inkscape"
   viewBox="0 0 40.000002 29.786808"
   height="29.786808"
   width="40.000004"
   xml:space="preserve"
   id="svg2"
   version="1.1"
   inkscape:version="0.91 r13725"
   sodipodi:docname="New_Orleans_Pelicans_resized.svg"><sodipodi:namedview
     pagecolor="#ffffff"
     bordercolor="#666666"
     borderopacity="1"
     objecttolerance="10"
     gridtolerance="10"
     guidetolerance="10"
     inkscape:pageopacity="0"
     inkscape:pageshadow="2"
     inkscape:window-width="826"
     inkscape:window-height="480"
     id="namedview72"
     showgrid="false"
     fit-margin-top="0"
     fit-margin-left="0"
     fit-margin-right="0"
     fit-margin-bottom="0"
     inkscape:zoom="0.29710947"
     inkscape:cx="20.000062"
     inkscape:cy="14.896451"
     inkscape:window-x="0"
     inkscape:window-y="0"
     inkscape:window-maximized="0"
     inkscape:current-layer="svg2" /><metadata
     id="metadata8"><rdf:RDF><cc:Work
         rdf:about=""><dc:format>image/svg+xml</dc:format><dc:type
           rdf:resource="http://purl.org/dc/dcmitype/StillImage" /><dc:title></dc:title></cc:Work></rdf:RDF></metadata><defs
     id="defs6" /><g
     transform="matrix(0.05000001,0,0,-0.05000001,-1.6670465e-6,29.786793)"
     id="g10"><g
       transform="scale(0.1,0.1)"
       id="g12"><path
         id="path14"
         style="fill:#1e2d57;fill-opacity:1;fill-rule:nonzero;stroke:none"
         d="m 3969.94,5955.9 c 98.9,15.55 138.59,-97.27 203.59,-150.9 45.05,58.28 97.96,119.33 174.59,133.02 134.86,39.47 313.4,-52.7 308.98,-206.14 10.68,-83.58 -45.97,-149.97 -110.04,-194.08 139.51,88.22 311.78,134.18 475.67,100.53 149.97,-28.09 286.02,-110.75 390.23,-220.78 530.26,-92.4 1053.04,-228.67 1560.76,-407.42 214.73,-79.63 433.64,-153.22 632.37,-268.83 214.04,-126.75 369.11,-358.68 380.04,-609.86 3.24,-169.23 2.54,-338.7 -2.57,-507.71 24.6,-147.88 13.69,-297.84 15.78,-446.88 -0.22,-239.58 -147.18,-465.7 -355.41,-579.45 -68.04,-31.1 -104.24,-98.89 -153.46,-151.37 -60.57,-65 -136.5,-112.11 -213.58,-155.07 -91.23,-149.49 -238.88,-259.3 -403.24,-316.87 C 6748.53,1820.63 6558.86,1732.88 6368.27,1692.72 6157.03,1061.98 5679.94,525.922 5077.98,242.723 4587.68,6.62891 4018.92,-58.6211 3486.84,53.0625 2636.94,222.051 1906.83,871.141 1634.05,1692.72 c -190.35,39.92 -379.55,127.91 -504.92,280.67 -163.196,58.27 -314.329,165.97 -401.614,318.05 -113.059,52.23 -205.918,137.88 -282.989,234.23 -40.625,54.32 -110.269,71.03 -161.109,113.05 -99.594,79.4 -191.0586,180.85 -226.3477,305.75 -10.4492,178.75 3.7109,358.66 -5.8008,537.42 -16.7187,60.59 -49.457,118.16 -45.03512,182.93 -6.73438,89.38 50.83592,167.38 48.04682,256.06 -1.1679,70.57 10.2149,145.56 -20.8867,211.49 -48.9961,108.88 -28.55466,230.99 -32.03903,346.37 -6.73047,45.03 21.12113,85.19 60.59373,104 791.6248,408.12 1650.3408,679.5 2527.1708,832.02 127.92,141.84 312.93,233.08 505.15,234.94 125.83,-3.02 249.56,-42.25 356.12,-108.65 -69.88,46.89 -121.65,126.06 -104,213.35 20.89,180.14 270.22,249.32 400.22,139.52 30.41,-26.01 55.26,-57.33 80.78,-88.21 45.97,51.52 95.89,99.35 142.55,150.19 l 0,0"
         inkscape:connector-curvature="0" /><path
         id="path16"
         style="fill:#b09449;fill-opacity:1;fill-rule:nonzero;stroke:none"
         d="m 3813.01,5728.39 c 61.28,65.93 125.12,129.08 188.96,192.69 61.52,-65 124.91,-128.15 187.34,-191.99 38.54,74.52 92.18,156.23 183.19,167.84 114.91,26.23 260.23,-61.05 237.94,-191.05 -0.7,-119.09 -162.05,-180.61 -245.16,-97.98 -35.28,21.6 7.44,61.76 15.55,87.76 36,-2.55 101.45,-54.32 123.99,-6.03 45.25,67.78 -49.46,126.51 -109.82,115.37 -98.66,-24.14 -145.32,-155.07 -97.03,-240.5 40.63,-60.59 121.18,-74.76 188.96,-77.07 115.15,14.38 210.8,93.09 326.4,106.78 216.59,42.02 433.67,-63.38 579.21,-219.61 654.44,-113.06 1297.72,-292.05 1914.08,-539.51 181.54,-74.99 370.5,-161.81 490.52,-324.32 69.87,-92.16 120.02,-200.8 136.27,-315.95 26.71,-238.42 -15.78,-479.16 18.12,-716.87 3.24,-107.96 2.31,-216.14 0.45,-324.09 -4.64,-162.74 -87.05,-316.65 -204.29,-426.92 -72.43,-70.11 -178.75,-97.97 -236.32,-184.56 -70.34,-97.96 -170.16,-168.31 -278.12,-219.39 -74.97,-162.5 -241.42,-259.76 -405.1,-314.78 C 6722.75,1841.29 6516.37,1772.8 6332.74,1731.95 6134.74,1119.31 5682.97,594.191 5106.3,307.949 4597.91,47.25 3996.87,-18.4414 3441.33,109.922 2621.62,293.551 1925.63,931.73 1669.8,1731.72 c -184.55,31.1 -354.25,119.79 -493.08,243.98 7.89,6.5 23.91,19.75 31.8,26.23 -178.74,44.12 -359.59,149.51 -439.223,321.99 -73.352,36.23 -146.938,75.45 -204.059,135.35 -55.941,52.23 -93.777,124.66 -163.898,160.65 -132.094,69.88 -250.012,183.16 -296.442,327.79 -15.0972,177.13 4.872,355.89 -7.6675,533.25 -21.8164,85.89 -65.9375,173.41 -34.8203,263.72 34.125,93.32 46.4338,192.23 38.7658,291.12 1.621,81.47 -52.008,151.35 -52.469,232.85 -3.707,84.73 0,169.69 -0.4648,254.66 779.5548,406.26 1624.8178,682.29 2490.0378,835.04 85.66,3.71 133.48,81.26 198.25,125.36 172.95,130.7 417.17,156.24 611.94,59.9 90.07,-46.9 197.1,-80.1 294.13,-29.73 116.55,42.96 99.37,222.18 0.71,276.03 -51.08,35.29 -117.93,6.27 -154.15,-36.21 -6.96,-35.98 15.55,-64.31 34.58,-91.7 38.32,8.36 80.56,41.55 117.71,12.08 41.09,-54.79 -36.45,-99.6 -84.74,-102.62 -100.29,-17.88 -187.34,86.83 -164.13,182.94 18.34,122.8 172.02,172.95 277.19,132.32 70.34,-26.7 108.64,-96.11 143.24,-158.33 l 0,0"
         inkscape:connector-curvature="0" /><path
         id="path18"
         style="fill:#1e2d57;fill-opacity:1;fill-rule:nonzero;stroke:none"
         d="m 3813.01,5498.11 c 28.31,113.51 102.14,205.68 187.11,282.75 85.2,-76.61 161.81,-166.68 189.19,-280.89 51.78,-32.05 94.03,-76.15 137.91,-117.71 130.24,-16.26 262.32,-10.67 393.02,-24.61 848.27,-70.33 1682.63,-278.58 2475.64,-585.01 212.18,-85.21 448.75,-176.43 566.21,-387.23 109.57,-173.65 75.22,-386.52 80.09,-581.06 -40.62,15.78 -81.02,31.33 -121.65,46.66 74.3,-127.68 142.79,-267.68 134.19,-419.73 -5.57,-159.25 24.38,-331.04 -58.04,-476.6 -90.77,-182.7 -285.08,-290.18 -482.63,-314.33 38.06,-18.8 75.9,-37.84 114.22,-56.64 -107.03,-155.31 -298.33,-224.74 -481.71,-215.67 53.86,-25.07 107,-50.6 159.94,-77.3 -128.84,-153.69 -326.4,-229.59 -523.5,-237.26 40.4,-20.9 80.33,-42.25 120.5,-64.09 -127,-107.7 -287.17,-166.89 -451.31,-185.94 C 6077.63,1232.15 5677.62,733.473 5154.36,444.23 4626.93,144.742 3982.01,68.832 3396.76,222.531 2623.94,418.922 1979.03,1039.44 1751.52,1803.68 c -165.29,16.95 -322.22,80.32 -452.92,182.47 41.09,23.45 82.65,46.43 124.43,68.5 -197.79,4.17 -395.11,81.95 -525.585,234.22 51.77,26.94 103.535,53.39 155.775,79.17 -183.4,-11.38 -365.638,64.77 -479.615,209.87 43.176,22.98 86.352,46.19 130.004,68.25 -143.937,10.44 -292.511,52.92 -393.961,161.11 -52.699,56.64 -112.597,122.34 -110.507,204.98 -3.02,176.43 3.714,353.1 -2.778,529.54 -32.047,50.6 -59.433,110.27 -38.781,170.86 54.559,163.43 68.023,350.31 0,511.41 -20.187,77.08 -9.043,157.88 -11.836,236.56 136.274,60.83 263.027,162.51 418.336,163.44 21.356,54.79 77.535,72.89 126.992,93.32 948.316,390.48 1964.436,629.6 2991.006,661.63 34.12,49.22 79.16,88.91 130.93,119.1 l 0,0"
         inkscape:connector-curvature="0" /><path
         id="path20"
         style="fill:#ffffff;fill-opacity:1;fill-rule:nonzero;stroke:none"
         d="m 3522.36,5717.02 c 18.1,18.11 38.3,33.43 60.58,45.96 34.14,-12.53 66.17,-30.64 98.21,-47.58 -26.94,6.03 -53.86,12.29 -80.79,18.56 -26,-6.03 -51.77,-11.83 -78,-16.94 l 0,0"
         inkscape:connector-curvature="0" /><path
         id="path22"
         style="fill:#ffffff;fill-opacity:1;fill-rule:nonzero;stroke:none"
         d="m 4353.68,5725.61 c 7.89,51.08 113.53,48.98 116.54,-2.55 -37.15,-8.13 -78.94,1.39 -116.54,2.55 l 0,0"
         inkscape:connector-curvature="0" /><path
         id="path24"
         style="fill:#e61836;fill-opacity:1;fill-rule:nonzero;stroke:none"
         d="m 3984.56,5609.31 c 40.16,21.58 52.94,-30.42 69.88,-56.19 59.2,-107.24 -36.91,-214.28 -35.06,-324.54 36,59.2 43.65,182.7 141.16,157.62 78.69,-20.88 55.48,-115.61 8.82,-158.09 -16.26,20.67 -32.51,40.86 -49.22,60.83 -14.39,-6.03 -43.18,-18.11 -57.59,-24.38 12.8,-7.9 38.55,-23.91 51.31,-32.04 0.93,-11.83 2.8,-35.52 3.72,-47.36 -23.21,-0.23 -69.42,-0.69 -92.62,-0.92 10.21,-13.24 30.18,-39.47 40.16,-52.69 -21.36,-25.32 -42.02,-50.84 -63.84,-75.46 -22.75,24.84 -43.64,51.31 -65.24,77.08 10.45,12.29 31.35,37.14 41.79,49.68 -22.05,0.69 -66.16,2.31 -88.45,3.24 0.23,10.45 0.23,31.58 0.47,42.26 12.06,9.75 36.21,29.02 48.28,38.77 -20.65,7.88 -41.56,15.08 -62.45,21.82 -8.81,-15.79 -26.69,-47.13 -35.51,-62.68 -50.61,38.07 -80.1,136.73 -0.93,159.72 100.52,27.39 112.13,-100.52 140.22,-163.43 2.79,71.95 -25.77,138.58 -44.35,206.37 -22.28,64.08 9.29,131.17 49.45,180.39 l 0,0"
         inkscape:connector-curvature="0" /><path
         id="path26"
         style="fill:#1e2d57;fill-opacity:1;fill-rule:nonzero;stroke:none"
         d="m 2789.46,5404.08 c 146.72,108.88 345.21,130.47 512.12,56.18 -171.1,-15.78 -341.25,-38.3 -512.12,-56.18 l 0,0"
         inkscape:connector-curvature="0" /><path
         id="path28"
         style="fill:#1e2d57;fill-opacity:1;fill-rule:nonzero;stroke:none"
         d="m 4701.9,5461.19 c 167.63,74.05 364.95,50.84 513.52,-55.25 -171.33,17.41 -342.2,39.01 -513.52,55.25 l 0,0"
         inkscape:connector-curvature="0" /><path
         id="path30"
         style="fill:#ffffff;fill-opacity:1;fill-rule:nonzero;stroke:none"
         d="m 1442.77,4856.44 c 730.8,218.69 1486.44,365.64 2249.98,391.18 32.5,-41.09 66.86,-80.79 102.38,-119.33 -960.4,-20.67 -1914.53,-215.91 -2811.56,-557.62 1.164,54.32 9.297,116.76 64.31,143 124.43,64.77 262.1,99.13 394.89,142.77 l 0,0"
         inkscape:connector-curvature="0" /><path
         id="path32"
         style="fill:#ffffff;fill-opacity:1;fill-rule:nonzero;stroke:none"
         d="m 4311.19,5246.69 c 787.45,-25.08 1565.62,-185.72 2317.32,-415.56 137.2,-47.12 280.21,-82.63 409.04,-150.42 54.32,-27.17 62.69,-90.55 67.08,-144.64 -924.64,357.75 -1908.01,568.3 -2900.22,592.22 37.61,37.84 74.06,76.38 106.78,118.4 l 0,0"
         inkscape:connector-curvature="0" /><path
         id="path34"
         style="fill:#ffffff;fill-opacity:1;fill-rule:nonzero;stroke:none"
         d="m 3173.43,4838.33 c 50.38,145.33 228.21,188.75 365.41,168.08 92.62,-10.68 178.99,-82.87 186.41,-179.45 6.27,-102.38 0.47,-205.22 2.55,-307.83 23.45,-20.19 52.94,-37.84 60.6,-70.34 -5.8,-35.29 -37.61,-55.71 -61.05,-79.16 -2.56,-119.1 6.96,-238.65 -4.89,-357.27 -21.12,-119.57 -144.63,-186.43 -257.21,-191.99 -110.27,-14.4 -255.6,11.83 -293.44,133.24 -27.62,125.36 -5.8,255.83 -14.39,383.29 -19.74,24.83 -77.07,54.32 -44.57,91.23 13.93,18.58 29.02,35.98 45.03,52.69 7.43,118.86 -13.69,240.74 15.55,357.51 l 0,0"
         inkscape:connector-curvature="0" /><path
         id="path36"
         style="fill:#ffffff;fill-opacity:1;fill-rule:nonzero;stroke:none"
         d="m 3809.05,5013.37 c 133.73,2.33 268.61,11.14 401.62,-5.1 104.01,-12.31 190.36,-102.61 194.08,-208.24 2.56,-119.09 27.86,-260.24 -74.97,-347.06 126.05,-122.34 60.58,-309.92 77.99,-464.76 52.93,-33.89 63.61,-91.48 60.59,-150.9 -68.71,13.92 -160.64,-15.55 -212.19,40.39 -35.5,148.58 10.7,308.06 -23.9,457.34 -39.7,67.54 -130.95,41.31 -195.24,51.3 -3.94,-178.76 -0.93,-357.51 -1.63,-536.27 -56.41,0 -112.36,0 -168.53,0 -0.47,174.82 1.15,349.85 -0.94,524.66 -16.48,18.11 -31.56,36.91 -45.5,56.87 -9.05,38.54 26.24,63.38 45.28,91.24 1.84,115.15 1.84,230.53 0,345.68 -38.32,39.46 -54.09,90.77 -56.66,144.85 l 0,0"
         inkscape:connector-curvature="0" /><path
         id="path38"
         style="fill:#ffffff;fill-opacity:1;fill-rule:nonzero;stroke:none"
         d="m 4500.4,5000.61 c 94.95,-4.65 189.89,-11.85 284.38,-22.53 -0.93,-58.72 -34.12,-105.39 -63.13,-153.21 6.02,-290.42 3.24,-581.29 5.09,-871.95 57.11,-6.26 114,-12.07 171.33,-17.41 7.66,107.48 -9.3,216.83 10.9,322.91 48.54,12.78 98.44,3.72 147.43,0.24 -0.93,-156.01 3.72,-312 -3.02,-467.77 -165.77,10.43 -330.36,32.26 -495.88,42.93 0,177.37 0,354.73 0,532.09 -16.02,13.01 -32.03,26 -48.05,38.77 1.4,16.02 3.71,47.83 5.12,63.84 10.68,7.89 32.26,23.68 42.93,31.57 -0.22,119.33 0.71,238.65 -0.92,357.97 -40.85,37.38 -57.34,87.76 -56.18,142.55 l 0,0"
         inkscape:connector-curvature="0" /><path
         id="path40"
         style="fill:#ffffff;fill-opacity:1;fill-rule:nonzero;stroke:none"
         d="m 5119.76,4941.64 c 182,-27.4 365.89,-47.82 543.95,-95.65 4.17,-123.73 2.09,-247.46 1.61,-371.2 -48.74,16.25 -109.57,15.55 -146.71,54.79 -19.75,69.64 -5.8,144.63 -9.06,216.35 -57.56,9.53 -115.15,19.05 -172.48,28.1 -3.02,-120.49 -2.56,-240.74 -0.48,-361.22 76.85,-13.93 155.54,-21.37 230.77,-44.12 8.36,-43.86 4.65,-88.91 4.17,-133.24 -78.92,12.3 -157.16,26.47 -235.87,38.77 0,-132.56 -2.09,-264.89 1.63,-397.45 56.88,-9.51 114.22,-18.8 171.57,-27.85 0.23,74.98 -0.48,149.73 4.88,224.48 50.83,1.4 101.68,-3.94 152.28,-10.91 -9.76,-122.34 19.97,-253.5 -14.85,-370.04 -159.96,22.75 -318.05,57.1 -478.47,77.08 -0.7,158.32 0.93,316.64 0,475.2 6.74,53.86 -40.85,89.38 -57.11,136.74 16.93,23.21 35.75,44.8 56.89,64.53 0.44,113.75 -0.48,227.51 0.68,341.26 -17.65,20.66 -35.05,41.1 -52.46,61.52 -0.46,31.1 -0.69,61.98 -0.94,92.86 l 0,0"
         inkscape:connector-curvature="0" /><path
         id="path42"
         style="fill:#ffffff;fill-opacity:1;fill-rule:nonzero;stroke:none"
         d="m 2493,4881.52 c 68.72,11.37 137.44,23.44 206.38,32.26 -1.15,-59.89 -23.43,-114.91 -64.77,-158.09 -13.46,-108.88 -28.31,-217.76 -37.6,-326.86 -6.27,-40.86 36.68,-71.5 29.94,-112.13 -15.31,-22.29 -33.89,-42.02 -51.53,-62.22 -21.35,-165.75 -36.22,-332.43 -61.29,-497.49 2.09,-37.14 -38.76,-41.79 -65.23,-48.75 -61.52,-13.94 -124.2,-22.29 -186.88,-28.56 -50.14,244.92 -89.62,491.92 -135.35,737.77 -43.41,-243.76 -82.64,-487.98 -124.89,-731.74 -6.5,-26 -7.66,-58.5 -31.11,-75.91 -73.36,-28.09 -150.9,-43.18 -227.04,-60.59 -30.41,166.23 -44.57,334.53 -67.09,501.91 -72.2,19.5 -51.77,91.93 -19.27,138.59 -9.05,113.76 -25.07,226.81 -38.77,340.09 -18.1,14.86 -35.98,29.95 -54.09,44.81 -0.69,27.87 -1.62,55.71 -2.32,83.58 65.47,19.03 130.93,37.37 196.4,56.42 36.67,-322.24 72.89,-644.68 115.84,-966.21 52.47,321.29 97.27,643.75 158.33,963.64 2.78,81.72 104.92,109.34 169.23,81.72 73.6,-304.81 113.98,-616.82 171.09,-925.12 47.83,336.62 80.1,675.33 120.02,1012.88 l 0,0"
         inkscape:connector-curvature="0" /><path
         id="path44"
         style="fill:#1e2d57;fill-opacity:1;fill-rule:nonzero;stroke:none"
         d="m 3401.87,4867.12 c 65,30.64 165.29,-6.5 162.27,-87.52 1.4,-240.74 2.55,-481.48 -0.69,-722.21 -3.03,-122.81 -224.72,-147.66 -239.35,-18.58 -6.97,230.76 -0.7,461.99 -3.01,692.97 -5.35,56.64 22.51,119.09 80.78,135.34 l 0,0"
         inkscape:connector-curvature="0" /><path
         id="path46"
         style="fill:#1e2d57;fill-opacity:1;fill-rule:nonzero;stroke:none"
         d="m 4035.64,4877.56 c 65.68,-6.72 165.98,24.85 198.5,-54.08 16.69,-81.25 15.06,-167.61 2.53,-249.33 -26,-87.75 -134.17,-56.64 -201.27,-55.72 -0.23,119.8 -0.45,239.58 0.24,359.13 l 0,0"
         inkscape:connector-curvature="0" /><path
         id="path48"
         style="fill:#ffffff;fill-opacity:1;fill-rule:nonzero;stroke:none"
         d="m 5905.6,4797.71 c 79.17,-17.64 159.49,-31.58 236.09,-58.51 41.57,-12.06 60.36,-56.4 66.39,-95.87 25.32,-143.7 45.98,-288.1 73.59,-431.57 43.88,-40.62 71.5,-96.1 24.39,-147.17 29.01,-186.89 64.3,-372.84 93.09,-559.95 -54.8,14.85 -109.12,30.18 -163.67,45.73 -13.69,97.73 -19.26,196.63 -39.23,293.44 -62.21,48.29 -151.36,47.6 -225.2,72.19 -19.01,-94.94 -34.57,-190.59 -51.76,-286 -52,12.3 -103.76,24.37 -155.77,36.22 31.34,169.24 68.24,337.3 96.81,507 -20.42,36 -30.65,76.16 -33.19,117.47 15.55,3.72 46.43,11.15 61.98,14.86 22.04,112.83 45.25,225.18 66.86,338.02 -38.54,42.94 -50.62,97.73 -50.38,154.14 l 0,0"
         inkscape:connector-curvature="0" /><path
         id="path50"
         style="fill:#ffffff;fill-opacity:1;fill-rule:nonzero;stroke:none"
         d="m 716.133,4583.9 c 63.379,26 126.527,52.23 191.058,74.98 0.704,-65.23 -33.187,-120.48 -55.25,-179.45 -7.886,-148.11 -0.461,-296.92 -3.242,-445.49 12.996,-5.81 38.996,-17.88 52,-23.91 -10.918,-55.26 -53.629,-101.21 -51.769,-159.25 -1.621,-202.44 2.789,-404.88 -1.86,-607.31 -48.754,-22.28 -98.425,-42.71 -148.343,-62.21 -82.637,238.18 -149.973,481.48 -222.395,722.91 -9.754,-275.1 -2.559,-550.2 -4.18,-825.29 -46.894,-21.83 -93.324,-44.34 -139.754,-67.09 0,219.61 0,439.45 0,659.08 -13.226,5.56 -39.699,16.48 -52.933,22.04 8.363,44.11 25.535,85.44 51.773,121.88 2.317,149.97 0.696,299.93 1.16,449.9 -11.144,5.58 -33.89,16.95 -45.035,22.75 -0.703,34.13 -1.394,68.26 -2.086,102.16 66.153,30.86 131.625,63.14 199.172,90.07 86.367,-241.9 151.363,-490.77 230.531,-735.22 1.622,279.97 -0.933,559.71 1.153,839.45 l 0,0"
         inkscape:connector-curvature="0" /><path
         id="path52"
         style="fill:#ffffff;fill-opacity:1;fill-rule:nonzero;stroke:none"
         d="m 6462.06,4648.67 c 72.2,-21.59 148.8,-35.52 214.26,-74.28 91.7,-273.25 154.87,-556.23 236.8,-833.19 1.4,252.58 0.24,504.92 0.47,757.5 66.63,-24.14 133.26,-48.75 198.93,-75.21 -5.8,-46.43 -20.87,-90.09 -58.48,-120.5 -0.93,-97.03 -1.86,-194.07 -1.16,-291.1 -11.83,-73.36 89.15,-151.14 1.38,-206.16 -6.02,-172.48 7.43,-345.66 -8.11,-517.91 -49.22,15.78 -97.96,32.96 -146.73,50.14 -85.2,266.04 -151.83,537.88 -234,805.09 -2.8,-241.2 -0.46,-482.17 -1.17,-723.14 -48.51,16.01 -97.02,32.03 -145.31,47.59 0,175.97 0.93,352.16 -0.48,528.14 -44.57,41.31 -73.59,117.22 0.48,148.1 -13.69,137.43 36.68,290.89 -42.96,413.46 -7.89,29.95 -12.54,60.36 -13.92,91.47 l 0,0"
         inkscape:connector-curvature="0" /><path
         id="path54"
         style="fill:#ffffff;fill-opacity:1;fill-rule:nonzero;stroke:none"
         d="m 950.141,4447.86 c 176.439,64.07 351.009,138.13 535.109,178.05 3.95,-122.8 1.85,-245.61 1.63,-368.64 -49.92,-12.54 -100.53,-22.99 -151.83,-27.4 -5.1,73.12 -4.88,146.48 -5.1,219.61 -55.02,-20.65 -112.37,-36.22 -164.37,-63.84 -7.9,-117.92 -1.39,-236.56 -3.02,-354.72 76.15,25.3 151.82,52.46 229.37,72.66 1.39,-43.87 5.34,-87.98 -2.56,-131.4 -72.2,-34.82 -150.9,-53.39 -226.11,-81.25 -1.62,-132.09 -1.16,-264.19 -0.47,-396.28 55.72,19.28 111.67,38.08 167.38,56.88 3.72,73.36 -9.28,149.51 10.22,221.01 34.13,45.04 96.57,50.61 145.79,71.27 -1.17,-118.86 7.89,-238.18 -3.71,-356.58 -4.88,-5.58 -14.4,-16.48 -19.28,-22.06 -150.9,-58.03 -306.9,-102.6 -457.56,-162.04 0,176.9 -0.23,354.03 0.22,530.93 -12.983,6.27 -38.76,18.81 -51.526,25.07 3.485,44.11 22.059,83.34 50.376,116.77 1.62,114.92 1.39,229.6 0.24,344.28 -51.545,24.84 -53.163,78 -54.799,127.68 l 0,0"
         inkscape:connector-curvature="0" /><path
         id="path56"
         style="fill:#1e2d57;fill-opacity:1;fill-rule:nonzero;stroke:none"
         d="m 6080.17,4577.87 c 36.68,-190.84 66.17,-383.05 95.87,-575.28 -58.96,20.44 -137.66,15.33 -183.38,58.04 21.36,173.65 60.35,344.52 87.51,517.24 l 0,0"
         inkscape:connector-curvature="0" /><path
         id="path58"
         style="fill:#ffffff;fill-opacity:1;fill-rule:nonzero;stroke:none"
         d="m 7188.23,4431.84 c -0.48,67.56 59.41,124.21 126.97,119.8 153.69,-15.57 298.55,-115.39 362.85,-256.54 36.91,-80.32 23.44,-170.86 24.14,-256.51 -45.5,25.07 -98.44,43.41 -130.24,86.81 -43.87,58.28 -5.1,144.17 -55.7,198.72 -41.78,43.42 -108.41,86.36 -169.01,55.49 -19.04,-81.49 -8.82,-166.91 -8.82,-250.02 1.38,-72.9 60.12,-124.21 101.91,-177.37 30.19,-14.62 74.28,-16.94 88.23,-53.16 46.43,-133.96 177.13,-228.19 189.41,-375.85 4.43,-114.68 5.58,-230.06 -0.45,-344.51 -2.34,-71.97 -72.44,-119.08 -140.92,-107.01 -146.25,16.71 -289.26,103.07 -365.16,230.75 -52.24,83.57 -42.48,185.48 -42.26,279.51 50.15,-25.54 112.13,-39.47 146.72,-87.3 29.95,-63.37 -5.34,-148.1 51.76,-200.11 43.19,-48.05 133.49,-105.86 188.51,-46.66 15.55,98.89 6.51,200.34 6.29,300.18 1.15,70.34 -40.18,129.3 -78.95,183.86 -75.22,0.46 -120.95,59.65 -123.96,130.92 -68.49,80.1 -146.96,161.58 -169.47,268.14 -7.2,100.06 -4.65,200.58 -1.85,300.86 l 0,0"
         inkscape:connector-curvature="0" /><path
         id="path60"
         style="fill:#ffffff;fill-opacity:1;fill-rule:nonzero;stroke:none"
         d="m 868.43,3054.97 c 702.48,295.76 1444.19,501.91 2201.24,595.46 129.99,9.74 263.94,46.2 392.79,12.54 l 12.76,-25.08 c -32.49,-80.32 -94.01,-144.39 -130.92,-222.63 -117.24,-216.6 -149.28,-492.38 -31.8,-715.71 54.78,-118.63 148.57,-210.79 237.49,-303.9 -14.64,-2.08 -43.66,-6.25 -58.28,-8.34 -186.41,119.09 -331.5,311.77 -370.51,532.09 -40.63,201.73 8.37,407.88 78.93,596.85 -815.08,-68.25 -1608.1,-303.19 -2362.81,-611.02 -91.699,-41.32 -194.777,-35.98 -287.168,0.46 102.383,57.35 210.789,102.62 318.278,149.28 l 0,0"
         inkscape:connector-curvature="0" /><path
         id="path62"
         style="fill:#ffffff;fill-opacity:1;fill-rule:nonzero;stroke:none"
         d="m 4527.79,3666.44 c 78.71,12.08 158.78,12.31 237.72,2.79 841.31,-86.12 1667.3,-309.92 2442.67,-646.3 82.43,-36.21 164.59,-73.12 243.07,-117.7 -93.33,-35.98 -197.57,-41.32 -289.73,1.63 -753.33,307.36 -1545.18,541.6 -2358.62,609.15 68.46,-180.6 113.05,-376.31 83.34,-569.92 -33.68,-233.77 -185.73,-443.87 -386.77,-563.43 -11.84,3.95 -35.98,11.84 -47.81,15.56 127.2,117.93 243.05,258.15 288.07,429.01 67.34,230.53 -5.1,479.62 -132.55,675.55 -34.12,50.62 -72.44,100.99 -79.39,163.66 l 0,0"
         inkscape:connector-curvature="0" /><path
         id="path64"
         style="fill:#ffffff;fill-opacity:1;fill-rule:nonzero;stroke:none"
         d="m 3741.5,3389.03 c 91.7,4.17 162.74,83.34 257.92,73.12 96.35,11.84 168.79,-68.24 260.94,-72.89 101.21,-125.83 119.31,-301.33 69.64,-451.76 -84.51,-3.71 -143.48,-65.93 -207.07,-113.29 2.79,26.01 6.73,51.77 12.29,77.31 38.31,36.22 111.2,22.29 135.12,77.53 24.14,51.31 22.51,110.27 33.89,165.3 -133.48,1.62 -177.83,-139.29 -246.55,-226.35 -47.34,84.04 -29.24,184.1 -58.02,273.47 -23.68,-90.07 -5.34,-190.59 -56.42,-272.78 -66.85,88.23 -110.51,227.74 -244.69,224.72 11.61,-60.12 8.6,-126.98 42.72,-180.15 26.46,-38.76 78.01,-32.5 118.4,-42 9.06,-32.51 16.25,-65.48 23.21,-98.44 -64.77,48.29 -126.06,109.11 -211.26,116.78 -50.37,150.19 -28.31,323.15 69.88,449.43 l 0,0"
         inkscape:connector-curvature="0" /><path
         id="path66"
         style="fill:#b09449;fill-opacity:1;fill-rule:nonzero;stroke:none"
         d="m 1393.79,2886.66 c 495.86,169.24 1007.05,298.54 1527.07,368.42 -6.27,-79.63 -11.14,-159.26 -12.76,-238.88 -349.62,-73.13 -693.21,-171.56 -1037.95,-264.18 -166.92,-40.87 -375.39,-22.99 -476.36,134.64 l 0,0"
         inkscape:connector-curvature="0" /><path
         id="path68"
         style="fill:#b09449;fill-opacity:1;fill-rule:nonzero;stroke:none"
         d="m 5081.93,3255.55 c 520.02,-70.35 1030.53,-200.36 1527.3,-367.5 -100.74,-160.18 -311.54,-176.9 -479.37,-135.81 -344.28,93.79 -687.87,191.06 -1037.26,264.19 -0.7,79.63 -4.17,159.48 -10.67,239.12 l 0,0"
         inkscape:connector-curvature="0" /><path
         id="path70"
         style="fill:#e61836;fill-opacity:1;fill-rule:nonzero;stroke:none"
         d="m 3771.68,3037.09 c 32.74,13.23 67.56,-39.7 54.78,-68.71 -35.04,-18.1 -74.74,38.3 -54.78,68.71 l 0,0"
         inkscape:connector-curvature="0" /><path
         id="path72"
         style="fill:#e61836;fill-opacity:1;fill-rule:nonzero;stroke:none"
         d="m 4201.17,3035.01 c 61.05,31.1 34.82,-82.65 -13.71,-74.53 -39.94,9.05 -6.74,61.52 13.71,74.53 l 0,0"
         inkscape:connector-curvature="0" /><path
         id="path74"
         style="fill:#b09449;fill-opacity:1;fill-rule:nonzero;stroke:none"
         d="m 1709.97,2544.23 c 393.72,149.05 802.31,257.46 1214.83,340.1 18.57,-70.57 40.17,-139.98 64.31,-208.69 -265.58,-83.57 -530.69,-169.71 -799.98,-240.74 -165.99,-43.87 -350.09,-5.1 -479.16,109.33 l 0,0"
         inkscape:connector-curvature="0" /><path
         id="path76"
         style="fill:#e61836;fill-opacity:1;fill-rule:nonzero;stroke:none"
         d="m 3940.92,2717.66 c -5.34,63.84 8.59,124.9 59.2,167.38 35.98,-34.36 61.51,-76.38 66.15,-127 8.82,-9.74 26.49,-29.7 35.05,-39.46 -26.9,-365.17 -69.4,-730.34 -66.37,-1096.9 -2.1,-90.78 21.13,-178.99 28.54,-268.83 -15.08,-45.73 -40.16,-87.51 -61.75,-130.48 -22.05,44.12 -44.57,88.24 -67.56,131.88 26.94,110.27 35.53,223.78 35.29,336.84 -6.03,351.24 -44.8,700.62 -68.25,1050.94 9.99,-6.04 29.71,-18.34 39.7,-24.37 l 0,0"
         inkscape:connector-curvature="0" /><path
         id="path78"
         style="fill:#b09449;fill-opacity:1;fill-rule:nonzero;stroke:none"
         d="m 5013.69,2674.47 c 23.44,69.65 45.03,139.76 65,210.33 412.76,-84.5 822.5,-191.29 1216.44,-341.72 -131.63,-113.05 -315.71,-152.05 -482.86,-107.73 -268.84,70.35 -532.79,158.1 -798.58,239.12 l 0,0"
         inkscape:connector-curvature="0" /><path
         id="path80"
         style="fill:#e61836;fill-opacity:1;fill-rule:nonzero;stroke:none"
         d="m 3771.46,2595.54 c -8.84,50.84 -30.65,105.4 -5.81,155.08 46.43,-27.63 87.06,-72.43 85.89,-129.77 16.01,-211.25 33.2,-422.52 48.06,-634 -48.29,201.73 -79.87,406.95 -128.14,608.69 l 0,0"
         inkscape:connector-curvature="0" /><path
         id="path82"
         style="fill:#e61836;fill-opacity:1;fill-rule:nonzero;stroke:none"
         d="m 4151.25,2620.62 c 0.45,55.71 37.61,119.55 99.36,119.33 -1.15,-88.22 -27.4,-172.96 -44.57,-258.63 -36.23,-163.42 -61.76,-329.17 -102.15,-491.67 14.16,210.31 31.81,420.65 47.36,630.97 l 0,0"
         inkscape:connector-curvature="0" /><path
         id="path84"
         style="fill:#b09449;fill-opacity:1;fill-rule:nonzero;stroke:none"
         d="m 2091.86,2251.97 c 312.47,120.72 633.07,218.46 950.87,323.61 38.08,-49.91 77.07,-99.13 116.31,-148.12 -184.55,-74.74 -368.19,-152.05 -554.84,-221.22 -165.98,-60.6 -368.65,-74.99 -512.34,45.73 l 0,0"
         inkscape:connector-curvature="0" /><path
         id="path86"
         style="fill:#b09449;fill-opacity:1;fill-rule:nonzero;stroke:none"
         d="m 4959.59,2574.88 c 317.81,-103.53 637.71,-202.19 949.48,-322.69 -136.73,-117.7 -332.67,-107.48 -493.31,-51.53 -193.38,68.95 -382.12,149.97 -572.48,226.57 39.94,48.29 78.48,97.74 116.31,147.65 l 0,0"
         inkscape:connector-curvature="0" /><path
         id="path88"
         style="fill:#ffffff;fill-opacity:1;fill-rule:nonzero;stroke:none"
         d="m 3597.81,2005.65 c -34.36,136.75 -2.57,329.66 152.28,375.64 17.64,-73.62 32.97,-147.89 48.52,-221.96 -76.37,-37.83 -158.32,-77.08 -200.11,-156.22 -6.73,1.38 -19.96,4.4 -26.7,5.8 l 26.01,-3.26 0,0"
         inkscape:connector-curvature="0" /><path
         id="path90"
         style="fill:#ffffff;fill-opacity:1;fill-rule:nonzero;stroke:none"
         d="m 4205.11,2158.63 c 15.56,74.77 31.33,149.51 47.81,224.03 153.69,-48.99 189.44,-241.19 150.2,-378.87 l 25.32,5.35 c -6.5,-1.63 -19.52,-4.88 -26,-6.51 -40.4,79.4 -121.19,119.1 -197.33,156 l 0,0"
         inkscape:connector-curvature="0" /><path
         id="path92"
         style="fill:#b09449;fill-opacity:1;fill-rule:nonzero;stroke:none"
         d="m 2548.26,2032.58 c 223.09,125.82 464.75,216.6 699,320.37 45.73,-33.9 92.16,-66.39 139.05,-98.67 -156.7,-100.97 -310.15,-222.86 -500.27,-250.24 -112.83,-22.76 -229.14,-5.13 -337.78,28.54 l 0,0"
         inkscape:connector-curvature="0" /><path
         id="path94"
         style="fill:#b09449;fill-opacity:1;fill-rule:nonzero;stroke:none"
         d="m 4615.77,2254.28 c 48.29,32.51 96.13,65.25 143.71,98.67 230.99,-107.02 473.82,-192.46 693.88,-321.29 -131.62,-42.27 -275.08,-51.76 -408.35,-11.61 -160.41,42.03 -291.33,147.65 -429.24,234.23 l 0,0"
         inkscape:connector-curvature="0" /><path
         id="path96"
         style="fill:#ffffff;fill-opacity:1;fill-rule:nonzero;stroke:none"
         d="m 3345.46,1899.1 c 18.8,105.85 74.75,200.12 136.03,286.69 -0.46,-85.2 6.04,-170.62 28.56,-253.25 -37.37,-75.7 -67.79,-154.61 -92.16,-235.41 -27.16,65.69 -71.04,129.08 -72.43,201.97 l 0,0"
         inkscape:connector-curvature="0" /><path
         id="path98"
         style="fill:#ffffff;fill-opacity:1;fill-rule:nonzero;stroke:none"
         d="m 4522.23,2189.28 c 58.95,-91.71 117.91,-187.35 136.73,-296.69 -8.37,-68.94 -44.35,-130.47 -73.59,-192.46 -25.55,78.95 -54.8,156.48 -92.63,230.55 21.12,84.49 32.03,171.32 29.49,258.6 l 0,0"
         inkscape:connector-curvature="0" /><path
         id="path100"
         style="fill:#b09449;fill-opacity:1;fill-rule:nonzero;stroke:none"
         d="m 3598.5,2003.11 c 41.79,79.14 123.74,118.39 200.11,156.22 41.32,-254.21 144.17,-510.25 80.33,-769.58 -25.54,3.97 -50.61,7.91 -75.92,11.61 -22.28,212.65 -132.79,399.55 -209.63,595.25 l 5.11,6.5 0,0"
         inkscape:connector-curvature="0" /><path
         id="path102"
         style="fill:#b09449;fill-opacity:1;fill-rule:nonzero;stroke:none"
         d="m 4205.11,2158.63 c 76.14,-36.9 156.93,-76.6 197.33,-156 l 4.63,-6.5 c -74.53,-196.86 -182.69,-383.73 -210.55,-595.45 -23.92,-3.72 -47.83,-7.67 -71.73,-11.61 -16.26,93.08 -33.21,188.96 -16.73,283.23 29.27,162.73 63.61,324.31 97.05,486.33 l 0,0"
         inkscape:connector-curvature="0" /><path
         id="path104"
         style="fill:#b09449;fill-opacity:1;fill-rule:nonzero;stroke:none"
         d="m 2986.32,1872.39 c 87.76,75.7 188.04,134.41 283.69,199.19 -22.75,-70.1 -42.02,-141.15 -58.97,-212.64 -75.22,-4.41 -150.89,-1.63 -224.72,13.45 l 0,0"
         inkscape:connector-curvature="0" /><path
         id="path106"
         style="fill:#b09449;fill-opacity:1;fill-rule:nonzero;stroke:none"
         d="m 4733.48,2070.42 c 96.35,-63.84 195.01,-124.67 285.54,-196.62 -74.52,-16.71 -151.12,-19.75 -227.28,-14.4 -17.41,70.8 -36.68,141.38 -58.26,211.02 l 0,0"
         inkscape:connector-curvature="0" /><path
         id="path108"
         style="fill:#b09449;fill-opacity:1;fill-rule:nonzero;stroke:none"
         d="m 3417.89,1697.13 c 24.37,80.8 54.79,159.71 92.16,235.41 57.34,-161.83 144.87,-312.47 182.24,-481.49 -113.75,53.39 -203.13,144.62 -274.4,246.08 l 0,0"
         inkscape:connector-curvature="0" /><path
         id="path110"
         style="fill:#b09449;fill-opacity:1;fill-rule:nonzero;stroke:none"
         d="m 4310.74,1448.72 c 36.2,169.24 123.26,320.61 182,481.96 37.83,-74.07 67.08,-151.6 92.63,-230.55 -72.66,-102.35 -164.13,-191.04 -274.63,-251.41 l 0,0"
         inkscape:connector-curvature="0" /><path
         id="path112"
         style="fill:#e61836;fill-opacity:1;fill-rule:nonzero;stroke:none"
         d="m 1969.98,1655.56 c 156.23,-42.22 318.97,-64.76 480.55,-42.22 -44.81,-32.97 -89.15,-66.89 -133.03,-101.46 301.1,-63.61 629.59,-94.01 917.69,36.91 65.23,-215.89 218.68,-406.04 425.29,-500.76 287.17,-140.44 657.44,-83.339 886.58,140.7 106.1,96.33 176.44,224.71 221.47,359.58 288.1,-129.99 616.83,-100.52 917.69,-35.98 -44.35,33.9 -88.92,67.56 -133.72,100.75 161.81,-21.58 325.7,-1.15 481.94,43.89 C 5822.94,1142.53 5409.72,714.91 4900.63,490.43 4469.07,296.812 3974.81,250.129 3513.76,353.68 2828,502.969 2233.47,1005.55 1969.98,1655.56 l 0,0"
         inkscape:connector-curvature="0" /><path
         id="path114"
         style="fill:#b09449;fill-opacity:1;fill-rule:nonzero;stroke:none"
         d="m 3341.74,1620.99 c 95.88,-124.67 213.12,-232.85 359.14,-295.98 -26,-40.18 -53.63,-79.65 -82.89,-117.71 -130.92,105.85 -250.02,241.19 -276.25,413.69 l 0,0"
         inkscape:connector-curvature="0" /><path
         id="path116"
         style="fill:#ffffff;fill-opacity:1;fill-rule:nonzero;stroke:none"
         d="m 4577.23,1518.37 c 27.86,33.88 55.95,67.55 84.51,100.99 -27.86,-94.27 -65.91,-186.42 -126.3,-264.66 14.17,48.52 26.23,97.74 37.85,146.96 0.92,4.17 3.01,12.54 3.94,16.71 l 0,0"
         inkscape:connector-curvature="0" /><path
         id="path118"
         style="fill:#b09449;fill-opacity:1;fill-rule:nonzero;stroke:none"
         d="m 4301.22,1323.6 c 97.03,49.22 186.87,110.98 272.07,178.06 -11.62,-49.22 -23.68,-98.44 -37.85,-146.96 -41.07,-57.11 -97.5,-100.75 -149.96,-146.95 -29.24,37.84 -58.03,76.15 -84.26,115.85 l 0,0"
         inkscape:connector-curvature="0" /><path
         id="path120"
         style="fill:#ffffff;fill-opacity:1;fill-rule:nonzero;stroke:none"
         d="m 2547.56,1145.99 c 58.74,62.01 117.01,124.67 177.83,184.82 50.15,-49.7 105.62,-95.42 146.71,-153.24 26.94,-58.74 -41.09,-127.2 -100.52,-105.16 -42.24,22.06 -74.98,57.81 -110.5,88.68 -22.28,-21.81 -44.81,-43.41 -67.09,-65.47 -11.61,12.78 -34.82,37.86 -46.43,50.37 l 0,0"
         inkscape:connector-curvature="0" /><path
         id="path122"
         style="fill:#ffffff;fill-opacity:1;fill-rule:nonzero;stroke:none"
         d="m 5195.91,1259.53 c 37.39,50.83 99.6,65.22 159.02,70.35 -8.12,-13.95 -24.6,-42.26 -32.96,-56.2 -36.44,-15.56 -132.56,-52.46 -90.07,-99.12 60.37,23.67 110.97,87.76 181.32,73.59 69.17,-38.07 39.22,-129.06 -11.86,-168.53 -39.92,-46.66 -103.54,-51.78 -160.4,-53.39 32.72,79.14 152.99,68.24 163.44,166.68 -68.49,-18.35 -122.35,-81.74 -194.8,-81.74 -68,19.75 -58.73,109.36 -13.69,148.36 l 0,0"
         inkscape:connector-curvature="0" /><path
         id="path124"
         style="fill:#b09449;fill-opacity:1;fill-rule:nonzero;stroke:none"
         d="m 3800.01,1296.21 c 35.75,-6.96 71.5,-13.69 107.48,-20.2 27.62,-58.26 42.71,-121.17 45.73,-185.72 -80.78,12.06 -159.94,32.97 -236.32,61.76 29.01,47.36 57.1,95.17 83.11,144.16 l 0,0"
         inkscape:connector-curvature="0" /><path
         id="path126"
         style="fill:#b09449;fill-opacity:1;fill-rule:nonzero;stroke:none"
         d="m 4099.47,1269.28 c 32.05,14.17 66.63,20.65 100.07,29.72 26.93,-50.37 56.4,-99.59 87.98,-147.43 -77.78,-27.61 -158.1,-48.52 -239.59,-62.21 5.81,62.21 9.75,129.77 51.54,179.92 l 0,0"
         inkscape:connector-curvature="0" /><path
         id="path128"
         style="fill:#e61836;fill-opacity:1;fill-rule:nonzero;stroke:none"
         d="m 2734.91,1246.06 c 27.16,-32.25 88.9,-55.72 71.5,-106.32 -47.83,-19.72 -75.22,37.61 -109.57,60.34 9.51,11.62 28.55,34.6 38.07,45.98 l 0,0"
         inkscape:connector-curvature="0" /><path
         id="path130"
         style="fill:#ffffff;fill-opacity:1;fill-rule:nonzero;stroke:none"
         d="m 2886.5,852.789 c 44.34,73.141 88.68,146.031 132.79,219.161 70.57,-42.48 141.84,-84.028 211.72,-128.149 -50.84,-72.899 -118.63,24.609 -174.58,45.969 -10.44,-12.758 -20.89,-25.301 -31.11,-38.059 44.81,-27.422 91.94,-51.781 133.26,-84.289 -1.86,-12.293 -5.8,-36.922 -7.9,-49.203 -50.61,27.843 -100.52,57.332 -149.96,87.062 -6.97,-10.929 -20.67,-32.511 -27.63,-43.422 49.44,-29.707 98.89,-59.187 148.81,-88.457 -5.34,-12.062 -15.79,-36.211 -20.9,-48.511 -71.73,42.699 -143.46,84.738 -214.5,127.898 l 0,0"
         inkscape:connector-curvature="0" /><path
         id="path132"
         style="fill:#ffffff;fill-opacity:1;fill-rule:nonzero;stroke:none"
         d="m 4953.32,1042.01 c 11.37,11.83 34.12,35.75 45.73,47.58 47.13,-75.68 93.1,-152.051 138.12,-229.129 -88.66,-56.641 -183.85,19.969 -273,37.601 27.64,-46.421 59.43,-90.992 81.03,-140.91 -11.38,-10.679 -34.37,-32.043 -45.72,-42.941 -48.29,73.59 -93.57,148.809 -137.69,224.711 14.4,8.598 43.2,26.008 57.59,34.59 70.8,-22.992 141.83,-45.02 212.65,-67.782 -27.18,44.79 -56.65,88.692 -78.71,136.28 l 0,0"
         inkscape:connector-curvature="0" /><path
         id="path134"
         style="fill:#ffffff;fill-opacity:1;fill-rule:nonzero;stroke:none"
         d="m 3285.56,645.492 c 26.23,81.028 53.17,161.797 80.56,242.379 16.48,-5.582 49.45,-16.262 65.93,-21.601 -21.13,-64.079 -42.48,-127.911 -63.38,-191.989 43.18,-14.39 86.13,-28.789 129.31,-43.41 -3.48,-12.531 -10.68,-37.84 -14.39,-50.379 -66.16,21.36 -132.1,43.168 -198.03,65 l 0,0"
         inkscape:connector-curvature="0" /><path
         id="path136"
         style="fill:#ffffff;fill-opacity:1;fill-rule:nonzero;stroke:none"
         d="m 4457.46,829.129 c 22.74,7.43 45.73,14.844 68.72,22.062 64.06,-69.429 127.68,-139.539 191.27,-209.64 -18.09,-5.801 -54.32,-17.192 -72.66,-22.989 -9.04,9.747 -27.38,29.008 -36.44,38.77 -36.68,-10.91 -73.13,-21.82 -109.59,-33.422 -9.04,-45.75 -48.03,-64.769 -87.28,-80.32 13,95.64 30.18,190.34 45.98,285.539 l 0,0"
         inkscape:connector-curvature="0" /><path
         id="path138"
         style="fill:#ffffff;fill-opacity:1;fill-rule:nonzero;stroke:none"
         d="m 3669.07,543.109 c 13.93,82.18 21.13,165.77 41.78,246.543 16.5,-0.222 49.22,-0.922 65.7,-1.152 -12.29,-85.43 -25.53,-170.641 -38.99,-255.84 -22.75,3.492 -45.74,6.992 -68.49,10.449 l 0,0"
         inkscape:connector-curvature="0" /><path
         id="path140"
         style="fill:#ffffff;fill-opacity:1;fill-rule:nonzero;stroke:none"
         d="m 3936.04,621.582 c -29.95,171.797 231.91,210.789 309.22,82.43 -18.57,-2.571 -55.95,-7.442 -74.51,-10 -39,15.547 -81.03,52.937 -122.82,22.058 -55.47,-25.781 -56.64,-114.218 -2.77,-142.3 71.96,-45.051 131.39,53.16 207.06,42.48 -41.31,-141.379 -297.61,-152.051 -316.18,5.332 l 0,0"
         inkscape:connector-curvature="0" /><path
         id="path142"
         style="fill:#e61836;fill-opacity:1;fill-rule:nonzero;stroke:none"
         d="m 4512.46,766.922 c 19.52,-22.281 38.79,-44.602 58.29,-67.11 -24.14,-6.96 -48.52,-13.91 -72.66,-20.882 4.62,29.472 9.49,58.722 14.37,87.992 l 0,0"
         inkscape:connector-curvature="0" /></g></g></svg>