<?xml version="1.0" encoding="UTF-8" standalone="no"?>
<!-- Generator: Adobe Illustrator 14.0.0, SVG Export Plug-In . SVG Version: 6.00 Build 43363)  -->

<svg
   xmlns:dc="http://purl.org/dc/elements/1.1/"
   xmlns:cc="http://creativecommons.org/ns#"
   xmlns:rdf="http://www.w3.org/1999/02/22-rdf-syntax-ns#"
   xmlns:svg="http://www.w3.org/2000/svg"
   xmlns="http://www.w3.org/2000/svg"
   xmlns:sodipodi="http://sodipodi.sourceforge.net/DTD/sodipodi-0.dtd"
   xmlns:inkscape="http://www.inkscape.org/namespaces/inkscape"
   version="1.1"
   id="Layer_1"
   x="0px"
   y="0px"
   width="40"
   height="36.514515"
   viewBox="0 0 40 36.514515"
   enable-background="new 0 0 250 229"
   xml:space="preserve"
   inkscape:version="0.91 r13725"
   sodipodi:docname="Oklahoma_City_Thunder_resized.svg"><metadata
     id="metadata5689"><rdf:RDF><cc:Work
         rdf:about=""><dc:format>image/svg+xml</dc:format><dc:type
           rdf:resource="http://purl.org/dc/dcmitype/StillImage" /><dc:title></dc:title></cc:Work></rdf:RDF></metadata><defs
     id="defs5687" /><sodipodi:namedview
     pagecolor="#ffffff"
     bordercolor="#666666"
     borderopacity="1"
     objecttolerance="10"
     gridtolerance="10"
     guidetolerance="10"
     inkscape:pageopacity="0"
     inkscape:pageshadow="2"
     inkscape:window-width="826"
     inkscape:window-height="480"
     id="namedview5685"
     showgrid="false"
     inkscape:zoom="1.0305677"
     inkscape:cx="-84.346749"
     inkscape:cy="-50.600972"
     inkscape:window-x="0"
     inkscape:window-y="0"
     inkscape:window-maximized="0"
     inkscape:current-layer="Layer_1"
     fit-margin-top="0"
     fit-margin-left="0"
     fit-margin-right="0"
     fit-margin-bottom="0" /><g
     id="g5663"
     transform="matrix(0.16666703,0,0,0.16666703,-0.83326104,-0.8260018)"><path
       d="m 45.378,95.801 6.668,-3.258 -28.141,-57.689 6.67,-3.247 -3.252,-6.675 -20.006,9.761 3.25,6.669 6.676,-3.25 28.135,57.689 z m 14.8,-7.248 7.057,-2.296 -9.917,-30.518 7.057,-2.296 9.917,30.523 7.06,-2.291 -22.129,-68.104 -7.054,2.293 9.915,30.524 -7.057,2.293 -9.918,-30.521 -7.06,2.293 22.129,68.1 z M 97.47,6.328 90.134,7.486 100.177,70.879 92.845,72.037 82.808,8.645 75.475,9.812 85.03,70.133 c 0.959,6.043 6.695,10.209 12.737,9.25 6.041,-0.954 10.207,-6.693 9.255,-12.736 L 97.47,6.328 Z m 15.632,70.226 7.422,0.125 0.36,-20.753 c 0.111,-6.318 -0.266,-19.06 -0.566,-25.089 l 0.2,0.006 c 1.929,15.983 5.476,30.889 7.827,45.974 l 7.012,0.126 1.255,-71.598 -7.418,-0.125 -0.362,20.75 c -0.108,6.321 0.269,19.069 0.559,25.086 l -0.196,-0.003 c -1.931,-15.977 -5.48,-30.886 -7.822,-45.968 l -7.021,-0.129 -1.25,71.598 z m 27.705,0.532 14.667,2.32 c 4.06,0.646 7.842,-2.106 8.488,-6.169 l 8.881,-56.06 c 0.638,-4.066 -2.106,-7.851 -6.172,-8.495 l -14.654,-2.319 -11.21,70.723 z m 17.376,-62.234 7.33,1.161 -8.875,56.065 -7.336,-1.167 8.881,-56.059 z m 52.207,5.756 -14.113,-4.583 c -3.908,-1.27 -8.082,0.851 -9.354,4.765 L 169.38,74.772 c -1.27,3.911 0.859,8.083 4.762,9.352 l 14.119,4.586 2.291,-7.056 -14.117,-4.589 7.626,-23.462 10.592,3.44 2.287,-7.052 -10.583,-3.446 7.617,-23.462 14.126,4.587 2.29,-7.062 z m -18.797,69.621 31.48,-64.534 13.364,6.526 c 3.712,1.808 5.236,6.242 3.432,9.948 L 228.273,65.95 c -1.503,3.071 -4.101,4.379 -7.028,2.948 l -7.96,31.91 -6.689,-3.262 7.965,-31.918 -2.17,-1.059 -14.111,28.92 -6.687,-3.26 z m 34.896,-54.583 -10.841,22.234 6.69,3.264 10.843,-22.236 -6.692,-3.262 z"
       id="path5665"
       inkscape:connector-curvature="0"
       style="fill:#1e3160" /><path
       d="m 50.981,195.063 c -0.755,-0.059 -1.486,-0.19 -2.211,-0.378 -7.475,-3.249 -3.599,-11.001 -1.369,-16.053 2.886,-6.487 5.848,-12.943 8.897,-19.361 -16.171,5.061 -31.919,10.373 -47.165,15.913 -3.822,1.623 -6.146,-0.937 -1.734,-3.54 15.49,-9.857 32.604,-18.852 51.043,-26.735 -4.507,-9.416 -8.126,-19.48 -10.798,-30.238 l -2.112,-8.509 c 26.78,-13.789 49.414,-21.409 79.827,-21.409 30.405,0.003 53.042,7.623 79.824,21.412 -0.5,2.044 -1.021,4.083 -1.562,6.119 13.32,-0.465 26.294,-0.196 38.775,0.775 2.989,0.205 2.989,3.642 0.122,3.943 -13.879,1.961 -28.011,4.236 -42.332,6.834 -0.892,2.747 -1.84,5.435 -2.837,8.073 15.274,-3.244 30.245,-5.432 44.736,-6.581 3.727,-0.34 3.773,3.229 0.743,3.875 -16.948,5.198 -34.212,10.952 -51.687,17.256 -14.871,30.758 -36.698,51.339 -65.784,68.775 -12.925,-7.758 -24.711,-16.366 -35.523,-26.873 -23.886,11.156 -46.756,22.824 -68.412,34.803 -3.273,2.071 -6.225,0.274 -2.276,-3.229 9.774,-8.622 20.415,-16.956 31.835,-24.872"
       id="path5667"
       inkscape:connector-curvature="0"
       style="fill:#ffffff" /><path
       d="m 20.462,221.437 c 13.748,-12.154 29.239,-23.711 46.214,-34.35 3.192,-1.621 6.39,-3.218 9.594,-4.81 1.324,-0.652 3.915,-1.91 7.171,-3.472 2.184,2.457 4.451,4.844 6.799,7.166 -24.379,11.374 -47.709,23.247 -69.778,35.466 m 173.711,-86.809 c 16.428,-3.65 32.527,-6.084 48.068,-7.321 -17.224,5.279 -34.771,11.139 -52.547,17.564 1.589,-3.308 3.069,-6.725 4.479,-10.243"
       id="path5669"
       inkscape:connector-curvature="0"
       style="fill:#0a7ec2" /><path
       d="m 8.456,173.321 c 15.951,-10.142 33.62,-19.376 52.694,-27.396 0.632,1.278 1.29,2.548 1.956,3.8 -1.027,2.1 -2.046,4.194 -3.058,6.3 -17.732,5.473 -34.949,11.246 -51.592,17.296 M 200.982,114.37 c 14.198,-0.6 27.999,-0.366 41.259,0.669 -14.277,2.021 -28.824,4.369 -43.581,7.054 0.813,-2.524 1.585,-5.096 2.322,-7.723"
       id="path5671"
       inkscape:connector-curvature="0"
       style="fill:#f05333" /><path
       d="m 125.357,91.668 c 26.887,0 47.971,6.289 71.773,18.153 -11.647,43.89 -32.957,73.372 -71.768,97.326 -14.577,-9.016 -26.972,-19.075 -37.33,-30.533 4.604,-2.188 9.798,-4.656 14.362,-6.813 1.849,0.17 3.616,0.264 5.265,0.302 -0.101,2.53 -0.898,4.388 -2.173,5.716 0.743,0.851 1.498,1.696 2.255,2.53 2.01,-1.799 3.304,-4.458 3.408,-8.231 4.721,-0.079 9.277,-0.559 13.51,-1.463 -0.24,6.921 -1.204,12.011 -3.172,14.029 -0.069,0.062 -0.108,0.117 -0.138,0.178 -0.494,0.524 -0.935,0.954 -1.312,1.29 1.901,-0.351 3.77,-0.792 5.616,-1.311 2.371,-4.911 2.406,-13.52 2.441,-15.014 4.405,-1.106 8.325,-2.221 11.853,-3.426 0.138,4.04 1.752,7.9 4.838,9.322 1.39,-0.977 2.738,-2.019 4.043,-3.098 -0.781,0.114 -5.669,0.453 -5.593,-7.397 10.328,-3.896 17.05,-8.591 22.968,-15.597 1.562,-3.53 2.822,-7.233 3.718,-11.065 -7.082,11.165 -13.602,17.688 -26.335,22.798 0.365,-2.249 1.023,-4.949 2.065,-8.167 3.715,-1.559 7.594,-3.413 9.925,-4.376 l 5.569,-5.847 c 1.401,-5.406 2.79,-10.812 4.18,-16.217 l -4.353,1.356 5.119,-5.382 c 1.07,-4.229 2.13,-8.464 3.186,-12.696 -2.565,0.375 -5.134,0.757 -7.696,1.155 0.427,-2.115 0.731,-4.212 0.896,-6.304 -1.234,-0.313 -2.475,-0.608 -3.721,-0.889 -0.264,2.352 -0.72,4.958 -1.416,7.863 l -0.356,0.059 c -2.408,0.403 -4.868,1.19 -7.009,2.998 l 0.685,-2.083 c -4.125,0.746 -8.237,1.503 -12.353,2.302 l -4.096,4.303 0.138,-0.349 1.328,-3.442 c -4.069,0.831 -8.132,1.69 -12.192,2.574 -0.849,-5.485 -1.695,-10.443 -2.436,-14.453 -1.149,0.135 -2.3,0.29 -3.447,0.456 0.743,4.063 1.612,9.138 2.47,14.755 l -2.875,0.645 -3.66,3.853 c -2.563,-2.709 -7.765,-1.004 -11.043,-0.176 -3.55,0.901 -7.105,1.825 -10.646,2.785 -1.061,0.292 -2.115,0.614 -3.147,0.968 -2.66,-3.835 -5.155,-7.782 -7.216,-12.038 l -0.375,-0.79 c -1.072,0.442 -2.141,0.89 -3.201,1.357 l 0.455,0.945 c 2.007,4.158 4.427,8.048 7.034,11.819 -3.823,1.702 -7.357,4.066 -10.418,7.438 0,0 -4.976,5.21 -5.556,5.848 -1.294,1.485 -2.409,3.063 -3.389,4.674 C 60.812,133.792 56.669,122.355 53.564,109.829 77.369,97.963 98.459,91.662 125.357,91.668 m 2.632,66.439 c 2.472,-1.094 4.943,-2.167 7.406,-3.25 l 1.161,-1.208 c 0.489,0.082 1.048,0.1 1.677,0.035 0.959,-0.161 2.135,-0.491 3.416,-0.936 -0.831,3.033 -1.331,5.651 -1.564,7.933 -3.517,1.249 -7.465,2.416 -11.955,3.551 -0.006,-1.96 -0.053,-4.006 -0.141,-6.125 m -17.123,7.714 2.321,-1.077 5.958,-4.791 1.327,-3.665 c 0.86,1.743 1.33,2.428 2.184,4.186 l 1.956,-0.865 c 0.069,1.89 0.103,3.724 0.103,5.479 -4.305,0.982 -8.948,1.51 -13.742,1.585 l -0.107,-0.852 z"
       id="path5673"
       inkscape:connector-curvature="0"
       style="fill:#ffffff" /><path
       d="m 139.842,100.651 c 5.687,0 11.285,0.298 16.819,0.895 4.2,0.88 8.369,1.945 12.499,3.191 1.576,5.517 2.425,11.344 2.425,17.365 0,4.979 -0.573,9.816 -1.664,14.465 -7.082,11.165 -13.602,17.688 -26.335,22.798 0.365,-2.249 1.023,-4.949 2.065,-8.167 3.715,-1.559 7.594,-3.413 9.925,-4.376 l 5.569,-5.847 c 1.401,-5.406 2.79,-10.812 4.18,-16.217 l -4.353,1.356 5.119,-5.382 c 1.07,-4.229 2.13,-8.464 3.186,-12.696 -2.565,0.375 -5.134,0.757 -7.696,1.155 0.427,-2.115 0.731,-4.212 0.896,-6.304 -1.234,-0.313 -2.475,-0.608 -3.721,-0.889 -0.264,2.352 -0.72,4.958 -1.416,7.863 l -0.356,0.059 c -2.408,0.403 -4.868,1.19 -7.009,2.998 l 0.685,-2.083 c -4.125,0.746 -8.237,1.503 -12.353,2.302 l -4.096,4.303 0.138,-0.349 1.328,-3.442 c -4.069,0.831 -8.132,1.69 -12.192,2.574 -0.849,-5.485 -1.695,-10.443 -2.436,-14.453 6.165,-0.745 12.425,-1.119 18.793,-1.119 m 26.361,46.982 c -3.967,8.954 -9.951,16.805 -17.375,22.994 -0.781,0.114 -5.669,0.453 -5.593,-7.397 10.328,-3.897 17.05,-8.591 22.968,-15.597 m -21.418,26.092 c -5.751,4.052 -12.197,7.161 -19.131,9.117 2.371,-4.911 2.406,-13.52 2.441,-15.014 4.405,-1.106 8.325,-2.221 11.853,-3.426 0.137,4.04 1.751,7.901 4.837,9.323 m -24.747,10.427 c -1.938,0.357 -3.913,0.626 -5.905,0.805 -2.201,-2.141 -4.333,-4.35 -6.391,-6.607 2.01,-1.799 3.304,-4.458 3.408,-8.231 4.721,-0.079 9.277,-0.559 13.51,-1.463 -0.24,6.921 -1.204,12.011 -3.172,14.029 -0.069,0.062 -0.108,0.117 -0.138,0.178 -0.495,0.524 -0.935,0.953 -1.312,1.289 m -14.552,-8.333 c -1.525,-1.755 -3.017,-3.546 -4.466,-5.368 l 1.375,-0.649 c 1.849,0.17 3.616,0.264 5.265,0.302 -0.101,2.53 -0.898,4.387 -2.174,5.715 M 78.154,130.77 c -1.926,-4.879 -3.627,-9.881 -5.087,-14.992 1.606,-0.761 3.221,-1.489 4.841,-2.191 l 0.455,0.945 c 2.007,4.158 4.427,8.048 7.034,11.819 -2.564,1.142 -4.996,2.579 -7.243,4.419 m 2.956,-18.541 c 11.853,-4.853 23.978,-8.196 36.492,-10.001 0.743,4.063 1.612,9.138 2.47,14.755 l -2.875,0.645 -3.66,3.853 c -2.563,-2.709 -7.765,-1.004 -11.043,-0.176 -3.55,0.901 -7.105,1.825 -10.646,2.785 -1.061,0.292 -2.115,0.614 -3.147,0.968 -2.66,-3.835 -5.155,-7.782 -7.216,-12.038 l -0.375,-0.791 z m 46.879,45.878 c 2.472,-1.094 4.943,-2.167 7.406,-3.25 l 1.161,-1.208 c 0.489,0.082 1.048,0.1 1.677,0.035 0.959,-0.161 2.135,-0.491 3.416,-0.936 -0.831,3.033 -1.331,5.651 -1.564,7.933 -3.517,1.249 -7.465,2.416 -11.955,3.551 -0.006,-1.96 -0.053,-4.006 -0.141,-6.125 m -17.123,7.714 2.321,-1.077 5.958,-4.791 1.327,-3.665 c 0.86,1.743 1.33,2.428 2.184,4.186 l 1.956,-0.865 c 0.069,1.89 0.103,3.724 0.103,5.479 -4.305,0.982 -8.948,1.51 -13.742,1.585 l -0.107,-0.852 z"
       id="path5675"
       inkscape:connector-curvature="0"
       style="fill:#f05333" /><path
       d="M 126.521,199.846 C 115.102,192.11 104.914,182.997 96.11,172.772 l 4.91,-2.32 c 1.449,1.822 2.941,3.613 4.465,5.368 0.743,0.851 1.498,1.696 2.257,2.53 6.52,7.157 13.739,13.722 21.608,19.606 -0.934,0.638 -1.875,1.267 -2.829,1.89 M 72.693,136.189 c -3.346,-7.301 -6.153,-14.903 -8.394,-22.764 19.923,-9.404 40.548,-14.477 62.447,-15.067 10.238,0.088 20.187,1.158 29.915,3.188 -5.534,-0.597 -11.133,-0.898 -16.816,-0.898 -6.371,0 -12.631,0.374 -18.795,1.12 -1.151,0.135 -2.303,0.292 -3.444,0.459 -12.521,1.805 -24.643,5.148 -36.492,10.001 -1.075,0.442 -2.146,0.89 -3.206,1.357 -1.619,0.702 -3.234,1.43 -4.84,2.191 1.458,5.111 3.161,10.113 5.085,14.992 -1.104,0.901 -2.165,1.907 -3.171,3.019 l -2.289,2.402 z"
       id="path5677"
       inkscape:connector-curvature="0"
       style="fill:#fcbb30" /><path
       d="m 47.833,107.212 c 25.753,-13.256 48.346,-20.47 77.524,-20.47 29.18,0 51.777,7.213 77.512,20.47 -11.955,48.184 -34.788,80.094 -77.512,105.703 -16.118,-9.658 -30.205,-20.973 -41.917,-34.106 -3.256,1.559 -5.843,2.813 -7.171,3.472 -4.031,2.001 -8.063,4.022 -12.076,6.067 -4.53,2.305 -9.555,5.806 -14.773,4.449 -5.7,-2.476 -1.944,-9.41 -0.197,-13.356 4.43,-9.986 9.058,-19.899 13.882,-29.713 -5.794,-10.879 -10.351,-22.702 -13.542,-35.536 l -1.73,-6.98 z m 77.524,-15.544 c -26.898,-0.006 -47.988,6.295 -71.794,18.162 3.105,12.521 7.248,23.976 12.471,34.479 0.98,-1.611 2.094,-3.188 3.389,-4.674 0.581,-0.638 5.556,-5.848 5.556,-5.848 3.061,-3.372 6.595,-5.736 10.418,-7.438 -2.606,-3.771 -5.027,-7.661 -7.034,-11.819 l -0.455,-0.945 c 1.06,-0.468 2.129,-0.916 3.201,-1.357 l 0.375,0.79 c 2.061,4.256 4.556,8.203 7.216,12.038 1.033,-0.354 2.087,-0.676 3.147,-0.968 3.541,-0.96 7.096,-1.884 10.646,-2.785 3.279,-0.828 8.48,-2.533 11.043,0.176 l 3.66,-3.853 2.875,-0.645 c -0.858,-5.617 -1.727,-10.692 -2.47,-14.755 1.147,-0.167 2.298,-0.321 3.447,-0.456 0.74,4.01 1.587,8.968 2.436,14.453 4.06,-0.884 8.123,-1.744 12.192,-2.574 l -1.328,3.442 -0.138,0.349 4.096,-4.303 c 4.115,-0.798 8.228,-1.556 12.353,-2.302 l -0.685,2.083 c 2.141,-1.808 4.601,-2.595 7.009,-2.998 l 0.356,-0.059 c 0.696,-2.905 1.152,-5.511 1.416,-7.863 1.246,0.281 2.486,0.576 3.721,0.889 -0.164,2.092 -0.469,4.189 -0.896,6.304 2.563,-0.398 5.131,-0.781 7.696,-1.155 -1.056,4.232 -2.115,8.468 -3.186,12.696 l -5.119,5.382 4.353,-1.356 c -1.39,5.405 -2.778,10.811 -4.18,16.217 l -5.569,5.847 c -2.331,0.963 -6.21,2.817 -9.925,4.376 -1.042,3.218 -1.7,5.918 -2.065,8.167 12.733,-5.11 19.253,-11.633 26.335,-22.798 -0.896,3.832 -2.156,7.535 -3.718,11.065 -5.918,7.006 -12.64,11.7 -22.968,15.597 -0.076,7.851 4.812,7.512 5.593,7.397 -1.305,1.079 -2.653,2.121 -4.043,3.098 -3.086,-1.422 -4.7,-5.282 -4.838,-9.322 -3.527,1.205 -7.447,2.319 -11.853,3.426 -0.035,1.494 -0.07,10.103 -2.441,15.014 -1.846,0.519 -3.715,0.96 -5.616,1.311 0.377,-0.336 0.817,-0.766 1.312,-1.29 0.029,-0.061 0.069,-0.116 0.138,-0.178 1.969,-2.019 2.933,-7.108 3.172,-14.029 -4.233,0.904 -8.789,1.384 -13.51,1.463 -0.104,3.773 -1.398,6.433 -3.408,8.231 -0.758,-0.834 -1.512,-1.68 -2.255,-2.53 1.275,-1.328 2.073,-3.186 2.173,-5.716 -1.649,-0.038 -3.417,-0.132 -5.265,-0.302 -4.564,2.156 -9.758,4.625 -14.362,6.813 10.358,11.458 22.753,21.518 37.33,30.533 38.811,-23.954 60.12,-53.437 71.768,-97.326 C 173.328,97.957 152.244,91.668 125.357,91.668 m 2.632,66.439 c 0.088,2.118 0.135,4.165 0.141,6.125 4.49,-1.135 8.438,-2.302 11.955,-3.551 0.233,-2.281 0.733,-4.899 1.564,-7.933 -1.281,0.444 -2.457,0.774 -3.416,0.936 -0.629,0.064 -1.188,0.047 -1.677,-0.035 l -1.161,1.208 c -2.462,1.083 -4.934,2.157 -7.406,3.25 m -17.123,7.714 0.105,0.851 c 4.794,-0.075 9.438,-0.603 13.742,-1.585 0,-1.755 -0.034,-3.589 -0.103,-5.479 l -1.956,0.865 c -0.854,-1.758 -1.324,-2.442 -2.184,-4.186 l -1.327,3.665 -5.958,4.791 -2.319,1.078 z"
       id="path5679"
       inkscape:connector-curvature="0"
       style="fill:#1e3160" /><path
       d="m 92.296,126.109 c -6.054,1.645 -11.461,4.236 -15.786,9.019 -2.483,2.846 -4.253,6.104 -5.904,9.445 -4.845,9.84 -9.483,19.765 -13.925,29.78 -1.162,2.612 -4.721,8.963 -0.932,10.609 4.193,1.088 9.438,-2.434 13.141,-4.32 4.019,-2.045 8.054,-4.068 12.095,-6.075 6.883,-3.411 13.053,-7.556 17.238,-14.213 1.668,-2.812 2.907,-5.827 4.13,-8.834 2.627,-6.468 5.305,-12.933 8.037,-19.376 1.021,-2.413 2.807,-5.458 2.24,-8.094 -1.151,-3.537 -7.13,-1.378 -9.729,-0.729 -3.534,0.902 -7.075,1.826 -10.605,2.788 m -7.651,36.951 c -3.202,1.428 -6.391,2.867 -9.581,4.335 4.627,-10.727 9.426,-21.382 14.437,-31.951 2.801,-0.886 5.613,-1.761 8.437,-2.62 -4.588,10.018 -9.012,20.097 -13.293,30.236 m 54.776,-48.032 c -4.435,5.791 -8.816,11.632 -13.146,17.508 2.03,-5.379 4.071,-10.75 6.134,-16.104 -4.593,0.942 -9.175,1.941 -13.752,2.982 -1.189,2.765 -2.369,5.537 -3.534,8.313 0.981,-0.275 1.976,-0.55 2.962,-0.819 -3.604,8.714 -7.114,17.466 -10.555,26.229 -1.415,3.565 -2.815,7.132 -4.218,10.697 4.595,-2.168 9.194,-4.32 13.804,-6.441 2.087,-5.765 4.193,-11.521 6.326,-17.267 1.958,3.92 3.896,7.845 5.824,11.785 2.966,-1.325 5.949,-2.633 8.928,-3.932 -1.813,-4.136 -3.656,-8.266 -5.511,-12.391 3.299,-5.005 6.622,-9.995 9.988,-14.968 0.945,-0.222 1.89,-0.447 2.835,-0.667 0.708,-2.152 1.416,-4.307 2.127,-6.466 -2.742,0.497 -5.481,1.009 -8.212,1.541 m 17.796,-3.045 c -2.472,0.413 -4.703,1.199 -6.546,3.054 -1.51,1.629 -2.312,3.567 -2.979,5.632 -1.971,6.175 -3.948,12.355 -5.923,18.539 -0.775,2.44 -2.039,6.889 1.881,6.559 1.334,-0.22 2.592,-0.77 3.844,-1.302 3.96,-1.69 7.927,-3.355 11.905,-4.996 1.015,-3.879 2.023,-7.764 3.019,-11.653 -2.095,0.655 -4.174,1.319 -6.269,1.992 -0.491,1.746 -0.978,3.504 -1.46,5.25 -1.456,0.538 -2.901,1.064 -4.353,1.598 1.831,-6.269 3.668,-12.534 5.487,-18.803 1.287,-0.281 2.574,-0.552 3.861,-0.817 -0.307,1.098 -0.603,2.2 -0.909,3.298 1.875,-0.448 3.753,-0.898 5.628,-1.325 0.717,-2.821 1.43,-5.65 2.132,-8.473 -3.105,0.455 -6.218,0.935 -9.318,1.447"
       id="path5681"
       inkscape:connector-curvature="0"
       style="fill:#ffffff" /><path
       d="m 173.925,106.25 c 1.884,0.617 3.646,1.246 5.403,1.91 4.414,1.638 8.321,3.314 11.551,4.859 -9.969,34.208 -30.386,62.897 -59.187,83.312 l -2.346,1.626 c -8.436,-6.313 -13.415,-11.273 -13.415,-11.273 l 3.971,-0.652 c 12.047,-2.012 23.654,-7.462 33.251,-16.418 16.356,-15.261 23,-37.05 19.63,-57.583 -0.082,-0.465 -0.175,-0.93 -0.257,-1.395 l -0.032,-0.199 -0.041,-0.216 -0.05,-0.228 -0.044,-0.217 -0.044,-0.237 -0.047,-0.219 -0.056,-0.249 -0.056,-0.237 -0.047,-0.219 -0.035,-0.187 -0.067,-0.264 -0.052,-0.246 -0.05,-0.184 -0.032,-0.185 -0.047,-0.181 c -0.185,-0.737 -0.349,-1.363 -0.518,-1.969 0.885,0.283 1.757,0.567 2.617,0.851 m 0.316,0.4 c 1.761,0.603 3.577,1.237 5.306,1.89 -1.761,-0.667 -3.533,-1.293 -5.306,-1.89"
       id="path5683"
       inkscape:connector-curvature="0"
       style="fill:#0a7ec2" /></g></svg>