<?xml version="1.0" encoding="UTF-8" standalone="no"?>
<svg
   xmlns:dc="http://purl.org/dc/elements/1.1/"
   xmlns:cc="http://creativecommons.org/ns#"
   xmlns:rdf="http://www.w3.org/1999/02/22-rdf-syntax-ns#"
   xmlns:svg="http://www.w3.org/2000/svg"
   xmlns="http://www.w3.org/2000/svg"
   xmlns:sodipodi="http://sodipodi.sourceforge.net/DTD/sodipodi-0.dtd"
   xmlns:inkscape="http://www.inkscape.org/namespaces/inkscape"
   viewBox="0 0 39.4916 39.999998"
   height="40"
   width="39.4916"
   xml:space="preserve"
   id="svg2"
   version="1.1"
   inkscape:version="0.91 r13725"
   sodipodi:docname="Phoenix_Suns_resized.svg"><sodipodi:namedview
     pagecolor="#ffffff"
     bordercolor="#666666"
     borderopacity="1"
     objecttolerance="10"
     gridtolerance="10"
     guidetolerance="10"
     inkscape:pageopacity="0"
     inkscape:pageshadow="2"
     inkscape:window-width="826"
     inkscape:window-height="480"
     id="namedview46"
     showgrid="false"
     fit-margin-top="0"
     fit-margin-left="0"
     fit-margin-right="0"
     fit-margin-bottom="0"
     inkscape:zoom="0.22124998"
     inkscape:cx="19.744495"
     inkscape:cy="19.999986"
     inkscape:window-x="0"
     inkscape:window-y="0"
     inkscape:window-maximized="0"
     inkscape:current-layer="svg2" /><metadata
     id="metadata8"><rdf:RDF><cc:Work
         rdf:about=""><dc:format>image/svg+xml</dc:format><dc:type
           rdf:resource="http://purl.org/dc/dcmitype/StillImage" /><dc:title></dc:title></cc:Work></rdf:RDF></metadata><defs
     id="defs6" /><g
     transform="matrix(0.05,0,0,-0.05,0,40.000002)"
     id="g10"><g
       transform="scale(0.1,0.1)"
       id="g12"><path
         id="path14"
         style="fill:#586066;fill-opacity:1;fill-rule:nonzero;stroke:none"
         d="m 2141.65,7790.29 c 205.62,155.55 470.01,206.42 722.76,209.37 1655.57,-0.14 3311,0.26 4966.56,-0.14 30.53,3.88 56.51,-16.2 67.35,-43.77 l 0,-47.13 C 7315.18,5442.74 6731.91,2976.99 6148.37,511.109 6082.5,263.73 5870.32,62.5195 5623.6,0 L 6.82031,0 6.95703,7.35938 0,9.37109 0,57.0312 C 51.4023,248.461 96.9219,441.512 145.383,633.742 700.273,2845.94 1254.76,5058.13 1808.85,7270.47 c 54.48,201.47 163.45,393.57 332.8,519.82 l 0,0"
         inkscape:connector-curvature="0" /><path
         id="path16"
         style="fill:#12100e;fill-opacity:1;fill-rule:nonzero;stroke:none"
         d="m 2405.91,7860.7 c 189.02,69.21 393.04,75.5 592.23,74.02 1612.33,0.41 3224.78,-0.66 4837.12,0.54 C 7706.34,7365.91 7566.45,6798.97 7434.45,6230.17 6985.85,4336.71 6538.33,2443 6090.41,549.27 6023.87,256.629 5734.84,32.6797 5434.7,41.4883 3644.73,41.4883 1854.9,41.2305 65.0586,41.6406 659.039,2415.68 1255.03,4789.32 1849.55,7163.23 c 33.33,146.19 82.99,291.98 172.42,413.93 94.37,131.46 231.32,230.53 383.94,283.54 l 0,0"
         inkscape:connector-curvature="0" /><path
         id="path18"
         style="fill:#ffffff;fill-opacity:1;fill-rule:nonzero;stroke:none"
         d="M 6148.37,511.109 C 6731.91,2976.99 7315.18,5442.74 7898.32,7908.62 L 7898.32,0 5623.6,0 c 246.72,62.5195 458.9,263.73 524.77,511.109 l 0,0"
         inkscape:connector-curvature="0" /><path
         id="path20"
         style="fill:#586066;fill-opacity:1;fill-rule:nonzero;stroke:none"
         d="m 2536.7,7597.52 c 155.42,75.23 331.46,92.36 502.14,94.64 1466.28,-0.41 2932.69,0.53 4399.09,-0.54 -329.99,-1426.52 -659.98,-2853.16 -988.89,-4280.09 -42.97,-265.06 -280.59,-479.91 -545.79,-507.62 -48.6,-4.29 -97.45,-2.03 -146.18,-2.54 -1551.42,-0.15 -3102.84,0.39 -4654.25,-0.15 337.75,1349.15 680.59,2697.08 1020.09,4045.68 27.97,108.57 53.01,219.01 102.14,320.49 63.58,140.3 171.62,262.78 311.65,330.13 l 0,0"
         inkscape:connector-curvature="0" /><path
         id="path22"
         style="fill:#12100e;fill-opacity:1;fill-rule:nonzero;stroke:none"
         d="m 2591.04,7553.87 c 128.66,53.28 268.82,72.95 407.37,74.7 1453.42,0.54 2906.85,-0.8 4360.28,0.54 -316.48,-1381.4 -638.03,-2761.61 -955.97,-4142.6 -15.53,-62.79 -24.37,-127.86 -51.27,-187.15 -83,-189.98 -278.45,-329.32 -486.88,-335.22 -1561.07,0.54 -3122.12,-0.79 -4683.31,0.67 334.81,1323.71 668.15,2647.68 1003.09,3971.25 29.99,121.69 59.44,245.79 121.55,355.96 61.99,116.06 163.46,210.71 285.14,261.85 l 0,0"
         inkscape:connector-curvature="0" /><path
         id="path24"
         style="fill:#f79714;fill-opacity:1;fill-rule:nonzero;stroke:none"
         d="m 4835.38,7089.88 c 168.79,165.45 332.12,337.08 503.62,499.73 104,-232 218.87,-459.04 324.09,-690.5 213.25,94.65 424.77,194.11 637.75,289.83 -61.84,-268.81 -126.1,-537.08 -187.95,-806.03 249.67,-96.12 499.2,-192.64 748.06,-290.77 -193.3,-151.67 -386.87,-302.81 -580.06,-454.35 112.05,-266.54 215.67,-536.28 326.12,-803.35 -212.99,-15 -426.24,-26.37 -639.23,-41.76 -144.71,-441.24 -295.85,-880.46 -438.29,-1322.37 -17.82,6.56 -31.06,20.34 -44.72,32.66 -262.12,249.53 -525.57,497.6 -788.35,746.46 -122.63,-67.88 -245.79,-134.81 -367.34,-204.42 6.02,84.87 26.64,168 31.46,252.88 -441.51,-253.02 -882.21,-507.64 -1323.97,-760.38 -289.7,-169.21 -583.28,-331.99 -871.36,-504.02 31.72,38.69 73.49,66.67 112.05,97.86 412.18,332.66 824.1,665.73 1236.28,998.4 144.85,119.41 294.25,233.6 436.55,355.82 -850.34,-466.26 -1701.35,-931.2 -2551.28,-1398.27 -32.14,-16.32 -61.72,-40.83 -99.07,-43.5 11.51,6.02 23.29,11.51 34.27,18.48 729.05,527.7 1457.84,1055.83 2186.49,1584.07 53.95,39.63 110.45,75.91 161.45,119.28 C 2927.2,4363.75 2172.84,3960.94 1418.08,3559.2 c 9.64,9.09 19.55,18.07 29.72,26.64 678.45,508.3 1354.49,1020.21 2033.75,1527.71 -284.21,-142.43 -564.26,-293.43 -847,-439.08 -360.51,-189.57 -723.83,-374.17 -1082.73,-567.08 30.26,34.54 68.94,59.57 105.35,86.75 399.87,304.96 800.27,608.98 1200.01,913.93 168.81,129.85 340.3,255.96 506.96,388.36 -559.17,-301.75 -1123.03,-594.92 -1681.8,-897.2 -0.67,1.61 -2.14,4.55 -2.81,6.03 564.53,438.42 1129.32,876.71 1692.11,1317.41 -132.93,9.77 -265.33,27.17 -398.53,31.06 1.88,4.28 5.49,12.85 7.36,17.13 155.3,73.23 306.43,154.88 461.32,228.92 -8.04,9.77 -17.54,17.67 -28.38,23.82 -150.6,89.3 -300.01,180.46 -449.67,271.22 272.29,61.18 545.79,116.74 817.95,178.59 44.17,273.09 84.6,546.86 126.37,820.48 294.38,-134.53 590.9,-264.26 885.27,-398.79 12.72,-3.08 30.66,-18.35 42.05,-5.22 l 0,0"
         inkscape:connector-curvature="0" /><path
         id="path26"
         style="fill:#12100e;fill-opacity:1;fill-rule:nonzero;stroke:none"
         d="m 4900.42,7018.66 c 113.67,-7.64 227.58,-20.75 336.69,-54.89 10.32,-4.82 19.83,-10.85 28.65,-18.08 119.95,-92.36 224.76,-202.27 315.13,-323.56 56.36,11.39 111.92,31.06 155.3,70.29 31.04,-21.69 57.15,-49.27 82.32,-77.38 -49.67,-45.65 -112.72,-71.22 -176.57,-89.96 48.06,-76.04 86.21,-157.83 120.89,-240.83 104.8,-11.38 210.44,-17.41 314.06,-38.02 14.44,-33.2 29.43,-66.4 41.08,-100.67 -105.61,14.86 -211.91,26.64 -318.33,33.06 25.56,-83.26 46.18,-168 59.03,-254.22 117.95,-4.82 232,-44.44 330.52,-108.57 l 5.23,-3.07 c 0.66,-48.73 1.87,-97.59 2.41,-146.32 -86.88,86.88 -203.35,142.97 -325.98,153.28 23.02,-312.18 -34.39,-631.06 -179.37,-909.51 -92.64,-180.33 -218.76,-344.18 -371.9,-477.38 -103.75,-47.25 -220.88,-70.14 -334.67,-74.56 306.82,154.48 541.76,433.6 666.79,751.27 86.89,226.51 126.25,474.3 98.13,716.07 -125.29,-8.7 -248.58,-44.17 -357.97,-106.29 -131.98,-72.7 -245.51,-173.1 -358.23,-271.89 -238.42,-214.06 -472.56,-437.75 -750.33,-601.08 -100.54,-58.63 -203.09,-121.14 -316.08,-151 -47.38,47.65 -95.97,94.51 -135.33,149.13 210.84,62.11 414.72,150.2 599.99,268.95 165.2,101.87 314.6,226.77 458.24,356.76 154.62,138.42 311.38,280.72 501.22,369.61 108.43,52.61 227.97,80.32 348.06,87.15 -14.33,86.74 -38.15,171.48 -63.19,255.56 -93.18,9.63 -186.89,5.62 -280.19,1.2 -440.17,-18.6 -884.21,-110.71 -1276.98,-315.67 -186.62,-98.66 -360.52,-225.96 -494.65,-390.35 -19.55,-25.84 -40.43,-50.61 -63.99,-72.97 -12.99,81.4 -23.96,163.19 -24.5,245.79 261.72,251.27 597.19,412.45 942.71,513.12 319.29,92.37 652.21,128.91 983.68,132.26 56.89,0.8 113.79,-1.2 170.41,-6.69 -33.07,79.12 -76.57,153.28 -122.49,225.44 -227.18,9.63 -444.32,82.6 -661.04,144.71 -272.3,85.28 -572.3,73.76 -839.51,-24.36 -35.47,-13.12 -69.61,-31.33 -107.9,-34.14 89.7,97.46 196.26,180.72 312.99,243.37 145.79,8.04 292.24,-2.94 435.48,-30.92 262.92,-48.19 511.39,-158.1 777.65,-190.49 -136.01,174.83 -322.62,303.34 -523.17,393.71 l -4.29,2.14 0,0"
         inkscape:connector-curvature="0" /><path
         id="path28"
         style="fill:#d9521e;fill-opacity:1;fill-rule:nonzero;stroke:none"
         d="m 4214.75,6844.22 c 207.63,121.82 450.61,176.31 689.96,172.3 200.55,-90.37 387.16,-218.88 523.17,-393.71 -266.26,32.39 -514.73,142.3 -777.65,190.49 -143.24,27.98 -289.69,38.96 -435.48,30.92 l 0,0"
         inkscape:connector-curvature="0" /><path
         id="path30"
         style="fill:#d9521e;fill-opacity:1;fill-rule:nonzero;stroke:none"
         d="m 5265.76,6945.69 c 24.24,-1.47 48.86,-4.27 71.35,-14.18 144.86,-56.76 283.68,-134.01 399.08,-239.09 -43.38,-39.23 -98.94,-58.9 -155.3,-70.29 -90.37,121.29 -195.18,231.2 -315.13,323.56 l 0,0"
         inkscape:connector-curvature="0" /><path
         id="path32"
         style="fill:#d9521e;fill-opacity:1;fill-rule:nonzero;stroke:none"
         d="m 4009.66,6634.99 c 267.21,98.12 567.21,109.64 839.51,24.36 216.72,-62.11 433.86,-135.08 661.04,-144.71 45.92,-72.16 89.42,-146.32 122.49,-225.44 -56.62,5.49 -113.52,7.49 -170.41,6.69 -331.47,-3.35 -664.39,-39.89 -983.68,-132.26 -345.52,-100.67 -680.99,-261.85 -942.71,-513.12 -19.01,331.99 109.24,665.73 327.58,914.6 13.39,11.11 21.82,28.64 38.28,35.74 38.29,2.81 72.43,21.02 107.9,34.14 l 0,0"
         inkscape:connector-curvature="0" /><path
         id="path34"
         style="fill:#d9521e;fill-opacity:1;fill-rule:nonzero;stroke:none"
         d="m 5818.51,6615.04 2.01,1.61 c 104.69,-108.71 191.03,-234.41 256.37,-370.42 -103.62,20.61 -209.26,26.64 -314.06,38.02 -34.68,83 -72.83,164.79 -120.89,240.83 63.85,18.74 126.9,44.31 176.57,89.96 l 0,0"
         inkscape:connector-curvature="0" /><path
         id="path36"
         style="fill:#d9521e;fill-opacity:1;fill-rule:nonzero;stroke:none"
         d="m 4119.04,5868.04 c 392.77,204.96 836.81,297.07 1276.98,315.67 93.3,4.42 187.01,8.43 280.19,-1.2 25.04,-84.08 48.86,-168.82 63.19,-255.56 -120.09,-6.83 -239.63,-34.54 -348.06,-87.15 -189.84,-88.89 -346.6,-231.19 -501.22,-369.61 -143.64,-129.99 -293.04,-254.89 -458.24,-356.76 -185.27,-118.75 -389.15,-206.84 -599.99,-268.95 l -3.49,-0.94 c -133.06,161.45 -225.3,356.37 -268,561.18 23.56,22.36 44.44,47.13 63.99,72.97 134.13,164.39 308.03,291.69 494.65,390.35 l 0,0"
         inkscape:connector-curvature="0" /><path
         id="path38"
         style="fill:#d9521e;fill-opacity:1;fill-rule:nonzero;stroke:none"
         d="m 5799.64,6178.62 c 106.42,-6.42 212.72,-18.2 318.33,-33.06 36.95,-106.16 69.62,-216.6 71.22,-329.73 -98.52,64.13 -212.57,103.75 -330.52,108.57 -12.85,86.22 -33.47,170.96 -59.03,254.22 l 0,0"
         inkscape:connector-curvature="0" /><path
         id="path40"
         style="fill:#d9521e;fill-opacity:1;fill-rule:nonzero;stroke:none"
         d="m 5391.86,5719.32 c 109.39,62.12 232.68,97.59 357.97,106.29 28.12,-241.77 -11.24,-489.56 -98.13,-716.07 -125.03,-317.67 -359.97,-596.79 -666.79,-751.27 -7.77,-2.01 -23.17,-6.3 -30.79,-8.31 -357.84,-26.77 -724.24,101.35 -986.9,345.39 112.99,29.86 215.54,92.37 316.08,151 277.77,163.33 511.91,387.02 750.33,601.08 112.72,98.79 226.25,199.19 358.23,271.89 l 0,0"
         inkscape:connector-curvature="0" /><path
         id="path42"
         style="fill:#d9521e;fill-opacity:1;fill-rule:nonzero;stroke:none"
         d="m 5870.85,5819.72 c 122.63,-10.31 239.1,-66.4 325.98,-153.28 -0.54,48.73 -1.75,97.59 -2.41,146.32 28.91,-84.21 0.81,-172.15 -1.21,-257.83 -26.37,-332.4 -192.77,-645.66 -436.68,-870.02 -114.45,-101.88 -246.72,-183.4 -387.95,-242.71 -15.66,-6.29 -32,-9.37 -49,-9.37 153.14,133.2 279.26,297.05 371.9,477.38 144.98,278.45 202.39,597.33 179.37,909.51 l 0,0"
         inkscape:connector-curvature="0" /><path
         id="path44"
         style="fill:#ffffff;fill-opacity:1;fill-rule:nonzero;stroke:none"
         d="m 1055.69,2661.33 c 22.89,1.2 45.92,1.74 68.82,2.55 71.62,-2.95 143.24,-1.61 214.85,1.2 28.12,-9.5 38.3,-41.63 56.36,-62.79 -20.48,-60.63 -26.1,-125.7 -50.46,-185 -72.7,-19.16 -144.05,-43.51 -215,-68.28 -6.69,-34.8 -14.06,-69.62 -26.24,-103.08 13.26,-17.53 26.51,-35.06 39.23,-53.01 -53.82,-3.61 -107.77,-2.14 -161.586,-1.34 40.026,129.99 64.796,264.4 101.206,395.59 13.66,29.45 -25.97,45.93 -27.18,74.16 l 0,0"
         inkscape:connector-curvature="0" /><path
         id="path46"
         style="fill:#ffffff;fill-opacity:1;fill-rule:nonzero;stroke:none"
         d="m 1876.86,2654.5 c 47.65,24.9 102.94,0.54 153.68,12.06 -6.97,-66.94 -32.27,-130.4 -43.38,-196.79 30.66,8.15 61.44,15.92 93.04,19.14 24.9,54.88 27.31,116.72 47.79,172.55 34.4,1.48 68.94,0.81 103.22,4.82 -24.64,-136.14 -63.19,-270.01 -95.05,-404.82 -12.45,-23.02 10.98,-38.15 24.49,-52.61 1.08,-4.42 3.22,-13.13 4.29,-17.39 -51.81,-0.95 -103.48,-0.82 -155.15,-0.14 19.27,68.4 37.21,137.35 49.12,207.35 -32.12,-7.89 -64.25,-15.65 -96.38,-23.43 -1.21,-8.3 -3.75,-24.62 -5.08,-32.93 -15.67,-49.66 -26.38,-100.66 -38.43,-151.27 -36.54,-0.26 -73.23,-0.26 -109.77,0.14 36.54,139.23 71.49,278.98 103.21,419.28 -12.04,14.59 -23.96,29.33 -35.6,44.04 l 0,0"
         inkscape:connector-curvature="0" /><path
         id="path48"
         style="fill:#ffffff;fill-opacity:1;fill-rule:nonzero;stroke:none"
         d="m 2740.58,2607.37 c 23.56,18.22 46.86,36.56 70.15,55.03 58.77,1.2 117.54,-1.07 176.17,2.01 30.25,-1.88 40.97,-37.35 61.04,-55.15 -26.9,-118.21 -56.35,-236.01 -85.27,-353.68 -17,-27.45 -48.86,-43.12 -72.69,-64.54 -65.46,0 -130.93,-1.2 -196.39,0.82 -13.52,19.54 -27.58,38.55 -41.36,57.69 30.66,119 58.36,238.69 88.35,357.82 l 0,0"
         inkscape:connector-curvature="0" /><path
         id="path50"
         style="fill:#ffffff;fill-opacity:1;fill-rule:nonzero;stroke:none"
         d="m 3547.15,2662.94 c 101.07,0.94 202.81,-3.35 304.14,3.09 -8.03,-43.66 -18.47,-86.89 -32.79,-128.94 -12.32,11.26 -22.63,24.24 -29.72,38.96 -40.7,6.03 -82.06,5.62 -122.76,0.14 -5.89,-36.41 -15.26,-72.29 -23.43,-108.31 33.33,-0.25 66.67,-0.25 100.14,-0.13 -6.43,-27.17 -12.99,-54.21 -18.61,-81.65 -33.87,-0.13 -67.87,-0.13 -101.74,0 -9.78,-39.5 -21.02,-78.58 -29.45,-118.34 39.76,0 79.65,0.13 119.41,0 18.34,16.46 35.21,35.87 59.03,44.3 -3.61,-41.36 -17.53,-80.85 -26.37,-121.28 -92.9,0.4 -185.94,-0.54 -278.98,0.54 38.02,138.95 69.88,279.52 102.94,419.68 -11.51,13.79 -23.02,27.44 -34.4,41.1 l 12.59,10.84 0,0"
         inkscape:connector-curvature="0" /><path
         id="path52"
         style="fill:#ffffff;fill-opacity:1;fill-rule:nonzero;stroke:none"
         d="m 4371.92,2663.21 c 82.06,-2.15 164.25,0.67 246.33,-1.22 23.14,-8.82 33.32,-35.99 50.46,-53.01 -23.7,-115.91 -56.23,-229.85 -82.06,-345.25 -12.46,-24.36 8.17,-40.55 24.36,-55.01 0.14,-4.41 0.66,-13.25 0.93,-17.68 -50.59,-0.26 -101.07,-0.53 -151.53,0.28 34.14,128.51 62.37,258.76 97.59,387.01 -34,1.88 -68.15,2.14 -102.16,0 -26.09,-129.72 -65.85,-256.63 -90.08,-386.75 -36.95,-0.94 -73.9,-0.8 -110.85,-0.26 42.71,156.36 75.64,315.26 117.01,471.89 l 0,0"
         inkscape:connector-curvature="0" /><path
         id="path54"
         style="fill:#ffffff;fill-opacity:1;fill-rule:nonzero;stroke:none"
         d="m 5168.32,2662.14 c 50.99,0.39 102,-0.4 152.87,4.01 -34.13,-140.03 -65.74,-280.87 -104.42,-419.82 12.58,-17.66 25.71,-35.07 37.48,-53.55 -53,-3.35 -106.16,-2.14 -159.18,-0.92 26.24,71.33 37.09,147.64 56.51,221.14 14.59,57.03 28.1,114.46 43.1,171.48 15.53,31.6 -24.1,48.47 -26.36,77.66 l 0,0"
         inkscape:connector-curvature="0" /><path
         id="path56"
         style="fill:#ffffff;fill-opacity:1;fill-rule:nonzero;stroke:none"
         d="m 5801.92,2658.12 c 52.33,8.7 105.75,3.21 158.63,3.62 9.24,-47.67 22.76,-94.52 35.21,-141.52 34.13,45.53 67.33,91.71 101.74,136.83 32.4,19.14 73.23,0.53 108.97,4.55 -63.33,-80.18 -125.31,-161.32 -188.09,-241.78 19.81,-58.36 36.82,-117.66 55.55,-176.43 16.48,-20.62 47.26,-25.7 59.17,-51.01 -51.53,-2.66 -103.07,-1.34 -154.75,-1.34 -10.31,45.25 -24.5,89.7 -32.8,135.36 -34.4,-44.72 -67.73,-90.36 -101.47,-135.76 -36.68,0.94 -73.63,-2.53 -109.91,3.62 65.99,68.14 118.34,148.2 177.79,221.82 -2.95,56.76 -30.26,109.77 -40.71,165.74 -3.62,38.94 -47.66,49.39 -69.33,76.3 l 0,0"
         inkscape:connector-curvature="0" /><path
         id="path58"
         style="fill:#12100e;fill-opacity:1;fill-rule:nonzero;stroke:none"
         d="m 2841.11,2579.93 c 31.2,-0.13 62.25,-0.25 93.45,-0.25 -26.24,-104.29 -49.8,-209.24 -77.91,-312.99 -31.06,1.07 -62.12,1.33 -93.05,1.07 27.45,103.61 49.4,208.7 77.51,312.17 l 0,0"
         inkscape:connector-curvature="0" /><path
         id="path60"
         style="fill:#12100e;fill-opacity:1;fill-rule:nonzero;stroke:none"
         d="m 1187.29,2577.4 c 31.32,0 62.78,0 94.11,-0.14 -10.57,-35.47 -16.73,-72.15 -30.52,-106.69 -31.86,-6.29 -62.52,-17.14 -92.91,-28.39 4.42,45.93 19.42,90.23 29.32,135.22 l 0,0"
         inkscape:connector-curvature="0" /><path
         id="path62"
         style="fill:#ffffff;fill-opacity:1;fill-rule:nonzero;stroke:none"
         d="m 847.395,1812.07 c 76.175,62.51 149.128,131.59 231.595,184.86 265.86,0.95 531.86,-0.53 797.73,0.67 48.46,-60.77 92.77,-124.76 136.95,-188.62 -41.1,-122.62 -64.26,-251.27 -98.13,-376.31 -123.03,47.12 -241.9,106.03 -361.18,162.25 72.42,18.21 143.51,41.51 214.6,64.53 10.97,40.43 21.42,80.99 31.46,121.56 -24.37,35.2 -49.8,69.61 -76.58,102.95 -173.1,0.53 -346.33,-0.54 -519.55,0.53 -68.94,8.16 -103.88,-66.8 -162.38,-88.23 -65.195,0 -129.183,16.74 -194.515,15.81 l 0,0"
         inkscape:connector-curvature="0" /><path
         id="path64"
         style="fill:#ffffff;fill-opacity:1;fill-rule:nonzero;stroke:none"
         d="m 2122.91,1988.63 c 171.35,0.28 342.71,0.41 513.92,-0.12 -112.58,-443.65 -221.95,-888.37 -336.41,-1331.612 -3.62,-11.769 -7.1,-23.566 -10.71,-35.468 123.29,-6.961 247.52,8.172 370.14,-5.629 54.75,-29.18 104.29,-67.199 156.63,-100.403 -214.45,-1.199 -429.18,-2.148 -643.64,0.403 -32.93,27.039 -53.82,65.601 -79.66,99.058 104.56,423.041 215.14,844.581 317.14,1268.161 -105.62,25.29 -209.9,56.62 -317.4,73.62 10.03,10.71 19.95,21.42 29.99,31.99 l 0,0"
         inkscape:connector-curvature="0" /><path
         id="path66"
         style="fill:#b1b2b2;fill-opacity:1;fill-rule:nonzero;stroke:none"
         d="m 2991.59,1987.02 1.2,-0.39 c 61.05,-31.85 120.48,-66.8 178.45,-103.89 -115,-456.09 -231.86,-911.771 -345.92,-1367.998 49,-32.543 99.73,-62.133 147.66,-96.531 -324.5,-2.012 -649,0.129 -973.5,-1.07 -38.69,56.621 -81.67,110.039 -118.34,167.871 106.02,411.648 208.03,824.498 312.59,1236.688 -33.21,45.24 -66.54,90.5 -100.81,134.94 107.5,-17 211.78,-48.33 317.4,-73.62 -102,-423.58 -212.58,-845.12 -317.14,-1268.161 25.84,-33.457 46.73,-72.019 79.66,-99.058 214.46,-2.551 429.19,-1.602 643.64,-0.403 -52.34,33.204 -101.88,71.223 -156.63,100.403 -122.62,13.801 -246.85,-1.332 -370.14,5.629 3.61,11.902 7.09,23.699 10.71,35.468 -1.21,-7.367 -3.48,-22.347 -4.56,-29.718 118.75,3.48 238.29,-6.828 356.77,4.281 108.97,452.759 228.52,903.219 338.96,1355.559 l 0,0"
         inkscape:connector-curvature="0" /><path
         id="path68"
         style="fill:#ffffff;fill-opacity:1;fill-rule:nonzero;stroke:none"
         d="m 2992.79,1986.63 c 135.34,4.94 270.82,0.93 406.16,2 -129.99,-528.38 -267.47,-1055.021 -397.19,-1583.419 -313.39,3.348 -626.91,0.82 -940.3,1.23 -20.21,2.93 -46.72,-6.57 -61.98,10.7 324.5,1.199 649,-0.942 973.5,1.07 -47.93,34.398 -98.66,63.988 -147.66,96.531 114.06,456.227 230.92,911.908 345.92,1367.998 -57.97,37.09 -117.4,72.04 -178.45,103.89 l 0,0"
         inkscape:connector-curvature="0" /><path
         id="path70"
         style="fill:#b1b2b2;fill-opacity:1;fill-rule:nonzero;stroke:none"
         d="m 3566.16,1925.71 c 6.55,25.57 9.63,53.01 26.23,74.31 51.41,-45.39 111.25,-80.72 170.95,-114.19 216.61,-5.5 433.74,1.6 650.47,-3.22 34.01,-26.37 53.96,-67.06 80.6,-100.53 -106.43,-422.1 -214.46,-843.791 -318.08,-1266.549 102.68,-24.222 204.29,-53.812 308.57,-70.949 2.41,-1.07 7.37,-3.211 9.91,-4.293 -16.2,-11.367 -28.78,-34.668 -51.28,-32.93 -165.86,0.692 -331.86,-1.199 -497.72,0.942 116.87,453.679 227.32,908.989 345.25,1362.259 -110.19,0.27 -220.35,-0.13 -330.53,0.41 -11.11,0.93 -21.02,-2.01 -29.85,-8.98 -50.2,46.58 -111.51,78.46 -168.4,115.67 -118.08,-453.56 -230.4,-908.711 -346.6,-1362.801 58.64,-35.07 117.54,-69.738 174.84,-106.961 -134.81,-0.929 -269.62,-0.386 -404.42,-0.386 120.88,507.347 254.75,1011.768 380.06,1518.198 l 0,0"
         inkscape:connector-curvature="0" /><path
         id="path72"
         style="fill:#ffffff;fill-opacity:1;fill-rule:nonzero;stroke:none"
         d="m 3592.39,2000.02 c 12.18,-2.42 36.68,-7.37 49,-9.91 49.93,11.91 110.31,11.5 160.51,0.13 19.55,12.98 44.71,5.08 66.66,7.1 103.76,-1.48 207.77,2 311.52,-1.48 l 10.04,-5.49 c 37.36,15.27 80.72,3.21 120.62,6.69 35.2,-3.07 74.16,8.31 106.96,-6.82 49.67,16.33 105.76,3.75 157.3,-0.53 43.76,-59.05 87.27,-118.47 128.25,-179.52 -56.77,-196.39 -99.88,-396.53 -151.68,-594.25 -55.42,-212.58 -104.95,-426.909 -164.52,-638.28 32.52,-44.32 66.52,-87.699 97.85,-133.078 -104.28,17.137 -205.89,46.727 -308.57,70.949 103.62,422.758 211.65,844.449 318.08,1266.549 -26.64,33.47 -46.59,74.16 -80.6,100.53 -216.73,4.82 -433.86,-2.28 -650.47,3.22 -59.7,33.47 -119.54,68.8 -170.95,114.19 l 0,0"
         inkscape:connector-curvature="0" /><path
         id="path74"
         style="fill:#ffffff;fill-opacity:1;fill-rule:nonzero;stroke:none"
         d="m 5086.92,1979.79 c 23.96,23.43 65.19,23.58 93.84,10.45 55.15,15.94 116.46,2.55 174.16,6.97 57.43,-4.29 118.75,8.97 173.89,-6.84 19.42,12.85 44.58,4.95 66.54,6.97 103.75,-0.81 207.5,0.67 311.25,-0.41 29.72,-13.79 40.56,-48.33 61.18,-71.88 24.63,-39.09 59.3,-73.1 78.31,-114.86 -33.47,-127.72 -62.65,-256.5 -98.26,-383.54 -115.26,62.78 -239.62,108.17 -356.9,167.34 71.5,22.89 147.53,36.82 214.87,70.14 13.92,37.63 20.87,77.38 31.05,116.21 -27.17,33.06 -45.38,79.65 -81.52,102 -173.64,4.43 -347.66,0 -521.43,2.15 -67.2,4.68 -100.26,-74.16 -160.5,-88.08 -58.78,5.88 -122.1,2.4 -176.99,26.36 61.86,54.22 127.18,104.42 190.51,157.02 l 0,0"
         inkscape:connector-curvature="0" /><path
         id="path76"
         style="fill:#b1b2b2;fill-opacity:1;fill-rule:nonzero;stroke:none"
         d="m 1041.91,1796.26 c 58.5,21.43 93.44,96.39 162.38,88.23 173.22,-1.07 346.45,0 519.55,-0.53 26.78,-33.34 52.21,-67.75 76.58,-102.95 -10.04,-40.57 -20.49,-81.13 -31.46,-121.56 -71.09,-23.02 -142.18,-46.32 -214.6,-64.53 14.86,58.63 29.18,117.41 44.58,175.91 -119.01,-2.28 -238.29,4.15 -357.03,-3.61 -65.46,6.96 -130.39,17.67 -196.12,20.74 -33.87,-148.18 -78.981,-293.7 -107.63,-442.97 228.38,-96.91 457.43,-191.97 685.94,-287.95 -35.6,-150.481 -77.9,-299.341 -112.04,-450.2 63.05,-9.789 126.64,-15.399 190.09,-22.231 -71.75,-60.648 -144.71,-120.078 -218.07,-178.859 -150.74,-12.309 -302.55,-1.859 -453.68,-6.008 -116.74,4.418 -233.338,-0.683 -350.209,0.528 -20.882,2.82 -28.781,25.031 -40.566,39.23 -31.988,48.332 -69.074,92.891 -100.402,141.629 29.589,124.91 58.371,251.141 96.523,373.359 54.219,-64.789 97.992,-137.746 143.109,-208.957 0.797,-44.051 -18.878,-86.09 -27.312,-129.07 24.234,-33.59 44.98,-70.813 76.711,-98.25 183.666,-2.27 367.736,-1.481 551.406,-0.41 48.47,13.929 82.86,57.578 123.56,86.101 -66.8,5.34 -133.2,15.246 -200.13,20.61 32.13,122.359 61.58,245.379 93.84,367.738 -227.58,97.18 -456.895,190.22 -683.942,288.61 45.379,176.99 91.43,353.68 134.407,531.21 65.332,0.93 129.32,-15.81 194.515,-15.81 l 0,0"
         inkscape:connector-curvature="0" /><path
         id="path78"
         style="fill:#b1b2b2;fill-opacity:1;fill-rule:nonzero;stroke:none"
         d="m 5073.4,1796.41 c 60.24,13.92 93.3,92.76 160.5,88.08 173.77,-2.15 347.79,2.28 521.43,-2.15 36.14,-22.35 54.35,-68.94 81.52,-102 -10.18,-38.83 -17.13,-78.58 -31.05,-116.21 -67.34,-33.32 -143.37,-47.25 -214.87,-70.14 13.38,59.04 31.33,116.73 43.91,175.78 -117.93,2.27 -235.74,0.12 -353.68,1.06 -66.14,1.34 -131.47,12.72 -197.2,18.35 -37.61,-146.87 -74.01,-294.12 -112.44,-440.7 227.58,-101.09 458.77,-193.85 688.22,-290.5 -34.4,-150.75 -72.96,-300.679 -113.39,-449.941 62.39,-12.578 126.51,-12.578 188.64,-27.027 -72.17,-59.864 -144.19,-119.961 -217.95,-177.793 -156.76,-4.957 -313.39,-1.067 -470.29,-3.477 -114.85,7.09 -230.12,-6.301 -344.99,4.809 -42.69,60.648 -88.08,119.41 -128.63,181.398 35.47,124.903 65.05,251.403 96.65,377.242 23.02,-4.953 44.58,-14.722 63.85,-28.652 -14.32,4.422 -42.83,13.391 -57.16,17.801 49.13,-67.469 97.85,-135.988 139.62,-208.289 -1.33,-43.789 -18.6,-85.281 -28.11,-127.711 23.16,-33.469 47.27,-66.27 72.15,-98.539 173.91,-2.141 347.94,0.41 521.96,-1.332 66.27,-8.168 108.18,53.281 156.77,87.433 -66.14,5.469 -131.73,14.84 -197.72,20.739 29.71,123.019 61.71,245.519 91.42,368.539 -227.44,96.65 -456.9,188.75 -682.74,288.63 50.2,180.58 89.44,364.12 140.71,544.31 l 5.88,-3.35 c 54.89,-23.96 118.21,-20.48 176.99,-26.36 l 0,0"
         inkscape:connector-curvature="0" /><path
         id="path80"
         style="fill:#ffffff;fill-opacity:1;fill-rule:nonzero;stroke:none"
         d="m 3762.28,1877.66 c 56.89,-37.21 118.2,-69.09 168.4,-115.67 -110.98,-451.93 -227.57,-902.549 -340.16,-1354.092 -57.3,37.223 -116.2,71.891 -174.84,106.961 116.2,454.09 228.52,909.241 346.6,1362.801 l 0,0"
         inkscape:connector-curvature="0" /><path
         id="path82"
         style="fill:#ffffff;fill-opacity:1;fill-rule:nonzero;stroke:none"
         d="m 1045.79,1787.96 c 65.73,-3.07 130.66,-13.78 196.12,-20.74 -25.84,-121.82 -62.78,-241.23 -88.09,-363.32 203.22,-85.81 406.16,-172.17 609.78,-256.76 24.23,-9.91 49.8,-17.68 71.35,-33.2 -45.25,-176.19 -91.97,-352.21 -132.8,-529.331 -63.45,6.832 -127.04,12.442 -190.09,22.231 34.14,150.859 76.44,299.719 112.04,450.2 -228.51,95.98 -457.56,191.04 -685.94,287.95 28.649,149.27 73.76,294.79 107.63,442.97 l 0,0"
         inkscape:connector-curvature="0" /><path
         id="path84"
         style="fill:#ffffff;fill-opacity:1;fill-rule:nonzero;stroke:none"
         d="m 5083.96,1789.18 c 65.73,-5.63 131.06,-17.01 197.2,-18.35 -29.58,-122.49 -62.8,-244.18 -92.38,-366.67 227.98,-96.12 456.23,-191.56 683.81,-288.36 -47.52,-177.769 -89.68,-357.03 -137.6,-534.788 -62.13,14.449 -126.25,14.449 -188.64,27.027 40.43,149.262 78.99,299.191 113.39,449.941 -229.45,96.65 -460.64,189.41 -688.22,290.5 38.43,146.58 74.83,293.83 112.44,440.7 l 0,0"
         inkscape:connector-curvature="0" /><path
         id="path86"
         style="fill:#ffffff;fill-opacity:1;fill-rule:nonzero;stroke:none"
         d="M 629.453,962.129 C 709.508,936.43 782.473,892.102 860.777,861.32 905.23,837.48 955.16,823.172 995.859,792.652 972.969,739.629 964.934,681.129 951.277,625.18 c 117.263,-0.668 234.543,0.922 351.813,-0.668 66.93,-5.364 133.33,-15.27 200.13,-20.61 -40.7,-28.523 -75.09,-72.172 -123.56,-86.101 -183.67,-1.071 -367.74,-1.86 -551.406,0.41 -31.731,27.437 -52.477,64.66 -76.711,98.25 8.434,42.98 28.109,85.019 27.312,129.07 -45.117,71.211 -88.89,144.168 -143.109,208.957 l -6.293,7.641 0,0"
         inkscape:connector-curvature="0" /><path
         id="path88"
         style="fill:#ffffff;fill-opacity:1;fill-rule:nonzero;stroke:none"
         d="m 4676.47,952.34 c 14.33,-4.41 42.84,-13.379 57.16,-17.801 99.32,-40.961 194.65,-91.289 294.25,-131.578 -8.17,-60.391 -29.72,-118.082 -40.57,-178.063 117.95,0 235.88,0.942 353.83,-0.257 65.99,-5.899 131.58,-15.27 197.72,-20.739 -48.59,-34.152 -90.5,-95.601 -156.77,-87.433 -174.02,1.742 -348.05,-0.809 -521.96,1.332 -24.88,32.269 -48.99,65.07 -72.15,98.539 9.51,42.43 26.78,83.922 28.11,127.711 -41.77,72.301 -90.49,140.82 -139.62,208.289 l 0,0"
         inkscape:connector-curvature="0" /><path
         id="path90"
         style="fill:#b1b2b2;fill-opacity:1;fill-rule:nonzero;stroke:none"
         d="M 0,9.37109 6.95703,7.35938 6.82031,0 0,0 0,9.37109"
         inkscape:connector-curvature="0" /></g></g></svg>