<?xml version="1.0" encoding="UTF-8" standalone="no"?>
<!-- Generator: Adobe Illustrator 14.0.0, SVG Export Plug-In . SVG Version: 6.00 Build 43363)  -->

<svg
   xmlns:dc="http://purl.org/dc/elements/1.1/"
   xmlns:cc="http://creativecommons.org/ns#"
   xmlns:rdf="http://www.w3.org/1999/02/22-rdf-syntax-ns#"
   xmlns:svg="http://www.w3.org/2000/svg"
   xmlns="http://www.w3.org/2000/svg"
   xmlns:xlink="http://www.w3.org/1999/xlink"
   xmlns:sodipodi="http://sodipodi.sourceforge.net/DTD/sodipodi-0.dtd"
   xmlns:inkscape="http://www.inkscape.org/namespaces/inkscape"
   version="1.1"
   id="Layer_1"
   x="0px"
   y="0px"
   width="81.592087"
   height="100"
   viewBox="0 0 81.592087 100"
   enable-background="new 0 0 205 250"
   xml:space="preserve"
   inkscape:version="0.91 r13725"
   sodipodi:docname="Portland_Trail_Blazers_resized.svg"><metadata
     id="metadata6232"><rdf:RDF><cc:Work
         rdf:about=""><dc:format>image/svg+xml</dc:format><dc:type
           rdf:resource="http://purl.org/dc/dcmitype/StillImage" /><dc:title></dc:title></cc:Work></rdf:RDF></metadata><defs
     id="defs6230" /><sodipodi:namedview
     pagecolor="#ffffff"
     bordercolor="#666666"
     borderopacity="1"
     objecttolerance="10"
     gridtolerance="10"
     guidetolerance="10"
     inkscape:pageopacity="0"
     inkscape:pageshadow="2"
     inkscape:window-width="826"
     inkscape:window-height="480"
     id="namedview6228"
     showgrid="false"
     fit-margin-top="0"
     fit-margin-left="0"
     fit-margin-right="0"
     fit-margin-bottom="0"
     inkscape:zoom="0.944"
     inkscape:cx="40.796542"
     inkscape:cy="50.000001"
     inkscape:window-x="0"
     inkscape:window-y="0"
     inkscape:window-maximized="0"
     inkscape:current-layer="Layer_1" /><g
     id="g5884"
     transform="matrix(0.41666667,0,0,0.41666667,-1.9120833,-2.0833333)"><polygon
       points="69.158,5 4.589,245 135.861,245 200.41,5 "
       id="polygon5886"
       style="fill:#c4ced4" /><polygon
       points="132.129,240.126 10.986,240.126 72.89,9.876 194.042,9.876 "
       id="polygon5888"
       style="fill:#231f20" /><path
       d="m 101.79,121.952 4.038,-4.05 c -4.614,-1.42 -7.223,-4.582 -7.223,-8.632 0,-2.112 0.882,-4.008 2.312,-5.347 l 52.611,-52.634 -2.943,0 -49.501,44.625 -4.242,3.823 c -2.516,2.4 -4.085,5.789 -4.085,9.534 0,0.871 0.083,1.725 0.241,2.544 0.928,4.722 4.856,8.73 8.792,10.137"
       id="path5890"
       inkscape:connector-curvature="0"
       style="fill:#c4ced4" /><path
       d="m 95.663,128.074 3.982,-3.987 c -6.173,-3.143 -9.608,-8.376 -9.608,-14.817 0,-4.326 1.727,-8.237 4.535,-11.108 l 46.832,-46.871 -2.711,0 -43.819,38.711 c -0.604,0.487 -4.345,3.901 -4.837,4.496 -3.63,3.86 -5.849,9.054 -5.849,14.772 0,1.017 0.083,2.001 0.232,2.971 0.994,6.921 5.32,12.774 11.243,15.833"
       id="path5892"
       inkscape:connector-curvature="0"
       style="fill:#c4ced4" /><path
       d="m 89.424,134.311 4.048,-4.038 c -7.529,-4.626 -12.013,-12.16 -12.013,-21.004 0,-6.541 2.581,-12.478 6.768,-16.864 l 41.062,-41.115 -2.479,0 -38.147,32.81 c -1.216,0.975 -4.447,3.969 -5.45,5.157 -4.716,5.324 -7.594,12.34 -7.594,20.011 0,1.146 0.074,2.277 0.213,3.388 1.068,9.129 6.249,17.001 13.592,21.655"
       id="path5894"
       inkscape:connector-curvature="0"
       style="fill:#c4ced4" /><path
       d="m 83.176,140.559 4.113,-4.112 c -8.838,-6.1 -14.39,-15.934 -14.39,-27.176 0,-8.759 3.417,-16.717 8.978,-22.615 l 35.306,-35.364 -2.275,0 -32.456,26.896 c -1.819,1.469 -4.549,4.045 -6.053,5.837 -5.821,6.784 -9.349,15.615 -9.349,25.245 0,1.284 0.074,2.553 0.204,3.813 1.142,11.327 7.167,21.209 15.922,27.476"
       id="path5896"
       inkscape:connector-curvature="0"
       style="fill:#c4ced4" /><path
       d="m 58.658,113.499 c 1.216,13.531 8.104,25.435 18.271,33.308 l 4.177,-4.169 C 70.931,135.044 64.34,122.91 64.34,109.268 c 0,-10.964 4.252,-20.947 11.206,-28.38 l 29.513,-29.599 -2.042,0 -26.776,20.981 c -2.423,1.947 -4.651,4.129 -6.647,6.513 -6.925,8.255 -11.112,18.892 -11.112,30.485 -10e-4,1.432 0.055,2.843 0.176,4.231"
       id="path5898"
       inkscape:connector-curvature="0"
       style="fill:#c4ced4" /><path
       d="m 111.176,97.401 -4.048,4.045 c 4.623,1.425 7.241,4.582 7.241,8.631 0,2.105 -0.91,4.006 -2.33,5.348 l -52.602,52.641 2.934,0 49.52,-44.627 4.233,-3.823 c 2.516,-2.404 4.085,-5.797 4.085,-9.539 0,-0.875 -0.084,-1.724 -0.251,-2.543 -0.929,-4.732 -4.846,-8.736 -8.782,-10.133"
       id="path5900"
       inkscape:connector-curvature="0"
       style="fill:#e13a3e" /><path
       d="m 117.294,91.269 -3.983,3.992 c 6.192,3.147 9.609,8.376 9.609,14.816 0,4.317 -1.718,8.237 -4.521,11.099 l -46.846,46.89 2.72,0 43.819,-38.716 c 0.604,-0.496 4.345,-3.908 4.847,-4.502 3.62,-3.857 5.839,-9.061 5.839,-14.771 0,-1.007 -0.074,-2.005 -0.231,-2.966 -1.004,-6.934 -5.321,-12.771 -11.253,-15.842"
       id="path5902"
       inkscape:connector-curvature="0"
       style="fill:#e13a3e" /><path
       d="m 123.541,85.03 -4.038,4.05 c 7.501,4.635 11.995,12.159 11.995,21 0,6.531 -2.563,12.473 -6.777,16.866 l -41.043,41.12 2.488,0 38.137,-32.818 c 1.207,-0.983 4.438,-3.974 5.44,-5.152 4.734,-5.331 7.604,-12.333 7.604,-20.016 0,-1.149 -0.074,-2.291 -0.223,-3.384 -1.059,-9.13 -6.248,-17.008 -13.583,-21.666"
       id="path5904"
       inkscape:connector-curvature="0"
       style="fill:#e13a3e" /><path
       d="m 129.78,78.783 -4.104,4.122 c 8.848,6.097 14.39,15.933 14.39,27.173 0,8.755 -3.426,16.72 -8.986,22.618 l -35.288,35.371 2.256,0 32.465,-26.904 c 1.819,-1.467 4.549,-4.048 6.044,-5.83 5.82,-6.798 9.357,-15.625 9.357,-25.254 0,-1.288 -0.064,-2.571 -0.204,-3.811 -1.132,-11.33 -7.166,-21.217 -15.93,-27.485"
       id="path5906"
       inkscape:connector-curvature="0"
       style="fill:#e13a3e" /><path
       d="M 154.299,105.845 C 153.101,92.323 146.203,80.414 136.037,72.544 l -4.178,4.164 c 10.175,7.601 16.776,19.726 16.776,33.373 0,10.962 -4.271,20.944 -11.206,28.39 l -29.521,29.597 2.032,0 26.793,-21 c 2.404,-1.94 4.633,-4.122 6.638,-6.499 6.926,-8.253 11.113,-18.899 11.113,-30.487 0,-1.429 -0.065,-2.845 -0.185,-4.237"
       id="path5908"
       inkscape:connector-curvature="0"
       style="fill:#e13a3e" /><g
       id="g5910"><defs
         id="defs5912"><polygon
           id="SVGID_1_"
           points="47.248,230.239 43.794,230.239 50.209,206.315 45.057,206.315 46.283,208.516 39.844,232.606 46.617,232.606 " /></defs><clipPath
         id="SVGID_2_"><use
           xlink:href="#SVGID_1_"
           overflow="visible"
           id="use5916"
           style="overflow:visible"
           x="0"
           y="0"
           width="100%"
           height="100%" /></clipPath><linearGradient
         id="SVGID_3_"
         gradientUnits="userSpaceOnUse"
         x1="-162.7505"
         y1="467.88281"
         x2="-157.99719"
         y2="467.88281"
         gradientTransform="matrix(0,5.5556,5.5556,0,-2554.3323,1110.4928)"><stop
           offset="0"
           style="stop-color:#FFFFFF"
           id="stop5919" /><stop
           offset="0.1461"
           style="stop-color:#FFFFFF"
           id="stop5921" /><stop
           offset="0.2818"
           style="stop-color:#FAFBFB"
           id="stop5923" /><stop
           offset="0.4423"
           style="stop-color:#ECEFF1"
           id="stop5925" /><stop
           offset="0.6148"
           style="stop-color:#D4DBE0"
           id="stop5927" /><stop
           offset="0.7079"
           style="stop-color:#C4CED4"
           id="stop5929" /><stop
           offset="1"
           style="stop-color:#C4CED4"
           id="stop5931" /></linearGradient><rect
         x="39.844002"
         y="206.315"
         clip-path="url(#SVGID_2_)"
         width="10.365"
         height="26.291"
         id="rect5933"
         style="fill:url(#SVGID_3_)" /></g><g
       id="g5935"><defs
         id="defs5937"><path
           id="SVGID_4_"
           d="m 64.906,210.873 -2.595,12.645 -1.973,0 4.568,-12.645 z m -2.126,-2.432 -9.033,24.156 3.361,0.009 2.339,-6.675 2.404,0 -1.439,6.675 3.463,0 4.837,-26.291 -7.028,0 1.096,2.126 z"
           inkscape:connector-curvature="0" /></defs><clipPath
         id="SVGID_5_"><use
           xlink:href="#SVGID_4_"
           overflow="visible"
           id="use5941"
           style="overflow:visible"
           x="0"
           y="0"
           width="100%"
           height="100%" /></clipPath><linearGradient
         id="SVGID_6_"
         gradientUnits="userSpaceOnUse"
         x1="-162.7549"
         y1="470.18951"
         x2="-158.00211"
         y2="470.18951"
         gradientTransform="matrix(0,5.5561,5.5561,0,-2551.21,1110.6039)"><stop
           offset="0"
           style="stop-color:#FFFFFF"
           id="stop5944" /><stop
           offset="0.1461"
           style="stop-color:#FFFFFF"
           id="stop5946" /><stop
           offset="0.2818"
           style="stop-color:#FAFBFB"
           id="stop5948" /><stop
           offset="0.4423"
           style="stop-color:#ECEFF1"
           id="stop5950" /><stop
           offset="0.6148"
           style="stop-color:#D4DBE0"
           id="stop5952" /><stop
           offset="0.7079"
           style="stop-color:#C4CED4"
           id="stop5954" /><stop
           offset="1"
           style="stop-color:#C4CED4"
           id="stop5956" /></linearGradient><rect
         x="53.747002"
         y="206.315"
         clip-path="url(#SVGID_5_)"
         width="14.965"
         height="26.291"
         id="rect5958"
         style="fill:url(#SVGID_6_)" /></g><g
       id="g5960"><defs
         id="defs5962"><polygon
           id="SVGID_7_"
           points="78.729,232.606 79.36,230.239 74.616,230.239 85.655,206.315 76.25,206.315 77.55,208.59 80.985,208.59 69.928,232.606 " /></defs><clipPath
         id="SVGID_8_"><use
           xlink:href="#SVGID_7_"
           overflow="visible"
           id="use5966"
           style="overflow:visible"
           x="0"
           y="0"
           width="100%"
           height="100%" /></clipPath><linearGradient
         id="SVGID_9_"
         gradientUnits="userSpaceOnUse"
         x1="-162.7588"
         y1="472.54691"
         x2="-158.0065"
         y2="472.54691"
         gradientTransform="matrix(0,5.5567,5.5567,0,-2548.0098,1110.7151)"><stop
           offset="0"
           style="stop-color:#FFFFFF"
           id="stop5969" /><stop
           offset="0.1461"
           style="stop-color:#FFFFFF"
           id="stop5971" /><stop
           offset="0.2818"
           style="stop-color:#FAFBFB"
           id="stop5973" /><stop
           offset="0.4423"
           style="stop-color:#ECEFF1"
           id="stop5975" /><stop
           offset="0.6148"
           style="stop-color:#D4DBE0"
           id="stop5977" /><stop
           offset="0.7079"
           style="stop-color:#C4CED4"
           id="stop5979" /><stop
           offset="1"
           style="stop-color:#C4CED4"
           id="stop5981" /></linearGradient><rect
         x="69.922997"
         y="206.315"
         clip-path="url(#SVGID_8_)"
         width="15.731"
         height="26.291"
         id="rect5983"
         style="fill:url(#SVGID_9_)" /></g><g
       id="g5985"><defs
         id="defs5987"><path
           id="SVGID_10_"
           d="m 92.163,206.315 1.272,2.2 -6.438,24.091 7.19,0 0.636,-2.377 -3.876,0 c 0,0 2.488,-9.302 2.794,-10.425 l 3.472,0 0.641,-2.368 -3.481,0 2.367,-8.819 3.853,0 0.608,-2.302 -9.038,0 z"
           inkscape:connector-curvature="0" /></defs><clipPath
         id="SVGID_11_"><use
           xlink:href="#SVGID_10_"
           overflow="visible"
           id="use5991"
           style="overflow:visible"
           x="0"
           y="0"
           width="100%"
           height="100%" /></clipPath><linearGradient
         id="SVGID_12_"
         gradientUnits="userSpaceOnUse"
         x1="-162.7588"
         y1="474.8652"
         x2="-158.0065"
         y2="474.8652"
         gradientTransform="matrix(0,5.5567,5.5567,0,-2544.5801,1110.7151)"><stop
           offset="0"
           style="stop-color:#FFFFFF"
           id="stop5994" /><stop
           offset="0.1461"
           style="stop-color:#FFFFFF"
           id="stop5996" /><stop
           offset="0.2818"
           style="stop-color:#FAFBFB"
           id="stop5998" /><stop
           offset="0.4423"
           style="stop-color:#ECEFF1"
           id="stop6000" /><stop
           offset="0.6148"
           style="stop-color:#D4DBE0"
           id="stop6002" /><stop
           offset="0.7079"
           style="stop-color:#C4CED4"
           id="stop6004" /><stop
           offset="1"
           style="stop-color:#C4CED4"
           id="stop6006" /></linearGradient><rect
         x="86.996002"
         y="206.315"
         clip-path="url(#SVGID_11_)"
         width="14.204"
         height="26.291"
         id="rect6008"
         style="fill:url(#SVGID_12_)" /></g><g
       id="g6010"><defs
         id="defs6012"><path
           id="SVGID_13_"
           d="m 111.891,208.46 c 0,0 1.197,-0.084 1.605,0.074 0.354,0.13 0.367,0.454 0.195,1.123 l -1.629,6.1 c -0.246,0.928 -0.432,1.067 -0.608,1.234 -0.214,0.195 -0.673,0.445 -1.694,0.445 l -0.273,0 2.404,-8.976 z m 1.239,-2.145 -5.858,0 1.276,2.2 -6.452,24.109 3.324,0 c 0,0 3.096,-11.614 3.435,-12.82 l 0.274,0 c 0.636,0 1.072,0.064 1.322,0.278 0.223,0.194 0.307,0.548 0.14,1.207 l -3.059,11.335 3.332,0 2.967,-11.038 c 0.269,-1.012 0.496,-1.969 -0.204,-2.628 -0.251,-0.223 -0.576,-0.324 -0.576,-0.324 0,0 0.315,-0.093 0.762,-0.334 0.287,-0.158 0.604,-0.372 0.854,-0.678 0.182,-0.261 0.362,-0.521 0.529,-1.143 L 116.932,210 c 0,0 0.064,-0.214 0.074,-0.241 0.236,-0.92 0.487,-2.015 -0.557,-2.748 -0.961,-0.696 -2.21,-0.696 -3.311,-0.696 l -0.008,0 z"
           inkscape:connector-curvature="0" /></defs><clipPath
         id="SVGID_14_"><use
           xlink:href="#SVGID_13_"
           overflow="visible"
           id="use6016"
           style="overflow:visible"
           x="0"
           y="0"
           width="100%"
           height="100%" /></clipPath><linearGradient
         id="SVGID_15_"
         gradientUnits="userSpaceOnUse"
         x1="-162.7632"
         y1="477.1055"
         x2="-158.0126"
         y2="477.1055"
         gradientTransform="matrix(0,5.5573,5.5573,0,-2541.6257,1110.8394)"><stop
           offset="0"
           style="stop-color:#FFFFFF"
           id="stop6019" /><stop
           offset="0.1461"
           style="stop-color:#FFFFFF"
           id="stop6021" /><stop
           offset="0.2818"
           style="stop-color:#FAFBFB"
           id="stop6023" /><stop
           offset="0.4423"
           style="stop-color:#ECEFF1"
           id="stop6025" /><stop
           offset="0.6148"
           style="stop-color:#D4DBE0"
           id="stop6027" /><stop
           offset="0.7079"
           style="stop-color:#C4CED4"
           id="stop6029" /><stop
           offset="1"
           style="stop-color:#C4CED4"
           id="stop6031" /></linearGradient><rect
         x="102.096"
         y="206.315"
         clip-path="url(#SVGID_14_)"
         width="15.397"
         height="26.309999"
         id="rect6033"
         style="fill:url(#SVGID_15_)" /></g><g
       id="g6035"><defs
         id="defs6037"><path
           id="SVGID_16_"
           d="m 128.489,206.315 -4.312,0 0.617,1.095 0.511,0.929 c -0.283,0.474 -0.45,0.993 -0.595,1.504 l -0.334,1.216 c -0.278,1.068 -0.492,2.154 -0.52,3.027 -0.033,0.882 0.231,1.958 0.52,2.729 0.278,0.771 1.912,4.791 2.033,5.366 0.103,0.576 0.214,0.956 -0.177,2.433 l -1.42,5.273 c -0.158,0.612 -0.256,0.946 -1.29,0.946 -1.031,0 -0.994,-0.427 -0.864,-0.946 l 1.802,-6.647 -3.352,0.009 -1.56,5.821 c -0.251,0.947 -0.399,1.903 0.148,2.655 0.529,0.715 1.624,1.049 3.355,1.049 3.793,-0.009 4.786,-1.773 5.297,-3.667 0,0 1.021,-3.788 1.281,-4.744 0.437,-1.652 0.325,-2.413 0.157,-3.296 -0.167,-0.891 -0.524,-1.68 -0.779,-2.33 l -1.217,-3.128 c -0.343,-0.882 -0.501,-1.504 -0.496,-2.284 0,-0.808 0.251,-1.671 0.543,-2.775 l 0.408,-1.485 c 0.13,-0.529 0.241,-0.929 1.355,-0.947 0.418,0 0.691,0.074 0.799,0.223 0.102,0.121 0.102,0.353 -0.019,0.725 l -1.421,5.31 3.333,0 1.207,-4.483 c 0.232,-0.901 0.437,-1.913 -0.121,-2.665 -0.524,-0.724 -1.587,-1.049 -3.286,-1.049 -0.613,-0.003 -1.129,0.052 -1.603,0.136"
           inkscape:connector-curvature="0" /></defs><clipPath
         id="SVGID_17_"><use
           xlink:href="#SVGID_16_"
           overflow="visible"
           id="use6041"
           style="overflow:visible"
           x="0"
           y="0"
           width="100%"
           height="100%" /></clipPath><linearGradient
         id="SVGID_18_"
         gradientUnits="userSpaceOnUse"
         x1="-162.7773"
         y1="479.49219"
         x2="-158.0224"
         y2="479.49219"
         gradientTransform="matrix(0,5.5587,5.5587,0,-2538.8162,1111.126)"><stop
           offset="0"
           style="stop-color:#FFFFFF"
           id="stop6044" /><stop
           offset="0.1461"
           style="stop-color:#FFFFFF"
           id="stop6046" /><stop
           offset="0.2818"
           style="stop-color:#FAFBFB"
           id="stop6048" /><stop
           offset="0.4423"
           style="stop-color:#ECEFF1"
           id="stop6050" /><stop
           offset="0.6148"
           style="stop-color:#D4DBE0"
           id="stop6052" /><stop
           offset="0.7079"
           style="stop-color:#C4CED4"
           id="stop6054" /><stop
           offset="1"
           style="stop-color:#C4CED4"
           id="stop6056" /></linearGradient><rect
         x="119.15"
         y="206.17599"
         clip-path="url(#SVGID_17_)"
         width="14.789"
         height="26.598"
         id="rect6058"
         style="fill:url(#SVGID_18_)" /></g><g
       id="g6060"><defs
         id="defs6062"><path
           id="SVGID_19_"
           d="m 28.727,219.805 0.269,0 c 0.631,0 1.077,0.064 1.318,0.278 0.232,0.194 0.316,0.548 0.139,1.207 l -2.228,8.309 c -0.125,0.427 -0.241,0.649 -0.492,0.789 -0.242,0.13 -0.594,0.177 -1.281,0.177 l -0.631,0 2.906,-10.76 z m 3.041,-11.345 c 0,0 1.184,-0.084 1.583,0.074 0.372,0.13 0.386,0.454 0.214,1.123 l -1.644,6.1 c -0.241,0.928 -0.417,1.067 -0.589,1.234 -0.228,0.195 -0.691,0.445 -1.713,0.445 l -0.26,0 2.409,-8.976 z m 1.503,-2.145 -6.039,0 1.188,2.219 -6.452,24.072 3.936,0 c 1.105,0 2.563,0.121 3.941,-0.668 1.435,-0.808 1.676,-2.126 1.898,-2.952 l 1.978,-7.399 c 0.278,-1.012 0.511,-1.969 -0.186,-2.628 -0.251,-0.223 -0.576,-0.324 -0.576,-0.324 0,0 0.302,-0.093 0.761,-0.334 0.288,-0.158 0.585,-0.372 0.835,-0.678 0.204,-0.261 0.376,-0.521 0.543,-1.143 l 1.787,-6.702 c 0.019,-0.065 0.046,-0.149 0.075,-0.214 0.223,-0.854 0.399,-1.848 -0.571,-2.553 -0.933,-0.669 -2.195,-0.696 -2.929,-0.696 -0.063,0 -0.128,0 -0.189,0"
           inkscape:connector-curvature="0" /></defs><clipPath
         id="SVGID_20_"><use
           xlink:href="#SVGID_19_"
           overflow="visible"
           id="use6066"
           style="overflow:visible"
           x="0"
           y="0"
           width="100%"
           height="100%" /></clipPath><linearGradient
         id="SVGID_21_"
         gradientUnits="userSpaceOnUse"
         x1="-162.75681"
         y1="465.71091"
         x2="-158.0034"
         y2="465.71091"
         gradientTransform="matrix(0,5.5564,5.5564,0,-2558.0337,1110.666)"><stop
           offset="0"
           style="stop-color:#FFFFFF"
           id="stop6069" /><stop
           offset="0.1461"
           style="stop-color:#FFFFFF"
           id="stop6071" /><stop
           offset="0.2818"
           style="stop-color:#FAFBFB"
           id="stop6073" /><stop
           offset="0.4423"
           style="stop-color:#ECEFF1"
           id="stop6075" /><stop
           offset="0.6148"
           style="stop-color:#D4DBE0"
           id="stop6077" /><stop
           offset="0.7079"
           style="stop-color:#C4CED4"
           id="stop6079" /><stop
           offset="1"
           style="stop-color:#C4CED4"
           id="stop6081" /></linearGradient><rect
         x="21.969"
         y="206.315"
         clip-path="url(#SVGID_20_)"
         width="15.392"
         height="26.412001"
         id="rect6083"
         style="fill:url(#SVGID_21_)" /></g><g
       id="g6085"><defs
         id="defs6087"><polygon
           id="SVGID_22_"
           points="115.502,199.705 121.917,175.781 116.765,175.763 117.999,177.972 111.552,202.063 118.324,202.063 118.955,199.705 " /></defs><clipPath
         id="SVGID_23_"><use
           xlink:href="#SVGID_22_"
           overflow="visible"
           id="use6091"
           style="overflow:visible"
           x="0"
           y="0"
           width="100%"
           height="100%" /></clipPath><linearGradient
         id="SVGID_24_"
         gradientUnits="userSpaceOnUse"
         x1="-166.91409"
         y1="477.85059"
         x2="-162.15581"
         y2="477.85059"
         gradientTransform="matrix(0,5.5271,5.5271,0,-2524.3911,1098.2772)"><stop
           offset="0"
           style="stop-color:#FFFFFF"
           id="stop6094" /><stop
           offset="0.1461"
           style="stop-color:#FFFFFF"
           id="stop6096" /><stop
           offset="0.2818"
           style="stop-color:#FAFBFB"
           id="stop6098" /><stop
           offset="0.4423"
           style="stop-color:#ECEFF1"
           id="stop6100" /><stop
           offset="0.6148"
           style="stop-color:#D4DBE0"
           id="stop6102" /><stop
           offset="0.7079"
           style="stop-color:#C4CED4"
           id="stop6104" /><stop
           offset="1"
           style="stop-color:#C4CED4"
           id="stop6106" /></linearGradient><rect
         x="111.552"
         y="175.763"
         clip-path="url(#SVGID_23_)"
         width="10.365"
         height="26.301001"
         id="rect6108"
         style="fill:url(#SVGID_24_)" /></g><g
       id="g6110"><defs
         id="defs6112"><path
           id="SVGID_25_"
           d="m 88.5,180.339 -2.585,12.645 -1.968,0 4.553,-12.645 z m -2.107,-2.442 -9.038,24.156 3.361,0.01 2.33,-6.676 2.414,-0.009 c -0.26,1.3 -1.458,6.685 -1.458,6.685 l 3.472,0 4.846,-26.282 -7.028,0 1.101,2.116 z"
           inkscape:connector-curvature="0" /></defs><clipPath
         id="SVGID_26_"><use
           xlink:href="#SVGID_25_"
           overflow="visible"
           id="use6116"
           style="overflow:visible"
           x="0"
           y="0"
           width="100%"
           height="100%" /></clipPath><linearGradient
         id="SVGID_27_"
         gradientUnits="userSpaceOnUse"
         x1="-166.93851"
         y1="473.33011"
         x2="-162.187"
         y2="473.33011"
         gradientTransform="matrix(0,5.5313,5.5313,0,-2533.2656,1099.1211)"><stop
           offset="0"
           style="stop-color:#FFFFFF"
           id="stop6119" /><stop
           offset="0.1461"
           style="stop-color:#FFFFFF"
           id="stop6121" /><stop
           offset="0.2818"
           style="stop-color:#FAFBFB"
           id="stop6123" /><stop
           offset="0.4423"
           style="stop-color:#ECEFF1"
           id="stop6125" /><stop
           offset="0.6148"
           style="stop-color:#D4DBE0"
           id="stop6127" /><stop
           offset="0.7079"
           style="stop-color:#C4CED4"
           id="stop6129" /><stop
           offset="1"
           style="stop-color:#C4CED4"
           id="stop6131" /></linearGradient><rect
         x="77.355003"
         y="175.78101"
         clip-path="url(#SVGID_26_)"
         width="14.965"
         height="26.282"
         id="rect6133"
         style="fill:url(#SVGID_27_)" /></g><g
       id="g6135"><defs
         id="defs6137"><path
           id="SVGID_28_"
           d="m 70.225,177.907 c 0,0 1.188,-0.065 1.587,0.083 0.372,0.14 0.381,0.455 0.209,1.124 l -1.639,6.108 c -0.241,0.928 -0.413,1.067 -0.594,1.234 -0.223,0.195 -0.687,0.445 -1.708,0.445 l -0.26,0 2.405,-8.994 z m 1.226,-2.126 -5.839,0 1.272,2.19 -6.462,24.11 3.31,0 3.453,-12.83 0.274,0 c 0.636,0 1.091,0.064 1.318,0.287 0.223,0.186 0.316,0.548 0.125,1.198 l -3.031,11.345 3.328,0 2.952,-11.048 c 0.283,-1.003 0.506,-1.959 -0.19,-2.608 -0.251,-0.232 -0.576,-0.344 -0.576,-0.344 0,0 0.302,-0.074 0.752,-0.325 0.297,-0.167 0.594,-0.362 0.845,-0.678 0.204,-0.26 0.372,-0.529 0.539,-1.142 l 1.736,-6.48 c 0,0 0.065,-0.213 0.074,-0.25 0.242,-0.91 0.483,-1.996 -0.557,-2.739 -0.933,-0.678 -2.126,-0.687 -3.203,-0.687 -0.041,0.001 -0.083,0.001 -0.12,0.001"
           inkscape:connector-curvature="0" /></defs><clipPath
         id="SVGID_29_"><use
           xlink:href="#SVGID_28_"
           overflow="visible"
           id="use6141"
           style="overflow:visible"
           x="0"
           y="0"
           width="100%"
           height="100%" /></clipPath><linearGradient
         id="SVGID_30_"
         gradientUnits="userSpaceOnUse"
         x1="-166.8989"
         y1="470.89059"
         x2="-162.1456"
         y2="470.89059"
         gradientTransform="matrix(0,5.5249,5.5249,0,-2533.501,1097.8328)"><stop
           offset="0"
           style="stop-color:#FFFFFF"
           id="stop6144" /><stop
           offset="0.1461"
           style="stop-color:#FFFFFF"
           id="stop6146" /><stop
           offset="0.2818"
           style="stop-color:#FAFBFB"
           id="stop6148" /><stop
           offset="0.4423"
           style="stop-color:#ECEFF1"
           id="stop6150" /><stop
           offset="0.6148"
           style="stop-color:#D4DBE0"
           id="stop6152" /><stop
           offset="0.7079"
           style="stop-color:#C4CED4"
           id="stop6154" /><stop
           offset="1"
           style="stop-color:#C4CED4"
           id="stop6156" /></linearGradient><rect
         x="60.421001"
         y="175.78101"
         clip-path="url(#SVGID_29_)"
         width="15.393"
         height="26.301001"
         id="rect6158"
         style="fill:url(#SVGID_30_)" /></g><g
       id="g6160"><defs
         id="defs6162"><polygon
           id="SVGID_31_"
           points="102.254,175.763 103.479,177.972 97.037,202.063 100.369,202.063 107.401,175.781 " /></defs><clipPath
         id="SVGID_32_"><use
           xlink:href="#SVGID_31_"
           overflow="visible"
           id="use6166"
           style="overflow:visible"
           x="0"
           y="0"
           width="100%"
           height="100%" /></clipPath><linearGradient
         id="SVGID_33_"
         gradientUnits="userSpaceOnUse"
         x1="-166.91409"
         y1="475.7764"
         x2="-162.15581"
         y2="475.7764"
         gradientTransform="matrix(0,5.5271,5.5271,0,-2527.4419,1098.2772)"><stop
           offset="0"
           style="stop-color:#FFFFFF"
           id="stop6169" /><stop
           offset="0.1461"
           style="stop-color:#FFFFFF"
           id="stop6171" /><stop
           offset="0.2818"
           style="stop-color:#FAFBFB"
           id="stop6173" /><stop
           offset="0.4423"
           style="stop-color:#ECEFF1"
           id="stop6175" /><stop
           offset="0.6148"
           style="stop-color:#D4DBE0"
           id="stop6177" /><stop
           offset="0.7079"
           style="stop-color:#C4CED4"
           id="stop6179" /><stop
           offset="1"
           style="stop-color:#C4CED4"
           id="stop6181" /></linearGradient><rect
         x="97.037003"
         y="175.763"
         clip-path="url(#SVGID_32_)"
         width="10.365"
         height="26.301001"
         id="rect6183"
         style="fill:url(#SVGID_33_)" /></g><g
       id="g6185"><defs
         id="defs6187"><polygon
           id="SVGID_34_"
           points="49.002,202.063 55.432,178.074 57.961,178.074 59.029,175.781 49.263,175.781 50.581,178.074 52.104,178.074 45.679,202.063 " /></defs><clipPath
         id="SVGID_35_"><use
           xlink:href="#SVGID_34_"
           overflow="visible"
           id="use6191"
           style="overflow:visible"
           x="0"
           y="0"
           width="100%"
           height="100%" /></clipPath><linearGradient
         id="SVGID_36_"
         gradientUnits="userSpaceOnUse"
         x1="-166.89841"
         y1="468.63281"
         x2="-162.1416"
         y2="468.63281"
         gradientTransform="matrix(0,5.5252,5.5252,0,-2536.9243,1097.884)"><stop
           offset="0"
           style="stop-color:#FFFFFF"
           id="stop6194" /><stop
           offset="0.1461"
           style="stop-color:#FFFFFF"
           id="stop6196" /><stop
           offset="0.2818"
           style="stop-color:#FAFBFB"
           id="stop6198" /><stop
           offset="0.4423"
           style="stop-color:#ECEFF1"
           id="stop6200" /><stop
           offset="0.6148"
           style="stop-color:#D4DBE0"
           id="stop6202" /><stop
           offset="0.7079"
           style="stop-color:#C4CED4"
           id="stop6204" /><stop
           offset="1"
           style="stop-color:#C4CED4"
           id="stop6206" /></linearGradient><rect
         x="45.679001"
         y="175.78101"
         clip-path="url(#SVGID_35_)"
         width="13.345"
         height="26.282"
         id="rect6208"
         style="fill:url(#SVGID_36_)" /></g><path
       d="m 69.789,186.457 c 0.176,-0.167 0.353,-0.307 0.594,-1.234 l 1.644,-6.108 c 0.167,-0.669 0.158,-0.984 -0.218,-1.124 -0.399,-0.148 -1.587,-0.093 -1.587,-0.093 0,0 -0.005,0.01 -0.005,0.037 0.13,0.01 0.232,0.019 0.325,0.056 0.371,0.14 0.39,0.455 0.204,1.124 l -1.643,6.108 c -0.242,0.928 -0.418,1.067 -0.604,1.234 -0.111,0.103 -0.659,0.325 -0.659,0.325 l -0.019,0.12 0.26,0 c 1.021,0 1.485,-0.25 1.708,-0.445 m -25.391,15.606 1.281,0 6.424,-23.999 -1.272,0 -6.433,23.999 z m 16.636,21.455 1.281,0 2.59,-12.645 -2.971,8.217 -0.9,4.428 z m 16.317,-21.464 9.038,-24.156 -1.096,-2.126 -1.29,0 1.104,2.126 -9.042,24.156 1.286,0 z m -26.77,-23.99 -1.318,-2.293 -1.281,0 1.318,2.293 1.281,0 z m 9.84,24.008 6.462,-24.101 -1.272,-2.2 -1.272,0 1.263,2.2 -6.476,24.101 1.295,0 z m 8.356,-12.542 c -0.232,-0.204 -0.678,-0.278 -1.318,-0.278 l -0.279,0 c 0,0 -0.028,0.083 -0.028,0.111 0.139,0.046 0.26,0.093 0.362,0.167 0.205,0.204 0.297,0.557 0.112,1.197 l -3.036,11.345 1.277,0 3.04,-11.345 c 0.186,-0.64 0.093,-0.993 -0.13,-1.197 m 55.6,27.284 c -0.292,-0.771 -0.557,-1.847 -0.52,-2.729 0.027,-0.883 0.236,-1.969 0.52,-3.027 l 0.334,-1.216 c 0.14,-0.511 0.307,-1.03 0.595,-1.494 l -1.124,-2.033 -1.285,0 1.128,2.033 c -0.278,0.464 -0.464,0.983 -0.595,1.504 l -0.329,1.216 c -0.283,1.059 -0.487,2.145 -0.516,3.026 -0.037,0.882 0.232,1.959 0.511,2.738 0.278,0.762 1.922,4.781 2.033,5.357 0.103,0.566 0.223,0.956 -0.186,2.432 l -1.402,5.273 c -0.12,0.437 -0.204,0.725 -0.636,0.854 0.163,0.056 0.367,0.083 0.618,0.083 1.039,-0.009 1.132,-0.334 1.29,-0.938 l 1.42,-5.282 c 0.391,-1.477 0.279,-1.856 0.177,-2.423 -0.121,-0.574 -1.755,-4.602 -2.033,-5.374 m -41.647,-14.751 1.281,0 1.448,-6.685 -1.281,0 -1.448,6.685 z m 14.307,0 6.443,-24.092 -1.226,-2.209 -1.281,0 1.235,2.209 -6.452,24.092 1.281,0 z m 32.446,4.141 c -0.214,-0.019 -0.441,-0.019 -0.669,-0.019 -0.57,0 -1.086,0.056 -1.541,0.13 l 1.216,0 c 0.307,-0.055 0.641,-0.092 0.994,-0.111 m -12.723,-30.441 -1.276,0 1.226,2.209 -6.443,24.092 1.281,0 6.452,-24.092 -1.24,-2.209 z m -3.264,32.771 c -0.408,-0.158 -1.605,-0.084 -1.605,-0.084 l 0,0.028 c 0.13,0.019 0.241,0.037 0.311,0.064 0.376,0.13 0.399,0.455 0.228,1.123 l -1.652,6.1 c -0.241,0.929 -0.418,1.077 -0.594,1.235 -0.13,0.111 -0.325,0.241 -0.678,0.324 0,0.047 -0.019,0.111 -0.019,0.111 l 0.269,0 c 1.021,0 1.485,-0.25 1.699,-0.445 0.177,-0.158 0.357,-0.307 0.612,-1.234 l 1.625,-6.1 c 0.176,-0.668 0.158,-0.992 -0.196,-1.122 m -28.863,-15.551 -0.687,0 1.968,0 2.59,-12.645 -2.971,8.244 -0.9,4.401 z M 33.35,208.534 c -0.399,-0.158 -1.587,-0.084 -1.587,-0.084 l -0.019,0.028 c 0,0 0.246,0.037 0.334,0.064 0.362,0.13 0.39,0.455 0.213,1.123 l -1.643,6.1 c -0.251,0.929 -0.418,1.077 -0.604,1.235 -0.13,0.111 -0.659,0.324 -0.659,0.324 l -0.028,0.111 0.255,0 c 1.026,0 1.49,-0.25 1.713,-0.445 0.176,-0.158 0.353,-0.307 0.594,-1.234 l 1.644,-6.1 c 0.168,-0.668 0.159,-0.992 -0.213,-1.122 m 95.613,5.839 1.421,-5.31 c 0.12,-0.372 0.12,-0.604 0.019,-0.715 -0.103,-0.158 -0.381,-0.232 -0.799,-0.232 -0.297,0.009 -0.511,0.037 -0.696,0.083 0.103,0.037 0.177,0.084 0.223,0.149 0.093,0.12 0.074,0.361 -0.019,0.733 l -1.411,5.291 1.262,0 z m -19.83,5.432 -0.278,0 -0.027,0.102 c 0,0 0.25,0.103 0.343,0.177 0.224,0.194 0.316,0.548 0.14,1.207 l -3.055,11.335 1.281,0 3.055,-11.345 c 0.167,-0.649 0.083,-1.003 -0.14,-1.207 -0.251,-0.214 -0.687,-0.269 -1.319,-0.269 m -16.961,-13.49 -1.272,0 1.263,2.209 -6.461,24.092 7.213,0 0,-0.01 -5.923,0 6.443,-24.091 -1.263,-2.2 z m 27.526,25.41 c -0.548,-0.752 -0.399,-1.718 -0.148,-2.655 l 1.56,-5.83 -1.272,0 -1.56,5.84 c -0.241,0.928 -0.408,1.902 0.14,2.646 0.524,0.724 1.625,1.059 3.352,1.049 0.231,0 0.455,0 0.668,-0.009 -1.375,-0.076 -2.276,-0.419 -2.74,-1.041 m -11.15,-23.209 -1.271,-2.2 -1.271,0 1.263,2.209 -6.453,24.101 1.281,0 6.451,-24.11 z m -31.003,0.074 -1.295,-2.274 -1.281,0 1.309,2.283 1.267,-0.009 z m 2.159,0.009 -11.039,24.018 1.263,-0.01 11.057,-24.017 -1.281,0.009 z m -57.735,24.007 6.452,-24.063 -1.188,-2.228 -1.281,0 1.188,2.246 -6.452,24.045 1.281,0 z m 7.027,-12.801 -0.269,0 -0.037,0.102 c 0,0 0.26,0.103 0.353,0.177 0.223,0.194 0.316,0.548 0.13,1.207 l -2.238,8.309 c -0.111,0.437 -0.223,0.649 -0.473,0.789 -0.148,0.084 -0.631,0.158 -0.631,0.158 l -0.009,0.009 0.626,0 c 0.692,0 1.044,-0.027 1.286,-0.167 0.25,-0.14 0.371,-0.371 0.492,-0.789 l 2.228,-8.318 c 0.177,-0.649 0.093,-1.003 -0.139,-1.207 -0.242,-0.215 -0.692,-0.27 -1.319,-0.27 m 16.066,-13.49 -1.276,0 1.226,2.209 -6.452,24.092 1.281,-0.01 6.443,-24.091 -1.222,-2.2 z m 8.685,26.283 9.033,-24.156 -1.096,-2.126 -1.281,0 1.096,2.126 -9.033,24.165 1.281,-0.009 z m 6.665,0.008 1.439,-6.675 -1.281,0.009 -1.444,6.676 1.286,-0.01 z"
       id="path6210"
       inkscape:connector-curvature="0"
       style="fill:#e13a3e" /><polygon
       points="114.694,43.351 121.416,20.595 119.559,20.595 118.036,17.176 129.372,17.176 128.359,20.595 125.139,20.595 118.417,43.351 "
       id="polygon6212"
       style="fill:#ffffff" /><path
       d="m 83.937,17.173 -6.517,0 1.671,3.18 -6.796,22.996 3.732,0 2.952,-10.034 1.56,0 c 2.878,0 4.967,-1.769 6.034,-5.366 l 1.667,-5.661 c 1.137,-3.827 -0.441,-5.115 -4.303,-5.115 m 0.437,5.634 -1.848,6.213 c -0.334,1.163 -1.532,1.163 -2.613,1.163 l 2.92,-9.885 0.668,0 c 1.263,-10e-4 1.402,0.698 0.873,2.509"
       id="path6214"
       inkscape:connector-curvature="0"
       style="fill:#ffffff" /><path
       d="m 98.643,16.67 c -0.854,0 -1.754,0.135 -2.702,0.529 l -4.799,0 1.643,3.117 c -0.111,0.232 -0.195,0.485 -0.279,0.766 l -5.431,18.384 c -1.003,3.428 1.272,4.412 3.546,4.412 2.321,0 5.171,-0.984 6.183,-4.412 l 5.431,-18.384 c 1.003,-3.414 -1.272,-4.412 -3.592,-4.412 m -0.232,4.744 -5.236,17.72 c -0.39,1.325 -0.854,1.62 -1.587,1.62 -0.789,0 -1.086,-0.294 -0.687,-1.62 l 5.227,-17.72 c 0.38,-1.326 0.863,-1.616 1.643,-1.616 0.732,0 1.029,0.29 0.64,1.616"
       id="path6216"
       inkscape:connector-curvature="0"
       style="fill:#ffffff" /><path
       d="m 112.262,17.176 -7.445,0 1.625,3.099 -6.806,23.077 3.723,0 3.676,-12.51 c 1.74,-0.072 2.126,0.555 1.652,2.138 -1.578,5.301 -3.082,10.372 -3.082,10.372 l 3.723,0 c 0,0 1.049,-3.642 3.24,-11.212 0.668,-2.367 -0.622,-2.71 -0.622,-2.71 1.838,-0.731 1.912,-1.588 2.479,-3.535 l 1.244,-4.235 c 1.012,-3.382 -0.408,-4.484 -3.407,-4.484 m -0.214,4.414 -1.489,4.999 c -0.283,0.947 -0.785,1.685 -2.075,1.685 l -0.696,0 2.377,-7.977 0.872,0 c 0.835,0 1.317,0.295 1.011,1.293"
       id="path6218"
       inkscape:connector-curvature="0"
       style="fill:#ffffff" /><polygon
       points="134.673,43.351 135.685,39.93 130.95,39.93 137.662,17.176 131.358,17.176 133.021,20.313 126.215,43.351 "
       id="polygon6220"
       style="fill:#ffffff" /><path
       d="m 145.219,17.194 1.644,3.11 -9.293,23.046 3.36,0 2.906,-7.09 2.627,0 -1.401,7.09 3.769,0 4.874,-26.175 -8.486,0.019 z m 1.903,15.643 -1.931,0 4.122,-10.885 0.25,0 -2.441,10.885 z"
       id="path6222"
       inkscape:connector-curvature="0"
       style="fill:#ffffff" /><polygon
       points="157.492,17.176 159.135,20.295 152.33,43.351 155.375,43.351 161.874,20.999 162.022,20.999 158.3,43.351 163.805,43.351 171.538,17.176 168.484,17.176 161.985,39.536 161.855,39.536 165.634,17.176 "
       id="polygon6224"
       style="fill:#ffffff" /><path
       d="m 180.395,17.178 -7.102,0 1.681,3.189 -6.796,22.982 5.292,0 c 2.887,0 5.087,-2.235 5.839,-4.74 l 4.586,-15.515 c 1.346,-4.6 0.185,-5.916 -3.5,-5.916 m 0.018,5.076 -4.725,16.024 c -0.511,1.696 -1.031,1.954 -1.978,1.954 l -0.882,0 5.876,-19.937 0.873,0 c 0.957,0 1.338,0.267 0.836,1.959"
       id="path6226"
       inkscape:connector-curvature="0"
       style="fill:#ffffff" /></g></svg>