<?xml version="1.0" encoding="UTF-8" standalone="no"?>
<!-- Generator: Adobe Illustrator 14.0.0, SVG Export Plug-In . SVG Version: 6.00 Build 43363)  -->

<svg
   xmlns:dc="http://purl.org/dc/elements/1.1/"
   xmlns:cc="http://creativecommons.org/ns#"
   xmlns:rdf="http://www.w3.org/1999/02/22-rdf-syntax-ns#"
   xmlns:svg="http://www.w3.org/2000/svg"
   xmlns="http://www.w3.org/2000/svg"
   xmlns:xlink="http://www.w3.org/1999/xlink"
   xmlns:sodipodi="http://sodipodi.sourceforge.net/DTD/sodipodi-0.dtd"
   xmlns:inkscape="http://www.inkscape.org/namespaces/inkscape"
   version="1.1"
   id="Layer_1"
   x="0px"
   y="0px"
   width="80.786659"
   height="100"
   viewBox="0 0 80.786659 100"
   enable-background="new 0 0 203 250"
   xml:space="preserve"
   inkscape:version="0.91 r13725"
   sodipodi:docname="Sacramento_Kings_resized.svg"><metadata
     id="metadata6483"><rdf:RDF><cc:Work
         rdf:about=""><dc:format>image/svg+xml</dc:format><dc:type
           rdf:resource="http://purl.org/dc/dcmitype/StillImage" /><dc:title></dc:title></cc:Work></rdf:RDF></metadata><defs
     id="defs6481" /><sodipodi:namedview
     pagecolor="#ffffff"
     bordercolor="#666666"
     borderopacity="1"
     objecttolerance="10"
     gridtolerance="10"
     guidetolerance="10"
     inkscape:pageopacity="0"
     inkscape:pageshadow="2"
     inkscape:window-width="826"
     inkscape:window-height="480"
     id="namedview6479"
     showgrid="false"
     fit-margin-top="0"
     fit-margin-left="0"
     fit-margin-right="0"
     fit-margin-bottom="0"
     inkscape:zoom="0.944"
     inkscape:cx="40.39383"
     inkscape:cy="49.999391"
     inkscape:window-x="0"
     inkscape:window-y="0"
     inkscape:window-maximized="0"
     inkscape:current-layer="Layer_1" /><g
     id="g6235"
     transform="matrix(0.41666878,0,0,0.41666878,-1.898343,-2.0833439)"><g
       id="g6237"><path
         d="m 198.443,45.32 c 0,-0.82 -0.345,-1.619 -0.996,-2.205 -0.989,-0.857 -2.388,-0.967 -3.516,-0.271 -4.453,2.747 -16.883,14.48 -25.979,23.042 -0.007,0 -2.98,2.871 -3.508,3.398 -0.931,-0.381 -2.153,-0.894 -2.988,-1.128 -3.179,-0.784 -5.955,-0.769 -8.013,-0.352 1.545,-3.633 9.748,-22.896 9.748,-22.896 0,0 -21.504,11.316 -24.507,12.883 0.322,-3.582 3.955,-43.315 3.955,-43.315 0,0 -26.081,32.197 -28.469,35.149 C 113.131,45.972 101.537,5 101.537,5 c 0,0 -11.683,40.964 -12.715,44.597 -2.388,-2.944 -28.411,-35.193 -28.411,-35.193 0,0 3.567,39.741 3.882,43.337 -3.01,-1.589 -24.492,-12.927 -24.492,-12.927 0,0 8.167,19.27 9.712,22.896 -2.058,-0.417 -4.841,-0.432 -7.976,0.337 -0.872,0.242 -2.139,0.747 -3.025,1.135 C 37.97,68.662 35.018,65.791 35.018,65.791 25.943,57.2 13.514,45.437 9.061,42.668 7.94,41.98 6.541,42.097 5.545,42.968 c -0.63,0.564 -0.989,1.384 -0.989,2.19 0,0.417 0.088,0.842 0.278,1.252 2.292,4.98 14.202,21.46 21.284,30.967 -2.571,2.49 -4.138,5.391 -4.226,8.115 l 0,0.22 c 0,1.685 0.579,3.164 1.611,4.167 0,0 0.791,0.769 1.611,1.567 C 21.064,91.431 6.093,91.417 6.093,91.417 l -0.029,2.051 c -0.33,14.187 -0.718,49.49 2.578,70.803 3.127,20.186 8.24,34.614 17.146,48.223 l 0.93,1.406 0.894,-1.429 c 2.058,-3.303 8.562,-11.675 18.596,-20.09 0.981,0.93 4.006,3.794 5.054,4.782 -1.318,1.473 -30.938,35.164 -30.938,35.164 -1.223,1.392 -1.89,3.142 -1.89,4.987 0,0.161 0.007,0.301 0.007,0.469 0.146,2.015 1.025,3.853 2.534,5.193 3.113,2.754 7.903,2.468 10.642,-0.652 0,0 26.316,-29.743 30.996,-35.054 1.436,1.268 18.618,16.561 18.618,16.561 l -0.732,-8.101 c -0.073,-0.652 -0.088,-1.355 -0.088,-2.073 0,-1.978 0.286,-4.307 0.74,-6.818 4.907,6.108 12.275,9.704 20.193,9.704 l 0.029,0 c 7.903,0 15.279,-3.566 20.193,-9.668 0.447,2.476 0.732,4.805 0.732,6.768 0,0.747 -0.029,1.458 -0.109,2.132 l -0.748,8.086 c 0,0 15.799,-13.982 18.655,-16.517 1.369,1.553 30.938,35.091 30.938,35.091 1.34,1.516 3.171,2.417 5.186,2.549 2.014,0.124 3.955,-0.535 5.456,-1.868 3.12,-2.754 3.421,-7.551 0.659,-10.649 0,0 -29.546,-33.728 -30.856,-35.236 1.04,-0.975 4.079,-3.846 5.054,-4.761 10.02,8.452 16.516,16.823 18.566,20.134 l 0.879,1.436 0.945,-1.413 c 8.913,-13.594 14.077,-28.001 17.227,-48.187 2.344,-15.073 2.893,-37.155 2.893,-53.803 0,-6.899 -0.109,-12.861 -0.183,-17.007 l -0.052,-2.021 -1.062,-0.037 -17.959,0 c 0.798,-0.769 1.604,-1.553 1.604,-1.553 1.063,-1.025 1.626,-2.498 1.626,-4.189 l 0,-0.212 c -0.08,-2.717 -1.633,-5.625 -4.204,-8.115 7.098,-9.492 19.021,-25.942 21.351,-30.938 0.184,-0.403 0.279,-0.813 0.279,-1.245 m -1.267,0.791 c -2.314,5.002 -14.604,21.907 -21.789,31.479 5.068,4.402 5.493,9.463 3.273,11.66 l -3.537,3.406 20.625,0 c 0,1.34 1.304,46.208 -2.666,71.602 -3.011,19.328 -7.83,33.684 -17.073,47.769 -2.124,-3.421 -8.942,-12.269 -19.512,-20.999 l -6.533,6.138 31.567,36.014 c 2.352,2.681 2.103,6.76 -0.563,9.133 -2.674,2.352 -6.768,2.095 -9.126,-0.571 l -31.648,-35.939 -13.373,11.872 -4.043,3.567 0.512,-5.361 c 0.322,-3.574 -0.219,-7.705 -1.098,-11.639 -4.446,6.775 -12.129,11.229 -20.845,11.221 -8.716,0 -16.37,-4.475 -20.83,-11.25 -0.879,3.934 -1.428,8.05 -1.099,11.624 l 0.498,5.361 -4.021,-3.56 -13.367,-11.88 -31.714,35.852 c -2.358,2.666 -6.453,2.915 -9.119,0.557 -2.673,-2.365 -2.915,-6.46 -0.557,-9.126 l 31.619,-35.962 -6.526,-6.145 C 35.655,199.657 28.821,208.49 26.69,211.911 17.476,197.805 12.693,183.42 9.705,164.12 5.78,138.696 7.157,93.835 7.157,92.495 l 20.64,0.029 -3.53,-3.413 C 22.018,86.928 22.473,81.86 27.548,77.48 20.384,67.893 8.116,50.938 5.816,45.964 5.479,45.202 5.662,44.331 6.263,43.789 c 0.623,-0.557 1.523,-0.645 2.219,-0.198 4.373,2.71 16.75,14.414 25.781,22.983 1.282,1.187 2.959,2.886 4.014,3.875 1.318,-0.579 2.71,-1.113 3.516,-1.348 4.512,-1.121 8.115,-0.527 9.668,0.425 l -9.478,-22.339 23.562,12.437 -3.75,-41.77 27.488,34.043 12.246,-42.942 12.166,42.979 27.546,-33.999 -3.816,41.748 23.577,-12.4 -9.5,22.324 c 1.546,-0.945 5.156,-1.523 9.653,-0.41 0.806,0.234 2.197,0.791 3.523,1.362 1.062,-0.996 2.739,-2.688 4.006,-3.875 9.053,-8.54 21.445,-20.229 25.825,-22.939 0.703,-0.417 1.604,-0.359 2.212,0.19 0.616,0.55 0.8,1.436 0.455,2.176"
         id="path6239"
         inkscape:connector-curvature="0"
         style="fill:#ffffff" /><path
         d="m 194.51,43.745 c -4.38,2.71 -16.772,14.399 -25.825,22.939 -1.267,1.187 -2.944,2.878 -4.006,3.875 -1.326,-0.571 -2.718,-1.128 -3.523,-1.362 -4.497,-1.113 -8.107,-0.535 -9.653,0.41 l 9.5,-22.332 -23.577,12.407 3.816,-41.755 L 113.696,51.933 101.529,8.955 89.283,51.897 61.795,17.854 65.545,59.624 41.983,47.188 51.461,69.527 C 49.908,68.575 46.305,67.982 41.793,69.102 40.987,69.336 39.596,69.871 38.277,70.45 37.222,69.461 35.545,67.762 34.263,66.575 25.232,58.006 12.854,46.302 8.482,43.592 7.786,43.153 6.885,43.233 6.263,43.79 c -0.601,0.542 -0.784,1.414 -0.447,2.175 2.3,4.973 14.568,21.929 21.731,31.516 -5.076,4.373 -5.53,9.448 -3.281,11.631 l 3.53,3.413 -20.64,-0.037 c 0,1.348 -1.377,46.208 2.549,71.63 2.988,19.3 7.771,33.685 16.985,47.791 2.131,-3.421 8.965,-12.254 19.541,-20.977 l 6.526,6.145 -31.619,35.962 c -2.358,2.666 -2.117,6.761 0.557,9.126 2.666,2.358 6.76,2.109 9.119,-0.557 l 31.714,-35.852 13.367,11.88 4.021,3.56 -0.498,-5.361 c -0.33,-3.574 0.227,-7.69 1.099,-11.624 4.46,6.775 12.114,11.25 20.83,11.25 8.716,0.008 16.399,-4.445 20.845,-11.221 0.879,3.934 1.42,8.064 1.098,11.639 l -0.512,5.361 4.043,-3.567 13.373,-11.872 31.648,35.939 c 2.358,2.666 6.452,2.923 9.126,0.571 2.666,-2.373 2.915,-6.452 0.563,-9.133 l -31.567,-36.014 6.533,-6.138 c 10.569,8.73 17.388,17.578 19.512,20.999 9.243,-14.085 14.063,-28.44 17.073,-47.769 3.97,-25.394 2.666,-70.261 2.666,-71.594 l -20.625,-0.007 3.537,-3.406 c 2.227,-2.197 1.795,-7.258 -3.273,-11.66 7.185,-9.573 19.475,-26.477 21.789,-31.479 0.345,-0.74 0.161,-1.626 -0.454,-2.175 -0.608,-0.549 -1.509,-0.607 -2.212,-0.19 M 155.084,72.72 c 1.011,-1.289 3.486,-1.099 6.973,0.527 l 0.358,0.139 -4.395,4.607 -0.19,-0.11 c -1.604,-0.93 -2.725,-2.292 -2.98,-3.647 -0.118,-0.63 -0.044,-1.157 0.234,-1.516 m -3.201,0.527 0.462,0.264 c -0.374,0.696 -0.433,1.516 -0.146,2.402 0.674,2.153 3.127,4.607 6.284,6.218 l 0.285,0.154 -1.516,1.86 -0.184,-0.051 c -0.051,-0.022 -5.646,-1.765 -9.478,-3.486 l -0.278,-0.125 4.571,-7.236 z m 18.333,40.862 -12.231,0.007 -0.029,1.091 c -0.19,5.046 -0.059,8.159 4.937,13.923 l 5.676,6.445 c 1.772,1.984 3.311,3.713 4.775,5.441 0.337,0.41 0.732,0.835 1.15,1.268 3.039,3.244 8.151,8.657 4.753,24.536 -2.556,11.821 -4.058,16.597 -5.566,20.347 l -0.285,0.622 c -10.965,-9.814 -21.738,-16.384 -31.685,-20.728 1.457,-7.222 2.432,-15.007 3.091,-22.705 l 11.228,8.855 c -0.271,2.336 -0.607,4.688 -0.959,7.061 2.241,1.187 8.774,4.899 10.803,6.387 0.22,-1.113 0.887,-3.545 1.04,-4.526 1.641,-10.62 -1.143,-13.602 -3.229,-15.843 -0.234,-0.241 -0.447,-0.469 -0.638,-0.703 -0.9,-1.04 -1.589,-1.765 -2.644,-2.871 -1.538,-1.574 -3.838,-3.991 -8.73,-9.404 -6.372,-7.082 -5.991,-17.622 -5.896,-24.089 l 0.184,-4.065 5.757,-0.007 c 1.706,0.432 3.171,0.667 4.351,0.667 0.938,0.007 2.146,-0.095 3.369,-0.667 l 23.394,-0.022 c 0.088,6.702 0.109,16.172 -0.184,26.169 l -12.385,-9.141 c 0.004,-2.936 -0.003,-5.682 -0.047,-8.048 m -10.84,-11.646 c -0.952,0.864 -1.956,1.04 -3.392,1.018 -3.896,-0.051 -11.11,-2.871 -18.742,-5.845 l -1.019,-0.41 C 128.972,94.392 118.031,90.107 101.441,90.1 84.903,90.085 73.939,94.348 66.688,97.168 l -1.025,0.403 c -7.632,2.959 -14.854,5.779 -18.757,5.815 -1.428,0.007 -2.432,-0.154 -3.362,-1.011 C 42.621,101.525 31.737,90.7 31.276,90.239 l -0.527,-0.52 0.725,0.059 C 35.517,90.1 47.8,86.438 57.38,82.725 l 1.802,-0.703 c 9.705,-3.809 22.983,-9.009 42.29,-8.987 19.321,0.022 32.593,5.244 42.282,9.06 l 1.795,0.696 c 9.558,3.735 21.855,7.419 25.891,7.104 l 0.726,-0.044 -0.527,0.52 c -0.464,0.44 -11.377,11.25 -12.263,12.092 M 133.8,99.058 c -0.015,0.337 -0.029,2.49 -0.029,2.915 -0.527,0 -64.116,-0.051 -64.644,-0.051 0,-0.432 -0.015,-2.593 -0.022,-2.908 7.83,-2.952 18.56,-6.313 32.336,-6.292 13.799,0.007 24.53,3.384 32.359,6.336 m -98.174,62.343 c 0.981,6.343 2.292,12.393 3.809,18.047 -3.442,2.497 -6.885,5.347 -10.393,8.496 -2.82,-7.801 -5.061,-16.604 -6.599,-26.558 -2.585,-16.736 -2.556,-43.081 -2.366,-56.396 l 13.176,0.007 c -0.117,7.903 -0.176,19.856 0.308,31.853 l 11.697,-8.511 c -0.227,-8.892 -0.146,-16.743 -0.007,-22.727 0.564,0.081 1.113,0.11 1.567,0.125 1.267,0 2.871,-0.264 4.724,-0.747 l 5.01,0.022 c -0.103,7.361 -0.103,16.274 0.293,25.935 l -10.063,7.251 10.913,6.188 c 0.659,7.669 1.692,15.462 3.127,22.69 -3.625,1.582 -7.317,3.501 -11.118,5.706 -1.465,-7.039 -2.483,-14.642 -3.179,-22.2 l -12.649,-7.471 c 0.366,6.564 0.915,12.944 1.75,18.29 m 36.27,-92.307 c 0,0 -2.974,-32.424 -3.135,-34.124 1.077,1.333 22.917,28.506 22.917,28.506 0,0 9.346,-33.047 9.844,-34.805 0.483,1.758 9.756,34.827 9.756,34.827 0,0 21.884,-27.144 22.961,-28.469 -0.154,1.692 -3.187,34.102 -3.187,34.102 0,0 17.645,-9.28 18.904,-9.946 -0.557,1.296 -8.123,18.845 -8.313,19.299 C 130.738,74.287 118.33,70.471 101.477,70.449 84.624,70.427 72.195,74.25 61.311,78.41 61.099,77.956 53.562,60.392 53.005,59.096 c 1.268,0.667 18.891,9.998 18.891,9.998 m -21.299,4.336 0.469,-0.278 4.556,7.258 -0.278,0.117 c -3.831,1.721 -9.441,3.457 -9.492,3.479 l -0.168,0.059 -1.538,-1.86 0.308,-0.168 c 3.142,-1.619 5.618,-4.043 6.292,-6.189 0.275,-0.916 0.239,-1.722 -0.149,-2.418 m -9.712,-0.293 c 3.486,-1.611 5.962,-1.794 6.98,-0.513 0.271,0.374 0.359,0.886 0.242,1.516 -0.271,1.37 -1.392,2.739 -2.996,3.662 l -0.19,0.081 -4.38,-4.592 0.344,-0.154 z M 16.7,55.632 c 4.944,4.497 10.554,9.807 14.817,13.835 l 6.665,6.255 c 0,0.007 0.403,0.469 0.403,0.469 0,0 2.585,2.996 2.944,3.413 -0.293,0.19 -0.696,0.454 -0.696,0.454 -0.469,0.33 -0.945,0.696 -1.531,0.894 l -0.374,0.117 c 0,0 2.52,3.054 2.952,3.567 -0.557,0.168 -2.263,0.681 -2.52,0.762 C 39.14,85.156 34.006,79.334 34.006,79.334 30.096,74.221 22.442,63.894 16.7,55.632 m 10.913,30.015 c -1.831,-1.824 0.403,-4.058 1.89,-5.544 l 0.22,-0.212 0.183,0.234 4.189,5.251 -0.337,0.132 c -1.53,0.622 -5.112,1.179 -6.145,0.139 M 42.35,187.482 c -5.376,4.446 -10.474,9.544 -15.161,15.146 l -0.256,0.308 -0.183,-0.366 C 21.191,191.789 17.141,178.862 14.746,164.162 12.512,150.444 11.619,127.358 12.248,99.153 l 0.029,-1.626 23.284,0.015 0.117,0.022 5.801,5.713 0.366,0.352 0.769,0.645 -0.015,0.63 c -0.183,7.786 -0.198,14.978 -0.037,21.965 l 0,0.146 -6.519,4.739 -0.015,-0.513 c -0.139,-4.966 -0.198,-10.283 -0.198,-15.886 0,-3.34 0.015,-6.782 0.066,-10.32 0,0 0.029,-2.249 0.037,-2.688 -0.439,0 -18.047,-0.015 -18.494,-0.015 0,0.432 -0.029,2.615 -0.029,2.615 -0.051,3.259 -0.081,6.746 -0.081,10.356 0,15.651 0.52,33.815 2.476,46.486 1.523,9.814 3.801,18.919 6.753,27.049 0,0 1.113,3.091 1.34,3.698 0.498,-0.425 2.922,-2.614 2.922,-2.614 2.563,-2.293 4.958,-4.321 7.317,-6.167 l 0.168,-0.125 4.285,3.641 -0.24,0.211 z m 15.402,18.414 -0.007,0.081 -5.039,5.684 -3.325,3.779 -6.599,7.448 -3.311,3.735 -6.584,7.464 -3.252,3.677 -1.399,1.574 c -1.084,1.238 -2.996,1.362 -4.241,0.242 -0.593,-0.513 -0.945,-1.26 -0.996,-2.065 -0.044,-0.806 0.22,-1.575 0.74,-2.168 l 5.391,-6.108 3.259,-3.735 6.584,-7.493 3.311,-3.765 6.592,-7.492 3.318,-3.787 1.128,-1.267 0.088,-0.029 c 1.245,-0.286 2.417,-0.029 3.259,0.688 0.747,0.666 1.15,1.633 1.15,2.746 -0.001,0.256 -0.015,0.527 -0.067,0.791 m 19.351,-8.614 c -1.487,5.062 -2.329,9.375 -2.644,13.184 -0.747,-0.681 -27.458,-24.382 -28.206,-25.063 7.559,-1.516 15.337,-5.222 19.556,-7.258 0.901,-0.418 5.691,-2.783 11.169,-6.504 3.757,-1.136 7.603,-2.007 11.411,-2.651 -7.544,4.556 -12.217,12.634 -12.224,21.525 l 0,0.015 c 10e-4,2.284 0.315,4.563 0.938,6.752 m 45.872,-5.192 c -0.176,2.476 -0.783,4.849 -1.721,7.038 -0.74,1.699 -1.686,3.289 -2.82,4.725 -0.373,0.476 -0.747,0.944 -1.157,1.377 -3.838,4.146 -9.272,6.789 -15.337,6.943 -0.19,0 -0.381,0.007 -0.586,0.007 -0.198,0 -0.403,-0.007 -0.586,-0.007 -6.057,-0.169 -11.492,-2.82 -15.308,-6.966 -0.417,-0.432 -0.784,-0.879 -1.143,-1.34 -1.143,-1.458 -2.124,-3.069 -2.849,-4.805 -0.938,-2.168 -1.523,-4.52 -1.699,-6.98 -0.029,-0.527 -0.066,-1.047 -0.066,-1.567 0.007,-8.408 4.812,-15.688 11.814,-19.284 0.396,-0.198 0.754,-0.366 1.157,-0.542 2.498,-1.099 5.237,-1.722 8.123,-1.81 0.205,-0.007 0.396,-0.015 0.601,-0.015 0.176,0 0.381,0.008 0.593,0.015 2.878,0.088 5.64,0.732 8.137,1.824 0.389,0.183 0.762,0.366 1.128,0.557 6.994,3.589 11.77,10.891 11.763,19.277 0,0.527 0,1.04 -0.044,1.553 m 27.553,10.942 c 0.762,0.9 1.911,2.197 3.303,3.779 1.854,2.131 4.131,4.724 6.57,7.515 1.084,1.237 2.204,2.512 3.317,3.786 2.241,2.557 4.505,5.149 6.57,7.5 1.157,1.326 2.263,2.578 3.259,3.735 3.193,3.618 5.376,6.123 5.376,6.123 0.483,0.564 0.747,1.26 0.747,2 0,0.044 0,0.124 -0.007,0.183 -0.037,0.813 -0.403,1.553 -0.996,2.065 -1.26,1.092 -3.157,0.989 -4.256,-0.264 l -1.384,-1.567 -3.223,-3.662 -6.585,-7.492 -3.303,-3.735 -6.585,-7.493 -3.354,-3.779 -4.987,-5.684 -0.022,-0.08 c -0.22,-1.414 0.161,-2.725 1.092,-3.523 0.856,-0.732 2.007,-0.952 3.273,-0.695 l 0.066,0.029 c 0.001,-0.001 0.426,0.46 1.129,1.259 m -22.727,7.478 c -0.285,-3.596 -1.068,-7.741 -2.387,-12.414 0.769,-2.439 1.164,-4.974 1.164,-7.552 l 0,-0.015 c 0,-8.789 -4.585,-16.831 -11.997,-21.408 3.604,0.645 7.251,1.494 10.847,2.607 5.369,3.662 10.181,6.042 11.082,6.481 4.219,2.029 11.989,5.765 19.548,7.288 -0.762,0.652 -27.495,24.354 -28.257,25.013 m 16.025,-34.284 c -19.262,-10.605 -36.093,-11.763 -42.429,-11.785 -6.343,0 -23.174,1.136 -42.473,11.741 -4.592,2.197 -12.341,5.324 -19.058,6.899 l -0.227,-0.483 1.362,-1.004 c 0,0 1.223,-0.886 1.472,-1.062 -0.095,-0.308 -0.491,-1.766 -0.491,-1.766 -1.538,-5.778 -2.798,-11.755 -3.728,-17.783 -0.535,-3.472 -0.996,-7.668 -1.362,-12.502 l -0.044,-0.521 7.163,4.227 0.007,0.146 c 0.776,7.764 1.809,14.831 3.098,20.983 0,0 0.623,3.018 0.747,3.633 0.842,-0.52 3.186,-1.875 3.186,-1.875 3.823,-2.227 7.361,-4.043 10.833,-5.552 0,0 1.633,-0.718 1.97,-0.85 -0.11,-0.513 -0.425,-2.102 -0.425,-2.102 -1.362,-6.841 -2.395,-14.378 -3.091,-22.405 0,0 -0.103,-1.164 -0.125,-1.398 -0.278,-0.161 -8.511,-4.834 -8.511,-4.834 0,0 7.661,-5.545 7.852,-5.669 0,-0.249 -0.059,-1.443 -0.059,-1.443 -0.234,-5.551 -0.352,-11.279 -0.352,-17.329 0,-2.747 0.029,-5.544 0.088,-8.43 l 0.029,-2.644 0,-0.176 4.519,-1.699 0,5.815 c 0.542,0 74.795,0.059 75.322,0.059 0,-0.491 0.007,-5.837 0.007,-5.837 l 4.314,1.626 -0.125,2.834 c 0,0 -0.183,4.05 -0.19,4.124 l 0,0.652 c -0.117,6.614 -0.285,17.659 6.577,25.268 l 8.797,9.471 2.541,2.746 0.711,0.799 c 1.867,2.014 3.999,4.284 2.556,13.638 l -0.059,0.278 -0.073,0.381 -6.021,-3.472 -0.168,-0.096 0.703,-5.31 c 0,0 0.146,-1.23 0.183,-1.473 -0.285,-0.227 -15.63,-12.319 -16.281,-12.839 -0.11,1.318 -0.425,4.914 -0.425,4.914 -0.718,8.423 -1.736,15.96 -3.047,22.412 0,0 -0.345,1.758 -0.418,2.109 0.462,0.205 1.971,0.857 1.971,0.857 7.624,3.332 15.132,7.764 22.354,13.176 l -0.234,0.491 c -6.685,-1.602 -14.368,-4.722 -18.946,-6.94 m 46.531,-78.56 0.271,0 0.029,1.641 c 0.564,28.198 -0.358,51.291 -2.614,65.002 -2.425,14.7 -6.482,27.62 -12.063,38.387 l -0.19,0.366 -0.256,-0.308 c -4.673,-5.589 -9.741,-10.701 -15.125,-15.169 l -0.241,-0.212 4.24,-3.618 0.176,0.146 c 2.417,1.86 4.775,3.845 7.046,5.859 0,0 2.205,1.984 2.659,2.373 0.402,-0.85 1.809,-3.831 1.809,-3.831 0,0 0.029,-0.08 0.059,-0.139 1.59,-3.97 3.157,-9.023 5.684,-20.786 0.835,-3.882 1.172,-7.2 1.172,-10.063 0,-9.866 -4.102,-14.224 -6.577,-16.839 l -1.055,-1.164 c 0,0 -4.812,-5.508 -4.826,-5.508 l -5.677,-6.431 c -3.61,-4.182 -4.313,-6.621 -4.313,-9.99 0,-0.117 0.007,-0.608 0.007,-0.608 l 6.746,-0.015 0.278,0 0,5.391 c 0,0 -0.015,1.15 -0.015,1.37 0.271,0.183 16.911,12.429 17.593,12.92 0.044,-1.341 0.139,-5.076 0.139,-5.076 0.169,-5.347 0.234,-10.964 0.234,-17.021 0,-2.974 -0.021,-6.05 -0.059,-9.243 0,0 -0.007,-2.205 -0.007,-2.637 -0.462,0 -22.471,0.022 -22.471,0.022 l -0.652,0 4.871,-4.827 23.128,0.008 z M 175.313,85.771 c -1.025,1.025 -4.614,0.483 -6.16,-0.146 l -0.314,-0.132 3.977,-4.973 0.396,-0.527 0.22,0.227 c 1.478,1.487 3.713,3.72 1.881,5.551 m -6.401,-6.306 c 0.015,-0.015 -4.754,5.376 -5.347,6.042 -0.264,-0.081 -1.971,-0.608 -2.513,-0.776 0.433,-0.505 2.952,-3.538 2.952,-3.538 l -0.374,-0.139 c -0.586,-0.205 -1.062,-0.557 -1.545,-0.908 0,0 -0.396,-0.249 -0.682,-0.447 0.366,-0.396 2.981,-3.435 2.981,-3.435 l 0.396,-0.447 6.657,-6.233 c 4.256,-4.014 9.888,-9.316 14.847,-13.813 -5.756,8.248 -13.417,18.56 -17.372,23.694"
         id="path6241"
         inkscape:connector-curvature="0"
         style="fill:#051922" /><path
         d="m 38.138,183.755 c -2.358,1.846 -4.753,3.874 -7.317,6.167 0,0 -2.424,2.189 -2.922,2.622 -0.227,-0.615 -1.34,-3.706 -1.34,-3.706 -2.952,-8.13 -5.229,-17.241 -6.753,-27.049 -1.956,-12.678 -2.476,-30.835 -2.476,-46.486 0,-3.618 0.029,-7.097 0.081,-10.356 0,0 0.029,-2.183 0.029,-2.615 0.447,0 18.054,0.015 18.494,0.015 -0.007,0.439 -0.037,2.688 -0.037,2.688 -0.051,3.538 -0.066,6.98 -0.066,10.32 0,5.603 0.059,10.92 0.198,15.886 l 0.015,0.513 6.519,-4.746 0,-0.14 c -0.161,-6.987 -0.146,-14.179 0.037,-21.979 l 0.015,-0.608 -0.769,-0.652 -0.366,-0.352 -5.801,-5.72 -0.117,-0.015 -23.284,-0.015 -0.029,1.626 c -0.63,28.206 0.264,51.292 2.498,65.009 2.395,14.7 6.445,27.627 12.004,38.408 l 0.183,0.366 0.256,-0.3 c 4.688,-5.604 9.785,-10.708 15.161,-15.154 l 0.242,-0.212 -4.285,-3.641 -0.17,0.126 z"
         id="path6243"
         inkscape:connector-curvature="0"
         style="fill:#051922" /><path
         d="m 38.138,183.755 c -2.358,1.846 -4.753,3.874 -7.317,6.167 0,0 -2.424,2.189 -2.922,2.622 -0.227,-0.615 -1.34,-3.706 -1.34,-3.706 -2.952,-8.13 -5.229,-17.241 -6.753,-27.049 -1.956,-12.678 -2.476,-30.835 -2.476,-46.486 0,-3.618 0.029,-7.097 0.081,-10.356 0,0 0.029,-2.183 0.029,-2.615 0.447,0 18.054,0.015 18.494,0.015 -0.007,0.439 -0.037,2.688 -0.037,2.688 -0.051,3.538 -0.066,6.98 -0.066,10.32 0,5.603 0.059,10.92 0.198,15.886 l 0.015,0.513 6.519,-4.746 0,-0.14 c -0.161,-6.987 -0.146,-14.179 0.037,-21.979 l 0.015,-0.608 -0.769,-0.652 -0.366,-0.352 -5.801,-5.72 -0.117,-0.015 -23.284,-0.015 -0.029,1.626 c -0.63,28.206 0.264,51.292 2.498,65.009 2.395,14.7 6.445,27.627 12.004,38.408 l 0.183,0.366 0.256,-0.3 c 4.688,-5.604 9.785,-10.708 15.161,-15.154 l 0.242,-0.212 -4.285,-3.641 -0.17,0.126 z"
         id="path6245"
         inkscape:connector-curvature="0"
         style="fill:#393d94" /><path
         d="m 172.164,89.851 -0.726,0.044 c -4.035,0.315 -16.333,-3.369 -25.891,-7.097 l -1.795,-0.703 c -9.689,-3.816 -22.961,-9.038 -42.282,-9.06 -19.307,-0.022 -32.585,5.178 -42.29,8.987 l -1.802,0.703 c -9.58,3.713 -21.863,7.375 -25.906,7.053 l -0.725,-0.059 0.527,0.52 c 0.454,0.461 11.345,11.287 12.268,12.136 0.93,0.857 1.934,1.018 3.362,1.011 3.904,-0.037 11.125,-2.856 18.757,-5.823 l 1.025,-0.388 c 7.251,-2.827 18.215,-7.09 34.753,-7.075 16.59,0.007 27.531,4.292 34.782,7.126 l 1.019,0.41 c 7.624,2.966 14.846,5.793 18.742,5.837 1.436,0.015 2.439,-0.146 3.392,-1.011 0.886,-0.842 11.799,-11.66 12.261,-12.092 l 0.529,-0.519 z m -120.71,7.654 c -1.384,0.498 -3.333,0.842 -4.395,0.784 L 46.4,99.255 45.441,96.757 c 1.772,0.513 3.765,0.344 5.369,-0.249 1.216,-0.439 2.102,-0.945 1.897,-1.487 -0.227,-0.564 -1.428,-0.029 -2.981,0.403 -2.6,0.798 -4.563,0.813 -5.127,-0.703 -0.579,-1.509 0.879,-2.981 3.428,-3.926 1.384,-0.505 3.054,-0.762 4.116,-0.688 l 0.703,-0.989 0.842,2.271 c -1.787,-0.381 -3.406,-0.146 -4.988,0.439 -1.201,0.454 -2.285,1.062 -2.102,1.538 0.205,0.542 1.333,-0.022 2.871,-0.491 2.571,-0.806 4.841,-0.828 5.435,0.776 0.615,1.627 -0.909,2.909 -3.45,3.854 m 9.807,-3.318 0.813,-1.956 -0.374,-0.293 -3.604,1.274 -0.088,0.439 2.183,0.974 c -1.069,0.352 -3.501,1.26 -4.885,1.765 l 0.996,-2.153 0.864,-4.819 -2.102,-0.85 c 2.043,-0.74 5.479,-1.897 6.907,-2.476 l -1.15,2.021 3.699,2.996 2.227,0.996 c -1.612,0.566 -4.497,1.716 -5.486,2.082 m 9.726,-3.611 c -3.164,0.901 -5.955,0.146 -6.57,-1.926 -0.608,-2.073 1.34,-4.277 4.497,-5.193 1.34,-0.388 2.761,-0.469 3.787,-0.271 l 0.762,-0.938 0.82,2.783 c -1.75,-0.791 -2.783,-0.798 -4.336,-0.359 -1.619,0.483 -3.105,1.794 -2.71,3.135 0.381,1.348 2.358,1.663 3.97,1.201 1.055,-0.293 2.534,-0.725 3.501,-2.468 l 0.388,1.304 c -0.637,1.004 -2.153,2.161 -4.109,2.732 m 36.534,-4.922 1.634,-1.362 0.381,-4.131 -2.908,5.464 -1.354,-0.051 -2.366,-5.771 -0.146,4.211 1.582,1.494 c -0.974,-0.037 -3.545,-0.059 -4.9,-0.015 -2.307,0 -4.797,0.249 -5.874,0.278 l 1.296,-1.611 -0.271,-0.359 -3.779,0.249 -0.168,0.417 1.824,1.406 c -0.923,0.066 -2.813,0.264 -4.321,0.461 l 0.029,0.022 -4.28,0.661 c -0.63,-0.425 -1.179,-1.23 -1.685,-1.978 -0.271,-0.374 -0.469,-0.52 -0.901,-0.417 l -1.67,0.374 0.278,1.333 1.963,1.091 -6.05,1.523 1.355,-1.831 -0.872,-4.124 -1.978,-1.047 c 2.234,-0.557 4.556,-1.238 6.614,-1.692 2.644,-0.571 4.519,-0.117 4.739,1.216 0.168,1.018 -0.623,1.846 -1.948,2.322 l 0.015,0.015 c 0.417,-0.095 0.952,-0.015 1.362,0.417 0.234,0.286 0.476,0.601 0.762,0.938 l 1.729,0.901 1.23,-1.479 2.043,-4.307 -1.809,-1.304 c 2.571,-0.256 5.288,-0.469 7.207,-0.586 l -1.567,1.575 2.783,3.94 1.941,1.597 1.75,-1.487 0.146,-4.211 -1.582,-1.487 c 1.443,-0.007 4.204,0 5.435,0.059 l 1.509,3.574 1.787,-3.45 c 1.312,0.103 4.277,0.381 5.662,0.571 l -1.787,1.348 -0.41,4.072 1.589,1.714 c -1.778,-0.206 -4.716,-0.499 -6.019,-0.543 m 16.655,2.578 c -2.762,-0.645 -7.266,-1.545 -10.275,-1.978 l 1.948,-1.208 0.725,-4.102 -1.406,-1.758 c 2.329,0.308 6.401,1.033 10.554,1.97 l -0.527,2.542 -1.984,-1.846 -3.811,-0.702 -0.264,1.545 2.197,0.381 1.406,-0.491 -0.535,2.688 -1.105,-0.974 -2.168,-0.388 -0.308,1.743 3.721,0.681 2.49,-0.996 -0.658,2.893 z m 12.553,-2.182 -1.692,5.625 -2.944,-1.055 -2.606,-5.793 -0.77,3.098 1.274,1.97 -4.805,-1.428 2.007,-0.952 1.04,-4.189 -1.392,-1.875 4.724,1.348 2.791,5.779 0.879,-3.018 -1.201,-1.97 4.688,1.663 -1.993,0.797 z m 9.449,3.369 -1.312,-0.483 -1.545,4.402 1.12,1.992 -5.896,-2.227 2.072,-0.762 1.561,-4.431 -1.304,-0.513 -2.791,0.923 0.981,-2.893 c 1.678,0.623 7.112,2.666 9.705,3.677 l -0.989,2.886 -1.602,-2.571 z m 12.085,6.577 c -0.688,2.131 -3.311,3.003 -6.321,2.117 -3.039,-0.93 -4.65,-3.098 -3.947,-5.222 0.688,-2.139 3.296,-3.018 6.328,-2.095 3.009,0.915 4.635,3.054 3.94,5.2"
         id="path6247"
         inkscape:connector-curvature="0"
         style="fill:#051922" /><path
         d="m 172.164,89.851 -0.726,0.044 c -4.035,0.315 -16.333,-3.369 -25.891,-7.097 l -1.795,-0.703 c -9.689,-3.816 -22.961,-9.038 -42.282,-9.06 -19.307,-0.022 -32.585,5.178 -42.29,8.987 l -1.802,0.703 c -9.58,3.713 -21.863,7.375 -25.906,7.053 l -0.725,-0.059 0.527,0.52 c 0.454,0.461 11.345,11.287 12.268,12.136 0.93,0.857 1.934,1.018 3.362,1.011 3.904,-0.037 11.125,-2.856 18.757,-5.823 l 1.025,-0.388 c 7.251,-2.827 18.215,-7.09 34.753,-7.075 16.59,0.007 27.531,4.292 34.782,7.126 l 1.019,0.41 c 7.624,2.966 14.846,5.793 18.742,5.837 1.436,0.015 2.439,-0.146 3.392,-1.011 0.886,-0.842 11.799,-11.66 12.261,-12.092 l 0.529,-0.519 z m -120.71,7.654 c -1.384,0.498 -3.333,0.842 -4.395,0.784 L 46.4,99.255 45.441,96.757 c 1.772,0.513 3.765,0.344 5.369,-0.249 1.216,-0.439 2.102,-0.945 1.897,-1.487 -0.227,-0.564 -1.428,-0.029 -2.981,0.403 -2.6,0.798 -4.563,0.813 -5.127,-0.703 -0.579,-1.509 0.879,-2.981 3.428,-3.926 1.384,-0.505 3.054,-0.762 4.116,-0.688 l 0.703,-0.989 0.842,2.271 c -1.787,-0.381 -3.406,-0.146 -4.988,0.439 -1.201,0.454 -2.285,1.062 -2.102,1.538 0.205,0.542 1.333,-0.022 2.871,-0.491 2.571,-0.806 4.841,-0.828 5.435,0.776 0.615,1.627 -0.909,2.909 -3.45,3.854 m 9.807,-3.318 0.813,-1.956 -0.374,-0.293 -3.604,1.274 -0.088,0.439 2.183,0.974 c -1.069,0.352 -3.501,1.26 -4.885,1.765 l 0.996,-2.153 0.864,-4.819 -2.102,-0.85 c 2.043,-0.74 5.479,-1.897 6.907,-2.476 l -1.15,2.021 3.699,2.996 2.227,0.996 c -1.612,0.566 -4.497,1.716 -5.486,2.082 m 9.726,-3.611 c -3.164,0.901 -5.955,0.146 -6.57,-1.926 -0.608,-2.073 1.34,-4.277 4.497,-5.193 1.34,-0.388 2.761,-0.469 3.787,-0.271 l 0.762,-0.938 0.82,2.783 c -1.75,-0.791 -2.783,-0.798 -4.336,-0.359 -1.619,0.483 -3.105,1.794 -2.71,3.135 0.381,1.348 2.358,1.663 3.97,1.201 1.055,-0.293 2.534,-0.725 3.501,-2.468 l 0.388,1.304 c -0.637,1.004 -2.153,2.161 -4.109,2.732 m 36.534,-4.922 1.634,-1.362 0.381,-4.131 -2.908,5.464 -1.354,-0.051 -2.366,-5.771 -0.146,4.211 1.582,1.494 c -0.974,-0.037 -3.545,-0.059 -4.9,-0.015 -2.307,0 -4.797,0.249 -5.874,0.278 l 1.296,-1.611 -0.271,-0.359 -3.779,0.249 -0.168,0.417 1.824,1.406 c -0.923,0.066 -2.813,0.264 -4.321,0.461 l 0.029,0.022 -4.28,0.661 c -0.63,-0.425 -1.179,-1.23 -1.685,-1.978 -0.271,-0.374 -0.469,-0.52 -0.901,-0.417 l -1.67,0.374 0.278,1.333 1.963,1.091 -6.05,1.523 1.355,-1.831 -0.872,-4.124 -1.978,-1.047 c 2.234,-0.557 4.556,-1.238 6.614,-1.692 2.644,-0.571 4.519,-0.117 4.739,1.216 0.168,1.018 -0.623,1.846 -1.948,2.322 l 0.015,0.015 c 0.417,-0.095 0.952,-0.015 1.362,0.417 0.234,0.286 0.476,0.601 0.762,0.938 l 1.729,0.901 1.23,-1.479 2.043,-4.307 -1.809,-1.304 c 2.571,-0.256 5.288,-0.469 7.207,-0.586 l -1.567,1.575 2.783,3.94 1.941,1.597 1.75,-1.487 0.146,-4.211 -1.582,-1.487 c 1.443,-0.007 4.204,0 5.435,0.059 l 1.509,3.574 1.787,-3.45 c 1.312,0.103 4.277,0.381 5.662,0.571 l -1.787,1.348 -0.41,4.072 1.589,1.714 c -1.778,-0.206 -4.716,-0.499 -6.019,-0.543 m 16.655,2.578 c -2.762,-0.645 -7.266,-1.545 -10.275,-1.978 l 1.948,-1.208 0.725,-4.102 -1.406,-1.758 c 2.329,0.308 6.401,1.033 10.554,1.97 l -0.527,2.542 -1.984,-1.846 -3.811,-0.702 -0.264,1.545 2.197,0.381 1.406,-0.491 -0.535,2.688 -1.105,-0.974 -2.168,-0.388 -0.308,1.743 3.721,0.681 2.49,-0.996 -0.658,2.893 z m 12.553,-2.182 -1.692,5.625 -2.944,-1.055 -2.606,-5.793 -0.77,3.098 1.274,1.97 -4.805,-1.428 2.007,-0.952 1.04,-4.189 -1.392,-1.875 4.724,1.348 2.791,5.779 0.879,-3.018 -1.201,-1.97 4.688,1.663 -1.993,0.797 z m 9.449,3.369 -1.312,-0.483 -1.545,4.402 1.12,1.992 -5.896,-2.227 2.072,-0.762 1.561,-4.431 -1.304,-0.513 -2.791,0.923 0.981,-2.893 c 1.678,0.623 7.112,2.666 9.705,3.677 l -0.989,2.886 -1.602,-2.571 z m 12.085,6.577 c -0.688,2.131 -3.311,3.003 -6.321,2.117 -3.039,-0.93 -4.65,-3.098 -3.947,-5.222 0.688,-2.139 3.296,-3.018 6.328,-2.095 3.009,0.915 4.635,3.054 3.94,5.2"
         id="path6249"
         inkscape:connector-curvature="0"
         style="fill:#393d94" /><polygon
         points="93.744,82.629 92.359,80.754 91.393,82.813 "
         id="polygon6251"
         style="fill:#051922" /><polygon
         points="93.744,82.629 92.359,80.754 91.393,82.813 "
         id="polygon6253"
         style="fill:#5a4099" /><path
         d="M 81.131,81.523 79,82.036 l 0.388,1.765 2.058,-0.476 c 0.74,-0.176 1.179,-0.608 1.106,-1.084 -0.095,-0.644 -0.681,-0.864 -1.421,-0.718"
         id="path6255"
         inkscape:connector-curvature="0"
         style="fill:#051922" /><path
         d="M 81.131,81.523 79,82.036 l 0.388,1.765 2.058,-0.476 c 0.74,-0.176 1.179,-0.608 1.106,-1.084 -0.095,-0.644 -0.681,-0.864 -1.421,-0.718"
         id="path6257"
         inkscape:connector-curvature="0"
         style="fill:#5a4099" /><polygon
         points="60.572,91.023 58.719,89.521 58.353,91.829 "
         id="polygon6259"
         style="fill:#051922" /><polygon
         points="60.572,91.023 58.719,89.521 58.353,91.829 "
         id="polygon6261"
         style="fill:#5a4099" /><path
         d="m 153.824,92.202 c -1.414,-0.417 -2.659,0.212 -3.084,1.538 -0.41,1.296 0.22,2.483 1.634,2.9 1.406,0.425 2.695,-0.161 3.127,-1.472 0.41,-1.311 -0.264,-2.541 -1.677,-2.966"
         id="path6263"
         inkscape:connector-curvature="0"
         style="fill:#051922" /><path
         d="m 153.824,92.202 c -1.414,-0.417 -2.659,0.212 -3.084,1.538 -0.41,1.296 0.22,2.483 1.634,2.9 1.406,0.425 2.695,-0.161 3.127,-1.472 0.41,-1.311 -0.264,-2.541 -1.677,-2.966"
         id="path6265"
         inkscape:connector-curvature="0"
         style="fill:#5a4099" /><path
         d="m 49.469,92.876 c -1.538,0.469 -2.666,1.033 -2.871,0.498 -0.183,-0.483 0.901,-1.091 2.102,-1.545 1.582,-0.586 3.201,-0.82 4.988,-0.447 l -0.842,-2.263 -0.703,0.996 c -1.062,-0.081 -2.732,0.183 -4.116,0.681 -2.556,0.945 -4.006,2.417 -3.428,3.926 0.564,1.516 2.527,1.509 5.127,0.703 1.553,-0.432 2.754,-0.959 2.981,-0.403 0.205,0.542 -0.681,1.04 -1.904,1.487 -1.597,0.586 -3.589,0.769 -5.354,0.249 l 0.952,2.498 0.659,-0.959 c 1.062,0.059 3.01,-0.293 4.395,-0.798 2.542,-0.938 4.065,-2.219 3.45,-3.838 -0.595,-1.605 -2.873,-1.591 -5.436,-0.785"
         id="path6267"
         inkscape:connector-curvature="0"
         style="fill:#ffffff" /><path
         d="m 71.207,89.009 c -1.611,0.461 -3.589,0.146 -3.97,-1.201 -0.396,-1.34 1.091,-2.651 2.71,-3.135 1.553,-0.439 2.585,-0.425 4.336,0.359 l -0.813,-2.783 -0.769,0.93 c -1.025,-0.198 -2.446,-0.11 -3.787,0.286 -3.157,0.916 -5.105,3.113 -4.497,5.193 0.615,2.073 3.406,2.82 6.57,1.919 1.956,-0.571 3.472,-1.729 4.109,-2.725 l -0.388,-1.311 c -0.967,1.743 -2.446,2.16 -3.501,2.468"
         id="path6269"
         inkscape:connector-curvature="0"
         style="fill:#ffffff" /><path
         d="m 112.362,80.41 1.787,-1.348 c -1.385,-0.19 -4.351,-0.469 -5.662,-0.579 l -1.787,3.457 -1.509,-3.574 c -1.23,-0.059 -3.992,-0.066 -5.435,-0.059 l 1.582,1.487 -0.146,4.211 -1.743,1.487 c 1.348,-0.044 3.919,-0.015 4.893,0.015 l -1.582,-1.494 0.146,-4.211 2.366,5.771 1.354,0.051 2.908,-5.464 -0.381,4.131 -1.634,1.355 c 1.304,0.059 4.241,0.344 6.021,0.557 l -1.589,-1.721 0.411,-4.072 z"
         id="path6271"
         inkscape:connector-curvature="0"
         style="fill:#ffffff" /><path
         d="m 118.624,85.647 0.308,-1.736 2.168,0.388 1.105,0.974 0.535,-2.695 -1.398,0.505 -2.205,-0.396 0.264,-1.538 3.809,0.703 1.984,1.846 0.527,-2.542 c -4.152,-0.93 -8.225,-1.663 -10.554,-1.97 l 1.406,1.75 -0.725,4.109 -1.948,1.208 c 3.01,0.432 7.514,1.333 10.275,1.978 l 0.659,-2.893 -2.49,0.996 -3.72,-0.687 z"
         id="path6273"
         inkscape:connector-curvature="0"
         style="fill:#ffffff" /><polygon
         points="126.842,81.443 128.233,83.325 127.193,87.515 125.187,88.467 129.991,89.895 128.717,87.925 129.486,84.827 132.093,90.62 135.045,91.675 136.729,86.042 138.729,85.251 134.034,83.589 135.235,85.559 134.356,88.577 131.573,82.798 "
         id="polygon6275"
         style="fill:#ffffff" /><path
         d="m 139.065,85.427 -0.981,2.893 2.791,-0.923 1.304,0.505 -1.561,4.438 -2.072,0.754 5.896,2.234 -1.12,-1.992 1.553,-4.409 1.304,0.491 1.604,2.571 0.989,-2.886 c -2.594,-1.01 -8.029,-3.061 -9.707,-3.676"
         id="path6277"
         inkscape:connector-curvature="0"
         style="fill:#ffffff" /><path
         d="m 154.322,90.796 c -3.032,-0.923 -5.64,-0.044 -6.328,2.095 -0.703,2.131 0.908,4.292 3.947,5.222 3.011,0.894 5.633,0.015 6.321,-2.117 0.696,-2.146 -0.93,-4.285 -3.94,-5.2 m 1.179,4.372 c -0.432,1.311 -1.721,1.897 -3.127,1.472 -1.414,-0.417 -2.044,-1.597 -1.634,-2.908 0.425,-1.318 1.67,-1.941 3.084,-1.531 1.413,0.426 2.087,1.649 1.677,2.967"
         id="path6279"
         inkscape:connector-curvature="0"
         style="fill:#ffffff" /><path
         d="m 60.821,88.115 1.15,-2.021 c -1.428,0.571 -4.863,1.736 -6.907,2.476 l 2.102,0.85 -0.864,4.812 -0.996,2.161 c 1.392,-0.513 3.816,-1.414 4.885,-1.772 l -2.183,-0.967 0.088,-0.447 3.604,-1.267 0.374,0.293 -0.813,1.956 c 0.989,-0.366 3.875,-1.516 5.486,-2.08 L 64.52,91.113 60.821,88.115 Z m -2.468,3.714 0.366,-2.307 1.853,1.501 -2.219,0.806 z"
         id="path6281"
         inkscape:connector-curvature="0"
         style="fill:#ffffff" /><path
         d="m 94.718,79.963 1.567,-1.582 c -1.919,0.117 -4.636,0.322 -7.207,0.586 l 1.809,1.304 -2.043,4.299 -1.23,1.479 -1.729,-0.894 C 85.599,84.811 85.358,84.51 85.123,84.21 84.72,83.778 84.178,83.705 83.761,83.8 l -0.015,-0.022 c 1.326,-0.469 2.117,-1.296 1.948,-2.314 -0.22,-1.333 -2.095,-1.794 -4.739,-1.208 -2.058,0.439 -4.38,1.135 -6.614,1.685 l 1.978,1.04 0.872,4.138 -1.355,1.824 6.05,-1.523 -1.963,-1.091 -0.278,-1.333 1.67,-0.381 c 0.432,-0.095 0.63,0.051 0.901,0.417 0.505,0.747 1.055,1.56 1.685,1.985 l 4.277,-0.659 -0.029,-0.022 c 1.509,-0.19 3.398,-0.396 4.321,-0.454 l -1.824,-1.414 0.168,-0.41 3.779,-0.256 0.271,0.359 -1.296,1.619 c 1.077,-0.029 3.567,-0.286 5.881,-0.286 L 97.501,83.897 94.718,79.963 Z M 81.439,83.325 79.388,83.801 79,82.036 81.131,81.523 c 0.74,-0.154 1.326,0.066 1.421,0.71 0.073,0.477 -0.366,0.916 -1.113,1.092 m 9.954,-0.512 0.967,-2.058 1.384,1.875 -2.351,0.183 z"
         id="path6283"
         inkscape:connector-curvature="0"
         style="fill:#ffffff" /><path
         d="m 101.976,172.593 0.271,0.007 c 1.948,0.088 3.875,0.433 5.713,1.025 l 0.242,0.059 0.095,-0.22 c 0.557,-1.252 1.26,-2.168 1.751,-2.681 0,0 0.015,-0.044 0.08,-0.08 -2.497,-1.092 -5.259,-1.736 -8.137,-1.824 l 0,0.029 -0.015,3.685 z"
         id="path6285"
         inkscape:connector-curvature="0"
         style="fill:#393d94" /><path
         d="m 94.483,173.449 0.095,0.234 0.227,-0.073 c 1.86,-0.593 3.779,-0.923 5.728,-1.011 l 0.264,-0.007 0,-3.714 c -2.886,0.088 -5.625,0.718 -8.123,1.81 0.029,0.021 0.051,0.08 0.051,0.08 0.499,0.513 1.187,1.429 1.758,2.681"
         id="path6287"
         inkscape:connector-curvature="0"
         style="fill:#393d94" /><path
         d="m 111.952,188.442 c -0.008,-0.022 -2.674,-4.358 -2.674,-4.358 -1.237,-2.197 -1.867,-4.343 -1.867,-6.445 0,-0.871 0.109,-1.75 0.329,-2.593 l 0.073,-0.249 -0.256,-0.08 c -1.692,-0.542 -3.486,-0.85 -5.303,-0.938 l -0.278,0 -0.037,38.394 c 6.064,-0.154 11.499,-2.791 15.337,-6.943 l 0,-0.022 c 0,-8.497 -2.35,-12.151 -5.324,-16.766"
         id="path6289"
         inkscape:connector-curvature="0"
         style="fill:#393d94" /><path
         d="m 121.891,194.279 c 0,-5.479 -2.131,-10.62 -6.006,-14.502 -1.926,-1.926 -4.175,-3.428 -6.665,-4.453 l -0.308,-0.124 -0.065,0.3 c -0.184,0.696 -0.249,1.414 -0.249,2.139 0,1.875 0.563,3.853 1.706,5.867 l 2.607,4.255 c 2.798,4.358 5.208,8.086 5.508,15.776 0,0 0.007,0.154 0.015,0.315 1.135,-1.436 2.08,-3.025 2.82,-4.725 0.395,-1.589 0.637,-3.229 0.637,-4.826 l 0,-0.022 z"
         id="path6291"
         inkscape:connector-curvature="0"
         style="fill:#393d94" /><path
         d="m 93.187,174.196 0.278,-0.109 -0.125,-0.257 c -0.564,-1.216 -1.296,-2.065 -1.824,-2.6 -7.002,3.596 -11.807,10.876 -11.814,19.284 0,0.521 0.037,1.04 0.066,1.567 0.125,-0.776 0.22,-1.384 0.22,-1.384 1.224,-7.352 6.292,-13.68 13.199,-16.501"
         id="path6293"
         inkscape:connector-curvature="0"
         style="fill:#393d94" /><path
         d="m 89.818,187.775 c 0,-0.015 2.637,-4.277 2.637,-4.277 1.15,-2.043 1.729,-4.014 1.729,-5.881 0,-0.726 -0.095,-1.429 -0.271,-2.124 l -0.066,-0.301 -0.293,0.11 c -2.498,1.032 -4.739,2.534 -6.665,4.46 -3.889,3.867 -6.028,9.031 -6.028,14.495 l 0,0.021 c 0,1.597 0.212,3.187 0.608,4.783 0.725,1.735 1.707,3.347 2.849,4.805 l 0,-0.352 c 0.314,-7.711 2.724,-11.432 5.5,-15.739"
         id="path6295"
         inkscape:connector-curvature="0"
         style="fill:#393d94" /><path
         d="m 111.256,171.26 c -0.513,0.498 -1.237,1.34 -1.816,2.57 l -0.117,0.257 0.264,0.117 c 2.674,1.084 5.068,2.688 7.127,4.746 3.229,3.244 5.316,7.316 6.057,11.777 0,0 0.088,0.578 0.205,1.354 0.044,-0.498 0.044,-1.018 0.044,-1.545 0.005,-8.386 -4.77,-15.687 -11.764,-19.276"
         id="path6297"
         inkscape:connector-curvature="0"
         style="fill:#393d94" /><path
         d="m 100.511,173.779 c -1.802,0.088 -3.589,0.388 -5.295,0.923 l -0.234,0.08 0.059,0.264 c 0.198,0.835 0.315,1.699 0.315,2.571 0,2.087 -0.623,4.248 -1.882,6.467 l -2.666,4.314 c -2.988,4.636 -5.347,8.306 -5.347,16.809 3.816,4.146 9.25,6.797 15.308,6.966 0,-5.728 0.029,-38.394 0.029,-38.394 l -0.287,0 z"
         id="path6299"
         inkscape:connector-curvature="0"
         style="fill:#393d94" /><g
         enable-background="new    "
         id="g6301"><g
           id="g6303"><path
             d="m 116.713,178.957 c -2.059,-2.065 -4.453,-3.662 -7.127,-4.761 l -0.264,-0.109 0.117,-0.257 c 0.579,-1.23 1.304,-2.072 1.816,-2.57 -0.366,-0.19 -0.739,-0.374 -1.128,-0.557 -0.065,0.036 -0.08,0.08 -0.08,0.08 -0.491,0.513 -1.194,1.429 -1.751,2.681 l -0.095,0.22 -0.242,-0.059 c -1.838,-0.593 -3.765,-0.938 -5.713,-1.025 l -0.271,-0.007 0.015,-3.685 0,-0.029 c -0.212,-0.007 -0.417,-0.015 -0.593,-0.015 -0.205,0 -0.396,0.008 -0.601,0.015 l 0,3.714 -0.264,0.007 c -1.948,0.088 -3.867,0.418 -5.728,1.011 l -0.227,0.073 -0.095,-0.234 c -0.571,-1.252 -1.26,-2.168 -1.758,-2.681 0,0 -0.022,-0.059 -0.051,-0.08 -0.403,0.176 -0.762,0.352 -1.157,0.542 0.527,0.534 1.26,1.384 1.824,2.6 l 0.125,0.257 -0.278,0.109 c -6.907,2.82 -11.975,9.155 -13.198,16.509 0,0 -0.095,0.601 -0.22,1.37 0.176,2.461 0.762,4.819 1.699,6.994 -0.396,-1.604 -0.608,-3.193 -0.608,-4.79 l 0,-0.021 c 0,-5.464 2.139,-10.628 6.028,-14.495 1.926,-1.926 4.167,-3.428 6.665,-4.46 l 0.293,-0.11 0.066,0.301 c 0.176,0.695 0.271,1.398 0.271,2.124 0,1.867 -0.579,3.838 -1.729,5.881 0,0 -2.637,4.263 -2.637,4.277 -2.776,4.307 -5.186,8.027 -5.5,15.74 l 0,0.352 c 0.359,0.461 0.725,0.908 1.143,1.34 0,-8.503 2.358,-12.173 5.347,-16.809 l 2.666,-4.321 c 1.26,-2.212 1.882,-4.38 1.882,-6.46 0,-0.872 -0.117,-1.736 -0.315,-2.571 l -0.059,-0.264 0.234,-0.073 c 1.707,-0.542 3.494,-0.842 5.295,-0.93 l 0.286,-0.008 c 0,0 -0.029,32.681 -0.029,38.408 0.183,0 0.388,0.008 0.586,0.008 0.205,0 0.396,-0.008 0.586,-0.008 l 0.037,-38.4 0.278,0 c 1.817,0.088 3.611,0.396 5.303,0.944 l 0.256,0.073 -0.073,0.249 c -0.22,0.85 -0.329,1.722 -0.329,2.593 0,2.103 0.63,4.256 1.867,6.445 0,0 2.666,4.336 2.674,4.358 2.974,4.614 5.324,8.269 5.324,16.765 l 0,0.029 c 0.41,-0.432 0.784,-0.908 1.157,-1.384 -0.008,-0.161 -0.015,-0.315 -0.015,-0.315 -0.3,-7.69 -2.71,-11.418 -5.508,-15.776 l -2.607,-4.255 c -1.143,-2.015 -1.706,-3.999 -1.706,-5.867 0,-0.725 0.065,-1.442 0.249,-2.139 l 0.065,-0.3 0.308,0.124 c 2.49,1.025 4.739,2.527 6.665,4.453 3.875,3.882 6.006,9.023 6.006,14.502 l 0,0.022 c 0,1.597 -0.242,3.237 -0.637,4.826 0.938,-2.189 1.545,-4.556 1.721,-7.046 -0.117,-0.769 -0.205,-1.354 -0.205,-1.354 -0.74,-4.468 -2.827,-8.534 -6.056,-11.771"
             id="path6305"
             inkscape:connector-curvature="0"
             style="fill:#a7a9ac" /></g></g><g
         enable-background="new    "
         id="g6307"><g
           id="g6309"><defs
             id="defs6311"><rect
               id="SVGID_1_"
               x="29.129"
               y="225.50301"
               width="3.757"
               height="12.261" /></defs><clipPath
             id="SVGID_2_"><use
               xlink:href="#SVGID_1_"
               overflow="visible"
               id="use6315"
               style="overflow:visible"
               x="0"
               y="0"
               width="100%"
               height="100%" /></clipPath><polygon
             clip-path="url(#SVGID_2_)"
             points="29.188,229.978 29.349,232.798 29.613,237.36 29.635,237.764 32.887,234.087 32.85,233.721 32.418,225.891 32.389,225.503 29.129,229.238 29.159,229.597 "
             id="polygon6317"
             style="fill:#a7a9ac" /></g></g><g
         enable-background="new    "
         id="g6319"><g
           id="g6321"><defs
             id="defs6323"><rect
               id="SVGID_3_"
               x="48.875"
               y="202.966"
               width="3.8310001"
               height="12.474" /></defs><clipPath
             id="SVGID_4_"><use
               xlink:href="#SVGID_3_"
               overflow="visible"
               id="use6327"
               style="overflow:visible"
               x="0"
               y="0"
               width="100%"
               height="100%" /></clipPath><polygon
             clip-path="url(#SVGID_4_)"
             points="48.875,206.753 48.919,207.104 49.352,215.059 49.381,215.439 52.706,211.652 52.699,211.271 52.669,210.884 52.42,206.577 52.23,203.347 52.193,202.966 "
             id="polygon6329"
             style="fill:#a7a9ac" /></g></g><g
         enable-background="new    "
         id="g6331"><g
           id="g6333"><defs
             id="defs6335"><rect
               id="SVGID_5_"
               x="38.973"
               y="214.245"
               width="3.809"
               height="12.378" /></defs><clipPath
             id="SVGID_6_"><use
               xlink:href="#SVGID_5_"
               overflow="visible"
               id="use6339"
               style="overflow:visible"
               x="0"
               y="0"
               width="100%"
               height="100%" /></clipPath><polygon
             clip-path="url(#SVGID_6_)"
             points="39.281,223.122 39.435,225.869 39.457,226.25 39.471,226.623 42.782,222.888 42.752,222.515 42.313,214.626 42.284,214.245 38.973,218.01 39.017,218.376 "
             id="polygon6341"
             style="fill:#a7a9ac" /></g></g><g
         enable-background="new    "
         id="g6343"><g
           id="g6345"><defs
             id="defs6347"><rect
               id="SVGID_7_"
               x="169.806"
               y="225.612"
               width="3.7420001"
               height="12.275" /></defs><clipPath
             id="SVGID_8_"><use
               xlink:href="#SVGID_7_"
               overflow="visible"
               id="use6351"
               style="overflow:visible"
               x="0"
               y="0"
               width="100%"
               height="100%" /></clipPath><path
             clip-path="url(#SVGID_8_)"
             d="m 170.179,227.671 -0.322,5.786 -0.044,0.381 -0.007,0.381 3.223,3.662 0.021,-0.389 0.015,-0.373 0.433,-7.01 0.029,-0.388 0.021,-0.374 c -0.996,-1.164 -2.102,-2.409 -3.259,-3.735 l -0.022,0.389 -0.088,1.67 z"
             id="path6353"
             inkscape:connector-curvature="0"
             style="fill:#a7a9ac" /></g></g><g
         enable-background="new    "
         id="g6355"><g
           id="g6357"><defs
             id="defs6359"><rect
               id="SVGID_9_"
               x="149.979"
               y="203.032"
               width="3.8529999"
               height="12.473" /></defs><clipPath
             id="SVGID_10_"><use
               xlink:href="#SVGID_9_"
               overflow="visible"
               id="use6363"
               style="overflow:visible"
               x="0"
               y="0"
               width="100%"
               height="100%" /></clipPath><path
             clip-path="url(#SVGID_10_)"
             d="m 150.484,203.809 -0.381,5.969 -0.088,1.567 -0.037,0.374 3.354,3.786 0.015,-0.366 0.462,-7.939 0.021,-0.388 c -1.392,-1.582 -2.541,-2.879 -3.303,-3.779 l -0.022,0.396 -0.021,0.38 z"
             id="path6365"
             inkscape:connector-curvature="0"
             style="fill:#a7a9ac" /></g></g><g
         enable-background="new    "
         id="g6367"><g
           id="g6369"><defs
             id="defs6371"><rect
               id="SVGID_11_"
               x="159.918"
               y="214.326"
               width="3.8010001"
               height="12.407" /></defs><clipPath
             id="SVGID_12_"><use
               xlink:href="#SVGID_11_"
               overflow="visible"
               id="use6375"
               style="overflow:visible"
               x="0"
               y="0"
               width="100%"
               height="100%" /></clipPath><path
             clip-path="url(#SVGID_12_)"
             d="m 160.357,215.117 -0.19,3.566 -0.228,3.919 -0.021,0.396 3.303,3.735 0.015,-0.374 0.015,-0.388 0.14,-2.41 0.3,-5.075 0.029,-0.374 c -1.113,-1.274 -2.233,-2.549 -3.317,-3.786 l -0.015,0.402 -0.031,0.389 z"
             id="path6377"
             inkscape:connector-curvature="0"
             style="fill:#a7a9ac" /></g></g><g
         enable-background="new    "
         id="g6379"><g
           id="g6381"><path
             d="m 39.361,85.398 c 0.256,-0.081 1.963,-0.593 2.52,-0.762 -0.432,-0.513 -2.952,-3.567 -2.952,-3.567 l 0.374,-0.117 c 0.586,-0.198 1.062,-0.564 1.531,-0.894 0,0 0.403,-0.264 0.696,-0.454 -0.359,-0.417 -2.944,-3.413 -2.944,-3.413 0,0 -0.403,-0.461 -0.403,-0.469 l -6.665,-6.255 c -4.263,-4.028 -9.873,-9.331 -14.817,-13.835 5.742,8.262 13.396,18.589 17.307,23.701 -0.001,0 5.134,5.823 5.353,6.065"
             id="path6383"
             inkscape:connector-curvature="0"
             style="fill:#a7a9ac" /></g></g><path
         d="m 33.758,85.508 0.337,-0.132 -4.189,-5.259 -0.183,-0.227 -0.22,0.212 c -1.487,1.479 -3.721,3.721 -1.89,5.544 1.033,1.041 4.607,0.492 6.145,-0.138"
         id="path6385"
         inkscape:connector-curvature="0"
         style="fill:#051922" /><path
         d="m 33.758,85.508 0.337,-0.132 -4.189,-5.259 -0.183,-0.227 -0.22,0.212 c -1.487,1.479 -3.721,3.721 -1.89,5.544 1.033,1.041 4.607,0.492 6.145,-0.138"
         id="path6387"
         inkscape:connector-curvature="0"
         style="fill:#393d94" /><path
         d="m 45.111,77.803 c 1.604,-0.923 2.725,-2.292 2.996,-3.662 0.117,-0.63 0.029,-1.143 -0.242,-1.516 -1.018,-1.282 -3.494,-1.099 -6.98,0.513 l -0.344,0.154 4.38,4.592 0.19,-0.081 z"
         id="path6389"
         inkscape:connector-curvature="0"
         style="fill:#051922" /><path
         d="m 45.111,77.803 c 1.604,-0.923 2.725,-2.292 2.996,-3.662 0.117,-0.63 0.029,-1.143 -0.242,-1.516 -1.018,-1.282 -3.494,-1.099 -6.98,0.513 l -0.344,0.154 4.38,4.592 0.19,-0.081 z"
         id="path6391"
         inkscape:connector-curvature="0"
         style="fill:#393d94" /><path
         d="m 44.452,82.043 -0.308,0.161 1.538,1.853 0.168,-0.051 c 0.051,-0.022 5.662,-1.758 9.492,-3.486 l 0.278,-0.11 -4.556,-7.258 -0.469,0.271 c 0.388,0.703 0.425,1.509 0.146,2.41 -0.672,2.16 -3.147,4.592 -6.289,6.21"
         id="path6393"
         inkscape:connector-curvature="0"
         style="fill:#051922" /><path
         d="m 44.452,82.043 -0.308,0.161 1.538,1.853 0.168,-0.051 c 0.051,-0.022 5.662,-1.758 9.492,-3.486 l 0.278,-0.11 -4.556,-7.258 -0.469,0.271 c 0.388,0.703 0.425,1.509 0.146,2.41 -0.672,2.16 -3.147,4.592 -6.289,6.21"
         id="path6395"
         inkscape:connector-curvature="0"
         style="fill:#393d94" /><g
         enable-background="new    "
         id="g6397"><g
           id="g6399"><path
             d="m 101.478,70.449 c 16.853,0.022 29.26,3.838 40.166,8.035 0.19,-0.454 7.757,-18.003 8.313,-19.299 -1.26,0.667 -18.904,9.946 -18.904,9.946 0,0 3.032,-32.41 3.187,-34.102 -1.077,1.326 -22.961,28.469 -22.961,28.469 0,0 -9.273,-33.069 -9.756,-34.827 -0.498,1.758 -9.844,34.805 -9.844,34.805 0,0 -21.842,-27.172 -22.918,-28.505 0.161,1.699 3.135,34.124 3.135,34.124 0,0 -17.622,-9.331 -18.889,-9.998 0.557,1.296 8.093,18.86 8.306,19.314 10.883,-4.161 23.312,-7.984 40.165,-7.962"
             id="path6401"
             inkscape:connector-curvature="0"
             style="fill:#a7a9ac" /></g></g><path
         d="m 173.211,79.993 -0.396,0.52 -3.977,4.973 0.314,0.139 c 1.546,0.623 5.135,1.172 6.16,0.146 1.831,-1.824 -0.403,-4.065 -1.883,-5.552 l -0.218,-0.226 z"
         id="path6403"
         inkscape:connector-curvature="0"
         style="fill:#051922" /><path
         d="m 173.211,79.993 -0.396,0.52 -3.977,4.973 0.314,0.139 c 1.546,0.623 5.135,1.172 6.16,0.146 1.831,-1.824 -0.403,-4.065 -1.883,-5.552 l -0.218,-0.226 z"
         id="path6405"
         inkscape:connector-curvature="0"
         style="fill:#393d94" /><path
         d="m 157.83,77.883 0.19,0.11 4.395,-4.607 -0.358,-0.139 c -3.486,-1.611 -5.962,-1.816 -6.973,-0.527 -0.278,0.359 -0.352,0.886 -0.234,1.509 0.255,1.362 1.377,2.724 2.98,3.654"
         id="path6407"
         inkscape:connector-curvature="0"
         style="fill:#051922" /><path
         d="m 157.83,77.883 0.19,0.11 4.395,-4.607 -0.358,-0.139 c -3.486,-1.611 -5.962,-1.816 -6.973,-0.527 -0.278,0.359 -0.352,0.886 -0.234,1.509 0.255,1.362 1.377,2.724 2.98,3.654"
         id="path6409"
         inkscape:connector-curvature="0"
         style="fill:#393d94" /><path
         d="m 147.591,80.615 c 3.831,1.721 9.427,3.457 9.478,3.479 l 0.184,0.051 1.516,-1.86 -0.285,-0.154 c -3.157,-1.619 -5.61,-4.072 -6.284,-6.218 -0.286,-0.886 -0.228,-1.707 0.146,-2.402 l -0.462,-0.264 -4.57,7.236 0.277,0.132 z"
         id="path6411"
         inkscape:connector-curvature="0"
         style="fill:#051922" /><path
         d="m 147.591,80.615 c 3.831,1.721 9.427,3.457 9.478,3.479 l 0.184,0.051 1.516,-1.86 -0.285,-0.154 c -3.157,-1.619 -5.61,-4.072 -6.284,-6.218 -0.286,-0.886 -0.228,-1.707 0.146,-2.402 l -0.462,-0.264 -4.57,7.236 0.277,0.132 z"
         id="path6413"
         inkscape:connector-curvature="0"
         style="fill:#393d94" /><path
         d="m 162.356,102.485 0.652,0 c 0,0 22.009,-0.022 22.471,-0.022 0,0.439 0.007,2.637 0.007,2.637 0.037,3.193 0.059,6.27 0.059,9.243 0,6.057 -0.065,11.674 -0.234,17.029 0,0 -0.095,3.728 -0.146,5.061 -0.674,-0.49 -17.314,-12.729 -17.585,-12.912 0,-0.227 0.015,-1.362 0.015,-1.362 l 0,-5.398 -0.278,0 -6.746,0.007 c 0,0 -0.007,0.498 -0.007,0.615 0,3.369 0.703,5.808 4.313,9.982 l 5.677,6.445 c 0.015,0 4.826,5.501 4.826,5.501 l 1.055,1.164 c 2.476,2.622 6.577,6.973 6.577,16.846 0,2.856 -0.337,6.175 -1.172,10.057 -2.526,11.755 -4.094,16.816 -5.684,20.786 -0.029,0.059 -0.059,0.139 -0.059,0.139 0,0 -1.406,2.981 -1.809,3.831 -0.454,-0.389 -2.659,-2.373 -2.659,-2.373 -2.271,-2.015 -4.629,-3.999 -7.046,-5.867 l -0.176,-0.139 -4.24,3.61 0.241,0.213 c 5.384,4.475 10.452,9.587 15.125,15.183 l 0.256,0.301 0.19,-0.366 c 5.581,-10.767 9.639,-23.68 12.063,-38.379 2.256,-13.719 3.179,-36.805 2.614,-65.01 l -0.029,-1.633 -0.271,0 -23.13,-0.015 -4.87,4.826 z"
         id="path6415"
         inkscape:connector-curvature="0"
         style="fill:#051922" /><path
         d="m 162.356,102.485 0.652,0 c 0,0 22.009,-0.022 22.471,-0.022 0,0.439 0.007,2.637 0.007,2.637 0.037,3.193 0.059,6.27 0.059,9.243 0,6.057 -0.065,11.674 -0.234,17.029 0,0 -0.095,3.728 -0.146,5.061 -0.674,-0.49 -17.314,-12.729 -17.585,-12.912 0,-0.227 0.015,-1.362 0.015,-1.362 l 0,-5.398 -0.278,0 -6.746,0.007 c 0,0 -0.007,0.498 -0.007,0.615 0,3.369 0.703,5.808 4.313,9.982 l 5.677,6.445 c 0.015,0 4.826,5.501 4.826,5.501 l 1.055,1.164 c 2.476,2.622 6.577,6.973 6.577,16.846 0,2.856 -0.337,6.175 -1.172,10.057 -2.526,11.755 -4.094,16.816 -5.684,20.786 -0.029,0.059 -0.059,0.139 -0.059,0.139 0,0 -1.406,2.981 -1.809,3.831 -0.454,-0.389 -2.659,-2.373 -2.659,-2.373 -2.271,-2.015 -4.629,-3.999 -7.046,-5.867 l -0.176,-0.139 -4.24,3.61 0.241,0.213 c 5.384,4.475 10.452,9.587 15.125,15.183 l 0.256,0.301 0.19,-0.366 c 5.581,-10.767 9.639,-23.68 12.063,-38.379 2.256,-13.719 3.179,-36.805 2.614,-65.01 l -0.029,-1.633 -0.271,0 -23.13,-0.015 -4.87,4.826 z"
         id="path6417"
         inkscape:connector-curvature="0"
         style="fill:#393d94" /><g
         enable-background="new    "
         id="g6419"><g
           id="g6421"><path
             d="m 164.781,75.818 -0.396,0.447 c 0,0 -2.615,3.04 -2.981,3.435 0.286,0.198 0.682,0.447 0.682,0.447 0.483,0.352 0.959,0.703 1.545,0.901 l 0.374,0.146 c 0,0 -2.52,3.032 -2.952,3.538 0.542,0.176 2.249,0.696 2.513,0.776 0.593,-0.667 5.361,-6.057 5.347,-6.042 3.955,-5.134 11.616,-15.447 17.373,-23.694 -4.959,4.497 -10.591,9.8 -14.847,13.813 l -6.658,6.233 z"
             id="path6423"
             inkscape:connector-curvature="0"
             style="fill:#a7a9ac" /></g></g><path
         d="m 69.105,99.014 c 0.007,0.315 0.022,2.476 0.022,2.908 0.527,0 64.116,0.044 64.644,0.044 0,-0.41 0.015,-2.571 0.029,-2.908 -7.829,-2.952 -18.56,-6.328 -32.358,-6.335 -13.777,-0.008 -24.507,3.339 -32.337,6.291 m 58.403,1.003 -52.119,-0.029 4.043,-2.93 44.026,0.044 4.05,2.915 z"
         id="path6425"
         inkscape:connector-curvature="0"
         style="fill:#a7a9ac" /><polygon
         points="75.389,99.988 127.508,100.017 123.458,97.102 79.432,97.058 "
         id="polygon6427"
         style="fill:#051922" /><polygon
         points="75.389,99.988 127.508,100.017 123.458,97.102 79.432,97.058 "
         id="polygon6429"
         style="fill:#051922" /><path
         d="m 182.645,131.299 c 0.293,-10.005 0.271,-19.468 0.184,-26.169 l -23.401,0.022 c -1.216,0.571 -2.424,0.667 -3.361,0.667 -1.18,0 -2.645,-0.234 -4.351,-0.667 l -5.757,0.015 -0.184,4.058 c -0.095,6.467 -0.476,17.014 5.896,24.089 4.885,5.42 7.192,7.83 8.73,9.404 1.055,1.106 1.743,1.831 2.644,2.871 0.19,0.228 0.403,0.454 0.638,0.703 2.08,2.241 4.87,5.223 3.229,15.843 -0.153,0.974 -0.82,3.413 -1.04,4.526 -2.028,-1.487 -8.562,-5.2 -10.803,-6.387 0.352,-2.373 0.681,-4.725 0.959,-7.068 L 144.8,144.358 c -0.659,7.705 -1.634,15.483 -3.091,22.705 9.938,4.336 20.72,10.913 31.685,20.728 l 0.285,-0.622 c 1.502,-3.75 3.011,-8.525 5.566,-20.347 3.398,-15.887 -1.714,-21.292 -4.753,-24.544 -0.418,-0.432 -0.813,-0.85 -1.15,-1.26 -1.465,-1.735 -3.003,-3.464 -4.775,-5.441 l -5.676,-6.445 c -4.995,-5.75 -5.127,-8.884 -4.937,-13.923 l 0.029,-1.091 12.231,-0.007 c 0.044,2.366 0.051,5.105 0.044,8.064 l 12.387,9.124 z"
         id="path6431"
         inkscape:connector-curvature="0"
         style="fill:#ffffff" /><path
         d="m 49.703,172.783 c 3.801,-2.205 7.493,-4.124 11.118,-5.706 -1.436,-7.229 -2.468,-15.021 -3.127,-22.69 l -10.913,-6.188 10.063,-7.251 c -0.396,-9.661 -0.396,-18.574 -0.293,-25.935 l -5.01,-0.022 c -1.853,0.483 -3.457,0.747 -4.724,0.747 -0.454,-0.015 -1.003,-0.044 -1.567,-0.125 -0.139,5.984 -0.22,13.835 0.007,22.727 l -11.697,8.511 c -0.483,-11.997 -0.425,-23.95 -0.308,-31.853 l -13.176,-0.007 c -0.19,13.315 -0.22,39.668 2.366,56.396 1.538,9.953 3.779,18.757 6.599,26.558 3.508,-3.149 6.951,-5.999 10.393,-8.496 -1.516,-5.654 -2.827,-11.704 -3.809,-18.047 -0.835,-5.354 -1.384,-11.727 -1.75,-18.289 l 12.649,7.471 c 0.696,7.565 1.714,15.16 3.179,22.199"
         id="path6433"
         inkscape:connector-curvature="0"
         style="fill:#ffffff" /><path
         d="m 163.009,182.686 c -7.222,-5.42 -14.729,-9.858 -22.354,-13.191 0,0 -1.509,-0.645 -1.971,-0.842 0.073,-0.359 0.418,-2.117 0.418,-2.117 1.311,-6.46 2.329,-13.989 3.047,-22.412 0,0 0.314,-3.604 0.425,-4.914 0.651,0.52 15.996,12.612 16.281,12.847 -0.036,0.227 -0.183,1.465 -0.183,1.465 l -0.703,5.31 0.168,0.096 6.021,3.472 0.073,-0.389 0.059,-0.271 c 1.443,-9.354 -0.688,-11.624 -2.556,-13.631 l -0.711,-0.798 -2.541,-2.754 -8.797,-9.471 c -6.862,-7.603 -6.694,-18.647 -6.577,-25.268 l 0,-0.652 c 0.008,-0.073 0.19,-4.124 0.19,-4.124 l 0.125,-2.834 -4.314,-1.626 c 0,0 -0.007,5.347 -0.007,5.845 -0.527,0 -74.78,-0.073 -75.322,-0.073 l 0,-5.815 -4.519,1.699 0,0.183 -0.029,2.644 c -0.059,2.886 -0.088,5.684 -0.088,8.43 0,6.05 0.117,11.777 0.352,17.329 0,0 0.059,1.194 0.059,1.436 -0.19,0.146 -7.852,5.677 -7.852,5.677 0,0 8.232,4.673 8.511,4.834 0.022,0.234 0.125,1.398 0.125,1.398 0.696,8.027 1.729,15.564 3.091,22.405 0,0 0.315,1.597 0.425,2.102 -0.337,0.14 -1.97,0.85 -1.97,0.85 -3.472,1.509 -7.009,3.325 -10.84,5.552 0,0 -2.336,1.355 -3.179,1.868 -0.125,-0.608 -0.747,-3.618 -0.747,-3.618 -1.289,-6.16 -2.322,-13.228 -3.098,-20.991 l -0.007,-0.146 -7.163,-4.219 0.044,0.513 c 0.366,4.826 0.828,9.03 1.362,12.502 0.93,6.028 2.19,12.005 3.728,17.783 0,0 0.396,1.458 0.491,1.758 -0.249,0.184 -1.472,1.069 -1.472,1.069 l -1.362,1.004 0.227,0.483 c 6.716,-1.567 14.465,-4.702 19.058,-6.899 19.299,-10.599 36.13,-11.741 42.473,-11.741 6.336,0.015 23.167,1.18 42.429,11.785 4.578,2.219 12.261,5.332 18.948,6.943 l 0.232,-0.486 z M 77.638,164.229 c -2.52,0.615 -4.98,1.325 -7.317,2.102 0,0 -2.432,0.799 -2.915,0.981 -0.095,-0.527 -0.542,-3.047 -0.542,-3.047 -2.703,-15.674 -3.384,-33.054 -3.384,-46.435 0,-2.058 0.007,-4.043 0.037,-5.911 0,0 0.037,-1.919 0.044,-2.615 0.432,0 12.649,0.007 13.352,0.007 0,0.454 -0.029,2.688 -0.029,2.688 -0.037,2.395 -0.066,4.717 -0.066,7.031 0,15.849 0.945,30.022 2.82,42.216 0,0 0.293,1.992 0.366,2.388 l -2.366,0.595 z m 31.084,-5.208 c 0,0 -0.183,2.124 -0.212,2.549 -0.425,-0.021 -2.557,-0.109 -2.557,-0.109 l -4.585,-0.081 -0.52,-0.021 c -0.037,0 -0.315,-0.022 -0.315,-0.022 0,0 -2,0.008 -2.681,0.008 0,-0.439 0.081,-26.616 0.081,-26.616 l -4.937,-3.252 0.007,0.498 c 0.095,10.744 0.403,19.592 0.908,27.041 0,0 0.146,1.978 0.176,2.607 -0.41,0.029 -2.578,0.234 -2.578,0.234 l -5.706,0.718 c 0,0 -2.263,0.337 -2.725,0.41 -0.059,-0.462 -0.315,-2.725 -0.315,-2.725 -1.355,-11.565 -2.029,-24.778 -2.029,-39.39 0,-2.915 0.022,-5.903 0.081,-8.95 0,0 0.044,-1.985 0.044,-2.607 0.447,0 9.602,0.007 9.602,0.007 0,0 2.285,0 2.717,0.015 -0.022,0.439 -0.117,5.105 -0.117,5.105 l 4.841,3.406 c 0,0 -0.007,-8.071 -0.007,-8.525 0.447,0 11.521,0.022 12.217,0.022 0,0.432 0.037,2.629 0.037,2.629 0.029,2.424 0.051,5.12 0.051,8.005 10e-4,11.065 -0.306,25.113 -1.478,39.044 m 26.718,8.305 c -0.483,-0.176 -2.908,-0.988 -2.908,-0.988 -5.822,-1.956 -11.806,-3.304 -18.288,-4.131 0,0 -2.146,-0.286 -2.578,-0.337 0.044,-0.433 0.278,-2.601 0.278,-2.601 1.494,-13.996 2.308,-29.904 2.454,-47.292 0,0 0.021,-2.205 0.021,-2.637 0.439,0 25.02,0.037 25.459,0.037 l 0,3.164 c 0,4.05 -0.081,8.408 -0.264,13.623 0,0 -0.125,3.618 -0.14,4.358 -0.645,-0.345 -9.016,-5.032 -9.016,-5.032 -0.755,-0.432 -1.157,-0.645 -1.377,-0.762 0,-0.249 0.036,-2.278 0.036,-2.278 l 0.016,-1.318 -2.93,0 0,0.264 c -0.301,11.88 -0.865,21.797 -1.722,30.322 l -0.015,0.249 2.388,0.461 0.029,-0.3 0.989,-9.148 -0.264,-0.021 c -0.514,-0.066 -0.813,-0.103 -1.041,-0.125 0.037,-0.417 0.286,-3.882 0.286,-3.882 0,0 0.337,-4.863 0.381,-5.61 0.439,0.052 2.402,0.228 2.402,0.228 0.015,0 7.17,0.674 7.17,0.674 0,0 1.927,0.212 2.52,0.278 -0.029,0.41 -0.161,2.534 -0.161,2.534 -0.659,10.202 -1.729,19.357 -3.171,27.246 0.003,0 -0.473,2.519 -0.554,3.024"
         id="path6435"
         inkscape:connector-curvature="0"
         style="fill:#051922" /><path
         d="m 163.009,182.686 c -7.222,-5.42 -14.729,-9.858 -22.354,-13.191 0,0 -1.509,-0.645 -1.971,-0.842 0.073,-0.359 0.418,-2.117 0.418,-2.117 1.311,-6.46 2.329,-13.989 3.047,-22.412 0,0 0.314,-3.604 0.425,-4.914 0.651,0.52 15.996,12.612 16.281,12.847 -0.036,0.227 -0.183,1.465 -0.183,1.465 l -0.703,5.31 0.168,0.096 6.021,3.472 0.073,-0.389 0.059,-0.271 c 1.443,-9.354 -0.688,-11.624 -2.556,-13.631 l -0.711,-0.798 -2.541,-2.754 -8.797,-9.471 c -6.862,-7.603 -6.694,-18.647 -6.577,-25.268 l 0,-0.652 c 0.008,-0.073 0.19,-4.124 0.19,-4.124 l 0.125,-2.834 -4.314,-1.626 c 0,0 -0.007,5.347 -0.007,5.845 -0.527,0 -74.78,-0.073 -75.322,-0.073 l 0,-5.815 -4.519,1.699 0,0.183 -0.029,2.644 c -0.059,2.886 -0.088,5.684 -0.088,8.43 0,6.05 0.117,11.777 0.352,17.329 0,0 0.059,1.194 0.059,1.436 -0.19,0.146 -7.852,5.677 -7.852,5.677 0,0 8.232,4.673 8.511,4.834 0.022,0.234 0.125,1.398 0.125,1.398 0.696,8.027 1.729,15.564 3.091,22.405 0,0 0.315,1.597 0.425,2.102 -0.337,0.14 -1.97,0.85 -1.97,0.85 -3.472,1.509 -7.009,3.325 -10.84,5.552 0,0 -2.336,1.355 -3.179,1.868 -0.125,-0.608 -0.747,-3.618 -0.747,-3.618 -1.289,-6.16 -2.322,-13.228 -3.098,-20.991 l -0.007,-0.146 -7.163,-4.219 0.044,0.513 c 0.366,4.826 0.828,9.03 1.362,12.502 0.93,6.028 2.19,12.005 3.728,17.783 0,0 0.396,1.458 0.491,1.758 -0.249,0.184 -1.472,1.069 -1.472,1.069 l -1.362,1.004 0.227,0.483 c 6.716,-1.567 14.465,-4.702 19.058,-6.899 19.299,-10.599 36.13,-11.741 42.473,-11.741 6.336,0.015 23.167,1.18 42.429,11.785 4.578,2.219 12.261,5.332 18.948,6.943 l 0.232,-0.486 z M 77.638,164.229 c -2.52,0.615 -4.98,1.325 -7.317,2.102 0,0 -2.432,0.799 -2.915,0.981 -0.095,-0.527 -0.542,-3.047 -0.542,-3.047 -2.703,-15.674 -3.384,-33.054 -3.384,-46.435 0,-2.058 0.007,-4.043 0.037,-5.911 0,0 0.037,-1.919 0.044,-2.615 0.432,0 12.649,0.007 13.352,0.007 0,0.454 -0.029,2.688 -0.029,2.688 -0.037,2.395 -0.066,4.717 -0.066,7.031 0,15.849 0.945,30.022 2.82,42.216 0,0 0.293,1.992 0.366,2.388 l -2.366,0.595 z m 31.084,-5.208 c 0,0 -0.183,2.124 -0.212,2.549 -0.425,-0.021 -2.557,-0.109 -2.557,-0.109 l -4.585,-0.081 -0.52,-0.021 c -0.037,0 -0.315,-0.022 -0.315,-0.022 0,0 -2,0.008 -2.681,0.008 0,-0.439 0.081,-26.616 0.081,-26.616 l -4.937,-3.252 0.007,0.498 c 0.095,10.744 0.403,19.592 0.908,27.041 0,0 0.146,1.978 0.176,2.607 -0.41,0.029 -2.578,0.234 -2.578,0.234 l -5.706,0.718 c 0,0 -2.263,0.337 -2.725,0.41 -0.059,-0.462 -0.315,-2.725 -0.315,-2.725 -1.355,-11.565 -2.029,-24.778 -2.029,-39.39 0,-2.915 0.022,-5.903 0.081,-8.95 0,0 0.044,-1.985 0.044,-2.607 0.447,0 9.602,0.007 9.602,0.007 0,0 2.285,0 2.717,0.015 -0.022,0.439 -0.117,5.105 -0.117,5.105 l 4.841,3.406 c 0,0 -0.007,-8.071 -0.007,-8.525 0.447,0 11.521,0.022 12.217,0.022 0,0.432 0.037,2.629 0.037,2.629 0.029,2.424 0.051,5.12 0.051,8.005 10e-4,11.065 -0.306,25.113 -1.478,39.044 m 26.718,8.305 c -0.483,-0.176 -2.908,-0.988 -2.908,-0.988 -5.822,-1.956 -11.806,-3.304 -18.288,-4.131 0,0 -2.146,-0.286 -2.578,-0.337 0.044,-0.433 0.278,-2.601 0.278,-2.601 1.494,-13.996 2.308,-29.904 2.454,-47.292 0,0 0.021,-2.205 0.021,-2.637 0.439,0 25.02,0.037 25.459,0.037 l 0,3.164 c 0,4.05 -0.081,8.408 -0.264,13.623 0,0 -0.125,3.618 -0.14,4.358 -0.645,-0.345 -9.016,-5.032 -9.016,-5.032 -0.755,-0.432 -1.157,-0.645 -1.377,-0.762 0,-0.249 0.036,-2.278 0.036,-2.278 l 0.016,-1.318 -2.93,0 0,0.264 c -0.301,11.88 -0.865,21.797 -1.722,30.322 l -0.015,0.249 2.388,0.461 0.029,-0.3 0.989,-9.148 -0.264,-0.021 c -0.514,-0.066 -0.813,-0.103 -1.041,-0.125 0.037,-0.417 0.286,-3.882 0.286,-3.882 0,0 0.337,-4.863 0.381,-5.61 0.439,0.052 2.402,0.228 2.402,0.228 0.015,0 7.17,0.674 7.17,0.674 0,0 1.927,0.212 2.52,0.278 -0.029,0.41 -0.161,2.534 -0.161,2.534 -0.659,10.202 -1.729,19.357 -3.171,27.246 0.003,0 -0.473,2.519 -0.554,3.024"
         id="path6437"
         inkscape:connector-curvature="0"
         style="fill:#393d94" /><path
         d="m 110.113,109.341 c -0.695,0 -11.77,-0.022 -12.217,-0.022 0,0.461 0.007,8.525 0.007,8.525 l -4.841,-3.406 c 0,0 0.095,-4.658 0.117,-5.105 -0.432,-0.015 -2.717,-0.015 -2.717,-0.015 0,0 -9.155,-0.015 -9.602,-0.015 0,0.623 -0.051,2.615 -0.051,2.615 -0.051,3.04 -0.073,6.042 -0.073,8.95 0,14.604 0.674,27.817 2.029,39.39 0,0 0.256,2.271 0.315,2.725 0.461,-0.073 2.725,-0.41 2.725,-0.41 l 5.706,-0.726 c 0,0 2.168,-0.197 2.578,-0.227 -0.029,-0.63 -0.176,-2.615 -0.176,-2.615 -0.505,-7.441 -0.813,-16.281 -0.908,-27.033 l -0.007,-0.491 4.937,3.252 c 0,0 -0.081,26.177 -0.081,26.609 0.681,0 2.681,-0.008 2.681,-0.008 0,0 0.278,0.022 0.315,0.022 l 0.52,0.015 4.585,0.088 c 0,0 2.132,0.088 2.557,0.103 0.029,-0.418 0.212,-2.542 0.212,-2.542 1.172,-13.931 1.479,-27.979 1.479,-39.038 0,-2.893 -0.021,-5.596 -0.051,-8.02 -0.002,10e-4 -0.039,-2.182 -0.039,-2.621 m -4.035,49.46 c -1.685,-0.073 -3.252,-0.095 -4.703,-0.095 -0.278,0 -0.586,-0.029 -0.857,-0.029 0.051,-8.32 0.088,-17.454 0.088,-25.379 l -10.305,-6.774 c 0.037,9.982 0.212,21.738 0.967,32.681 -1.853,0.168 -3.838,0.432 -5.859,0.732 -2.102,-18.032 -2.131,-36.863 -1.934,-47.966 l 6.987,0 c -0.051,1.274 -0.066,2.542 -0.088,3.838 l 10.217,7.148 c -0.022,-3.75 -0.029,-7.405 -0.029,-10.972 l 6.929,0 c 0.147,11.059 0.088,28.806 -1.413,46.816"
         id="path6439"
         inkscape:connector-curvature="0"
         style="fill:#051922" /><path
         d="m 76.817,119.031 c 0,-2.314 0.029,-4.636 0.066,-7.031 0,0 0.029,-2.234 0.029,-2.695 -0.703,0 -12.92,-0.015 -13.352,-0.015 -0.007,0.71 -0.044,2.629 -0.044,2.629 -0.029,1.868 -0.037,3.853 -0.037,5.918 0,13.381 0.681,30.754 3.384,46.436 0,0 0.447,2.512 0.542,3.039 0.483,-0.176 2.915,-0.981 2.915,-0.981 2.336,-0.776 4.797,-1.486 7.317,-2.102 l 2.366,-0.594 c -0.073,-0.396 -0.366,-2.388 -0.366,-2.388 -1.875,-12.194 -2.82,-26.367 -2.82,-42.216 m -7.338,44.78 c -3.208,-18.472 -3.501,-38.913 -3.296,-51.855 l 8.042,0 c -0.198,12.188 -0.037,31.34 2.776,49.687 -2.41,0.586 -4.952,1.311 -7.522,2.168"
         id="path6441"
         inkscape:connector-curvature="0"
         style="fill:#051922" /><path
         d="m 139.329,134.528 c -0.593,-0.073 -2.52,-0.285 -2.52,-0.285 0,0 -7.155,-0.674 -7.17,-0.674 0,0 -1.963,-0.176 -2.402,-0.228 -0.044,0.747 -0.381,5.61 -0.381,5.61 0,0 -0.249,3.465 -0.286,3.882 0.228,0.022 0.527,0.059 1.041,0.125 l 0.264,0.021 -0.989,9.148 -0.029,0.3 -2.388,-0.461 0.015,-0.249 c 0.856,-8.525 1.421,-18.442 1.722,-30.322 l 0,-0.264 2.93,0 -0.016,1.318 c 0,0 -0.036,2.029 -0.036,2.278 0.22,0.117 0.622,0.33 1.377,0.747 0,0 8.371,4.695 9.016,5.046 0.015,-0.74 0.14,-4.358 0.14,-4.358 0.183,-5.214 0.264,-9.572 0.264,-13.623 l 0,-3.164 c -0.439,0 -25.02,-0.037 -25.459,-0.037 0,0.432 -0.021,2.629 -0.021,2.629 -0.146,17.38 -0.96,33.303 -2.454,47.299 0,0 -0.234,2.168 -0.278,2.601 0.433,0.051 2.578,0.337 2.578,0.337 6.482,0.827 12.466,2.183 18.288,4.131 0,0 2.425,0.82 2.908,0.988 0.08,-0.505 0.557,-3.024 0.557,-3.024 1.442,-7.889 2.512,-17.044 3.171,-27.246 -0.003,0.003 0.129,-2.121 0.158,-2.525 m -5.954,29.297 c -6.834,-2.307 -13.184,-3.552 -18.786,-4.263 1.94,-18.252 2.372,-36.32 2.453,-47.563 l 20.171,0.015 c 0.029,4.189 -0.066,8.643 -0.264,14.07 l -5.186,-2.93 c 0.029,-1.487 0.059,-3.281 0.059,-4.673 l -8.218,-0.015 c -0.176,8.247 -0.563,22.434 -2.044,35.734 2.41,0.337 4.951,0.828 7.559,1.429 0.726,-5.464 1.253,-10.481 1.641,-14.964 l -1.604,-0.176 c 0.096,-1.421 0.213,-2.886 0.285,-4.27 2.293,0.168 4.644,0.41 7.083,0.659 -0.571,8.718 -1.516,18.093 -3.149,26.947"
         id="path6443"
         inkscape:connector-curvature="0"
         style="fill:#051922" /><path
         d="m 74.225,111.963 -8.042,0 c -0.205,12.935 0.088,33.376 3.296,51.848 2.571,-0.856 5.112,-1.582 7.522,-2.168 -2.813,-18.347 -2.974,-37.5 -2.776,-49.68"
         id="path6445"
         inkscape:connector-curvature="0"
         style="fill:#ffffff" /><path
         d="m 100.563,111.985 c 0,3.582 0.007,7.236 0.029,10.972 l -10.217,-7.156 c 0.022,-1.282 0.037,-2.556 0.088,-3.831 l -6.98,0 c -0.205,11.104 -0.176,29.934 1.926,47.966 2.021,-0.301 4.006,-0.564 5.859,-0.732 -0.754,-10.942 -0.93,-22.698 -0.967,-32.681 l 10.305,6.774 c 0,7.925 -0.037,17.059 -0.088,25.379 0.271,0 0.579,0.044 0.857,0.044 1.451,0 3.018,0.007 4.703,0.08 1.501,-18.01 1.56,-35.756 1.413,-46.816 l -6.928,0 z"
         id="path6447"
         inkscape:connector-curvature="0"
         style="fill:#ffffff" /><path
         d="m 129.156,140.49 1.604,0.176 c -0.388,4.482 -0.915,9.5 -1.641,14.964 -2.607,-0.601 -5.148,-1.092 -7.559,-1.429 1.48,-13.301 1.868,-27.487 2.044,-35.734 l 8.218,0.015 c 0,1.392 -0.029,3.186 -0.059,4.673 l 5.186,2.93 c 0.197,-5.427 0.293,-9.88 0.264,-14.07 L 117.042,112 c -0.081,11.243 -0.513,29.311 -2.453,47.563 5.603,0.711 11.952,1.956 18.786,4.263 1.633,-8.854 2.578,-18.229 3.149,-26.945 -2.439,-0.249 -4.79,-0.491 -7.083,-0.659 -0.072,1.382 -0.189,2.847 -0.285,4.268"
         id="path6449"
         inkscape:connector-curvature="0"
         style="fill:#ffffff" /><polygon
         points="32.418,225.891 32.85,233.721 32.887,234.079 39.471,226.623 39.457,226.257 39.281,223.122 39.017,218.376 38.973,218.01 32.389,225.503 "
         id="polygon6451"
         style="fill:#393d94" /><path
         d="m 29.349,232.798 -0.19,-3.193 -0.029,-0.366 -5.391,6.108 c -0.52,0.593 -0.784,1.362 -0.74,2.168 0.051,0.806 0.403,1.553 0.996,2.065 1.245,1.12 3.157,0.988 4.241,-0.249 l 1.399,-1.567 -0.022,-0.403 -0.264,-4.563 z"
         id="path6453"
         inkscape:connector-curvature="0"
         style="fill:#393d94" /><polygon
         points="42.752,222.515 42.782,222.888 49.381,215.439 49.352,215.059 48.919,207.111 48.875,206.753 42.284,214.245 42.313,214.626 "
         id="polygon6455"
         style="fill:#393d94" /><path
         d="m 53.409,201.662 -0.088,0.037 -1.128,1.274 0.037,0.373 0.19,3.23 0.278,4.694 0.007,0.389 5.039,-5.691 0.007,-0.08 c 0.051,-0.257 0.066,-0.527 0.066,-0.784 0,-1.105 -0.403,-2.08 -1.15,-2.739 -0.841,-0.724 -2.013,-0.981 -3.258,-0.703"
         id="path6457"
         inkscape:connector-curvature="0"
         style="fill:#393d94" /><g
         enable-background="new    "
         id="g6459"><g
           id="g6461"><path
             d="m 88.39,168.989 c -3.809,0.645 -7.654,1.516 -11.411,2.658 -5.479,3.714 -10.269,6.079 -11.169,6.497 -4.219,2.021 -11.997,5.742 -19.556,7.258 0.747,0.674 27.458,24.39 28.206,25.049 0.315,-3.794 1.157,-8.107 2.644,-13.161 -0.623,-2.197 -0.938,-4.476 -0.938,-6.753 l 0,-0.022 c 0.007,-8.892 4.68,-16.963 12.224,-21.526"
             id="path6463"
             inkscape:connector-curvature="0"
             style="fill:#a7a9ac" /></g></g><g
         enable-background="new    "
         id="g6465"><g
           id="g6467"><path
             d="m 125.428,171.729 c -3.596,-1.113 -7.243,-1.963 -10.847,-2.607 7.412,4.577 11.997,12.619 11.997,21.408 l 0,0.015 c 0,2.578 -0.396,5.112 -1.164,7.552 1.318,4.673 2.102,8.818 2.387,12.414 0.762,-0.659 27.495,-24.36 28.257,-25.012 -7.559,-1.523 -15.329,-5.259 -19.548,-7.28 -0.902,-0.448 -5.713,-2.828 -11.082,-6.49"
             id="path6469"
             inkscape:connector-curvature="0"
             style="fill:#a7a9ac" /></g></g><path
         d="m 149.334,201.75 c -1.267,-0.271 -2.417,-0.036 -3.273,0.696 -0.931,0.798 -1.312,2.087 -1.092,3.508 l 0.022,0.088 4.987,5.684 0.037,-0.381 0.088,-1.567 0.402,-6.35 0.022,-0.389 c -0.703,-0.806 -1.128,-1.267 -1.128,-1.267 l -0.065,-0.022 z"
         id="path6471"
         inkscape:connector-curvature="0"
         style="fill:#393d94" /><path
         d="m 173.05,237.492 -0.021,0.389 1.384,1.574 c 1.099,1.253 2.996,1.355 4.256,0.264 0.593,-0.513 0.959,-1.252 0.996,-2.065 0.007,-0.051 0.007,-0.139 0.007,-0.183 0,-0.732 -0.264,-1.436 -0.747,-1.992 0,0 -2.183,-2.513 -5.376,-6.131 l -0.021,0.374 -0.478,7.77 z"
         id="path6473"
         inkscape:connector-curvature="0"
         style="fill:#393d94" /><path
         d="m 153.348,215.139 -0.015,0.366 6.585,7.493 0.021,-0.396 0.228,-3.919 0.22,-3.955 0.015,-0.402 c -2.439,-2.791 -4.717,-5.384 -6.57,-7.515 l -0.021,0.402 -0.463,7.926 z"
         id="path6475"
         inkscape:connector-curvature="0"
         style="fill:#393d94" /><path
         d="m 163.39,223.562 -0.154,2.791 -0.015,0.381 6.585,7.485 0.007,-0.374 0.366,-6.174 0.088,-1.67 0.022,-0.389 c -2.065,-2.358 -4.329,-4.943 -6.57,-7.5 l -0.029,0.374 -0.3,5.076 z"
         id="path6477"
         inkscape:connector-curvature="0"
         style="fill:#393d94" /></g></g></svg>