<?xml version="1.0" encoding="UTF-8" standalone="no"?>
<!-- Generator: Adobe Illustrator 14.0.0, SVG Export Plug-In . SVG Version: 6.00 Build 43363)  -->

<svg
   xmlns:dc="http://purl.org/dc/elements/1.1/"
   xmlns:cc="http://creativecommons.org/ns#"
   xmlns:rdf="http://www.w3.org/1999/02/22-rdf-syntax-ns#"
   xmlns:svg="http://www.w3.org/2000/svg"
   xmlns="http://www.w3.org/2000/svg"
   xmlns:xlink="http://www.w3.org/1999/xlink"
   xmlns:sodipodi="http://sodipodi.sourceforge.net/DTD/sodipodi-0.dtd"
   xmlns:inkscape="http://www.inkscape.org/namespaces/inkscape"
   version="1.1"
   id="Layer_1"
   x="0px"
   y="0px"
   width="100"
   height="53.509583"
   viewBox="0 0 100 53.509583"
   enable-background="new 0 0 250 138"
   xml:space="preserve"
   inkscape:version="0.91 r13725"
   sodipodi:docname="San_Antonio_Spurs_resized.svg"><metadata
     id="metadata6648"><rdf:RDF><cc:Work
         rdf:about=""><dc:format>image/svg+xml</dc:format><dc:type
           rdf:resource="http://purl.org/dc/dcmitype/StillImage" /><dc:title></dc:title></cc:Work></rdf:RDF></metadata><defs
     id="defs6646" /><sodipodi:namedview
     pagecolor="#ffffff"
     bordercolor="#666666"
     borderopacity="1"
     objecttolerance="10"
     gridtolerance="10"
     guidetolerance="10"
     inkscape:pageopacity="0"
     inkscape:pageshadow="2"
     inkscape:window-width="826"
     inkscape:window-height="480"
     id="namedview6644"
     showgrid="false"
     fit-margin-top="0"
     fit-margin-left="0"
     fit-margin-right="0"
     fit-margin-bottom="0"
     inkscape:zoom="1.7101449"
     inkscape:cx="50"
     inkscape:cy="26.755292"
     inkscape:window-x="322"
     inkscape:window-y="105"
     inkscape:window-maximized="0"
     inkscape:current-layer="Layer_1" /><g
     id="g6486"
     transform="matrix(0.41666667,0,0,0.41666667,-2.0833334,-1.9954167)"><g
       id="g6488"><path
         d="m 237.174,46.825 c 0.78,-2.671 1.991,-6.82 1.991,-6.82 l -8.996,-3.647 c -0.375,-0.152 -0.772,-0.305 -1.163,-0.468 l 1.561,-4.544 -8.528,-2.762 c 0.665,-2.26 1.059,-3.599 1.077,-3.647 l 0.995,-3.408 -3.361,-1.142 C 188.95,9.6 159.424,4.789 124.994,4.789 90.565,4.789 61.03,9.6 29.248,20.386 l -3.361,1.142 0.992,3.408 c 0.019,0.048 0.411,1.387 1.081,3.647 l -8.532,2.762 1.564,4.544 c -0.388,0.164 -0.784,0.312 -1.172,0.468 l -8.993,3.647 c 0,0 1.215,4.149 1.999,6.82 C 10.292,47.735 5,49.645 5,49.645 l 19.294,58.824 c 0,0 5.143,-1.835 7.988,-2.867 1.157,3.05 2.576,6.761 2.576,6.761 l 10.2,-4.205 c 0.325,-0.142 0.648,-0.253 0.975,-0.394 l 1.049,3.328 3.742,-1.653 c 3.063,-1.314 12.419,-5.122 25.188,-8.487 -4.537,6.753 -9.346,13.929 -9.346,13.929 0,0 26.573,-8.691 29.197,-9.55 0.947,2.277 11.589,27.881 11.589,27.881 0,0 7.706,-26.462 8.42,-28.932 2.149,0.554 33.296,8.565 33.296,8.565 0,0 -8.829,-10.207 -15.337,-17.714 30.05,0.249 57.209,10.82 65.336,14.308 l 3.752,1.608 1.044,-3.283 c 0.323,0.141 0.646,0.26 0.966,0.394 l 10.203,4.205 c 0,0 1.419,-3.711 2.585,-6.761 2.838,1.032 7.972,2.867 7.972,2.867 L 245,49.645 c 0,0 -5.293,-1.91 -7.826,-2.82"
         id="path6490"
         inkscape:connector-curvature="0"
         style="clip-rule:evenodd;fill:#c4ced4;fill-rule:evenodd" /><path
         d="m 232.383,49.266 c 0.074,-0.255 2.027,-6.965 2.027,-6.965 l -5.713,-2.309 c -1.463,-0.602 -2.941,-1.172 -4.42,-1.742 l 1.557,-4.544 -8.384,-2.701 c 1.315,-4.394 2.11,-7.113 2.11,-7.113 -29.3,-9.936 -58.23,-15.396 -94.565,-15.396 -36.343,0 -65.262,5.46 -94.559,15.396 0,0 0.798,2.719 2.102,7.113 l -8.383,2.701 1.56,4.544 c -1.484,0.57 -2.958,1.14 -4.424,1.742 l -5.713,2.309 c 0,0 1.956,6.71 2.032,6.965 -0.457,0.167 -7.711,2.776 -7.711,2.776 l 16.862,51.383 c 0,0 7.486,-2.692 7.809,-2.819 0.004,0 2.509,6.608 2.509,6.608 l 6.485,-2.675 c 1.583,-0.653 3.15,-1.277 4.717,-1.891 0.57,1.816 0.958,3.002 1.083,3.38 3.687,-1.574 16.828,-6.949 34.245,-10.723 -3.991,5.939 -9.213,13.717 -9.213,13.717 0,0 22.901,-7.492 23.259,-7.607 0.178,0.428 9.27,22.306 9.27,22.306 0,0 6.645,-22.799 6.773,-23.26 0.576,0.142 26.471,6.813 26.471,6.813 0,0 -8.51,-9.829 -13.595,-15.712 35.228,-1.709 67.828,11.804 74.05,14.467 0.13,-0.378 0.513,-1.563 1.089,-3.38 1.571,0.613 3.135,1.237 4.721,1.891 l 6.478,2.675 2.512,-6.608 c 0.319,0.127 7.804,2.819 7.804,2.819 l 16.855,-51.383 c -0.001,-10e-4 -7.24,-2.61 -7.7,-2.777"
         id="path6492"
         inkscape:connector-curvature="0"
         style="clip-rule:evenodd;fill:#0a1b23;fill-rule:evenodd" /><path
         d="m 225.295,52.872 c 0,0 1.687,-5.778 2.099,-7.169 -0.435,-0.176 -0.865,-0.354 -0.865,-0.354 -31.282,-12.681 -67.297,-19.66 -101.401,-19.66 -34.278,0 -70.376,6.979 -101.661,19.66 0,0 -0.433,0.178 -0.86,0.354 0.399,1.391 2.084,7.169 2.084,7.169 0,0 -6.059,2.18 -7.531,2.708 0.598,1.814 12.622,38.447 13.25,40.375 1.536,-0.546 7.549,-2.715 7.549,-2.715 0,0 1.876,4.91 2.418,6.348 0.492,-0.204 0.982,-0.397 0.982,-0.397 17.109,-7.058 33.463,-11.849 49.925,-14.575 2.138,1.504 3.865,2.719 3.865,2.719 0,0 -7.224,10.772 -8.162,12.161 1.597,-0.517 13.593,-4.438 13.593,-4.438 0,0 4.853,11.686 5.488,13.204 0.461,-1.582 4.093,-14.021 4.093,-14.021 0,0 13.545,3.484 15.348,3.944 -1.215,-1.396 -10,-11.544 -10,-11.544 0,0 2.715,-2.314 5.561,-4.739 1.308,-0.019 2.609,-0.045 3.928,-0.045 28.402,0 54.975,5.501 83.642,17.335 0,0 0.49,0.193 0.974,0.397 0.55,-1.438 2.426,-6.348 2.426,-6.348 0,0 6.014,2.169 7.551,2.715 0.624,-1.928 12.644,-38.561 13.246,-40.375 -1.476,-0.529 -7.542,-2.709 -7.542,-2.709"
         id="path6494"
         inkscape:connector-curvature="0"
         style="clip-rule:evenodd;fill:#ffffff;fill-rule:evenodd" /><path
         stroke-miterlimit="3.864"
         d="m 225.295,52.872 c 0,0 1.687,-5.778 2.099,-7.169 -0.435,-0.176 -0.865,-0.354 -0.865,-0.354 -31.282,-12.681 -67.297,-19.66 -101.401,-19.66 -34.278,0 -70.376,6.979 -101.661,19.66 0,0 -0.433,0.178 -0.86,0.354 0.399,1.391 2.084,7.169 2.084,7.169 0,0 -6.059,2.18 -7.531,2.708 0.598,1.814 12.622,38.447 13.25,40.375 1.536,-0.546 7.549,-2.715 7.549,-2.715 0,0 1.876,4.91 2.418,6.348 0.492,-0.204 0.982,-0.397 0.982,-0.397 17.109,-7.058 33.463,-11.849 49.925,-14.575 2.138,1.504 3.865,2.719 3.865,2.719 0,0 -7.224,10.772 -8.162,12.161 1.597,-0.517 13.593,-4.438 13.593,-4.438 0,0 4.853,11.686 5.488,13.204 0.461,-1.582 4.093,-14.021 4.093,-14.021 0,0 13.545,3.484 15.348,3.944 -1.215,-1.396 -10,-11.544 -10,-11.544 0,0 2.715,-2.314 5.561,-4.739 1.308,-0.019 2.609,-0.045 3.928,-0.045 28.402,0 54.975,5.501 83.642,17.335 0,0 0.49,0.193 0.974,0.397 0.55,-1.438 2.426,-6.348 2.426,-6.348 0,0 6.014,2.169 7.551,2.715 0.624,-1.928 12.644,-38.561 13.246,-40.375 -1.476,-0.529 -7.542,-2.709 -7.542,-2.709 z"
         id="path6496"
         inkscape:connector-curvature="0"
         style="fill:none;stroke:#231f20;stroke-width:0.26620001;stroke-miterlimit:3.86400008" /><path
         d="m 23.464,45.351 0,0 c 0,0 -0.429,0.178 -0.86,0.353 0.403,1.393 2.084,7.171 2.084,7.171 0,0 -6.058,2.178 -7.527,2.704 0.594,1.818 12.618,38.453 13.246,40.381 1.536,-0.554 7.553,-2.715 7.553,-2.715 0,0 1.875,4.91 2.414,6.344 0.492,-0.204 0.983,-0.397 0.983,-0.397 28.658,-11.83 55.238,-17.331 83.639,-17.331 28.404,0 54.977,5.501 83.644,17.331 0,0 0.487,0.193 0.974,0.397 0.55,-1.434 2.422,-6.344 2.422,-6.344 0,0 6.018,2.161 7.551,2.715 0.632,-1.928 12.651,-38.563 13.25,-40.381 -1.479,-0.526 -7.541,-2.704 -7.541,-2.704 0,0 1.687,-5.778 2.096,-7.171 C 226.96,45.53 226.53,45.351 226.53,45.351 195.248,32.67 159.229,25.687 125.131,25.687 c -34.28,0 -70.379,6.982 -101.667,19.664"
         id="path6498"
         inkscape:connector-curvature="0"
         style="clip-rule:evenodd;fill:#ffffff;fill-rule:evenodd" /><path
         d="m 217.621,91.933 c -2.158,-0.784 -7.414,-2.667 -7.414,-2.667 0,0 -1.675,4.387 -2.384,6.248 -28.285,-11.411 -54.669,-16.778 -82.828,-16.778 -28.153,0 -54.546,5.367 -82.825,16.778 -0.708,-1.861 -2.389,-6.248 -2.389,-6.248 0,0 -5.254,1.883 -7.406,2.667 -1.141,-3.477 -10.22,-31.147 -11.299,-34.442 2.125,-0.759 7.434,-2.68 7.434,-2.68 0,0 -1.517,-5.204 -2.109,-7.243 30.512,-12.098 65.477,-18.763 98.729,-18.763 33.077,0 67.955,6.666 98.458,18.756 -0.587,2.046 -2.106,7.25 -2.106,7.25 0,0 5.315,1.92 7.437,2.68 -1.083,3.295 -10.161,30.973 -11.298,34.442"
         id="path6500"
         inkscape:connector-curvature="0"
         style="clip-rule:evenodd;fill:#c4ced4;fill-rule:evenodd" /><path
         d="m 177.238,73.06 4.755,-26.903 c 0.007,-0.007 0.089,-0.927 0.089,-0.927 0.012,-1.24 -0.371,-2.438 -1.096,-3.454 -0.902,-1.278 -2.259,-2.134 -3.818,-2.396 l -30.235,-5.12 -2.103,12.423 c 0,0 -4.029,23.798 -4.23,24.989 1.701,0.286 12.087,2.039 13.773,2.329 0.305,-1.75 2.14,-12.408 2.14,-12.408 l 8.535,1.445 -0.186,1.055 c 0,0 -1.166,7.128 -1.226,7.586 -0.216,1.683 0.126,2.158 0.616,2.879 0.498,0.731 1.359,1.237 2.393,1.526 -0.127,-0.033 14.285,3.484 14.285,3.484 l -3.692,-6.508 z m -9.33,-21.232 -11.039,-1.848 0.315,-1.898 11.043,1.848 -0.319,1.898 z"
         id="path6502"
         inkscape:connector-curvature="0"
         style="clip-rule:evenodd;fill:#ffffff;fill-rule:evenodd" /><path
         d="M 72.463,72.373 64.376,47.49 c -0.995,-3.088 -4.32,-4.78 -7.416,-3.781 l 0.004,-0.003 -22.693,7.373 c -1.495,0.486 -2.715,1.521 -3.423,2.931 -0.425,0.837 -0.646,1.731 -0.646,2.663 0,0.617 0.098,1.229 0.293,1.83 l 8.086,24.88 c 0.999,3.091 4.331,4.784 7.412,3.781 0,0 -0.069,0.037 -0.109,0.045 0.193,-0.067 1.879,-0.62 22.799,-7.414 2.437,-0.787 4.069,-3.042 4.069,-5.608 0,-0.611 -0.098,-1.224 -0.289,-1.814 m -27.392,-10.152 -0.602,-1.829 9.996,-3.282 0.602,1.833 -9.996,3.278 z m 3.837,11.563 -0.602,-1.833 9.994,-3.287 0.607,1.835 -9.999,3.285 z"
         id="path6504"
         inkscape:connector-curvature="0"
         style="clip-rule:evenodd;fill:#ffffff;fill-rule:evenodd" /><path
         d="m 105.768,53.268 c 0.004,0.015 -2.565,-13.351 -2.565,-13.351 -0.292,-1.532 -1.163,-2.872 -2.464,-3.753 -1.3,-0.886 -2.864,-1.209 -4.407,-0.921 0,0 -28.188,5.353 -30.137,5.718 0.264,1.402 5.72,30.161 5.72,30.161 l 0.769,4.067 0.574,3.049 c 0,0 12.053,-2.291 13.743,-2.61 C 86.67,73.882 84.643,63.264 84.643,63.264 l 16.438,-3.122 c 1.549,-0.29 2.888,-1.165 3.774,-2.461 0.704,-1.043 1.049,-2.249 1.016,-3.477 l -0.103,-0.936 z m -24.849,-1.176 -0.366,-1.891 11.011,-2.106 0.366,1.891 -11.011,2.106 z"
         id="path6506"
         inkscape:connector-curvature="0"
         style="clip-rule:evenodd;fill:#ffffff;fill-rule:evenodd" /><path
         d="m 97.117,66.823 c 0.043,0.962 0.834,11.641 0.834,11.641 0,0 -12.841,0.524 -14.553,0.595 1.391,0.988 11.749,8.275 11.749,8.275 0,0 -7.222,10.772 -8.162,12.161 1.597,-0.517 13.595,-4.438 13.595,-4.438 0,0 4.856,11.686 5.492,13.212 0.46,-1.59 4.089,-14.029 4.089,-14.029 0,0 13.545,3.484 15.346,3.944 -1.209,-1.396 -9.999,-11.544 -9.999,-11.544 0,0 10.662,-9.089 11.905,-10.114 -1.475,-0.011 -8.229,-0.104 -8.229,-0.104 l 1.736,-1.901 11.249,0 13.313,-23.575 0,-16.9 -11.704,0 -5.1,9.03 c 0,0 -0.564,4.554 -0.676,5.527 -0.478,0.853 -4.445,7.904 -5.739,10.22 l -1.877,0 c 1.97,-3.488 4.548,-8.036 4.548,-8.036 l 0,-16.743 -12.053,0 -4.911,9.003 c 0,0 -0.518,4.573 -0.627,5.561 -0.503,0.89 -10.226,18.215 -10.226,18.215"
         id="path6508"
         inkscape:connector-curvature="0"
         style="clip-rule:evenodd;fill:#ffffff;fill-rule:evenodd" /></g><g
       id="g6510"><defs
         id="defs6512"><polygon
           id="SVGID_1_"
           points="115.011,61.956 121.792,49.96 121.792,37.185 114.744,37.185 111.017,44.019 110.389,49.59 100.488,67.228 102.15,71.385 108.313,71.385 105.506,78.486 100.252,72.808 100.873,81.146 91.767,81.525 99.01,86.621 93.852,94.299 102.178,91.576 105.604,99.822 108.221,90.845 117.498,93.226 111.507,86.309 118.878,80.214 111.271,80.686 119.506,71.385 130.341,71.385 142.338,50.12 142.338,37.185 135.604,37.185 131.715,44.073 131.043,49.59 124.101,61.956 " /></defs><clipPath
         id="SVGID_2_"><use
           xlink:href="#SVGID_1_"
           overflow="visible"
           id="use6516"
           style="overflow:visible"
           x="0"
           y="0"
           width="100%"
           height="100%" /></clipPath><polygon
         clip-path="url(#SVGID_2_)"
         points="115.009,61.959 121.792,49.958 121.792,37.183 114.744,37.183 111.017,44.017 110.389,49.59 100.492,67.227 102.15,71.385 108.313,71.385 105.504,78.486 100.252,72.811 100.873,81.146 91.771,81.525 99.012,86.621 93.851,94.295 102.176,91.58 105.603,99.826 108.223,90.841 117.496,93.226 111.507,86.309 118.882,80.21 111.274,80.686 119.506,71.385 130.337,71.385 142.342,50.118 142.342,37.183 135.607,37.183 131.719,44.075 131.039,49.59 124.104,61.959 "
         id="polygon6518"
         style="clip-rule:evenodd;fill:#0a1b23;fill-rule:evenodd" /><polygon
         clip-path="url(#SVGID_2_)"
         stroke-miterlimit="3.864"
         points="115.009,61.959 121.792,49.958 121.792,37.183 114.744,37.183 111.017,44.017 110.389,49.59 100.492,67.227 102.15,71.385 108.313,71.385 105.504,78.486 100.252,72.811 100.873,81.146 91.771,81.525 99.012,86.621 93.851,94.295 102.176,91.58 105.603,99.826 108.223,90.841 117.496,93.226 111.507,86.309 118.882,80.21 111.274,80.686 119.506,71.385 130.337,71.385 142.342,50.118 142.342,37.183 135.607,37.183 131.719,44.075 131.039,49.59 124.104,61.959 "
         id="polygon6520"
         style="fill:none;stroke:#231f20;stroke-width:0.26620001;stroke-miterlimit:3.86400008" /></g><g
       id="g6522"><path
         d="m 219.033,53.871 c -0.714,-1.396 -1.932,-2.431 -3.425,-2.925 l -22.684,-7.371 c -1.497,-0.487 -3.095,-0.362 -4.491,0.356 -1.411,0.711 -2.444,1.933 -2.931,3.425 l -8.086,24.886 c -0.193,0.599 -0.29,1.215 -0.29,1.824 0,0.917 0.216,1.831 0.643,2.659 0.71,1.412 1.936,2.452 3.433,2.935 l 22.68,7.366 c 1.497,0.497 3.094,0.367 4.491,-0.354 1.403,-0.705 2.443,-1.932 2.931,-3.417 l 8.09,-24.894 c 0.192,-0.596 0.286,-1.22 0.286,-1.822 0,-0.918 -0.216,-1.828 -0.647,-2.668 m -17.495,19.668 -9.988,-3.287 0.605,-1.837 9.988,3.295 -0.605,1.829 z m 3.848,-11.559 -9.991,-3.282 0.595,-1.833 9.991,3.285 -0.595,1.83 z"
         id="path6524"
         inkscape:connector-curvature="0"
         style="clip-rule:evenodd;fill:#ffffff;fill-rule:evenodd" /><polygon
         points="136.559,39.025 134.151,43.33 137.436,43.33 139.724,39.025 "
         id="polygon6526"
         style="clip-rule:evenodd;fill:#c4ced4;fill-rule:evenodd" /><polygon
         points="119.277,39.025 115.869,39.025 113.485,43.337 117.021,43.33 "
         id="polygon6528"
         style="clip-rule:evenodd;fill:#c4ced4;fill-rule:evenodd" /><path
         d="m 125.361,63.625 -17.268,0 7.197,-12.67 -3.39,0 -8.684,15.335 9.639,0 -7.052,16.078 -3.172,-3.429 0.319,4.327 -4.736,0.201 3.767,2.651 -2.682,3.99 4.327,-1.412 1.777,4.29 1.361,-4.68 4.827,1.248 -3.115,-3.604 3.83,-3.164 -5.375,0.33 -0.374,0 11.138,-16.828 9.654,0 8.539,-15.335 -3.328,0 -7.199,12.672 z m -20.57,23.319 c -0.646,0 -1.187,-0.531 -1.187,-1.192 0,-0.646 0.541,-1.182 1.187,-1.182 0.654,0 1.19,0.535 1.19,1.182 0,0.661 -0.536,1.192 -1.19,1.192"
         id="path6530"
         inkscape:connector-curvature="0"
         style="clip-rule:evenodd;fill:#c4ced4;fill-rule:evenodd" /><polygon
         points="116.131,45.072 113.039,45.072 112.644,48.749 115.823,48.762 "
         id="polygon6532"
         style="clip-rule:evenodd;fill:#c4ced4;fill-rule:evenodd" /><polygon
         points="133.238,48.749 136.433,48.76 136.729,45.072 133.636,45.072 "
         id="polygon6534"
         style="clip-rule:evenodd;fill:#c4ced4;fill-rule:evenodd" /><path
         d="m 43.503,31.592 c 0.435,1.59 1.354,1.761 3.404,1.209 l 2.727,-0.73 c 3.001,-0.802 3.581,-1.311 3.051,-3.285 -0.574,-2.145 -1.441,-2.138 -4.94,-1.198 -2.42,0.665 -2.697,0.719 -2.87,0.074 -0.098,-0.39 0.195,-0.654 0.704,-0.795 l 2.5,-0.665 c 1.031,-0.278 1.152,-0.076 1.293,0.464 l 2.26,-0.602 -0.065,-0.236 c -0.351,-1.289 -0.83,-2.11 -3.419,-1.402 l -3.146,0.836 c -2.845,0.761 -2.689,1.811 -2.34,3.149 0.479,1.811 0.986,2.112 4.372,1.198 2.905,-0.773 3.18,-0.806 3.351,-0.164 0.148,0.57 -0.32,0.749 -0.799,0.871 l -2.765,0.741 c -0.643,0.177 -0.973,0.203 -1.19,-0.574 l -2.257,0.602 0.129,0.507 z"
         id="path6536"
         inkscape:connector-curvature="0"
         style="clip-rule:evenodd;fill:#ffffff;fill-rule:evenodd" /><path
         stroke-miterlimit="3.864"
         d="m 43.503,31.592 c 0.435,1.59 1.354,1.761 3.404,1.209 l 2.727,-0.73 c 3.001,-0.802 3.581,-1.311 3.051,-3.285 -0.574,-2.145 -1.441,-2.138 -4.94,-1.198 -2.42,0.665 -2.697,0.719 -2.87,0.074 -0.098,-0.39 0.195,-0.654 0.704,-0.795 l 2.5,-0.665 c 1.031,-0.278 1.152,-0.076 1.293,0.464 l 2.26,-0.602 -0.065,-0.236 c -0.351,-1.289 -0.83,-2.11 -3.419,-1.402 l -3.146,0.836 c -2.845,0.761 -2.689,1.811 -2.34,3.149 0.479,1.811 0.986,2.112 4.372,1.198 2.905,-0.773 3.18,-0.806 3.351,-0.164 0.148,0.57 -0.32,0.749 -0.799,0.871 l -2.765,0.741 c -0.643,0.177 -0.973,0.203 -1.19,-0.574 l -2.257,0.602 0.129,0.507 z"
         id="path6538"
         inkscape:connector-curvature="0"
         style="fill:none;stroke:#231f20;stroke-width:0.26620001;stroke-miterlimit:3.86400008" /><path
         d="m 59.658,29.384 2.552,-0.544 0.38,-1.459 4.625,-0.986 0.99,1.176 2.537,-0.552 -5.665,-6.565 -2.977,0.63 -2.442,8.3 z m 4.293,-6.888 2.069,2.476 -2.925,0.621 0.856,-3.097 z"
         id="path6540"
         inkscape:connector-curvature="0"
         style="clip-rule:evenodd;fill:#ffffff;fill-rule:evenodd" /><path
         stroke-miterlimit="3.864"
         d="m 59.658,29.384 2.552,-0.544 0.38,-1.459 4.625,-0.986 0.99,1.176 2.537,-0.552 -5.665,-6.565 -2.977,0.63 -2.442,8.3 m 4.293,-6.888 2.069,2.476 -2.925,0.621 0.856,-3.097 z"
         id="path6542"
         inkscape:connector-curvature="0"
         style="fill:none;stroke:#231f20;stroke-width:0.26620001;stroke-miterlimit:3.86400008" /><polygon
         points="84.009,24.808 87.584,24.242 86.394,16.726 84.085,17.089 84.956,22.548 84.928,22.555 79.741,17.786 76.17,18.345 77.36,25.857 79.662,25.488 78.802,20.039 78.82,20.039 "
         id="polygon6544"
         style="clip-rule:evenodd;fill:#ffffff;fill-rule:evenodd" /><polygon
         stroke-miterlimit="3.864"
         points="84.009,24.808 87.584,24.242 86.394,16.726 84.085,17.089 84.956,22.548 84.928,22.555 79.741,17.786 76.17,18.345 77.36,25.857 79.662,25.488 78.802,20.039 78.82,20.039 "
         id="polygon6546"
         style="fill:none;stroke:#231f20;stroke-width:0.26620001;stroke-miterlimit:3.86400008" /><path
         d="m 101.64,22.858 2.598,-0.139 0.615,-1.378 4.717,-0.244 0.791,1.31 2.598,-0.138 -4.576,-7.378 -3.035,0.152 -3.708,7.815 z m 5.313,-6.127 1.662,2.773 -2.979,0.152 1.317,-2.925 z"
         id="path6548"
         inkscape:connector-curvature="0"
         style="clip-rule:evenodd;fill:#ffffff;fill-rule:evenodd" /><path
         stroke-miterlimit="3.864"
         d="m 101.64,22.858 2.598,-0.139 0.615,-1.378 4.717,-0.244 0.791,1.31 2.598,-0.138 -4.576,-7.378 -3.035,0.152 -3.708,7.815 m 5.313,-6.127 1.662,2.773 -2.979,0.152 1.317,-2.925 z"
         id="path6550"
         inkscape:connector-curvature="0"
         style="fill:none;stroke:#231f20;stroke-width:0.26620001;stroke-miterlimit:3.86400008" /><polygon
         points="126.403,22.05 130.014,22.05 130.014,14.443 127.681,14.443 127.681,19.978 127.666,19.978 123.279,14.443 119.675,14.443 119.675,22.05 122.005,22.05 122.005,16.523 122.022,16.523 "
         id="polygon6552"
         style="clip-rule:evenodd;fill:#ffffff;fill-rule:evenodd" /><polygon
         stroke-miterlimit="3.864"
         points="126.403,22.05 130.014,22.05 130.014,14.443 127.681,14.443 127.681,19.978 127.666,19.978 123.279,14.443 119.675,14.443 119.675,22.05 122.005,22.05 122.005,16.523 122.022,16.523 "
         id="polygon6554"
         style="fill:none;stroke:#231f20;stroke-width:0.26620001;stroke-miterlimit:3.86400008" /><polygon
         points="142.821,16.761 146.097,16.939 146.189,15.041 137.316,14.584 137.22,16.467 140.492,16.642 140.198,22.358 142.527,22.474 "
         id="polygon6556"
         style="clip-rule:evenodd;fill:#ffffff;fill-rule:evenodd" /><polygon
         stroke-miterlimit="3.864"
         points="142.821,16.761 146.097,16.939 146.189,15.041 137.316,14.584 137.22,16.467 140.492,16.642 140.198,22.358 142.527,22.474 "
         id="polygon6558"
         style="fill:none;stroke:#231f20;stroke-width:0.26620001;stroke-miterlimit:3.86400008" /><path
         d="m 152.79,20.538 c -0.227,2.221 0.959,2.872 3.054,3.089 l 3.714,0.399 c 2.088,0.217 3.388,-0.178 3.622,-2.388 l 0.233,-2.26 c 0.242,-2.215 -0.95,-2.867 -3.045,-3.084 l -3.719,-0.397 c -2.091,-0.214 -3.391,0.178 -3.617,2.392 l -0.242,2.249 m 2.549,-1.277 c 0.089,-0.936 0.394,-1.499 1.611,-1.361 l 2.712,0.284 c 1.226,0.126 1.396,0.719 1.3,1.669 l -0.089,0.812 c -0.119,1.096 -0.387,1.49 -1.489,1.373 l -2.961,-0.309 c -1.1,-0.117 -1.289,-0.551 -1.17,-1.654 l 0.086,-0.814 z"
         id="path6560"
         inkscape:connector-curvature="0"
         style="clip-rule:evenodd;fill:#ffffff;fill-rule:evenodd" /><path
         stroke-miterlimit="3.864"
         d="m 152.79,20.538 c -0.227,2.221 0.959,2.872 3.054,3.089 l 3.714,0.399 c 2.088,0.217 3.388,-0.178 3.622,-2.388 l 0.233,-2.26 c 0.242,-2.215 -0.95,-2.867 -3.045,-3.084 l -3.719,-0.397 c -2.091,-0.214 -3.391,0.178 -3.617,2.392 l -0.242,2.249 m 2.549,-1.277 c 0.089,-0.936 0.394,-1.499 1.611,-1.361 l 2.712,0.284 c 1.226,0.126 1.396,0.719 1.3,1.669 l -0.089,0.812 c -0.119,1.096 -0.387,1.49 -1.489,1.373 l -2.961,-0.309 c -1.1,-0.117 -1.289,-0.551 -1.17,-1.654 l 0.086,-0.814 z"
         id="path6562"
         inkscape:connector-curvature="0"
         style="fill:none;stroke:#231f20;stroke-width:0.26620001;stroke-miterlimit:3.86400008" /><polygon
         points="176.778,26.498 180.348,27.126 181.67,19.632 179.363,19.229 178.412,24.669 178.39,24.669 175.032,18.46 171.481,17.833 170.159,25.33 172.454,25.733 173.409,20.282 173.424,20.293 "
         id="polygon6564"
         style="clip-rule:evenodd;fill:#ffffff;fill-rule:evenodd" /><polygon
         stroke-miterlimit="3.864"
         points="176.778,26.498 180.348,27.126 181.67,19.632 179.363,19.229 178.412,24.669 178.39,24.669 175.032,18.46 171.481,17.833 170.159,25.33 172.454,25.733 173.409,20.282 173.424,20.293 "
         id="polygon6566"
         style="fill:none;stroke:#231f20;stroke-width:0.26620001;stroke-miterlimit:3.86400008" /><polygon
         points="187.743,28.613 190.027,29.104 191.613,21.66 189.325,21.177 "
         id="polygon6568"
         style="clip-rule:evenodd;fill:#ffffff;fill-rule:evenodd" /><polygon
         stroke-miterlimit="3.864"
         points="187.743,28.613 190.027,29.104 191.613,21.66 189.325,21.177 "
         id="polygon6570"
         style="fill:none;stroke:#231f20;stroke-width:0.26620001;stroke-miterlimit:3.86400008" /><path
         d="m 197.928,28.292 c -0.572,2.152 0.498,2.983 2.525,3.521 l 3.61,0.971 c 2.036,0.542 3.373,0.36 3.949,-1.789 l 0.59,-2.195 c 0.572,-2.152 -0.497,-2.98 -2.525,-3.521 l -3.614,-0.973 c -2.031,-0.544 -3.376,-0.362 -3.952,1.79 l -0.583,2.196 m 2.712,-0.871 c 0.245,-0.917 0.624,-1.408 1.809,-1.096 l 2.634,0.704 c 1.192,0.319 1.27,0.943 1.021,1.852 l -0.212,0.795 c -0.29,1.066 -0.617,1.412 -1.683,1.124 l -2.883,-0.765 c -1.065,-0.293 -1.178,-0.758 -0.906,-1.83 l 0.22,-0.784 z"
         id="path6572"
         inkscape:connector-curvature="0"
         style="clip-rule:evenodd;fill:#ffffff;fill-rule:evenodd" /><path
         stroke-miterlimit="3.864"
         d="m 197.928,28.292 c -0.572,2.152 0.498,2.983 2.525,3.521 l 3.61,0.971 c 2.036,0.542 3.373,0.36 3.949,-1.789 l 0.59,-2.195 c 0.572,-2.152 -0.497,-2.98 -2.525,-3.521 l -3.614,-0.973 c -2.031,-0.544 -3.376,-0.362 -3.952,1.79 l -0.583,2.196 m 2.712,-0.871 c 0.245,-0.917 0.624,-1.408 1.809,-1.096 l 2.634,0.704 c 1.192,0.319 1.27,0.943 1.021,1.852 l -0.212,0.795 c -0.29,1.066 -0.617,1.412 -1.683,1.124 l -2.883,-0.765 c -1.065,-0.293 -1.178,-0.758 -0.906,-1.83 l 0.22,-0.784 z"
         id="path6574"
         inkscape:connector-curvature="0"
         style="fill:none;stroke:#231f20;stroke-width:0.26620001;stroke-miterlimit:3.86400008" /><path
         d="m 43.503,31.592 c 0.435,1.59 1.354,1.761 3.404,1.209 l 2.727,-0.73 c 3.001,-0.802 3.581,-1.311 3.051,-3.285 -0.574,-2.145 -1.441,-2.138 -4.94,-1.198 -2.42,0.665 -2.697,0.719 -2.87,0.074 -0.098,-0.39 0.195,-0.654 0.704,-0.795 l 2.5,-0.665 c 1.031,-0.278 1.152,-0.076 1.293,0.464 l 2.26,-0.602 -0.065,-0.236 c -0.351,-1.289 -0.83,-2.11 -3.419,-1.402 l -3.146,0.836 c -2.845,0.761 -2.689,1.811 -2.34,3.149 0.479,1.811 0.986,2.112 4.372,1.198 2.905,-0.773 3.18,-0.806 3.351,-0.164 0.148,0.57 -0.32,0.749 -0.799,0.871 l -2.765,0.741 c -0.643,0.177 -0.973,0.203 -1.19,-0.574 l -2.257,0.602 0.129,0.507 z"
         id="path6576"
         inkscape:connector-curvature="0"
         style="clip-rule:evenodd;fill:#ffffff;fill-rule:evenodd" /><path
         d="m 59.658,29.384 2.552,-0.544 0.38,-1.459 4.625,-0.986 0.99,1.176 2.537,-0.552 -5.665,-6.565 -2.977,0.63 -2.442,8.3 z m 4.293,-6.888 2.069,2.476 -2.925,0.621 0.856,-3.097 z"
         id="path6578"
         inkscape:connector-curvature="0"
         style="clip-rule:evenodd;fill:#ffffff;fill-rule:evenodd" /><polygon
         points="84.009,24.808 87.584,24.242 86.394,16.726 84.085,17.089 84.956,22.548 84.928,22.555 79.741,17.786 76.17,18.345 77.36,25.857 79.662,25.488 78.802,20.039 78.82,20.039 "
         id="polygon6580"
         style="clip-rule:evenodd;fill:#ffffff;fill-rule:evenodd" /><path
         d="m 101.64,22.858 2.598,-0.139 0.615,-1.378 4.717,-0.244 0.791,1.31 2.598,-0.138 -4.576,-7.378 -3.035,0.152 -3.708,7.815 z m 5.313,-6.127 1.662,2.773 -2.979,0.152 1.317,-2.925 z"
         id="path6582"
         inkscape:connector-curvature="0"
         style="clip-rule:evenodd;fill:#ffffff;fill-rule:evenodd" /><polygon
         points="126.403,22.05 130.014,22.05 130.014,14.443 127.681,14.443 127.681,19.978 127.666,19.978 123.279,14.443 119.675,14.443 119.675,22.05 122.005,22.05 122.005,16.523 122.022,16.523 "
         id="polygon6584"
         style="clip-rule:evenodd;fill:#ffffff;fill-rule:evenodd" /><polygon
         points="142.821,16.761 146.097,16.939 146.189,15.041 137.316,14.584 137.22,16.467 140.492,16.642 140.198,22.358 142.527,22.474 "
         id="polygon6586"
         style="clip-rule:evenodd;fill:#ffffff;fill-rule:evenodd" /><path
         d="m 152.79,20.538 c -0.227,2.221 0.959,2.872 3.054,3.089 l 3.714,0.399 c 2.088,0.217 3.388,-0.178 3.622,-2.388 l 0.233,-2.26 c 0.242,-2.215 -0.95,-2.867 -3.045,-3.084 l -3.719,-0.397 c -2.091,-0.214 -3.391,0.178 -3.617,2.392 l -0.242,2.249 m 2.549,-1.277 c 0.089,-0.936 0.394,-1.499 1.611,-1.361 l 2.712,0.284 c 1.226,0.126 1.396,0.719 1.3,1.669 l -0.089,0.812 c -0.119,1.096 -0.387,1.49 -1.489,1.373 l -2.961,-0.309 c -1.1,-0.117 -1.289,-0.551 -1.17,-1.654 l 0.086,-0.814 z"
         id="path6588"
         inkscape:connector-curvature="0"
         style="clip-rule:evenodd;fill:#ffffff;fill-rule:evenodd" /><polygon
         points="176.778,26.498 180.348,27.126 181.67,19.632 179.363,19.229 178.412,24.669 178.39,24.669 175.032,18.46 171.481,17.833 170.159,25.33 172.454,25.733 173.409,20.282 173.424,20.293 "
         id="polygon6590"
         style="clip-rule:evenodd;fill:#ffffff;fill-rule:evenodd" /><polygon
         points="187.743,28.613 190.027,29.104 191.613,21.66 189.325,21.177 "
         id="polygon6592"
         style="clip-rule:evenodd;fill:#ffffff;fill-rule:evenodd" /><path
         d="m 197.928,28.292 c -0.572,2.152 0.498,2.983 2.525,3.521 l 3.61,0.971 c 2.036,0.542 3.373,0.36 3.949,-1.789 l 0.59,-2.195 c 0.572,-2.152 -0.497,-2.98 -2.525,-3.521 l -3.614,-0.973 c -2.031,-0.544 -3.376,-0.362 -3.952,1.79 l -0.583,2.196 m 2.712,-0.871 c 0.245,-0.917 0.624,-1.408 1.809,-1.096 l 2.634,0.704 c 1.192,0.319 1.27,0.943 1.021,1.852 l -0.212,0.795 c -0.29,1.066 -0.617,1.412 -1.683,1.124 l -2.883,-0.765 c -1.065,-0.293 -1.178,-0.758 -0.906,-1.83 l 0.22,-0.784 z"
         id="path6594"
         inkscape:connector-curvature="0"
         style="clip-rule:evenodd;fill:#ffffff;fill-rule:evenodd" /></g><g
       id="g6596"><defs
         id="defs6598"><path
           id="SVGID_3_"
           d="m 168.718,53.561 -13.613,-2.301 0.88,-5.366 13.603,2.301 c 0.598,0.106 1.011,0.676 0.902,1.27 l -0.501,3.191 c -0.101,0.541 -0.564,0.921 -1.085,0.921 -0.06,0.001 -0.127,-0.003 -0.186,-0.016 m -24.523,15.55 7.629,1.289 2.14,-12.412 9.828,1.673 3.781,0.639 c 0.595,0.104 1.007,0.67 0.896,1.271 l -1.612,9.338 c -0.33,1.976 0.807,2.103 1.297,2.199 0.557,0.104 6.545,1.158 6.545,1.158 -0.179,-0.186 -0.55,-0.861 -0.253,-2.208 l 1.887,-10.978 c 0.164,-1.079 -0.364,-2.026 -1.267,-2.45 1.281,-0.143 1.868,-1.137 2.047,-2.186 l 0.163,-0.947 1.639,-9.854 c 0.256,-1.504 -0.754,-2.925 -2.266,-3.185 L 149.5,37.863 144.195,69.111 Z"
           inkscape:connector-curvature="0" /></defs><clipPath
         id="SVGID_4_"><use
           xlink:href="#SVGID_3_"
           overflow="visible"
           id="use6602"
           style="overflow:visible"
           x="0"
           y="0"
           width="100%"
           height="100%" /></clipPath><path
         clip-path="url(#SVGID_4_)"
         d="m 176.651,42.46 -27.155,-4.595 -5.301,31.246 7.629,1.289 2.136,-12.41 9.832,1.677 3.778,0.635 c 0.602,0.102 1.006,0.668 0.902,1.271 l -1.612,9.338 c -0.334,1.974 0.803,2.093 1.297,2.197 0.55,0.104 6.537,1.158 6.537,1.158 -0.179,-0.186 -0.546,-0.861 -0.249,-2.208 l 1.887,-10.976 c 0.164,-1.081 -0.367,-2.028 -1.271,-2.454 1.285,-0.141 1.872,-1.139 2.051,-2.184 l 0.163,-0.947 1.642,-9.854 c 0.249,-1.501 -0.757,-2.924 -2.266,-3.183 m -6.158,7.006 -0.505,3.191 c -0.111,0.602 -0.68,1.008 -1.271,0.902 l -13.617,-2.297 0.884,-5.367 13.603,2.301 c 0.601,0.106 1.011,0.676 0.906,1.27"
         id="path6604"
         inkscape:connector-curvature="0"
         style="clip-rule:evenodd;fill:#0a1b23;fill-rule:evenodd" /><path
         clip-path="url(#SVGID_4_)"
         stroke-miterlimit="3.864"
         d="m 176.651,42.46 -27.155,-4.595 -5.301,31.246 7.629,1.289 2.136,-12.41 9.832,1.677 3.778,0.635 c 0.602,0.102 1.006,0.668 0.902,1.271 l -1.612,9.338 c -0.334,1.974 0.803,2.093 1.297,2.197 0.55,0.104 6.537,1.158 6.537,1.158 -0.179,-0.186 -0.546,-0.861 -0.249,-2.208 l 1.887,-10.976 c 0.164,-1.081 -0.367,-2.028 -1.271,-2.454 1.285,-0.141 1.872,-1.139 2.051,-2.184 l 0.163,-0.947 1.642,-9.854 c 0.249,-1.501 -0.757,-2.924 -2.266,-3.183 z m -6.158,7.006 -0.505,3.191 c -0.111,0.602 -0.68,1.008 -1.271,0.902 l -13.617,-2.297 0.884,-5.367 13.603,2.301 c 0.601,0.106 1.011,0.676 0.906,1.27 z"
         id="path6606"
         inkscape:connector-curvature="0"
         style="fill:none;stroke:#231f20;stroke-width:0.26620001;stroke-miterlimit:3.86400008" /></g><g
       id="g6608"><defs
         id="defs6610"><path
           id="SVGID_5_"
           d="m 78.71,48.723 13.571,-2.578 c 0.596,-0.115 1.175,0.28 1.292,0.886 l 0.631,3.153 c 0.109,0.6 -0.28,1.187 -0.886,1.296 L 79.727,54.06 78.71,48.723 Z m 18.199,-10.417 -27.065,5.135 5.91,31.138 7.585,-1.438 -2.34,-12.365 19.493,-3.703 c 1.512,-0.279 2.489,-1.724 2.21,-3.23 l -2.566,-13.338 c -0.251,-1.32 -1.416,-2.245 -2.715,-2.245 -0.168,0 -0.341,0.014 -0.512,0.046"
           inkscape:connector-curvature="0" /></defs><clipPath
         id="SVGID_6_"><use
           xlink:href="#SVGID_5_"
           overflow="visible"
           id="use6614"
           style="overflow:visible"
           x="0"
           y="0"
           width="100%"
           height="100%" /></clipPath><path
         clip-path="url(#SVGID_6_)"
         d="m 79.727,54.059 13.595,-2.574 c 0.602,-0.115 0.997,-0.7 0.882,-1.298 L 93.573,47.03 c -0.117,-0.6 -0.696,-0.999 -1.289,-0.886 l -13.57,2.58 1.013,5.335 M 83.34,73.142 75.752,74.58 69.846,43.44 96.907,38.309 c 1.499,-0.281 2.944,0.704 3.23,2.195 l 2.563,13.342 c 0.283,1.502 -0.7,2.949 -2.206,3.226 l -19.497,3.705 2.343,12.365 z"
         id="path6616"
         inkscape:connector-curvature="0"
         style="clip-rule:evenodd;fill:#0a1b23;fill-rule:evenodd" /><path
         clip-path="url(#SVGID_6_)"
         stroke-miterlimit="3.864"
         d="m 79.727,54.059 13.595,-2.574 c 0.602,-0.115 0.997,-0.7 0.882,-1.298 L 93.573,47.03 c -0.117,-0.6 -0.696,-0.999 -1.289,-0.886 l -13.57,2.58 1.013,5.335 M 83.34,73.142 75.752,74.58 69.846,43.44 96.907,38.309 c 1.499,-0.281 2.944,0.704 3.23,2.195 l 2.563,13.342 c 0.283,1.502 -0.7,2.949 -2.206,3.226 l -19.497,3.705 2.343,12.365 z"
         id="path6618"
         inkscape:connector-curvature="0"
         style="fill:none;stroke:#231f20;stroke-width:0.26620001;stroke-miterlimit:3.86400008" /></g><g
       id="g6620"><defs
         id="defs6622"><path
           id="SVGID_7_"
           d="m 188.471,48.32 -3.878,11.951 -0.338,1.049 c -0.472,1.455 0.315,3.009 1.769,3.48 l 8.665,2.812 8.287,2.697 c 0.591,0.186 0.865,0.915 0.68,1.502 l -1.014,3.124 c -0.189,0.572 -0.807,0.892 -1.39,0.706 l -11.214,-3.647 c -0.579,-0.183 -0.898,-0.807 -0.709,-1.396 l 0.649,-1.973 -7.332,-2.383 -2.258,6.97 c -0.469,1.445 0.319,3.001 1.775,3.47 l 22.688,7.377 c 1.448,0.475 3.009,-0.323 3.477,-1.772 l 3.866,-11.886 0.428,-1.313 c 0.46,-1.449 -0.327,-3.009 -1.775,-3.475 l -14.315,-4.652 -2.63,-0.856 c -0.576,-0.193 -0.896,-0.817 -0.71,-1.393 l 1,-3.088 c 0.2,-0.581 0.816,-0.897 1.396,-0.702 l 11.214,3.635 c 0.575,0.188 0.888,0.819 0.709,1.393 l -0.624,1.76 7.354,2.385 2.177,-6.697 c 0.468,-1.452 -0.319,-3.005 -1.775,-3.477 l -22.688,-7.367 c -0.282,-0.095 -0.579,-0.141 -0.862,-0.141 -1.166,-0.002 -2.239,0.741 -2.622,1.907"
           inkscape:connector-curvature="0" /></defs><clipPath
         id="SVGID_8_"><use
           xlink:href="#SVGID_7_"
           overflow="visible"
           id="use6626"
           style="overflow:visible"
           x="0"
           y="0"
           width="100%"
           height="100%" /></clipPath><path
         clip-path="url(#SVGID_8_)"
         d="m 202.979,70.312 c 0.583,0.186 0.865,0.913 0.68,1.502 l -1.021,3.122 c -0.186,0.572 -0.803,0.892 -1.39,0.706 l -11.206,-3.649 c -0.583,-0.179 -0.902,-0.807 -0.717,-1.395 l 0.653,-1.975 -7.332,-2.377 -2.255,6.966 c -0.475,1.441 0.32,3.001 1.769,3.474 l 22.691,7.373 c 1.448,0.475 3.009,-0.327 3.473,-1.776 l 3.867,-11.884 0.431,-1.308 c 0.46,-1.454 -0.327,-3.008 -1.775,-3.48 l -14.312,-4.652 -2.634,-0.856 c -0.572,-0.189 -0.892,-0.813 -0.706,-1.391 l 0.996,-3.088 c 0.2,-0.583 0.813,-0.899 1.4,-0.704 l 11.206,3.636 c 0.579,0.189 0.895,0.817 0.709,1.391 l -0.624,1.76 7.358,2.387 2.185,-6.699 c 0.456,-1.449 -0.327,-3.005 -1.783,-3.477 l -22.684,-7.367 c -1.452,-0.479 -3.013,0.315 -3.484,1.768 l -3.882,11.951 -0.342,1.055 c -0.468,1.452 0.319,3.009 1.775,3.479 l 8.658,2.812 8.296,2.696 z"
         id="path6628"
         inkscape:connector-curvature="0"
         style="clip-rule:evenodd;fill:#0a1b23;fill-rule:evenodd" /><path
         clip-path="url(#SVGID_8_)"
         stroke-miterlimit="3.864"
         d="m 202.979,70.312 c 0.583,0.186 0.865,0.913 0.68,1.502 l -1.021,3.122 c -0.186,0.572 -0.803,0.892 -1.39,0.706 l -11.206,-3.649 c -0.583,-0.179 -0.902,-0.807 -0.717,-1.395 l 0.653,-1.975 -7.332,-2.377 -2.255,6.966 c -0.475,1.441 0.32,3.001 1.769,3.474 l 22.691,7.373 c 1.448,0.475 3.009,-0.327 3.473,-1.776 l 3.867,-11.884 0.431,-1.308 c 0.46,-1.454 -0.327,-3.008 -1.775,-3.48 l -14.312,-4.652 -2.634,-0.856 c -0.572,-0.189 -0.892,-0.813 -0.706,-1.391 l 0.996,-3.088 c 0.2,-0.583 0.813,-0.899 1.4,-0.704 l 11.206,3.636 c 0.579,0.189 0.895,0.817 0.709,1.391 l -0.624,1.76 7.358,2.387 2.185,-6.699 c 0.456,-1.449 -0.327,-3.005 -1.783,-3.477 l -22.684,-7.367 c -1.452,-0.479 -3.013,0.315 -3.484,1.768 l -3.882,11.951 -0.342,1.055 c -0.468,1.452 0.319,3.009 1.775,3.479 l 8.658,2.812 8.296,2.696 z"
         id="path6630"
         inkscape:connector-curvature="0"
         style="fill:none;stroke:#231f20;stroke-width:0.26620001;stroke-miterlimit:3.86400008" /></g><g
       id="g6632"><defs
         id="defs6634"><path
           id="SVGID_9_"
           d="m 57.923,46.686 -22.688,7.368 c -1.445,0.472 -2.24,2.03 -1.771,3.48 l 3.887,11.949 0.342,1.047 c 0.468,1.456 2.028,2.251 3.48,1.775 l 8.66,-2.806 8.296,-2.702 c 0.574,-0.182 1.231,0.236 1.426,0.815 l 1.012,3.125 c 0.189,0.57 -0.13,1.194 -0.708,1.386 l -11.21,3.64 c -0.578,0.189 -1.202,-0.122 -1.391,-0.702 l -0.639,-1.979 -7.338,2.374 2.268,6.972 c 0.472,1.448 2.034,2.236 3.484,1.764 l 22.691,-7.376 c 1.449,-0.469 2.236,-2.021 1.768,-3.47 L 65.627,61.451 65.198,60.138 c -0.464,-1.445 -2.022,-2.236 -3.473,-1.765 l -14.312,4.648 -2.634,0.853 c -0.581,0.189 -1.198,-0.126 -1.387,-0.717 l -1.005,-3.076 c -0.189,-0.579 0.126,-1.211 0.711,-1.396 l 11.21,-3.644 c 0.578,-0.186 1.206,0.137 1.391,0.715 l 0.574,1.764 7.305,-2.374 -2.173,-6.693 c -0.377,-1.168 -1.46,-1.905 -2.625,-1.905 -0.278,0 -0.571,0.041 -0.857,0.138"
           inkscape:connector-curvature="0" /></defs><clipPath
         id="SVGID_10_"><use
           xlink:href="#SVGID_9_"
           overflow="visible"
           id="use6638"
           style="overflow:visible"
           x="0"
           y="0"
           width="100%"
           height="100%" /></clipPath><path
         clip-path="url(#SVGID_10_)"
         d="m 49.833,69.498 -8.66,2.808 c -1.451,0.476 -3.012,-0.321 -3.477,-1.777 L 37.349,69.484 33.462,57.533 c -0.468,-1.445 0.327,-3.012 1.773,-3.48 l 22.691,-7.367 c 1.449,-0.472 3.012,0.315 3.48,1.768 l 2.171,6.699 -7.306,2.374 -0.57,-1.768 c -0.186,-0.583 -0.813,-0.903 -1.393,-0.715 l -11.212,3.644 c -0.581,0.189 -0.897,0.817 -0.708,1.395 l 1.005,3.081 c 0.186,0.585 0.81,0.9 1.391,0.711 l 2.624,-0.849 14.317,-4.65 c 1.449,-0.472 3.012,0.319 3.473,1.768 l 0.429,1.311 3.865,11.89 c 0.468,1.453 -0.319,3.005 -1.768,3.477 l -22.693,7.373 c -1.453,0.469 -3.013,-0.319 -3.484,-1.768 l -2.262,-6.968 7.332,-2.378 0.639,1.98 c 0.191,0.583 0.815,0.895 1.393,0.701 l 11.208,-3.638 c 0.58,-0.186 0.899,-0.81 0.708,-1.384 l -1.011,-3.124 c -0.195,-0.578 -0.852,-1 -1.422,-0.817 l -8.299,2.699 z"
         id="path6640"
         inkscape:connector-curvature="0"
         style="clip-rule:evenodd;fill:#0a1b23;fill-rule:evenodd" /><path
         clip-path="url(#SVGID_10_)"
         stroke-miterlimit="3.864"
         d="m 49.833,69.498 -8.66,2.808 c -1.451,0.476 -3.012,-0.321 -3.477,-1.777 L 37.349,69.484 33.462,57.533 c -0.468,-1.445 0.327,-3.012 1.773,-3.48 l 22.691,-7.367 c 1.449,-0.472 3.012,0.315 3.48,1.768 l 2.171,6.699 -7.306,2.374 -0.57,-1.768 c -0.186,-0.583 -0.813,-0.903 -1.393,-0.715 l -11.212,3.644 c -0.581,0.189 -0.897,0.817 -0.708,1.395 l 1.005,3.081 c 0.186,0.585 0.81,0.9 1.391,0.711 l 2.624,-0.849 14.317,-4.65 c 1.449,-0.472 3.012,0.319 3.473,1.768 l 0.429,1.311 3.865,11.89 c 0.468,1.453 -0.319,3.005 -1.768,3.477 l -22.693,7.373 c -1.453,0.469 -3.013,-0.319 -3.484,-1.768 l -2.262,-6.968 7.332,-2.378 0.639,1.98 c 0.191,0.583 0.815,0.895 1.393,0.701 l 11.208,-3.638 c 0.58,-0.186 0.899,-0.81 0.708,-1.384 l -1.011,-3.124 c -0.195,-0.578 -0.852,-1 -1.422,-0.817 l -8.299,2.699 z"
         id="path6642"
         inkscape:connector-curvature="0"
         style="fill:none;stroke:#231f20;stroke-width:0.26620001;stroke-miterlimit:3.86400008" /></g></g></svg>